G04 #@! TF.GenerationSoftware,KiCad,Pcbnew,7.0.10*
G04 #@! TF.CreationDate,2024-03-19T20:06:51-05:00*
G04 #@! TF.ProjectId,keychain,6b657963-6861-4696-9e2e-6b696361645f,rev?*
G04 #@! TF.SameCoordinates,Original*
G04 #@! TF.FileFunction,Soldermask,Top*
G04 #@! TF.FilePolarity,Negative*
%FSLAX46Y46*%
G04 Gerber Fmt 4.6, Leading zero omitted, Abs format (unit mm)*
G04 Created by KiCad (PCBNEW 7.0.10) date 2024-03-19 20:06:51*
%MOMM*%
%LPD*%
G01*
G04 APERTURE LIST*
G04 Aperture macros list*
%AMRoundRect*
0 Rectangle with rounded corners*
0 $1 Rounding radius*
0 $2 $3 $4 $5 $6 $7 $8 $9 X,Y pos of 4 corners*
0 Add a 4 corners polygon primitive as box body*
4,1,4,$2,$3,$4,$5,$6,$7,$8,$9,$2,$3,0*
0 Add four circle primitives for the rounded corners*
1,1,$1+$1,$2,$3*
1,1,$1+$1,$4,$5*
1,1,$1+$1,$6,$7*
1,1,$1+$1,$8,$9*
0 Add four rect primitives between the rounded corners*
20,1,$1+$1,$2,$3,$4,$5,0*
20,1,$1+$1,$4,$5,$6,$7,0*
20,1,$1+$1,$6,$7,$8,$9,0*
20,1,$1+$1,$8,$9,$2,$3,0*%
G04 Aperture macros list end*
%ADD10RoundRect,0.250000X-0.450000X0.350000X-0.450000X-0.350000X0.450000X-0.350000X0.450000X0.350000X0*%
%ADD11RoundRect,0.225000X0.375000X-0.225000X0.375000X0.225000X-0.375000X0.225000X-0.375000X-0.225000X0*%
%ADD12R,2.000000X1.500000*%
%ADD13R,2.000000X3.800000*%
%ADD14RoundRect,0.250000X-0.620000X-0.845000X0.620000X-0.845000X0.620000X0.845000X-0.620000X0.845000X0*%
%ADD15O,1.740000X2.190000*%
%ADD16RoundRect,0.150000X-0.825000X-0.150000X0.825000X-0.150000X0.825000X0.150000X-0.825000X0.150000X0*%
%ADD17R,2.450000X1.000000*%
%ADD18R,1.000000X2.450000*%
%ADD19RoundRect,0.250000X-0.600000X-0.600000X0.600000X-0.600000X0.600000X0.600000X-0.600000X0.600000X0*%
%ADD20C,1.700000*%
%ADD21RoundRect,0.250000X-0.337500X-0.475000X0.337500X-0.475000X0.337500X0.475000X-0.337500X0.475000X0*%
%ADD22RoundRect,0.250000X-0.350000X-0.450000X0.350000X-0.450000X0.350000X0.450000X-0.350000X0.450000X0*%
G04 APERTURE END LIST*
D10*
X139700000Y-62500000D03*
X139700000Y-64500000D03*
D11*
X139700000Y-59180000D03*
X139700000Y-55880000D03*
D12*
X111150000Y-55880000D03*
X111150000Y-58180000D03*
D13*
X117450000Y-58180000D03*
D12*
X111150000Y-60480000D03*
D14*
X114300000Y-76200000D03*
D15*
X116840000Y-76200000D03*
D16*
X139700000Y-71120000D03*
X139700000Y-72390000D03*
X139700000Y-73660000D03*
X139700000Y-74930000D03*
X139700000Y-76200000D03*
X139700000Y-77470000D03*
X139700000Y-78740000D03*
X144650000Y-78740000D03*
X144650000Y-77470000D03*
X144650000Y-76200000D03*
X144650000Y-74930000D03*
X144650000Y-73660000D03*
X144650000Y-72390000D03*
X144650000Y-71120000D03*
D17*
X122020000Y-66040000D03*
X122020000Y-67440000D03*
X122020000Y-68840000D03*
X122020000Y-70240000D03*
X122020000Y-71640000D03*
X122020000Y-73040000D03*
X122020000Y-74440000D03*
X122020000Y-75840000D03*
D18*
X123420000Y-78135000D03*
X124820000Y-78135000D03*
X126220000Y-78135000D03*
X127620000Y-78135000D03*
X129020000Y-78135000D03*
X130420000Y-78135000D03*
X131820000Y-78135000D03*
X133220000Y-78135000D03*
D17*
X134620000Y-75838800D03*
X134620000Y-74438800D03*
X134620000Y-73040000D03*
X134620000Y-71640000D03*
X134620000Y-70240000D03*
X134620000Y-68840000D03*
X134620000Y-67440000D03*
X134620000Y-66040000D03*
D19*
X144780000Y-58420000D03*
D20*
X147320000Y-58420000D03*
X144780000Y-60960000D03*
X147320000Y-60960000D03*
X144780000Y-63500000D03*
X147320000Y-63500000D03*
D21*
X110722500Y-71120000D03*
X112797500Y-71120000D03*
D22*
X115840000Y-68580000D03*
X117840000Y-68580000D03*
D21*
X115802500Y-63500000D03*
X117877500Y-63500000D03*
M02*
