G04 #@! TF.GenerationSoftware,KiCad,Pcbnew,7.0.10*
G04 #@! TF.CreationDate,2024-03-19T20:06:51-05:00*
G04 #@! TF.ProjectId,keychain,6b657963-6861-4696-9e2e-6b696361645f,rev?*
G04 #@! TF.SameCoordinates,Original*
G04 #@! TF.FileFunction,Copper,L2,Bot*
G04 #@! TF.FilePolarity,Positive*
%FSLAX46Y46*%
G04 Gerber Fmt 4.6, Leading zero omitted, Abs format (unit mm)*
G04 Created by KiCad (PCBNEW 7.0.10) date 2024-03-19 20:06:51*
%MOMM*%
%LPD*%
G01*
G04 APERTURE LIST*
G04 Aperture macros list*
%AMRoundRect*
0 Rectangle with rounded corners*
0 $1 Rounding radius*
0 $2 $3 $4 $5 $6 $7 $8 $9 X,Y pos of 4 corners*
0 Add a 4 corners polygon primitive as box body*
4,1,4,$2,$3,$4,$5,$6,$7,$8,$9,$2,$3,0*
0 Add four circle primitives for the rounded corners*
1,1,$1+$1,$2,$3*
1,1,$1+$1,$4,$5*
1,1,$1+$1,$6,$7*
1,1,$1+$1,$8,$9*
0 Add four rect primitives between the rounded corners*
20,1,$1+$1,$2,$3,$4,$5,0*
20,1,$1+$1,$4,$5,$6,$7,0*
20,1,$1+$1,$6,$7,$8,$9,0*
20,1,$1+$1,$8,$9,$2,$3,0*%
G04 Aperture macros list end*
G04 #@! TA.AperFunction,ComponentPad*
%ADD10RoundRect,0.250000X-0.620000X-0.845000X0.620000X-0.845000X0.620000X0.845000X-0.620000X0.845000X0*%
G04 #@! TD*
G04 #@! TA.AperFunction,ComponentPad*
%ADD11O,1.740000X2.190000*%
G04 #@! TD*
G04 #@! TA.AperFunction,ComponentPad*
%ADD12RoundRect,0.250000X-0.600000X-0.600000X0.600000X-0.600000X0.600000X0.600000X-0.600000X0.600000X0*%
G04 #@! TD*
G04 #@! TA.AperFunction,ComponentPad*
%ADD13C,1.700000*%
G04 #@! TD*
G04 #@! TA.AperFunction,ViaPad*
%ADD14C,0.800000*%
G04 #@! TD*
G04 #@! TA.AperFunction,Conductor*
%ADD15C,0.508000*%
G04 #@! TD*
G04 #@! TA.AperFunction,Conductor*
%ADD16C,0.254000*%
G04 #@! TD*
G04 APERTURE END LIST*
D10*
X114300000Y-76200000D03*
D11*
X116840000Y-76200000D03*
D12*
X144780000Y-58420000D03*
D13*
X147320000Y-58420000D03*
X144780000Y-60960000D03*
X147320000Y-60960000D03*
X144780000Y-63500000D03*
X147320000Y-63500000D03*
D14*
X139700000Y-71036000D03*
X122020000Y-71640000D03*
X139700000Y-71036000D03*
X139700000Y-59180000D03*
X141513000Y-76295199D03*
X144780000Y-66040000D03*
X137887000Y-76200000D03*
X124460000Y-71120000D03*
X139700000Y-68580000D03*
X137081065Y-73767000D03*
X132080000Y-73660000D03*
X139700000Y-60960000D03*
D15*
X139700000Y-71036000D02*
X139700000Y-75594739D01*
X140554000Y-60034000D02*
X139700000Y-59180000D01*
X138240739Y-77054000D02*
X127434000Y-77054000D01*
X139700000Y-75594739D02*
X138240739Y-77054000D01*
X127434000Y-77054000D02*
X122020000Y-71640000D01*
X140554000Y-70182000D02*
X140554000Y-60034000D01*
X139700000Y-71036000D02*
X140554000Y-70182000D01*
D16*
X137887000Y-76200000D02*
X129540000Y-76200000D01*
X144780000Y-73028199D02*
X144780000Y-66040000D01*
X129540000Y-76200000D02*
X124460000Y-71120000D01*
X141513000Y-76295199D02*
X144780000Y-73028199D01*
X139700000Y-68580000D02*
X137081065Y-71198935D01*
X137081065Y-71198935D02*
X137081065Y-73767000D01*
X139700000Y-60960000D02*
X139700000Y-63500000D01*
X139700000Y-63500000D02*
X132080000Y-71120000D01*
X132080000Y-71120000D02*
X132080000Y-73660000D01*
M02*
