G04 #@! TF.GenerationSoftware,KiCad,Pcbnew,7.0.10*
G04 #@! TF.CreationDate,2024-03-26T17:49:21-05:00*
G04 #@! TF.ProjectId,key,6b65792e-6b69-4636-9164-5f7063625858,rev?*
G04 #@! TF.SameCoordinates,Original*
G04 #@! TF.FileFunction,Copper,L1,Top*
G04 #@! TF.FilePolarity,Positive*
%FSLAX46Y46*%
G04 Gerber Fmt 4.6, Leading zero omitted, Abs format (unit mm)*
G04 Created by KiCad (PCBNEW 7.0.10) date 2024-03-26 17:49:21*
%MOMM*%
%LPD*%
G01*
G04 APERTURE LIST*
G04 Aperture macros list*
%AMRoundRect*
0 Rectangle with rounded corners*
0 $1 Rounding radius*
0 $2 $3 $4 $5 $6 $7 $8 $9 X,Y pos of 4 corners*
0 Add a 4 corners polygon primitive as box body*
4,1,4,$2,$3,$4,$5,$6,$7,$8,$9,$2,$3,0*
0 Add four circle primitives for the rounded corners*
1,1,$1+$1,$2,$3*
1,1,$1+$1,$4,$5*
1,1,$1+$1,$6,$7*
1,1,$1+$1,$8,$9*
0 Add four rect primitives between the rounded corners*
20,1,$1+$1,$2,$3,$4,$5,0*
20,1,$1+$1,$4,$5,$6,$7,0*
20,1,$1+$1,$6,$7,$8,$9,0*
20,1,$1+$1,$8,$9,$2,$3,0*%
G04 Aperture macros list end*
G04 #@! TA.AperFunction,ComponentPad*
%ADD10RoundRect,0.250000X-0.620000X-0.845000X0.620000X-0.845000X0.620000X0.845000X-0.620000X0.845000X0*%
G04 #@! TD*
G04 #@! TA.AperFunction,ComponentPad*
%ADD11O,1.740000X2.190000*%
G04 #@! TD*
G04 #@! TA.AperFunction,SMDPad,CuDef*
%ADD12RoundRect,0.250000X-0.450000X0.325000X-0.450000X-0.325000X0.450000X-0.325000X0.450000X0.325000X0*%
G04 #@! TD*
G04 #@! TA.AperFunction,SMDPad,CuDef*
%ADD13RoundRect,0.250000X-0.337500X-0.475000X0.337500X-0.475000X0.337500X0.475000X-0.337500X0.475000X0*%
G04 #@! TD*
G04 #@! TA.AperFunction,SMDPad,CuDef*
%ADD14RoundRect,0.250000X0.350000X0.450000X-0.350000X0.450000X-0.350000X-0.450000X0.350000X-0.450000X0*%
G04 #@! TD*
G04 #@! TA.AperFunction,SMDPad,CuDef*
%ADD15R,2.000000X1.500000*%
G04 #@! TD*
G04 #@! TA.AperFunction,SMDPad,CuDef*
%ADD16R,2.000000X3.800000*%
G04 #@! TD*
G04 #@! TA.AperFunction,ComponentPad*
%ADD17R,1.905000X2.000000*%
G04 #@! TD*
G04 #@! TA.AperFunction,ComponentPad*
%ADD18O,1.905000X2.000000*%
G04 #@! TD*
G04 #@! TA.AperFunction,SMDPad,CuDef*
%ADD19RoundRect,0.250000X0.450000X-0.325000X0.450000X0.325000X-0.450000X0.325000X-0.450000X-0.325000X0*%
G04 #@! TD*
G04 #@! TA.AperFunction,ComponentPad*
%ADD20RoundRect,0.250000X0.600000X0.600000X-0.600000X0.600000X-0.600000X-0.600000X0.600000X-0.600000X0*%
G04 #@! TD*
G04 #@! TA.AperFunction,ComponentPad*
%ADD21C,1.700000*%
G04 #@! TD*
G04 #@! TA.AperFunction,SMDPad,CuDef*
%ADD22RoundRect,0.250000X-0.350000X-0.450000X0.350000X-0.450000X0.350000X0.450000X-0.350000X0.450000X0*%
G04 #@! TD*
G04 #@! TA.AperFunction,ComponentPad*
%ADD23R,2.400000X1.600000*%
G04 #@! TD*
G04 #@! TA.AperFunction,ComponentPad*
%ADD24O,2.400000X1.600000*%
G04 #@! TD*
G04 #@! TA.AperFunction,SMDPad,CuDef*
%ADD25R,2.450000X1.000000*%
G04 #@! TD*
G04 #@! TA.AperFunction,SMDPad,CuDef*
%ADD26R,1.000000X2.450000*%
G04 #@! TD*
G04 #@! TA.AperFunction,SMDPad,CuDef*
%ADD27RoundRect,0.150000X-0.825000X-0.150000X0.825000X-0.150000X0.825000X0.150000X-0.825000X0.150000X0*%
G04 #@! TD*
G04 #@! TA.AperFunction,SMDPad,CuDef*
%ADD28RoundRect,0.225000X-0.225000X-0.375000X0.225000X-0.375000X0.225000X0.375000X-0.225000X0.375000X0*%
G04 #@! TD*
G04 #@! TA.AperFunction,ViaPad*
%ADD29C,0.800000*%
G04 #@! TD*
G04 #@! TA.AperFunction,Conductor*
%ADD30C,0.254000*%
G04 #@! TD*
G04 #@! TA.AperFunction,Conductor*
%ADD31C,0.508000*%
G04 #@! TD*
G04 #@! TA.AperFunction,Conductor*
%ADD32C,0.100000*%
G04 #@! TD*
G04 APERTURE END LIST*
D10*
G04 #@! TO.P,J1,1,Pin_1*
G04 #@! TO.N,GND*
X144780000Y-78740000D03*
D11*
G04 #@! TO.P,J1,2,Pin_2*
G04 #@! TO.N,Net-(J1-Pin_2)*
X147320000Y-78740000D03*
G04 #@! TD*
D10*
G04 #@! TO.P,J2,1,Pin_1*
G04 #@! TO.N,Net-(J2-Pin_1)*
X144780000Y-68580000D03*
D11*
G04 #@! TO.P,J2,2,Pin_2*
G04 #@! TO.N,GND*
X147320000Y-68580000D03*
G04 #@! TD*
D12*
G04 #@! TO.P,D5,1,K*
G04 #@! TO.N,GND*
X119380000Y-78740000D03*
G04 #@! TO.P,D5,2,A*
G04 #@! TO.N,Net-(D5-A)*
X119380000Y-80790000D03*
G04 #@! TD*
D13*
G04 #@! TO.P,C2,1*
G04 #@! TO.N,+3.3V*
X155405000Y-81280000D03*
G04 #@! TO.P,C2,2*
G04 #@! TO.N,GND*
X157480000Y-81280000D03*
G04 #@! TD*
D14*
G04 #@! TO.P,R2,1*
G04 #@! TO.N,Net-(J1-Pin_2)*
X139700000Y-71120000D03*
G04 #@! TO.P,R2,2*
G04 #@! TO.N,/button*
X137700000Y-71120000D03*
G04 #@! TD*
D15*
G04 #@! TO.P,U3,1,GND*
G04 #@! TO.N,GND*
X154330000Y-56120000D03*
G04 #@! TO.P,U3,2,VO*
G04 #@! TO.N,+3.3V*
X154330000Y-58420000D03*
D16*
X160630000Y-58420000D03*
D15*
G04 #@! TO.P,U3,3,VI*
G04 #@! TO.N,Net-(J3-Pin_2)*
X154330000Y-60720000D03*
G04 #@! TD*
D17*
G04 #@! TO.P,Q1,1,G*
G04 #@! TO.N,Net-(Q1-G)*
X139700000Y-58420000D03*
D18*
G04 #@! TO.P,Q1,2,D*
G04 #@! TO.N,/confirmation*
X142240000Y-58420000D03*
G04 #@! TO.P,Q1,3,S*
G04 #@! TO.N,GND*
X144780000Y-58420000D03*
G04 #@! TD*
D19*
G04 #@! TO.P,D2,1,K*
G04 #@! TO.N,GND*
X152400000Y-91440000D03*
G04 #@! TO.P,D2,2,A*
G04 #@! TO.N,/confirmation*
X152400000Y-89390000D03*
G04 #@! TD*
G04 #@! TO.P,D3,1,K*
G04 #@! TO.N,GND*
X147320000Y-91440000D03*
G04 #@! TO.P,D3,2,A*
G04 #@! TO.N,/alarm*
X147320000Y-89390000D03*
G04 #@! TD*
D20*
G04 #@! TO.P,J4,1,MISO*
G04 #@! TO.N,/MISO*
X129540000Y-88900000D03*
D21*
G04 #@! TO.P,J4,2,VCC*
G04 #@! TO.N,Net-(D1-A)*
X127000000Y-88900000D03*
G04 #@! TO.P,J4,3,SCK*
G04 #@! TO.N,/SCK*
X129540000Y-86360000D03*
G04 #@! TO.P,J4,4,MOSI*
G04 #@! TO.N,/MOSI*
X127000000Y-86360000D03*
G04 #@! TO.P,J4,5,~{RST}*
G04 #@! TO.N,/RST*
X129540000Y-83820000D03*
G04 #@! TO.P,J4,6,GND*
G04 #@! TO.N,GND*
X127000000Y-83820000D03*
G04 #@! TD*
D10*
G04 #@! TO.P,J3,1,Pin_1*
G04 #@! TO.N,GND*
X154940000Y-73660000D03*
D11*
G04 #@! TO.P,J3,2,Pin_2*
G04 #@! TO.N,Net-(J3-Pin_2)*
X157480000Y-73660000D03*
G04 #@! TD*
D14*
G04 #@! TO.P,R1,1*
G04 #@! TO.N,GND*
X122920000Y-66040000D03*
G04 #@! TO.P,R1,2*
G04 #@! TO.N,/interrupt*
X120920000Y-66040000D03*
G04 #@! TD*
D22*
G04 #@! TO.P,R4,1*
G04 #@! TO.N,+3.3V*
X109220000Y-83820000D03*
G04 #@! TO.P,R4,2*
G04 #@! TO.N,/RST*
X111220000Y-83820000D03*
G04 #@! TD*
D23*
G04 #@! TO.P,U2,1,NULL*
G04 #@! TO.N,GND*
X129540000Y-44460000D03*
D24*
G04 #@! TO.P,U2,2,-*
G04 #@! TO.N,Net-(Q1-G)*
X129540000Y-47000000D03*
G04 #@! TO.P,U2,3,+*
G04 #@! TO.N,Net-(U2-+)*
X129540000Y-49540000D03*
G04 #@! TO.P,U2,4,V-*
G04 #@! TO.N,GND*
X129540000Y-52080000D03*
G04 #@! TO.P,U2,5,NULL*
X137160000Y-52080000D03*
G04 #@! TO.P,U2,6*
G04 #@! TO.N,Net-(Q1-G)*
X137160000Y-49540000D03*
G04 #@! TO.P,U2,7,V+*
G04 #@! TO.N,+3.3V*
X137160000Y-47000000D03*
G04 #@! TO.P,U2,8,NC*
G04 #@! TO.N,unconnected-(U2-NC-Pad8)*
X137160000Y-44460000D03*
G04 #@! TD*
D25*
G04 #@! TO.P,DWM1,1,EXTON*
G04 #@! TO.N,unconnected-(DWM1-EXTON-Pad1)*
X102920000Y-65241200D03*
G04 #@! TO.P,DWM1,2,WAKEUP*
G04 #@! TO.N,GND*
X102920000Y-66641200D03*
G04 #@! TO.P,DWM1,3,RSTn*
G04 #@! TO.N,/RST*
X102920000Y-68041200D03*
G04 #@! TO.P,DWM1,4,GPIO7*
G04 #@! TO.N,unconnected-(DWM1-GPIO7-Pad4)*
X102920000Y-69441200D03*
G04 #@! TO.P,DWM1,5,VDDAON*
G04 #@! TO.N,+3.3V*
X102920000Y-70841200D03*
G04 #@! TO.P,DWM1,6,VDD3V3*
X102920000Y-72241200D03*
G04 #@! TO.P,DWM1,7,VDD3V3*
X102920000Y-73641200D03*
G04 #@! TO.P,DWM1,8,VSS*
G04 #@! TO.N,GND*
X102920000Y-75041200D03*
D26*
G04 #@! TO.P,DWM1,9,GPIO6/EXTRXE/SPIHA*
G04 #@! TO.N,unconnected-(DWM1-GPIO6{slash}EXTRXE{slash}SPIHA-Pad9)*
X104320000Y-77336200D03*
G04 #@! TO.P,DWM1,10,GPIO5/EXTTXE/SPIPOL*
G04 #@! TO.N,unconnected-(DWM1-GPIO5{slash}EXTTXE{slash}SPIPOL-Pad10)*
X105720000Y-77336200D03*
G04 #@! TO.P,DWM1,11,GPIO4/EXTPA*
G04 #@! TO.N,Net-(D5-A)*
X107120000Y-77336200D03*
G04 #@! TO.P,DWM1,12,GPIO3/TXLED*
G04 #@! TO.N,unconnected-(DWM1-GPIO3{slash}TXLED-Pad12)*
X108520000Y-77336200D03*
G04 #@! TO.P,DWM1,13,GPIO2/RXLED*
G04 #@! TO.N,unconnected-(DWM1-GPIO2{slash}RXLED-Pad13)*
X109920000Y-77336200D03*
G04 #@! TO.P,DWM1,14,GPIO1/SFDLED*
G04 #@! TO.N,unconnected-(DWM1-GPIO1{slash}SFDLED-Pad14)*
X111320000Y-77336200D03*
G04 #@! TO.P,DWM1,15,GPIO0/RXOKLED*
G04 #@! TO.N,unconnected-(DWM1-GPIO0{slash}RXOKLED-Pad15)*
X112720000Y-77336200D03*
G04 #@! TO.P,DWM1,16,VSS*
G04 #@! TO.N,GND*
X114120000Y-77336200D03*
D25*
G04 #@! TO.P,DWM1,17,SPICSn*
G04 #@! TO.N,/Csn*
X115520000Y-75040000D03*
G04 #@! TO.P,DWM1,18,SPIMOSI*
G04 #@! TO.N,/MOSI*
X115520000Y-73640000D03*
G04 #@! TO.P,DWM1,19,SPIMISO*
G04 #@! TO.N,/MISO*
X115520000Y-72241200D03*
G04 #@! TO.P,DWM1,20,SPICLK*
G04 #@! TO.N,/SCK*
X115520000Y-70841200D03*
G04 #@! TO.P,DWM1,21,VSS*
G04 #@! TO.N,GND*
X115520000Y-69441200D03*
G04 #@! TO.P,DWM1,22,IRQ/GPIO8*
G04 #@! TO.N,/interrupt*
X115520000Y-68041200D03*
G04 #@! TO.P,DWM1,23,VSS*
G04 #@! TO.N,GND*
X115520000Y-66641200D03*
G04 #@! TO.P,DWM1,24,VSS*
X115520000Y-65241200D03*
G04 #@! TD*
D22*
G04 #@! TO.P,R3,1*
G04 #@! TO.N,/alarm*
X137700000Y-68580000D03*
G04 #@! TO.P,R3,2*
G04 #@! TO.N,Net-(J2-Pin_1)*
X139700000Y-68580000D03*
G04 #@! TD*
G04 #@! TO.P,Gate-bias1,1*
G04 #@! TO.N,Net-(Q1-G)*
X143780000Y-50800000D03*
G04 #@! TO.P,Gate-bias1,2*
G04 #@! TO.N,GND*
X145780000Y-50800000D03*
G04 #@! TD*
D27*
G04 #@! TO.P,U4,1,VCC*
G04 #@! TO.N,+3.3V*
X127000000Y-64770000D03*
G04 #@! TO.P,U4,2,XTAL1/PB0*
G04 #@! TO.N,unconnected-(U4-XTAL1{slash}PB0-Pad2)*
X127000000Y-66040000D03*
G04 #@! TO.P,U4,3,XTAL2/PB1*
G04 #@! TO.N,unconnected-(U4-XTAL2{slash}PB1-Pad3)*
X127000000Y-67310000D03*
G04 #@! TO.P,U4,4,~{RESET}/PB3*
G04 #@! TO.N,/RST*
X127000000Y-68580000D03*
G04 #@! TO.P,U4,5,PB2*
G04 #@! TO.N,unconnected-(U4-PB2-Pad5)*
X127000000Y-69850000D03*
G04 #@! TO.P,U4,6,PA7*
G04 #@! TO.N,/Csn*
X127000000Y-71120000D03*
G04 #@! TO.P,U4,7,PA6*
G04 #@! TO.N,/MOSI*
X127000000Y-72390000D03*
G04 #@! TO.P,U4,8,PA5*
G04 #@! TO.N,/MISO*
X131950000Y-72390000D03*
G04 #@! TO.P,U4,9,PA4*
G04 #@! TO.N,/SCK*
X131950000Y-71120000D03*
G04 #@! TO.P,U4,10,PA3*
G04 #@! TO.N,/button*
X131950000Y-69850000D03*
G04 #@! TO.P,U4,11,PA2*
G04 #@! TO.N,/alarm*
X131950000Y-68580000D03*
G04 #@! TO.P,U4,12,PA1*
G04 #@! TO.N,/confirmation*
X131950000Y-67310000D03*
G04 #@! TO.P,U4,13,AREF/PA0*
G04 #@! TO.N,unconnected-(U4-AREF{slash}PA0-Pad13)*
X131950000Y-66040000D03*
G04 #@! TO.P,U4,14,GND*
G04 #@! TO.N,GND*
X131950000Y-64770000D03*
G04 #@! TD*
D22*
G04 #@! TO.P,Pulldown1,1*
G04 #@! TO.N,+3.3V*
X137700000Y-63500000D03*
G04 #@! TO.P,Pulldown1,2*
G04 #@! TO.N,/confirmation*
X139700000Y-63500000D03*
G04 #@! TD*
D13*
G04 #@! TO.P,C1,1*
G04 #@! TO.N,Net-(J3-Pin_2)*
X154940000Y-66040000D03*
G04 #@! TO.P,C1,2*
G04 #@! TO.N,GND*
X157015000Y-66040000D03*
G04 #@! TD*
G04 #@! TO.P,C3,1*
G04 #@! TO.N,/button*
X137625000Y-76200000D03*
G04 #@! TO.P,C3,2*
G04 #@! TO.N,GND*
X139700000Y-76200000D03*
G04 #@! TD*
D28*
G04 #@! TO.P,D1,1,K*
G04 #@! TO.N,+3.3V*
X110110000Y-88900000D03*
G04 #@! TO.P,D1,2,A*
G04 #@! TO.N,Net-(D1-A)*
X113410000Y-88900000D03*
G04 #@! TD*
D22*
G04 #@! TO.P,PressureSensor1,1*
G04 #@! TO.N,+3.3V*
X119920000Y-53340000D03*
G04 #@! TO.P,PressureSensor1,2*
G04 #@! TO.N,Net-(U2-+)*
X121920000Y-53340000D03*
G04 #@! TD*
G04 #@! TO.P,RM1,1*
G04 #@! TO.N,Net-(U2-+)*
X119920000Y-58420000D03*
G04 #@! TO.P,RM1,2*
G04 #@! TO.N,GND*
X121920000Y-58420000D03*
G04 #@! TD*
D19*
G04 #@! TO.P,D4,1,K*
G04 #@! TO.N,GND*
X139700000Y-91440000D03*
G04 #@! TO.P,D4,2,A*
G04 #@! TO.N,/button*
X139700000Y-89390000D03*
G04 #@! TD*
D29*
G04 #@! TO.N,GND*
X152400000Y-76200000D03*
X152400000Y-76200000D03*
G04 #@! TO.N,+3.3V*
X154330000Y-58420000D03*
X160630000Y-58420000D03*
X119920000Y-53340000D03*
X127000000Y-64770000D03*
X155405000Y-81280000D03*
X102095000Y-71120000D03*
X137700000Y-63500000D03*
X155405000Y-81280000D03*
G04 #@! TO.N,/RST*
X102920000Y-68041200D03*
X119380000Y-83820000D03*
X129540000Y-81280000D03*
X124460000Y-68496000D03*
G04 #@! TO.N,/Csn*
X127000000Y-76200000D03*
G04 #@! TO.N,/MOSI*
X121920000Y-86360000D03*
X124460000Y-71220000D03*
G04 #@! TD*
D30*
G04 #@! TO.N,Net-(J3-Pin_2)*
X154940000Y-66040000D02*
X154940000Y-71120000D01*
X154330000Y-60720000D02*
X154330000Y-65430000D01*
X154940000Y-71120000D02*
X157480000Y-73660000D01*
X154330000Y-65430000D02*
X154940000Y-66040000D01*
G04 #@! TO.N,GND*
X154940000Y-73660000D02*
X152400000Y-76200000D01*
D31*
G04 #@! TO.N,+3.3V*
X102920000Y-72241200D02*
X102920000Y-71945000D01*
X102920000Y-71945000D02*
X102095000Y-71120000D01*
X110110000Y-84710000D02*
X109220000Y-83820000D01*
X101241000Y-76890200D02*
X101241000Y-74019000D01*
X109220000Y-83820000D02*
X108170800Y-83820000D01*
X108170800Y-83820000D02*
X101241000Y-76890200D01*
X102920000Y-70841200D02*
X102920000Y-72241200D01*
X101241000Y-74019000D02*
X101618800Y-73641200D01*
X102920000Y-70841200D02*
X101949000Y-70841200D01*
X110110000Y-88900000D02*
X110110000Y-84710000D01*
X101949000Y-70841200D02*
X101949000Y-71120000D01*
X101949000Y-71120000D02*
X102641200Y-71120000D01*
X102641200Y-71120000D02*
X102920000Y-70841200D01*
X102920000Y-73641200D02*
X102920000Y-72241200D01*
X101618800Y-73641200D02*
X102920000Y-73641200D01*
D30*
G04 #@! TO.N,/button*
X137625000Y-76200000D02*
X137625000Y-87315000D01*
X137625000Y-87315000D02*
X139700000Y-89390000D01*
X137700000Y-76125000D02*
X137625000Y-76200000D01*
X137700000Y-71120000D02*
X136430000Y-69850000D01*
X137700000Y-71120000D02*
X137700000Y-76125000D01*
X136430000Y-69850000D02*
X131950000Y-69850000D01*
G04 #@! TO.N,/RST*
X127000000Y-68580000D02*
X124544000Y-68580000D01*
X101941000Y-68041200D02*
X102920000Y-68041200D01*
D32*
X103601200Y-68041200D02*
X102920000Y-68041200D01*
D30*
X119380000Y-83820000D02*
X111220000Y-83820000D01*
X129540000Y-83820000D02*
X129540000Y-81280000D01*
X124544000Y-68580000D02*
X124460000Y-68496000D01*
G04 #@! TO.N,Net-(D5-A)*
X107120000Y-78815200D02*
X107120000Y-77336200D01*
X109094800Y-80790000D02*
X107120000Y-78815200D01*
X119380000Y-80790000D02*
X109094800Y-80790000D01*
G04 #@! TO.N,/Csn*
X129540000Y-72648317D02*
X128011684Y-71120000D01*
D32*
X127000000Y-71120000D02*
X127974999Y-71120000D01*
D30*
X125840000Y-75040000D02*
X127000000Y-76200000D01*
D32*
X128225000Y-74975000D02*
X128160000Y-75040000D01*
D30*
X127000000Y-76200000D02*
X129540000Y-73660000D01*
X128011684Y-71120000D02*
X127000000Y-71120000D01*
X115520000Y-75040000D02*
X125840000Y-75040000D01*
X129540000Y-73660000D02*
X129540000Y-72648317D01*
G04 #@! TO.N,/MOSI*
X127000000Y-72390000D02*
X125750000Y-73640000D01*
X127000000Y-86360000D02*
X121920000Y-86360000D01*
X125750000Y-73640000D02*
X115520000Y-73640000D01*
X125630000Y-72390000D02*
X127000000Y-72390000D01*
X124460000Y-71220000D02*
X125630000Y-72390000D01*
G04 #@! TO.N,/MISO*
X128363000Y-87723000D02*
X128363000Y-75977000D01*
X129540000Y-88900000D02*
X128363000Y-87723000D01*
X118747200Y-70493000D02*
X116999000Y-72241200D01*
X131950000Y-72390000D02*
X129923736Y-72390000D01*
X129923736Y-72390000D02*
X128026736Y-70493000D01*
D32*
X116245000Y-72241200D02*
X115520000Y-72241200D01*
D30*
X128363000Y-75977000D02*
X131950000Y-72390000D01*
X116999000Y-72241200D02*
X115520000Y-72241200D01*
X128026736Y-70493000D02*
X118747200Y-70493000D01*
G04 #@! TO.N,Net-(D1-A)*
X127000000Y-88900000D02*
X113410000Y-88900000D01*
G04 #@! TO.N,/interrupt*
X120842400Y-66040000D02*
X120920000Y-66040000D01*
X115520000Y-68041200D02*
X118841200Y-68041200D01*
X118841200Y-68041200D02*
X120842400Y-66040000D01*
G04 #@! TO.N,Net-(Q1-G)*
X134620000Y-50800000D02*
X133340000Y-50800000D01*
X143780000Y-50800000D02*
X134620000Y-50800000D01*
X133340000Y-50800000D02*
X129540000Y-47000000D01*
X135900000Y-50800000D02*
X134620000Y-50800000D01*
X143780000Y-54340000D02*
X139700000Y-58420000D01*
X137160000Y-49540000D02*
X135900000Y-50800000D01*
X143780000Y-50800000D02*
X143780000Y-54340000D01*
G04 #@! TO.N,Net-(J1-Pin_2)*
X139700000Y-71120000D02*
X147320000Y-78740000D01*
G04 #@! TO.N,Net-(J2-Pin_1)*
X144780000Y-68580000D02*
X139700000Y-68580000D01*
G04 #@! TO.N,Net-(U2-+)*
X121920000Y-53340000D02*
X121920000Y-56420000D01*
X121920000Y-56420000D02*
X119920000Y-58420000D01*
X125720000Y-49540000D02*
X121920000Y-53340000D01*
X129540000Y-49540000D02*
X125720000Y-49540000D01*
G04 #@! TO.N,/confirmation*
X151498000Y-90292000D02*
X139004072Y-90292000D01*
X133977000Y-70477000D02*
X130923264Y-70477000D01*
X152400000Y-89390000D02*
X151498000Y-90292000D01*
X139700000Y-63500000D02*
X139700000Y-64200000D01*
X130975001Y-67310000D02*
X131950000Y-67310000D01*
X130648000Y-67637001D02*
X130975001Y-67310000D01*
X139004072Y-90292000D02*
X135074000Y-86361928D01*
X135074000Y-86361928D02*
X135074000Y-71574000D01*
X135074000Y-71574000D02*
X133977000Y-70477000D01*
X130648000Y-70201736D02*
X130648000Y-67637001D01*
X142240000Y-58420000D02*
X142240000Y-60960000D01*
X136590000Y-67310000D02*
X131950000Y-67310000D01*
D32*
X132810000Y-67310000D02*
X131950000Y-67310000D01*
D30*
X130923264Y-70477000D02*
X130648000Y-70201736D01*
X142240000Y-60960000D02*
X139700000Y-63500000D01*
X139700000Y-64200000D02*
X136590000Y-67310000D01*
G04 #@! TO.N,/alarm*
X138773000Y-69653000D02*
X137700000Y-68580000D01*
X147320000Y-89390000D02*
X138773000Y-80843000D01*
X138773000Y-80843000D02*
X138773000Y-69653000D01*
X137700000Y-68580000D02*
X131950000Y-68580000D01*
G04 #@! TO.N,/SCK*
X117118800Y-70841200D02*
X115520000Y-70841200D01*
X118737000Y-69223000D02*
X117118800Y-70841200D01*
X131950000Y-71120000D02*
X132924999Y-71120000D01*
X132924999Y-71120000D02*
X134620000Y-72815001D01*
X134620000Y-81280000D02*
X129540000Y-86360000D01*
X128026736Y-69223000D02*
X118737000Y-69223000D01*
X129923736Y-71120000D02*
X128026736Y-69223000D01*
X134620000Y-72815001D02*
X134620000Y-81280000D01*
X131950000Y-71120000D02*
X129923736Y-71120000D01*
G04 #@! TD*
G04 #@! TA.AperFunction,Conductor*
G04 #@! TO.N,GND*
G36*
X162502539Y-40660185D02*
G01*
X162548294Y-40712989D01*
X162559500Y-40764500D01*
X162559500Y-96395500D01*
X162539815Y-96462539D01*
X162487011Y-96508294D01*
X162435500Y-96519500D01*
X96644500Y-96519500D01*
X96577461Y-96499815D01*
X96531706Y-96447011D01*
X96520500Y-96395500D01*
X96520500Y-91690000D01*
X138500001Y-91690000D01*
X138500001Y-91814986D01*
X138510494Y-91917697D01*
X138565641Y-92084119D01*
X138565643Y-92084124D01*
X138657684Y-92233345D01*
X138781654Y-92357315D01*
X138930875Y-92449356D01*
X138930880Y-92449358D01*
X139097302Y-92504505D01*
X139097309Y-92504506D01*
X139200019Y-92514999D01*
X139449999Y-92514999D01*
X139450000Y-92514998D01*
X139450000Y-91690000D01*
X139950000Y-91690000D01*
X139950000Y-92514999D01*
X140199972Y-92514999D01*
X140199986Y-92514998D01*
X140302697Y-92504505D01*
X140469119Y-92449358D01*
X140469124Y-92449356D01*
X140618345Y-92357315D01*
X140742315Y-92233345D01*
X140834356Y-92084124D01*
X140834358Y-92084119D01*
X140889505Y-91917697D01*
X140889506Y-91917690D01*
X140899999Y-91814986D01*
X140900000Y-91814973D01*
X140900000Y-91690000D01*
X146120001Y-91690000D01*
X146120001Y-91814986D01*
X146130494Y-91917697D01*
X146185641Y-92084119D01*
X146185643Y-92084124D01*
X146277684Y-92233345D01*
X146401654Y-92357315D01*
X146550875Y-92449356D01*
X146550880Y-92449358D01*
X146717302Y-92504505D01*
X146717309Y-92504506D01*
X146820019Y-92514999D01*
X147069999Y-92514999D01*
X147070000Y-92514998D01*
X147070000Y-91690000D01*
X147570000Y-91690000D01*
X147570000Y-92514999D01*
X147819972Y-92514999D01*
X147819986Y-92514998D01*
X147922697Y-92504505D01*
X148089119Y-92449358D01*
X148089124Y-92449356D01*
X148238345Y-92357315D01*
X148362315Y-92233345D01*
X148454356Y-92084124D01*
X148454358Y-92084119D01*
X148509505Y-91917697D01*
X148509506Y-91917690D01*
X148519999Y-91814986D01*
X148520000Y-91814973D01*
X148520000Y-91690000D01*
X151200001Y-91690000D01*
X151200001Y-91814986D01*
X151210494Y-91917697D01*
X151265641Y-92084119D01*
X151265643Y-92084124D01*
X151357684Y-92233345D01*
X151481654Y-92357315D01*
X151630875Y-92449356D01*
X151630880Y-92449358D01*
X151797302Y-92504505D01*
X151797309Y-92504506D01*
X151900019Y-92514999D01*
X152149999Y-92514999D01*
X152150000Y-92514998D01*
X152150000Y-91690000D01*
X152650000Y-91690000D01*
X152650000Y-92514999D01*
X152899972Y-92514999D01*
X152899986Y-92514998D01*
X153002697Y-92504505D01*
X153169119Y-92449358D01*
X153169124Y-92449356D01*
X153318345Y-92357315D01*
X153442315Y-92233345D01*
X153534356Y-92084124D01*
X153534358Y-92084119D01*
X153589505Y-91917697D01*
X153589506Y-91917690D01*
X153599999Y-91814986D01*
X153600000Y-91814973D01*
X153600000Y-91690000D01*
X152650000Y-91690000D01*
X152150000Y-91690000D01*
X151200001Y-91690000D01*
X148520000Y-91690000D01*
X147570000Y-91690000D01*
X147070000Y-91690000D01*
X146120001Y-91690000D01*
X140900000Y-91690000D01*
X139950000Y-91690000D01*
X139450000Y-91690000D01*
X138500001Y-91690000D01*
X96520500Y-91690000D01*
X96520500Y-76868108D01*
X100481684Y-76868108D01*
X100486028Y-76917745D01*
X100486500Y-76928554D01*
X100486500Y-76934146D01*
X100490116Y-76965085D01*
X100490482Y-76968670D01*
X100497056Y-77043810D01*
X100498516Y-77050877D01*
X100498464Y-77050887D01*
X100500123Y-77058367D01*
X100500174Y-77058355D01*
X100501840Y-77065385D01*
X100527621Y-77136220D01*
X100528804Y-77139623D01*
X100552533Y-77211229D01*
X100555586Y-77217775D01*
X100555536Y-77217798D01*
X100558876Y-77224697D01*
X100558925Y-77224673D01*
X100562167Y-77231130D01*
X100603613Y-77294146D01*
X100605550Y-77297186D01*
X100645131Y-77361356D01*
X100649611Y-77367022D01*
X100649569Y-77367055D01*
X100654401Y-77372986D01*
X100654443Y-77372952D01*
X100659088Y-77378488D01*
X100713938Y-77430236D01*
X100716525Y-77432749D01*
X107592034Y-84308258D01*
X107603815Y-84321890D01*
X107618261Y-84341294D01*
X107656438Y-84373328D01*
X107664414Y-84380638D01*
X107668354Y-84384579D01*
X107692810Y-84403916D01*
X107695607Y-84406195D01*
X107753372Y-84454667D01*
X107759409Y-84458637D01*
X107759379Y-84458682D01*
X107765838Y-84462796D01*
X107765867Y-84462750D01*
X107772007Y-84466537D01*
X107772009Y-84466539D01*
X107840357Y-84498410D01*
X107843575Y-84499968D01*
X107908345Y-84532496D01*
X107910989Y-84533824D01*
X107910991Y-84533824D01*
X107917779Y-84536295D01*
X107917760Y-84536347D01*
X107924988Y-84538859D01*
X107925006Y-84538808D01*
X107931855Y-84541077D01*
X107931856Y-84541077D01*
X107931860Y-84541079D01*
X108005772Y-84556339D01*
X108009219Y-84557104D01*
X108082612Y-84574500D01*
X108082613Y-84574500D01*
X108082617Y-84574501D01*
X108089785Y-84575339D01*
X108089778Y-84575392D01*
X108097394Y-84576170D01*
X108097399Y-84576117D01*
X108111789Y-84577376D01*
X108111680Y-84578611D01*
X108172154Y-84594469D01*
X108213721Y-84635597D01*
X108277288Y-84738656D01*
X108401344Y-84862712D01*
X108550666Y-84954814D01*
X108717203Y-85009999D01*
X108819991Y-85020500D01*
X109231500Y-85020499D01*
X109298539Y-85040183D01*
X109344294Y-85092987D01*
X109355500Y-85144499D01*
X109355500Y-87977126D01*
X109335815Y-88044165D01*
X109319181Y-88064807D01*
X109312032Y-88071955D01*
X109312029Y-88071959D01*
X109223001Y-88216294D01*
X109222996Y-88216305D01*
X109169651Y-88377290D01*
X109159500Y-88476647D01*
X109159500Y-89323337D01*
X109159501Y-89323355D01*
X109169650Y-89422707D01*
X109169651Y-89422710D01*
X109222996Y-89583694D01*
X109223001Y-89583705D01*
X109312029Y-89728040D01*
X109312032Y-89728044D01*
X109431955Y-89847967D01*
X109431959Y-89847970D01*
X109576294Y-89936998D01*
X109576297Y-89936999D01*
X109576303Y-89937003D01*
X109737292Y-89990349D01*
X109836655Y-90000500D01*
X110383344Y-90000499D01*
X110383352Y-90000498D01*
X110383355Y-90000498D01*
X110437760Y-89994940D01*
X110482708Y-89990349D01*
X110643697Y-89937003D01*
X110788044Y-89847968D01*
X110907968Y-89728044D01*
X110997003Y-89583697D01*
X111050349Y-89422708D01*
X111060500Y-89323345D01*
X111060499Y-88476656D01*
X111050349Y-88377292D01*
X110997003Y-88216303D01*
X110996999Y-88216297D01*
X110996998Y-88216294D01*
X110907970Y-88071959D01*
X110907967Y-88071955D01*
X110900819Y-88064807D01*
X110867334Y-88003484D01*
X110864500Y-87977126D01*
X110864500Y-85144499D01*
X110884185Y-85077460D01*
X110936989Y-85031705D01*
X110988500Y-85020499D01*
X111620002Y-85020499D01*
X111620008Y-85020499D01*
X111722797Y-85009999D01*
X111889334Y-84954814D01*
X112038656Y-84862712D01*
X112162712Y-84738656D01*
X112254814Y-84589334D01*
X112273648Y-84532495D01*
X112313421Y-84475051D01*
X112377937Y-84448228D01*
X112391354Y-84447500D01*
X118678053Y-84447500D01*
X118745092Y-84467185D01*
X118770199Y-84488523D01*
X118774129Y-84492888D01*
X118774132Y-84492891D01*
X118774135Y-84492893D01*
X118927265Y-84604148D01*
X118927270Y-84604151D01*
X119100192Y-84681142D01*
X119100197Y-84681144D01*
X119285354Y-84720500D01*
X119285355Y-84720500D01*
X119474644Y-84720500D01*
X119474646Y-84720500D01*
X119659803Y-84681144D01*
X119832730Y-84604151D01*
X119985871Y-84492888D01*
X120112533Y-84352216D01*
X120207179Y-84188284D01*
X120265674Y-84008256D01*
X120285460Y-83820000D01*
X120265674Y-83631744D01*
X120207179Y-83451716D01*
X120112533Y-83287784D01*
X119985871Y-83147112D01*
X119985870Y-83147111D01*
X119832734Y-83035851D01*
X119832729Y-83035848D01*
X119659807Y-82958857D01*
X119659802Y-82958855D01*
X119514001Y-82927865D01*
X119474646Y-82919500D01*
X119285354Y-82919500D01*
X119252897Y-82926398D01*
X119100197Y-82958855D01*
X119100192Y-82958857D01*
X118927270Y-83035848D01*
X118927265Y-83035851D01*
X118774138Y-83147104D01*
X118774132Y-83147108D01*
X118772175Y-83149281D01*
X118770200Y-83151474D01*
X118710714Y-83188121D01*
X118678053Y-83192500D01*
X112391354Y-83192500D01*
X112324315Y-83172815D01*
X112278560Y-83120011D01*
X112273648Y-83107504D01*
X112257451Y-83058625D01*
X112254814Y-83050666D01*
X112162712Y-82901344D01*
X112038656Y-82777288D01*
X111889334Y-82685186D01*
X111722797Y-82630001D01*
X111722795Y-82630000D01*
X111620010Y-82619500D01*
X110819998Y-82619500D01*
X110819980Y-82619501D01*
X110717203Y-82630000D01*
X110717200Y-82630001D01*
X110550668Y-82685185D01*
X110550663Y-82685187D01*
X110401342Y-82777289D01*
X110307681Y-82870951D01*
X110246358Y-82904436D01*
X110176666Y-82899452D01*
X110132319Y-82870951D01*
X110038657Y-82777289D01*
X110038656Y-82777288D01*
X109889334Y-82685186D01*
X109722797Y-82630001D01*
X109722795Y-82630000D01*
X109620010Y-82619500D01*
X108819998Y-82619500D01*
X108819980Y-82619501D01*
X108717203Y-82630000D01*
X108717200Y-82630001D01*
X108550668Y-82685185D01*
X108550663Y-82685187D01*
X108401342Y-82777289D01*
X108385909Y-82792723D01*
X108324586Y-82826208D01*
X108254894Y-82821224D01*
X108210547Y-82792723D01*
X104691204Y-79273380D01*
X104657719Y-79212057D01*
X104662703Y-79142365D01*
X104704575Y-79086432D01*
X104770039Y-79062015D01*
X104778885Y-79061699D01*
X104867871Y-79061699D01*
X104867872Y-79061699D01*
X104927483Y-79055291D01*
X104976665Y-79036946D01*
X105046355Y-79031961D01*
X105063333Y-79036947D01*
X105112508Y-79055288D01*
X105112511Y-79055288D01*
X105112517Y-79055291D01*
X105172127Y-79061700D01*
X106267872Y-79061699D01*
X106327483Y-79055291D01*
X106350866Y-79046569D01*
X106376666Y-79036947D01*
X106446357Y-79031962D01*
X106463335Y-79036947D01*
X106493295Y-79048122D01*
X106549228Y-79089994D01*
X106565249Y-79118648D01*
X106565744Y-79119900D01*
X106591511Y-79155364D01*
X106597925Y-79165129D01*
X106620234Y-79202852D01*
X106620240Y-79202860D01*
X106634469Y-79217088D01*
X106647106Y-79231884D01*
X106658937Y-79248167D01*
X106692717Y-79276112D01*
X106701346Y-79283965D01*
X108592424Y-81175043D01*
X108602271Y-81187333D01*
X108602489Y-81187154D01*
X108607457Y-81193159D01*
X108656646Y-81239351D01*
X108659443Y-81242062D01*
X108679007Y-81261626D01*
X108682185Y-81264090D01*
X108691079Y-81271685D01*
X108699933Y-81280000D01*
X108723035Y-81301695D01*
X108723037Y-81301696D01*
X108740667Y-81311387D01*
X108756935Y-81322072D01*
X108772838Y-81334408D01*
X108813062Y-81351814D01*
X108823554Y-81356954D01*
X108861958Y-81378068D01*
X108861960Y-81378069D01*
X108861966Y-81378072D01*
X108881040Y-81382969D01*
X108881460Y-81383077D01*
X108899864Y-81389377D01*
X108918342Y-81397374D01*
X108961651Y-81404233D01*
X108973058Y-81406595D01*
X109015528Y-81417500D01*
X109035658Y-81417500D01*
X109055057Y-81419027D01*
X109074933Y-81422175D01*
X109114728Y-81418413D01*
X109118570Y-81418050D01*
X109130239Y-81417500D01*
X118165596Y-81417500D01*
X118232635Y-81437185D01*
X118271134Y-81476403D01*
X118337288Y-81583656D01*
X118461344Y-81707712D01*
X118610666Y-81799814D01*
X118777203Y-81854999D01*
X118879991Y-81865500D01*
X119880008Y-81865499D01*
X119880016Y-81865498D01*
X119880019Y-81865498D01*
X119936302Y-81859748D01*
X119982797Y-81854999D01*
X120149334Y-81799814D01*
X120298656Y-81707712D01*
X120422712Y-81583656D01*
X120514814Y-81434334D01*
X120569999Y-81267797D01*
X120580500Y-81165009D01*
X120580499Y-80414992D01*
X120578722Y-80397601D01*
X120569999Y-80312203D01*
X120569998Y-80312200D01*
X120559382Y-80280162D01*
X120514814Y-80145666D01*
X120422712Y-79996344D01*
X120298656Y-79872288D01*
X120295342Y-79870243D01*
X120293546Y-79868248D01*
X120292989Y-79867807D01*
X120293064Y-79867711D01*
X120248618Y-79818297D01*
X120237397Y-79749334D01*
X120265240Y-79685252D01*
X120295348Y-79659165D01*
X120298342Y-79657318D01*
X120422315Y-79533345D01*
X120514356Y-79384124D01*
X120514358Y-79384119D01*
X120569505Y-79217697D01*
X120569506Y-79217690D01*
X120579999Y-79114986D01*
X120580000Y-79114973D01*
X120580000Y-78990000D01*
X118180001Y-78990000D01*
X118180001Y-79114986D01*
X118190494Y-79217697D01*
X118245641Y-79384119D01*
X118245643Y-79384124D01*
X118337684Y-79533345D01*
X118461655Y-79657316D01*
X118461659Y-79657319D01*
X118464656Y-79659168D01*
X118466279Y-79660972D01*
X118467323Y-79661798D01*
X118467181Y-79661976D01*
X118511381Y-79711116D01*
X118522602Y-79780079D01*
X118494759Y-79844161D01*
X118464661Y-79870241D01*
X118461349Y-79872283D01*
X118461343Y-79872288D01*
X118337287Y-79996344D01*
X118271135Y-80103596D01*
X118219187Y-80150321D01*
X118165596Y-80162500D01*
X109406081Y-80162500D01*
X109339042Y-80142815D01*
X109318400Y-80126181D01*
X108465599Y-79273380D01*
X108432114Y-79212057D01*
X108437098Y-79142365D01*
X108478970Y-79086432D01*
X108544434Y-79062015D01*
X108553280Y-79061699D01*
X109067871Y-79061699D01*
X109067872Y-79061699D01*
X109127483Y-79055291D01*
X109176665Y-79036946D01*
X109246355Y-79031961D01*
X109263333Y-79036947D01*
X109312508Y-79055288D01*
X109312511Y-79055288D01*
X109312517Y-79055291D01*
X109372127Y-79061700D01*
X110467872Y-79061699D01*
X110527483Y-79055291D01*
X110576665Y-79036946D01*
X110646355Y-79031961D01*
X110663333Y-79036947D01*
X110712508Y-79055288D01*
X110712511Y-79055288D01*
X110712517Y-79055291D01*
X110772127Y-79061700D01*
X111867872Y-79061699D01*
X111927483Y-79055291D01*
X111976665Y-79036946D01*
X112046355Y-79031961D01*
X112063333Y-79036947D01*
X112112508Y-79055288D01*
X112112511Y-79055288D01*
X112112517Y-79055291D01*
X112172127Y-79061700D01*
X113267872Y-79061699D01*
X113327483Y-79055291D01*
X113377382Y-79036679D01*
X113447069Y-79031694D01*
X113464048Y-79036679D01*
X113512628Y-79054798D01*
X113512627Y-79054798D01*
X113572155Y-79061199D01*
X113572172Y-79061200D01*
X113870000Y-79061200D01*
X113870000Y-77586200D01*
X114370000Y-77586200D01*
X114370000Y-79061200D01*
X114667828Y-79061200D01*
X114667844Y-79061199D01*
X114727372Y-79054798D01*
X114727379Y-79054796D01*
X114862086Y-79004554D01*
X114862093Y-79004550D01*
X114977187Y-78918390D01*
X114977190Y-78918387D01*
X115063350Y-78803293D01*
X115063354Y-78803286D01*
X115113596Y-78668579D01*
X115113598Y-78668572D01*
X115119999Y-78609044D01*
X115120000Y-78609027D01*
X115120000Y-78490000D01*
X118180000Y-78490000D01*
X119130000Y-78490000D01*
X119130000Y-77665000D01*
X119630000Y-77665000D01*
X119630000Y-78490000D01*
X120579999Y-78490000D01*
X120579999Y-78365028D01*
X120579998Y-78365013D01*
X120569505Y-78262302D01*
X120514358Y-78095880D01*
X120514356Y-78095875D01*
X120422315Y-77946654D01*
X120298345Y-77822684D01*
X120149124Y-77730643D01*
X120149119Y-77730641D01*
X119982697Y-77675494D01*
X119982690Y-77675493D01*
X119879986Y-77665000D01*
X119630000Y-77665000D01*
X119130000Y-77665000D01*
X118880029Y-77665000D01*
X118880012Y-77665001D01*
X118777302Y-77675494D01*
X118610880Y-77730641D01*
X118610875Y-77730643D01*
X118461654Y-77822684D01*
X118337684Y-77946654D01*
X118245643Y-78095875D01*
X118245641Y-78095880D01*
X118190494Y-78262302D01*
X118190493Y-78262309D01*
X118180000Y-78365013D01*
X118180000Y-78490000D01*
X115120000Y-78490000D01*
X115120000Y-77586200D01*
X114370000Y-77586200D01*
X113870000Y-77586200D01*
X113870000Y-77210200D01*
X113889685Y-77143161D01*
X113942489Y-77097406D01*
X113994000Y-77086200D01*
X115120000Y-77086200D01*
X115120000Y-76164499D01*
X115139685Y-76097460D01*
X115192489Y-76051705D01*
X115243997Y-76040499D01*
X116792872Y-76040499D01*
X116852483Y-76034091D01*
X116987331Y-75983796D01*
X117102546Y-75897546D01*
X117188796Y-75782331D01*
X117201539Y-75748166D01*
X117243411Y-75692233D01*
X117308875Y-75667816D01*
X117317721Y-75667500D01*
X125528719Y-75667500D01*
X125595758Y-75687185D01*
X125616400Y-75703819D01*
X126061371Y-76148790D01*
X126094856Y-76210113D01*
X126097010Y-76223505D01*
X126114326Y-76388256D01*
X126114327Y-76388259D01*
X126172818Y-76568277D01*
X126172821Y-76568284D01*
X126267467Y-76732216D01*
X126353439Y-76827697D01*
X126394129Y-76872888D01*
X126547265Y-76984148D01*
X126547270Y-76984151D01*
X126720192Y-77061142D01*
X126720197Y-77061144D01*
X126905354Y-77100500D01*
X126905355Y-77100500D01*
X127094644Y-77100500D01*
X127094646Y-77100500D01*
X127279803Y-77061144D01*
X127452730Y-76984151D01*
X127538616Y-76921751D01*
X127604421Y-76898272D01*
X127672475Y-76914097D01*
X127721169Y-76964203D01*
X127735500Y-77022070D01*
X127735500Y-82478768D01*
X127715815Y-82545807D01*
X127663011Y-82591562D01*
X127593853Y-82601506D01*
X127559095Y-82591150D01*
X127463492Y-82546570D01*
X127463483Y-82546566D01*
X127235326Y-82485432D01*
X127235315Y-82485430D01*
X127000002Y-82464843D01*
X126999998Y-82464843D01*
X126764684Y-82485430D01*
X126764673Y-82485432D01*
X126536516Y-82546566D01*
X126536507Y-82546570D01*
X126322419Y-82646401D01*
X126238625Y-82705072D01*
X126867466Y-83333913D01*
X126857685Y-83335320D01*
X126726900Y-83395048D01*
X126618239Y-83489202D01*
X126540507Y-83610156D01*
X126516923Y-83690476D01*
X125885072Y-83058625D01*
X125826401Y-83142419D01*
X125726570Y-83356507D01*
X125726566Y-83356516D01*
X125665432Y-83584673D01*
X125665430Y-83584684D01*
X125644843Y-83819998D01*
X125644843Y-83820001D01*
X125665430Y-84055315D01*
X125665432Y-84055326D01*
X125726566Y-84283483D01*
X125726570Y-84283492D01*
X125826400Y-84497579D01*
X125826402Y-84497583D01*
X125885072Y-84581373D01*
X125885073Y-84581373D01*
X126516923Y-83949523D01*
X126540507Y-84029844D01*
X126618239Y-84150798D01*
X126726900Y-84244952D01*
X126857685Y-84304680D01*
X126867464Y-84306086D01*
X126238625Y-84934925D01*
X126314594Y-84988119D01*
X126358219Y-85042696D01*
X126365413Y-85112194D01*
X126333890Y-85174549D01*
X126314595Y-85191269D01*
X126128594Y-85321508D01*
X125961505Y-85488597D01*
X125827749Y-85679623D01*
X125773172Y-85723248D01*
X125726174Y-85732500D01*
X122621947Y-85732500D01*
X122554908Y-85712815D01*
X122529800Y-85691476D01*
X122525871Y-85687112D01*
X122525869Y-85687111D01*
X122525867Y-85687108D01*
X122525864Y-85687106D01*
X122372734Y-85575851D01*
X122372729Y-85575848D01*
X122199807Y-85498857D01*
X122199802Y-85498855D01*
X122054001Y-85467865D01*
X122014646Y-85459500D01*
X121825354Y-85459500D01*
X121792897Y-85466398D01*
X121640197Y-85498855D01*
X121640192Y-85498857D01*
X121467270Y-85575848D01*
X121467265Y-85575851D01*
X121314129Y-85687111D01*
X121187466Y-85827785D01*
X121092821Y-85991715D01*
X121092818Y-85991722D01*
X121034327Y-86171740D01*
X121034326Y-86171744D01*
X121014540Y-86360000D01*
X121034326Y-86548256D01*
X121034327Y-86548259D01*
X121092818Y-86728277D01*
X121092821Y-86728284D01*
X121187467Y-86892216D01*
X121277204Y-86991879D01*
X121314129Y-87032888D01*
X121467265Y-87144148D01*
X121467270Y-87144151D01*
X121640192Y-87221142D01*
X121640197Y-87221144D01*
X121825354Y-87260500D01*
X121825355Y-87260500D01*
X122014644Y-87260500D01*
X122014646Y-87260500D01*
X122199803Y-87221144D01*
X122372730Y-87144151D01*
X122525871Y-87032888D01*
X122529799Y-87028525D01*
X122589286Y-86991879D01*
X122621947Y-86987500D01*
X125726173Y-86987500D01*
X125793212Y-87007185D01*
X125827747Y-87040375D01*
X125863475Y-87091400D01*
X125961505Y-87231401D01*
X126128597Y-87398493D01*
X126128603Y-87398498D01*
X126314158Y-87528425D01*
X126357783Y-87583002D01*
X126364977Y-87652500D01*
X126333454Y-87714855D01*
X126314158Y-87731575D01*
X126128597Y-87861505D01*
X125961505Y-88028597D01*
X125827749Y-88219623D01*
X125773172Y-88263248D01*
X125726174Y-88272500D01*
X114400873Y-88272500D01*
X114333834Y-88252815D01*
X114295335Y-88213598D01*
X114207968Y-88071956D01*
X114088044Y-87952032D01*
X114088040Y-87952029D01*
X113943705Y-87863001D01*
X113943699Y-87862998D01*
X113943697Y-87862997D01*
X113848168Y-87831342D01*
X113782709Y-87809651D01*
X113683346Y-87799500D01*
X113136662Y-87799500D01*
X113136644Y-87799501D01*
X113037292Y-87809650D01*
X113037289Y-87809651D01*
X112876305Y-87862996D01*
X112876294Y-87863001D01*
X112731959Y-87952029D01*
X112731955Y-87952032D01*
X112612032Y-88071955D01*
X112612029Y-88071959D01*
X112523001Y-88216294D01*
X112522996Y-88216305D01*
X112469651Y-88377290D01*
X112459500Y-88476647D01*
X112459500Y-89323337D01*
X112459501Y-89323355D01*
X112469650Y-89422707D01*
X112469651Y-89422710D01*
X112522996Y-89583694D01*
X112523001Y-89583705D01*
X112612029Y-89728040D01*
X112612032Y-89728044D01*
X112731955Y-89847967D01*
X112731959Y-89847970D01*
X112876294Y-89936998D01*
X112876297Y-89936999D01*
X112876303Y-89937003D01*
X113037292Y-89990349D01*
X113136655Y-90000500D01*
X113683344Y-90000499D01*
X113683352Y-90000498D01*
X113683355Y-90000498D01*
X113737760Y-89994940D01*
X113782708Y-89990349D01*
X113943697Y-89937003D01*
X114088044Y-89847968D01*
X114207968Y-89728044D01*
X114295335Y-89586402D01*
X114347283Y-89539678D01*
X114400873Y-89527500D01*
X125726173Y-89527500D01*
X125793212Y-89547185D01*
X125827747Y-89580375D01*
X125961505Y-89771401D01*
X126128599Y-89938495D01*
X126171675Y-89968657D01*
X126322165Y-90074032D01*
X126322167Y-90074033D01*
X126322170Y-90074035D01*
X126536337Y-90173903D01*
X126764592Y-90235063D01*
X126941034Y-90250500D01*
X126999999Y-90255659D01*
X127000000Y-90255659D01*
X127000001Y-90255659D01*
X127058966Y-90250500D01*
X127235408Y-90235063D01*
X127463663Y-90173903D01*
X127677830Y-90074035D01*
X127871401Y-89938495D01*
X128038495Y-89771401D01*
X128038504Y-89771388D01*
X128039636Y-89770040D01*
X128040293Y-89769602D01*
X128042323Y-89767573D01*
X128042730Y-89767980D01*
X128097805Y-89731334D01*
X128167666Y-89730220D01*
X128227038Y-89767053D01*
X128252335Y-89810733D01*
X128255186Y-89819334D01*
X128347288Y-89968656D01*
X128471344Y-90092712D01*
X128620666Y-90184814D01*
X128787203Y-90239999D01*
X128889991Y-90250500D01*
X130190008Y-90250499D01*
X130292797Y-90239999D01*
X130459334Y-90184814D01*
X130608656Y-90092712D01*
X130732712Y-89968656D01*
X130824814Y-89819334D01*
X130879999Y-89652797D01*
X130890500Y-89550009D01*
X130890499Y-88249992D01*
X130879999Y-88147203D01*
X130824814Y-87980666D01*
X130732712Y-87831344D01*
X130608656Y-87707288D01*
X130515888Y-87650069D01*
X130459336Y-87615187D01*
X130459331Y-87615185D01*
X130459215Y-87615146D01*
X130450733Y-87612336D01*
X130393290Y-87572564D01*
X130366467Y-87508048D01*
X130378782Y-87439272D01*
X130407767Y-87402517D01*
X130407573Y-87402323D01*
X130409219Y-87400676D01*
X130410040Y-87399636D01*
X130411388Y-87398504D01*
X130411401Y-87398495D01*
X130578495Y-87231401D01*
X130714035Y-87037830D01*
X130813903Y-86823663D01*
X130875063Y-86595408D01*
X130895659Y-86360000D01*
X130875063Y-86124592D01*
X130859928Y-86068107D01*
X130848741Y-86026356D01*
X130850404Y-85956506D01*
X130880833Y-85906584D01*
X134234821Y-82552597D01*
X134296142Y-82519114D01*
X134365834Y-82524098D01*
X134421767Y-82565970D01*
X134446184Y-82631434D01*
X134446500Y-82640280D01*
X134446500Y-86278960D01*
X134444772Y-86294609D01*
X134445054Y-86294636D01*
X134444319Y-86302403D01*
X134446439Y-86369845D01*
X134446500Y-86373739D01*
X134446500Y-86401404D01*
X134447006Y-86405413D01*
X134447921Y-86417044D01*
X134449298Y-86460870D01*
X134454916Y-86480203D01*
X134458862Y-86499257D01*
X134461383Y-86519215D01*
X134461386Y-86519227D01*
X134477519Y-86559976D01*
X134481302Y-86571026D01*
X134493530Y-86613115D01*
X134493530Y-86613116D01*
X134503777Y-86630443D01*
X134512335Y-86647913D01*
X134519745Y-86666629D01*
X134545511Y-86702092D01*
X134551925Y-86711857D01*
X134574234Y-86749580D01*
X134574240Y-86749588D01*
X134588469Y-86763816D01*
X134601106Y-86778612D01*
X134612937Y-86794895D01*
X134646717Y-86822840D01*
X134655346Y-86830693D01*
X138501696Y-90677043D01*
X138511543Y-90689333D01*
X138511761Y-90689154D01*
X138516730Y-90695161D01*
X138521755Y-90699880D01*
X138557148Y-90760122D01*
X138554575Y-90829273D01*
X138510495Y-90962298D01*
X138510493Y-90962309D01*
X138500000Y-91065013D01*
X138500000Y-91190000D01*
X140899999Y-91190000D01*
X140899999Y-91065028D01*
X140899998Y-91065010D01*
X140899088Y-91056101D01*
X140911858Y-90987408D01*
X140959739Y-90936524D01*
X141022446Y-90919500D01*
X145997553Y-90919500D01*
X146064592Y-90939185D01*
X146110347Y-90991989D01*
X146120911Y-91056103D01*
X146120000Y-91065013D01*
X146120000Y-91190000D01*
X148519999Y-91190000D01*
X148519999Y-91065028D01*
X148519998Y-91065010D01*
X148519088Y-91056101D01*
X148531858Y-90987408D01*
X148579739Y-90936524D01*
X148642446Y-90919500D01*
X151077553Y-90919500D01*
X151144592Y-90939185D01*
X151190347Y-90991989D01*
X151200911Y-91056103D01*
X151200000Y-91065013D01*
X151200000Y-91190000D01*
X153599999Y-91190000D01*
X153599999Y-91065028D01*
X153599998Y-91065013D01*
X153589505Y-90962302D01*
X153534358Y-90795880D01*
X153534356Y-90795875D01*
X153442315Y-90646654D01*
X153318344Y-90522683D01*
X153318341Y-90522681D01*
X153315339Y-90520829D01*
X153313713Y-90519021D01*
X153312677Y-90518202D01*
X153312817Y-90518024D01*
X153268617Y-90468880D01*
X153257397Y-90399917D01*
X153285243Y-90335836D01*
X153315344Y-90309754D01*
X153318656Y-90307712D01*
X153442712Y-90183656D01*
X153534814Y-90034334D01*
X153589999Y-89867797D01*
X153600500Y-89765009D01*
X153600499Y-89014992D01*
X153589999Y-88912203D01*
X153534814Y-88745666D01*
X153442712Y-88596344D01*
X153318656Y-88472288D01*
X153169334Y-88380186D01*
X153002797Y-88325001D01*
X153002795Y-88325000D01*
X152900010Y-88314500D01*
X151899998Y-88314500D01*
X151899980Y-88314501D01*
X151797203Y-88325000D01*
X151797200Y-88325001D01*
X151630668Y-88380185D01*
X151630663Y-88380187D01*
X151481342Y-88472289D01*
X151357289Y-88596342D01*
X151265187Y-88745663D01*
X151265186Y-88745666D01*
X151210001Y-88912203D01*
X151210001Y-88912204D01*
X151210000Y-88912204D01*
X151199500Y-89014983D01*
X151199500Y-89014991D01*
X151199500Y-89323355D01*
X151199501Y-89540500D01*
X151179817Y-89607539D01*
X151127013Y-89653294D01*
X151075501Y-89664500D01*
X148644500Y-89664500D01*
X148577461Y-89644815D01*
X148531706Y-89592011D01*
X148520500Y-89540500D01*
X148520499Y-89014998D01*
X148520498Y-89014980D01*
X148509999Y-88912203D01*
X148509998Y-88912200D01*
X148454814Y-88745666D01*
X148362712Y-88596344D01*
X148238656Y-88472288D01*
X148089334Y-88380186D01*
X147922797Y-88325001D01*
X147922795Y-88325000D01*
X147820016Y-88314500D01*
X147820009Y-88314500D01*
X147183281Y-88314500D01*
X147116242Y-88294815D01*
X147095600Y-88278181D01*
X140622420Y-81805001D01*
X154317000Y-81805001D01*
X154317001Y-81805019D01*
X154327500Y-81907796D01*
X154327501Y-81907799D01*
X154350255Y-81976465D01*
X154382686Y-82074334D01*
X154474788Y-82223656D01*
X154598844Y-82347712D01*
X154748166Y-82439814D01*
X154914703Y-82494999D01*
X155017491Y-82505500D01*
X155792508Y-82505499D01*
X155792516Y-82505498D01*
X155792519Y-82505498D01*
X155848802Y-82499748D01*
X155895297Y-82494999D01*
X156061834Y-82439814D01*
X156211156Y-82347712D01*
X156335212Y-82223656D01*
X156337252Y-82220347D01*
X156339245Y-82218555D01*
X156339693Y-82217989D01*
X156339789Y-82218065D01*
X156389194Y-82173623D01*
X156458156Y-82162395D01*
X156522240Y-82190234D01*
X156548329Y-82220339D01*
X156550181Y-82223341D01*
X156550183Y-82223344D01*
X156674154Y-82347315D01*
X156823375Y-82439356D01*
X156823380Y-82439358D01*
X156989802Y-82494505D01*
X156989809Y-82494506D01*
X157092519Y-82504999D01*
X157229999Y-82504999D01*
X157230000Y-82504998D01*
X157230000Y-81530000D01*
X157730000Y-81530000D01*
X157730000Y-82504999D01*
X157867472Y-82504999D01*
X157867486Y-82504998D01*
X157970197Y-82494505D01*
X158136619Y-82439358D01*
X158136624Y-82439356D01*
X158285845Y-82347315D01*
X158409815Y-82223345D01*
X158501856Y-82074124D01*
X158501858Y-82074119D01*
X158557005Y-81907697D01*
X158557006Y-81907690D01*
X158567499Y-81804986D01*
X158567500Y-81804973D01*
X158567500Y-81530000D01*
X157730000Y-81530000D01*
X157230000Y-81530000D01*
X157230000Y-80055000D01*
X157730000Y-80055000D01*
X157730000Y-81030000D01*
X158567499Y-81030000D01*
X158567499Y-80755028D01*
X158567498Y-80755013D01*
X158557005Y-80652302D01*
X158501858Y-80485880D01*
X158501856Y-80485875D01*
X158409815Y-80336654D01*
X158285845Y-80212684D01*
X158136624Y-80120643D01*
X158136619Y-80120641D01*
X157970197Y-80065494D01*
X157970190Y-80065493D01*
X157867486Y-80055000D01*
X157730000Y-80055000D01*
X157230000Y-80055000D01*
X157092527Y-80055000D01*
X157092512Y-80055001D01*
X156989802Y-80065494D01*
X156823380Y-80120641D01*
X156823375Y-80120643D01*
X156674154Y-80212684D01*
X156550183Y-80336655D01*
X156550179Y-80336660D01*
X156548326Y-80339665D01*
X156546518Y-80341290D01*
X156545702Y-80342323D01*
X156545525Y-80342183D01*
X156496374Y-80386385D01*
X156427411Y-80397601D01*
X156363331Y-80369752D01*
X156337253Y-80339653D01*
X156336983Y-80339215D01*
X156335212Y-80336344D01*
X156211156Y-80212288D01*
X156061834Y-80120186D01*
X155895297Y-80065001D01*
X155895295Y-80065000D01*
X155792510Y-80054500D01*
X155017498Y-80054500D01*
X155017480Y-80054501D01*
X154914703Y-80065000D01*
X154914700Y-80065001D01*
X154748168Y-80120185D01*
X154748163Y-80120187D01*
X154598842Y-80212289D01*
X154474789Y-80336342D01*
X154382687Y-80485663D01*
X154382685Y-80485668D01*
X154358691Y-80558077D01*
X154327501Y-80652203D01*
X154327501Y-80652204D01*
X154327500Y-80652204D01*
X154317000Y-80754983D01*
X154317000Y-81805001D01*
X140622420Y-81805001D01*
X139436819Y-80619400D01*
X139403334Y-80558077D01*
X139400500Y-80531719D01*
X139400500Y-77525861D01*
X139420185Y-77458822D01*
X139436819Y-77438180D01*
X139450000Y-77424999D01*
X139450000Y-76450000D01*
X139950000Y-76450000D01*
X139950000Y-77424999D01*
X140087472Y-77424999D01*
X140087486Y-77424998D01*
X140190197Y-77414505D01*
X140356619Y-77359358D01*
X140356624Y-77359356D01*
X140505845Y-77267315D01*
X140629815Y-77143345D01*
X140721856Y-76994124D01*
X140721858Y-76994119D01*
X140777005Y-76827697D01*
X140777006Y-76827690D01*
X140787499Y-76724986D01*
X140787500Y-76724973D01*
X140787500Y-76450000D01*
X139950000Y-76450000D01*
X139450000Y-76450000D01*
X139450000Y-74975000D01*
X139950000Y-74975000D01*
X139950000Y-75950000D01*
X140787499Y-75950000D01*
X140787499Y-75675028D01*
X140787498Y-75675013D01*
X140777005Y-75572302D01*
X140721858Y-75405880D01*
X140721856Y-75405875D01*
X140629815Y-75256654D01*
X140505845Y-75132684D01*
X140356624Y-75040643D01*
X140356619Y-75040641D01*
X140190197Y-74985494D01*
X140190190Y-74985493D01*
X140087486Y-74975000D01*
X139950000Y-74975000D01*
X139450000Y-74975000D01*
X139436819Y-74961819D01*
X139403334Y-74900496D01*
X139400500Y-74874138D01*
X139400500Y-72444499D01*
X139420185Y-72377460D01*
X139472989Y-72331705D01*
X139524500Y-72320499D01*
X139961718Y-72320499D01*
X140028757Y-72340184D01*
X140049399Y-72356818D01*
X144625900Y-76933319D01*
X144659385Y-76994642D01*
X144654401Y-77064334D01*
X144612529Y-77120267D01*
X144547065Y-77144684D01*
X144538219Y-77145000D01*
X144110028Y-77145000D01*
X144110012Y-77145001D01*
X144007302Y-77155494D01*
X143840880Y-77210641D01*
X143840875Y-77210643D01*
X143691654Y-77302684D01*
X143567684Y-77426654D01*
X143475643Y-77575875D01*
X143475641Y-77575880D01*
X143420494Y-77742302D01*
X143420493Y-77742309D01*
X143410000Y-77845013D01*
X143410000Y-78490000D01*
X144239530Y-78490000D01*
X144200315Y-78584674D01*
X144179866Y-78740000D01*
X144200315Y-78895326D01*
X144239530Y-78990000D01*
X143410001Y-78990000D01*
X143410001Y-79634986D01*
X143420494Y-79737697D01*
X143475641Y-79904119D01*
X143475643Y-79904124D01*
X143567684Y-80053345D01*
X143691654Y-80177315D01*
X143840875Y-80269356D01*
X143840880Y-80269358D01*
X144007302Y-80324505D01*
X144007309Y-80324506D01*
X144110019Y-80334999D01*
X144529999Y-80334999D01*
X144530000Y-80334998D01*
X144530000Y-79280469D01*
X144624674Y-79319685D01*
X144741003Y-79335000D01*
X144818997Y-79335000D01*
X144935326Y-79319685D01*
X145030000Y-79280469D01*
X145030000Y-80334999D01*
X145449972Y-80334999D01*
X145449986Y-80334998D01*
X145552697Y-80324505D01*
X145719119Y-80269358D01*
X145719124Y-80269356D01*
X145868345Y-80177315D01*
X145992315Y-80053345D01*
X146084359Y-79904118D01*
X146085496Y-79901681D01*
X146086722Y-79900287D01*
X146088149Y-79897975D01*
X146088544Y-79898218D01*
X146131664Y-79849237D01*
X146198855Y-79830080D01*
X146265738Y-79850290D01*
X146287404Y-79868275D01*
X146411272Y-79997516D01*
X146411273Y-79997517D01*
X146598834Y-80136237D01*
X146598836Y-80136238D01*
X146598839Y-80136240D01*
X146807153Y-80241270D01*
X147030220Y-80309583D01*
X147261624Y-80339216D01*
X147494707Y-80329314D01*
X147722765Y-80280164D01*
X147939235Y-80193179D01*
X148137891Y-80070862D01*
X148313018Y-79916731D01*
X148459578Y-79735220D01*
X148573354Y-79531552D01*
X148651073Y-79311584D01*
X148683941Y-79119900D01*
X148690499Y-79081655D01*
X148690500Y-79081646D01*
X148690500Y-78456784D01*
X148690499Y-78456765D01*
X148675671Y-78282553D01*
X148675670Y-78282551D01*
X148675670Y-78282547D01*
X148616885Y-78056781D01*
X148520792Y-77844198D01*
X148390153Y-77650912D01*
X148228728Y-77482484D01*
X148228727Y-77482483D01*
X148228726Y-77482482D01*
X148041165Y-77343762D01*
X148034122Y-77340211D01*
X147832847Y-77238730D01*
X147609780Y-77170417D01*
X147609778Y-77170416D01*
X147609776Y-77170416D01*
X147378370Y-77140783D01*
X147145299Y-77150685D01*
X147145290Y-77150686D01*
X146917239Y-77199835D01*
X146917238Y-77199835D01*
X146917235Y-77199836D01*
X146814907Y-77240954D01*
X146745365Y-77247684D01*
X146683221Y-77215748D01*
X146680995Y-77213576D01*
X140836818Y-71369399D01*
X140803333Y-71308076D01*
X140800499Y-71281718D01*
X140800499Y-70619998D01*
X140800498Y-70619981D01*
X140789999Y-70517203D01*
X140789998Y-70517200D01*
X140776843Y-70477500D01*
X140734814Y-70350666D01*
X140642712Y-70201344D01*
X140518656Y-70077288D01*
X140375636Y-69989073D01*
X140369336Y-69985187D01*
X140369331Y-69985185D01*
X140364711Y-69983654D01*
X140316579Y-69967704D01*
X140259136Y-69927934D01*
X140232313Y-69863418D01*
X140244628Y-69794642D01*
X140292171Y-69743442D01*
X140316575Y-69732296D01*
X140369334Y-69714814D01*
X140518656Y-69622712D01*
X140642712Y-69498656D01*
X140734814Y-69349334D01*
X140753648Y-69292495D01*
X140793421Y-69235051D01*
X140857937Y-69208228D01*
X140871354Y-69207500D01*
X143285501Y-69207500D01*
X143352540Y-69227185D01*
X143398295Y-69279989D01*
X143409501Y-69331500D01*
X143409501Y-69475018D01*
X143420000Y-69577796D01*
X143420001Y-69577799D01*
X143434884Y-69622712D01*
X143475186Y-69744334D01*
X143567288Y-69893656D01*
X143691344Y-70017712D01*
X143840666Y-70109814D01*
X144007203Y-70164999D01*
X144109991Y-70175500D01*
X145450008Y-70175499D01*
X145552797Y-70164999D01*
X145719334Y-70109814D01*
X145868656Y-70017712D01*
X145992712Y-69893656D01*
X146084814Y-69744334D01*
X146084817Y-69744322D01*
X146086095Y-69741584D01*
X146087480Y-69740010D01*
X146088605Y-69738187D01*
X146088916Y-69738379D01*
X146132263Y-69689141D01*
X146199455Y-69669983D01*
X146266338Y-69690193D01*
X146288005Y-69708179D01*
X146411603Y-69837139D01*
X146411604Y-69837140D01*
X146599097Y-69975810D01*
X146807338Y-70080803D01*
X147030330Y-70149093D01*
X147030328Y-70149093D01*
X147069999Y-70154173D01*
X147070000Y-70154173D01*
X147070000Y-69120469D01*
X147164674Y-69159685D01*
X147281003Y-69175000D01*
X147358997Y-69175000D01*
X147475326Y-69159685D01*
X147570000Y-69120469D01*
X147570000Y-70152574D01*
X147722618Y-70119683D01*
X147722619Y-70119683D01*
X147939005Y-70032732D01*
X148137592Y-69910458D01*
X148312656Y-69756382D01*
X148312660Y-69756378D01*
X148459157Y-69574945D01*
X148459161Y-69574939D01*
X148572895Y-69371346D01*
X148650585Y-69151461D01*
X148650587Y-69151453D01*
X148689999Y-68921612D01*
X148690000Y-68921603D01*
X148690000Y-68830000D01*
X147860470Y-68830000D01*
X147899685Y-68735326D01*
X147920134Y-68580000D01*
X147899685Y-68424674D01*
X147860470Y-68330000D01*
X148690000Y-68330000D01*
X148690000Y-68296805D01*
X148689999Y-68296787D01*
X148675177Y-68122636D01*
X148616412Y-67896948D01*
X148520356Y-67684447D01*
X148520351Y-67684439D01*
X148389764Y-67491228D01*
X148228396Y-67322860D01*
X148228395Y-67322859D01*
X148040902Y-67184189D01*
X147832661Y-67079196D01*
X147609675Y-67010907D01*
X147609669Y-67010906D01*
X147570000Y-67005825D01*
X147570000Y-68039530D01*
X147475326Y-68000315D01*
X147358997Y-67985000D01*
X147281003Y-67985000D01*
X147164674Y-68000315D01*
X147070000Y-68039530D01*
X147070000Y-67007424D01*
X147069999Y-67007424D01*
X146917380Y-67040316D01*
X146917379Y-67040316D01*
X146700994Y-67127267D01*
X146502407Y-67249541D01*
X146327343Y-67403617D01*
X146294899Y-67443798D01*
X146237468Y-67483590D01*
X146167640Y-67486015D01*
X146107586Y-67450304D01*
X146086036Y-67418290D01*
X146084816Y-67415674D01*
X146084814Y-67415666D01*
X145992712Y-67266344D01*
X145868656Y-67142288D01*
X145719334Y-67050186D01*
X145552797Y-66995001D01*
X145552795Y-66995000D01*
X145450010Y-66984500D01*
X144109998Y-66984500D01*
X144109981Y-66984501D01*
X144007203Y-66995000D01*
X144007200Y-66995001D01*
X143840668Y-67050185D01*
X143840663Y-67050187D01*
X143691342Y-67142289D01*
X143567289Y-67266342D01*
X143475187Y-67415663D01*
X143475185Y-67415668D01*
X143460314Y-67460547D01*
X143420001Y-67582203D01*
X143420001Y-67582204D01*
X143420000Y-67582204D01*
X143409500Y-67684983D01*
X143409500Y-67828500D01*
X143389815Y-67895539D01*
X143337011Y-67941294D01*
X143285500Y-67952500D01*
X140871354Y-67952500D01*
X140804315Y-67932815D01*
X140758560Y-67880011D01*
X140753648Y-67867504D01*
X140734814Y-67810666D01*
X140642712Y-67661344D01*
X140518656Y-67537288D01*
X140425888Y-67480069D01*
X140369336Y-67445187D01*
X140369331Y-67445185D01*
X140334723Y-67433717D01*
X140202797Y-67390001D01*
X140202795Y-67390000D01*
X140100010Y-67379500D01*
X139299998Y-67379500D01*
X139299980Y-67379501D01*
X139197203Y-67390000D01*
X139197200Y-67390001D01*
X139030668Y-67445185D01*
X139030663Y-67445187D01*
X138881342Y-67537289D01*
X138787681Y-67630951D01*
X138726358Y-67664436D01*
X138656666Y-67659452D01*
X138612319Y-67630951D01*
X138518657Y-67537289D01*
X138518656Y-67537288D01*
X138425888Y-67480069D01*
X138369336Y-67445187D01*
X138369331Y-67445185D01*
X138334723Y-67433717D01*
X138202797Y-67390001D01*
X138202795Y-67390000D01*
X138100016Y-67379500D01*
X138100009Y-67379500D01*
X137707280Y-67379500D01*
X137640241Y-67359815D01*
X137594486Y-67307011D01*
X137584542Y-67237853D01*
X137613567Y-67174297D01*
X137619599Y-67167819D01*
X138819859Y-65967559D01*
X140054237Y-64733180D01*
X140115558Y-64699697D01*
X140129310Y-64697505D01*
X140202797Y-64689999D01*
X140369334Y-64634814D01*
X140518656Y-64542712D01*
X140642712Y-64418656D01*
X140734814Y-64269334D01*
X140789999Y-64102797D01*
X140800500Y-64000009D01*
X140800499Y-63338279D01*
X140820183Y-63271241D01*
X140836813Y-63250604D01*
X142569547Y-61517870D01*
X152829500Y-61517870D01*
X152829501Y-61517876D01*
X152835908Y-61577483D01*
X152886202Y-61712328D01*
X152886206Y-61712335D01*
X152972452Y-61827544D01*
X152972455Y-61827547D01*
X153087664Y-61913793D01*
X153087671Y-61913797D01*
X153132618Y-61930561D01*
X153222517Y-61964091D01*
X153282127Y-61970500D01*
X153578501Y-61970499D01*
X153645539Y-61990183D01*
X153691294Y-62042987D01*
X153702500Y-62094499D01*
X153702500Y-65347032D01*
X153700772Y-65362681D01*
X153701054Y-65362708D01*
X153700319Y-65370475D01*
X153702439Y-65437917D01*
X153702500Y-65441811D01*
X153702500Y-65469476D01*
X153703006Y-65473485D01*
X153703921Y-65485116D01*
X153705298Y-65528942D01*
X153710916Y-65548275D01*
X153714862Y-65567329D01*
X153717383Y-65587287D01*
X153717386Y-65587299D01*
X153733519Y-65628048D01*
X153737302Y-65639098D01*
X153749530Y-65681187D01*
X153749530Y-65681188D01*
X153759777Y-65698515D01*
X153768335Y-65715985D01*
X153775745Y-65734701D01*
X153801511Y-65770164D01*
X153807925Y-65779929D01*
X153834208Y-65824371D01*
X153831411Y-65826024D01*
X153851510Y-65877155D01*
X153852000Y-65888167D01*
X153852000Y-66565001D01*
X153852001Y-66565019D01*
X153862500Y-66667796D01*
X153862501Y-66667799D01*
X153917685Y-66834331D01*
X153917687Y-66834336D01*
X153926693Y-66848937D01*
X154009788Y-66983656D01*
X154133844Y-67107712D01*
X154242634Y-67174814D01*
X154253596Y-67181575D01*
X154300321Y-67233523D01*
X154312500Y-67287114D01*
X154312500Y-71037032D01*
X154310772Y-71052681D01*
X154311054Y-71052708D01*
X154310319Y-71060475D01*
X154312439Y-71127917D01*
X154312500Y-71131811D01*
X154312500Y-71159476D01*
X154313006Y-71163485D01*
X154313921Y-71175116D01*
X154315298Y-71218942D01*
X154320916Y-71238275D01*
X154324862Y-71257329D01*
X154327383Y-71277287D01*
X154327386Y-71277299D01*
X154343519Y-71318048D01*
X154347302Y-71329098D01*
X154359530Y-71371187D01*
X154359530Y-71371188D01*
X154369777Y-71388515D01*
X154378335Y-71405985D01*
X154385745Y-71424701D01*
X154411511Y-71460164D01*
X154417925Y-71469929D01*
X154440234Y-71507652D01*
X154440240Y-71507660D01*
X154454469Y-71521888D01*
X154467106Y-71536684D01*
X154478937Y-71552967D01*
X154512717Y-71580912D01*
X154521346Y-71588765D01*
X154785900Y-71853319D01*
X154819385Y-71914642D01*
X154814401Y-71984334D01*
X154772529Y-72040267D01*
X154707065Y-72064684D01*
X154698219Y-72065000D01*
X154270028Y-72065000D01*
X154270012Y-72065001D01*
X154167302Y-72075494D01*
X154000880Y-72130641D01*
X154000875Y-72130643D01*
X153851654Y-72222684D01*
X153727684Y-72346654D01*
X153635643Y-72495875D01*
X153635641Y-72495880D01*
X153580494Y-72662302D01*
X153580493Y-72662309D01*
X153570000Y-72765013D01*
X153570000Y-73410000D01*
X154399530Y-73410000D01*
X154360315Y-73504674D01*
X154339866Y-73660000D01*
X154360315Y-73815326D01*
X154399530Y-73910000D01*
X153570001Y-73910000D01*
X153570001Y-74554986D01*
X153580494Y-74657697D01*
X153635641Y-74824119D01*
X153635643Y-74824124D01*
X153727684Y-74973345D01*
X153851654Y-75097315D01*
X154000875Y-75189356D01*
X154000880Y-75189358D01*
X154167302Y-75244505D01*
X154167309Y-75244506D01*
X154270019Y-75254999D01*
X154689999Y-75254999D01*
X154690000Y-75254998D01*
X154690000Y-74200469D01*
X154784674Y-74239685D01*
X154901003Y-74255000D01*
X154978997Y-74255000D01*
X155095326Y-74239685D01*
X155190000Y-74200469D01*
X155190000Y-75254999D01*
X155609972Y-75254999D01*
X155609986Y-75254998D01*
X155712697Y-75244505D01*
X155879119Y-75189358D01*
X155879124Y-75189356D01*
X156028345Y-75097315D01*
X156152315Y-74973345D01*
X156244359Y-74824118D01*
X156245496Y-74821681D01*
X156246722Y-74820287D01*
X156248149Y-74817975D01*
X156248544Y-74818218D01*
X156291664Y-74769237D01*
X156358855Y-74750080D01*
X156425738Y-74770290D01*
X156447404Y-74788275D01*
X156571272Y-74917516D01*
X156571273Y-74917517D01*
X156758834Y-75056237D01*
X156758836Y-75056238D01*
X156758839Y-75056240D01*
X156967153Y-75161270D01*
X157190220Y-75229583D01*
X157421624Y-75259216D01*
X157654707Y-75249314D01*
X157882765Y-75200164D01*
X158099235Y-75113179D01*
X158297891Y-74990862D01*
X158473018Y-74836731D01*
X158619578Y-74655220D01*
X158675572Y-74554986D01*
X158733353Y-74451554D01*
X158733354Y-74451552D01*
X158811073Y-74231584D01*
X158850500Y-74001647D01*
X158850500Y-73376784D01*
X158850499Y-73376765D01*
X158835671Y-73202553D01*
X158835670Y-73202551D01*
X158835670Y-73202547D01*
X158776885Y-72976781D01*
X158680792Y-72764198D01*
X158550153Y-72570912D01*
X158388728Y-72402484D01*
X158388727Y-72402483D01*
X158388726Y-72402482D01*
X158201165Y-72263762D01*
X158162535Y-72244285D01*
X157992847Y-72158730D01*
X157769780Y-72090417D01*
X157769778Y-72090416D01*
X157769776Y-72090416D01*
X157538370Y-72060783D01*
X157305299Y-72070685D01*
X157305290Y-72070686D01*
X157077239Y-72119835D01*
X157077238Y-72119835D01*
X157077235Y-72119836D01*
X156974907Y-72160954D01*
X156905365Y-72167684D01*
X156843221Y-72135748D01*
X156840995Y-72133576D01*
X155603819Y-70896400D01*
X155570334Y-70835077D01*
X155567500Y-70808719D01*
X155567500Y-67287114D01*
X155587185Y-67220075D01*
X155626404Y-67181575D01*
X155746156Y-67107712D01*
X155870212Y-66983656D01*
X155872252Y-66980347D01*
X155874245Y-66978555D01*
X155874693Y-66977989D01*
X155874789Y-66978065D01*
X155924194Y-66933623D01*
X155993156Y-66922395D01*
X156057240Y-66950234D01*
X156083329Y-66980339D01*
X156085181Y-66983341D01*
X156085183Y-66983344D01*
X156209154Y-67107315D01*
X156358375Y-67199356D01*
X156358380Y-67199358D01*
X156524802Y-67254505D01*
X156524809Y-67254506D01*
X156627519Y-67264999D01*
X156764999Y-67264999D01*
X156765000Y-67264998D01*
X156765000Y-66290000D01*
X157265000Y-66290000D01*
X157265000Y-67264999D01*
X157402472Y-67264999D01*
X157402486Y-67264998D01*
X157505197Y-67254505D01*
X157671619Y-67199358D01*
X157671624Y-67199356D01*
X157820845Y-67107315D01*
X157944815Y-66983345D01*
X158036856Y-66834124D01*
X158036858Y-66834119D01*
X158092005Y-66667697D01*
X158092006Y-66667690D01*
X158102499Y-66564986D01*
X158102500Y-66564973D01*
X158102500Y-66290000D01*
X157265000Y-66290000D01*
X156765000Y-66290000D01*
X156765000Y-64815000D01*
X157265000Y-64815000D01*
X157265000Y-65790000D01*
X158102499Y-65790000D01*
X158102499Y-65515028D01*
X158102498Y-65515013D01*
X158092005Y-65412302D01*
X158036858Y-65245880D01*
X158036856Y-65245875D01*
X157944815Y-65096654D01*
X157820845Y-64972684D01*
X157671624Y-64880643D01*
X157671619Y-64880641D01*
X157505197Y-64825494D01*
X157505190Y-64825493D01*
X157402486Y-64815000D01*
X157265000Y-64815000D01*
X156765000Y-64815000D01*
X156627527Y-64815000D01*
X156627512Y-64815001D01*
X156524802Y-64825494D01*
X156358380Y-64880641D01*
X156358375Y-64880643D01*
X156209154Y-64972684D01*
X156085183Y-65096655D01*
X156085179Y-65096660D01*
X156083326Y-65099665D01*
X156081518Y-65101290D01*
X156080702Y-65102323D01*
X156080525Y-65102183D01*
X156031374Y-65146385D01*
X155962411Y-65157601D01*
X155898331Y-65129752D01*
X155872253Y-65099653D01*
X155872237Y-65099628D01*
X155870212Y-65096344D01*
X155746156Y-64972288D01*
X155596834Y-64880186D01*
X155430297Y-64825001D01*
X155430295Y-64825000D01*
X155327516Y-64814500D01*
X155327509Y-64814500D01*
X155081500Y-64814500D01*
X155014461Y-64794815D01*
X154968706Y-64742011D01*
X154957500Y-64690500D01*
X154957500Y-62094499D01*
X154977185Y-62027460D01*
X155029989Y-61981705D01*
X155081500Y-61970499D01*
X155377871Y-61970499D01*
X155377872Y-61970499D01*
X155437483Y-61964091D01*
X155572331Y-61913796D01*
X155687546Y-61827546D01*
X155773796Y-61712331D01*
X155824091Y-61577483D01*
X155830500Y-61517873D01*
X155830499Y-60367870D01*
X159129500Y-60367870D01*
X159129501Y-60367876D01*
X159135908Y-60427483D01*
X159186202Y-60562328D01*
X159186206Y-60562335D01*
X159272452Y-60677544D01*
X159272455Y-60677547D01*
X159387664Y-60763793D01*
X159387671Y-60763797D01*
X159522517Y-60814091D01*
X159522516Y-60814091D01*
X159529444Y-60814835D01*
X159582127Y-60820500D01*
X161677872Y-60820499D01*
X161737483Y-60814091D01*
X161872331Y-60763796D01*
X161987546Y-60677546D01*
X162073796Y-60562331D01*
X162124091Y-60427483D01*
X162130500Y-60367873D01*
X162130499Y-56472128D01*
X162124091Y-56412517D01*
X162118016Y-56396230D01*
X162073797Y-56277671D01*
X162073793Y-56277664D01*
X161987547Y-56162455D01*
X161987544Y-56162452D01*
X161872335Y-56076206D01*
X161872328Y-56076202D01*
X161737482Y-56025908D01*
X161737483Y-56025908D01*
X161677883Y-56019501D01*
X161677881Y-56019500D01*
X161677873Y-56019500D01*
X161677864Y-56019500D01*
X159582129Y-56019500D01*
X159582123Y-56019501D01*
X159522516Y-56025908D01*
X159387671Y-56076202D01*
X159387664Y-56076206D01*
X159272455Y-56162452D01*
X159272452Y-56162455D01*
X159186206Y-56277664D01*
X159186202Y-56277671D01*
X159135908Y-56412517D01*
X159129795Y-56469384D01*
X159129501Y-56472123D01*
X159129500Y-56472135D01*
X159129500Y-60367870D01*
X155830499Y-60367870D01*
X155830499Y-59922128D01*
X155824229Y-59863797D01*
X155824091Y-59862516D01*
X155773797Y-59727671D01*
X155773796Y-59727669D01*
X155744149Y-59688066D01*
X155711393Y-59644310D01*
X155686977Y-59578847D01*
X155701828Y-59510574D01*
X155711394Y-59495689D01*
X155732219Y-59467870D01*
X155773796Y-59412331D01*
X155824091Y-59277483D01*
X155830500Y-59217873D01*
X155830499Y-57622128D01*
X155824091Y-57562517D01*
X155818208Y-57546745D01*
X155773797Y-57427671D01*
X155773795Y-57427668D01*
X155736377Y-57377684D01*
X155711081Y-57343893D01*
X155686664Y-57278431D01*
X155701515Y-57210158D01*
X155711082Y-57195271D01*
X155773352Y-57112089D01*
X155773354Y-57112086D01*
X155823596Y-56977379D01*
X155823598Y-56977372D01*
X155829999Y-56917844D01*
X155830000Y-56917827D01*
X155830000Y-56370000D01*
X152830000Y-56370000D01*
X152830000Y-56917844D01*
X152836401Y-56977372D01*
X152836403Y-56977379D01*
X152886645Y-57112086D01*
X152886646Y-57112088D01*
X152948918Y-57195272D01*
X152973335Y-57260736D01*
X152958484Y-57329009D01*
X152948918Y-57343894D01*
X152886204Y-57427669D01*
X152886202Y-57427671D01*
X152835908Y-57562517D01*
X152829501Y-57622116D01*
X152829501Y-57622123D01*
X152829500Y-57622135D01*
X152829500Y-59217870D01*
X152829501Y-59217876D01*
X152835908Y-59277483D01*
X152886202Y-59412328D01*
X152886203Y-59412330D01*
X152948606Y-59495689D01*
X152973023Y-59561153D01*
X152958172Y-59629426D01*
X152948606Y-59644311D01*
X152886203Y-59727669D01*
X152886202Y-59727671D01*
X152835908Y-59862517D01*
X152830364Y-59914091D01*
X152829501Y-59922123D01*
X152829500Y-59922135D01*
X152829500Y-61517870D01*
X142569547Y-61517870D01*
X142625043Y-61462374D01*
X142637325Y-61452537D01*
X142637144Y-61452318D01*
X142643157Y-61447342D01*
X142643162Y-61447340D01*
X142689384Y-61398116D01*
X142692033Y-61395384D01*
X142711623Y-61375796D01*
X142714096Y-61372606D01*
X142721682Y-61363722D01*
X142751693Y-61331767D01*
X142761389Y-61314128D01*
X142772073Y-61297861D01*
X142784408Y-61281962D01*
X142801817Y-61241728D01*
X142806955Y-61231243D01*
X142828069Y-61192840D01*
X142828069Y-61192838D01*
X142828072Y-61192834D01*
X142833078Y-61173334D01*
X142839382Y-61154924D01*
X142847370Y-61136465D01*
X142847373Y-61136459D01*
X142851567Y-61109977D01*
X142854230Y-61093166D01*
X142856596Y-61081737D01*
X142867500Y-61039272D01*
X142867500Y-61019135D01*
X142869027Y-60999735D01*
X142872174Y-60979867D01*
X142868050Y-60936238D01*
X142867500Y-60924569D01*
X142867500Y-59853926D01*
X142887185Y-59786887D01*
X142932483Y-59744871D01*
X142964266Y-59727671D01*
X143037439Y-59688072D01*
X143227463Y-59540171D01*
X143390551Y-59363010D01*
X143406489Y-59338613D01*
X143459631Y-59293258D01*
X143528862Y-59283831D01*
X143592199Y-59313330D01*
X143614106Y-59338611D01*
X143629847Y-59362704D01*
X143629851Y-59362710D01*
X143792873Y-59539797D01*
X143792883Y-59539806D01*
X143982831Y-59687649D01*
X143982840Y-59687655D01*
X144194531Y-59802215D01*
X144194545Y-59802221D01*
X144422207Y-59880379D01*
X144530000Y-59898366D01*
X144530000Y-58911683D01*
X144558819Y-58929209D01*
X144704404Y-58970000D01*
X144817622Y-58970000D01*
X144929783Y-58954584D01*
X145030000Y-58911053D01*
X145030000Y-59898365D01*
X145137792Y-59880379D01*
X145365454Y-59802221D01*
X145365468Y-59802215D01*
X145577159Y-59687655D01*
X145577168Y-59687649D01*
X145767116Y-59539806D01*
X145767126Y-59539797D01*
X145930148Y-59362710D01*
X145930156Y-59362699D01*
X146061813Y-59161184D01*
X146158508Y-58940740D01*
X146217599Y-58707395D01*
X146217599Y-58707394D01*
X146220697Y-58670000D01*
X145274852Y-58670000D01*
X145323559Y-58532953D01*
X145333877Y-58382114D01*
X145303116Y-58234085D01*
X145269910Y-58170000D01*
X146220697Y-58170000D01*
X146217599Y-58132605D01*
X146217599Y-58132604D01*
X146158508Y-57899259D01*
X146061813Y-57678815D01*
X145930156Y-57477300D01*
X145930148Y-57477289D01*
X145767126Y-57300202D01*
X145767116Y-57300193D01*
X145577168Y-57152350D01*
X145577159Y-57152344D01*
X145365468Y-57037784D01*
X145365454Y-57037778D01*
X145137791Y-56959619D01*
X145030000Y-56941633D01*
X145030000Y-57928316D01*
X145001181Y-57910791D01*
X144855596Y-57870000D01*
X144742378Y-57870000D01*
X144630217Y-57885416D01*
X144530000Y-57928946D01*
X144530000Y-56941633D01*
X144529999Y-56941633D01*
X144422208Y-56959619D01*
X144194545Y-57037778D01*
X144194531Y-57037784D01*
X143982840Y-57152344D01*
X143982831Y-57152350D01*
X143792883Y-57300193D01*
X143792873Y-57300202D01*
X143629851Y-57477289D01*
X143629846Y-57477297D01*
X143614104Y-57501390D01*
X143560955Y-57546745D01*
X143491724Y-57556165D01*
X143428389Y-57526660D01*
X143406489Y-57501384D01*
X143390555Y-57476994D01*
X143294018Y-57372127D01*
X143227463Y-57299829D01*
X143060016Y-57169500D01*
X143037441Y-57151929D01*
X142825665Y-57037321D01*
X142825656Y-57037318D01*
X142597916Y-56959134D01*
X142364495Y-56920183D01*
X142301610Y-56889732D01*
X142265170Y-56830117D01*
X142266746Y-56760265D01*
X142297222Y-56710195D01*
X143137417Y-55870000D01*
X152830000Y-55870000D01*
X154080000Y-55870000D01*
X154080000Y-54870000D01*
X154580000Y-54870000D01*
X154580000Y-55870000D01*
X155830000Y-55870000D01*
X155830000Y-55322172D01*
X155829999Y-55322155D01*
X155823598Y-55262627D01*
X155823596Y-55262620D01*
X155773354Y-55127913D01*
X155773350Y-55127906D01*
X155687190Y-55012812D01*
X155687187Y-55012809D01*
X155572093Y-54926649D01*
X155572086Y-54926645D01*
X155437379Y-54876403D01*
X155437372Y-54876401D01*
X155377844Y-54870000D01*
X154580000Y-54870000D01*
X154080000Y-54870000D01*
X153282155Y-54870000D01*
X153222627Y-54876401D01*
X153222620Y-54876403D01*
X153087913Y-54926645D01*
X153087906Y-54926649D01*
X152972812Y-55012809D01*
X152972809Y-55012812D01*
X152886649Y-55127906D01*
X152886645Y-55127913D01*
X152836403Y-55262620D01*
X152836401Y-55262627D01*
X152830000Y-55322155D01*
X152830000Y-55870000D01*
X143137417Y-55870000D01*
X144165043Y-54842374D01*
X144177325Y-54832537D01*
X144177144Y-54832318D01*
X144183157Y-54827342D01*
X144183162Y-54827340D01*
X144229384Y-54778116D01*
X144232033Y-54775384D01*
X144251623Y-54755796D01*
X144254096Y-54752606D01*
X144261682Y-54743722D01*
X144291693Y-54711767D01*
X144301389Y-54694128D01*
X144312073Y-54677861D01*
X144324408Y-54661962D01*
X144341817Y-54621728D01*
X144346955Y-54611243D01*
X144368069Y-54572840D01*
X144368069Y-54572838D01*
X144368072Y-54572834D01*
X144373078Y-54553334D01*
X144379382Y-54534924D01*
X144387373Y-54516459D01*
X144391773Y-54488676D01*
X144394230Y-54473166D01*
X144396596Y-54461737D01*
X144407500Y-54419272D01*
X144407500Y-54399135D01*
X144409027Y-54379735D01*
X144412174Y-54359867D01*
X144408050Y-54316238D01*
X144407500Y-54304569D01*
X144407500Y-52029824D01*
X144427185Y-51962785D01*
X144466404Y-51924285D01*
X144598656Y-51842712D01*
X144692675Y-51748692D01*
X144753994Y-51715210D01*
X144823686Y-51720194D01*
X144868034Y-51748695D01*
X144961654Y-51842315D01*
X145110875Y-51934356D01*
X145110880Y-51934358D01*
X145277302Y-51989505D01*
X145277309Y-51989506D01*
X145380019Y-51999999D01*
X145529999Y-51999999D01*
X145530000Y-51999998D01*
X145530000Y-51050000D01*
X146030000Y-51050000D01*
X146030000Y-51999999D01*
X146179972Y-51999999D01*
X146179986Y-51999998D01*
X146282697Y-51989505D01*
X146449119Y-51934358D01*
X146449124Y-51934356D01*
X146598345Y-51842315D01*
X146722315Y-51718345D01*
X146814356Y-51569124D01*
X146814358Y-51569119D01*
X146869505Y-51402697D01*
X146869506Y-51402690D01*
X146879999Y-51299986D01*
X146880000Y-51299973D01*
X146880000Y-51050000D01*
X146030000Y-51050000D01*
X145530000Y-51050000D01*
X145530000Y-49600000D01*
X146030000Y-49600000D01*
X146030000Y-50550000D01*
X146879999Y-50550000D01*
X146879999Y-50300028D01*
X146879998Y-50300013D01*
X146869505Y-50197302D01*
X146814358Y-50030880D01*
X146814356Y-50030875D01*
X146722315Y-49881654D01*
X146598345Y-49757684D01*
X146449124Y-49665643D01*
X146449119Y-49665641D01*
X146282697Y-49610494D01*
X146282690Y-49610493D01*
X146179986Y-49600000D01*
X146030000Y-49600000D01*
X145530000Y-49600000D01*
X145380027Y-49600000D01*
X145380012Y-49600001D01*
X145277302Y-49610494D01*
X145110880Y-49665641D01*
X145110875Y-49665643D01*
X144961657Y-49757682D01*
X144868034Y-49851305D01*
X144806710Y-49884789D01*
X144737019Y-49879805D01*
X144692672Y-49851304D01*
X144598657Y-49757289D01*
X144598656Y-49757288D01*
X144449334Y-49665186D01*
X144282797Y-49610001D01*
X144282795Y-49610000D01*
X144180010Y-49599500D01*
X143379998Y-49599500D01*
X143379980Y-49599501D01*
X143277203Y-49610000D01*
X143277200Y-49610001D01*
X143110668Y-49665185D01*
X143110663Y-49665187D01*
X142961342Y-49757289D01*
X142837289Y-49881342D01*
X142745187Y-50030663D01*
X142745185Y-50030668D01*
X142726352Y-50087504D01*
X142686579Y-50144949D01*
X142622063Y-50171772D01*
X142608646Y-50172500D01*
X138894645Y-50172500D01*
X138827606Y-50152815D01*
X138781851Y-50100011D01*
X138771907Y-50030853D01*
X138782262Y-49996097D01*
X138782525Y-49995531D01*
X138786739Y-49986496D01*
X138845635Y-49766692D01*
X138865468Y-49540000D01*
X138845635Y-49313308D01*
X138786739Y-49093504D01*
X138690568Y-48887266D01*
X138560047Y-48700861D01*
X138560045Y-48700858D01*
X138399141Y-48539954D01*
X138212734Y-48409432D01*
X138212728Y-48409429D01*
X138154725Y-48382382D01*
X138102285Y-48336210D01*
X138083133Y-48269017D01*
X138103348Y-48202135D01*
X138154725Y-48157618D01*
X138212734Y-48130568D01*
X138399139Y-48000047D01*
X138560047Y-47839139D01*
X138690568Y-47652734D01*
X138786739Y-47446496D01*
X138845635Y-47226692D01*
X138865468Y-47000000D01*
X138845635Y-46773308D01*
X138786739Y-46553504D01*
X138690568Y-46347266D01*
X138560047Y-46160861D01*
X138560045Y-46160858D01*
X138399141Y-45999954D01*
X138212734Y-45869432D01*
X138212728Y-45869429D01*
X138154725Y-45842382D01*
X138102285Y-45796210D01*
X138083133Y-45729017D01*
X138103348Y-45662135D01*
X138154725Y-45617618D01*
X138155643Y-45617190D01*
X138212734Y-45590568D01*
X138399139Y-45460047D01*
X138560047Y-45299139D01*
X138690568Y-45112734D01*
X138786739Y-44906496D01*
X138845635Y-44686692D01*
X138865468Y-44460000D01*
X138845635Y-44233308D01*
X138786739Y-44013504D01*
X138690568Y-43807266D01*
X138560047Y-43620861D01*
X138560045Y-43620858D01*
X138399141Y-43459954D01*
X138212734Y-43329432D01*
X138212732Y-43329431D01*
X138006497Y-43233261D01*
X138006488Y-43233258D01*
X137786697Y-43174366D01*
X137786687Y-43174364D01*
X137616785Y-43159500D01*
X137616784Y-43159500D01*
X136703216Y-43159500D01*
X136703215Y-43159500D01*
X136533312Y-43174364D01*
X136533302Y-43174366D01*
X136313511Y-43233258D01*
X136313502Y-43233261D01*
X136107267Y-43329431D01*
X136107265Y-43329432D01*
X135920858Y-43459954D01*
X135759954Y-43620858D01*
X135629432Y-43807265D01*
X135629431Y-43807267D01*
X135533261Y-44013502D01*
X135533258Y-44013511D01*
X135474366Y-44233302D01*
X135474364Y-44233313D01*
X135454532Y-44459998D01*
X135454532Y-44460001D01*
X135474364Y-44686686D01*
X135474366Y-44686697D01*
X135533258Y-44906488D01*
X135533261Y-44906497D01*
X135629431Y-45112732D01*
X135629432Y-45112734D01*
X135759954Y-45299141D01*
X135920858Y-45460045D01*
X135920861Y-45460047D01*
X136107266Y-45590568D01*
X136164357Y-45617190D01*
X136165275Y-45617618D01*
X136217714Y-45663791D01*
X136236866Y-45730984D01*
X136216650Y-45797865D01*
X136165275Y-45842382D01*
X136107267Y-45869431D01*
X136107265Y-45869432D01*
X135920858Y-45999954D01*
X135759954Y-46160858D01*
X135629432Y-46347265D01*
X135629431Y-46347267D01*
X135533261Y-46553502D01*
X135533258Y-46553511D01*
X135474366Y-46773302D01*
X135474364Y-46773313D01*
X135454532Y-46999998D01*
X135454532Y-47000001D01*
X135474364Y-47226686D01*
X135474366Y-47226697D01*
X135533258Y-47446488D01*
X135533261Y-47446497D01*
X135629431Y-47652732D01*
X135629432Y-47652734D01*
X135759954Y-47839141D01*
X135920858Y-48000045D01*
X135920861Y-48000047D01*
X136107266Y-48130568D01*
X136165275Y-48157618D01*
X136217714Y-48203791D01*
X136236866Y-48270984D01*
X136216650Y-48337865D01*
X136165275Y-48382382D01*
X136107267Y-48409431D01*
X136107265Y-48409432D01*
X135920858Y-48539954D01*
X135759954Y-48700858D01*
X135629432Y-48887265D01*
X135629431Y-48887267D01*
X135533261Y-49093502D01*
X135533258Y-49093511D01*
X135474366Y-49313302D01*
X135474364Y-49313313D01*
X135454532Y-49539998D01*
X135454532Y-49540001D01*
X135474364Y-49766686D01*
X135474366Y-49766697D01*
X135533258Y-49986488D01*
X135533260Y-49986494D01*
X135533261Y-49986496D01*
X135533262Y-49986498D01*
X135537738Y-49996097D01*
X135548229Y-50065175D01*
X135519708Y-50128958D01*
X135461231Y-50167197D01*
X135425355Y-50172500D01*
X133651281Y-50172500D01*
X133584242Y-50152815D01*
X133563600Y-50136181D01*
X131135011Y-47707592D01*
X131101526Y-47646269D01*
X131106510Y-47576577D01*
X131110304Y-47567517D01*
X131166739Y-47446496D01*
X131225635Y-47226692D01*
X131245468Y-47000000D01*
X131225635Y-46773308D01*
X131166739Y-46553504D01*
X131070568Y-46347266D01*
X130940047Y-46160861D01*
X130940045Y-46160858D01*
X130779143Y-45999956D01*
X130753912Y-45982289D01*
X130710287Y-45927712D01*
X130703095Y-45858213D01*
X130734617Y-45795859D01*
X130794847Y-45760445D01*
X130811781Y-45757424D01*
X130847380Y-45753596D01*
X130982086Y-45703354D01*
X130982093Y-45703350D01*
X131097187Y-45617190D01*
X131097190Y-45617187D01*
X131183350Y-45502093D01*
X131183354Y-45502086D01*
X131233596Y-45367379D01*
X131233598Y-45367372D01*
X131239999Y-45307844D01*
X131240000Y-45307827D01*
X131240000Y-44710000D01*
X129855686Y-44710000D01*
X129867641Y-44698045D01*
X129925165Y-44585148D01*
X129944986Y-44460000D01*
X129925165Y-44334852D01*
X129867641Y-44221955D01*
X129855686Y-44210000D01*
X131240000Y-44210000D01*
X131240000Y-43612172D01*
X131239999Y-43612155D01*
X131233598Y-43552627D01*
X131233596Y-43552620D01*
X131183354Y-43417913D01*
X131183350Y-43417906D01*
X131097190Y-43302812D01*
X131097187Y-43302809D01*
X130982093Y-43216649D01*
X130982086Y-43216645D01*
X130847379Y-43166403D01*
X130847372Y-43166401D01*
X130787844Y-43160000D01*
X129790000Y-43160000D01*
X129790000Y-44144314D01*
X129778045Y-44132359D01*
X129665148Y-44074835D01*
X129571481Y-44060000D01*
X129508519Y-44060000D01*
X129414852Y-44074835D01*
X129301955Y-44132359D01*
X129290000Y-44144314D01*
X129290000Y-43160000D01*
X128292155Y-43160000D01*
X128232627Y-43166401D01*
X128232620Y-43166403D01*
X128097913Y-43216645D01*
X128097906Y-43216649D01*
X127982812Y-43302809D01*
X127982809Y-43302812D01*
X127896649Y-43417906D01*
X127896645Y-43417913D01*
X127846403Y-43552620D01*
X127846401Y-43552627D01*
X127840000Y-43612155D01*
X127840000Y-44210000D01*
X129224314Y-44210000D01*
X129212359Y-44221955D01*
X129154835Y-44334852D01*
X129135014Y-44460000D01*
X129154835Y-44585148D01*
X129212359Y-44698045D01*
X129224314Y-44710000D01*
X127840000Y-44710000D01*
X127840000Y-45307844D01*
X127846401Y-45367372D01*
X127846403Y-45367379D01*
X127896645Y-45502086D01*
X127896649Y-45502093D01*
X127982809Y-45617187D01*
X127982812Y-45617190D01*
X128097906Y-45703350D01*
X128097913Y-45703354D01*
X128232620Y-45753596D01*
X128232627Y-45753598D01*
X128268218Y-45757425D01*
X128332769Y-45784163D01*
X128372618Y-45841555D01*
X128375111Y-45911380D01*
X128339459Y-45971469D01*
X128326088Y-45982287D01*
X128300861Y-45999951D01*
X128139954Y-46160858D01*
X128009432Y-46347265D01*
X128009431Y-46347267D01*
X127913261Y-46553502D01*
X127913258Y-46553511D01*
X127854366Y-46773302D01*
X127854364Y-46773313D01*
X127834532Y-46999998D01*
X127834532Y-47000001D01*
X127854364Y-47226686D01*
X127854366Y-47226697D01*
X127913258Y-47446488D01*
X127913261Y-47446497D01*
X128009431Y-47652732D01*
X128009432Y-47652734D01*
X128139954Y-47839141D01*
X128300858Y-48000045D01*
X128300861Y-48000047D01*
X128487266Y-48130568D01*
X128545275Y-48157618D01*
X128597714Y-48203791D01*
X128616866Y-48270984D01*
X128596650Y-48337865D01*
X128545275Y-48382382D01*
X128487267Y-48409431D01*
X128487265Y-48409432D01*
X128300858Y-48539954D01*
X128139954Y-48700858D01*
X128028788Y-48859623D01*
X127974212Y-48903248D01*
X127927213Y-48912500D01*
X125802967Y-48912500D01*
X125787318Y-48910772D01*
X125787292Y-48911054D01*
X125779524Y-48910319D01*
X125712082Y-48912439D01*
X125708188Y-48912500D01*
X125680523Y-48912500D01*
X125676514Y-48913006D01*
X125664884Y-48913921D01*
X125621057Y-48915298D01*
X125621056Y-48915299D01*
X125601715Y-48920917D01*
X125582678Y-48924859D01*
X125562712Y-48927382D01*
X125562706Y-48927384D01*
X125521963Y-48943514D01*
X125510918Y-48947295D01*
X125468815Y-48959528D01*
X125468809Y-48959530D01*
X125451471Y-48969783D01*
X125434014Y-48978335D01*
X125415297Y-48985747D01*
X125379841Y-49011507D01*
X125370080Y-49017918D01*
X125332346Y-49040234D01*
X125318106Y-49054474D01*
X125303320Y-49067102D01*
X125287033Y-49078936D01*
X125259090Y-49112712D01*
X125251229Y-49121350D01*
X122269398Y-52103181D01*
X122208075Y-52136666D01*
X122181717Y-52139500D01*
X121519998Y-52139500D01*
X121519980Y-52139501D01*
X121417203Y-52150000D01*
X121417200Y-52150001D01*
X121250668Y-52205185D01*
X121250663Y-52205187D01*
X121101342Y-52297289D01*
X121007681Y-52390951D01*
X120946358Y-52424436D01*
X120876666Y-52419452D01*
X120832319Y-52390951D01*
X120738657Y-52297289D01*
X120738656Y-52297288D01*
X120589334Y-52205186D01*
X120422797Y-52150001D01*
X120422795Y-52150000D01*
X120320010Y-52139500D01*
X119519998Y-52139500D01*
X119519980Y-52139501D01*
X119417203Y-52150000D01*
X119417200Y-52150001D01*
X119250668Y-52205185D01*
X119250663Y-52205187D01*
X119101342Y-52297289D01*
X118977289Y-52421342D01*
X118885187Y-52570663D01*
X118885186Y-52570666D01*
X118830001Y-52737203D01*
X118830001Y-52737204D01*
X118830000Y-52737204D01*
X118819500Y-52839983D01*
X118819500Y-53840001D01*
X118819501Y-53840019D01*
X118830000Y-53942796D01*
X118830001Y-53942799D01*
X118885185Y-54109331D01*
X118885187Y-54109336D01*
X118919999Y-54165776D01*
X118977288Y-54258656D01*
X119101344Y-54382712D01*
X119250666Y-54474814D01*
X119417203Y-54529999D01*
X119519991Y-54540500D01*
X120320008Y-54540499D01*
X120320016Y-54540498D01*
X120320019Y-54540498D01*
X120376302Y-54534748D01*
X120422797Y-54529999D01*
X120589334Y-54474814D01*
X120738656Y-54382712D01*
X120832319Y-54289049D01*
X120893642Y-54255564D01*
X120963334Y-54260548D01*
X121007681Y-54289049D01*
X121101344Y-54382712D01*
X121229445Y-54461725D01*
X121233596Y-54464285D01*
X121280321Y-54516233D01*
X121292500Y-54569824D01*
X121292500Y-56108718D01*
X121272815Y-56175757D01*
X121256181Y-56196399D01*
X120269398Y-57183181D01*
X120208075Y-57216666D01*
X120181717Y-57219500D01*
X119519998Y-57219500D01*
X119519980Y-57219501D01*
X119417203Y-57230000D01*
X119417200Y-57230001D01*
X119250668Y-57285185D01*
X119250663Y-57285187D01*
X119101342Y-57377289D01*
X118977289Y-57501342D01*
X118885187Y-57650663D01*
X118885185Y-57650668D01*
X118885115Y-57650880D01*
X118830001Y-57817203D01*
X118830001Y-57817204D01*
X118830000Y-57817204D01*
X118819500Y-57919983D01*
X118819500Y-58920001D01*
X118819501Y-58920019D01*
X118830000Y-59022796D01*
X118830001Y-59022799D01*
X118875858Y-59161184D01*
X118885186Y-59189334D01*
X118977288Y-59338656D01*
X119101344Y-59462712D01*
X119250666Y-59554814D01*
X119417203Y-59609999D01*
X119519991Y-59620500D01*
X120320008Y-59620499D01*
X120320016Y-59620498D01*
X120320019Y-59620498D01*
X120376302Y-59614748D01*
X120422797Y-59609999D01*
X120589334Y-59554814D01*
X120738656Y-59462712D01*
X120832675Y-59368692D01*
X120893994Y-59335210D01*
X120963686Y-59340194D01*
X121008034Y-59368695D01*
X121101654Y-59462315D01*
X121250875Y-59554356D01*
X121250880Y-59554358D01*
X121417302Y-59609505D01*
X121417309Y-59609506D01*
X121520019Y-59619999D01*
X121669999Y-59619999D01*
X121670000Y-59619998D01*
X121670000Y-58670000D01*
X122170000Y-58670000D01*
X122170000Y-59619999D01*
X122319972Y-59619999D01*
X122319986Y-59619998D01*
X122422697Y-59609505D01*
X122589119Y-59554358D01*
X122589124Y-59554356D01*
X122738345Y-59462315D01*
X122862315Y-59338345D01*
X122954356Y-59189124D01*
X122954358Y-59189119D01*
X123009505Y-59022697D01*
X123009506Y-59022690D01*
X123019999Y-58919986D01*
X123020000Y-58919973D01*
X123020000Y-58670000D01*
X122170000Y-58670000D01*
X121670000Y-58670000D01*
X121670000Y-58294000D01*
X121689685Y-58226961D01*
X121742489Y-58181206D01*
X121794000Y-58170000D01*
X123019999Y-58170000D01*
X123019999Y-57920028D01*
X123019998Y-57920013D01*
X123009505Y-57817302D01*
X122954358Y-57650880D01*
X122954356Y-57650875D01*
X122862315Y-57501654D01*
X122738345Y-57377684D01*
X122589124Y-57285643D01*
X122589119Y-57285641D01*
X122422697Y-57230494D01*
X122422690Y-57230493D01*
X122319986Y-57220000D01*
X122306780Y-57220000D01*
X122239741Y-57200315D01*
X122193986Y-57147511D01*
X122184042Y-57078353D01*
X122213067Y-57014797D01*
X122219084Y-57008333D01*
X122305047Y-56922370D01*
X122317325Y-56912537D01*
X122317144Y-56912318D01*
X122323157Y-56907342D01*
X122323162Y-56907340D01*
X122369384Y-56858116D01*
X122372033Y-56855384D01*
X122391623Y-56835796D01*
X122394096Y-56832606D01*
X122401682Y-56823722D01*
X122431693Y-56791767D01*
X122441389Y-56774128D01*
X122452073Y-56757861D01*
X122464408Y-56741962D01*
X122481822Y-56701718D01*
X122486944Y-56691262D01*
X122508072Y-56652834D01*
X122513076Y-56633338D01*
X122519378Y-56614933D01*
X122527374Y-56596459D01*
X122534231Y-56553154D01*
X122536594Y-56541744D01*
X122547500Y-56499272D01*
X122547500Y-56479141D01*
X122549027Y-56459741D01*
X122552175Y-56439867D01*
X122548050Y-56396230D01*
X122547500Y-56384561D01*
X122547500Y-54569824D01*
X122567185Y-54502785D01*
X122606404Y-54464285D01*
X122738656Y-54382712D01*
X122862712Y-54258656D01*
X122954814Y-54109334D01*
X123009999Y-53942797D01*
X123020500Y-53840009D01*
X123020499Y-53178279D01*
X123040183Y-53111241D01*
X123056813Y-53090604D01*
X125943600Y-50203819D01*
X126004923Y-50170334D01*
X126031281Y-50167500D01*
X127927213Y-50167500D01*
X127994252Y-50187185D01*
X128028788Y-50220377D01*
X128139954Y-50379141D01*
X128300858Y-50540045D01*
X128300861Y-50540047D01*
X128487266Y-50670568D01*
X128545865Y-50697893D01*
X128598305Y-50744065D01*
X128617457Y-50811258D01*
X128597242Y-50878139D01*
X128545867Y-50922657D01*
X128487515Y-50949867D01*
X128301179Y-51080342D01*
X128140342Y-51241179D01*
X128009865Y-51427517D01*
X127913734Y-51633673D01*
X127913730Y-51633682D01*
X127861127Y-51829999D01*
X127861128Y-51830000D01*
X129224314Y-51830000D01*
X129212359Y-51841955D01*
X129154835Y-51954852D01*
X129135014Y-52080000D01*
X129154835Y-52205148D01*
X129212359Y-52318045D01*
X129224314Y-52330000D01*
X127861128Y-52330000D01*
X127913730Y-52526317D01*
X127913734Y-52526326D01*
X128009865Y-52732482D01*
X128140342Y-52918820D01*
X128301179Y-53079657D01*
X128487517Y-53210134D01*
X128693673Y-53306265D01*
X128693682Y-53306269D01*
X128913389Y-53365139D01*
X128913400Y-53365141D01*
X129083233Y-53379999D01*
X129083236Y-53380000D01*
X129290000Y-53380000D01*
X129290000Y-52395686D01*
X129301955Y-52407641D01*
X129414852Y-52465165D01*
X129508519Y-52480000D01*
X129571481Y-52480000D01*
X129665148Y-52465165D01*
X129778045Y-52407641D01*
X129790000Y-52395686D01*
X129790000Y-53380000D01*
X129996764Y-53380000D01*
X129996766Y-53379999D01*
X130166599Y-53365141D01*
X130166610Y-53365139D01*
X130386317Y-53306269D01*
X130386326Y-53306265D01*
X130592482Y-53210134D01*
X130778820Y-53079657D01*
X130939657Y-52918820D01*
X131070134Y-52732482D01*
X131166265Y-52526326D01*
X131166269Y-52526317D01*
X131218872Y-52330000D01*
X129855686Y-52330000D01*
X129867641Y-52318045D01*
X129925165Y-52205148D01*
X129944986Y-52080000D01*
X129925165Y-51954852D01*
X129867641Y-51841955D01*
X129855686Y-51830000D01*
X131218872Y-51830000D01*
X131218872Y-51829999D01*
X131166269Y-51633682D01*
X131166265Y-51633673D01*
X131070134Y-51427517D01*
X130939657Y-51241179D01*
X130778820Y-51080342D01*
X130592482Y-50949865D01*
X130534133Y-50922657D01*
X130481694Y-50876484D01*
X130462542Y-50809291D01*
X130482758Y-50742410D01*
X130534129Y-50697895D01*
X130592734Y-50670568D01*
X130779139Y-50540047D01*
X130940047Y-50379139D01*
X131070568Y-50192734D01*
X131166739Y-49986496D01*
X131210968Y-49821428D01*
X131247331Y-49761770D01*
X131310178Y-49731240D01*
X131379554Y-49739534D01*
X131418423Y-49765842D01*
X132837624Y-51185043D01*
X132847471Y-51197333D01*
X132847689Y-51197154D01*
X132852657Y-51203159D01*
X132901846Y-51249351D01*
X132904643Y-51252062D01*
X132924207Y-51271626D01*
X132927389Y-51274094D01*
X132936276Y-51281683D01*
X132968233Y-51311693D01*
X132985884Y-51321396D01*
X133002134Y-51332071D01*
X133018038Y-51344408D01*
X133018041Y-51344410D01*
X133058259Y-51361813D01*
X133068743Y-51366948D01*
X133107166Y-51388072D01*
X133126240Y-51392969D01*
X133126660Y-51393077D01*
X133145064Y-51399377D01*
X133163542Y-51407374D01*
X133206851Y-51414233D01*
X133218258Y-51416595D01*
X133260728Y-51427500D01*
X133280858Y-51427500D01*
X133300257Y-51429027D01*
X133320133Y-51432175D01*
X133359928Y-51428413D01*
X133363770Y-51428050D01*
X133375439Y-51427500D01*
X134540728Y-51427500D01*
X135435233Y-51427500D01*
X135502272Y-51447185D01*
X135548027Y-51499989D01*
X135557971Y-51569147D01*
X135547615Y-51603904D01*
X135533735Y-51633668D01*
X135533730Y-51633682D01*
X135481127Y-51829999D01*
X135481128Y-51830000D01*
X136844314Y-51830000D01*
X136832359Y-51841955D01*
X136774835Y-51954852D01*
X136755014Y-52080000D01*
X136774835Y-52205148D01*
X136832359Y-52318045D01*
X136844314Y-52330000D01*
X135481128Y-52330000D01*
X135533730Y-52526317D01*
X135533734Y-52526326D01*
X135629865Y-52732482D01*
X135760342Y-52918820D01*
X135921179Y-53079657D01*
X136107517Y-53210134D01*
X136313673Y-53306265D01*
X136313682Y-53306269D01*
X136533389Y-53365139D01*
X136533400Y-53365141D01*
X136703233Y-53379999D01*
X136703236Y-53380000D01*
X136910000Y-53380000D01*
X136910000Y-52395686D01*
X136921955Y-52407641D01*
X137034852Y-52465165D01*
X137128519Y-52480000D01*
X137191481Y-52480000D01*
X137285148Y-52465165D01*
X137398045Y-52407641D01*
X137410000Y-52395686D01*
X137410000Y-53380000D01*
X137616764Y-53380000D01*
X137616766Y-53379999D01*
X137786599Y-53365141D01*
X137786610Y-53365139D01*
X138006317Y-53306269D01*
X138006326Y-53306265D01*
X138212482Y-53210134D01*
X138398820Y-53079657D01*
X138559657Y-52918820D01*
X138690134Y-52732482D01*
X138786265Y-52526326D01*
X138786269Y-52526317D01*
X138838872Y-52330000D01*
X137475686Y-52330000D01*
X137487641Y-52318045D01*
X137545165Y-52205148D01*
X137564986Y-52080000D01*
X137545165Y-51954852D01*
X137487641Y-51841955D01*
X137475686Y-51830000D01*
X138838872Y-51830000D01*
X138838872Y-51829999D01*
X138786269Y-51633682D01*
X138786264Y-51633668D01*
X138772385Y-51603904D01*
X138761893Y-51534827D01*
X138790413Y-51471043D01*
X138848890Y-51432804D01*
X138884767Y-51427500D01*
X142608646Y-51427500D01*
X142675685Y-51447185D01*
X142721440Y-51499989D01*
X142726350Y-51512492D01*
X142745186Y-51569334D01*
X142837096Y-51718345D01*
X142837289Y-51718657D01*
X142961344Y-51842712D01*
X143093596Y-51924285D01*
X143140321Y-51976233D01*
X143152500Y-52029824D01*
X143152500Y-54028718D01*
X143132815Y-54095757D01*
X143116181Y-54116399D01*
X140349398Y-56883181D01*
X140288075Y-56916666D01*
X140261717Y-56919500D01*
X138699629Y-56919500D01*
X138699623Y-56919501D01*
X138640016Y-56925908D01*
X138505171Y-56976202D01*
X138505164Y-56976206D01*
X138389955Y-57062452D01*
X138389952Y-57062455D01*
X138303706Y-57177664D01*
X138303702Y-57177671D01*
X138253408Y-57312517D01*
X138247001Y-57372116D01*
X138247000Y-57372135D01*
X138247000Y-59467870D01*
X138247001Y-59467876D01*
X138253408Y-59527483D01*
X138303702Y-59662328D01*
X138303706Y-59662335D01*
X138389952Y-59777544D01*
X138389955Y-59777547D01*
X138505164Y-59863793D01*
X138505171Y-59863797D01*
X138640017Y-59914091D01*
X138640016Y-59914091D01*
X138646944Y-59914835D01*
X138699627Y-59920500D01*
X140700372Y-59920499D01*
X140759983Y-59914091D01*
X140894831Y-59863796D01*
X141010046Y-59777546D01*
X141096296Y-59662331D01*
X141107725Y-59631687D01*
X141149594Y-59575755D01*
X141215058Y-59551336D01*
X141283331Y-59566186D01*
X141300069Y-59577167D01*
X141442552Y-59688066D01*
X141442563Y-59688073D01*
X141547517Y-59744871D01*
X141597108Y-59794090D01*
X141612500Y-59853926D01*
X141612500Y-60648718D01*
X141592815Y-60715757D01*
X141576181Y-60736399D01*
X140049398Y-62263181D01*
X139988075Y-62296666D01*
X139961717Y-62299500D01*
X139299998Y-62299500D01*
X139299980Y-62299501D01*
X139197203Y-62310000D01*
X139197200Y-62310001D01*
X139030668Y-62365185D01*
X139030663Y-62365187D01*
X138881342Y-62457289D01*
X138787681Y-62550951D01*
X138726358Y-62584436D01*
X138656666Y-62579452D01*
X138612319Y-62550951D01*
X138518657Y-62457289D01*
X138518656Y-62457288D01*
X138369334Y-62365186D01*
X138202797Y-62310001D01*
X138202795Y-62310000D01*
X138100010Y-62299500D01*
X137299998Y-62299500D01*
X137299980Y-62299501D01*
X137197203Y-62310000D01*
X137197200Y-62310001D01*
X137030668Y-62365185D01*
X137030663Y-62365187D01*
X136881342Y-62457289D01*
X136757289Y-62581342D01*
X136665187Y-62730663D01*
X136665186Y-62730666D01*
X136610001Y-62897203D01*
X136610001Y-62897204D01*
X136610000Y-62897204D01*
X136599500Y-62999983D01*
X136599500Y-64000001D01*
X136599501Y-64000019D01*
X136610000Y-64102796D01*
X136610001Y-64102799D01*
X136665185Y-64269331D01*
X136665186Y-64269334D01*
X136757288Y-64418656D01*
X136881344Y-64542712D01*
X137030666Y-64634814D01*
X137197203Y-64689999D01*
X137299991Y-64700500D01*
X138012719Y-64700499D01*
X138079758Y-64720183D01*
X138125513Y-64772987D01*
X138135457Y-64842146D01*
X138106432Y-64905702D01*
X138100400Y-64912180D01*
X136366400Y-66646181D01*
X136305077Y-66679666D01*
X136278719Y-66682500D01*
X133456874Y-66682500D01*
X133389835Y-66662815D01*
X133344080Y-66610011D01*
X133334136Y-66540853D01*
X133350142Y-66495379D01*
X133376744Y-66450398D01*
X133422598Y-66292569D01*
X133425500Y-66255694D01*
X133425500Y-65824306D01*
X133422598Y-65787431D01*
X133420418Y-65779929D01*
X133376745Y-65629606D01*
X133376744Y-65629603D01*
X133376744Y-65629602D01*
X133293081Y-65488135D01*
X133293078Y-65488132D01*
X133288298Y-65481969D01*
X133290635Y-65480155D01*
X133263798Y-65431050D01*
X133268756Y-65361356D01*
X133289554Y-65328998D01*
X133287903Y-65327717D01*
X133292686Y-65321550D01*
X133376281Y-65180198D01*
X133422100Y-65022486D01*
X133422295Y-65020001D01*
X133422295Y-65020000D01*
X130477705Y-65020000D01*
X130477704Y-65020001D01*
X130477899Y-65022486D01*
X130523718Y-65180198D01*
X130607314Y-65321552D01*
X130612100Y-65327722D01*
X130609640Y-65329629D01*
X130636210Y-65378288D01*
X130631226Y-65447980D01*
X130610162Y-65480781D01*
X130611699Y-65481974D01*
X130606915Y-65488140D01*
X130523255Y-65629603D01*
X130523254Y-65629606D01*
X130477402Y-65787426D01*
X130477401Y-65787432D01*
X130474500Y-65824298D01*
X130474500Y-66255701D01*
X130477401Y-66292567D01*
X130477402Y-66292573D01*
X130523254Y-66450393D01*
X130523255Y-66450396D01*
X130606917Y-66591862D01*
X130611702Y-66598031D01*
X130609256Y-66599927D01*
X130635857Y-66648642D01*
X130630873Y-66718334D01*
X130610070Y-66750702D01*
X130611702Y-66751968D01*
X130606920Y-66758132D01*
X130574714Y-66812589D01*
X130547096Y-66842942D01*
X130547716Y-66843602D01*
X130542031Y-66848939D01*
X130514091Y-66882712D01*
X130506230Y-66891350D01*
X130262953Y-67134627D01*
X130250669Y-67144470D01*
X130250849Y-67144688D01*
X130244837Y-67149661D01*
X130198646Y-67198848D01*
X130195941Y-67201639D01*
X130176379Y-67221201D01*
X130176375Y-67221206D01*
X130173895Y-67224404D01*
X130166317Y-67233275D01*
X130136308Y-67265231D01*
X130136305Y-67265235D01*
X130126606Y-67282878D01*
X130115928Y-67299134D01*
X130103594Y-67315035D01*
X130103589Y-67315043D01*
X130086185Y-67355263D01*
X130081046Y-67365753D01*
X130059927Y-67404168D01*
X130054920Y-67423669D01*
X130048621Y-67442065D01*
X130047271Y-67445187D01*
X130040625Y-67460545D01*
X130040624Y-67460547D01*
X130033769Y-67503832D01*
X130031401Y-67515268D01*
X130020500Y-67557724D01*
X130020500Y-67577859D01*
X130018973Y-67597256D01*
X130015825Y-67617134D01*
X130019950Y-67660768D01*
X130020500Y-67672438D01*
X130020500Y-70029983D01*
X130000815Y-70097022D01*
X129948011Y-70142777D01*
X129878853Y-70152721D01*
X129815297Y-70123696D01*
X129808819Y-70117664D01*
X128529111Y-68837956D01*
X128519267Y-68825669D01*
X128519049Y-68825850D01*
X128509103Y-68813827D01*
X128510234Y-68812890D01*
X128479219Y-68760095D01*
X128475500Y-68729953D01*
X128475500Y-68364313D01*
X128475499Y-68364298D01*
X128472598Y-68327432D01*
X128472597Y-68327426D01*
X128426745Y-68169606D01*
X128426744Y-68169603D01*
X128426744Y-68169602D01*
X128343081Y-68028135D01*
X128343078Y-68028132D01*
X128338298Y-68021969D01*
X128340750Y-68020066D01*
X128314155Y-67971421D01*
X128319104Y-67901726D01*
X128339940Y-67869304D01*
X128338298Y-67868031D01*
X128343075Y-67861870D01*
X128343081Y-67861865D01*
X128426744Y-67720398D01*
X128465321Y-67587616D01*
X128472597Y-67562573D01*
X128472598Y-67562567D01*
X128474587Y-67537289D01*
X128475500Y-67525694D01*
X128475500Y-67094306D01*
X128472598Y-67057431D01*
X128470493Y-67050187D01*
X128426745Y-66899606D01*
X128426744Y-66899603D01*
X128426744Y-66899602D01*
X128343081Y-66758135D01*
X128343078Y-66758132D01*
X128338298Y-66751969D01*
X128340750Y-66750066D01*
X128314155Y-66701421D01*
X128319104Y-66631726D01*
X128339940Y-66599304D01*
X128338298Y-66598031D01*
X128343075Y-66591870D01*
X128343081Y-66591865D01*
X128426744Y-66450398D01*
X128472598Y-66292569D01*
X128475500Y-66255694D01*
X128475500Y-65824306D01*
X128472598Y-65787431D01*
X128470418Y-65779929D01*
X128426745Y-65629606D01*
X128426744Y-65629603D01*
X128426744Y-65629602D01*
X128343081Y-65488135D01*
X128343078Y-65488132D01*
X128338298Y-65481969D01*
X128340750Y-65480066D01*
X128314155Y-65431421D01*
X128319104Y-65361726D01*
X128339940Y-65329304D01*
X128338298Y-65328031D01*
X128343075Y-65321870D01*
X128343081Y-65321865D01*
X128426744Y-65180398D01*
X128472598Y-65022569D01*
X128475500Y-64985694D01*
X128475500Y-64554306D01*
X128472800Y-64519998D01*
X130477704Y-64519998D01*
X130477705Y-64520000D01*
X131700000Y-64520000D01*
X131700000Y-63970000D01*
X132200000Y-63970000D01*
X132200000Y-64520000D01*
X133422295Y-64520000D01*
X133422295Y-64519998D01*
X133422100Y-64517513D01*
X133376281Y-64359801D01*
X133292685Y-64218447D01*
X133292678Y-64218438D01*
X133176561Y-64102321D01*
X133176552Y-64102314D01*
X133035196Y-64018717D01*
X133035193Y-64018716D01*
X132877495Y-63972900D01*
X132877489Y-63972899D01*
X132840649Y-63970000D01*
X132200000Y-63970000D01*
X131700000Y-63970000D01*
X131059350Y-63970000D01*
X131022510Y-63972899D01*
X131022504Y-63972900D01*
X130864806Y-64018716D01*
X130864803Y-64018717D01*
X130723447Y-64102314D01*
X130723438Y-64102321D01*
X130607321Y-64218438D01*
X130607314Y-64218447D01*
X130523718Y-64359801D01*
X130477899Y-64517513D01*
X130477704Y-64519998D01*
X128472800Y-64519998D01*
X128472598Y-64517431D01*
X128426744Y-64359602D01*
X128343081Y-64218135D01*
X128343079Y-64218133D01*
X128343076Y-64218129D01*
X128226870Y-64101923D01*
X128226862Y-64101917D01*
X128148681Y-64055681D01*
X128085398Y-64018256D01*
X128085397Y-64018255D01*
X128085396Y-64018255D01*
X128085393Y-64018254D01*
X127927573Y-63972402D01*
X127927567Y-63972401D01*
X127890701Y-63969500D01*
X127890694Y-63969500D01*
X127442367Y-63969500D01*
X127391931Y-63958779D01*
X127279807Y-63908857D01*
X127279802Y-63908855D01*
X127134001Y-63877865D01*
X127094646Y-63869500D01*
X126905354Y-63869500D01*
X126872897Y-63876398D01*
X126720197Y-63908855D01*
X126720192Y-63908857D01*
X126608069Y-63958779D01*
X126557633Y-63969500D01*
X126109298Y-63969500D01*
X126072432Y-63972401D01*
X126072426Y-63972402D01*
X125914606Y-64018254D01*
X125914603Y-64018255D01*
X125773137Y-64101917D01*
X125773129Y-64101923D01*
X125656923Y-64218129D01*
X125656917Y-64218137D01*
X125573255Y-64359603D01*
X125573254Y-64359606D01*
X125527402Y-64517426D01*
X125527401Y-64517432D01*
X125524500Y-64554298D01*
X125524500Y-64985701D01*
X125527401Y-65022567D01*
X125527402Y-65022573D01*
X125573254Y-65180393D01*
X125573255Y-65180396D01*
X125656917Y-65321862D01*
X125661702Y-65328031D01*
X125659256Y-65329927D01*
X125685857Y-65378642D01*
X125680873Y-65448334D01*
X125660069Y-65480703D01*
X125661702Y-65481969D01*
X125656917Y-65488137D01*
X125573255Y-65629603D01*
X125573254Y-65629606D01*
X125527402Y-65787426D01*
X125527401Y-65787432D01*
X125524500Y-65824298D01*
X125524500Y-66255701D01*
X125527401Y-66292567D01*
X125527402Y-66292573D01*
X125573254Y-66450393D01*
X125573255Y-66450396D01*
X125656917Y-66591862D01*
X125661702Y-66598031D01*
X125659256Y-66599927D01*
X125685857Y-66648642D01*
X125680873Y-66718334D01*
X125660069Y-66750703D01*
X125661702Y-66751969D01*
X125656917Y-66758137D01*
X125573255Y-66899603D01*
X125573254Y-66899606D01*
X125527402Y-67057426D01*
X125527401Y-67057432D01*
X125524500Y-67094298D01*
X125524500Y-67525701D01*
X125527401Y-67562567D01*
X125527402Y-67562573D01*
X125573254Y-67720393D01*
X125573255Y-67720396D01*
X125599858Y-67765379D01*
X125617041Y-67833103D01*
X125594881Y-67899365D01*
X125540415Y-67943129D01*
X125493126Y-67952500D01*
X125237581Y-67952500D01*
X125170542Y-67932815D01*
X125145431Y-67911472D01*
X125134530Y-67899365D01*
X125065871Y-67823112D01*
X125065870Y-67823111D01*
X125065864Y-67823106D01*
X124912734Y-67711851D01*
X124912729Y-67711848D01*
X124739807Y-67634857D01*
X124739802Y-67634855D01*
X124594001Y-67603865D01*
X124554646Y-67595500D01*
X124365354Y-67595500D01*
X124332897Y-67602398D01*
X124180197Y-67634855D01*
X124180192Y-67634857D01*
X124007270Y-67711848D01*
X124007265Y-67711851D01*
X123854129Y-67823111D01*
X123727466Y-67963785D01*
X123632821Y-68127715D01*
X123632818Y-68127722D01*
X123583362Y-68279933D01*
X123574326Y-68307744D01*
X123555753Y-68484462D01*
X123529168Y-68549076D01*
X123471871Y-68589061D01*
X123432432Y-68595500D01*
X119473680Y-68595500D01*
X119406641Y-68575815D01*
X119360886Y-68523011D01*
X119350942Y-68453853D01*
X119379967Y-68390297D01*
X119385999Y-68383819D01*
X120493000Y-67276818D01*
X120554323Y-67243333D01*
X120580681Y-67240499D01*
X121320002Y-67240499D01*
X121320008Y-67240499D01*
X121422797Y-67229999D01*
X121589334Y-67174814D01*
X121738656Y-67082712D01*
X121832675Y-66988692D01*
X121893994Y-66955210D01*
X121963686Y-66960194D01*
X122008034Y-66988695D01*
X122101654Y-67082315D01*
X122250875Y-67174356D01*
X122250880Y-67174358D01*
X122417302Y-67229505D01*
X122417309Y-67229506D01*
X122520019Y-67239999D01*
X122669999Y-67239999D01*
X122670000Y-67239998D01*
X122670000Y-66290000D01*
X123170000Y-66290000D01*
X123170000Y-67239999D01*
X123319972Y-67239999D01*
X123319986Y-67239998D01*
X123422697Y-67229505D01*
X123589119Y-67174358D01*
X123589124Y-67174356D01*
X123738345Y-67082315D01*
X123862315Y-66958345D01*
X123954356Y-66809124D01*
X123954358Y-66809119D01*
X124009505Y-66642697D01*
X124009506Y-66642690D01*
X124019999Y-66539986D01*
X124020000Y-66539973D01*
X124020000Y-66290000D01*
X123170000Y-66290000D01*
X122670000Y-66290000D01*
X122670000Y-64840000D01*
X123170000Y-64840000D01*
X123170000Y-65790000D01*
X124019999Y-65790000D01*
X124019999Y-65540028D01*
X124019998Y-65540013D01*
X124009505Y-65437302D01*
X123954358Y-65270880D01*
X123954356Y-65270875D01*
X123862315Y-65121654D01*
X123738345Y-64997684D01*
X123589124Y-64905643D01*
X123589119Y-64905641D01*
X123422697Y-64850494D01*
X123422690Y-64850493D01*
X123319986Y-64840000D01*
X123170000Y-64840000D01*
X122670000Y-64840000D01*
X122520027Y-64840000D01*
X122520012Y-64840001D01*
X122417302Y-64850494D01*
X122250880Y-64905641D01*
X122250875Y-64905643D01*
X122101657Y-64997682D01*
X122008034Y-65091305D01*
X121946710Y-65124789D01*
X121877019Y-65119805D01*
X121832672Y-65091304D01*
X121738657Y-64997289D01*
X121738656Y-64997288D01*
X121589334Y-64905186D01*
X121422797Y-64850001D01*
X121422795Y-64850000D01*
X121320010Y-64839500D01*
X120519998Y-64839500D01*
X120519980Y-64839501D01*
X120417203Y-64850000D01*
X120417200Y-64850001D01*
X120250668Y-64905185D01*
X120250663Y-64905187D01*
X120101342Y-64997289D01*
X119977289Y-65121342D01*
X119885187Y-65270663D01*
X119885185Y-65270668D01*
X119865549Y-65329927D01*
X119830001Y-65437203D01*
X119830001Y-65437204D01*
X119830000Y-65437204D01*
X119819500Y-65539983D01*
X119819500Y-66124118D01*
X119799815Y-66191157D01*
X119783181Y-66211799D01*
X118617600Y-67377381D01*
X118556277Y-67410866D01*
X118529919Y-67413700D01*
X117355603Y-67413700D01*
X117288564Y-67394015D01*
X117242809Y-67341211D01*
X117232865Y-67272053D01*
X117236924Y-67256150D01*
X117236814Y-67256124D01*
X117238598Y-67248572D01*
X117244999Y-67189044D01*
X117245000Y-67189027D01*
X117245000Y-66891200D01*
X113795000Y-66891200D01*
X113795000Y-67189044D01*
X113801401Y-67248572D01*
X113801403Y-67248583D01*
X113819519Y-67297153D01*
X113824503Y-67366844D01*
X113819520Y-67383816D01*
X113800908Y-67433717D01*
X113794501Y-67493316D01*
X113794501Y-67493323D01*
X113794500Y-67493335D01*
X113794501Y-68589061D01*
X113794501Y-68589076D01*
X113800909Y-68648684D01*
X113819519Y-68698582D01*
X113824503Y-68768274D01*
X113819520Y-68785246D01*
X113801402Y-68833823D01*
X113801401Y-68833827D01*
X113795000Y-68893355D01*
X113795000Y-69191200D01*
X117245000Y-69191200D01*
X117245000Y-68893372D01*
X117244999Y-68893355D01*
X117238598Y-68833827D01*
X117236814Y-68826276D01*
X117238693Y-68825831D01*
X117234435Y-68766352D01*
X117267915Y-68705026D01*
X117329235Y-68671536D01*
X117355603Y-68668700D01*
X118104518Y-68668700D01*
X118171557Y-68688385D01*
X118217312Y-68741189D01*
X118227256Y-68810347D01*
X118198231Y-68873903D01*
X118192199Y-68880381D01*
X117400871Y-69671709D01*
X117339548Y-69705194D01*
X117269856Y-69700210D01*
X117255837Y-69691200D01*
X113795000Y-69691200D01*
X113795000Y-69989044D01*
X113801401Y-70048572D01*
X113801403Y-70048583D01*
X113819519Y-70097153D01*
X113824503Y-70166844D01*
X113819520Y-70183816D01*
X113800908Y-70233717D01*
X113794501Y-70293316D01*
X113794501Y-70293323D01*
X113794500Y-70293335D01*
X113794500Y-71389070D01*
X113794501Y-71389076D01*
X113800908Y-71448682D01*
X113808833Y-71469929D01*
X113819252Y-71497865D01*
X113819253Y-71497866D01*
X113824237Y-71567558D01*
X113819253Y-71584531D01*
X113800909Y-71633714D01*
X113800908Y-71633716D01*
X113794501Y-71693316D01*
X113794501Y-71693323D01*
X113794500Y-71693335D01*
X113794500Y-72789070D01*
X113794501Y-72789076D01*
X113800908Y-72848683D01*
X113819029Y-72897267D01*
X113824013Y-72966958D01*
X113819030Y-72983931D01*
X113800908Y-73032519D01*
X113794501Y-73092116D01*
X113794500Y-73092135D01*
X113794500Y-74187870D01*
X113794501Y-74187876D01*
X113800908Y-74247482D01*
X113819253Y-74296666D01*
X113824237Y-74366358D01*
X113819253Y-74383331D01*
X113800909Y-74432514D01*
X113800908Y-74432516D01*
X113795999Y-74478184D01*
X113794500Y-74492127D01*
X113794500Y-75033777D01*
X113794501Y-75487200D01*
X113774817Y-75554239D01*
X113722013Y-75599994D01*
X113670501Y-75611200D01*
X113572155Y-75611200D01*
X113512627Y-75617601D01*
X113512623Y-75617602D01*
X113464046Y-75635720D01*
X113394354Y-75640703D01*
X113377382Y-75635719D01*
X113327485Y-75617109D01*
X113327483Y-75617108D01*
X113267883Y-75610701D01*
X113267881Y-75610700D01*
X113267873Y-75610700D01*
X113267864Y-75610700D01*
X112172129Y-75610700D01*
X112172123Y-75610701D01*
X112112516Y-75617108D01*
X112063332Y-75635453D01*
X111993640Y-75640437D01*
X111976667Y-75635453D01*
X111927482Y-75617108D01*
X111927483Y-75617108D01*
X111867883Y-75610701D01*
X111867881Y-75610700D01*
X111867873Y-75610700D01*
X111867864Y-75610700D01*
X110772129Y-75610700D01*
X110772123Y-75610701D01*
X110712516Y-75617108D01*
X110663332Y-75635453D01*
X110593640Y-75640437D01*
X110576667Y-75635453D01*
X110527482Y-75617108D01*
X110527483Y-75617108D01*
X110467883Y-75610701D01*
X110467881Y-75610700D01*
X110467873Y-75610700D01*
X110467864Y-75610700D01*
X109372129Y-75610700D01*
X109372123Y-75610701D01*
X109312516Y-75617108D01*
X109263332Y-75635453D01*
X109193640Y-75640437D01*
X109176667Y-75635453D01*
X109127482Y-75617108D01*
X109127483Y-75617108D01*
X109067883Y-75610701D01*
X109067881Y-75610700D01*
X109067873Y-75610700D01*
X109067864Y-75610700D01*
X107972129Y-75610700D01*
X107972123Y-75610701D01*
X107912516Y-75617108D01*
X107863332Y-75635453D01*
X107793640Y-75640437D01*
X107776667Y-75635453D01*
X107727482Y-75617108D01*
X107727483Y-75617108D01*
X107667883Y-75610701D01*
X107667881Y-75610700D01*
X107667873Y-75610700D01*
X107667864Y-75610700D01*
X106572129Y-75610700D01*
X106572123Y-75610701D01*
X106512516Y-75617108D01*
X106463332Y-75635453D01*
X106393640Y-75640437D01*
X106376667Y-75635453D01*
X106327482Y-75617108D01*
X106327483Y-75617108D01*
X106267883Y-75610701D01*
X106267881Y-75610700D01*
X106267873Y-75610700D01*
X106267864Y-75610700D01*
X105172129Y-75610700D01*
X105172123Y-75610701D01*
X105112516Y-75617108D01*
X105063332Y-75635453D01*
X104993640Y-75640437D01*
X104976667Y-75635453D01*
X104927482Y-75617108D01*
X104927483Y-75617108D01*
X104867883Y-75610701D01*
X104867881Y-75610700D01*
X104867873Y-75610700D01*
X104867865Y-75610700D01*
X104769000Y-75610700D01*
X104701961Y-75591015D01*
X104656206Y-75538211D01*
X104645000Y-75486700D01*
X104645000Y-75291200D01*
X103170000Y-75291200D01*
X103170000Y-76041200D01*
X103195500Y-76041200D01*
X103262539Y-76060885D01*
X103308294Y-76113689D01*
X103319500Y-76165200D01*
X103319500Y-77602314D01*
X103299815Y-77669353D01*
X103247011Y-77715108D01*
X103177853Y-77725052D01*
X103114297Y-77696027D01*
X103107819Y-77689995D01*
X102031819Y-76613995D01*
X101998334Y-76552672D01*
X101995500Y-76526314D01*
X101995500Y-76165200D01*
X102015185Y-76098161D01*
X102067989Y-76052406D01*
X102119500Y-76041200D01*
X102670000Y-76041200D01*
X102670000Y-74915200D01*
X102689685Y-74848161D01*
X102742489Y-74802406D01*
X102794000Y-74791200D01*
X104645000Y-74791200D01*
X104645000Y-74493372D01*
X104644999Y-74493355D01*
X104638598Y-74433827D01*
X104620479Y-74385248D01*
X104615495Y-74315556D01*
X104620476Y-74298591D01*
X104639091Y-74248683D01*
X104645500Y-74189073D01*
X104645499Y-73093328D01*
X104639091Y-73033717D01*
X104638644Y-73032519D01*
X104620747Y-72984534D01*
X104615762Y-72914843D01*
X104620747Y-72897865D01*
X104625011Y-72886432D01*
X104639091Y-72848683D01*
X104645500Y-72789073D01*
X104645499Y-71693328D01*
X104639091Y-71633717D01*
X104639090Y-71633714D01*
X104620747Y-71584534D01*
X104615762Y-71514843D01*
X104620747Y-71497865D01*
X104634809Y-71460164D01*
X104639091Y-71448683D01*
X104645500Y-71389073D01*
X104645499Y-70293328D01*
X104639091Y-70233717D01*
X104620747Y-70184534D01*
X104615762Y-70114843D01*
X104620747Y-70097865D01*
X104621013Y-70097153D01*
X104639091Y-70048683D01*
X104645500Y-69989073D01*
X104645499Y-68893328D01*
X104639091Y-68833717D01*
X104636089Y-68825669D01*
X104620747Y-68784534D01*
X104615762Y-68714843D01*
X104620747Y-68697865D01*
X104630567Y-68671536D01*
X104639091Y-68648683D01*
X104645500Y-68589073D01*
X104645499Y-67493328D01*
X104639091Y-67433717D01*
X104632358Y-67415666D01*
X104620480Y-67383818D01*
X104615495Y-67314127D01*
X104620480Y-67297149D01*
X104638597Y-67248575D01*
X104638598Y-67248572D01*
X104644999Y-67189044D01*
X104645000Y-67189027D01*
X104645000Y-66891200D01*
X101195000Y-66891200D01*
X101195000Y-67189044D01*
X101201401Y-67248572D01*
X101201403Y-67248583D01*
X101219519Y-67297153D01*
X101224503Y-67366844D01*
X101219520Y-67383816D01*
X101200908Y-67433717D01*
X101194501Y-67493316D01*
X101194501Y-67493323D01*
X101194500Y-67493335D01*
X101194501Y-68589061D01*
X101194501Y-68589076D01*
X101200908Y-68648682D01*
X101208392Y-68668747D01*
X101219252Y-68697865D01*
X101219253Y-68697866D01*
X101224237Y-68767558D01*
X101219253Y-68784531D01*
X101200909Y-68833714D01*
X101200908Y-68833716D01*
X101195892Y-68880381D01*
X101194501Y-68893323D01*
X101194500Y-68893335D01*
X101194500Y-69989070D01*
X101194501Y-69989076D01*
X101200908Y-70048682D01*
X101211578Y-70077288D01*
X101219252Y-70097865D01*
X101219253Y-70097866D01*
X101224237Y-70167558D01*
X101219253Y-70184531D01*
X101200909Y-70233714D01*
X101200908Y-70233716D01*
X101194501Y-70293316D01*
X101194501Y-70293323D01*
X101194500Y-70293335D01*
X101194500Y-70815648D01*
X101194290Y-70822858D01*
X101190649Y-70885367D01*
X101192616Y-70896522D01*
X101194500Y-70918056D01*
X101194500Y-71066306D01*
X101193821Y-71079267D01*
X101189540Y-71120000D01*
X101190851Y-71132483D01*
X101191320Y-71152635D01*
X101190649Y-71164167D01*
X101190649Y-71164171D01*
X101192617Y-71175334D01*
X101194500Y-71196859D01*
X101194500Y-71389069D01*
X101194501Y-71389076D01*
X101200908Y-71448682D01*
X101208833Y-71469929D01*
X101219252Y-71497865D01*
X101219253Y-71497866D01*
X101224237Y-71567558D01*
X101219253Y-71584531D01*
X101200909Y-71633714D01*
X101200908Y-71633716D01*
X101194501Y-71693316D01*
X101194501Y-71693323D01*
X101194500Y-71693335D01*
X101194500Y-72789070D01*
X101194501Y-72789076D01*
X101200908Y-72848681D01*
X101214988Y-72886432D01*
X101219971Y-72956124D01*
X101186484Y-73017446D01*
X101163906Y-73035299D01*
X101147651Y-73045325D01*
X101141984Y-73049807D01*
X101141951Y-73049765D01*
X101136014Y-73054601D01*
X101136048Y-73054642D01*
X101130512Y-73059287D01*
X101078744Y-73114156D01*
X101076233Y-73116741D01*
X100752742Y-73440232D01*
X100739113Y-73452011D01*
X100719707Y-73466459D01*
X100687674Y-73504633D01*
X100680387Y-73512586D01*
X100676420Y-73516554D01*
X100676418Y-73516556D01*
X100657089Y-73541001D01*
X100654815Y-73543793D01*
X100606334Y-73601571D01*
X100602366Y-73607605D01*
X100602322Y-73607576D01*
X100598209Y-73614031D01*
X100598254Y-73614059D01*
X100594462Y-73620206D01*
X100562581Y-73688572D01*
X100561012Y-73691812D01*
X100527175Y-73759191D01*
X100524704Y-73765979D01*
X100524655Y-73765961D01*
X100522141Y-73773193D01*
X100522191Y-73773210D01*
X100519920Y-73780062D01*
X100504671Y-73853911D01*
X100503891Y-73857430D01*
X100486499Y-73930816D01*
X100485661Y-73937987D01*
X100485607Y-73937980D01*
X100484830Y-73945596D01*
X100484883Y-73945601D01*
X100484253Y-73952790D01*
X100486448Y-74028193D01*
X100486500Y-74031800D01*
X100486500Y-76826200D01*
X100485191Y-76844169D01*
X100481684Y-76868108D01*
X96520500Y-76868108D01*
X96520500Y-53340000D01*
X100330000Y-53340000D01*
X100330000Y-64720000D01*
X101070500Y-64720000D01*
X101137539Y-64739685D01*
X101183294Y-64792489D01*
X101194500Y-64844000D01*
X101194500Y-65789070D01*
X101194501Y-65789076D01*
X101200909Y-65848684D01*
X101219519Y-65898582D01*
X101224503Y-65968274D01*
X101219520Y-65985246D01*
X101201402Y-66033823D01*
X101201401Y-66033827D01*
X101195000Y-66093355D01*
X101195000Y-66391200D01*
X104645000Y-66391200D01*
X104645000Y-66093372D01*
X104644999Y-66093355D01*
X104638598Y-66033827D01*
X104620479Y-65985248D01*
X104615495Y-65915556D01*
X104620476Y-65898591D01*
X104639091Y-65848683D01*
X104645500Y-65789073D01*
X104645500Y-65491200D01*
X113795000Y-65491200D01*
X113795000Y-65789044D01*
X113801401Y-65848572D01*
X113801403Y-65848580D01*
X113819786Y-65897867D01*
X113824770Y-65967559D01*
X113819786Y-65984533D01*
X113801403Y-66033819D01*
X113801401Y-66033827D01*
X113795000Y-66093355D01*
X113795000Y-66391200D01*
X115270000Y-66391200D01*
X115270000Y-65491200D01*
X115770000Y-65491200D01*
X115770000Y-66391200D01*
X117245000Y-66391200D01*
X117245000Y-66093372D01*
X117244999Y-66093355D01*
X117238597Y-66033822D01*
X117238597Y-66033821D01*
X117220214Y-65984535D01*
X117215228Y-65914844D01*
X117220214Y-65897865D01*
X117238597Y-65848578D01*
X117238597Y-65848577D01*
X117244999Y-65789044D01*
X117245000Y-65789027D01*
X117245000Y-65491200D01*
X115770000Y-65491200D01*
X115270000Y-65491200D01*
X113795000Y-65491200D01*
X104645500Y-65491200D01*
X104645499Y-64843999D01*
X104665183Y-64776961D01*
X104717987Y-64731206D01*
X104769499Y-64720000D01*
X113671000Y-64720000D01*
X113738039Y-64739685D01*
X113783794Y-64792489D01*
X113795000Y-64844000D01*
X113795000Y-64991200D01*
X117245000Y-64991200D01*
X117245000Y-64844000D01*
X117264685Y-64776961D01*
X117317489Y-64731206D01*
X117369000Y-64720000D01*
X118110000Y-64720000D01*
X118110000Y-53340000D01*
X100330000Y-53340000D01*
X96520500Y-53340000D01*
X96520500Y-40764500D01*
X96540185Y-40697461D01*
X96592989Y-40651706D01*
X96644500Y-40640500D01*
X162435500Y-40640500D01*
X162502539Y-40660185D01*
G37*
G04 #@! TD.AperFunction*
G04 #@! TD*
M02*
