G04 #@! TF.GenerationSoftware,KiCad,Pcbnew,7.0.10*
G04 #@! TF.CreationDate,2024-03-26T17:49:21-05:00*
G04 #@! TF.ProjectId,key,6b65792e-6b69-4636-9164-5f7063625858,rev?*
G04 #@! TF.SameCoordinates,Original*
G04 #@! TF.FileFunction,Legend,Top*
G04 #@! TF.FilePolarity,Positive*
%FSLAX46Y46*%
G04 Gerber Fmt 4.6, Leading zero omitted, Abs format (unit mm)*
G04 Created by KiCad (PCBNEW 7.0.10) date 2024-03-26 17:49:21*
%MOMM*%
%LPD*%
G01*
G04 APERTURE LIST*
%ADD10C,0.150000*%
%ADD11C,0.120000*%
G04 APERTURE END LIST*
D10*
X106672381Y-44909819D02*
X106672381Y-43909819D01*
X106672381Y-43909819D02*
X107053333Y-43909819D01*
X107053333Y-43909819D02*
X107148571Y-43957438D01*
X107148571Y-43957438D02*
X107196190Y-44005057D01*
X107196190Y-44005057D02*
X107243809Y-44100295D01*
X107243809Y-44100295D02*
X107243809Y-44243152D01*
X107243809Y-44243152D02*
X107196190Y-44338390D01*
X107196190Y-44338390D02*
X107148571Y-44386009D01*
X107148571Y-44386009D02*
X107053333Y-44433628D01*
X107053333Y-44433628D02*
X106672381Y-44433628D01*
X108243809Y-44814580D02*
X108196190Y-44862200D01*
X108196190Y-44862200D02*
X108053333Y-44909819D01*
X108053333Y-44909819D02*
X107958095Y-44909819D01*
X107958095Y-44909819D02*
X107815238Y-44862200D01*
X107815238Y-44862200D02*
X107720000Y-44766961D01*
X107720000Y-44766961D02*
X107672381Y-44671723D01*
X107672381Y-44671723D02*
X107624762Y-44481247D01*
X107624762Y-44481247D02*
X107624762Y-44338390D01*
X107624762Y-44338390D02*
X107672381Y-44147914D01*
X107672381Y-44147914D02*
X107720000Y-44052676D01*
X107720000Y-44052676D02*
X107815238Y-43957438D01*
X107815238Y-43957438D02*
X107958095Y-43909819D01*
X107958095Y-43909819D02*
X108053333Y-43909819D01*
X108053333Y-43909819D02*
X108196190Y-43957438D01*
X108196190Y-43957438D02*
X108243809Y-44005057D01*
X109005714Y-44386009D02*
X109148571Y-44433628D01*
X109148571Y-44433628D02*
X109196190Y-44481247D01*
X109196190Y-44481247D02*
X109243809Y-44576485D01*
X109243809Y-44576485D02*
X109243809Y-44719342D01*
X109243809Y-44719342D02*
X109196190Y-44814580D01*
X109196190Y-44814580D02*
X109148571Y-44862200D01*
X109148571Y-44862200D02*
X109053333Y-44909819D01*
X109053333Y-44909819D02*
X108672381Y-44909819D01*
X108672381Y-44909819D02*
X108672381Y-43909819D01*
X108672381Y-43909819D02*
X109005714Y-43909819D01*
X109005714Y-43909819D02*
X109100952Y-43957438D01*
X109100952Y-43957438D02*
X109148571Y-44005057D01*
X109148571Y-44005057D02*
X109196190Y-44100295D01*
X109196190Y-44100295D02*
X109196190Y-44195533D01*
X109196190Y-44195533D02*
X109148571Y-44290771D01*
X109148571Y-44290771D02*
X109100952Y-44338390D01*
X109100952Y-44338390D02*
X109005714Y-44386009D01*
X109005714Y-44386009D02*
X108672381Y-44386009D01*
X110291429Y-43909819D02*
X110624762Y-44909819D01*
X110624762Y-44909819D02*
X110958095Y-43909819D01*
X111243810Y-44005057D02*
X111291429Y-43957438D01*
X111291429Y-43957438D02*
X111386667Y-43909819D01*
X111386667Y-43909819D02*
X111624762Y-43909819D01*
X111624762Y-43909819D02*
X111720000Y-43957438D01*
X111720000Y-43957438D02*
X111767619Y-44005057D01*
X111767619Y-44005057D02*
X111815238Y-44100295D01*
X111815238Y-44100295D02*
X111815238Y-44195533D01*
X111815238Y-44195533D02*
X111767619Y-44338390D01*
X111767619Y-44338390D02*
X111196191Y-44909819D01*
X111196191Y-44909819D02*
X111815238Y-44909819D01*
X104362857Y-45615057D02*
X104410476Y-45567438D01*
X104410476Y-45567438D02*
X104505714Y-45519819D01*
X104505714Y-45519819D02*
X104743809Y-45519819D01*
X104743809Y-45519819D02*
X104839047Y-45567438D01*
X104839047Y-45567438D02*
X104886666Y-45615057D01*
X104886666Y-45615057D02*
X104934285Y-45710295D01*
X104934285Y-45710295D02*
X104934285Y-45805533D01*
X104934285Y-45805533D02*
X104886666Y-45948390D01*
X104886666Y-45948390D02*
X104315238Y-46519819D01*
X104315238Y-46519819D02*
X104934285Y-46519819D01*
X105553333Y-45519819D02*
X105648571Y-45519819D01*
X105648571Y-45519819D02*
X105743809Y-45567438D01*
X105743809Y-45567438D02*
X105791428Y-45615057D01*
X105791428Y-45615057D02*
X105839047Y-45710295D01*
X105839047Y-45710295D02*
X105886666Y-45900771D01*
X105886666Y-45900771D02*
X105886666Y-46138866D01*
X105886666Y-46138866D02*
X105839047Y-46329342D01*
X105839047Y-46329342D02*
X105791428Y-46424580D01*
X105791428Y-46424580D02*
X105743809Y-46472200D01*
X105743809Y-46472200D02*
X105648571Y-46519819D01*
X105648571Y-46519819D02*
X105553333Y-46519819D01*
X105553333Y-46519819D02*
X105458095Y-46472200D01*
X105458095Y-46472200D02*
X105410476Y-46424580D01*
X105410476Y-46424580D02*
X105362857Y-46329342D01*
X105362857Y-46329342D02*
X105315238Y-46138866D01*
X105315238Y-46138866D02*
X105315238Y-45900771D01*
X105315238Y-45900771D02*
X105362857Y-45710295D01*
X105362857Y-45710295D02*
X105410476Y-45615057D01*
X105410476Y-45615057D02*
X105458095Y-45567438D01*
X105458095Y-45567438D02*
X105553333Y-45519819D01*
X106267619Y-45615057D02*
X106315238Y-45567438D01*
X106315238Y-45567438D02*
X106410476Y-45519819D01*
X106410476Y-45519819D02*
X106648571Y-45519819D01*
X106648571Y-45519819D02*
X106743809Y-45567438D01*
X106743809Y-45567438D02*
X106791428Y-45615057D01*
X106791428Y-45615057D02*
X106839047Y-45710295D01*
X106839047Y-45710295D02*
X106839047Y-45805533D01*
X106839047Y-45805533D02*
X106791428Y-45948390D01*
X106791428Y-45948390D02*
X106220000Y-46519819D01*
X106220000Y-46519819D02*
X106839047Y-46519819D01*
X107696190Y-45853152D02*
X107696190Y-46519819D01*
X107458095Y-45472200D02*
X107220000Y-46186485D01*
X107220000Y-46186485D02*
X107839047Y-46186485D01*
X108220000Y-46138866D02*
X108981905Y-46138866D01*
X109648571Y-45519819D02*
X109743809Y-45519819D01*
X109743809Y-45519819D02*
X109839047Y-45567438D01*
X109839047Y-45567438D02*
X109886666Y-45615057D01*
X109886666Y-45615057D02*
X109934285Y-45710295D01*
X109934285Y-45710295D02*
X109981904Y-45900771D01*
X109981904Y-45900771D02*
X109981904Y-46138866D01*
X109981904Y-46138866D02*
X109934285Y-46329342D01*
X109934285Y-46329342D02*
X109886666Y-46424580D01*
X109886666Y-46424580D02*
X109839047Y-46472200D01*
X109839047Y-46472200D02*
X109743809Y-46519819D01*
X109743809Y-46519819D02*
X109648571Y-46519819D01*
X109648571Y-46519819D02*
X109553333Y-46472200D01*
X109553333Y-46472200D02*
X109505714Y-46424580D01*
X109505714Y-46424580D02*
X109458095Y-46329342D01*
X109458095Y-46329342D02*
X109410476Y-46138866D01*
X109410476Y-46138866D02*
X109410476Y-45900771D01*
X109410476Y-45900771D02*
X109458095Y-45710295D01*
X109458095Y-45710295D02*
X109505714Y-45615057D01*
X109505714Y-45615057D02*
X109553333Y-45567438D01*
X109553333Y-45567438D02*
X109648571Y-45519819D01*
X110315238Y-45519819D02*
X110934285Y-45519819D01*
X110934285Y-45519819D02*
X110600952Y-45900771D01*
X110600952Y-45900771D02*
X110743809Y-45900771D01*
X110743809Y-45900771D02*
X110839047Y-45948390D01*
X110839047Y-45948390D02*
X110886666Y-45996009D01*
X110886666Y-45996009D02*
X110934285Y-46091247D01*
X110934285Y-46091247D02*
X110934285Y-46329342D01*
X110934285Y-46329342D02*
X110886666Y-46424580D01*
X110886666Y-46424580D02*
X110839047Y-46472200D01*
X110839047Y-46472200D02*
X110743809Y-46519819D01*
X110743809Y-46519819D02*
X110458095Y-46519819D01*
X110458095Y-46519819D02*
X110362857Y-46472200D01*
X110362857Y-46472200D02*
X110315238Y-46424580D01*
X111362857Y-46138866D02*
X112124762Y-46138866D01*
X113124761Y-46519819D02*
X112553333Y-46519819D01*
X112839047Y-46519819D02*
X112839047Y-45519819D01*
X112839047Y-45519819D02*
X112743809Y-45662676D01*
X112743809Y-45662676D02*
X112648571Y-45757914D01*
X112648571Y-45757914D02*
X112553333Y-45805533D01*
X113696190Y-45948390D02*
X113600952Y-45900771D01*
X113600952Y-45900771D02*
X113553333Y-45853152D01*
X113553333Y-45853152D02*
X113505714Y-45757914D01*
X113505714Y-45757914D02*
X113505714Y-45710295D01*
X113505714Y-45710295D02*
X113553333Y-45615057D01*
X113553333Y-45615057D02*
X113600952Y-45567438D01*
X113600952Y-45567438D02*
X113696190Y-45519819D01*
X113696190Y-45519819D02*
X113886666Y-45519819D01*
X113886666Y-45519819D02*
X113981904Y-45567438D01*
X113981904Y-45567438D02*
X114029523Y-45615057D01*
X114029523Y-45615057D02*
X114077142Y-45710295D01*
X114077142Y-45710295D02*
X114077142Y-45757914D01*
X114077142Y-45757914D02*
X114029523Y-45853152D01*
X114029523Y-45853152D02*
X113981904Y-45900771D01*
X113981904Y-45900771D02*
X113886666Y-45948390D01*
X113886666Y-45948390D02*
X113696190Y-45948390D01*
X113696190Y-45948390D02*
X113600952Y-45996009D01*
X113600952Y-45996009D02*
X113553333Y-46043628D01*
X113553333Y-46043628D02*
X113505714Y-46138866D01*
X113505714Y-46138866D02*
X113505714Y-46329342D01*
X113505714Y-46329342D02*
X113553333Y-46424580D01*
X113553333Y-46424580D02*
X113600952Y-46472200D01*
X113600952Y-46472200D02*
X113696190Y-46519819D01*
X113696190Y-46519819D02*
X113886666Y-46519819D01*
X113886666Y-46519819D02*
X113981904Y-46472200D01*
X113981904Y-46472200D02*
X114029523Y-46424580D01*
X114029523Y-46424580D02*
X114077142Y-46329342D01*
X114077142Y-46329342D02*
X114077142Y-46138866D01*
X114077142Y-46138866D02*
X114029523Y-46043628D01*
X114029523Y-46043628D02*
X113981904Y-45996009D01*
X113981904Y-45996009D02*
X113886666Y-45948390D01*
X106053333Y-47129819D02*
X106624761Y-47129819D01*
X106339047Y-48129819D02*
X106339047Y-47129819D01*
X107339047Y-48082200D02*
X107243809Y-48129819D01*
X107243809Y-48129819D02*
X107053333Y-48129819D01*
X107053333Y-48129819D02*
X106958095Y-48082200D01*
X106958095Y-48082200D02*
X106910476Y-47986961D01*
X106910476Y-47986961D02*
X106910476Y-47606009D01*
X106910476Y-47606009D02*
X106958095Y-47510771D01*
X106958095Y-47510771D02*
X107053333Y-47463152D01*
X107053333Y-47463152D02*
X107243809Y-47463152D01*
X107243809Y-47463152D02*
X107339047Y-47510771D01*
X107339047Y-47510771D02*
X107386666Y-47606009D01*
X107386666Y-47606009D02*
X107386666Y-47701247D01*
X107386666Y-47701247D02*
X106910476Y-47796485D01*
X108243809Y-48129819D02*
X108243809Y-47606009D01*
X108243809Y-47606009D02*
X108196190Y-47510771D01*
X108196190Y-47510771D02*
X108100952Y-47463152D01*
X108100952Y-47463152D02*
X107910476Y-47463152D01*
X107910476Y-47463152D02*
X107815238Y-47510771D01*
X108243809Y-48082200D02*
X108148571Y-48129819D01*
X108148571Y-48129819D02*
X107910476Y-48129819D01*
X107910476Y-48129819D02*
X107815238Y-48082200D01*
X107815238Y-48082200D02*
X107767619Y-47986961D01*
X107767619Y-47986961D02*
X107767619Y-47891723D01*
X107767619Y-47891723D02*
X107815238Y-47796485D01*
X107815238Y-47796485D02*
X107910476Y-47748866D01*
X107910476Y-47748866D02*
X108148571Y-47748866D01*
X108148571Y-47748866D02*
X108243809Y-47701247D01*
X108720000Y-48129819D02*
X108720000Y-47463152D01*
X108720000Y-47558390D02*
X108767619Y-47510771D01*
X108767619Y-47510771D02*
X108862857Y-47463152D01*
X108862857Y-47463152D02*
X109005714Y-47463152D01*
X109005714Y-47463152D02*
X109100952Y-47510771D01*
X109100952Y-47510771D02*
X109148571Y-47606009D01*
X109148571Y-47606009D02*
X109148571Y-48129819D01*
X109148571Y-47606009D02*
X109196190Y-47510771D01*
X109196190Y-47510771D02*
X109291428Y-47463152D01*
X109291428Y-47463152D02*
X109434285Y-47463152D01*
X109434285Y-47463152D02*
X109529524Y-47510771D01*
X109529524Y-47510771D02*
X109577143Y-47606009D01*
X109577143Y-47606009D02*
X109577143Y-48129819D01*
X111339047Y-48129819D02*
X110767619Y-48129819D01*
X111053333Y-48129819D02*
X111053333Y-47129819D01*
X111053333Y-47129819D02*
X110958095Y-47272676D01*
X110958095Y-47272676D02*
X110862857Y-47367914D01*
X110862857Y-47367914D02*
X110767619Y-47415533D01*
X111672381Y-47129819D02*
X112339047Y-47129819D01*
X112339047Y-47129819D02*
X111910476Y-48129819D01*
X125397143Y-36404820D02*
X125206667Y-36404820D01*
X125206667Y-36404820D02*
X125111429Y-36452439D01*
X125111429Y-36452439D02*
X125063810Y-36500058D01*
X125063810Y-36500058D02*
X124968572Y-36642915D01*
X124968572Y-36642915D02*
X124920953Y-36833391D01*
X124920953Y-36833391D02*
X124920953Y-37214343D01*
X124920953Y-37214343D02*
X124968572Y-37309581D01*
X124968572Y-37309581D02*
X125016191Y-37357201D01*
X125016191Y-37357201D02*
X125111429Y-37404820D01*
X125111429Y-37404820D02*
X125301905Y-37404820D01*
X125301905Y-37404820D02*
X125397143Y-37357201D01*
X125397143Y-37357201D02*
X125444762Y-37309581D01*
X125444762Y-37309581D02*
X125492381Y-37214343D01*
X125492381Y-37214343D02*
X125492381Y-36976248D01*
X125492381Y-36976248D02*
X125444762Y-36881010D01*
X125444762Y-36881010D02*
X125397143Y-36833391D01*
X125397143Y-36833391D02*
X125301905Y-36785772D01*
X125301905Y-36785772D02*
X125111429Y-36785772D01*
X125111429Y-36785772D02*
X125016191Y-36833391D01*
X125016191Y-36833391D02*
X124968572Y-36881010D01*
X124968572Y-36881010D02*
X124920953Y-36976248D01*
X126349524Y-36404820D02*
X126159048Y-36404820D01*
X126159048Y-36404820D02*
X126063810Y-36452439D01*
X126063810Y-36452439D02*
X126016191Y-36500058D01*
X126016191Y-36500058D02*
X125920953Y-36642915D01*
X125920953Y-36642915D02*
X125873334Y-36833391D01*
X125873334Y-36833391D02*
X125873334Y-37214343D01*
X125873334Y-37214343D02*
X125920953Y-37309581D01*
X125920953Y-37309581D02*
X125968572Y-37357201D01*
X125968572Y-37357201D02*
X126063810Y-37404820D01*
X126063810Y-37404820D02*
X126254286Y-37404820D01*
X126254286Y-37404820D02*
X126349524Y-37357201D01*
X126349524Y-37357201D02*
X126397143Y-37309581D01*
X126397143Y-37309581D02*
X126444762Y-37214343D01*
X126444762Y-37214343D02*
X126444762Y-36976248D01*
X126444762Y-36976248D02*
X126397143Y-36881010D01*
X126397143Y-36881010D02*
X126349524Y-36833391D01*
X126349524Y-36833391D02*
X126254286Y-36785772D01*
X126254286Y-36785772D02*
X126063810Y-36785772D01*
X126063810Y-36785772D02*
X125968572Y-36833391D01*
X125968572Y-36833391D02*
X125920953Y-36881010D01*
X125920953Y-36881010D02*
X125873334Y-36976248D01*
X126873334Y-37309581D02*
X126920953Y-37357201D01*
X126920953Y-37357201D02*
X126873334Y-37404820D01*
X126873334Y-37404820D02*
X126825715Y-37357201D01*
X126825715Y-37357201D02*
X126873334Y-37309581D01*
X126873334Y-37309581D02*
X126873334Y-37404820D01*
X127540000Y-36404820D02*
X127635238Y-36404820D01*
X127635238Y-36404820D02*
X127730476Y-36452439D01*
X127730476Y-36452439D02*
X127778095Y-36500058D01*
X127778095Y-36500058D02*
X127825714Y-36595296D01*
X127825714Y-36595296D02*
X127873333Y-36785772D01*
X127873333Y-36785772D02*
X127873333Y-37023867D01*
X127873333Y-37023867D02*
X127825714Y-37214343D01*
X127825714Y-37214343D02*
X127778095Y-37309581D01*
X127778095Y-37309581D02*
X127730476Y-37357201D01*
X127730476Y-37357201D02*
X127635238Y-37404820D01*
X127635238Y-37404820D02*
X127540000Y-37404820D01*
X127540000Y-37404820D02*
X127444762Y-37357201D01*
X127444762Y-37357201D02*
X127397143Y-37309581D01*
X127397143Y-37309581D02*
X127349524Y-37214343D01*
X127349524Y-37214343D02*
X127301905Y-37023867D01*
X127301905Y-37023867D02*
X127301905Y-36785772D01*
X127301905Y-36785772D02*
X127349524Y-36595296D01*
X127349524Y-36595296D02*
X127397143Y-36500058D01*
X127397143Y-36500058D02*
X127444762Y-36452439D01*
X127444762Y-36452439D02*
X127540000Y-36404820D01*
X128730476Y-36738153D02*
X128730476Y-37404820D01*
X128492381Y-36357201D02*
X128254286Y-37071486D01*
X128254286Y-37071486D02*
X128873333Y-37071486D01*
X129444762Y-36404820D02*
X129540000Y-36404820D01*
X129540000Y-36404820D02*
X129635238Y-36452439D01*
X129635238Y-36452439D02*
X129682857Y-36500058D01*
X129682857Y-36500058D02*
X129730476Y-36595296D01*
X129730476Y-36595296D02*
X129778095Y-36785772D01*
X129778095Y-36785772D02*
X129778095Y-37023867D01*
X129778095Y-37023867D02*
X129730476Y-37214343D01*
X129730476Y-37214343D02*
X129682857Y-37309581D01*
X129682857Y-37309581D02*
X129635238Y-37357201D01*
X129635238Y-37357201D02*
X129540000Y-37404820D01*
X129540000Y-37404820D02*
X129444762Y-37404820D01*
X129444762Y-37404820D02*
X129349524Y-37357201D01*
X129349524Y-37357201D02*
X129301905Y-37309581D01*
X129301905Y-37309581D02*
X129254286Y-37214343D01*
X129254286Y-37214343D02*
X129206667Y-37023867D01*
X129206667Y-37023867D02*
X129206667Y-36785772D01*
X129206667Y-36785772D02*
X129254286Y-36595296D01*
X129254286Y-36595296D02*
X129301905Y-36500058D01*
X129301905Y-36500058D02*
X129349524Y-36452439D01*
X129349524Y-36452439D02*
X129444762Y-36404820D01*
X130397143Y-36404820D02*
X130492381Y-36404820D01*
X130492381Y-36404820D02*
X130587619Y-36452439D01*
X130587619Y-36452439D02*
X130635238Y-36500058D01*
X130635238Y-36500058D02*
X130682857Y-36595296D01*
X130682857Y-36595296D02*
X130730476Y-36785772D01*
X130730476Y-36785772D02*
X130730476Y-37023867D01*
X130730476Y-37023867D02*
X130682857Y-37214343D01*
X130682857Y-37214343D02*
X130635238Y-37309581D01*
X130635238Y-37309581D02*
X130587619Y-37357201D01*
X130587619Y-37357201D02*
X130492381Y-37404820D01*
X130492381Y-37404820D02*
X130397143Y-37404820D01*
X130397143Y-37404820D02*
X130301905Y-37357201D01*
X130301905Y-37357201D02*
X130254286Y-37309581D01*
X130254286Y-37309581D02*
X130206667Y-37214343D01*
X130206667Y-37214343D02*
X130159048Y-37023867D01*
X130159048Y-37023867D02*
X130159048Y-36785772D01*
X130159048Y-36785772D02*
X130206667Y-36595296D01*
X130206667Y-36595296D02*
X130254286Y-36500058D01*
X130254286Y-36500058D02*
X130301905Y-36452439D01*
X130301905Y-36452439D02*
X130397143Y-36404820D01*
X131920953Y-37404820D02*
X131920953Y-36738153D01*
X131920953Y-36833391D02*
X131968572Y-36785772D01*
X131968572Y-36785772D02*
X132063810Y-36738153D01*
X132063810Y-36738153D02*
X132206667Y-36738153D01*
X132206667Y-36738153D02*
X132301905Y-36785772D01*
X132301905Y-36785772D02*
X132349524Y-36881010D01*
X132349524Y-36881010D02*
X132349524Y-37404820D01*
X132349524Y-36881010D02*
X132397143Y-36785772D01*
X132397143Y-36785772D02*
X132492381Y-36738153D01*
X132492381Y-36738153D02*
X132635238Y-36738153D01*
X132635238Y-36738153D02*
X132730477Y-36785772D01*
X132730477Y-36785772D02*
X132778096Y-36881010D01*
X132778096Y-36881010D02*
X132778096Y-37404820D01*
X133254286Y-37404820D02*
X133254286Y-36738153D01*
X133254286Y-36833391D02*
X133301905Y-36785772D01*
X133301905Y-36785772D02*
X133397143Y-36738153D01*
X133397143Y-36738153D02*
X133540000Y-36738153D01*
X133540000Y-36738153D02*
X133635238Y-36785772D01*
X133635238Y-36785772D02*
X133682857Y-36881010D01*
X133682857Y-36881010D02*
X133682857Y-37404820D01*
X133682857Y-36881010D02*
X133730476Y-36785772D01*
X133730476Y-36785772D02*
X133825714Y-36738153D01*
X133825714Y-36738153D02*
X133968571Y-36738153D01*
X133968571Y-36738153D02*
X134063810Y-36785772D01*
X134063810Y-36785772D02*
X134111429Y-36881010D01*
X134111429Y-36881010D02*
X134111429Y-37404820D01*
X162560000Y-40140000D02*
X162560000Y-37513581D01*
X96520000Y-40140000D02*
X96520000Y-37513581D01*
X162560000Y-38100001D02*
X96520000Y-38100001D01*
X162560000Y-38100001D02*
X96520000Y-38100001D01*
X162560000Y-38100001D02*
X161433496Y-38686422D01*
X162560000Y-38100001D02*
X161433496Y-37513580D01*
X96520000Y-38100001D02*
X97646504Y-37513580D01*
X96520000Y-38100001D02*
X97646504Y-38686422D01*
X125397143Y-97364819D02*
X125206667Y-97364819D01*
X125206667Y-97364819D02*
X125111429Y-97412438D01*
X125111429Y-97412438D02*
X125063810Y-97460057D01*
X125063810Y-97460057D02*
X124968572Y-97602914D01*
X124968572Y-97602914D02*
X124920953Y-97793390D01*
X124920953Y-97793390D02*
X124920953Y-98174342D01*
X124920953Y-98174342D02*
X124968572Y-98269580D01*
X124968572Y-98269580D02*
X125016191Y-98317200D01*
X125016191Y-98317200D02*
X125111429Y-98364819D01*
X125111429Y-98364819D02*
X125301905Y-98364819D01*
X125301905Y-98364819D02*
X125397143Y-98317200D01*
X125397143Y-98317200D02*
X125444762Y-98269580D01*
X125444762Y-98269580D02*
X125492381Y-98174342D01*
X125492381Y-98174342D02*
X125492381Y-97936247D01*
X125492381Y-97936247D02*
X125444762Y-97841009D01*
X125444762Y-97841009D02*
X125397143Y-97793390D01*
X125397143Y-97793390D02*
X125301905Y-97745771D01*
X125301905Y-97745771D02*
X125111429Y-97745771D01*
X125111429Y-97745771D02*
X125016191Y-97793390D01*
X125016191Y-97793390D02*
X124968572Y-97841009D01*
X124968572Y-97841009D02*
X124920953Y-97936247D01*
X126349524Y-97364819D02*
X126159048Y-97364819D01*
X126159048Y-97364819D02*
X126063810Y-97412438D01*
X126063810Y-97412438D02*
X126016191Y-97460057D01*
X126016191Y-97460057D02*
X125920953Y-97602914D01*
X125920953Y-97602914D02*
X125873334Y-97793390D01*
X125873334Y-97793390D02*
X125873334Y-98174342D01*
X125873334Y-98174342D02*
X125920953Y-98269580D01*
X125920953Y-98269580D02*
X125968572Y-98317200D01*
X125968572Y-98317200D02*
X126063810Y-98364819D01*
X126063810Y-98364819D02*
X126254286Y-98364819D01*
X126254286Y-98364819D02*
X126349524Y-98317200D01*
X126349524Y-98317200D02*
X126397143Y-98269580D01*
X126397143Y-98269580D02*
X126444762Y-98174342D01*
X126444762Y-98174342D02*
X126444762Y-97936247D01*
X126444762Y-97936247D02*
X126397143Y-97841009D01*
X126397143Y-97841009D02*
X126349524Y-97793390D01*
X126349524Y-97793390D02*
X126254286Y-97745771D01*
X126254286Y-97745771D02*
X126063810Y-97745771D01*
X126063810Y-97745771D02*
X125968572Y-97793390D01*
X125968572Y-97793390D02*
X125920953Y-97841009D01*
X125920953Y-97841009D02*
X125873334Y-97936247D01*
X126873334Y-98269580D02*
X126920953Y-98317200D01*
X126920953Y-98317200D02*
X126873334Y-98364819D01*
X126873334Y-98364819D02*
X126825715Y-98317200D01*
X126825715Y-98317200D02*
X126873334Y-98269580D01*
X126873334Y-98269580D02*
X126873334Y-98364819D01*
X127540000Y-97364819D02*
X127635238Y-97364819D01*
X127635238Y-97364819D02*
X127730476Y-97412438D01*
X127730476Y-97412438D02*
X127778095Y-97460057D01*
X127778095Y-97460057D02*
X127825714Y-97555295D01*
X127825714Y-97555295D02*
X127873333Y-97745771D01*
X127873333Y-97745771D02*
X127873333Y-97983866D01*
X127873333Y-97983866D02*
X127825714Y-98174342D01*
X127825714Y-98174342D02*
X127778095Y-98269580D01*
X127778095Y-98269580D02*
X127730476Y-98317200D01*
X127730476Y-98317200D02*
X127635238Y-98364819D01*
X127635238Y-98364819D02*
X127540000Y-98364819D01*
X127540000Y-98364819D02*
X127444762Y-98317200D01*
X127444762Y-98317200D02*
X127397143Y-98269580D01*
X127397143Y-98269580D02*
X127349524Y-98174342D01*
X127349524Y-98174342D02*
X127301905Y-97983866D01*
X127301905Y-97983866D02*
X127301905Y-97745771D01*
X127301905Y-97745771D02*
X127349524Y-97555295D01*
X127349524Y-97555295D02*
X127397143Y-97460057D01*
X127397143Y-97460057D02*
X127444762Y-97412438D01*
X127444762Y-97412438D02*
X127540000Y-97364819D01*
X128730476Y-97698152D02*
X128730476Y-98364819D01*
X128492381Y-97317200D02*
X128254286Y-98031485D01*
X128254286Y-98031485D02*
X128873333Y-98031485D01*
X129444762Y-97364819D02*
X129540000Y-97364819D01*
X129540000Y-97364819D02*
X129635238Y-97412438D01*
X129635238Y-97412438D02*
X129682857Y-97460057D01*
X129682857Y-97460057D02*
X129730476Y-97555295D01*
X129730476Y-97555295D02*
X129778095Y-97745771D01*
X129778095Y-97745771D02*
X129778095Y-97983866D01*
X129778095Y-97983866D02*
X129730476Y-98174342D01*
X129730476Y-98174342D02*
X129682857Y-98269580D01*
X129682857Y-98269580D02*
X129635238Y-98317200D01*
X129635238Y-98317200D02*
X129540000Y-98364819D01*
X129540000Y-98364819D02*
X129444762Y-98364819D01*
X129444762Y-98364819D02*
X129349524Y-98317200D01*
X129349524Y-98317200D02*
X129301905Y-98269580D01*
X129301905Y-98269580D02*
X129254286Y-98174342D01*
X129254286Y-98174342D02*
X129206667Y-97983866D01*
X129206667Y-97983866D02*
X129206667Y-97745771D01*
X129206667Y-97745771D02*
X129254286Y-97555295D01*
X129254286Y-97555295D02*
X129301905Y-97460057D01*
X129301905Y-97460057D02*
X129349524Y-97412438D01*
X129349524Y-97412438D02*
X129444762Y-97364819D01*
X130397143Y-97364819D02*
X130492381Y-97364819D01*
X130492381Y-97364819D02*
X130587619Y-97412438D01*
X130587619Y-97412438D02*
X130635238Y-97460057D01*
X130635238Y-97460057D02*
X130682857Y-97555295D01*
X130682857Y-97555295D02*
X130730476Y-97745771D01*
X130730476Y-97745771D02*
X130730476Y-97983866D01*
X130730476Y-97983866D02*
X130682857Y-98174342D01*
X130682857Y-98174342D02*
X130635238Y-98269580D01*
X130635238Y-98269580D02*
X130587619Y-98317200D01*
X130587619Y-98317200D02*
X130492381Y-98364819D01*
X130492381Y-98364819D02*
X130397143Y-98364819D01*
X130397143Y-98364819D02*
X130301905Y-98317200D01*
X130301905Y-98317200D02*
X130254286Y-98269580D01*
X130254286Y-98269580D02*
X130206667Y-98174342D01*
X130206667Y-98174342D02*
X130159048Y-97983866D01*
X130159048Y-97983866D02*
X130159048Y-97745771D01*
X130159048Y-97745771D02*
X130206667Y-97555295D01*
X130206667Y-97555295D02*
X130254286Y-97460057D01*
X130254286Y-97460057D02*
X130301905Y-97412438D01*
X130301905Y-97412438D02*
X130397143Y-97364819D01*
X131920953Y-98364819D02*
X131920953Y-97698152D01*
X131920953Y-97793390D02*
X131968572Y-97745771D01*
X131968572Y-97745771D02*
X132063810Y-97698152D01*
X132063810Y-97698152D02*
X132206667Y-97698152D01*
X132206667Y-97698152D02*
X132301905Y-97745771D01*
X132301905Y-97745771D02*
X132349524Y-97841009D01*
X132349524Y-97841009D02*
X132349524Y-98364819D01*
X132349524Y-97841009D02*
X132397143Y-97745771D01*
X132397143Y-97745771D02*
X132492381Y-97698152D01*
X132492381Y-97698152D02*
X132635238Y-97698152D01*
X132635238Y-97698152D02*
X132730477Y-97745771D01*
X132730477Y-97745771D02*
X132778096Y-97841009D01*
X132778096Y-97841009D02*
X132778096Y-98364819D01*
X133254286Y-98364819D02*
X133254286Y-97698152D01*
X133254286Y-97793390D02*
X133301905Y-97745771D01*
X133301905Y-97745771D02*
X133397143Y-97698152D01*
X133397143Y-97698152D02*
X133540000Y-97698152D01*
X133540000Y-97698152D02*
X133635238Y-97745771D01*
X133635238Y-97745771D02*
X133682857Y-97841009D01*
X133682857Y-97841009D02*
X133682857Y-98364819D01*
X133682857Y-97841009D02*
X133730476Y-97745771D01*
X133730476Y-97745771D02*
X133825714Y-97698152D01*
X133825714Y-97698152D02*
X133968571Y-97698152D01*
X133968571Y-97698152D02*
X134063810Y-97745771D01*
X134063810Y-97745771D02*
X134111429Y-97841009D01*
X134111429Y-97841009D02*
X134111429Y-98364819D01*
X96520000Y-97020000D02*
X96520000Y-99646420D01*
X162560000Y-97020000D02*
X162560000Y-99646420D01*
X96520000Y-99060000D02*
X162560000Y-99060000D01*
X96520000Y-99060000D02*
X162560000Y-99060000D01*
X96520000Y-99060000D02*
X97646504Y-98473579D01*
X96520000Y-99060000D02*
X97646504Y-99646421D01*
X162560000Y-99060000D02*
X161433496Y-99646421D01*
X162560000Y-99060000D02*
X161433496Y-98473579D01*
X92284820Y-72675237D02*
X92284820Y-73151427D01*
X92284820Y-73151427D02*
X92761010Y-73199046D01*
X92761010Y-73199046D02*
X92713391Y-73151427D01*
X92713391Y-73151427D02*
X92665772Y-73056189D01*
X92665772Y-73056189D02*
X92665772Y-72818094D01*
X92665772Y-72818094D02*
X92713391Y-72722856D01*
X92713391Y-72722856D02*
X92761010Y-72675237D01*
X92761010Y-72675237D02*
X92856248Y-72627618D01*
X92856248Y-72627618D02*
X93094343Y-72627618D01*
X93094343Y-72627618D02*
X93189581Y-72675237D01*
X93189581Y-72675237D02*
X93237201Y-72722856D01*
X93237201Y-72722856D02*
X93284820Y-72818094D01*
X93284820Y-72818094D02*
X93284820Y-73056189D01*
X93284820Y-73056189D02*
X93237201Y-73151427D01*
X93237201Y-73151427D02*
X93189581Y-73199046D01*
X92284820Y-71722856D02*
X92284820Y-72199046D01*
X92284820Y-72199046D02*
X92761010Y-72246665D01*
X92761010Y-72246665D02*
X92713391Y-72199046D01*
X92713391Y-72199046D02*
X92665772Y-72103808D01*
X92665772Y-72103808D02*
X92665772Y-71865713D01*
X92665772Y-71865713D02*
X92713391Y-71770475D01*
X92713391Y-71770475D02*
X92761010Y-71722856D01*
X92761010Y-71722856D02*
X92856248Y-71675237D01*
X92856248Y-71675237D02*
X93094343Y-71675237D01*
X93094343Y-71675237D02*
X93189581Y-71722856D01*
X93189581Y-71722856D02*
X93237201Y-71770475D01*
X93237201Y-71770475D02*
X93284820Y-71865713D01*
X93284820Y-71865713D02*
X93284820Y-72103808D01*
X93284820Y-72103808D02*
X93237201Y-72199046D01*
X93237201Y-72199046D02*
X93189581Y-72246665D01*
X93189581Y-71246665D02*
X93237201Y-71199046D01*
X93237201Y-71199046D02*
X93284820Y-71246665D01*
X93284820Y-71246665D02*
X93237201Y-71294284D01*
X93237201Y-71294284D02*
X93189581Y-71246665D01*
X93189581Y-71246665D02*
X93284820Y-71246665D01*
X92713391Y-70627618D02*
X92665772Y-70722856D01*
X92665772Y-70722856D02*
X92618153Y-70770475D01*
X92618153Y-70770475D02*
X92522915Y-70818094D01*
X92522915Y-70818094D02*
X92475296Y-70818094D01*
X92475296Y-70818094D02*
X92380058Y-70770475D01*
X92380058Y-70770475D02*
X92332439Y-70722856D01*
X92332439Y-70722856D02*
X92284820Y-70627618D01*
X92284820Y-70627618D02*
X92284820Y-70437142D01*
X92284820Y-70437142D02*
X92332439Y-70341904D01*
X92332439Y-70341904D02*
X92380058Y-70294285D01*
X92380058Y-70294285D02*
X92475296Y-70246666D01*
X92475296Y-70246666D02*
X92522915Y-70246666D01*
X92522915Y-70246666D02*
X92618153Y-70294285D01*
X92618153Y-70294285D02*
X92665772Y-70341904D01*
X92665772Y-70341904D02*
X92713391Y-70437142D01*
X92713391Y-70437142D02*
X92713391Y-70627618D01*
X92713391Y-70627618D02*
X92761010Y-70722856D01*
X92761010Y-70722856D02*
X92808629Y-70770475D01*
X92808629Y-70770475D02*
X92903867Y-70818094D01*
X92903867Y-70818094D02*
X93094343Y-70818094D01*
X93094343Y-70818094D02*
X93189581Y-70770475D01*
X93189581Y-70770475D02*
X93237201Y-70722856D01*
X93237201Y-70722856D02*
X93284820Y-70627618D01*
X93284820Y-70627618D02*
X93284820Y-70437142D01*
X93284820Y-70437142D02*
X93237201Y-70341904D01*
X93237201Y-70341904D02*
X93189581Y-70294285D01*
X93189581Y-70294285D02*
X93094343Y-70246666D01*
X93094343Y-70246666D02*
X92903867Y-70246666D01*
X92903867Y-70246666D02*
X92808629Y-70294285D01*
X92808629Y-70294285D02*
X92761010Y-70341904D01*
X92761010Y-70341904D02*
X92713391Y-70437142D01*
X92713391Y-69675237D02*
X92665772Y-69770475D01*
X92665772Y-69770475D02*
X92618153Y-69818094D01*
X92618153Y-69818094D02*
X92522915Y-69865713D01*
X92522915Y-69865713D02*
X92475296Y-69865713D01*
X92475296Y-69865713D02*
X92380058Y-69818094D01*
X92380058Y-69818094D02*
X92332439Y-69770475D01*
X92332439Y-69770475D02*
X92284820Y-69675237D01*
X92284820Y-69675237D02*
X92284820Y-69484761D01*
X92284820Y-69484761D02*
X92332439Y-69389523D01*
X92332439Y-69389523D02*
X92380058Y-69341904D01*
X92380058Y-69341904D02*
X92475296Y-69294285D01*
X92475296Y-69294285D02*
X92522915Y-69294285D01*
X92522915Y-69294285D02*
X92618153Y-69341904D01*
X92618153Y-69341904D02*
X92665772Y-69389523D01*
X92665772Y-69389523D02*
X92713391Y-69484761D01*
X92713391Y-69484761D02*
X92713391Y-69675237D01*
X92713391Y-69675237D02*
X92761010Y-69770475D01*
X92761010Y-69770475D02*
X92808629Y-69818094D01*
X92808629Y-69818094D02*
X92903867Y-69865713D01*
X92903867Y-69865713D02*
X93094343Y-69865713D01*
X93094343Y-69865713D02*
X93189581Y-69818094D01*
X93189581Y-69818094D02*
X93237201Y-69770475D01*
X93237201Y-69770475D02*
X93284820Y-69675237D01*
X93284820Y-69675237D02*
X93284820Y-69484761D01*
X93284820Y-69484761D02*
X93237201Y-69389523D01*
X93237201Y-69389523D02*
X93189581Y-69341904D01*
X93189581Y-69341904D02*
X93094343Y-69294285D01*
X93094343Y-69294285D02*
X92903867Y-69294285D01*
X92903867Y-69294285D02*
X92808629Y-69341904D01*
X92808629Y-69341904D02*
X92761010Y-69389523D01*
X92761010Y-69389523D02*
X92713391Y-69484761D01*
X92284820Y-68675237D02*
X92284820Y-68579999D01*
X92284820Y-68579999D02*
X92332439Y-68484761D01*
X92332439Y-68484761D02*
X92380058Y-68437142D01*
X92380058Y-68437142D02*
X92475296Y-68389523D01*
X92475296Y-68389523D02*
X92665772Y-68341904D01*
X92665772Y-68341904D02*
X92903867Y-68341904D01*
X92903867Y-68341904D02*
X93094343Y-68389523D01*
X93094343Y-68389523D02*
X93189581Y-68437142D01*
X93189581Y-68437142D02*
X93237201Y-68484761D01*
X93237201Y-68484761D02*
X93284820Y-68579999D01*
X93284820Y-68579999D02*
X93284820Y-68675237D01*
X93284820Y-68675237D02*
X93237201Y-68770475D01*
X93237201Y-68770475D02*
X93189581Y-68818094D01*
X93189581Y-68818094D02*
X93094343Y-68865713D01*
X93094343Y-68865713D02*
X92903867Y-68913332D01*
X92903867Y-68913332D02*
X92665772Y-68913332D01*
X92665772Y-68913332D02*
X92475296Y-68865713D01*
X92475296Y-68865713D02*
X92380058Y-68818094D01*
X92380058Y-68818094D02*
X92332439Y-68770475D01*
X92332439Y-68770475D02*
X92284820Y-68675237D01*
X92284820Y-67722856D02*
X92284820Y-67627618D01*
X92284820Y-67627618D02*
X92332439Y-67532380D01*
X92332439Y-67532380D02*
X92380058Y-67484761D01*
X92380058Y-67484761D02*
X92475296Y-67437142D01*
X92475296Y-67437142D02*
X92665772Y-67389523D01*
X92665772Y-67389523D02*
X92903867Y-67389523D01*
X92903867Y-67389523D02*
X93094343Y-67437142D01*
X93094343Y-67437142D02*
X93189581Y-67484761D01*
X93189581Y-67484761D02*
X93237201Y-67532380D01*
X93237201Y-67532380D02*
X93284820Y-67627618D01*
X93284820Y-67627618D02*
X93284820Y-67722856D01*
X93284820Y-67722856D02*
X93237201Y-67818094D01*
X93237201Y-67818094D02*
X93189581Y-67865713D01*
X93189581Y-67865713D02*
X93094343Y-67913332D01*
X93094343Y-67913332D02*
X92903867Y-67960951D01*
X92903867Y-67960951D02*
X92665772Y-67960951D01*
X92665772Y-67960951D02*
X92475296Y-67913332D01*
X92475296Y-67913332D02*
X92380058Y-67865713D01*
X92380058Y-67865713D02*
X92332439Y-67818094D01*
X92332439Y-67818094D02*
X92284820Y-67722856D01*
X93284820Y-66199046D02*
X92618153Y-66199046D01*
X92713391Y-66199046D02*
X92665772Y-66151427D01*
X92665772Y-66151427D02*
X92618153Y-66056189D01*
X92618153Y-66056189D02*
X92618153Y-65913332D01*
X92618153Y-65913332D02*
X92665772Y-65818094D01*
X92665772Y-65818094D02*
X92761010Y-65770475D01*
X92761010Y-65770475D02*
X93284820Y-65770475D01*
X92761010Y-65770475D02*
X92665772Y-65722856D01*
X92665772Y-65722856D02*
X92618153Y-65627618D01*
X92618153Y-65627618D02*
X92618153Y-65484761D01*
X92618153Y-65484761D02*
X92665772Y-65389522D01*
X92665772Y-65389522D02*
X92761010Y-65341903D01*
X92761010Y-65341903D02*
X93284820Y-65341903D01*
X93284820Y-64865713D02*
X92618153Y-64865713D01*
X92713391Y-64865713D02*
X92665772Y-64818094D01*
X92665772Y-64818094D02*
X92618153Y-64722856D01*
X92618153Y-64722856D02*
X92618153Y-64579999D01*
X92618153Y-64579999D02*
X92665772Y-64484761D01*
X92665772Y-64484761D02*
X92761010Y-64437142D01*
X92761010Y-64437142D02*
X93284820Y-64437142D01*
X92761010Y-64437142D02*
X92665772Y-64389523D01*
X92665772Y-64389523D02*
X92618153Y-64294285D01*
X92618153Y-64294285D02*
X92618153Y-64151428D01*
X92618153Y-64151428D02*
X92665772Y-64056189D01*
X92665772Y-64056189D02*
X92761010Y-64008570D01*
X92761010Y-64008570D02*
X93284820Y-64008570D01*
X96020000Y-40640000D02*
X93393581Y-40640000D01*
X96020000Y-96520000D02*
X93393581Y-96520000D01*
X93980001Y-40640000D02*
X93980001Y-96520000D01*
X93980001Y-40640000D02*
X93980001Y-96520000D01*
X93980001Y-40640000D02*
X94566422Y-41766504D01*
X93980001Y-40640000D02*
X93393580Y-41766504D01*
X93980001Y-96520000D02*
X93393580Y-95393496D01*
X93980001Y-96520000D02*
X94566422Y-95393496D01*
X165944819Y-72675237D02*
X165944819Y-73151427D01*
X165944819Y-73151427D02*
X166421009Y-73199046D01*
X166421009Y-73199046D02*
X166373390Y-73151427D01*
X166373390Y-73151427D02*
X166325771Y-73056189D01*
X166325771Y-73056189D02*
X166325771Y-72818094D01*
X166325771Y-72818094D02*
X166373390Y-72722856D01*
X166373390Y-72722856D02*
X166421009Y-72675237D01*
X166421009Y-72675237D02*
X166516247Y-72627618D01*
X166516247Y-72627618D02*
X166754342Y-72627618D01*
X166754342Y-72627618D02*
X166849580Y-72675237D01*
X166849580Y-72675237D02*
X166897200Y-72722856D01*
X166897200Y-72722856D02*
X166944819Y-72818094D01*
X166944819Y-72818094D02*
X166944819Y-73056189D01*
X166944819Y-73056189D02*
X166897200Y-73151427D01*
X166897200Y-73151427D02*
X166849580Y-73199046D01*
X165944819Y-71722856D02*
X165944819Y-72199046D01*
X165944819Y-72199046D02*
X166421009Y-72246665D01*
X166421009Y-72246665D02*
X166373390Y-72199046D01*
X166373390Y-72199046D02*
X166325771Y-72103808D01*
X166325771Y-72103808D02*
X166325771Y-71865713D01*
X166325771Y-71865713D02*
X166373390Y-71770475D01*
X166373390Y-71770475D02*
X166421009Y-71722856D01*
X166421009Y-71722856D02*
X166516247Y-71675237D01*
X166516247Y-71675237D02*
X166754342Y-71675237D01*
X166754342Y-71675237D02*
X166849580Y-71722856D01*
X166849580Y-71722856D02*
X166897200Y-71770475D01*
X166897200Y-71770475D02*
X166944819Y-71865713D01*
X166944819Y-71865713D02*
X166944819Y-72103808D01*
X166944819Y-72103808D02*
X166897200Y-72199046D01*
X166897200Y-72199046D02*
X166849580Y-72246665D01*
X166849580Y-71246665D02*
X166897200Y-71199046D01*
X166897200Y-71199046D02*
X166944819Y-71246665D01*
X166944819Y-71246665D02*
X166897200Y-71294284D01*
X166897200Y-71294284D02*
X166849580Y-71246665D01*
X166849580Y-71246665D02*
X166944819Y-71246665D01*
X166373390Y-70627618D02*
X166325771Y-70722856D01*
X166325771Y-70722856D02*
X166278152Y-70770475D01*
X166278152Y-70770475D02*
X166182914Y-70818094D01*
X166182914Y-70818094D02*
X166135295Y-70818094D01*
X166135295Y-70818094D02*
X166040057Y-70770475D01*
X166040057Y-70770475D02*
X165992438Y-70722856D01*
X165992438Y-70722856D02*
X165944819Y-70627618D01*
X165944819Y-70627618D02*
X165944819Y-70437142D01*
X165944819Y-70437142D02*
X165992438Y-70341904D01*
X165992438Y-70341904D02*
X166040057Y-70294285D01*
X166040057Y-70294285D02*
X166135295Y-70246666D01*
X166135295Y-70246666D02*
X166182914Y-70246666D01*
X166182914Y-70246666D02*
X166278152Y-70294285D01*
X166278152Y-70294285D02*
X166325771Y-70341904D01*
X166325771Y-70341904D02*
X166373390Y-70437142D01*
X166373390Y-70437142D02*
X166373390Y-70627618D01*
X166373390Y-70627618D02*
X166421009Y-70722856D01*
X166421009Y-70722856D02*
X166468628Y-70770475D01*
X166468628Y-70770475D02*
X166563866Y-70818094D01*
X166563866Y-70818094D02*
X166754342Y-70818094D01*
X166754342Y-70818094D02*
X166849580Y-70770475D01*
X166849580Y-70770475D02*
X166897200Y-70722856D01*
X166897200Y-70722856D02*
X166944819Y-70627618D01*
X166944819Y-70627618D02*
X166944819Y-70437142D01*
X166944819Y-70437142D02*
X166897200Y-70341904D01*
X166897200Y-70341904D02*
X166849580Y-70294285D01*
X166849580Y-70294285D02*
X166754342Y-70246666D01*
X166754342Y-70246666D02*
X166563866Y-70246666D01*
X166563866Y-70246666D02*
X166468628Y-70294285D01*
X166468628Y-70294285D02*
X166421009Y-70341904D01*
X166421009Y-70341904D02*
X166373390Y-70437142D01*
X166373390Y-69675237D02*
X166325771Y-69770475D01*
X166325771Y-69770475D02*
X166278152Y-69818094D01*
X166278152Y-69818094D02*
X166182914Y-69865713D01*
X166182914Y-69865713D02*
X166135295Y-69865713D01*
X166135295Y-69865713D02*
X166040057Y-69818094D01*
X166040057Y-69818094D02*
X165992438Y-69770475D01*
X165992438Y-69770475D02*
X165944819Y-69675237D01*
X165944819Y-69675237D02*
X165944819Y-69484761D01*
X165944819Y-69484761D02*
X165992438Y-69389523D01*
X165992438Y-69389523D02*
X166040057Y-69341904D01*
X166040057Y-69341904D02*
X166135295Y-69294285D01*
X166135295Y-69294285D02*
X166182914Y-69294285D01*
X166182914Y-69294285D02*
X166278152Y-69341904D01*
X166278152Y-69341904D02*
X166325771Y-69389523D01*
X166325771Y-69389523D02*
X166373390Y-69484761D01*
X166373390Y-69484761D02*
X166373390Y-69675237D01*
X166373390Y-69675237D02*
X166421009Y-69770475D01*
X166421009Y-69770475D02*
X166468628Y-69818094D01*
X166468628Y-69818094D02*
X166563866Y-69865713D01*
X166563866Y-69865713D02*
X166754342Y-69865713D01*
X166754342Y-69865713D02*
X166849580Y-69818094D01*
X166849580Y-69818094D02*
X166897200Y-69770475D01*
X166897200Y-69770475D02*
X166944819Y-69675237D01*
X166944819Y-69675237D02*
X166944819Y-69484761D01*
X166944819Y-69484761D02*
X166897200Y-69389523D01*
X166897200Y-69389523D02*
X166849580Y-69341904D01*
X166849580Y-69341904D02*
X166754342Y-69294285D01*
X166754342Y-69294285D02*
X166563866Y-69294285D01*
X166563866Y-69294285D02*
X166468628Y-69341904D01*
X166468628Y-69341904D02*
X166421009Y-69389523D01*
X166421009Y-69389523D02*
X166373390Y-69484761D01*
X165944819Y-68675237D02*
X165944819Y-68579999D01*
X165944819Y-68579999D02*
X165992438Y-68484761D01*
X165992438Y-68484761D02*
X166040057Y-68437142D01*
X166040057Y-68437142D02*
X166135295Y-68389523D01*
X166135295Y-68389523D02*
X166325771Y-68341904D01*
X166325771Y-68341904D02*
X166563866Y-68341904D01*
X166563866Y-68341904D02*
X166754342Y-68389523D01*
X166754342Y-68389523D02*
X166849580Y-68437142D01*
X166849580Y-68437142D02*
X166897200Y-68484761D01*
X166897200Y-68484761D02*
X166944819Y-68579999D01*
X166944819Y-68579999D02*
X166944819Y-68675237D01*
X166944819Y-68675237D02*
X166897200Y-68770475D01*
X166897200Y-68770475D02*
X166849580Y-68818094D01*
X166849580Y-68818094D02*
X166754342Y-68865713D01*
X166754342Y-68865713D02*
X166563866Y-68913332D01*
X166563866Y-68913332D02*
X166325771Y-68913332D01*
X166325771Y-68913332D02*
X166135295Y-68865713D01*
X166135295Y-68865713D02*
X166040057Y-68818094D01*
X166040057Y-68818094D02*
X165992438Y-68770475D01*
X165992438Y-68770475D02*
X165944819Y-68675237D01*
X165944819Y-67722856D02*
X165944819Y-67627618D01*
X165944819Y-67627618D02*
X165992438Y-67532380D01*
X165992438Y-67532380D02*
X166040057Y-67484761D01*
X166040057Y-67484761D02*
X166135295Y-67437142D01*
X166135295Y-67437142D02*
X166325771Y-67389523D01*
X166325771Y-67389523D02*
X166563866Y-67389523D01*
X166563866Y-67389523D02*
X166754342Y-67437142D01*
X166754342Y-67437142D02*
X166849580Y-67484761D01*
X166849580Y-67484761D02*
X166897200Y-67532380D01*
X166897200Y-67532380D02*
X166944819Y-67627618D01*
X166944819Y-67627618D02*
X166944819Y-67722856D01*
X166944819Y-67722856D02*
X166897200Y-67818094D01*
X166897200Y-67818094D02*
X166849580Y-67865713D01*
X166849580Y-67865713D02*
X166754342Y-67913332D01*
X166754342Y-67913332D02*
X166563866Y-67960951D01*
X166563866Y-67960951D02*
X166325771Y-67960951D01*
X166325771Y-67960951D02*
X166135295Y-67913332D01*
X166135295Y-67913332D02*
X166040057Y-67865713D01*
X166040057Y-67865713D02*
X165992438Y-67818094D01*
X165992438Y-67818094D02*
X165944819Y-67722856D01*
X166944819Y-66199046D02*
X166278152Y-66199046D01*
X166373390Y-66199046D02*
X166325771Y-66151427D01*
X166325771Y-66151427D02*
X166278152Y-66056189D01*
X166278152Y-66056189D02*
X166278152Y-65913332D01*
X166278152Y-65913332D02*
X166325771Y-65818094D01*
X166325771Y-65818094D02*
X166421009Y-65770475D01*
X166421009Y-65770475D02*
X166944819Y-65770475D01*
X166421009Y-65770475D02*
X166325771Y-65722856D01*
X166325771Y-65722856D02*
X166278152Y-65627618D01*
X166278152Y-65627618D02*
X166278152Y-65484761D01*
X166278152Y-65484761D02*
X166325771Y-65389522D01*
X166325771Y-65389522D02*
X166421009Y-65341903D01*
X166421009Y-65341903D02*
X166944819Y-65341903D01*
X166944819Y-64865713D02*
X166278152Y-64865713D01*
X166373390Y-64865713D02*
X166325771Y-64818094D01*
X166325771Y-64818094D02*
X166278152Y-64722856D01*
X166278152Y-64722856D02*
X166278152Y-64579999D01*
X166278152Y-64579999D02*
X166325771Y-64484761D01*
X166325771Y-64484761D02*
X166421009Y-64437142D01*
X166421009Y-64437142D02*
X166944819Y-64437142D01*
X166421009Y-64437142D02*
X166325771Y-64389523D01*
X166325771Y-64389523D02*
X166278152Y-64294285D01*
X166278152Y-64294285D02*
X166278152Y-64151428D01*
X166278152Y-64151428D02*
X166325771Y-64056189D01*
X166325771Y-64056189D02*
X166421009Y-64008570D01*
X166421009Y-64008570D02*
X166944819Y-64008570D01*
X163060000Y-40640000D02*
X168226420Y-40640000D01*
X163060000Y-96520000D02*
X168226420Y-96520000D01*
X167640000Y-40640000D02*
X167640000Y-96520000D01*
X167640000Y-40640000D02*
X167640000Y-96520000D01*
X167640000Y-40640000D02*
X168226421Y-41766504D01*
X167640000Y-40640000D02*
X167053579Y-41766504D01*
X167640000Y-96520000D02*
X167053579Y-95393496D01*
X167640000Y-96520000D02*
X168226421Y-95393496D01*
X144192856Y-82751009D02*
X144335713Y-82798628D01*
X144335713Y-82798628D02*
X144383332Y-82846247D01*
X144383332Y-82846247D02*
X144430951Y-82941485D01*
X144430951Y-82941485D02*
X144430951Y-83084342D01*
X144430951Y-83084342D02*
X144383332Y-83179580D01*
X144383332Y-83179580D02*
X144335713Y-83227200D01*
X144335713Y-83227200D02*
X144240475Y-83274819D01*
X144240475Y-83274819D02*
X143859523Y-83274819D01*
X143859523Y-83274819D02*
X143859523Y-82274819D01*
X143859523Y-82274819D02*
X144192856Y-82274819D01*
X144192856Y-82274819D02*
X144288094Y-82322438D01*
X144288094Y-82322438D02*
X144335713Y-82370057D01*
X144335713Y-82370057D02*
X144383332Y-82465295D01*
X144383332Y-82465295D02*
X144383332Y-82560533D01*
X144383332Y-82560533D02*
X144335713Y-82655771D01*
X144335713Y-82655771D02*
X144288094Y-82703390D01*
X144288094Y-82703390D02*
X144192856Y-82751009D01*
X144192856Y-82751009D02*
X143859523Y-82751009D01*
X145288094Y-82608152D02*
X145288094Y-83274819D01*
X144859523Y-82608152D02*
X144859523Y-83131961D01*
X144859523Y-83131961D02*
X144907142Y-83227200D01*
X144907142Y-83227200D02*
X145002380Y-83274819D01*
X145002380Y-83274819D02*
X145145237Y-83274819D01*
X145145237Y-83274819D02*
X145240475Y-83227200D01*
X145240475Y-83227200D02*
X145288094Y-83179580D01*
X145621428Y-82608152D02*
X146002380Y-82608152D01*
X145764285Y-82274819D02*
X145764285Y-83131961D01*
X145764285Y-83131961D02*
X145811904Y-83227200D01*
X145811904Y-83227200D02*
X145907142Y-83274819D01*
X145907142Y-83274819D02*
X146002380Y-83274819D01*
X146192857Y-82608152D02*
X146573809Y-82608152D01*
X146335714Y-82274819D02*
X146335714Y-83131961D01*
X146335714Y-83131961D02*
X146383333Y-83227200D01*
X146383333Y-83227200D02*
X146478571Y-83274819D01*
X146478571Y-83274819D02*
X146573809Y-83274819D01*
X147050000Y-83274819D02*
X146954762Y-83227200D01*
X146954762Y-83227200D02*
X146907143Y-83179580D01*
X146907143Y-83179580D02*
X146859524Y-83084342D01*
X146859524Y-83084342D02*
X146859524Y-82798628D01*
X146859524Y-82798628D02*
X146907143Y-82703390D01*
X146907143Y-82703390D02*
X146954762Y-82655771D01*
X146954762Y-82655771D02*
X147050000Y-82608152D01*
X147050000Y-82608152D02*
X147192857Y-82608152D01*
X147192857Y-82608152D02*
X147288095Y-82655771D01*
X147288095Y-82655771D02*
X147335714Y-82703390D01*
X147335714Y-82703390D02*
X147383333Y-82798628D01*
X147383333Y-82798628D02*
X147383333Y-83084342D01*
X147383333Y-83084342D02*
X147335714Y-83179580D01*
X147335714Y-83179580D02*
X147288095Y-83227200D01*
X147288095Y-83227200D02*
X147192857Y-83274819D01*
X147192857Y-83274819D02*
X147050000Y-83274819D01*
X147811905Y-82608152D02*
X147811905Y-83274819D01*
X147811905Y-82703390D02*
X147859524Y-82655771D01*
X147859524Y-82655771D02*
X147954762Y-82608152D01*
X147954762Y-82608152D02*
X148097619Y-82608152D01*
X148097619Y-82608152D02*
X148192857Y-82655771D01*
X148192857Y-82655771D02*
X148240476Y-82751009D01*
X148240476Y-82751009D02*
X148240476Y-83274819D01*
X143359523Y-73067200D02*
X143454761Y-73114819D01*
X143454761Y-73114819D02*
X143645237Y-73114819D01*
X143645237Y-73114819D02*
X143740475Y-73067200D01*
X143740475Y-73067200D02*
X143788094Y-72971961D01*
X143788094Y-72971961D02*
X143788094Y-72924342D01*
X143788094Y-72924342D02*
X143740475Y-72829104D01*
X143740475Y-72829104D02*
X143645237Y-72781485D01*
X143645237Y-72781485D02*
X143502380Y-72781485D01*
X143502380Y-72781485D02*
X143407142Y-72733866D01*
X143407142Y-72733866D02*
X143359523Y-72638628D01*
X143359523Y-72638628D02*
X143359523Y-72591009D01*
X143359523Y-72591009D02*
X143407142Y-72495771D01*
X143407142Y-72495771D02*
X143502380Y-72448152D01*
X143502380Y-72448152D02*
X143645237Y-72448152D01*
X143645237Y-72448152D02*
X143740475Y-72495771D01*
X144216666Y-72448152D02*
X144216666Y-73448152D01*
X144216666Y-72495771D02*
X144311904Y-72448152D01*
X144311904Y-72448152D02*
X144502380Y-72448152D01*
X144502380Y-72448152D02*
X144597618Y-72495771D01*
X144597618Y-72495771D02*
X144645237Y-72543390D01*
X144645237Y-72543390D02*
X144692856Y-72638628D01*
X144692856Y-72638628D02*
X144692856Y-72924342D01*
X144692856Y-72924342D02*
X144645237Y-73019580D01*
X144645237Y-73019580D02*
X144597618Y-73067200D01*
X144597618Y-73067200D02*
X144502380Y-73114819D01*
X144502380Y-73114819D02*
X144311904Y-73114819D01*
X144311904Y-73114819D02*
X144216666Y-73067200D01*
X145502380Y-73067200D02*
X145407142Y-73114819D01*
X145407142Y-73114819D02*
X145216666Y-73114819D01*
X145216666Y-73114819D02*
X145121428Y-73067200D01*
X145121428Y-73067200D02*
X145073809Y-72971961D01*
X145073809Y-72971961D02*
X145073809Y-72591009D01*
X145073809Y-72591009D02*
X145121428Y-72495771D01*
X145121428Y-72495771D02*
X145216666Y-72448152D01*
X145216666Y-72448152D02*
X145407142Y-72448152D01*
X145407142Y-72448152D02*
X145502380Y-72495771D01*
X145502380Y-72495771D02*
X145549999Y-72591009D01*
X145549999Y-72591009D02*
X145549999Y-72686247D01*
X145549999Y-72686247D02*
X145073809Y-72781485D01*
X146407142Y-73114819D02*
X146407142Y-72591009D01*
X146407142Y-72591009D02*
X146359523Y-72495771D01*
X146359523Y-72495771D02*
X146264285Y-72448152D01*
X146264285Y-72448152D02*
X146073809Y-72448152D01*
X146073809Y-72448152D02*
X145978571Y-72495771D01*
X146407142Y-73067200D02*
X146311904Y-73114819D01*
X146311904Y-73114819D02*
X146073809Y-73114819D01*
X146073809Y-73114819D02*
X145978571Y-73067200D01*
X145978571Y-73067200D02*
X145930952Y-72971961D01*
X145930952Y-72971961D02*
X145930952Y-72876723D01*
X145930952Y-72876723D02*
X145978571Y-72781485D01*
X145978571Y-72781485D02*
X146073809Y-72733866D01*
X146073809Y-72733866D02*
X146311904Y-72733866D01*
X146311904Y-72733866D02*
X146407142Y-72686247D01*
X146883333Y-73114819D02*
X146883333Y-72114819D01*
X146978571Y-72733866D02*
X147264285Y-73114819D01*
X147264285Y-72448152D02*
X146883333Y-72829104D01*
X148073809Y-73067200D02*
X147978571Y-73114819D01*
X147978571Y-73114819D02*
X147788095Y-73114819D01*
X147788095Y-73114819D02*
X147692857Y-73067200D01*
X147692857Y-73067200D02*
X147645238Y-72971961D01*
X147645238Y-72971961D02*
X147645238Y-72591009D01*
X147645238Y-72591009D02*
X147692857Y-72495771D01*
X147692857Y-72495771D02*
X147788095Y-72448152D01*
X147788095Y-72448152D02*
X147978571Y-72448152D01*
X147978571Y-72448152D02*
X148073809Y-72495771D01*
X148073809Y-72495771D02*
X148121428Y-72591009D01*
X148121428Y-72591009D02*
X148121428Y-72686247D01*
X148121428Y-72686247D02*
X147645238Y-72781485D01*
X148550000Y-73114819D02*
X148550000Y-72448152D01*
X148550000Y-72638628D02*
X148597619Y-72543390D01*
X148597619Y-72543390D02*
X148645238Y-72495771D01*
X148645238Y-72495771D02*
X148740476Y-72448152D01*
X148740476Y-72448152D02*
X148835714Y-72448152D01*
X144399048Y-68653866D02*
X145160953Y-68653866D01*
X144399048Y-68653866D02*
X145160953Y-68653866D01*
X144780000Y-69034819D02*
X144780000Y-68272914D01*
X121484819Y-80503094D02*
X120484819Y-80503094D01*
X120484819Y-80503094D02*
X120484819Y-80264999D01*
X120484819Y-80264999D02*
X120532438Y-80122142D01*
X120532438Y-80122142D02*
X120627676Y-80026904D01*
X120627676Y-80026904D02*
X120722914Y-79979285D01*
X120722914Y-79979285D02*
X120913390Y-79931666D01*
X120913390Y-79931666D02*
X121056247Y-79931666D01*
X121056247Y-79931666D02*
X121246723Y-79979285D01*
X121246723Y-79979285D02*
X121341961Y-80026904D01*
X121341961Y-80026904D02*
X121437200Y-80122142D01*
X121437200Y-80122142D02*
X121484819Y-80264999D01*
X121484819Y-80264999D02*
X121484819Y-80503094D01*
X120484819Y-79026904D02*
X120484819Y-79503094D01*
X120484819Y-79503094D02*
X120961009Y-79550713D01*
X120961009Y-79550713D02*
X120913390Y-79503094D01*
X120913390Y-79503094D02*
X120865771Y-79407856D01*
X120865771Y-79407856D02*
X120865771Y-79169761D01*
X120865771Y-79169761D02*
X120913390Y-79074523D01*
X120913390Y-79074523D02*
X120961009Y-79026904D01*
X120961009Y-79026904D02*
X121056247Y-78979285D01*
X121056247Y-78979285D02*
X121294342Y-78979285D01*
X121294342Y-78979285D02*
X121389580Y-79026904D01*
X121389580Y-79026904D02*
X121437200Y-79074523D01*
X121437200Y-79074523D02*
X121484819Y-79169761D01*
X121484819Y-79169761D02*
X121484819Y-79407856D01*
X121484819Y-79407856D02*
X121437200Y-79503094D01*
X121437200Y-79503094D02*
X121389580Y-79550713D01*
X156275833Y-79959580D02*
X156228214Y-80007200D01*
X156228214Y-80007200D02*
X156085357Y-80054819D01*
X156085357Y-80054819D02*
X155990119Y-80054819D01*
X155990119Y-80054819D02*
X155847262Y-80007200D01*
X155847262Y-80007200D02*
X155752024Y-79911961D01*
X155752024Y-79911961D02*
X155704405Y-79816723D01*
X155704405Y-79816723D02*
X155656786Y-79626247D01*
X155656786Y-79626247D02*
X155656786Y-79483390D01*
X155656786Y-79483390D02*
X155704405Y-79292914D01*
X155704405Y-79292914D02*
X155752024Y-79197676D01*
X155752024Y-79197676D02*
X155847262Y-79102438D01*
X155847262Y-79102438D02*
X155990119Y-79054819D01*
X155990119Y-79054819D02*
X156085357Y-79054819D01*
X156085357Y-79054819D02*
X156228214Y-79102438D01*
X156228214Y-79102438D02*
X156275833Y-79150057D01*
X156656786Y-79150057D02*
X156704405Y-79102438D01*
X156704405Y-79102438D02*
X156799643Y-79054819D01*
X156799643Y-79054819D02*
X157037738Y-79054819D01*
X157037738Y-79054819D02*
X157132976Y-79102438D01*
X157132976Y-79102438D02*
X157180595Y-79150057D01*
X157180595Y-79150057D02*
X157228214Y-79245295D01*
X157228214Y-79245295D02*
X157228214Y-79340533D01*
X157228214Y-79340533D02*
X157180595Y-79483390D01*
X157180595Y-79483390D02*
X156609167Y-80054819D01*
X156609167Y-80054819D02*
X157228214Y-80054819D01*
X138533333Y-73224819D02*
X138200000Y-72748628D01*
X137961905Y-73224819D02*
X137961905Y-72224819D01*
X137961905Y-72224819D02*
X138342857Y-72224819D01*
X138342857Y-72224819D02*
X138438095Y-72272438D01*
X138438095Y-72272438D02*
X138485714Y-72320057D01*
X138485714Y-72320057D02*
X138533333Y-72415295D01*
X138533333Y-72415295D02*
X138533333Y-72558152D01*
X138533333Y-72558152D02*
X138485714Y-72653390D01*
X138485714Y-72653390D02*
X138438095Y-72701009D01*
X138438095Y-72701009D02*
X138342857Y-72748628D01*
X138342857Y-72748628D02*
X137961905Y-72748628D01*
X138914286Y-72320057D02*
X138961905Y-72272438D01*
X138961905Y-72272438D02*
X139057143Y-72224819D01*
X139057143Y-72224819D02*
X139295238Y-72224819D01*
X139295238Y-72224819D02*
X139390476Y-72272438D01*
X139390476Y-72272438D02*
X139438095Y-72320057D01*
X139438095Y-72320057D02*
X139485714Y-72415295D01*
X139485714Y-72415295D02*
X139485714Y-72510533D01*
X139485714Y-72510533D02*
X139438095Y-72653390D01*
X139438095Y-72653390D02*
X138866667Y-73224819D01*
X138866667Y-73224819D02*
X139485714Y-73224819D01*
X156718095Y-53374819D02*
X156718095Y-54184342D01*
X156718095Y-54184342D02*
X156765714Y-54279580D01*
X156765714Y-54279580D02*
X156813333Y-54327200D01*
X156813333Y-54327200D02*
X156908571Y-54374819D01*
X156908571Y-54374819D02*
X157099047Y-54374819D01*
X157099047Y-54374819D02*
X157194285Y-54327200D01*
X157194285Y-54327200D02*
X157241904Y-54279580D01*
X157241904Y-54279580D02*
X157289523Y-54184342D01*
X157289523Y-54184342D02*
X157289523Y-53374819D01*
X157670476Y-53374819D02*
X158289523Y-53374819D01*
X158289523Y-53374819D02*
X157956190Y-53755771D01*
X157956190Y-53755771D02*
X158099047Y-53755771D01*
X158099047Y-53755771D02*
X158194285Y-53803390D01*
X158194285Y-53803390D02*
X158241904Y-53851009D01*
X158241904Y-53851009D02*
X158289523Y-53946247D01*
X158289523Y-53946247D02*
X158289523Y-54184342D01*
X158289523Y-54184342D02*
X158241904Y-54279580D01*
X158241904Y-54279580D02*
X158194285Y-54327200D01*
X158194285Y-54327200D02*
X158099047Y-54374819D01*
X158099047Y-54374819D02*
X157813333Y-54374819D01*
X157813333Y-54374819D02*
X157718095Y-54327200D01*
X157718095Y-54327200D02*
X157670476Y-54279580D01*
X142144761Y-54700057D02*
X142049523Y-54652438D01*
X142049523Y-54652438D02*
X141954285Y-54557200D01*
X141954285Y-54557200D02*
X141811428Y-54414342D01*
X141811428Y-54414342D02*
X141716190Y-54366723D01*
X141716190Y-54366723D02*
X141620952Y-54366723D01*
X141668571Y-54604819D02*
X141573333Y-54557200D01*
X141573333Y-54557200D02*
X141478095Y-54461961D01*
X141478095Y-54461961D02*
X141430476Y-54271485D01*
X141430476Y-54271485D02*
X141430476Y-53938152D01*
X141430476Y-53938152D02*
X141478095Y-53747676D01*
X141478095Y-53747676D02*
X141573333Y-53652438D01*
X141573333Y-53652438D02*
X141668571Y-53604819D01*
X141668571Y-53604819D02*
X141859047Y-53604819D01*
X141859047Y-53604819D02*
X141954285Y-53652438D01*
X141954285Y-53652438D02*
X142049523Y-53747676D01*
X142049523Y-53747676D02*
X142097142Y-53938152D01*
X142097142Y-53938152D02*
X142097142Y-54271485D01*
X142097142Y-54271485D02*
X142049523Y-54461961D01*
X142049523Y-54461961D02*
X141954285Y-54557200D01*
X141954285Y-54557200D02*
X141859047Y-54604819D01*
X141859047Y-54604819D02*
X141668571Y-54604819D01*
X143049523Y-54604819D02*
X142478095Y-54604819D01*
X142763809Y-54604819D02*
X142763809Y-53604819D01*
X142763809Y-53604819D02*
X142668571Y-53747676D01*
X142668571Y-53747676D02*
X142573333Y-53842914D01*
X142573333Y-53842914D02*
X142478095Y-53890533D01*
X151204819Y-91153094D02*
X150204819Y-91153094D01*
X150204819Y-91153094D02*
X150204819Y-90914999D01*
X150204819Y-90914999D02*
X150252438Y-90772142D01*
X150252438Y-90772142D02*
X150347676Y-90676904D01*
X150347676Y-90676904D02*
X150442914Y-90629285D01*
X150442914Y-90629285D02*
X150633390Y-90581666D01*
X150633390Y-90581666D02*
X150776247Y-90581666D01*
X150776247Y-90581666D02*
X150966723Y-90629285D01*
X150966723Y-90629285D02*
X151061961Y-90676904D01*
X151061961Y-90676904D02*
X151157200Y-90772142D01*
X151157200Y-90772142D02*
X151204819Y-90914999D01*
X151204819Y-90914999D02*
X151204819Y-91153094D01*
X150300057Y-90200713D02*
X150252438Y-90153094D01*
X150252438Y-90153094D02*
X150204819Y-90057856D01*
X150204819Y-90057856D02*
X150204819Y-89819761D01*
X150204819Y-89819761D02*
X150252438Y-89724523D01*
X150252438Y-89724523D02*
X150300057Y-89676904D01*
X150300057Y-89676904D02*
X150395295Y-89629285D01*
X150395295Y-89629285D02*
X150490533Y-89629285D01*
X150490533Y-89629285D02*
X150633390Y-89676904D01*
X150633390Y-89676904D02*
X151204819Y-90248332D01*
X151204819Y-90248332D02*
X151204819Y-89629285D01*
X146124819Y-91153094D02*
X145124819Y-91153094D01*
X145124819Y-91153094D02*
X145124819Y-90914999D01*
X145124819Y-90914999D02*
X145172438Y-90772142D01*
X145172438Y-90772142D02*
X145267676Y-90676904D01*
X145267676Y-90676904D02*
X145362914Y-90629285D01*
X145362914Y-90629285D02*
X145553390Y-90581666D01*
X145553390Y-90581666D02*
X145696247Y-90581666D01*
X145696247Y-90581666D02*
X145886723Y-90629285D01*
X145886723Y-90629285D02*
X145981961Y-90676904D01*
X145981961Y-90676904D02*
X146077200Y-90772142D01*
X146077200Y-90772142D02*
X146124819Y-90914999D01*
X146124819Y-90914999D02*
X146124819Y-91153094D01*
X145124819Y-90248332D02*
X145124819Y-89629285D01*
X145124819Y-89629285D02*
X145505771Y-89962618D01*
X145505771Y-89962618D02*
X145505771Y-89819761D01*
X145505771Y-89819761D02*
X145553390Y-89724523D01*
X145553390Y-89724523D02*
X145601009Y-89676904D01*
X145601009Y-89676904D02*
X145696247Y-89629285D01*
X145696247Y-89629285D02*
X145934342Y-89629285D01*
X145934342Y-89629285D02*
X146029580Y-89676904D01*
X146029580Y-89676904D02*
X146077200Y-89724523D01*
X146077200Y-89724523D02*
X146124819Y-89819761D01*
X146124819Y-89819761D02*
X146124819Y-90105475D01*
X146124819Y-90105475D02*
X146077200Y-90200713D01*
X146077200Y-90200713D02*
X146029580Y-90248332D01*
X127936666Y-94454819D02*
X127936666Y-95169104D01*
X127936666Y-95169104D02*
X127889047Y-95311961D01*
X127889047Y-95311961D02*
X127793809Y-95407200D01*
X127793809Y-95407200D02*
X127650952Y-95454819D01*
X127650952Y-95454819D02*
X127555714Y-95454819D01*
X128841428Y-94788152D02*
X128841428Y-95454819D01*
X128603333Y-94407200D02*
X128365238Y-95121485D01*
X128365238Y-95121485D02*
X128984285Y-95121485D01*
X155186191Y-77194819D02*
X155519524Y-78194819D01*
X155519524Y-78194819D02*
X155852857Y-77194819D01*
X156186191Y-78194819D02*
X156186191Y-77528152D01*
X156186191Y-77194819D02*
X156138572Y-77242438D01*
X156138572Y-77242438D02*
X156186191Y-77290057D01*
X156186191Y-77290057D02*
X156233810Y-77242438D01*
X156233810Y-77242438D02*
X156186191Y-77194819D01*
X156186191Y-77194819D02*
X156186191Y-77290057D01*
X156662381Y-77528152D02*
X156662381Y-78194819D01*
X156662381Y-77623390D02*
X156710000Y-77575771D01*
X156710000Y-77575771D02*
X156805238Y-77528152D01*
X156805238Y-77528152D02*
X156948095Y-77528152D01*
X156948095Y-77528152D02*
X157043333Y-77575771D01*
X157043333Y-77575771D02*
X157090952Y-77671009D01*
X157090952Y-77671009D02*
X157090952Y-78194819D01*
X154559048Y-73733866D02*
X155320953Y-73733866D01*
X154559048Y-73733866D02*
X155320953Y-73733866D01*
X154940000Y-74114819D02*
X154940000Y-73352914D01*
X121753333Y-68144819D02*
X121420000Y-67668628D01*
X121181905Y-68144819D02*
X121181905Y-67144819D01*
X121181905Y-67144819D02*
X121562857Y-67144819D01*
X121562857Y-67144819D02*
X121658095Y-67192438D01*
X121658095Y-67192438D02*
X121705714Y-67240057D01*
X121705714Y-67240057D02*
X121753333Y-67335295D01*
X121753333Y-67335295D02*
X121753333Y-67478152D01*
X121753333Y-67478152D02*
X121705714Y-67573390D01*
X121705714Y-67573390D02*
X121658095Y-67621009D01*
X121658095Y-67621009D02*
X121562857Y-67668628D01*
X121562857Y-67668628D02*
X121181905Y-67668628D01*
X122705714Y-68144819D02*
X122134286Y-68144819D01*
X122420000Y-68144819D02*
X122420000Y-67144819D01*
X122420000Y-67144819D02*
X122324762Y-67287676D01*
X122324762Y-67287676D02*
X122229524Y-67382914D01*
X122229524Y-67382914D02*
X122134286Y-67430533D01*
X110053333Y-82624819D02*
X109720000Y-82148628D01*
X109481905Y-82624819D02*
X109481905Y-81624819D01*
X109481905Y-81624819D02*
X109862857Y-81624819D01*
X109862857Y-81624819D02*
X109958095Y-81672438D01*
X109958095Y-81672438D02*
X110005714Y-81720057D01*
X110005714Y-81720057D02*
X110053333Y-81815295D01*
X110053333Y-81815295D02*
X110053333Y-81958152D01*
X110053333Y-81958152D02*
X110005714Y-82053390D01*
X110005714Y-82053390D02*
X109958095Y-82101009D01*
X109958095Y-82101009D02*
X109862857Y-82148628D01*
X109862857Y-82148628D02*
X109481905Y-82148628D01*
X110910476Y-81958152D02*
X110910476Y-82624819D01*
X110672381Y-81577200D02*
X110434286Y-82291485D01*
X110434286Y-82291485D02*
X111053333Y-82291485D01*
X132588095Y-41584819D02*
X132588095Y-42394342D01*
X132588095Y-42394342D02*
X132635714Y-42489580D01*
X132635714Y-42489580D02*
X132683333Y-42537200D01*
X132683333Y-42537200D02*
X132778571Y-42584819D01*
X132778571Y-42584819D02*
X132969047Y-42584819D01*
X132969047Y-42584819D02*
X133064285Y-42537200D01*
X133064285Y-42537200D02*
X133111904Y-42489580D01*
X133111904Y-42489580D02*
X133159523Y-42394342D01*
X133159523Y-42394342D02*
X133159523Y-41584819D01*
X133588095Y-41680057D02*
X133635714Y-41632438D01*
X133635714Y-41632438D02*
X133730952Y-41584819D01*
X133730952Y-41584819D02*
X133969047Y-41584819D01*
X133969047Y-41584819D02*
X134064285Y-41632438D01*
X134064285Y-41632438D02*
X134111904Y-41680057D01*
X134111904Y-41680057D02*
X134159523Y-41775295D01*
X134159523Y-41775295D02*
X134159523Y-41870533D01*
X134159523Y-41870533D02*
X134111904Y-42013390D01*
X134111904Y-42013390D02*
X133540476Y-42584819D01*
X133540476Y-42584819D02*
X134159523Y-42584819D01*
X102259048Y-80464819D02*
X102259048Y-79464819D01*
X102259048Y-79464819D02*
X102497143Y-79464819D01*
X102497143Y-79464819D02*
X102640000Y-79512438D01*
X102640000Y-79512438D02*
X102735238Y-79607676D01*
X102735238Y-79607676D02*
X102782857Y-79702914D01*
X102782857Y-79702914D02*
X102830476Y-79893390D01*
X102830476Y-79893390D02*
X102830476Y-80036247D01*
X102830476Y-80036247D02*
X102782857Y-80226723D01*
X102782857Y-80226723D02*
X102735238Y-80321961D01*
X102735238Y-80321961D02*
X102640000Y-80417200D01*
X102640000Y-80417200D02*
X102497143Y-80464819D01*
X102497143Y-80464819D02*
X102259048Y-80464819D01*
X103163810Y-79464819D02*
X103401905Y-80464819D01*
X103401905Y-80464819D02*
X103592381Y-79750533D01*
X103592381Y-79750533D02*
X103782857Y-80464819D01*
X103782857Y-80464819D02*
X104020953Y-79464819D01*
X104401905Y-80464819D02*
X104401905Y-79464819D01*
X104401905Y-79464819D02*
X104735238Y-80179104D01*
X104735238Y-80179104D02*
X105068571Y-79464819D01*
X105068571Y-79464819D02*
X105068571Y-80464819D01*
X106068571Y-80464819D02*
X105497143Y-80464819D01*
X105782857Y-80464819D02*
X105782857Y-79464819D01*
X105782857Y-79464819D02*
X105687619Y-79607676D01*
X105687619Y-79607676D02*
X105592381Y-79702914D01*
X105592381Y-79702914D02*
X105497143Y-79750533D01*
X138533333Y-67384819D02*
X138200000Y-66908628D01*
X137961905Y-67384819D02*
X137961905Y-66384819D01*
X137961905Y-66384819D02*
X138342857Y-66384819D01*
X138342857Y-66384819D02*
X138438095Y-66432438D01*
X138438095Y-66432438D02*
X138485714Y-66480057D01*
X138485714Y-66480057D02*
X138533333Y-66575295D01*
X138533333Y-66575295D02*
X138533333Y-66718152D01*
X138533333Y-66718152D02*
X138485714Y-66813390D01*
X138485714Y-66813390D02*
X138438095Y-66861009D01*
X138438095Y-66861009D02*
X138342857Y-66908628D01*
X138342857Y-66908628D02*
X137961905Y-66908628D01*
X138866667Y-66384819D02*
X139485714Y-66384819D01*
X139485714Y-66384819D02*
X139152381Y-66765771D01*
X139152381Y-66765771D02*
X139295238Y-66765771D01*
X139295238Y-66765771D02*
X139390476Y-66813390D01*
X139390476Y-66813390D02*
X139438095Y-66861009D01*
X139438095Y-66861009D02*
X139485714Y-66956247D01*
X139485714Y-66956247D02*
X139485714Y-67194342D01*
X139485714Y-67194342D02*
X139438095Y-67289580D01*
X139438095Y-67289580D02*
X139390476Y-67337200D01*
X139390476Y-67337200D02*
X139295238Y-67384819D01*
X139295238Y-67384819D02*
X139009524Y-67384819D01*
X139009524Y-67384819D02*
X138914286Y-67337200D01*
X138914286Y-67337200D02*
X138866667Y-67289580D01*
X141232380Y-48652438D02*
X141137142Y-48604819D01*
X141137142Y-48604819D02*
X140994285Y-48604819D01*
X140994285Y-48604819D02*
X140851428Y-48652438D01*
X140851428Y-48652438D02*
X140756190Y-48747676D01*
X140756190Y-48747676D02*
X140708571Y-48842914D01*
X140708571Y-48842914D02*
X140660952Y-49033390D01*
X140660952Y-49033390D02*
X140660952Y-49176247D01*
X140660952Y-49176247D02*
X140708571Y-49366723D01*
X140708571Y-49366723D02*
X140756190Y-49461961D01*
X140756190Y-49461961D02*
X140851428Y-49557200D01*
X140851428Y-49557200D02*
X140994285Y-49604819D01*
X140994285Y-49604819D02*
X141089523Y-49604819D01*
X141089523Y-49604819D02*
X141232380Y-49557200D01*
X141232380Y-49557200D02*
X141279999Y-49509580D01*
X141279999Y-49509580D02*
X141279999Y-49176247D01*
X141279999Y-49176247D02*
X141089523Y-49176247D01*
X142137142Y-49604819D02*
X142137142Y-49081009D01*
X142137142Y-49081009D02*
X142089523Y-48985771D01*
X142089523Y-48985771D02*
X141994285Y-48938152D01*
X141994285Y-48938152D02*
X141803809Y-48938152D01*
X141803809Y-48938152D02*
X141708571Y-48985771D01*
X142137142Y-49557200D02*
X142041904Y-49604819D01*
X142041904Y-49604819D02*
X141803809Y-49604819D01*
X141803809Y-49604819D02*
X141708571Y-49557200D01*
X141708571Y-49557200D02*
X141660952Y-49461961D01*
X141660952Y-49461961D02*
X141660952Y-49366723D01*
X141660952Y-49366723D02*
X141708571Y-49271485D01*
X141708571Y-49271485D02*
X141803809Y-49223866D01*
X141803809Y-49223866D02*
X142041904Y-49223866D01*
X142041904Y-49223866D02*
X142137142Y-49176247D01*
X142470476Y-48938152D02*
X142851428Y-48938152D01*
X142613333Y-48604819D02*
X142613333Y-49461961D01*
X142613333Y-49461961D02*
X142660952Y-49557200D01*
X142660952Y-49557200D02*
X142756190Y-49604819D01*
X142756190Y-49604819D02*
X142851428Y-49604819D01*
X143565714Y-49557200D02*
X143470476Y-49604819D01*
X143470476Y-49604819D02*
X143280000Y-49604819D01*
X143280000Y-49604819D02*
X143184762Y-49557200D01*
X143184762Y-49557200D02*
X143137143Y-49461961D01*
X143137143Y-49461961D02*
X143137143Y-49081009D01*
X143137143Y-49081009D02*
X143184762Y-48985771D01*
X143184762Y-48985771D02*
X143280000Y-48938152D01*
X143280000Y-48938152D02*
X143470476Y-48938152D01*
X143470476Y-48938152D02*
X143565714Y-48985771D01*
X143565714Y-48985771D02*
X143613333Y-49081009D01*
X143613333Y-49081009D02*
X143613333Y-49176247D01*
X143613333Y-49176247D02*
X143137143Y-49271485D01*
X144041905Y-49223866D02*
X144803810Y-49223866D01*
X145280000Y-49604819D02*
X145280000Y-48604819D01*
X145280000Y-48985771D02*
X145375238Y-48938152D01*
X145375238Y-48938152D02*
X145565714Y-48938152D01*
X145565714Y-48938152D02*
X145660952Y-48985771D01*
X145660952Y-48985771D02*
X145708571Y-49033390D01*
X145708571Y-49033390D02*
X145756190Y-49128628D01*
X145756190Y-49128628D02*
X145756190Y-49414342D01*
X145756190Y-49414342D02*
X145708571Y-49509580D01*
X145708571Y-49509580D02*
X145660952Y-49557200D01*
X145660952Y-49557200D02*
X145565714Y-49604819D01*
X145565714Y-49604819D02*
X145375238Y-49604819D01*
X145375238Y-49604819D02*
X145280000Y-49557200D01*
X146184762Y-49604819D02*
X146184762Y-48938152D01*
X146184762Y-48604819D02*
X146137143Y-48652438D01*
X146137143Y-48652438D02*
X146184762Y-48700057D01*
X146184762Y-48700057D02*
X146232381Y-48652438D01*
X146232381Y-48652438D02*
X146184762Y-48604819D01*
X146184762Y-48604819D02*
X146184762Y-48700057D01*
X147089523Y-49604819D02*
X147089523Y-49081009D01*
X147089523Y-49081009D02*
X147041904Y-48985771D01*
X147041904Y-48985771D02*
X146946666Y-48938152D01*
X146946666Y-48938152D02*
X146756190Y-48938152D01*
X146756190Y-48938152D02*
X146660952Y-48985771D01*
X147089523Y-49557200D02*
X146994285Y-49604819D01*
X146994285Y-49604819D02*
X146756190Y-49604819D01*
X146756190Y-49604819D02*
X146660952Y-49557200D01*
X146660952Y-49557200D02*
X146613333Y-49461961D01*
X146613333Y-49461961D02*
X146613333Y-49366723D01*
X146613333Y-49366723D02*
X146660952Y-49271485D01*
X146660952Y-49271485D02*
X146756190Y-49223866D01*
X146756190Y-49223866D02*
X146994285Y-49223866D01*
X146994285Y-49223866D02*
X147089523Y-49176247D01*
X147518095Y-49557200D02*
X147613333Y-49604819D01*
X147613333Y-49604819D02*
X147803809Y-49604819D01*
X147803809Y-49604819D02*
X147899047Y-49557200D01*
X147899047Y-49557200D02*
X147946666Y-49461961D01*
X147946666Y-49461961D02*
X147946666Y-49414342D01*
X147946666Y-49414342D02*
X147899047Y-49319104D01*
X147899047Y-49319104D02*
X147803809Y-49271485D01*
X147803809Y-49271485D02*
X147660952Y-49271485D01*
X147660952Y-49271485D02*
X147565714Y-49223866D01*
X147565714Y-49223866D02*
X147518095Y-49128628D01*
X147518095Y-49128628D02*
X147518095Y-49081009D01*
X147518095Y-49081009D02*
X147565714Y-48985771D01*
X147565714Y-48985771D02*
X147660952Y-48938152D01*
X147660952Y-48938152D02*
X147803809Y-48938152D01*
X147803809Y-48938152D02*
X147899047Y-48985771D01*
X148899047Y-49604819D02*
X148327619Y-49604819D01*
X148613333Y-49604819D02*
X148613333Y-48604819D01*
X148613333Y-48604819D02*
X148518095Y-48747676D01*
X148518095Y-48747676D02*
X148422857Y-48842914D01*
X148422857Y-48842914D02*
X148327619Y-48890533D01*
X128713095Y-62754819D02*
X128713095Y-63564342D01*
X128713095Y-63564342D02*
X128760714Y-63659580D01*
X128760714Y-63659580D02*
X128808333Y-63707200D01*
X128808333Y-63707200D02*
X128903571Y-63754819D01*
X128903571Y-63754819D02*
X129094047Y-63754819D01*
X129094047Y-63754819D02*
X129189285Y-63707200D01*
X129189285Y-63707200D02*
X129236904Y-63659580D01*
X129236904Y-63659580D02*
X129284523Y-63564342D01*
X129284523Y-63564342D02*
X129284523Y-62754819D01*
X130189285Y-63088152D02*
X130189285Y-63754819D01*
X129951190Y-62707200D02*
X129713095Y-63421485D01*
X129713095Y-63421485D02*
X130332142Y-63421485D01*
X135104761Y-62304819D02*
X135104761Y-61304819D01*
X135104761Y-61304819D02*
X135485713Y-61304819D01*
X135485713Y-61304819D02*
X135580951Y-61352438D01*
X135580951Y-61352438D02*
X135628570Y-61400057D01*
X135628570Y-61400057D02*
X135676189Y-61495295D01*
X135676189Y-61495295D02*
X135676189Y-61638152D01*
X135676189Y-61638152D02*
X135628570Y-61733390D01*
X135628570Y-61733390D02*
X135580951Y-61781009D01*
X135580951Y-61781009D02*
X135485713Y-61828628D01*
X135485713Y-61828628D02*
X135104761Y-61828628D01*
X136533332Y-61638152D02*
X136533332Y-62304819D01*
X136104761Y-61638152D02*
X136104761Y-62161961D01*
X136104761Y-62161961D02*
X136152380Y-62257200D01*
X136152380Y-62257200D02*
X136247618Y-62304819D01*
X136247618Y-62304819D02*
X136390475Y-62304819D01*
X136390475Y-62304819D02*
X136485713Y-62257200D01*
X136485713Y-62257200D02*
X136533332Y-62209580D01*
X137152380Y-62304819D02*
X137057142Y-62257200D01*
X137057142Y-62257200D02*
X137009523Y-62161961D01*
X137009523Y-62161961D02*
X137009523Y-61304819D01*
X137676190Y-62304819D02*
X137580952Y-62257200D01*
X137580952Y-62257200D02*
X137533333Y-62161961D01*
X137533333Y-62161961D02*
X137533333Y-61304819D01*
X138485714Y-62304819D02*
X138485714Y-61304819D01*
X138485714Y-62257200D02*
X138390476Y-62304819D01*
X138390476Y-62304819D02*
X138200000Y-62304819D01*
X138200000Y-62304819D02*
X138104762Y-62257200D01*
X138104762Y-62257200D02*
X138057143Y-62209580D01*
X138057143Y-62209580D02*
X138009524Y-62114342D01*
X138009524Y-62114342D02*
X138009524Y-61828628D01*
X138009524Y-61828628D02*
X138057143Y-61733390D01*
X138057143Y-61733390D02*
X138104762Y-61685771D01*
X138104762Y-61685771D02*
X138200000Y-61638152D01*
X138200000Y-61638152D02*
X138390476Y-61638152D01*
X138390476Y-61638152D02*
X138485714Y-61685771D01*
X139104762Y-62304819D02*
X139009524Y-62257200D01*
X139009524Y-62257200D02*
X138961905Y-62209580D01*
X138961905Y-62209580D02*
X138914286Y-62114342D01*
X138914286Y-62114342D02*
X138914286Y-61828628D01*
X138914286Y-61828628D02*
X138961905Y-61733390D01*
X138961905Y-61733390D02*
X139009524Y-61685771D01*
X139009524Y-61685771D02*
X139104762Y-61638152D01*
X139104762Y-61638152D02*
X139247619Y-61638152D01*
X139247619Y-61638152D02*
X139342857Y-61685771D01*
X139342857Y-61685771D02*
X139390476Y-61733390D01*
X139390476Y-61733390D02*
X139438095Y-61828628D01*
X139438095Y-61828628D02*
X139438095Y-62114342D01*
X139438095Y-62114342D02*
X139390476Y-62209580D01*
X139390476Y-62209580D02*
X139342857Y-62257200D01*
X139342857Y-62257200D02*
X139247619Y-62304819D01*
X139247619Y-62304819D02*
X139104762Y-62304819D01*
X139771429Y-61638152D02*
X139961905Y-62304819D01*
X139961905Y-62304819D02*
X140152381Y-61828628D01*
X140152381Y-61828628D02*
X140342857Y-62304819D01*
X140342857Y-62304819D02*
X140533333Y-61638152D01*
X140914286Y-61638152D02*
X140914286Y-62304819D01*
X140914286Y-61733390D02*
X140961905Y-61685771D01*
X140961905Y-61685771D02*
X141057143Y-61638152D01*
X141057143Y-61638152D02*
X141200000Y-61638152D01*
X141200000Y-61638152D02*
X141295238Y-61685771D01*
X141295238Y-61685771D02*
X141342857Y-61781009D01*
X141342857Y-61781009D02*
X141342857Y-62304819D01*
X142342857Y-62304819D02*
X141771429Y-62304819D01*
X142057143Y-62304819D02*
X142057143Y-61304819D01*
X142057143Y-61304819D02*
X141961905Y-61447676D01*
X141961905Y-61447676D02*
X141866667Y-61542914D01*
X141866667Y-61542914D02*
X141771429Y-61590533D01*
X155810833Y-64719580D02*
X155763214Y-64767200D01*
X155763214Y-64767200D02*
X155620357Y-64814819D01*
X155620357Y-64814819D02*
X155525119Y-64814819D01*
X155525119Y-64814819D02*
X155382262Y-64767200D01*
X155382262Y-64767200D02*
X155287024Y-64671961D01*
X155287024Y-64671961D02*
X155239405Y-64576723D01*
X155239405Y-64576723D02*
X155191786Y-64386247D01*
X155191786Y-64386247D02*
X155191786Y-64243390D01*
X155191786Y-64243390D02*
X155239405Y-64052914D01*
X155239405Y-64052914D02*
X155287024Y-63957676D01*
X155287024Y-63957676D02*
X155382262Y-63862438D01*
X155382262Y-63862438D02*
X155525119Y-63814819D01*
X155525119Y-63814819D02*
X155620357Y-63814819D01*
X155620357Y-63814819D02*
X155763214Y-63862438D01*
X155763214Y-63862438D02*
X155810833Y-63910057D01*
X156763214Y-64814819D02*
X156191786Y-64814819D01*
X156477500Y-64814819D02*
X156477500Y-63814819D01*
X156477500Y-63814819D02*
X156382262Y-63957676D01*
X156382262Y-63957676D02*
X156287024Y-64052914D01*
X156287024Y-64052914D02*
X156191786Y-64100533D01*
X138495833Y-74879580D02*
X138448214Y-74927200D01*
X138448214Y-74927200D02*
X138305357Y-74974819D01*
X138305357Y-74974819D02*
X138210119Y-74974819D01*
X138210119Y-74974819D02*
X138067262Y-74927200D01*
X138067262Y-74927200D02*
X137972024Y-74831961D01*
X137972024Y-74831961D02*
X137924405Y-74736723D01*
X137924405Y-74736723D02*
X137876786Y-74546247D01*
X137876786Y-74546247D02*
X137876786Y-74403390D01*
X137876786Y-74403390D02*
X137924405Y-74212914D01*
X137924405Y-74212914D02*
X137972024Y-74117676D01*
X137972024Y-74117676D02*
X138067262Y-74022438D01*
X138067262Y-74022438D02*
X138210119Y-73974819D01*
X138210119Y-73974819D02*
X138305357Y-73974819D01*
X138305357Y-73974819D02*
X138448214Y-74022438D01*
X138448214Y-74022438D02*
X138495833Y-74070057D01*
X138829167Y-73974819D02*
X139448214Y-73974819D01*
X139448214Y-73974819D02*
X139114881Y-74355771D01*
X139114881Y-74355771D02*
X139257738Y-74355771D01*
X139257738Y-74355771D02*
X139352976Y-74403390D01*
X139352976Y-74403390D02*
X139400595Y-74451009D01*
X139400595Y-74451009D02*
X139448214Y-74546247D01*
X139448214Y-74546247D02*
X139448214Y-74784342D01*
X139448214Y-74784342D02*
X139400595Y-74879580D01*
X139400595Y-74879580D02*
X139352976Y-74927200D01*
X139352976Y-74927200D02*
X139257738Y-74974819D01*
X139257738Y-74974819D02*
X138972024Y-74974819D01*
X138972024Y-74974819D02*
X138876786Y-74927200D01*
X138876786Y-74927200D02*
X138829167Y-74879580D01*
X111021905Y-87354819D02*
X111021905Y-86354819D01*
X111021905Y-86354819D02*
X111260000Y-86354819D01*
X111260000Y-86354819D02*
X111402857Y-86402438D01*
X111402857Y-86402438D02*
X111498095Y-86497676D01*
X111498095Y-86497676D02*
X111545714Y-86592914D01*
X111545714Y-86592914D02*
X111593333Y-86783390D01*
X111593333Y-86783390D02*
X111593333Y-86926247D01*
X111593333Y-86926247D02*
X111545714Y-87116723D01*
X111545714Y-87116723D02*
X111498095Y-87211961D01*
X111498095Y-87211961D02*
X111402857Y-87307200D01*
X111402857Y-87307200D02*
X111260000Y-87354819D01*
X111260000Y-87354819D02*
X111021905Y-87354819D01*
X112545714Y-87354819D02*
X111974286Y-87354819D01*
X112260000Y-87354819D02*
X112260000Y-86354819D01*
X112260000Y-86354819D02*
X112164762Y-86497676D01*
X112164762Y-86497676D02*
X112069524Y-86592914D01*
X112069524Y-86592914D02*
X111974286Y-86640533D01*
X114919999Y-52144819D02*
X114919999Y-51144819D01*
X114919999Y-51144819D02*
X115300951Y-51144819D01*
X115300951Y-51144819D02*
X115396189Y-51192438D01*
X115396189Y-51192438D02*
X115443808Y-51240057D01*
X115443808Y-51240057D02*
X115491427Y-51335295D01*
X115491427Y-51335295D02*
X115491427Y-51478152D01*
X115491427Y-51478152D02*
X115443808Y-51573390D01*
X115443808Y-51573390D02*
X115396189Y-51621009D01*
X115396189Y-51621009D02*
X115300951Y-51668628D01*
X115300951Y-51668628D02*
X114919999Y-51668628D01*
X115919999Y-52144819D02*
X115919999Y-51478152D01*
X115919999Y-51668628D02*
X115967618Y-51573390D01*
X115967618Y-51573390D02*
X116015237Y-51525771D01*
X116015237Y-51525771D02*
X116110475Y-51478152D01*
X116110475Y-51478152D02*
X116205713Y-51478152D01*
X116919999Y-52097200D02*
X116824761Y-52144819D01*
X116824761Y-52144819D02*
X116634285Y-52144819D01*
X116634285Y-52144819D02*
X116539047Y-52097200D01*
X116539047Y-52097200D02*
X116491428Y-52001961D01*
X116491428Y-52001961D02*
X116491428Y-51621009D01*
X116491428Y-51621009D02*
X116539047Y-51525771D01*
X116539047Y-51525771D02*
X116634285Y-51478152D01*
X116634285Y-51478152D02*
X116824761Y-51478152D01*
X116824761Y-51478152D02*
X116919999Y-51525771D01*
X116919999Y-51525771D02*
X116967618Y-51621009D01*
X116967618Y-51621009D02*
X116967618Y-51716247D01*
X116967618Y-51716247D02*
X116491428Y-51811485D01*
X117348571Y-52097200D02*
X117443809Y-52144819D01*
X117443809Y-52144819D02*
X117634285Y-52144819D01*
X117634285Y-52144819D02*
X117729523Y-52097200D01*
X117729523Y-52097200D02*
X117777142Y-52001961D01*
X117777142Y-52001961D02*
X117777142Y-51954342D01*
X117777142Y-51954342D02*
X117729523Y-51859104D01*
X117729523Y-51859104D02*
X117634285Y-51811485D01*
X117634285Y-51811485D02*
X117491428Y-51811485D01*
X117491428Y-51811485D02*
X117396190Y-51763866D01*
X117396190Y-51763866D02*
X117348571Y-51668628D01*
X117348571Y-51668628D02*
X117348571Y-51621009D01*
X117348571Y-51621009D02*
X117396190Y-51525771D01*
X117396190Y-51525771D02*
X117491428Y-51478152D01*
X117491428Y-51478152D02*
X117634285Y-51478152D01*
X117634285Y-51478152D02*
X117729523Y-51525771D01*
X118158095Y-52097200D02*
X118253333Y-52144819D01*
X118253333Y-52144819D02*
X118443809Y-52144819D01*
X118443809Y-52144819D02*
X118539047Y-52097200D01*
X118539047Y-52097200D02*
X118586666Y-52001961D01*
X118586666Y-52001961D02*
X118586666Y-51954342D01*
X118586666Y-51954342D02*
X118539047Y-51859104D01*
X118539047Y-51859104D02*
X118443809Y-51811485D01*
X118443809Y-51811485D02*
X118300952Y-51811485D01*
X118300952Y-51811485D02*
X118205714Y-51763866D01*
X118205714Y-51763866D02*
X118158095Y-51668628D01*
X118158095Y-51668628D02*
X118158095Y-51621009D01*
X118158095Y-51621009D02*
X118205714Y-51525771D01*
X118205714Y-51525771D02*
X118300952Y-51478152D01*
X118300952Y-51478152D02*
X118443809Y-51478152D01*
X118443809Y-51478152D02*
X118539047Y-51525771D01*
X119443809Y-51478152D02*
X119443809Y-52144819D01*
X119015238Y-51478152D02*
X119015238Y-52001961D01*
X119015238Y-52001961D02*
X119062857Y-52097200D01*
X119062857Y-52097200D02*
X119158095Y-52144819D01*
X119158095Y-52144819D02*
X119300952Y-52144819D01*
X119300952Y-52144819D02*
X119396190Y-52097200D01*
X119396190Y-52097200D02*
X119443809Y-52049580D01*
X119920000Y-52144819D02*
X119920000Y-51478152D01*
X119920000Y-51668628D02*
X119967619Y-51573390D01*
X119967619Y-51573390D02*
X120015238Y-51525771D01*
X120015238Y-51525771D02*
X120110476Y-51478152D01*
X120110476Y-51478152D02*
X120205714Y-51478152D01*
X120920000Y-52097200D02*
X120824762Y-52144819D01*
X120824762Y-52144819D02*
X120634286Y-52144819D01*
X120634286Y-52144819D02*
X120539048Y-52097200D01*
X120539048Y-52097200D02*
X120491429Y-52001961D01*
X120491429Y-52001961D02*
X120491429Y-51621009D01*
X120491429Y-51621009D02*
X120539048Y-51525771D01*
X120539048Y-51525771D02*
X120634286Y-51478152D01*
X120634286Y-51478152D02*
X120824762Y-51478152D01*
X120824762Y-51478152D02*
X120920000Y-51525771D01*
X120920000Y-51525771D02*
X120967619Y-51621009D01*
X120967619Y-51621009D02*
X120967619Y-51716247D01*
X120967619Y-51716247D02*
X120491429Y-51811485D01*
X121348572Y-52097200D02*
X121491429Y-52144819D01*
X121491429Y-52144819D02*
X121729524Y-52144819D01*
X121729524Y-52144819D02*
X121824762Y-52097200D01*
X121824762Y-52097200D02*
X121872381Y-52049580D01*
X121872381Y-52049580D02*
X121920000Y-51954342D01*
X121920000Y-51954342D02*
X121920000Y-51859104D01*
X121920000Y-51859104D02*
X121872381Y-51763866D01*
X121872381Y-51763866D02*
X121824762Y-51716247D01*
X121824762Y-51716247D02*
X121729524Y-51668628D01*
X121729524Y-51668628D02*
X121539048Y-51621009D01*
X121539048Y-51621009D02*
X121443810Y-51573390D01*
X121443810Y-51573390D02*
X121396191Y-51525771D01*
X121396191Y-51525771D02*
X121348572Y-51430533D01*
X121348572Y-51430533D02*
X121348572Y-51335295D01*
X121348572Y-51335295D02*
X121396191Y-51240057D01*
X121396191Y-51240057D02*
X121443810Y-51192438D01*
X121443810Y-51192438D02*
X121539048Y-51144819D01*
X121539048Y-51144819D02*
X121777143Y-51144819D01*
X121777143Y-51144819D02*
X121920000Y-51192438D01*
X122729524Y-52097200D02*
X122634286Y-52144819D01*
X122634286Y-52144819D02*
X122443810Y-52144819D01*
X122443810Y-52144819D02*
X122348572Y-52097200D01*
X122348572Y-52097200D02*
X122300953Y-52001961D01*
X122300953Y-52001961D02*
X122300953Y-51621009D01*
X122300953Y-51621009D02*
X122348572Y-51525771D01*
X122348572Y-51525771D02*
X122443810Y-51478152D01*
X122443810Y-51478152D02*
X122634286Y-51478152D01*
X122634286Y-51478152D02*
X122729524Y-51525771D01*
X122729524Y-51525771D02*
X122777143Y-51621009D01*
X122777143Y-51621009D02*
X122777143Y-51716247D01*
X122777143Y-51716247D02*
X122300953Y-51811485D01*
X123205715Y-51478152D02*
X123205715Y-52144819D01*
X123205715Y-51573390D02*
X123253334Y-51525771D01*
X123253334Y-51525771D02*
X123348572Y-51478152D01*
X123348572Y-51478152D02*
X123491429Y-51478152D01*
X123491429Y-51478152D02*
X123586667Y-51525771D01*
X123586667Y-51525771D02*
X123634286Y-51621009D01*
X123634286Y-51621009D02*
X123634286Y-52144819D01*
X124062858Y-52097200D02*
X124158096Y-52144819D01*
X124158096Y-52144819D02*
X124348572Y-52144819D01*
X124348572Y-52144819D02*
X124443810Y-52097200D01*
X124443810Y-52097200D02*
X124491429Y-52001961D01*
X124491429Y-52001961D02*
X124491429Y-51954342D01*
X124491429Y-51954342D02*
X124443810Y-51859104D01*
X124443810Y-51859104D02*
X124348572Y-51811485D01*
X124348572Y-51811485D02*
X124205715Y-51811485D01*
X124205715Y-51811485D02*
X124110477Y-51763866D01*
X124110477Y-51763866D02*
X124062858Y-51668628D01*
X124062858Y-51668628D02*
X124062858Y-51621009D01*
X124062858Y-51621009D02*
X124110477Y-51525771D01*
X124110477Y-51525771D02*
X124205715Y-51478152D01*
X124205715Y-51478152D02*
X124348572Y-51478152D01*
X124348572Y-51478152D02*
X124443810Y-51525771D01*
X125062858Y-52144819D02*
X124967620Y-52097200D01*
X124967620Y-52097200D02*
X124920001Y-52049580D01*
X124920001Y-52049580D02*
X124872382Y-51954342D01*
X124872382Y-51954342D02*
X124872382Y-51668628D01*
X124872382Y-51668628D02*
X124920001Y-51573390D01*
X124920001Y-51573390D02*
X124967620Y-51525771D01*
X124967620Y-51525771D02*
X125062858Y-51478152D01*
X125062858Y-51478152D02*
X125205715Y-51478152D01*
X125205715Y-51478152D02*
X125300953Y-51525771D01*
X125300953Y-51525771D02*
X125348572Y-51573390D01*
X125348572Y-51573390D02*
X125396191Y-51668628D01*
X125396191Y-51668628D02*
X125396191Y-51954342D01*
X125396191Y-51954342D02*
X125348572Y-52049580D01*
X125348572Y-52049580D02*
X125300953Y-52097200D01*
X125300953Y-52097200D02*
X125205715Y-52144819D01*
X125205715Y-52144819D02*
X125062858Y-52144819D01*
X125824763Y-52144819D02*
X125824763Y-51478152D01*
X125824763Y-51668628D02*
X125872382Y-51573390D01*
X125872382Y-51573390D02*
X125920001Y-51525771D01*
X125920001Y-51525771D02*
X126015239Y-51478152D01*
X126015239Y-51478152D02*
X126110477Y-51478152D01*
X126967620Y-52144819D02*
X126396192Y-52144819D01*
X126681906Y-52144819D02*
X126681906Y-51144819D01*
X126681906Y-51144819D02*
X126586668Y-51287676D01*
X126586668Y-51287676D02*
X126491430Y-51382914D01*
X126491430Y-51382914D02*
X126396192Y-51430533D01*
X120181904Y-57224819D02*
X119848571Y-56748628D01*
X119610476Y-57224819D02*
X119610476Y-56224819D01*
X119610476Y-56224819D02*
X119991428Y-56224819D01*
X119991428Y-56224819D02*
X120086666Y-56272438D01*
X120086666Y-56272438D02*
X120134285Y-56320057D01*
X120134285Y-56320057D02*
X120181904Y-56415295D01*
X120181904Y-56415295D02*
X120181904Y-56558152D01*
X120181904Y-56558152D02*
X120134285Y-56653390D01*
X120134285Y-56653390D02*
X120086666Y-56701009D01*
X120086666Y-56701009D02*
X119991428Y-56748628D01*
X119991428Y-56748628D02*
X119610476Y-56748628D01*
X120610476Y-57224819D02*
X120610476Y-56224819D01*
X120610476Y-56224819D02*
X120943809Y-56939104D01*
X120943809Y-56939104D02*
X121277142Y-56224819D01*
X121277142Y-56224819D02*
X121277142Y-57224819D01*
X122277142Y-57224819D02*
X121705714Y-57224819D01*
X121991428Y-57224819D02*
X121991428Y-56224819D01*
X121991428Y-56224819D02*
X121896190Y-56367676D01*
X121896190Y-56367676D02*
X121800952Y-56462914D01*
X121800952Y-56462914D02*
X121705714Y-56510533D01*
X138504819Y-91153094D02*
X137504819Y-91153094D01*
X137504819Y-91153094D02*
X137504819Y-90914999D01*
X137504819Y-90914999D02*
X137552438Y-90772142D01*
X137552438Y-90772142D02*
X137647676Y-90676904D01*
X137647676Y-90676904D02*
X137742914Y-90629285D01*
X137742914Y-90629285D02*
X137933390Y-90581666D01*
X137933390Y-90581666D02*
X138076247Y-90581666D01*
X138076247Y-90581666D02*
X138266723Y-90629285D01*
X138266723Y-90629285D02*
X138361961Y-90676904D01*
X138361961Y-90676904D02*
X138457200Y-90772142D01*
X138457200Y-90772142D02*
X138504819Y-90914999D01*
X138504819Y-90914999D02*
X138504819Y-91153094D01*
X137838152Y-89724523D02*
X138504819Y-89724523D01*
X137457200Y-89962618D02*
X138171485Y-90200713D01*
X138171485Y-90200713D02*
X138171485Y-89581666D01*
D11*
G04 #@! TO.C,J1*
X143110000Y-76740000D02*
X143110000Y-80740000D01*
X143400000Y-75710000D02*
X143400000Y-81730000D01*
X143400000Y-81730000D02*
X148700000Y-81730000D01*
X143980000Y-75710000D02*
X143980000Y-76310000D01*
X143980000Y-76310000D02*
X145580000Y-76310000D01*
X144780000Y-80730000D02*
X145030000Y-80200000D01*
X144780000Y-80730000D02*
X147320000Y-80730000D01*
X144780000Y-81730000D02*
X144780000Y-80730000D01*
X145030000Y-80200000D02*
X147070000Y-80200000D01*
X145030000Y-81730000D02*
X145030000Y-80730000D01*
X145580000Y-76310000D02*
X145580000Y-75710000D01*
X146520000Y-75710000D02*
X146520000Y-76310000D01*
X146520000Y-76310000D02*
X148120000Y-76310000D01*
X147070000Y-80200000D02*
X147320000Y-80730000D01*
X147070000Y-81730000D02*
X147070000Y-80730000D01*
X147320000Y-80730000D02*
X147320000Y-81730000D01*
X148120000Y-76310000D02*
X148120000Y-75710000D01*
X148700000Y-75710000D02*
X143400000Y-75710000D01*
X148700000Y-81730000D02*
X148700000Y-75710000D01*
G04 #@! TO.C,J2*
X143110000Y-66580000D02*
X143110000Y-70580000D01*
X143400000Y-65550000D02*
X143400000Y-71570000D01*
X143400000Y-71570000D02*
X148700000Y-71570000D01*
X143980000Y-65550000D02*
X143980000Y-66150000D01*
X143980000Y-66150000D02*
X145580000Y-66150000D01*
X144780000Y-70570000D02*
X145030000Y-70040000D01*
X144780000Y-70570000D02*
X147320000Y-70570000D01*
X144780000Y-71570000D02*
X144780000Y-70570000D01*
X145030000Y-70040000D02*
X147070000Y-70040000D01*
X145030000Y-71570000D02*
X145030000Y-70570000D01*
X145580000Y-66150000D02*
X145580000Y-65550000D01*
X146520000Y-65550000D02*
X146520000Y-66150000D01*
X146520000Y-66150000D02*
X148120000Y-66150000D01*
X147070000Y-70040000D02*
X147320000Y-70570000D01*
X147070000Y-71570000D02*
X147070000Y-70570000D01*
X147320000Y-70570000D02*
X147320000Y-71570000D01*
X148120000Y-66150000D02*
X148120000Y-65550000D01*
X148700000Y-65550000D02*
X143400000Y-65550000D01*
X148700000Y-71570000D02*
X148700000Y-65550000D01*
G04 #@! TO.C,D5*
X120340000Y-77905000D02*
X118420000Y-77905000D01*
X118420000Y-77905000D02*
X118420000Y-80765000D01*
X120340000Y-80765000D02*
X120340000Y-77905000D01*
G04 #@! TO.C,C2*
X156181248Y-80545000D02*
X156703752Y-80545000D01*
X156181248Y-82015000D02*
X156703752Y-82015000D01*
G04 #@! TO.C,R2*
X138927064Y-71855000D02*
X138472936Y-71855000D01*
X138927064Y-70385000D02*
X138472936Y-70385000D01*
G04 #@! TO.C,U3*
X153380000Y-55010000D02*
X159390000Y-55010000D01*
X155630000Y-61830000D02*
X159390000Y-61830000D01*
X159390000Y-55010000D02*
X159390000Y-56270000D01*
X159390000Y-61830000D02*
X159390000Y-60570000D01*
G04 #@! TO.C,Q1*
X137120000Y-55150000D02*
X137120000Y-59791000D01*
X137120000Y-55150000D02*
X147360000Y-55150000D01*
X137120000Y-56660000D02*
X147360000Y-56660000D01*
X137120000Y-59791000D02*
X147360000Y-59791000D01*
X140390000Y-55150000D02*
X140390000Y-56660000D01*
X144091000Y-55150000D02*
X144091000Y-56660000D01*
X147360000Y-55150000D02*
X147360000Y-59791000D01*
G04 #@! TO.C,D2*
X151440000Y-92275000D02*
X153360000Y-92275000D01*
X153360000Y-92275000D02*
X153360000Y-89415000D01*
X151440000Y-89415000D02*
X151440000Y-92275000D01*
G04 #@! TO.C,D3*
X146360000Y-92275000D02*
X148280000Y-92275000D01*
X148280000Y-92275000D02*
X148280000Y-89415000D01*
X146360000Y-89415000D02*
X146360000Y-92275000D01*
G04 #@! TO.C,J4*
X134220000Y-89400000D02*
X134220000Y-88400000D01*
X134220000Y-88400000D02*
X133220000Y-88900000D01*
X133220000Y-88900000D02*
X134220000Y-89400000D01*
X132830000Y-94110000D02*
X123710000Y-94110000D01*
X132830000Y-88410000D02*
X131520000Y-88410000D01*
X132830000Y-78610000D02*
X132830000Y-94110000D01*
X131520000Y-92810000D02*
X125020000Y-92810000D01*
X131520000Y-88410000D02*
X131520000Y-92810000D01*
X131520000Y-84310000D02*
X132830000Y-84310000D01*
X131520000Y-84310000D02*
X131520000Y-84310000D01*
X131520000Y-79910000D02*
X131520000Y-84310000D01*
X125020000Y-92810000D02*
X125020000Y-79910000D01*
X125020000Y-79910000D02*
X131520000Y-79910000D01*
X123710000Y-94110000D02*
X123710000Y-78610000D01*
X123710000Y-78610000D02*
X132830000Y-78610000D01*
G04 #@! TO.C,J3*
X153270000Y-71660000D02*
X153270000Y-75660000D01*
X153560000Y-70630000D02*
X153560000Y-76650000D01*
X153560000Y-76650000D02*
X158860000Y-76650000D01*
X154140000Y-70630000D02*
X154140000Y-71230000D01*
X154140000Y-71230000D02*
X155740000Y-71230000D01*
X154940000Y-75650000D02*
X155190000Y-75120000D01*
X154940000Y-75650000D02*
X157480000Y-75650000D01*
X154940000Y-76650000D02*
X154940000Y-75650000D01*
X155190000Y-75120000D02*
X157230000Y-75120000D01*
X155190000Y-76650000D02*
X155190000Y-75650000D01*
X155740000Y-71230000D02*
X155740000Y-70630000D01*
X156680000Y-70630000D02*
X156680000Y-71230000D01*
X156680000Y-71230000D02*
X158280000Y-71230000D01*
X157230000Y-75120000D02*
X157480000Y-75650000D01*
X157230000Y-76650000D02*
X157230000Y-75650000D01*
X157480000Y-75650000D02*
X157480000Y-76650000D01*
X158280000Y-71230000D02*
X158280000Y-70630000D01*
X158860000Y-70630000D02*
X153560000Y-70630000D01*
X158860000Y-76650000D02*
X158860000Y-70630000D01*
G04 #@! TO.C,R1*
X122147064Y-66775000D02*
X121692936Y-66775000D01*
X122147064Y-65305000D02*
X121692936Y-65305000D01*
G04 #@! TO.C,R4*
X109992936Y-83085000D02*
X110447064Y-83085000D01*
X109992936Y-84555000D02*
X110447064Y-84555000D01*
G04 #@! TO.C,U2*
X128100000Y-43070000D02*
X128100000Y-53470000D01*
X128100000Y-53470000D02*
X138600000Y-53470000D01*
X131100000Y-43130000D02*
X131100000Y-53410000D01*
X131100000Y-53410000D02*
X135600000Y-53410000D01*
X132350000Y-43130000D02*
X131100000Y-43130000D01*
X135600000Y-43130000D02*
X134350000Y-43130000D01*
X135600000Y-53410000D02*
X135600000Y-43130000D01*
X138600000Y-43070000D02*
X128100000Y-43070000D01*
X138600000Y-53470000D02*
X138600000Y-43070000D01*
X132350000Y-43130000D02*
G75*
G03*
X134350000Y-43130000I1000000J0D01*
G01*
G04 #@! TO.C,DWM1*
X102470000Y-54290000D02*
X102470000Y-64290000D01*
X102470000Y-54290000D02*
X115970000Y-54290000D01*
X102470000Y-77790000D02*
X102470000Y-76040000D01*
X103220000Y-77790000D02*
X102470000Y-77790000D01*
X115220000Y-77790000D02*
X115970000Y-77790000D01*
X115970000Y-54290000D02*
X115970000Y-64290000D01*
X115970000Y-77790000D02*
X115970000Y-76040000D01*
G04 #@! TO.C,R3*
X138472936Y-67845000D02*
X138927064Y-67845000D01*
X138472936Y-69315000D02*
X138927064Y-69315000D01*
G04 #@! TO.C,Gate-bias1*
X144552936Y-50065000D02*
X145007064Y-50065000D01*
X144552936Y-51535000D02*
X145007064Y-51535000D01*
G04 #@! TO.C,U4*
X129475000Y-64145000D02*
X126025000Y-64145000D01*
X129475000Y-64145000D02*
X131425000Y-64145000D01*
X129475000Y-73015000D02*
X127525000Y-73015000D01*
X129475000Y-73015000D02*
X131425000Y-73015000D01*
G04 #@! TO.C,Pulldown1*
X138472936Y-62765000D02*
X138927064Y-62765000D01*
X138472936Y-64235000D02*
X138927064Y-64235000D01*
G04 #@! TO.C,C1*
X155716248Y-65305000D02*
X156238752Y-65305000D01*
X155716248Y-66775000D02*
X156238752Y-66775000D01*
G04 #@! TO.C,C3*
X138401248Y-75465000D02*
X138923752Y-75465000D01*
X138401248Y-76935000D02*
X138923752Y-76935000D01*
G04 #@! TO.C,D1*
X109400000Y-87900000D02*
X109400000Y-89900000D01*
X109400000Y-87900000D02*
X113410000Y-87900000D01*
X109400000Y-89900000D02*
X113410000Y-89900000D01*
G04 #@! TO.C,PressureSensor1*
X120692936Y-52605000D02*
X121147064Y-52605000D01*
X120692936Y-54075000D02*
X121147064Y-54075000D01*
G04 #@! TO.C,RM1*
X120692936Y-57685000D02*
X121147064Y-57685000D01*
X120692936Y-59155000D02*
X121147064Y-59155000D01*
G04 #@! TO.C,D4*
X138740000Y-92275000D02*
X140660000Y-92275000D01*
X140660000Y-92275000D02*
X140660000Y-89415000D01*
X138740000Y-89415000D02*
X138740000Y-92275000D01*
G04 #@! TD*
M02*
