G04 #@! TF.GenerationSoftware,KiCad,Pcbnew,7.0.10*
G04 #@! TF.CreationDate,2024-03-26T17:49:21-05:00*
G04 #@! TF.ProjectId,key,6b65792e-6b69-4636-9164-5f7063625858,rev?*
G04 #@! TF.SameCoordinates,Original*
G04 #@! TF.FileFunction,Copper,L2,Bot*
G04 #@! TF.FilePolarity,Positive*
%FSLAX46Y46*%
G04 Gerber Fmt 4.6, Leading zero omitted, Abs format (unit mm)*
G04 Created by KiCad (PCBNEW 7.0.10) date 2024-03-26 17:49:21*
%MOMM*%
%LPD*%
G01*
G04 APERTURE LIST*
G04 Aperture macros list*
%AMRoundRect*
0 Rectangle with rounded corners*
0 $1 Rounding radius*
0 $2 $3 $4 $5 $6 $7 $8 $9 X,Y pos of 4 corners*
0 Add a 4 corners polygon primitive as box body*
4,1,4,$2,$3,$4,$5,$6,$7,$8,$9,$2,$3,0*
0 Add four circle primitives for the rounded corners*
1,1,$1+$1,$2,$3*
1,1,$1+$1,$4,$5*
1,1,$1+$1,$6,$7*
1,1,$1+$1,$8,$9*
0 Add four rect primitives between the rounded corners*
20,1,$1+$1,$2,$3,$4,$5,0*
20,1,$1+$1,$4,$5,$6,$7,0*
20,1,$1+$1,$6,$7,$8,$9,0*
20,1,$1+$1,$8,$9,$2,$3,0*%
G04 Aperture macros list end*
G04 #@! TA.AperFunction,ComponentPad*
%ADD10RoundRect,0.250000X-0.620000X-0.845000X0.620000X-0.845000X0.620000X0.845000X-0.620000X0.845000X0*%
G04 #@! TD*
G04 #@! TA.AperFunction,ComponentPad*
%ADD11O,1.740000X2.190000*%
G04 #@! TD*
G04 #@! TA.AperFunction,ComponentPad*
%ADD12R,1.905000X2.000000*%
G04 #@! TD*
G04 #@! TA.AperFunction,ComponentPad*
%ADD13O,1.905000X2.000000*%
G04 #@! TD*
G04 #@! TA.AperFunction,ComponentPad*
%ADD14RoundRect,0.250000X0.600000X0.600000X-0.600000X0.600000X-0.600000X-0.600000X0.600000X-0.600000X0*%
G04 #@! TD*
G04 #@! TA.AperFunction,ComponentPad*
%ADD15C,1.700000*%
G04 #@! TD*
G04 #@! TA.AperFunction,ComponentPad*
%ADD16R,2.400000X1.600000*%
G04 #@! TD*
G04 #@! TA.AperFunction,ComponentPad*
%ADD17O,2.400000X1.600000*%
G04 #@! TD*
G04 #@! TA.AperFunction,ViaPad*
%ADD18C,0.800000*%
G04 #@! TD*
G04 #@! TA.AperFunction,Conductor*
%ADD19C,0.508000*%
G04 #@! TD*
G04 #@! TA.AperFunction,Conductor*
%ADD20C,0.254000*%
G04 #@! TD*
G04 APERTURE END LIST*
D10*
G04 #@! TO.P,J1,1,Pin_1*
G04 #@! TO.N,GND*
X144780000Y-78740000D03*
D11*
G04 #@! TO.P,J1,2,Pin_2*
G04 #@! TO.N,Net-(J1-Pin_2)*
X147320000Y-78740000D03*
G04 #@! TD*
D10*
G04 #@! TO.P,J2,1,Pin_1*
G04 #@! TO.N,Net-(J2-Pin_1)*
X144780000Y-68580000D03*
D11*
G04 #@! TO.P,J2,2,Pin_2*
G04 #@! TO.N,GND*
X147320000Y-68580000D03*
G04 #@! TD*
D12*
G04 #@! TO.P,Q1,1,G*
G04 #@! TO.N,Net-(Q1-G)*
X139700000Y-58420000D03*
D13*
G04 #@! TO.P,Q1,2,D*
G04 #@! TO.N,/confirmation*
X142240000Y-58420000D03*
G04 #@! TO.P,Q1,3,S*
G04 #@! TO.N,GND*
X144780000Y-58420000D03*
G04 #@! TD*
D14*
G04 #@! TO.P,J4,1,MISO*
G04 #@! TO.N,/MISO*
X129540000Y-88900000D03*
D15*
G04 #@! TO.P,J4,2,VCC*
G04 #@! TO.N,Net-(D1-A)*
X127000000Y-88900000D03*
G04 #@! TO.P,J4,3,SCK*
G04 #@! TO.N,/SCK*
X129540000Y-86360000D03*
G04 #@! TO.P,J4,4,MOSI*
G04 #@! TO.N,/MOSI*
X127000000Y-86360000D03*
G04 #@! TO.P,J4,5,~{RST}*
G04 #@! TO.N,/RST*
X129540000Y-83820000D03*
G04 #@! TO.P,J4,6,GND*
G04 #@! TO.N,GND*
X127000000Y-83820000D03*
G04 #@! TD*
D10*
G04 #@! TO.P,J3,1,Pin_1*
G04 #@! TO.N,GND*
X154940000Y-73660000D03*
D11*
G04 #@! TO.P,J3,2,Pin_2*
G04 #@! TO.N,Net-(J3-Pin_2)*
X157480000Y-73660000D03*
G04 #@! TD*
D16*
G04 #@! TO.P,U2,1,NULL*
G04 #@! TO.N,GND*
X129540000Y-44460000D03*
D17*
G04 #@! TO.P,U2,2,-*
G04 #@! TO.N,Net-(Q1-G)*
X129540000Y-47000000D03*
G04 #@! TO.P,U2,3,+*
G04 #@! TO.N,Net-(U2-+)*
X129540000Y-49540000D03*
G04 #@! TO.P,U2,4,V-*
G04 #@! TO.N,GND*
X129540000Y-52080000D03*
G04 #@! TO.P,U2,5,NULL*
X137160000Y-52080000D03*
G04 #@! TO.P,U2,6*
G04 #@! TO.N,Net-(Q1-G)*
X137160000Y-49540000D03*
G04 #@! TO.P,U2,7,V+*
G04 #@! TO.N,+3.3V*
X137160000Y-47000000D03*
G04 #@! TO.P,U2,8,NC*
G04 #@! TO.N,unconnected-(U2-NC-Pad8)*
X137160000Y-44460000D03*
G04 #@! TD*
D18*
G04 #@! TO.N,GND*
X152400000Y-76200000D03*
X152400000Y-76200000D03*
G04 #@! TO.N,+3.3V*
X154330000Y-58420000D03*
X160630000Y-58420000D03*
X119920000Y-53340000D03*
X127000000Y-64770000D03*
X155405000Y-81280000D03*
X102095000Y-71120000D03*
X137700000Y-63500000D03*
X155405000Y-81280000D03*
G04 #@! TO.N,/RST*
X102920000Y-68041200D03*
X119380000Y-83820000D03*
X129540000Y-81280000D03*
X124460000Y-68496000D03*
G04 #@! TO.N,/Csn*
X127000000Y-76200000D03*
G04 #@! TO.N,/MOSI*
X121920000Y-86360000D03*
X124460000Y-71220000D03*
G04 #@! TD*
D19*
G04 #@! TO.N,+3.3V*
X119380000Y-53880000D02*
X119920000Y-53340000D01*
X127000000Y-64770000D02*
X136430000Y-64770000D01*
X150715000Y-81280000D02*
X155405000Y-81280000D01*
X149250000Y-63500000D02*
X154330000Y-58420000D01*
X112069210Y-71120000D02*
X119380000Y-63809210D01*
X102095000Y-71120000D02*
X112069210Y-71120000D01*
X135506000Y-48654000D02*
X137160000Y-47000000D01*
X119920000Y-57690000D02*
X127000000Y-64770000D01*
X154330000Y-58420000D02*
X160630000Y-58420000D01*
X149250000Y-63500000D02*
X149250000Y-82745000D01*
X136430000Y-64770000D02*
X137700000Y-63500000D01*
X149250000Y-82745000D02*
X150715000Y-81280000D01*
X137700000Y-63500000D02*
X149250000Y-63500000D01*
X135506000Y-61306000D02*
X135506000Y-48654000D01*
X137700000Y-63500000D02*
X135506000Y-61306000D01*
X119380000Y-63809210D02*
X119380000Y-53880000D01*
X119920000Y-53340000D02*
X119920000Y-57690000D01*
D20*
G04 #@! TO.N,/RST*
X99060000Y-68580000D02*
X102381200Y-68580000D01*
X99787000Y-71847000D02*
X99060000Y-71120000D01*
X125187000Y-69223000D02*
X124460000Y-68496000D01*
X119380000Y-73576000D02*
X119380000Y-83820000D01*
X125187000Y-78013000D02*
X125187000Y-69223000D01*
X124460000Y-78740000D02*
X125187000Y-78013000D01*
X124914000Y-81280000D02*
X124460000Y-80826000D01*
X124460000Y-80826000D02*
X124460000Y-78740000D01*
X99060000Y-71120000D02*
X99060000Y-68580000D01*
X124460000Y-68496000D02*
X121109000Y-71847000D01*
X102381200Y-68580000D02*
X102920000Y-68041200D01*
X129540000Y-81280000D02*
X124914000Y-81280000D01*
X121109000Y-71847000D02*
X99787000Y-71847000D01*
X121109000Y-71847000D02*
X119380000Y-73576000D01*
G04 #@! TO.N,/MOSI*
X121920000Y-86360000D02*
X121920000Y-73660000D01*
X121920000Y-73660000D02*
X124360000Y-71220000D01*
X124360000Y-71220000D02*
X124460000Y-71220000D01*
G04 #@! TD*
M02*
