M48
INCH,TZ
T1C0.0157
T2C0.0394
T3C0.0469
%
G90
G05
T1
X48039Y-28205
X49000Y-28000
X52000Y-29000
X53969Y-29042
X54286Y-30000
X55000Y-23299
X55000Y-24000
X55000Y-27000
X55000Y-27967
X55000Y-27967
X55714Y-30037
X57000Y-26000
T2
X57000Y-23000
X57000Y-24000
X57000Y-25000
X58000Y-23000
X58000Y-24000
X58000Y-25000
T3
X45000Y-30000
X46000Y-30000
M30
