G04 #@! TF.GenerationSoftware,KiCad,Pcbnew,7.0.10*
G04 #@! TF.CreationDate,2024-03-26T17:52:26-05:00*
G04 #@! TF.ProjectId,keychain,6b657963-6861-4696-9e2e-6b696361645f,rev?*
G04 #@! TF.SameCoordinates,Original*
G04 #@! TF.FileFunction,Legend,Top*
G04 #@! TF.FilePolarity,Positive*
%FSLAX46Y46*%
G04 Gerber Fmt 4.6, Leading zero omitted, Abs format (unit mm)*
G04 Created by KiCad (PCBNEW 7.0.10) date 2024-03-26 17:52:26*
%MOMM*%
%LPD*%
G01*
G04 APERTURE LIST*
%ADD10C,0.125000*%
%ADD11C,0.150000*%
%ADD12C,0.120000*%
G04 APERTURE END LIST*
D10*
X124661283Y-51662309D02*
X124661283Y-51162309D01*
X124946997Y-51662309D02*
X124732712Y-51376595D01*
X124946997Y-51162309D02*
X124661283Y-51448023D01*
X125351759Y-51638500D02*
X125304140Y-51662309D01*
X125304140Y-51662309D02*
X125208902Y-51662309D01*
X125208902Y-51662309D02*
X125161283Y-51638500D01*
X125161283Y-51638500D02*
X125137474Y-51590880D01*
X125137474Y-51590880D02*
X125137474Y-51400404D01*
X125137474Y-51400404D02*
X125161283Y-51352785D01*
X125161283Y-51352785D02*
X125208902Y-51328976D01*
X125208902Y-51328976D02*
X125304140Y-51328976D01*
X125304140Y-51328976D02*
X125351759Y-51352785D01*
X125351759Y-51352785D02*
X125375569Y-51400404D01*
X125375569Y-51400404D02*
X125375569Y-51448023D01*
X125375569Y-51448023D02*
X125137474Y-51495642D01*
X125542235Y-51328976D02*
X125661283Y-51662309D01*
X125780330Y-51328976D02*
X125661283Y-51662309D01*
X125661283Y-51662309D02*
X125613664Y-51781357D01*
X125613664Y-51781357D02*
X125589854Y-51805166D01*
X125589854Y-51805166D02*
X125542235Y-51828976D01*
X126185092Y-51638500D02*
X126137473Y-51662309D01*
X126137473Y-51662309D02*
X126042235Y-51662309D01*
X126042235Y-51662309D02*
X125994616Y-51638500D01*
X125994616Y-51638500D02*
X125970806Y-51614690D01*
X125970806Y-51614690D02*
X125946997Y-51567071D01*
X125946997Y-51567071D02*
X125946997Y-51424214D01*
X125946997Y-51424214D02*
X125970806Y-51376595D01*
X125970806Y-51376595D02*
X125994616Y-51352785D01*
X125994616Y-51352785D02*
X126042235Y-51328976D01*
X126042235Y-51328976D02*
X126137473Y-51328976D01*
X126137473Y-51328976D02*
X126185092Y-51352785D01*
X126399377Y-51662309D02*
X126399377Y-51162309D01*
X126613663Y-51662309D02*
X126613663Y-51400404D01*
X126613663Y-51400404D02*
X126589853Y-51352785D01*
X126589853Y-51352785D02*
X126542234Y-51328976D01*
X126542234Y-51328976D02*
X126470806Y-51328976D01*
X126470806Y-51328976D02*
X126423187Y-51352785D01*
X126423187Y-51352785D02*
X126399377Y-51376595D01*
X127066044Y-51662309D02*
X127066044Y-51400404D01*
X127066044Y-51400404D02*
X127042234Y-51352785D01*
X127042234Y-51352785D02*
X126994615Y-51328976D01*
X126994615Y-51328976D02*
X126899377Y-51328976D01*
X126899377Y-51328976D02*
X126851758Y-51352785D01*
X127066044Y-51638500D02*
X127018425Y-51662309D01*
X127018425Y-51662309D02*
X126899377Y-51662309D01*
X126899377Y-51662309D02*
X126851758Y-51638500D01*
X126851758Y-51638500D02*
X126827949Y-51590880D01*
X126827949Y-51590880D02*
X126827949Y-51543261D01*
X126827949Y-51543261D02*
X126851758Y-51495642D01*
X126851758Y-51495642D02*
X126899377Y-51471833D01*
X126899377Y-51471833D02*
X127018425Y-51471833D01*
X127018425Y-51471833D02*
X127066044Y-51448023D01*
X127304139Y-51662309D02*
X127304139Y-51328976D01*
X127304139Y-51162309D02*
X127280330Y-51186119D01*
X127280330Y-51186119D02*
X127304139Y-51209928D01*
X127304139Y-51209928D02*
X127327949Y-51186119D01*
X127327949Y-51186119D02*
X127304139Y-51162309D01*
X127304139Y-51162309D02*
X127304139Y-51209928D01*
X127542234Y-51328976D02*
X127542234Y-51662309D01*
X127542234Y-51376595D02*
X127566044Y-51352785D01*
X127566044Y-51352785D02*
X127613663Y-51328976D01*
X127613663Y-51328976D02*
X127685091Y-51328976D01*
X127685091Y-51328976D02*
X127732710Y-51352785D01*
X127732710Y-51352785D02*
X127756520Y-51400404D01*
X127756520Y-51400404D02*
X127756520Y-51662309D01*
X128375567Y-51662309D02*
X128375567Y-51162309D01*
X128375567Y-51162309D02*
X128566043Y-51162309D01*
X128566043Y-51162309D02*
X128613662Y-51186119D01*
X128613662Y-51186119D02*
X128637472Y-51209928D01*
X128637472Y-51209928D02*
X128661281Y-51257547D01*
X128661281Y-51257547D02*
X128661281Y-51328976D01*
X128661281Y-51328976D02*
X128637472Y-51376595D01*
X128637472Y-51376595D02*
X128613662Y-51400404D01*
X128613662Y-51400404D02*
X128566043Y-51424214D01*
X128566043Y-51424214D02*
X128375567Y-51424214D01*
X129161281Y-51614690D02*
X129137472Y-51638500D01*
X129137472Y-51638500D02*
X129066043Y-51662309D01*
X129066043Y-51662309D02*
X129018424Y-51662309D01*
X129018424Y-51662309D02*
X128946996Y-51638500D01*
X128946996Y-51638500D02*
X128899377Y-51590880D01*
X128899377Y-51590880D02*
X128875567Y-51543261D01*
X128875567Y-51543261D02*
X128851758Y-51448023D01*
X128851758Y-51448023D02*
X128851758Y-51376595D01*
X128851758Y-51376595D02*
X128875567Y-51281357D01*
X128875567Y-51281357D02*
X128899377Y-51233738D01*
X128899377Y-51233738D02*
X128946996Y-51186119D01*
X128946996Y-51186119D02*
X129018424Y-51162309D01*
X129018424Y-51162309D02*
X129066043Y-51162309D01*
X129066043Y-51162309D02*
X129137472Y-51186119D01*
X129137472Y-51186119D02*
X129161281Y-51209928D01*
X129542234Y-51400404D02*
X129613662Y-51424214D01*
X129613662Y-51424214D02*
X129637472Y-51448023D01*
X129637472Y-51448023D02*
X129661281Y-51495642D01*
X129661281Y-51495642D02*
X129661281Y-51567071D01*
X129661281Y-51567071D02*
X129637472Y-51614690D01*
X129637472Y-51614690D02*
X129613662Y-51638500D01*
X129613662Y-51638500D02*
X129566043Y-51662309D01*
X129566043Y-51662309D02*
X129375567Y-51662309D01*
X129375567Y-51662309D02*
X129375567Y-51162309D01*
X129375567Y-51162309D02*
X129542234Y-51162309D01*
X129542234Y-51162309D02*
X129589853Y-51186119D01*
X129589853Y-51186119D02*
X129613662Y-51209928D01*
X129613662Y-51209928D02*
X129637472Y-51257547D01*
X129637472Y-51257547D02*
X129637472Y-51305166D01*
X129637472Y-51305166D02*
X129613662Y-51352785D01*
X129613662Y-51352785D02*
X129589853Y-51376595D01*
X129589853Y-51376595D02*
X129542234Y-51400404D01*
X129542234Y-51400404D02*
X129375567Y-51400404D01*
X130185091Y-51162309D02*
X130351757Y-51662309D01*
X130351757Y-51662309D02*
X130518424Y-51162309D01*
X130661281Y-51209928D02*
X130685090Y-51186119D01*
X130685090Y-51186119D02*
X130732709Y-51162309D01*
X130732709Y-51162309D02*
X130851757Y-51162309D01*
X130851757Y-51162309D02*
X130899376Y-51186119D01*
X130899376Y-51186119D02*
X130923185Y-51209928D01*
X130923185Y-51209928D02*
X130946995Y-51257547D01*
X130946995Y-51257547D02*
X130946995Y-51305166D01*
X130946995Y-51305166D02*
X130923185Y-51376595D01*
X130923185Y-51376595D02*
X130637471Y-51662309D01*
X130637471Y-51662309D02*
X130946995Y-51662309D01*
X124637474Y-52014928D02*
X124661283Y-51991119D01*
X124661283Y-51991119D02*
X124708902Y-51967309D01*
X124708902Y-51967309D02*
X124827950Y-51967309D01*
X124827950Y-51967309D02*
X124875569Y-51991119D01*
X124875569Y-51991119D02*
X124899378Y-52014928D01*
X124899378Y-52014928D02*
X124923188Y-52062547D01*
X124923188Y-52062547D02*
X124923188Y-52110166D01*
X124923188Y-52110166D02*
X124899378Y-52181595D01*
X124899378Y-52181595D02*
X124613664Y-52467309D01*
X124613664Y-52467309D02*
X124923188Y-52467309D01*
X125232711Y-51967309D02*
X125280330Y-51967309D01*
X125280330Y-51967309D02*
X125327949Y-51991119D01*
X125327949Y-51991119D02*
X125351759Y-52014928D01*
X125351759Y-52014928D02*
X125375568Y-52062547D01*
X125375568Y-52062547D02*
X125399378Y-52157785D01*
X125399378Y-52157785D02*
X125399378Y-52276833D01*
X125399378Y-52276833D02*
X125375568Y-52372071D01*
X125375568Y-52372071D02*
X125351759Y-52419690D01*
X125351759Y-52419690D02*
X125327949Y-52443500D01*
X125327949Y-52443500D02*
X125280330Y-52467309D01*
X125280330Y-52467309D02*
X125232711Y-52467309D01*
X125232711Y-52467309D02*
X125185092Y-52443500D01*
X125185092Y-52443500D02*
X125161283Y-52419690D01*
X125161283Y-52419690D02*
X125137473Y-52372071D01*
X125137473Y-52372071D02*
X125113664Y-52276833D01*
X125113664Y-52276833D02*
X125113664Y-52157785D01*
X125113664Y-52157785D02*
X125137473Y-52062547D01*
X125137473Y-52062547D02*
X125161283Y-52014928D01*
X125161283Y-52014928D02*
X125185092Y-51991119D01*
X125185092Y-51991119D02*
X125232711Y-51967309D01*
X125589854Y-52014928D02*
X125613663Y-51991119D01*
X125613663Y-51991119D02*
X125661282Y-51967309D01*
X125661282Y-51967309D02*
X125780330Y-51967309D01*
X125780330Y-51967309D02*
X125827949Y-51991119D01*
X125827949Y-51991119D02*
X125851758Y-52014928D01*
X125851758Y-52014928D02*
X125875568Y-52062547D01*
X125875568Y-52062547D02*
X125875568Y-52110166D01*
X125875568Y-52110166D02*
X125851758Y-52181595D01*
X125851758Y-52181595D02*
X125566044Y-52467309D01*
X125566044Y-52467309D02*
X125875568Y-52467309D01*
X126304139Y-52133976D02*
X126304139Y-52467309D01*
X126185091Y-51943500D02*
X126066044Y-52300642D01*
X126066044Y-52300642D02*
X126375567Y-52300642D01*
X126566043Y-52276833D02*
X126946996Y-52276833D01*
X127280329Y-51967309D02*
X127327948Y-51967309D01*
X127327948Y-51967309D02*
X127375567Y-51991119D01*
X127375567Y-51991119D02*
X127399377Y-52014928D01*
X127399377Y-52014928D02*
X127423186Y-52062547D01*
X127423186Y-52062547D02*
X127446996Y-52157785D01*
X127446996Y-52157785D02*
X127446996Y-52276833D01*
X127446996Y-52276833D02*
X127423186Y-52372071D01*
X127423186Y-52372071D02*
X127399377Y-52419690D01*
X127399377Y-52419690D02*
X127375567Y-52443500D01*
X127375567Y-52443500D02*
X127327948Y-52467309D01*
X127327948Y-52467309D02*
X127280329Y-52467309D01*
X127280329Y-52467309D02*
X127232710Y-52443500D01*
X127232710Y-52443500D02*
X127208901Y-52419690D01*
X127208901Y-52419690D02*
X127185091Y-52372071D01*
X127185091Y-52372071D02*
X127161282Y-52276833D01*
X127161282Y-52276833D02*
X127161282Y-52157785D01*
X127161282Y-52157785D02*
X127185091Y-52062547D01*
X127185091Y-52062547D02*
X127208901Y-52014928D01*
X127208901Y-52014928D02*
X127232710Y-51991119D01*
X127232710Y-51991119D02*
X127280329Y-51967309D01*
X127613662Y-51967309D02*
X127923186Y-51967309D01*
X127923186Y-51967309D02*
X127756519Y-52157785D01*
X127756519Y-52157785D02*
X127827948Y-52157785D01*
X127827948Y-52157785D02*
X127875567Y-52181595D01*
X127875567Y-52181595D02*
X127899376Y-52205404D01*
X127899376Y-52205404D02*
X127923186Y-52253023D01*
X127923186Y-52253023D02*
X127923186Y-52372071D01*
X127923186Y-52372071D02*
X127899376Y-52419690D01*
X127899376Y-52419690D02*
X127875567Y-52443500D01*
X127875567Y-52443500D02*
X127827948Y-52467309D01*
X127827948Y-52467309D02*
X127685091Y-52467309D01*
X127685091Y-52467309D02*
X127637472Y-52443500D01*
X127637472Y-52443500D02*
X127613662Y-52419690D01*
X128137471Y-52276833D02*
X128518424Y-52276833D01*
X129018424Y-52467309D02*
X128732710Y-52467309D01*
X128875567Y-52467309D02*
X128875567Y-51967309D01*
X128875567Y-51967309D02*
X128827948Y-52038738D01*
X128827948Y-52038738D02*
X128780329Y-52086357D01*
X128780329Y-52086357D02*
X128732710Y-52110166D01*
X129256519Y-52467309D02*
X129351757Y-52467309D01*
X129351757Y-52467309D02*
X129399376Y-52443500D01*
X129399376Y-52443500D02*
X129423185Y-52419690D01*
X129423185Y-52419690D02*
X129470804Y-52348261D01*
X129470804Y-52348261D02*
X129494614Y-52253023D01*
X129494614Y-52253023D02*
X129494614Y-52062547D01*
X129494614Y-52062547D02*
X129470804Y-52014928D01*
X129470804Y-52014928D02*
X129446995Y-51991119D01*
X129446995Y-51991119D02*
X129399376Y-51967309D01*
X129399376Y-51967309D02*
X129304138Y-51967309D01*
X129304138Y-51967309D02*
X129256519Y-51991119D01*
X129256519Y-51991119D02*
X129232709Y-52014928D01*
X129232709Y-52014928D02*
X129208900Y-52062547D01*
X129208900Y-52062547D02*
X129208900Y-52181595D01*
X129208900Y-52181595D02*
X129232709Y-52229214D01*
X129232709Y-52229214D02*
X129256519Y-52253023D01*
X129256519Y-52253023D02*
X129304138Y-52276833D01*
X129304138Y-52276833D02*
X129399376Y-52276833D01*
X129399376Y-52276833D02*
X129446995Y-52253023D01*
X129446995Y-52253023D02*
X129470804Y-52229214D01*
X129470804Y-52229214D02*
X129494614Y-52181595D01*
X124589855Y-52772309D02*
X124875569Y-52772309D01*
X124732712Y-53272309D02*
X124732712Y-52772309D01*
X125232711Y-53248500D02*
X125185092Y-53272309D01*
X125185092Y-53272309D02*
X125089854Y-53272309D01*
X125089854Y-53272309D02*
X125042235Y-53248500D01*
X125042235Y-53248500D02*
X125018426Y-53200880D01*
X125018426Y-53200880D02*
X125018426Y-53010404D01*
X125018426Y-53010404D02*
X125042235Y-52962785D01*
X125042235Y-52962785D02*
X125089854Y-52938976D01*
X125089854Y-52938976D02*
X125185092Y-52938976D01*
X125185092Y-52938976D02*
X125232711Y-52962785D01*
X125232711Y-52962785D02*
X125256521Y-53010404D01*
X125256521Y-53010404D02*
X125256521Y-53058023D01*
X125256521Y-53058023D02*
X125018426Y-53105642D01*
X125685092Y-53272309D02*
X125685092Y-53010404D01*
X125685092Y-53010404D02*
X125661282Y-52962785D01*
X125661282Y-52962785D02*
X125613663Y-52938976D01*
X125613663Y-52938976D02*
X125518425Y-52938976D01*
X125518425Y-52938976D02*
X125470806Y-52962785D01*
X125685092Y-53248500D02*
X125637473Y-53272309D01*
X125637473Y-53272309D02*
X125518425Y-53272309D01*
X125518425Y-53272309D02*
X125470806Y-53248500D01*
X125470806Y-53248500D02*
X125446997Y-53200880D01*
X125446997Y-53200880D02*
X125446997Y-53153261D01*
X125446997Y-53153261D02*
X125470806Y-53105642D01*
X125470806Y-53105642D02*
X125518425Y-53081833D01*
X125518425Y-53081833D02*
X125637473Y-53081833D01*
X125637473Y-53081833D02*
X125685092Y-53058023D01*
X125923187Y-53272309D02*
X125923187Y-52938976D01*
X125923187Y-52986595D02*
X125946997Y-52962785D01*
X125946997Y-52962785D02*
X125994616Y-52938976D01*
X125994616Y-52938976D02*
X126066044Y-52938976D01*
X126066044Y-52938976D02*
X126113663Y-52962785D01*
X126113663Y-52962785D02*
X126137473Y-53010404D01*
X126137473Y-53010404D02*
X126137473Y-53272309D01*
X126137473Y-53010404D02*
X126161282Y-52962785D01*
X126161282Y-52962785D02*
X126208901Y-52938976D01*
X126208901Y-52938976D02*
X126280330Y-52938976D01*
X126280330Y-52938976D02*
X126327949Y-52962785D01*
X126327949Y-52962785D02*
X126351759Y-53010404D01*
X126351759Y-53010404D02*
X126351759Y-53272309D01*
X127232711Y-53272309D02*
X126946997Y-53272309D01*
X127089854Y-53272309D02*
X127089854Y-52772309D01*
X127089854Y-52772309D02*
X127042235Y-52843738D01*
X127042235Y-52843738D02*
X126994616Y-52891357D01*
X126994616Y-52891357D02*
X126946997Y-52915166D01*
X127399377Y-52772309D02*
X127732710Y-52772309D01*
X127732710Y-52772309D02*
X127518425Y-53272309D01*
D11*
X141804819Y-63666666D02*
X141328628Y-63999999D01*
X141804819Y-64238094D02*
X140804819Y-64238094D01*
X140804819Y-64238094D02*
X140804819Y-63857142D01*
X140804819Y-63857142D02*
X140852438Y-63761904D01*
X140852438Y-63761904D02*
X140900057Y-63714285D01*
X140900057Y-63714285D02*
X140995295Y-63666666D01*
X140995295Y-63666666D02*
X141138152Y-63666666D01*
X141138152Y-63666666D02*
X141233390Y-63714285D01*
X141233390Y-63714285D02*
X141281009Y-63761904D01*
X141281009Y-63761904D02*
X141328628Y-63857142D01*
X141328628Y-63857142D02*
X141328628Y-64238094D01*
X141804819Y-62714285D02*
X141804819Y-63285713D01*
X141804819Y-62999999D02*
X140804819Y-62999999D01*
X140804819Y-62999999D02*
X140947676Y-63095237D01*
X140947676Y-63095237D02*
X141042914Y-63190475D01*
X141042914Y-63190475D02*
X141090533Y-63285713D01*
X138154819Y-58268094D02*
X137154819Y-58268094D01*
X137154819Y-58268094D02*
X137154819Y-58029999D01*
X137154819Y-58029999D02*
X137202438Y-57887142D01*
X137202438Y-57887142D02*
X137297676Y-57791904D01*
X137297676Y-57791904D02*
X137392914Y-57744285D01*
X137392914Y-57744285D02*
X137583390Y-57696666D01*
X137583390Y-57696666D02*
X137726247Y-57696666D01*
X137726247Y-57696666D02*
X137916723Y-57744285D01*
X137916723Y-57744285D02*
X138011961Y-57791904D01*
X138011961Y-57791904D02*
X138107200Y-57887142D01*
X138107200Y-57887142D02*
X138154819Y-58029999D01*
X138154819Y-58029999D02*
X138154819Y-58268094D01*
X138154819Y-56744285D02*
X138154819Y-57315713D01*
X138154819Y-57029999D02*
X137154819Y-57029999D01*
X137154819Y-57029999D02*
X137297676Y-57125237D01*
X137297676Y-57125237D02*
X137392914Y-57220475D01*
X137392914Y-57220475D02*
X137440533Y-57315713D01*
X113538095Y-53134819D02*
X113538095Y-53944342D01*
X113538095Y-53944342D02*
X113585714Y-54039580D01*
X113585714Y-54039580D02*
X113633333Y-54087200D01*
X113633333Y-54087200D02*
X113728571Y-54134819D01*
X113728571Y-54134819D02*
X113919047Y-54134819D01*
X113919047Y-54134819D02*
X114014285Y-54087200D01*
X114014285Y-54087200D02*
X114061904Y-54039580D01*
X114061904Y-54039580D02*
X114109523Y-53944342D01*
X114109523Y-53944342D02*
X114109523Y-53134819D01*
X114490476Y-53134819D02*
X115109523Y-53134819D01*
X115109523Y-53134819D02*
X114776190Y-53515771D01*
X114776190Y-53515771D02*
X114919047Y-53515771D01*
X114919047Y-53515771D02*
X115014285Y-53563390D01*
X115014285Y-53563390D02*
X115061904Y-53611009D01*
X115061904Y-53611009D02*
X115109523Y-53706247D01*
X115109523Y-53706247D02*
X115109523Y-53944342D01*
X115109523Y-53944342D02*
X115061904Y-54039580D01*
X115061904Y-54039580D02*
X115014285Y-54087200D01*
X115014285Y-54087200D02*
X114919047Y-54134819D01*
X114919047Y-54134819D02*
X114633333Y-54134819D01*
X114633333Y-54134819D02*
X114538095Y-54087200D01*
X114538095Y-54087200D02*
X114490476Y-54039580D01*
X115236666Y-73434819D02*
X115236666Y-74149104D01*
X115236666Y-74149104D02*
X115189047Y-74291961D01*
X115189047Y-74291961D02*
X115093809Y-74387200D01*
X115093809Y-74387200D02*
X114950952Y-74434819D01*
X114950952Y-74434819D02*
X114855714Y-74434819D01*
X115617619Y-73434819D02*
X116236666Y-73434819D01*
X116236666Y-73434819D02*
X115903333Y-73815771D01*
X115903333Y-73815771D02*
X116046190Y-73815771D01*
X116046190Y-73815771D02*
X116141428Y-73863390D01*
X116141428Y-73863390D02*
X116189047Y-73911009D01*
X116189047Y-73911009D02*
X116236666Y-74006247D01*
X116236666Y-74006247D02*
X116236666Y-74244342D01*
X116236666Y-74244342D02*
X116189047Y-74339580D01*
X116189047Y-74339580D02*
X116141428Y-74387200D01*
X116141428Y-74387200D02*
X116046190Y-74434819D01*
X116046190Y-74434819D02*
X115760476Y-74434819D01*
X115760476Y-74434819D02*
X115665238Y-74387200D01*
X115665238Y-74387200D02*
X115617619Y-74339580D01*
X141413095Y-69104819D02*
X141413095Y-69914342D01*
X141413095Y-69914342D02*
X141460714Y-70009580D01*
X141460714Y-70009580D02*
X141508333Y-70057200D01*
X141508333Y-70057200D02*
X141603571Y-70104819D01*
X141603571Y-70104819D02*
X141794047Y-70104819D01*
X141794047Y-70104819D02*
X141889285Y-70057200D01*
X141889285Y-70057200D02*
X141936904Y-70009580D01*
X141936904Y-70009580D02*
X141984523Y-69914342D01*
X141984523Y-69914342D02*
X141984523Y-69104819D01*
X142984523Y-70104819D02*
X142413095Y-70104819D01*
X142698809Y-70104819D02*
X142698809Y-69104819D01*
X142698809Y-69104819D02*
X142603571Y-69247676D01*
X142603571Y-69247676D02*
X142508333Y-69342914D01*
X142508333Y-69342914D02*
X142413095Y-69390533D01*
X121359048Y-81263619D02*
X121359048Y-80263619D01*
X121359048Y-80263619D02*
X121597143Y-80263619D01*
X121597143Y-80263619D02*
X121740000Y-80311238D01*
X121740000Y-80311238D02*
X121835238Y-80406476D01*
X121835238Y-80406476D02*
X121882857Y-80501714D01*
X121882857Y-80501714D02*
X121930476Y-80692190D01*
X121930476Y-80692190D02*
X121930476Y-80835047D01*
X121930476Y-80835047D02*
X121882857Y-81025523D01*
X121882857Y-81025523D02*
X121835238Y-81120761D01*
X121835238Y-81120761D02*
X121740000Y-81216000D01*
X121740000Y-81216000D02*
X121597143Y-81263619D01*
X121597143Y-81263619D02*
X121359048Y-81263619D01*
X122263810Y-80263619D02*
X122501905Y-81263619D01*
X122501905Y-81263619D02*
X122692381Y-80549333D01*
X122692381Y-80549333D02*
X122882857Y-81263619D01*
X122882857Y-81263619D02*
X123120953Y-80263619D01*
X123501905Y-81263619D02*
X123501905Y-80263619D01*
X123501905Y-80263619D02*
X123835238Y-80977904D01*
X123835238Y-80977904D02*
X124168571Y-80263619D01*
X124168571Y-80263619D02*
X124168571Y-81263619D01*
X125168571Y-81263619D02*
X124597143Y-81263619D01*
X124882857Y-81263619D02*
X124882857Y-80263619D01*
X124882857Y-80263619D02*
X124787619Y-80406476D01*
X124787619Y-80406476D02*
X124692381Y-80501714D01*
X124692381Y-80501714D02*
X124597143Y-80549333D01*
X145504819Y-61293333D02*
X146219104Y-61293333D01*
X146219104Y-61293333D02*
X146361961Y-61340952D01*
X146361961Y-61340952D02*
X146457200Y-61436190D01*
X146457200Y-61436190D02*
X146504819Y-61579047D01*
X146504819Y-61579047D02*
X146504819Y-61674285D01*
X145600057Y-60864761D02*
X145552438Y-60817142D01*
X145552438Y-60817142D02*
X145504819Y-60721904D01*
X145504819Y-60721904D02*
X145504819Y-60483809D01*
X145504819Y-60483809D02*
X145552438Y-60388571D01*
X145552438Y-60388571D02*
X145600057Y-60340952D01*
X145600057Y-60340952D02*
X145695295Y-60293333D01*
X145695295Y-60293333D02*
X145790533Y-60293333D01*
X145790533Y-60293333D02*
X145933390Y-60340952D01*
X145933390Y-60340952D02*
X146504819Y-60912380D01*
X146504819Y-60912380D02*
X146504819Y-60293333D01*
X111593333Y-69799580D02*
X111545714Y-69847200D01*
X111545714Y-69847200D02*
X111402857Y-69894819D01*
X111402857Y-69894819D02*
X111307619Y-69894819D01*
X111307619Y-69894819D02*
X111164762Y-69847200D01*
X111164762Y-69847200D02*
X111069524Y-69751961D01*
X111069524Y-69751961D02*
X111021905Y-69656723D01*
X111021905Y-69656723D02*
X110974286Y-69466247D01*
X110974286Y-69466247D02*
X110974286Y-69323390D01*
X110974286Y-69323390D02*
X111021905Y-69132914D01*
X111021905Y-69132914D02*
X111069524Y-69037676D01*
X111069524Y-69037676D02*
X111164762Y-68942438D01*
X111164762Y-68942438D02*
X111307619Y-68894819D01*
X111307619Y-68894819D02*
X111402857Y-68894819D01*
X111402857Y-68894819D02*
X111545714Y-68942438D01*
X111545714Y-68942438D02*
X111593333Y-68990057D01*
X111974286Y-68990057D02*
X112021905Y-68942438D01*
X112021905Y-68942438D02*
X112117143Y-68894819D01*
X112117143Y-68894819D02*
X112355238Y-68894819D01*
X112355238Y-68894819D02*
X112450476Y-68942438D01*
X112450476Y-68942438D02*
X112498095Y-68990057D01*
X112498095Y-68990057D02*
X112545714Y-69085295D01*
X112545714Y-69085295D02*
X112545714Y-69180533D01*
X112545714Y-69180533D02*
X112498095Y-69323390D01*
X112498095Y-69323390D02*
X111926667Y-69894819D01*
X111926667Y-69894819D02*
X112545714Y-69894819D01*
X116673333Y-67384819D02*
X116340000Y-66908628D01*
X116101905Y-67384819D02*
X116101905Y-66384819D01*
X116101905Y-66384819D02*
X116482857Y-66384819D01*
X116482857Y-66384819D02*
X116578095Y-66432438D01*
X116578095Y-66432438D02*
X116625714Y-66480057D01*
X116625714Y-66480057D02*
X116673333Y-66575295D01*
X116673333Y-66575295D02*
X116673333Y-66718152D01*
X116673333Y-66718152D02*
X116625714Y-66813390D01*
X116625714Y-66813390D02*
X116578095Y-66861009D01*
X116578095Y-66861009D02*
X116482857Y-66908628D01*
X116482857Y-66908628D02*
X116101905Y-66908628D01*
X117006667Y-66384819D02*
X117625714Y-66384819D01*
X117625714Y-66384819D02*
X117292381Y-66765771D01*
X117292381Y-66765771D02*
X117435238Y-66765771D01*
X117435238Y-66765771D02*
X117530476Y-66813390D01*
X117530476Y-66813390D02*
X117578095Y-66861009D01*
X117578095Y-66861009D02*
X117625714Y-66956247D01*
X117625714Y-66956247D02*
X117625714Y-67194342D01*
X117625714Y-67194342D02*
X117578095Y-67289580D01*
X117578095Y-67289580D02*
X117530476Y-67337200D01*
X117530476Y-67337200D02*
X117435238Y-67384819D01*
X117435238Y-67384819D02*
X117149524Y-67384819D01*
X117149524Y-67384819D02*
X117054286Y-67337200D01*
X117054286Y-67337200D02*
X117006667Y-67289580D01*
X116673333Y-62179580D02*
X116625714Y-62227200D01*
X116625714Y-62227200D02*
X116482857Y-62274819D01*
X116482857Y-62274819D02*
X116387619Y-62274819D01*
X116387619Y-62274819D02*
X116244762Y-62227200D01*
X116244762Y-62227200D02*
X116149524Y-62131961D01*
X116149524Y-62131961D02*
X116101905Y-62036723D01*
X116101905Y-62036723D02*
X116054286Y-61846247D01*
X116054286Y-61846247D02*
X116054286Y-61703390D01*
X116054286Y-61703390D02*
X116101905Y-61512914D01*
X116101905Y-61512914D02*
X116149524Y-61417676D01*
X116149524Y-61417676D02*
X116244762Y-61322438D01*
X116244762Y-61322438D02*
X116387619Y-61274819D01*
X116387619Y-61274819D02*
X116482857Y-61274819D01*
X116482857Y-61274819D02*
X116625714Y-61322438D01*
X116625714Y-61322438D02*
X116673333Y-61370057D01*
X117006667Y-61274819D02*
X117625714Y-61274819D01*
X117625714Y-61274819D02*
X117292381Y-61655771D01*
X117292381Y-61655771D02*
X117435238Y-61655771D01*
X117435238Y-61655771D02*
X117530476Y-61703390D01*
X117530476Y-61703390D02*
X117578095Y-61751009D01*
X117578095Y-61751009D02*
X117625714Y-61846247D01*
X117625714Y-61846247D02*
X117625714Y-62084342D01*
X117625714Y-62084342D02*
X117578095Y-62179580D01*
X117578095Y-62179580D02*
X117530476Y-62227200D01*
X117530476Y-62227200D02*
X117435238Y-62274819D01*
X117435238Y-62274819D02*
X117149524Y-62274819D01*
X117149524Y-62274819D02*
X117054286Y-62227200D01*
X117054286Y-62227200D02*
X117006667Y-62179580D01*
X151964819Y-82018094D02*
X150964819Y-82018094D01*
X150964819Y-82018094D02*
X150964819Y-81779999D01*
X150964819Y-81779999D02*
X151012438Y-81637142D01*
X151012438Y-81637142D02*
X151107676Y-81541904D01*
X151107676Y-81541904D02*
X151202914Y-81494285D01*
X151202914Y-81494285D02*
X151393390Y-81446666D01*
X151393390Y-81446666D02*
X151536247Y-81446666D01*
X151536247Y-81446666D02*
X151726723Y-81494285D01*
X151726723Y-81494285D02*
X151821961Y-81541904D01*
X151821961Y-81541904D02*
X151917200Y-81637142D01*
X151917200Y-81637142D02*
X151964819Y-81779999D01*
X151964819Y-81779999D02*
X151964819Y-82018094D01*
X151060057Y-81065713D02*
X151012438Y-81018094D01*
X151012438Y-81018094D02*
X150964819Y-80922856D01*
X150964819Y-80922856D02*
X150964819Y-80684761D01*
X150964819Y-80684761D02*
X151012438Y-80589523D01*
X151012438Y-80589523D02*
X151060057Y-80541904D01*
X151060057Y-80541904D02*
X151155295Y-80494285D01*
X151155295Y-80494285D02*
X151250533Y-80494285D01*
X151250533Y-80494285D02*
X151393390Y-80541904D01*
X151393390Y-80541904D02*
X151964819Y-81113332D01*
X151964819Y-81113332D02*
X151964819Y-80494285D01*
D12*
G04 #@! TO.C,R1*
X140435000Y-63272936D02*
X140435000Y-63727064D01*
X138965000Y-63272936D02*
X138965000Y-63727064D01*
G04 #@! TO.C,D1*
X138700000Y-59890000D02*
X140700000Y-59890000D01*
X138700000Y-59890000D02*
X138700000Y-55880000D01*
X140700000Y-59890000D02*
X140700000Y-55880000D01*
G04 #@! TO.C,U3*
X110200000Y-54770000D02*
X116210000Y-54770000D01*
X112450000Y-61590000D02*
X116210000Y-61590000D01*
X116210000Y-54770000D02*
X116210000Y-56030000D01*
X116210000Y-61590000D02*
X116210000Y-60330000D01*
G04 #@! TO.C,J3*
X112630000Y-74200000D02*
X112630000Y-78200000D01*
X112920000Y-73170000D02*
X112920000Y-79190000D01*
X112920000Y-79190000D02*
X118220000Y-79190000D01*
X113500000Y-73170000D02*
X113500000Y-73770000D01*
X113500000Y-73770000D02*
X115100000Y-73770000D01*
X114300000Y-78190000D02*
X114550000Y-77660000D01*
X114300000Y-78190000D02*
X116840000Y-78190000D01*
X114300000Y-79190000D02*
X114300000Y-78190000D01*
X114550000Y-77660000D02*
X116590000Y-77660000D01*
X114550000Y-79190000D02*
X114550000Y-78190000D01*
X115100000Y-73770000D02*
X115100000Y-73170000D01*
X116040000Y-73170000D02*
X116040000Y-73770000D01*
X116040000Y-73770000D02*
X117640000Y-73770000D01*
X116590000Y-77660000D02*
X116840000Y-78190000D01*
X116590000Y-79190000D02*
X116590000Y-78190000D01*
X116840000Y-78190000D02*
X116840000Y-79190000D01*
X117640000Y-73770000D02*
X117640000Y-73170000D01*
X118220000Y-73170000D02*
X112920000Y-73170000D01*
X118220000Y-79190000D02*
X118220000Y-73170000D01*
G04 #@! TO.C,U1*
X142175000Y-70495000D02*
X138725000Y-70495000D01*
X142175000Y-70495000D02*
X144125000Y-70495000D01*
X142175000Y-79365000D02*
X140225000Y-79365000D01*
X142175000Y-79365000D02*
X144125000Y-79365000D01*
G04 #@! TO.C,DWM1*
X121570000Y-55088800D02*
X121570000Y-65088800D01*
X121570000Y-55088800D02*
X135070000Y-55088800D01*
X121570000Y-78588800D02*
X121570000Y-76838800D01*
X122320000Y-78588800D02*
X121570000Y-78588800D01*
X134320000Y-78588800D02*
X135070000Y-78588800D01*
X135070000Y-55088800D02*
X135070000Y-65088800D01*
X135070000Y-78588800D02*
X135070000Y-76838800D01*
G04 #@! TO.C,J2*
X140100000Y-57920000D02*
X140100000Y-58920000D01*
X140100000Y-58920000D02*
X141100000Y-58420000D01*
X141100000Y-58420000D02*
X140100000Y-57920000D01*
X141490000Y-53210000D02*
X150610000Y-53210000D01*
X141490000Y-58910000D02*
X142800000Y-58910000D01*
X141490000Y-68710000D02*
X141490000Y-53210000D01*
X142800000Y-54510000D02*
X149300000Y-54510000D01*
X142800000Y-58910000D02*
X142800000Y-54510000D01*
X142800000Y-63010000D02*
X141490000Y-63010000D01*
X142800000Y-63010000D02*
X142800000Y-63010000D01*
X142800000Y-67410000D02*
X142800000Y-63010000D01*
X149300000Y-54510000D02*
X149300000Y-67410000D01*
X149300000Y-67410000D02*
X142800000Y-67410000D01*
X150610000Y-53210000D02*
X150610000Y-68710000D01*
X150610000Y-68710000D02*
X141490000Y-68710000D01*
G04 #@! TO.C,C2*
X111498748Y-70385000D02*
X112021252Y-70385000D01*
X111498748Y-71855000D02*
X112021252Y-71855000D01*
G04 #@! TO.C,R3*
X116612936Y-67845000D02*
X117067064Y-67845000D01*
X116612936Y-69315000D02*
X117067064Y-69315000D01*
G04 #@! TO.C,C3*
X116578748Y-62765000D02*
X117101252Y-62765000D01*
X116578748Y-64235000D02*
X117101252Y-64235000D01*
G04 #@! TO.C,D2*
X150820000Y-79420000D02*
X148900000Y-79420000D01*
X148900000Y-79420000D02*
X148900000Y-82280000D01*
X150820000Y-82280000D02*
X150820000Y-79420000D01*
G04 #@! TD*
M02*
