G04 #@! TF.GenerationSoftware,KiCad,Pcbnew,7.0.10*
G04 #@! TF.CreationDate,2024-04-04T22:49:59-05:00*
G04 #@! TF.ProjectId,key,6b65792e-6b69-4636-9164-5f7063625858,rev?*
G04 #@! TF.SameCoordinates,Original*
G04 #@! TF.FileFunction,Copper,L1,Top*
G04 #@! TF.FilePolarity,Positive*
%FSLAX46Y46*%
G04 Gerber Fmt 4.6, Leading zero omitted, Abs format (unit mm)*
G04 Created by KiCad (PCBNEW 7.0.10) date 2024-04-04 22:49:59*
%MOMM*%
%LPD*%
G01*
G04 APERTURE LIST*
G04 Aperture macros list*
%AMRoundRect*
0 Rectangle with rounded corners*
0 $1 Rounding radius*
0 $2 $3 $4 $5 $6 $7 $8 $9 X,Y pos of 4 corners*
0 Add a 4 corners polygon primitive as box body*
4,1,4,$2,$3,$4,$5,$6,$7,$8,$9,$2,$3,0*
0 Add four circle primitives for the rounded corners*
1,1,$1+$1,$2,$3*
1,1,$1+$1,$4,$5*
1,1,$1+$1,$6,$7*
1,1,$1+$1,$8,$9*
0 Add four rect primitives between the rounded corners*
20,1,$1+$1,$2,$3,$4,$5,0*
20,1,$1+$1,$4,$5,$6,$7,0*
20,1,$1+$1,$6,$7,$8,$9,0*
20,1,$1+$1,$8,$9,$2,$3,0*%
G04 Aperture macros list end*
G04 #@! TA.AperFunction,ComponentPad*
%ADD10RoundRect,0.250000X-0.600000X0.600000X-0.600000X-0.600000X0.600000X-0.600000X0.600000X0.600000X0*%
G04 #@! TD*
G04 #@! TA.AperFunction,ComponentPad*
%ADD11C,1.700000*%
G04 #@! TD*
G04 #@! TA.AperFunction,SMDPad,CuDef*
%ADD12RoundRect,0.250000X-0.350000X-0.450000X0.350000X-0.450000X0.350000X0.450000X-0.350000X0.450000X0*%
G04 #@! TD*
G04 #@! TA.AperFunction,SMDPad,CuDef*
%ADD13RoundRect,0.250000X0.350000X0.450000X-0.350000X0.450000X-0.350000X-0.450000X0.350000X-0.450000X0*%
G04 #@! TD*
G04 #@! TA.AperFunction,SMDPad,CuDef*
%ADD14RoundRect,0.225000X-0.225000X-0.375000X0.225000X-0.375000X0.225000X0.375000X-0.225000X0.375000X0*%
G04 #@! TD*
G04 #@! TA.AperFunction,ComponentPad*
%ADD15R,2.400000X1.600000*%
G04 #@! TD*
G04 #@! TA.AperFunction,ComponentPad*
%ADD16O,2.400000X1.600000*%
G04 #@! TD*
G04 #@! TA.AperFunction,ComponentPad*
%ADD17C,1.500000*%
G04 #@! TD*
G04 #@! TA.AperFunction,SMDPad,CuDef*
%ADD18R,1.600000X0.550000*%
G04 #@! TD*
G04 #@! TA.AperFunction,SMDPad,CuDef*
%ADD19R,0.550000X1.600000*%
G04 #@! TD*
G04 #@! TA.AperFunction,SMDPad,CuDef*
%ADD20R,2.450000X1.000000*%
G04 #@! TD*
G04 #@! TA.AperFunction,SMDPad,CuDef*
%ADD21R,1.000000X2.450000*%
G04 #@! TD*
G04 #@! TA.AperFunction,ComponentPad*
%ADD22RoundRect,0.250000X0.620000X0.845000X-0.620000X0.845000X-0.620000X-0.845000X0.620000X-0.845000X0*%
G04 #@! TD*
G04 #@! TA.AperFunction,ComponentPad*
%ADD23O,1.740000X2.190000*%
G04 #@! TD*
G04 #@! TA.AperFunction,ComponentPad*
%ADD24R,1.905000X2.000000*%
G04 #@! TD*
G04 #@! TA.AperFunction,ComponentPad*
%ADD25O,1.905000X2.000000*%
G04 #@! TD*
G04 #@! TA.AperFunction,SMDPad,CuDef*
%ADD26RoundRect,0.250000X-0.337500X-0.475000X0.337500X-0.475000X0.337500X0.475000X-0.337500X0.475000X0*%
G04 #@! TD*
G04 #@! TA.AperFunction,ComponentPad*
%ADD27R,2.600000X2.600000*%
G04 #@! TD*
G04 #@! TA.AperFunction,ComponentPad*
%ADD28C,2.600000*%
G04 #@! TD*
G04 #@! TA.AperFunction,ComponentPad*
%ADD29RoundRect,0.250000X-0.620000X-0.845000X0.620000X-0.845000X0.620000X0.845000X-0.620000X0.845000X0*%
G04 #@! TD*
G04 #@! TA.AperFunction,SMDPad,CuDef*
%ADD30R,2.000000X1.500000*%
G04 #@! TD*
G04 #@! TA.AperFunction,SMDPad,CuDef*
%ADD31R,2.000000X3.800000*%
G04 #@! TD*
G04 #@! TA.AperFunction,SMDPad,CuDef*
%ADD32RoundRect,0.250000X0.337500X0.475000X-0.337500X0.475000X-0.337500X-0.475000X0.337500X-0.475000X0*%
G04 #@! TD*
G04 #@! TA.AperFunction,ViaPad*
%ADD33C,0.800000*%
G04 #@! TD*
G04 #@! TA.AperFunction,Conductor*
%ADD34C,0.508000*%
G04 #@! TD*
G04 #@! TA.AperFunction,Conductor*
%ADD35C,0.254000*%
G04 #@! TD*
G04 APERTURE END LIST*
D10*
G04 #@! TO.P,J4,1,MISO*
G04 #@! TO.N,/MISO*
X177800000Y-99060000D03*
D11*
G04 #@! TO.P,J4,2,VCC*
G04 #@! TO.N,Net-(D1-A)*
X177800000Y-101600000D03*
G04 #@! TO.P,J4,3,SCK*
G04 #@! TO.N,/SCK*
X175260000Y-99060000D03*
G04 #@! TO.P,J4,4,MOSI*
G04 #@! TO.N,/MOSI*
X175260000Y-101600000D03*
G04 #@! TO.P,J4,5,~{RST}*
G04 #@! TO.N,/RESET*
X172720000Y-99060000D03*
G04 #@! TO.P,J4,6,GND*
G04 #@! TO.N,GND*
X172720000Y-101600000D03*
G04 #@! TD*
D12*
G04 #@! TO.P,Gate-bias1,1*
G04 #@! TO.N,Net-(Q1-G)*
X134620000Y-78740000D03*
G04 #@! TO.P,Gate-bias1,2*
G04 #@! TO.N,GND*
X136620000Y-78740000D03*
G04 #@! TD*
D13*
G04 #@! TO.P,R2,1*
G04 #@! TO.N,Net-(J1-Pin_2)*
X154940000Y-91440000D03*
G04 #@! TO.P,R2,2*
G04 #@! TO.N,/button*
X152940000Y-91440000D03*
G04 #@! TD*
D14*
G04 #@! TO.P,D1,1,K*
G04 #@! TO.N,+3.3V*
X161800000Y-104140000D03*
G04 #@! TO.P,D1,2,A*
G04 #@! TO.N,Net-(D1-A)*
X165100000Y-104140000D03*
G04 #@! TD*
D15*
G04 #@! TO.P,U2,1,NULL*
G04 #@! TO.N,GND*
X128280000Y-67320000D03*
D16*
G04 #@! TO.P,U2,2,-*
G04 #@! TO.N,Net-(Q1-G)*
X128280000Y-69860000D03*
G04 #@! TO.P,U2,3,+*
G04 #@! TO.N,Net-(U2-+)*
X128280000Y-72400000D03*
G04 #@! TO.P,U2,4,V-*
G04 #@! TO.N,GND*
X128280000Y-74940000D03*
G04 #@! TO.P,U2,5,NULL*
X135900000Y-74940000D03*
G04 #@! TO.P,U2,6*
G04 #@! TO.N,Net-(Q1-G)*
X135900000Y-72400000D03*
G04 #@! TO.P,U2,7,V+*
G04 #@! TO.N,+3.3V*
X135900000Y-69860000D03*
G04 #@! TO.P,U2,8,NC*
G04 #@! TO.N,unconnected-(U2-NC-Pad8)*
X135900000Y-67320000D03*
G04 #@! TD*
D17*
G04 #@! TO.P,Y1,1,1*
G04 #@! TO.N,Net-(U1-XTAL2{slash}PB7)*
X147320000Y-101600000D03*
G04 #@! TO.P,Y1,2,2*
G04 #@! TO.N,Net-(U1-XTAL1{slash}PB6)*
X152200000Y-101600000D03*
G04 #@! TD*
D18*
G04 #@! TO.P,U1,1,PD3*
G04 #@! TO.N,unconnected-(U1-PD3-Pad1)*
X157480000Y-75630000D03*
G04 #@! TO.P,U1,2,PD4*
G04 #@! TO.N,unconnected-(U1-PD4-Pad2)*
X157480000Y-74830000D03*
G04 #@! TO.P,U1,3,GND*
G04 #@! TO.N,GND*
X157480000Y-74030000D03*
G04 #@! TO.P,U1,4,VCC*
G04 #@! TO.N,+3.3V*
X157480000Y-73230000D03*
G04 #@! TO.P,U1,5,GND*
G04 #@! TO.N,GND*
X157480000Y-72430000D03*
G04 #@! TO.P,U1,6,VCC*
G04 #@! TO.N,+3.3V*
X157480000Y-71630000D03*
G04 #@! TO.P,U1,7,XTAL1/PB6*
G04 #@! TO.N,Net-(U1-XTAL1{slash}PB6)*
X157480000Y-70830000D03*
G04 #@! TO.P,U1,8,XTAL2/PB7*
G04 #@! TO.N,Net-(U1-XTAL2{slash}PB7)*
X157480000Y-70030000D03*
D19*
G04 #@! TO.P,U1,9,PD5*
G04 #@! TO.N,unconnected-(U1-PD5-Pad9)*
X156030000Y-68580000D03*
G04 #@! TO.P,U1,10,PD6*
G04 #@! TO.N,unconnected-(U1-PD6-Pad10)*
X155230000Y-68580000D03*
G04 #@! TO.P,U1,11,PD7*
G04 #@! TO.N,unconnected-(U1-PD7-Pad11)*
X154430000Y-68580000D03*
G04 #@! TO.P,U1,12,PB0*
G04 #@! TO.N,/confirmation*
X153630000Y-68580000D03*
G04 #@! TO.P,U1,13,PB1*
G04 #@! TO.N,/button*
X152830000Y-68580000D03*
G04 #@! TO.P,U1,14,PB2*
G04 #@! TO.N,/alarm*
X152030000Y-68580000D03*
G04 #@! TO.P,U1,15,PB3*
G04 #@! TO.N,/MOSI*
X151230000Y-68580000D03*
G04 #@! TO.P,U1,16,PB4*
G04 #@! TO.N,/MISO*
X150430000Y-68580000D03*
D18*
G04 #@! TO.P,U1,17,PB5*
G04 #@! TO.N,/SCK*
X148980000Y-70030000D03*
G04 #@! TO.P,U1,18,AVCC*
G04 #@! TO.N,+3.3V*
X148980000Y-70830000D03*
G04 #@! TO.P,U1,19,ADC6*
G04 #@! TO.N,unconnected-(U1-ADC6-Pad19)*
X148980000Y-71630000D03*
G04 #@! TO.P,U1,20,AREF*
G04 #@! TO.N,unconnected-(U1-AREF-Pad20)*
X148980000Y-72430000D03*
G04 #@! TO.P,U1,21,GND*
G04 #@! TO.N,GND*
X148980000Y-73230000D03*
G04 #@! TO.P,U1,22,ADC7*
G04 #@! TO.N,unconnected-(U1-ADC7-Pad22)*
X148980000Y-74030000D03*
G04 #@! TO.P,U1,23,PC0*
G04 #@! TO.N,unconnected-(U1-PC0-Pad23)*
X148980000Y-74830000D03*
G04 #@! TO.P,U1,24,PC1*
G04 #@! TO.N,unconnected-(U1-PC1-Pad24)*
X148980000Y-75630000D03*
D19*
G04 #@! TO.P,U1,25,PC2*
G04 #@! TO.N,unconnected-(U1-PC2-Pad25)*
X150430000Y-77080000D03*
G04 #@! TO.P,U1,26,PC3*
G04 #@! TO.N,unconnected-(U1-PC3-Pad26)*
X151230000Y-77080000D03*
G04 #@! TO.P,U1,27,PC4*
G04 #@! TO.N,unconnected-(U1-PC4-Pad27)*
X152030000Y-77080000D03*
G04 #@! TO.P,U1,28,PC5*
G04 #@! TO.N,unconnected-(U1-PC5-Pad28)*
X152830000Y-77080000D03*
G04 #@! TO.P,U1,29,~{RESET}/PC6*
G04 #@! TO.N,/RESET*
X153630000Y-77080000D03*
G04 #@! TO.P,U1,30,PD0*
G04 #@! TO.N,unconnected-(U1-PD0-Pad30)*
X154430000Y-77080000D03*
G04 #@! TO.P,U1,31,PD1*
G04 #@! TO.N,unconnected-(U1-PD1-Pad31)*
X155230000Y-77080000D03*
G04 #@! TO.P,U1,32,PD2*
G04 #@! TO.N,unconnected-(U1-PD2-Pad32)*
X156030000Y-77080000D03*
G04 #@! TD*
D13*
G04 #@! TO.P,PressureSensor1,1*
G04 #@! TO.N,+3.3V*
X129540000Y-78740000D03*
G04 #@! TO.P,PressureSensor1,2*
G04 #@! TO.N,Net-(U2-+)*
X127540000Y-78740000D03*
G04 #@! TD*
D20*
G04 #@! TO.P,DWM1,1,EXTON*
G04 #@! TO.N,unconnected-(DWM1-EXTON-Pad1)*
X170280000Y-77941200D03*
G04 #@! TO.P,DWM1,2,WAKEUP*
G04 #@! TO.N,GND*
X170280000Y-79341200D03*
G04 #@! TO.P,DWM1,3,RSTn*
G04 #@! TO.N,/RESET*
X170280000Y-80741200D03*
G04 #@! TO.P,DWM1,4,GPIO7*
G04 #@! TO.N,unconnected-(DWM1-GPIO7-Pad4)*
X170280000Y-82141200D03*
G04 #@! TO.P,DWM1,5,VDDAON*
G04 #@! TO.N,+3.3V*
X170280000Y-83541200D03*
G04 #@! TO.P,DWM1,6,VDD3V3*
X170280000Y-84941200D03*
G04 #@! TO.P,DWM1,7,VDD3V3*
X170280000Y-86341200D03*
G04 #@! TO.P,DWM1,8,VSS*
G04 #@! TO.N,GND*
X170280000Y-87741200D03*
D21*
G04 #@! TO.P,DWM1,9,GPIO6/EXTRXE/SPIHA*
G04 #@! TO.N,unconnected-(DWM1-GPIO6{slash}EXTRXE{slash}SPIHA-Pad9)*
X171680000Y-90036200D03*
G04 #@! TO.P,DWM1,10,GPIO5/EXTTXE/SPIPOL*
G04 #@! TO.N,unconnected-(DWM1-GPIO5{slash}EXTTXE{slash}SPIPOL-Pad10)*
X173080000Y-90036200D03*
G04 #@! TO.P,DWM1,11,GPIO4/EXTPA*
G04 #@! TO.N,unconnected-(DWM1-GPIO4{slash}EXTPA-Pad11)*
X174480000Y-90036200D03*
G04 #@! TO.P,DWM1,12,GPIO3/TXLED*
G04 #@! TO.N,unconnected-(DWM1-GPIO3{slash}TXLED-Pad12)*
X175880000Y-90036200D03*
G04 #@! TO.P,DWM1,13,GPIO2/RXLED*
G04 #@! TO.N,unconnected-(DWM1-GPIO2{slash}RXLED-Pad13)*
X177280000Y-90036200D03*
G04 #@! TO.P,DWM1,14,GPIO1/SFDLED*
G04 #@! TO.N,unconnected-(DWM1-GPIO1{slash}SFDLED-Pad14)*
X178680000Y-90036200D03*
G04 #@! TO.P,DWM1,15,GPIO0/RXOKLED*
G04 #@! TO.N,unconnected-(DWM1-GPIO0{slash}RXOKLED-Pad15)*
X180080000Y-90036200D03*
G04 #@! TO.P,DWM1,16,VSS*
G04 #@! TO.N,GND*
X181480000Y-90036200D03*
D20*
G04 #@! TO.P,DWM1,17,SPICSn*
G04 #@! TO.N,/Csn*
X182880000Y-87740000D03*
G04 #@! TO.P,DWM1,18,SPIMOSI*
G04 #@! TO.N,/MOSI*
X182880000Y-86340000D03*
G04 #@! TO.P,DWM1,19,SPIMISO*
G04 #@! TO.N,/MISO*
X182880000Y-84941200D03*
G04 #@! TO.P,DWM1,20,SPICLK*
G04 #@! TO.N,/SCK*
X182880000Y-83541200D03*
G04 #@! TO.P,DWM1,21,VSS*
G04 #@! TO.N,GND*
X182880000Y-82141200D03*
G04 #@! TO.P,DWM1,22,IRQ/GPIO8*
G04 #@! TO.N,unconnected-(DWM1-IRQ{slash}GPIO8-Pad22)*
X182880000Y-80741200D03*
G04 #@! TO.P,DWM1,23,VSS*
G04 #@! TO.N,GND*
X182880000Y-79341200D03*
G04 #@! TO.P,DWM1,24,VSS*
X182880000Y-77941200D03*
G04 #@! TD*
D22*
G04 #@! TO.P,J5,1,Pin_1*
G04 #@! TO.N,/confirmation*
X157480000Y-60960000D03*
D23*
G04 #@! TO.P,J5,2,Pin_2*
G04 #@! TO.N,/button*
X154940000Y-60960000D03*
G04 #@! TO.P,J5,3,Pin_3*
G04 #@! TO.N,/alarm*
X152400000Y-60960000D03*
G04 #@! TO.P,J5,4,Pin_4*
G04 #@! TO.N,/MOSI*
X149860000Y-60960000D03*
G04 #@! TO.P,J5,5,Pin_5*
G04 #@! TO.N,/MISO*
X147320000Y-60960000D03*
G04 #@! TO.P,J5,6,Pin_6*
G04 #@! TO.N,/SCK*
X144780000Y-60960000D03*
G04 #@! TO.P,J5,7,Pin_7*
G04 #@! TO.N,/RESET*
X142240000Y-60960000D03*
G04 #@! TO.P,J5,8,Pin_8*
G04 #@! TO.N,/Csn*
X139700000Y-60960000D03*
G04 #@! TD*
D24*
G04 #@! TO.P,Q1,1,G*
G04 #@! TO.N,Net-(Q1-G)*
X129540000Y-60960000D03*
D25*
G04 #@! TO.P,Q1,2,D*
G04 #@! TO.N,/confirmation*
X132080000Y-60960000D03*
G04 #@! TO.P,Q1,3,S*
G04 #@! TO.N,GND*
X134620000Y-60960000D03*
G04 #@! TD*
D12*
G04 #@! TO.P,R4,1*
G04 #@! TO.N,+3.3V*
X163100000Y-99060000D03*
G04 #@! TO.P,R4,2*
G04 #@! TO.N,/RESET*
X165100000Y-99060000D03*
G04 #@! TD*
G04 #@! TO.P,RM1,1*
G04 #@! TO.N,Net-(U2-+)*
X128540000Y-88900000D03*
G04 #@! TO.P,RM1,2*
G04 #@! TO.N,GND*
X130540000Y-88900000D03*
G04 #@! TD*
D26*
G04 #@! TO.P,C4,1*
G04 #@! TO.N,GND*
X145245000Y-91440000D03*
G04 #@! TO.P,C4,2*
G04 #@! TO.N,+3.3V*
X147320000Y-91440000D03*
G04 #@! TD*
G04 #@! TO.P,C6,1*
G04 #@! TO.N,Net-(U1-XTAL1{slash}PB6)*
X157945000Y-96520000D03*
G04 #@! TO.P,C6,2*
G04 #@! TO.N,GND*
X160020000Y-96520000D03*
G04 #@! TD*
G04 #@! TO.P,C5,1*
G04 #@! TO.N,Net-(U1-XTAL2{slash}PB7)*
X145245000Y-96520000D03*
G04 #@! TO.P,C5,2*
G04 #@! TO.N,GND*
X147320000Y-96520000D03*
G04 #@! TD*
D27*
G04 #@! TO.P,J6,1*
G04 #@! TO.N,GND*
X140820000Y-98310000D03*
D28*
G04 #@! TO.P,J6,2*
X134820000Y-98310000D03*
G04 #@! TO.P,J6,3*
G04 #@! TO.N,Net-(U3-VI)*
X137820000Y-103010000D03*
G04 #@! TD*
D26*
G04 #@! TO.P,C3,1*
G04 #@! TO.N,/button*
X152400000Y-86360000D03*
G04 #@! TO.P,C3,2*
G04 #@! TO.N,GND*
X154475000Y-86360000D03*
G04 #@! TD*
D29*
G04 #@! TO.P,J3,1,Pin_1*
G04 #@! TO.N,GND*
X165100000Y-60960000D03*
D23*
G04 #@! TO.P,J3,2,Pin_2*
G04 #@! TO.N,Net-(J3-Pin_2)*
X167640000Y-60960000D03*
G04 #@! TD*
D29*
G04 #@! TO.P,J1,1,Pin_1*
G04 #@! TO.N,GND*
X180340000Y-60960000D03*
D23*
G04 #@! TO.P,J1,2,Pin_2*
G04 #@! TO.N,Net-(J1-Pin_2)*
X182880000Y-60960000D03*
G04 #@! TD*
D26*
G04 #@! TO.P,C2,1*
G04 #@! TO.N,+3.3V*
X165565000Y-93980000D03*
G04 #@! TO.P,C2,2*
G04 #@! TO.N,GND*
X167640000Y-93980000D03*
G04 #@! TD*
D30*
G04 #@! TO.P,U3,1,GND*
G04 #@! TO.N,GND*
X139700000Y-81520000D03*
G04 #@! TO.P,U3,2,VO*
G04 #@! TO.N,+3.3V*
X139700000Y-83820000D03*
D31*
X146000000Y-83820000D03*
D30*
G04 #@! TO.P,U3,3,VI*
G04 #@! TO.N,Net-(U3-VI)*
X139700000Y-86120000D03*
G04 #@! TD*
D12*
G04 #@! TO.P,Pulldown1,1*
G04 #@! TO.N,+3.3V*
X128540000Y-83820000D03*
G04 #@! TO.P,Pulldown1,2*
G04 #@! TO.N,/confirmation*
X130540000Y-83820000D03*
G04 #@! TD*
G04 #@! TO.P,R1,1*
G04 #@! TO.N,GND*
X180880000Y-93980000D03*
G04 #@! TO.P,R1,2*
G04 #@! TO.N,unconnected-(DWM1-IRQ{slash}GPIO8-Pad22)*
X182880000Y-93980000D03*
G04 #@! TD*
D32*
G04 #@! TO.P,C1,1*
G04 #@! TO.N,Net-(U3-VI)*
X137160000Y-86360000D03*
G04 #@! TO.P,C1,2*
G04 #@! TO.N,GND*
X135085000Y-86360000D03*
G04 #@! TD*
D29*
G04 #@! TO.P,J2,1,Pin_1*
G04 #@! TO.N,/alarm*
X172720000Y-60960000D03*
D23*
G04 #@! TO.P,J2,2,Pin_2*
G04 #@! TO.N,GND*
X175260000Y-60960000D03*
G04 #@! TD*
D33*
G04 #@! TO.N,GND*
X144780000Y-73660000D03*
X160020000Y-73660000D03*
X154940000Y-88900000D03*
X142240000Y-101600000D03*
G04 #@! TO.N,+3.3V*
X146000000Y-83820000D03*
X132080000Y-78740000D03*
X144780000Y-71120000D03*
X147320000Y-91440000D03*
X132080000Y-68580000D03*
X163100000Y-99060000D03*
X137160000Y-71120000D03*
G04 #@! TO.N,/button*
X162560000Y-68580000D03*
X152400000Y-86360000D03*
X162560000Y-76200000D03*
G04 #@! TO.N,/MOSI*
X187960000Y-78740000D03*
X187605433Y-83465433D03*
X187960000Y-93980000D03*
G04 #@! TO.N,/MISO*
X190500000Y-78740000D03*
X177800000Y-96520000D03*
X191278000Y-75545907D03*
X180340000Y-86360000D03*
G04 #@! TO.N,/confirmation*
X139700000Y-66040000D03*
X132080000Y-58420000D03*
X160020000Y-60960000D03*
G04 #@! TO.N,/SCK*
X180340000Y-83820000D03*
X175260000Y-93980000D03*
G04 #@! TO.N,Net-(U1-XTAL1{slash}PB6)*
X160020000Y-81280000D03*
X152400000Y-81280000D03*
G04 #@! TO.N,/RESET*
X172720000Y-86360000D03*
X172720000Y-96520000D03*
X147320000Y-66040000D03*
X147320000Y-78740000D03*
X189646000Y-81280000D03*
G04 #@! TO.N,unconnected-(DWM1-IRQ{slash}GPIO8-Pad22)*
X185420000Y-81280000D03*
X185420000Y-91440000D03*
G04 #@! TD*
D34*
G04 #@! TO.N,GND*
X157480000Y-72430000D02*
X158790000Y-72430000D01*
X144780000Y-73660000D02*
X145210000Y-73230000D01*
X160020000Y-73660000D02*
X159650000Y-74030000D01*
X154475000Y-86360000D02*
X154475000Y-88435000D01*
X158790000Y-72430000D02*
X160020000Y-73660000D01*
X154475000Y-88435000D02*
X154940000Y-88900000D01*
X159650000Y-74030000D02*
X157480000Y-74030000D01*
X145210000Y-73230000D02*
X148980000Y-73230000D01*
X140820000Y-100180000D02*
X142240000Y-101600000D01*
X140820000Y-98310000D02*
X140820000Y-100180000D01*
G04 #@! TO.N,+3.3V*
X165565000Y-89323200D02*
X168547000Y-86341200D01*
X138296000Y-84974000D02*
X129694000Y-84974000D01*
X170280000Y-84941200D02*
X170280000Y-86341200D01*
X170280000Y-83541200D02*
X170280000Y-84941200D01*
X129540000Y-82820000D02*
X128540000Y-83820000D01*
X129694000Y-84974000D02*
X128540000Y-83820000D01*
X145070000Y-70830000D02*
X144780000Y-71120000D01*
X157480000Y-71630000D02*
X156297000Y-71630000D01*
X129540000Y-78740000D02*
X129540000Y-82820000D01*
X139700000Y-83820000D02*
X139450000Y-83820000D01*
X135900000Y-69860000D02*
X137160000Y-71120000D01*
X156297000Y-73230000D02*
X157480000Y-73230000D01*
X148980000Y-70830000D02*
X155497000Y-70830000D01*
X135900000Y-69860000D02*
X134620000Y-68580000D01*
X139700000Y-83820000D02*
X146000000Y-83820000D01*
X135900000Y-69860000D02*
X135900000Y-69840000D01*
X165565000Y-96595000D02*
X163100000Y-99060000D01*
X156226000Y-71701000D02*
X156226000Y-73159000D01*
X165565000Y-93980000D02*
X165565000Y-89323200D01*
X148980000Y-70830000D02*
X145070000Y-70830000D01*
X165565000Y-93980000D02*
X165565000Y-96595000D01*
X155497000Y-70830000D02*
X156297000Y-71630000D01*
X168547000Y-86341200D02*
X170280000Y-86341200D01*
X132080000Y-78740000D02*
X129540000Y-78740000D01*
X163100000Y-102840000D02*
X161800000Y-104140000D01*
X156297000Y-71630000D02*
X156226000Y-71701000D01*
X163100000Y-99060000D02*
X163100000Y-102840000D01*
X139450000Y-83820000D02*
X138296000Y-84974000D01*
X156226000Y-73159000D02*
X156297000Y-73230000D01*
X134620000Y-68580000D02*
X132080000Y-68580000D01*
D35*
G04 #@! TO.N,/button*
X162560000Y-62471866D02*
X162560000Y-68580000D01*
X154247500Y-61260000D02*
X154840429Y-61260000D01*
X154940000Y-60960000D02*
X156362000Y-59538000D01*
X152400000Y-86360000D02*
X152940000Y-86900000D01*
X154940000Y-65397948D02*
X152830000Y-67507948D01*
X152830000Y-67507948D02*
X152830000Y-68580000D01*
X159626134Y-59538000D02*
X161833000Y-61744866D01*
X162560000Y-76200000D02*
X152400000Y-86360000D01*
X161833000Y-61744866D02*
X162560000Y-62471866D01*
X152940000Y-86900000D02*
X152940000Y-91440000D01*
X156362000Y-59538000D02*
X159626134Y-59538000D01*
X154940000Y-60960000D02*
X154940000Y-65397948D01*
G04 #@! TO.N,/Csn*
X139700000Y-60960000D02*
X139700000Y-53467000D01*
X192913000Y-79186000D02*
X184359000Y-87740000D01*
X139700000Y-53467000D02*
X192913000Y-53467000D01*
X183859000Y-87740000D02*
X182880000Y-87740000D01*
X184359000Y-87740000D02*
X182880000Y-87740000D01*
X192913000Y-53467000D02*
X192913000Y-79186000D01*
G04 #@! TO.N,/MOSI*
X149860000Y-55283000D02*
X191097000Y-55283000D01*
X187960000Y-93980000D02*
X181517000Y-100423000D01*
X187960000Y-58420000D02*
X187960000Y-78740000D01*
X181517000Y-100423000D02*
X176437000Y-100423000D01*
X183374067Y-85845933D02*
X185224933Y-85845933D01*
X185224933Y-85845933D02*
X187605433Y-83465433D01*
X191097000Y-55283000D02*
X187960000Y-58420000D01*
X149860000Y-60960000D02*
X149860000Y-55283000D01*
X176437000Y-100423000D02*
X175260000Y-101600000D01*
X151230000Y-62330000D02*
X151230000Y-68580000D01*
X149860000Y-60960000D02*
X151230000Y-62330000D01*
X182880000Y-86340000D02*
X183374067Y-85845933D01*
G04 #@! TO.N,/MISO*
X150430000Y-64070000D02*
X150430000Y-68580000D01*
X147320000Y-60960000D02*
X147320000Y-54829000D01*
X181758800Y-84941200D02*
X180340000Y-86360000D01*
X147320000Y-54829000D02*
X191551000Y-54829000D01*
X191551000Y-75272907D02*
X191278000Y-75545907D01*
X191551000Y-54829000D02*
X191551000Y-75272907D01*
X147320000Y-60960000D02*
X150430000Y-64070000D01*
X184298800Y-84941200D02*
X182880000Y-84941200D01*
X182880000Y-84941200D02*
X181758800Y-84941200D01*
X177800000Y-99060000D02*
X177800000Y-96520000D01*
X190500000Y-78740000D02*
X184298800Y-84941200D01*
G04 #@! TO.N,Net-(D1-A)*
X175260000Y-104140000D02*
X177800000Y-101600000D01*
X165100000Y-104140000D02*
X175260000Y-104140000D01*
G04 #@! TO.N,Net-(Q1-G)*
X128280000Y-69860000D02*
X133360000Y-69860000D01*
X124587000Y-69860000D02*
X128280000Y-69860000D01*
X133360000Y-69860000D02*
X135900000Y-72400000D01*
X129540000Y-60960000D02*
X127000000Y-63500000D01*
X134373000Y-73927000D02*
X135900000Y-72400000D01*
X134620000Y-78740000D02*
X134373000Y-78493000D01*
X134373000Y-78493000D02*
X134373000Y-73927000D01*
X127000000Y-63500000D02*
X124587000Y-63500000D01*
X124587000Y-63500000D02*
X124587000Y-69860000D01*
G04 #@! TO.N,Net-(J1-Pin_2)*
X182880000Y-60960000D02*
X181458000Y-62382000D01*
X167563000Y-78817000D02*
X154940000Y-91440000D01*
X167563000Y-65987394D02*
X167563000Y-78817000D01*
X170050394Y-63500000D02*
X167563000Y-65987394D01*
X177800000Y-63500000D02*
X170050394Y-63500000D01*
X178918000Y-62382000D02*
X177800000Y-63500000D01*
X181458000Y-62382000D02*
X178918000Y-62382000D01*
G04 #@! TO.N,Net-(U2-+)*
X126753000Y-77953000D02*
X127540000Y-78740000D01*
X128280000Y-72400000D02*
X126753000Y-73927000D01*
X127540000Y-87900000D02*
X128540000Y-88900000D01*
X126753000Y-73927000D02*
X126753000Y-77953000D01*
X127540000Y-78740000D02*
X127540000Y-87900000D01*
G04 #@! TO.N,/confirmation*
X134426428Y-83820000D02*
X130540000Y-83820000D01*
X153630000Y-67350000D02*
X153630000Y-68580000D01*
X157480000Y-63500000D02*
X153630000Y-67350000D01*
X132080000Y-60960000D02*
X132080000Y-58420000D01*
X157480000Y-60960000D02*
X157480000Y-63500000D01*
X139700000Y-78097948D02*
X136706000Y-81091948D01*
X160020000Y-60960000D02*
X157480000Y-60960000D01*
X136706000Y-81540428D02*
X134426428Y-83820000D01*
X136706000Y-81091948D02*
X136706000Y-81540428D01*
X139700000Y-66040000D02*
X139700000Y-78097948D01*
G04 #@! TO.N,/alarm*
X172720000Y-60960000D02*
X170180000Y-58420000D01*
X152400000Y-60960000D02*
X152030000Y-61330000D01*
X152030000Y-61330000D02*
X152030000Y-68580000D01*
X170180000Y-58420000D02*
X154940000Y-58420000D01*
X154940000Y-58420000D02*
X152400000Y-60960000D01*
G04 #@! TO.N,/SCK*
X148980000Y-65160000D02*
X148980000Y-70030000D01*
X192005000Y-75927000D02*
X184390800Y-83541200D01*
X180340000Y-83820000D02*
X180618800Y-83541200D01*
X180618800Y-83541200D02*
X182880000Y-83541200D01*
X144780000Y-60960000D02*
X148980000Y-65160000D01*
X184390800Y-83541200D02*
X182880000Y-83541200D01*
X144780000Y-54375000D02*
X192005000Y-54375000D01*
X144780000Y-60960000D02*
X144780000Y-54375000D01*
X192005000Y-54375000D02*
X192005000Y-75927000D01*
X175260000Y-99060000D02*
X175260000Y-93980000D01*
G04 #@! TO.N,Net-(U1-XTAL2{slash}PB7)*
X153867000Y-95053000D02*
X147320000Y-101600000D01*
X154455134Y-90413000D02*
X154198072Y-90413000D01*
X167109000Y-70030000D02*
X167109000Y-77759134D01*
X145245000Y-99525000D02*
X145245000Y-96520000D01*
X167109000Y-77759134D02*
X154455134Y-90413000D01*
X147320000Y-101600000D02*
X145245000Y-99525000D01*
X154198072Y-90413000D02*
X153867000Y-90744072D01*
X157480000Y-70030000D02*
X167109000Y-70030000D01*
X153867000Y-90744072D02*
X153867000Y-95053000D01*
G04 #@! TO.N,Net-(U1-XTAL1{slash}PB6)*
X147320000Y-88900000D02*
X139700000Y-88900000D01*
X157945000Y-96520000D02*
X155405000Y-96520000D01*
X149860000Y-86360000D02*
X147320000Y-88900000D01*
X160020000Y-81280000D02*
X162560000Y-81280000D01*
X157480000Y-70830000D02*
X166655000Y-70830000D01*
X152200000Y-101600000D02*
X152200000Y-99725000D01*
X166655000Y-77185000D02*
X162560000Y-81280000D01*
X166655000Y-70830000D02*
X166655000Y-77185000D01*
X152200000Y-99725000D02*
X155405000Y-96520000D01*
X149860000Y-81280000D02*
X152400000Y-81280000D01*
X149860000Y-81280000D02*
X149860000Y-86360000D01*
X151788000Y-102677000D02*
X157945000Y-96520000D01*
X143400500Y-99203609D02*
X146873891Y-102677000D01*
X143400500Y-94235928D02*
X143400500Y-99203609D01*
X146873891Y-102677000D02*
X151788000Y-102677000D01*
X139700000Y-88900000D02*
X139700000Y-90535428D01*
X139700000Y-90535428D02*
X143400500Y-94235928D01*
G04 #@! TO.N,/RESET*
X172720000Y-81702200D02*
X172720000Y-86360000D01*
X153630000Y-77080000D02*
X153630000Y-78134000D01*
X147320000Y-66040000D02*
X142240000Y-60960000D01*
X192459000Y-53921000D02*
X192459000Y-78467000D01*
X153024000Y-78740000D02*
X147320000Y-78740000D01*
X142240000Y-53921000D02*
X192459000Y-53921000D01*
X172720000Y-99060000D02*
X172720000Y-96520000D01*
X170280000Y-80741200D02*
X171759000Y-80741200D01*
X153630000Y-78134000D02*
X153024000Y-78740000D01*
X189646000Y-81280000D02*
X189919000Y-81280000D01*
X172720000Y-99060000D02*
X165100000Y-99060000D01*
X192459000Y-78467000D02*
X189646000Y-81280000D01*
X171759000Y-80741200D02*
X172720000Y-81702200D01*
X142240000Y-60960000D02*
X142240000Y-53921000D01*
G04 #@! TO.N,unconnected-(DWM1-IRQ{slash}GPIO8-Pad22)*
X184881200Y-80741200D02*
X185420000Y-81280000D01*
X182880000Y-80741200D02*
X184881200Y-80741200D01*
X185420000Y-91440000D02*
X182880000Y-93980000D01*
G04 #@! TO.N,Net-(U3-VI)*
X137400000Y-86120000D02*
X137160000Y-86360000D01*
X137160000Y-86360000D02*
X137160000Y-102350000D01*
X137160000Y-102350000D02*
X137820000Y-103010000D01*
X139700000Y-86120000D02*
X137400000Y-86120000D01*
G04 #@! TD*
G04 #@! TA.AperFunction,Conductor*
G04 #@! TO.N,GND*
G36*
X174074855Y-99726546D02*
G01*
X174091575Y-99745842D01*
X174221501Y-99931396D01*
X174221506Y-99931402D01*
X174388597Y-100098493D01*
X174388603Y-100098498D01*
X174574158Y-100228425D01*
X174617783Y-100283002D01*
X174624977Y-100352500D01*
X174593454Y-100414855D01*
X174574158Y-100431575D01*
X174388597Y-100561505D01*
X174221505Y-100728597D01*
X174091269Y-100914595D01*
X174036692Y-100958220D01*
X173967194Y-100965414D01*
X173904839Y-100933891D01*
X173888119Y-100914595D01*
X173834925Y-100838626D01*
X173834925Y-100838625D01*
X173203076Y-101470475D01*
X173179493Y-101390156D01*
X173101761Y-101269202D01*
X172993100Y-101175048D01*
X172862315Y-101115320D01*
X172852533Y-101113913D01*
X173481373Y-100485073D01*
X173481373Y-100485072D01*
X173405405Y-100431880D01*
X173361780Y-100377304D01*
X173354586Y-100307805D01*
X173386108Y-100245451D01*
X173405399Y-100228734D01*
X173591401Y-100098495D01*
X173758495Y-99931401D01*
X173888425Y-99745842D01*
X173943002Y-99702217D01*
X174012500Y-99695023D01*
X174074855Y-99726546D01*
G37*
G04 #@! TD.AperFunction*
G04 #@! TA.AperFunction,Conductor*
G36*
X139013896Y-53360185D02*
G01*
X139059651Y-53412989D01*
X139070612Y-53456712D01*
X139072255Y-53482819D01*
X139072500Y-53490607D01*
X139072500Y-59442638D01*
X139052815Y-59509677D01*
X139013514Y-59548227D01*
X138882113Y-59629133D01*
X138882112Y-59629134D01*
X138706981Y-59783269D01*
X138706977Y-59783273D01*
X138560426Y-59964773D01*
X138560421Y-59964779D01*
X138446646Y-60168445D01*
X138368929Y-60388408D01*
X138368926Y-60388420D01*
X138329500Y-60618344D01*
X138329500Y-61243234D01*
X138344328Y-61417446D01*
X138344329Y-61417448D01*
X138344329Y-61417451D01*
X138344330Y-61417453D01*
X138360546Y-61479731D01*
X138403114Y-61643218D01*
X138498091Y-61853330D01*
X138499208Y-61855802D01*
X138629847Y-62049088D01*
X138701964Y-62124334D01*
X138791272Y-62217516D01*
X138791273Y-62217517D01*
X138978834Y-62356237D01*
X138978836Y-62356238D01*
X138978839Y-62356240D01*
X139187153Y-62461270D01*
X139410220Y-62529583D01*
X139641624Y-62559216D01*
X139874707Y-62549314D01*
X140102765Y-62500164D01*
X140319235Y-62413179D01*
X140517891Y-62290862D01*
X140693018Y-62136731D01*
X140839578Y-61955220D01*
X140858730Y-61920937D01*
X140862103Y-61914899D01*
X140911982Y-61865972D01*
X140980395Y-61851779D01*
X141045621Y-61876826D01*
X141073092Y-61905935D01*
X141169847Y-62049088D01*
X141241964Y-62124334D01*
X141331272Y-62217516D01*
X141331273Y-62217517D01*
X141518834Y-62356237D01*
X141518836Y-62356238D01*
X141518839Y-62356240D01*
X141727153Y-62461270D01*
X141950220Y-62529583D01*
X142181624Y-62559216D01*
X142414707Y-62549314D01*
X142642765Y-62500164D01*
X142745090Y-62459045D01*
X142814632Y-62452315D01*
X142876776Y-62484250D01*
X142879004Y-62486423D01*
X146381371Y-65988790D01*
X146414856Y-66050113D01*
X146417010Y-66063505D01*
X146434326Y-66228256D01*
X146434327Y-66228259D01*
X146492818Y-66408277D01*
X146492821Y-66408284D01*
X146587467Y-66572216D01*
X146714129Y-66712888D01*
X146867265Y-66824148D01*
X146867270Y-66824151D01*
X147040192Y-66901142D01*
X147040197Y-66901144D01*
X147225354Y-66940500D01*
X147225355Y-66940500D01*
X147414644Y-66940500D01*
X147414646Y-66940500D01*
X147599803Y-66901144D01*
X147772730Y-66824151D01*
X147925871Y-66712888D01*
X148052533Y-66572216D01*
X148105277Y-66480861D01*
X148121113Y-66453432D01*
X148171679Y-66405216D01*
X148240286Y-66391992D01*
X148305151Y-66417960D01*
X148345680Y-66474874D01*
X148352500Y-66515431D01*
X148352500Y-69130500D01*
X148332815Y-69197539D01*
X148280011Y-69243294D01*
X148228501Y-69254500D01*
X148132130Y-69254500D01*
X148132123Y-69254501D01*
X148072516Y-69260908D01*
X147937671Y-69311202D01*
X147937664Y-69311206D01*
X147822455Y-69397452D01*
X147822452Y-69397455D01*
X147736206Y-69512664D01*
X147736202Y-69512671D01*
X147685910Y-69647513D01*
X147685909Y-69647517D01*
X147679500Y-69707127D01*
X147679500Y-69889875D01*
X147679501Y-69951499D01*
X147659817Y-70018539D01*
X147607013Y-70064294D01*
X147555501Y-70075500D01*
X145134000Y-70075500D01*
X145116031Y-70074191D01*
X145092091Y-70070684D01*
X145045330Y-70074776D01*
X145042451Y-70075028D01*
X145031645Y-70075500D01*
X145026051Y-70075500D01*
X144995113Y-70079116D01*
X144991529Y-70079482D01*
X144916387Y-70086056D01*
X144909321Y-70087516D01*
X144909310Y-70087464D01*
X144901832Y-70089122D01*
X144901845Y-70089174D01*
X144894812Y-70090840D01*
X144823925Y-70116639D01*
X144820525Y-70117821D01*
X144748962Y-70141536D01*
X144742420Y-70144587D01*
X144742397Y-70144539D01*
X144735507Y-70147875D01*
X144735531Y-70147922D01*
X144729076Y-70151163D01*
X144666067Y-70192604D01*
X144663028Y-70194540D01*
X144607845Y-70228578D01*
X144568530Y-70244330D01*
X144500195Y-70258856D01*
X144500192Y-70258857D01*
X144327270Y-70335848D01*
X144327265Y-70335851D01*
X144174129Y-70447111D01*
X144047466Y-70587785D01*
X143952821Y-70751715D01*
X143952818Y-70751722D01*
X143894327Y-70931740D01*
X143894326Y-70931744D01*
X143874540Y-71120000D01*
X143894326Y-71308256D01*
X143894327Y-71308259D01*
X143952818Y-71488277D01*
X143952821Y-71488284D01*
X144047467Y-71652216D01*
X144133050Y-71747265D01*
X144174129Y-71792888D01*
X144327265Y-71904148D01*
X144327270Y-71904151D01*
X144500192Y-71981142D01*
X144500197Y-71981144D01*
X144685354Y-72020500D01*
X144685355Y-72020500D01*
X144874644Y-72020500D01*
X144874646Y-72020500D01*
X145059803Y-71981144D01*
X145232730Y-71904151D01*
X145385871Y-71792888D01*
X145512533Y-71652216D01*
X145515831Y-71646502D01*
X145566397Y-71598286D01*
X145623220Y-71584500D01*
X147555500Y-71584500D01*
X147622539Y-71604185D01*
X147668294Y-71656989D01*
X147679500Y-71708499D01*
X147679500Y-71952869D01*
X147679501Y-71952879D01*
X147686367Y-72016751D01*
X147686367Y-72043257D01*
X147685909Y-72047516D01*
X147685909Y-72047517D01*
X147679500Y-72107127D01*
X147679500Y-72107129D01*
X147679500Y-72107133D01*
X147679500Y-72752870D01*
X147679501Y-72752876D01*
X147686619Y-72819092D01*
X147686619Y-72845599D01*
X147680000Y-72907169D01*
X147680000Y-72980000D01*
X147698591Y-72980000D01*
X147765630Y-72999685D01*
X147797855Y-73029686D01*
X147822454Y-73062546D01*
X147822455Y-73062546D01*
X147822456Y-73062548D01*
X147913540Y-73130734D01*
X147955411Y-73186668D01*
X147960395Y-73256359D01*
X147926909Y-73317682D01*
X147913540Y-73329266D01*
X147822456Y-73397451D01*
X147822454Y-73397454D01*
X147797856Y-73430312D01*
X147741924Y-73472182D01*
X147698591Y-73480000D01*
X147680000Y-73480000D01*
X147680000Y-73552844D01*
X147686619Y-73614398D01*
X147686620Y-73640909D01*
X147685909Y-73647514D01*
X147685909Y-73647517D01*
X147679500Y-73707127D01*
X147679500Y-73707134D01*
X147679500Y-73707135D01*
X147679500Y-74352870D01*
X147679501Y-74352879D01*
X147686367Y-74416751D01*
X147686367Y-74443257D01*
X147685909Y-74447516D01*
X147685909Y-74447517D01*
X147679500Y-74507127D01*
X147679500Y-74507129D01*
X147679500Y-74507133D01*
X147679500Y-75152870D01*
X147679501Y-75152879D01*
X147686367Y-75216751D01*
X147686367Y-75243257D01*
X147685909Y-75247516D01*
X147685909Y-75247517D01*
X147679500Y-75307127D01*
X147679500Y-75307129D01*
X147679500Y-75307133D01*
X147679500Y-75952870D01*
X147679501Y-75952876D01*
X147685908Y-76012483D01*
X147736202Y-76147328D01*
X147736206Y-76147335D01*
X147822452Y-76262544D01*
X147822455Y-76262547D01*
X147937664Y-76348793D01*
X147937671Y-76348797D01*
X148072517Y-76399091D01*
X148072516Y-76399091D01*
X148079444Y-76399835D01*
X148132127Y-76405500D01*
X149530500Y-76405499D01*
X149597539Y-76425184D01*
X149643294Y-76477987D01*
X149654500Y-76529499D01*
X149654500Y-77927870D01*
X149654501Y-77927872D01*
X149659124Y-77970880D01*
X149659594Y-77975246D01*
X149647188Y-78044005D01*
X149599577Y-78095142D01*
X149536304Y-78112500D01*
X148021947Y-78112500D01*
X147954908Y-78092815D01*
X147929800Y-78071476D01*
X147925871Y-78067112D01*
X147925869Y-78067111D01*
X147925867Y-78067108D01*
X147925864Y-78067106D01*
X147772734Y-77955851D01*
X147772729Y-77955848D01*
X147599807Y-77878857D01*
X147599802Y-77878855D01*
X147454001Y-77847865D01*
X147414646Y-77839500D01*
X147225354Y-77839500D01*
X147192897Y-77846398D01*
X147040197Y-77878855D01*
X147040192Y-77878857D01*
X146867270Y-77955848D01*
X146867265Y-77955851D01*
X146714129Y-78067111D01*
X146587466Y-78207785D01*
X146492821Y-78371715D01*
X146492818Y-78371722D01*
X146434956Y-78549805D01*
X146434326Y-78551744D01*
X146414540Y-78740000D01*
X146434326Y-78928256D01*
X146434327Y-78928259D01*
X146492818Y-79108277D01*
X146492821Y-79108284D01*
X146587467Y-79272216D01*
X146675224Y-79369680D01*
X146714129Y-79412888D01*
X146867265Y-79524148D01*
X146867270Y-79524151D01*
X147040192Y-79601142D01*
X147040197Y-79601144D01*
X147225354Y-79640500D01*
X147225355Y-79640500D01*
X147414644Y-79640500D01*
X147414646Y-79640500D01*
X147599803Y-79601144D01*
X147772730Y-79524151D01*
X147925871Y-79412888D01*
X147929799Y-79408525D01*
X147989286Y-79371879D01*
X148021947Y-79367500D01*
X152941033Y-79367500D01*
X152956681Y-79369227D01*
X152956708Y-79368946D01*
X152964475Y-79369680D01*
X152964476Y-79369679D01*
X152964477Y-79369680D01*
X153031919Y-79367561D01*
X153035813Y-79367500D01*
X153063472Y-79367500D01*
X153063476Y-79367500D01*
X153067474Y-79366994D01*
X153079114Y-79366077D01*
X153122943Y-79364701D01*
X153142272Y-79359084D01*
X153161328Y-79355137D01*
X153181293Y-79352616D01*
X153222055Y-79336476D01*
X153233092Y-79332698D01*
X153275191Y-79320468D01*
X153292515Y-79310221D01*
X153309983Y-79301663D01*
X153328703Y-79294253D01*
X153364177Y-79268478D01*
X153373915Y-79262081D01*
X153411656Y-79239763D01*
X153425897Y-79225520D01*
X153440678Y-79212897D01*
X153456967Y-79201063D01*
X153484904Y-79167290D01*
X153492756Y-79158661D01*
X154015043Y-78636374D01*
X154027325Y-78626537D01*
X154027144Y-78626318D01*
X154033157Y-78621342D01*
X154033162Y-78621340D01*
X154079384Y-78572116D01*
X154082033Y-78569384D01*
X154101623Y-78549796D01*
X154104096Y-78546606D01*
X154111682Y-78537722D01*
X154141693Y-78505767D01*
X154151389Y-78488128D01*
X154162073Y-78471861D01*
X154174408Y-78455962D01*
X154174714Y-78455255D01*
X154175103Y-78454787D01*
X154178383Y-78449242D01*
X154179277Y-78449770D01*
X154219403Y-78401546D01*
X154286035Y-78380524D01*
X154288517Y-78380499D01*
X154752871Y-78380499D01*
X154752872Y-78380499D01*
X154812483Y-78374091D01*
X154812486Y-78374089D01*
X154816744Y-78373632D01*
X154843254Y-78373632D01*
X154847514Y-78374089D01*
X154847517Y-78374091D01*
X154907127Y-78380500D01*
X155552872Y-78380499D01*
X155612483Y-78374091D01*
X155612486Y-78374089D01*
X155616744Y-78373632D01*
X155643254Y-78373632D01*
X155647514Y-78374089D01*
X155647517Y-78374091D01*
X155707127Y-78380500D01*
X156352872Y-78380499D01*
X156412483Y-78374091D01*
X156547331Y-78323796D01*
X156662546Y-78237546D01*
X156748796Y-78122331D01*
X156799091Y-77987483D01*
X156805500Y-77927873D01*
X156805499Y-76529498D01*
X156825184Y-76462460D01*
X156877987Y-76416705D01*
X156929499Y-76405499D01*
X158327871Y-76405499D01*
X158327872Y-76405499D01*
X158387483Y-76399091D01*
X158522331Y-76348796D01*
X158637546Y-76262546D01*
X158723796Y-76147331D01*
X158774091Y-76012483D01*
X158780500Y-75952873D01*
X158780499Y-75307128D01*
X158774091Y-75247517D01*
X158774089Y-75247513D01*
X158773632Y-75243255D01*
X158773632Y-75216745D01*
X158774089Y-75212486D01*
X158774091Y-75212483D01*
X158780500Y-75152873D01*
X158780499Y-74507128D01*
X158774091Y-74447517D01*
X158774090Y-74447516D01*
X158773380Y-74440904D01*
X158773381Y-74414393D01*
X158779999Y-74352842D01*
X158780000Y-74352827D01*
X158780000Y-74280000D01*
X158761409Y-74280000D01*
X158694370Y-74260315D01*
X158662144Y-74230313D01*
X158637546Y-74197454D01*
X158546457Y-74129265D01*
X158504588Y-74073333D01*
X158499604Y-74003641D01*
X158533089Y-73942318D01*
X158546452Y-73930738D01*
X158637546Y-73862546D01*
X158662143Y-73829687D01*
X158718076Y-73787818D01*
X158761409Y-73780000D01*
X158780000Y-73780000D01*
X158780000Y-73707172D01*
X158779999Y-73707160D01*
X158773380Y-73645604D01*
X158773380Y-73619090D01*
X158774090Y-73612485D01*
X158774091Y-73612483D01*
X158780500Y-73552873D01*
X158780499Y-72907128D01*
X158774091Y-72847517D01*
X158774090Y-72847516D01*
X158773380Y-72840904D01*
X158773381Y-72814393D01*
X158779999Y-72752842D01*
X158780000Y-72752827D01*
X158780000Y-72680000D01*
X158761409Y-72680000D01*
X158694370Y-72660315D01*
X158662144Y-72630313D01*
X158637546Y-72597454D01*
X158546457Y-72529265D01*
X158504588Y-72473333D01*
X158499604Y-72403641D01*
X158533089Y-72342318D01*
X158546452Y-72330738D01*
X158637546Y-72262546D01*
X158662143Y-72229687D01*
X158718076Y-72187818D01*
X158761409Y-72180000D01*
X158780000Y-72180000D01*
X158780000Y-72107172D01*
X158779999Y-72107160D01*
X158773380Y-72045604D01*
X158773380Y-72019090D01*
X158774090Y-72012485D01*
X158774091Y-72012483D01*
X158780500Y-71952873D01*
X158780499Y-71581499D01*
X158800183Y-71514461D01*
X158852987Y-71468706D01*
X158904499Y-71457500D01*
X165903500Y-71457500D01*
X165970539Y-71477185D01*
X166016294Y-71529989D01*
X166027500Y-71581500D01*
X166027500Y-76873719D01*
X166007815Y-76940758D01*
X165991181Y-76961400D01*
X162336400Y-80616181D01*
X162275077Y-80649666D01*
X162248719Y-80652500D01*
X160721947Y-80652500D01*
X160654908Y-80632815D01*
X160629800Y-80611476D01*
X160625871Y-80607112D01*
X160625869Y-80607111D01*
X160625867Y-80607108D01*
X160625864Y-80607106D01*
X160472734Y-80495851D01*
X160472729Y-80495848D01*
X160299807Y-80418857D01*
X160299802Y-80418855D01*
X160154001Y-80387865D01*
X160114646Y-80379500D01*
X159925354Y-80379500D01*
X159892897Y-80386398D01*
X159740197Y-80418855D01*
X159740192Y-80418857D01*
X159567270Y-80495848D01*
X159567265Y-80495851D01*
X159414129Y-80607111D01*
X159287466Y-80747785D01*
X159192821Y-80911715D01*
X159192818Y-80911722D01*
X159140715Y-81072081D01*
X159134326Y-81091744D01*
X159114540Y-81280000D01*
X159134326Y-81468256D01*
X159134327Y-81468259D01*
X159192818Y-81648277D01*
X159192821Y-81648284D01*
X159287467Y-81812216D01*
X159377489Y-81912195D01*
X159414129Y-81952888D01*
X159567265Y-82064148D01*
X159567270Y-82064151D01*
X159740192Y-82141142D01*
X159740197Y-82141144D01*
X159925354Y-82180500D01*
X159925355Y-82180500D01*
X160114644Y-82180500D01*
X160114646Y-82180500D01*
X160299803Y-82141144D01*
X160472730Y-82064151D01*
X160625871Y-81952888D01*
X160629799Y-81948525D01*
X160689286Y-81911879D01*
X160721947Y-81907500D01*
X161773853Y-81907500D01*
X161840892Y-81927185D01*
X161886647Y-81979989D01*
X161896591Y-82049147D01*
X161867566Y-82112703D01*
X161861534Y-82119181D01*
X154230528Y-89750185D01*
X154169205Y-89783670D01*
X154158371Y-89785528D01*
X154154583Y-89786006D01*
X154142956Y-89786921D01*
X154099129Y-89788298D01*
X154099128Y-89788299D01*
X154079787Y-89793917D01*
X154060750Y-89797859D01*
X154040784Y-89800382D01*
X154040778Y-89800384D01*
X154000035Y-89816514D01*
X153988990Y-89820295D01*
X153946887Y-89832528D01*
X153946881Y-89832530D01*
X153929543Y-89842783D01*
X153912086Y-89851335D01*
X153893369Y-89858747D01*
X153857913Y-89884507D01*
X153848152Y-89890918D01*
X153810418Y-89913234D01*
X153796178Y-89927474D01*
X153781390Y-89940103D01*
X153764389Y-89952456D01*
X153698584Y-89975938D01*
X153630529Y-89960116D01*
X153581833Y-89910012D01*
X153567500Y-89852141D01*
X153567500Y-87586789D01*
X153587185Y-87519750D01*
X153639989Y-87473995D01*
X153709147Y-87464051D01*
X153756598Y-87481251D01*
X153818373Y-87519355D01*
X153818380Y-87519358D01*
X153984802Y-87574505D01*
X153984809Y-87574506D01*
X154087519Y-87584999D01*
X154224999Y-87584999D01*
X154225000Y-87584998D01*
X154225000Y-86610000D01*
X154725000Y-86610000D01*
X154725000Y-87584999D01*
X154862472Y-87584999D01*
X154862486Y-87584998D01*
X154965197Y-87574505D01*
X155131619Y-87519358D01*
X155131624Y-87519356D01*
X155280845Y-87427315D01*
X155404815Y-87303345D01*
X155496856Y-87154124D01*
X155496858Y-87154119D01*
X155552005Y-86987697D01*
X155552006Y-86987690D01*
X155562499Y-86884986D01*
X155562500Y-86884973D01*
X155562500Y-86610000D01*
X154725000Y-86610000D01*
X154225000Y-86610000D01*
X154225000Y-86234000D01*
X154244685Y-86166961D01*
X154297489Y-86121206D01*
X154349000Y-86110000D01*
X155562499Y-86110000D01*
X155562499Y-85835028D01*
X155562498Y-85835013D01*
X155552005Y-85732302D01*
X155496858Y-85565880D01*
X155496856Y-85565875D01*
X155404815Y-85416654D01*
X155280845Y-85292684D01*
X155131624Y-85200643D01*
X155131619Y-85200641D01*
X154965197Y-85145494D01*
X154965190Y-85145493D01*
X154862486Y-85135000D01*
X154811779Y-85135000D01*
X154744740Y-85115315D01*
X154698985Y-85062511D01*
X154689041Y-84993353D01*
X154718066Y-84929797D01*
X154724082Y-84923335D01*
X162510600Y-77136819D01*
X162571923Y-77103334D01*
X162598281Y-77100500D01*
X162654644Y-77100500D01*
X162654646Y-77100500D01*
X162839803Y-77061144D01*
X163012730Y-76984151D01*
X163165871Y-76872888D01*
X163292533Y-76732216D01*
X163387179Y-76568284D01*
X163445674Y-76388256D01*
X163465460Y-76200000D01*
X163445674Y-76011744D01*
X163387179Y-75831716D01*
X163292533Y-75667784D01*
X163165871Y-75527112D01*
X163165870Y-75527111D01*
X163012734Y-75415851D01*
X163012729Y-75415848D01*
X162839807Y-75338857D01*
X162839802Y-75338855D01*
X162690533Y-75307128D01*
X162654646Y-75299500D01*
X162465354Y-75299500D01*
X162432897Y-75306398D01*
X162280197Y-75338855D01*
X162280192Y-75338857D01*
X162107270Y-75415848D01*
X162107265Y-75415851D01*
X161954129Y-75527111D01*
X161827466Y-75667785D01*
X161732821Y-75831715D01*
X161732818Y-75831722D01*
X161693454Y-75952873D01*
X161674326Y-76011744D01*
X161660076Y-76147328D01*
X161657011Y-76176489D01*
X161630426Y-76241103D01*
X161621371Y-76251208D01*
X152774398Y-85098181D01*
X152713075Y-85131666D01*
X152686717Y-85134500D01*
X152012498Y-85134500D01*
X152012480Y-85134501D01*
X151909703Y-85145000D01*
X151909700Y-85145001D01*
X151743168Y-85200185D01*
X151743163Y-85200187D01*
X151593842Y-85292289D01*
X151469789Y-85416342D01*
X151377687Y-85565663D01*
X151377685Y-85565668D01*
X151366734Y-85598716D01*
X151322501Y-85732203D01*
X151322501Y-85732204D01*
X151322500Y-85732204D01*
X151312000Y-85834983D01*
X151312000Y-86885001D01*
X151312001Y-86885019D01*
X151322500Y-86987796D01*
X151322501Y-86987799D01*
X151374311Y-87144148D01*
X151377686Y-87154334D01*
X151469788Y-87303656D01*
X151593844Y-87427712D01*
X151743166Y-87519814D01*
X151909703Y-87574999D01*
X152012491Y-87585500D01*
X152188500Y-87585499D01*
X152255539Y-87605183D01*
X152301294Y-87657987D01*
X152312500Y-87709499D01*
X152312500Y-90210175D01*
X152292815Y-90277214D01*
X152253597Y-90315714D01*
X152121342Y-90397289D01*
X151997289Y-90521342D01*
X151905187Y-90670663D01*
X151905185Y-90670668D01*
X151884373Y-90733476D01*
X151850001Y-90837203D01*
X151850001Y-90837204D01*
X151850000Y-90837204D01*
X151839500Y-90939983D01*
X151839500Y-91940001D01*
X151839501Y-91940019D01*
X151850000Y-92042796D01*
X151850001Y-92042799D01*
X151905185Y-92209331D01*
X151905187Y-92209336D01*
X151920604Y-92234331D01*
X151997288Y-92358656D01*
X152121344Y-92482712D01*
X152270666Y-92574814D01*
X152437203Y-92629999D01*
X152539991Y-92640500D01*
X153115500Y-92640499D01*
X153182539Y-92660183D01*
X153228294Y-92712987D01*
X153239500Y-92764499D01*
X153239500Y-94741718D01*
X153219815Y-94808757D01*
X153203181Y-94829399D01*
X147691766Y-100340813D01*
X147630443Y-100374298D01*
X147571993Y-100372907D01*
X147537982Y-100363794D01*
X147537979Y-100363793D01*
X147537977Y-100363793D01*
X147408894Y-100352500D01*
X147320002Y-100344723D01*
X147319998Y-100344723D01*
X147102029Y-100363792D01*
X147102024Y-100363792D01*
X147102023Y-100363793D01*
X147102020Y-100363793D01*
X147102019Y-100363794D01*
X147068003Y-100372908D01*
X146998153Y-100371243D01*
X146948232Y-100340813D01*
X145908819Y-99301400D01*
X145875334Y-99240077D01*
X145872500Y-99213719D01*
X145872500Y-97767114D01*
X145892185Y-97700075D01*
X145931404Y-97661575D01*
X146051156Y-97587712D01*
X146175212Y-97463656D01*
X146177252Y-97460347D01*
X146179245Y-97458555D01*
X146179693Y-97457989D01*
X146179789Y-97458065D01*
X146229194Y-97413623D01*
X146298156Y-97402395D01*
X146362240Y-97430234D01*
X146388329Y-97460339D01*
X146390181Y-97463341D01*
X146390183Y-97463344D01*
X146514154Y-97587315D01*
X146663375Y-97679356D01*
X146663380Y-97679358D01*
X146829802Y-97734505D01*
X146829809Y-97734506D01*
X146932519Y-97744999D01*
X147069999Y-97744999D01*
X147070000Y-97744998D01*
X147070000Y-96770000D01*
X147570000Y-96770000D01*
X147570000Y-97744999D01*
X147707472Y-97744999D01*
X147707486Y-97744998D01*
X147810197Y-97734505D01*
X147976619Y-97679358D01*
X147976624Y-97679356D01*
X148125845Y-97587315D01*
X148249815Y-97463345D01*
X148341856Y-97314124D01*
X148341858Y-97314119D01*
X148397005Y-97147697D01*
X148397006Y-97147690D01*
X148407499Y-97044986D01*
X148407500Y-97044973D01*
X148407500Y-96770000D01*
X147570000Y-96770000D01*
X147070000Y-96770000D01*
X147070000Y-95295000D01*
X147570000Y-95295000D01*
X147570000Y-96270000D01*
X148407499Y-96270000D01*
X148407499Y-95995028D01*
X148407498Y-95995013D01*
X148397005Y-95892302D01*
X148341858Y-95725880D01*
X148341856Y-95725875D01*
X148249815Y-95576654D01*
X148125845Y-95452684D01*
X147976624Y-95360643D01*
X147976619Y-95360641D01*
X147810197Y-95305494D01*
X147810190Y-95305493D01*
X147707486Y-95295000D01*
X147570000Y-95295000D01*
X147070000Y-95295000D01*
X146932527Y-95295000D01*
X146932512Y-95295001D01*
X146829802Y-95305494D01*
X146663380Y-95360641D01*
X146663375Y-95360643D01*
X146514154Y-95452684D01*
X146390183Y-95576655D01*
X146390179Y-95576660D01*
X146388326Y-95579665D01*
X146386518Y-95581290D01*
X146385702Y-95582323D01*
X146385525Y-95582183D01*
X146336374Y-95626385D01*
X146267411Y-95637601D01*
X146203331Y-95609752D01*
X146177253Y-95579653D01*
X146177237Y-95579628D01*
X146175212Y-95576344D01*
X146051156Y-95452288D01*
X145901834Y-95360186D01*
X145735297Y-95305001D01*
X145735295Y-95305000D01*
X145632510Y-95294500D01*
X144857498Y-95294500D01*
X144857480Y-95294501D01*
X144754703Y-95305000D01*
X144754700Y-95305001D01*
X144588168Y-95360185D01*
X144588163Y-95360187D01*
X144438842Y-95452289D01*
X144314789Y-95576342D01*
X144257539Y-95669160D01*
X144205591Y-95715884D01*
X144136628Y-95727107D01*
X144072546Y-95699263D01*
X144033690Y-95641194D01*
X144028000Y-95604063D01*
X144028000Y-94318892D01*
X144029728Y-94303242D01*
X144029446Y-94303216D01*
X144030180Y-94295453D01*
X144028061Y-94228023D01*
X144028000Y-94224128D01*
X144028000Y-94196456D01*
X144028000Y-94196452D01*
X144027492Y-94192437D01*
X144026576Y-94180791D01*
X144025200Y-94136985D01*
X144019582Y-94117648D01*
X144015638Y-94098602D01*
X144013116Y-94078635D01*
X143996980Y-94037881D01*
X143993197Y-94026831D01*
X143991533Y-94021103D01*
X143980968Y-93984737D01*
X143976836Y-93977750D01*
X143970725Y-93967417D01*
X143962162Y-93949939D01*
X143954753Y-93931225D01*
X143928989Y-93895765D01*
X143922573Y-93885997D01*
X143900265Y-93848275D01*
X143900259Y-93848267D01*
X143886031Y-93834040D01*
X143873396Y-93819248D01*
X143861563Y-93802961D01*
X143861560Y-93802959D01*
X143861560Y-93802958D01*
X143861558Y-93802956D01*
X143827787Y-93775018D01*
X143819147Y-93767156D01*
X141741991Y-91690000D01*
X144157501Y-91690000D01*
X144157501Y-91964986D01*
X144167994Y-92067697D01*
X144223141Y-92234119D01*
X144223143Y-92234124D01*
X144315184Y-92383345D01*
X144439154Y-92507315D01*
X144588375Y-92599356D01*
X144588380Y-92599358D01*
X144754802Y-92654505D01*
X144754809Y-92654506D01*
X144857519Y-92664999D01*
X144994999Y-92664999D01*
X145495000Y-92664999D01*
X145632472Y-92664999D01*
X145632486Y-92664998D01*
X145735197Y-92654505D01*
X145901619Y-92599358D01*
X145901624Y-92599356D01*
X146050845Y-92507315D01*
X146174818Y-92383342D01*
X146176665Y-92380348D01*
X146178469Y-92378724D01*
X146179298Y-92377677D01*
X146179476Y-92377818D01*
X146228610Y-92333621D01*
X146297573Y-92322396D01*
X146361656Y-92350236D01*
X146387743Y-92380341D01*
X146389788Y-92383656D01*
X146513844Y-92507712D01*
X146663166Y-92599814D01*
X146829703Y-92654999D01*
X146932491Y-92665500D01*
X147707508Y-92665499D01*
X147707516Y-92665498D01*
X147707519Y-92665498D01*
X147763802Y-92659748D01*
X147810297Y-92654999D01*
X147976834Y-92599814D01*
X148126156Y-92507712D01*
X148250212Y-92383656D01*
X148342314Y-92234334D01*
X148397499Y-92067797D01*
X148408000Y-91965009D01*
X148407999Y-90914992D01*
X148397499Y-90812203D01*
X148342314Y-90645666D01*
X148250212Y-90496344D01*
X148126156Y-90372288D01*
X147994890Y-90291323D01*
X147976836Y-90280187D01*
X147976831Y-90280185D01*
X147962720Y-90275509D01*
X147810297Y-90225001D01*
X147810295Y-90225000D01*
X147707510Y-90214500D01*
X146932498Y-90214500D01*
X146932480Y-90214501D01*
X146829703Y-90225000D01*
X146829700Y-90225001D01*
X146663168Y-90280185D01*
X146663163Y-90280187D01*
X146513842Y-90372289D01*
X146389788Y-90496343D01*
X146389783Y-90496349D01*
X146387741Y-90499661D01*
X146385747Y-90501453D01*
X146385307Y-90502011D01*
X146385211Y-90501935D01*
X146335791Y-90546383D01*
X146266828Y-90557602D01*
X146202747Y-90529755D01*
X146176668Y-90499656D01*
X146174819Y-90496659D01*
X146174816Y-90496655D01*
X146050845Y-90372684D01*
X145901624Y-90280643D01*
X145901619Y-90280641D01*
X145735197Y-90225494D01*
X145735190Y-90225493D01*
X145632486Y-90215000D01*
X145495000Y-90215000D01*
X145495000Y-92664999D01*
X144994999Y-92664999D01*
X144995000Y-92664998D01*
X144995000Y-91690000D01*
X144157501Y-91690000D01*
X141741991Y-91690000D01*
X141241991Y-91190000D01*
X144157500Y-91190000D01*
X144995000Y-91190000D01*
X144995000Y-90215000D01*
X144857527Y-90215000D01*
X144857512Y-90215001D01*
X144754802Y-90225494D01*
X144588380Y-90280641D01*
X144588375Y-90280643D01*
X144439154Y-90372684D01*
X144315184Y-90496654D01*
X144223143Y-90645875D01*
X144223141Y-90645880D01*
X144167994Y-90812302D01*
X144167993Y-90812309D01*
X144157500Y-90915013D01*
X144157500Y-91190000D01*
X141241991Y-91190000D01*
X140363819Y-90311828D01*
X140330334Y-90250505D01*
X140327500Y-90224147D01*
X140327500Y-89651500D01*
X140347185Y-89584461D01*
X140399989Y-89538706D01*
X140451500Y-89527500D01*
X147237033Y-89527500D01*
X147252681Y-89529227D01*
X147252708Y-89528946D01*
X147260475Y-89529680D01*
X147260476Y-89529679D01*
X147260477Y-89529680D01*
X147327919Y-89527561D01*
X147331813Y-89527500D01*
X147359472Y-89527500D01*
X147359476Y-89527500D01*
X147363474Y-89526994D01*
X147375114Y-89526077D01*
X147418943Y-89524701D01*
X147438272Y-89519084D01*
X147457328Y-89515137D01*
X147477293Y-89512616D01*
X147518055Y-89496476D01*
X147529092Y-89492698D01*
X147571191Y-89480468D01*
X147588515Y-89470221D01*
X147605983Y-89461663D01*
X147624703Y-89454253D01*
X147660177Y-89428478D01*
X147669915Y-89422081D01*
X147707656Y-89399763D01*
X147721897Y-89385520D01*
X147736678Y-89372897D01*
X147752967Y-89361063D01*
X147780904Y-89327290D01*
X147788756Y-89318661D01*
X150245043Y-86862374D01*
X150257325Y-86852537D01*
X150257144Y-86852318D01*
X150263157Y-86847342D01*
X150263162Y-86847340D01*
X150309384Y-86798116D01*
X150312033Y-86795384D01*
X150331623Y-86775796D01*
X150334096Y-86772606D01*
X150341682Y-86763722D01*
X150371693Y-86731767D01*
X150381389Y-86714128D01*
X150392073Y-86697861D01*
X150404408Y-86681962D01*
X150421817Y-86641728D01*
X150426955Y-86631243D01*
X150431441Y-86623085D01*
X150448072Y-86592834D01*
X150453078Y-86573334D01*
X150459382Y-86554924D01*
X150467373Y-86536459D01*
X150471567Y-86509977D01*
X150474230Y-86493166D01*
X150476596Y-86481737D01*
X150487500Y-86439272D01*
X150487500Y-86419135D01*
X150489027Y-86399735D01*
X150492174Y-86379867D01*
X150488050Y-86336238D01*
X150487500Y-86324569D01*
X150487500Y-82031500D01*
X150507185Y-81964461D01*
X150559989Y-81918706D01*
X150611500Y-81907500D01*
X151698053Y-81907500D01*
X151765092Y-81927185D01*
X151790199Y-81948523D01*
X151794127Y-81952886D01*
X151794132Y-81952891D01*
X151794135Y-81952893D01*
X151947265Y-82064148D01*
X151947270Y-82064151D01*
X152120192Y-82141142D01*
X152120197Y-82141144D01*
X152305354Y-82180500D01*
X152305355Y-82180500D01*
X152494644Y-82180500D01*
X152494646Y-82180500D01*
X152679803Y-82141144D01*
X152852730Y-82064151D01*
X153005871Y-81952888D01*
X153132533Y-81812216D01*
X153227179Y-81648284D01*
X153285674Y-81468256D01*
X153305460Y-81280000D01*
X153285674Y-81091744D01*
X153227179Y-80911716D01*
X153132533Y-80747784D01*
X153005871Y-80607112D01*
X153005870Y-80607111D01*
X152852734Y-80495851D01*
X152852729Y-80495848D01*
X152679807Y-80418857D01*
X152679802Y-80418855D01*
X152534001Y-80387865D01*
X152494646Y-80379500D01*
X152305354Y-80379500D01*
X152272897Y-80386398D01*
X152120197Y-80418855D01*
X152120192Y-80418857D01*
X151947270Y-80495848D01*
X151947265Y-80495851D01*
X151794135Y-80607106D01*
X151794132Y-80607108D01*
X151792175Y-80609281D01*
X151790200Y-80611474D01*
X151730714Y-80648121D01*
X151698053Y-80652500D01*
X149931038Y-80652500D01*
X149907802Y-80650303D01*
X149899722Y-80648761D01*
X149899711Y-80648760D01*
X149844178Y-80652255D01*
X149836392Y-80652500D01*
X149820514Y-80652500D01*
X149804771Y-80654489D01*
X149797024Y-80655221D01*
X149741481Y-80658716D01*
X149741478Y-80658716D01*
X149733641Y-80661263D01*
X149710878Y-80666351D01*
X149706002Y-80666967D01*
X149702706Y-80667384D01*
X149702704Y-80667384D01*
X149650957Y-80687872D01*
X149643632Y-80690509D01*
X149590699Y-80707708D01*
X149590694Y-80707710D01*
X149583740Y-80712124D01*
X149562960Y-80722712D01*
X149555302Y-80725744D01*
X149555296Y-80725747D01*
X149510256Y-80758470D01*
X149503816Y-80762846D01*
X149456839Y-80792658D01*
X149456831Y-80792665D01*
X149451192Y-80798670D01*
X149433697Y-80814094D01*
X149427035Y-80818934D01*
X149391558Y-80861816D01*
X149386411Y-80867654D01*
X149348310Y-80908228D01*
X149348306Y-80908234D01*
X149344332Y-80915462D01*
X149331226Y-80934747D01*
X149325973Y-80941097D01*
X149325971Y-80941101D01*
X149302283Y-80991438D01*
X149298750Y-80998372D01*
X149271930Y-81047161D01*
X149271928Y-81047165D01*
X149269879Y-81055146D01*
X149261977Y-81077094D01*
X149258468Y-81084550D01*
X149258468Y-81084551D01*
X149248043Y-81139200D01*
X149246345Y-81146797D01*
X149232501Y-81200721D01*
X149232500Y-81200729D01*
X149232500Y-81208961D01*
X149230304Y-81232196D01*
X149228761Y-81240283D01*
X149228761Y-81240286D01*
X149232255Y-81295821D01*
X149232500Y-81303607D01*
X149232500Y-86048719D01*
X149212815Y-86115758D01*
X149196181Y-86136400D01*
X147096400Y-88236181D01*
X147035077Y-88269666D01*
X147008719Y-88272500D01*
X139771038Y-88272500D01*
X139747802Y-88270303D01*
X139739722Y-88268761D01*
X139739711Y-88268760D01*
X139684178Y-88272255D01*
X139676392Y-88272500D01*
X139660514Y-88272500D01*
X139644771Y-88274489D01*
X139637024Y-88275221D01*
X139581481Y-88278716D01*
X139581478Y-88278716D01*
X139573641Y-88281263D01*
X139550878Y-88286351D01*
X139546002Y-88286967D01*
X139542706Y-88287384D01*
X139542704Y-88287384D01*
X139490957Y-88307872D01*
X139483632Y-88310509D01*
X139430699Y-88327708D01*
X139430694Y-88327710D01*
X139423740Y-88332124D01*
X139402960Y-88342712D01*
X139395302Y-88345744D01*
X139395296Y-88345747D01*
X139350256Y-88378470D01*
X139343816Y-88382846D01*
X139296839Y-88412658D01*
X139296831Y-88412665D01*
X139291192Y-88418670D01*
X139273697Y-88434094D01*
X139267035Y-88438934D01*
X139231558Y-88481816D01*
X139226411Y-88487654D01*
X139188310Y-88528228D01*
X139188306Y-88528234D01*
X139184332Y-88535462D01*
X139171226Y-88554747D01*
X139165973Y-88561097D01*
X139165971Y-88561101D01*
X139142283Y-88611438D01*
X139138750Y-88618372D01*
X139111930Y-88667161D01*
X139111928Y-88667165D01*
X139109879Y-88675146D01*
X139101977Y-88697094D01*
X139098468Y-88704550D01*
X139098468Y-88704551D01*
X139088043Y-88759200D01*
X139086345Y-88766797D01*
X139072501Y-88820721D01*
X139072500Y-88820729D01*
X139072500Y-88828961D01*
X139070304Y-88852196D01*
X139068761Y-88860283D01*
X139068761Y-88860286D01*
X139072255Y-88915821D01*
X139072500Y-88923607D01*
X139072500Y-90452460D01*
X139070772Y-90468109D01*
X139071054Y-90468136D01*
X139070319Y-90475903D01*
X139072439Y-90543345D01*
X139072500Y-90547239D01*
X139072500Y-90574904D01*
X139073006Y-90578913D01*
X139073921Y-90590544D01*
X139075298Y-90634370D01*
X139080916Y-90653703D01*
X139084862Y-90672757D01*
X139087383Y-90692715D01*
X139087386Y-90692727D01*
X139103519Y-90733476D01*
X139107302Y-90744526D01*
X139119530Y-90786615D01*
X139119530Y-90786616D01*
X139129777Y-90803943D01*
X139138335Y-90821413D01*
X139145745Y-90840129D01*
X139171511Y-90875592D01*
X139177925Y-90885357D01*
X139200234Y-90923080D01*
X139200240Y-90923088D01*
X139214469Y-90937316D01*
X139227106Y-90952112D01*
X139238937Y-90968395D01*
X139272717Y-90996340D01*
X139281346Y-91004193D01*
X142736681Y-94459528D01*
X142770166Y-94520851D01*
X142773000Y-94547209D01*
X142773000Y-96675406D01*
X142753315Y-96742445D01*
X142700511Y-96788200D01*
X142631353Y-96798144D01*
X142567797Y-96769119D01*
X142549734Y-96749718D01*
X142477187Y-96652809D01*
X142362093Y-96566649D01*
X142362086Y-96566645D01*
X142227379Y-96516403D01*
X142227372Y-96516401D01*
X142167844Y-96510000D01*
X141070000Y-96510000D01*
X141070000Y-97549916D01*
X140999143Y-97525123D01*
X140864926Y-97510000D01*
X140775074Y-97510000D01*
X140640857Y-97525123D01*
X140570000Y-97549916D01*
X140570000Y-96510000D01*
X139472155Y-96510000D01*
X139412627Y-96516401D01*
X139412620Y-96516403D01*
X139277913Y-96566645D01*
X139277906Y-96566649D01*
X139162812Y-96652809D01*
X139162809Y-96652812D01*
X139076649Y-96767906D01*
X139076645Y-96767913D01*
X139026403Y-96902620D01*
X139026401Y-96902627D01*
X139020000Y-96962155D01*
X139020000Y-98060000D01*
X140059917Y-98060000D01*
X140035123Y-98130857D01*
X140014938Y-98310000D01*
X140035123Y-98489143D01*
X140059917Y-98560000D01*
X139020000Y-98560000D01*
X139020000Y-99657844D01*
X139026401Y-99717372D01*
X139026403Y-99717379D01*
X139076645Y-99852086D01*
X139076649Y-99852093D01*
X139162809Y-99967187D01*
X139162812Y-99967190D01*
X139277906Y-100053350D01*
X139277913Y-100053354D01*
X139412620Y-100103596D01*
X139412627Y-100103598D01*
X139472155Y-100109999D01*
X139472172Y-100110000D01*
X140570000Y-100110000D01*
X140570000Y-99070083D01*
X140640857Y-99094877D01*
X140775074Y-99110000D01*
X140864926Y-99110000D01*
X140999143Y-99094877D01*
X141070000Y-99070083D01*
X141070000Y-100110000D01*
X142167828Y-100110000D01*
X142167844Y-100109999D01*
X142227372Y-100103598D01*
X142227379Y-100103596D01*
X142362086Y-100053354D01*
X142362093Y-100053350D01*
X142477187Y-99967190D01*
X142477190Y-99967187D01*
X142563350Y-99852093D01*
X142563354Y-99852086D01*
X142613596Y-99717379D01*
X142613598Y-99717372D01*
X142619999Y-99657844D01*
X142620000Y-99657827D01*
X142620000Y-99578543D01*
X142639685Y-99511504D01*
X142692489Y-99465749D01*
X142761647Y-99455805D01*
X142825203Y-99484830D01*
X142844318Y-99505657D01*
X142872011Y-99543773D01*
X142878425Y-99553538D01*
X142900734Y-99591261D01*
X142900740Y-99591269D01*
X142914969Y-99605497D01*
X142927606Y-99620293D01*
X142939437Y-99636576D01*
X142973217Y-99664521D01*
X142981846Y-99672374D01*
X146371515Y-103062043D01*
X146381362Y-103074333D01*
X146381580Y-103074154D01*
X146386548Y-103080159D01*
X146386550Y-103080161D01*
X146386551Y-103080162D01*
X146407475Y-103099811D01*
X146435737Y-103126351D01*
X146438534Y-103129062D01*
X146458098Y-103148626D01*
X146461276Y-103151090D01*
X146470172Y-103158687D01*
X146502126Y-103188695D01*
X146502128Y-103188696D01*
X146519758Y-103198387D01*
X146536026Y-103209072D01*
X146551929Y-103221408D01*
X146592153Y-103238814D01*
X146602642Y-103243952D01*
X146609097Y-103247501D01*
X146641049Y-103265068D01*
X146641051Y-103265069D01*
X146641057Y-103265072D01*
X146659067Y-103269696D01*
X146660551Y-103270077D01*
X146678955Y-103276377D01*
X146697433Y-103284374D01*
X146740742Y-103291233D01*
X146752149Y-103293595D01*
X146794619Y-103304500D01*
X146814749Y-103304500D01*
X146834148Y-103306027D01*
X146854024Y-103309175D01*
X146893819Y-103305413D01*
X146897661Y-103305050D01*
X146909330Y-103304500D01*
X151705033Y-103304500D01*
X151720681Y-103306227D01*
X151720708Y-103305946D01*
X151728475Y-103306680D01*
X151728476Y-103306679D01*
X151728477Y-103306680D01*
X151795919Y-103304561D01*
X151799813Y-103304500D01*
X151827472Y-103304500D01*
X151827476Y-103304500D01*
X151831474Y-103303994D01*
X151843114Y-103303077D01*
X151886943Y-103301701D01*
X151906272Y-103296084D01*
X151925328Y-103292137D01*
X151945293Y-103289616D01*
X151986055Y-103273476D01*
X151997092Y-103269698D01*
X152039191Y-103257468D01*
X152056515Y-103247221D01*
X152073983Y-103238663D01*
X152092703Y-103231253D01*
X152128177Y-103205478D01*
X152137915Y-103199081D01*
X152175656Y-103176763D01*
X152189897Y-103162520D01*
X152204678Y-103149897D01*
X152220967Y-103138063D01*
X152248904Y-103104290D01*
X152256756Y-103095661D01*
X152528674Y-102823743D01*
X152584261Y-102791651D01*
X152629320Y-102779578D01*
X152629321Y-102779577D01*
X152629330Y-102779575D01*
X152827639Y-102687102D01*
X153006877Y-102561598D01*
X153161598Y-102406877D01*
X153287102Y-102227639D01*
X153379575Y-102029330D01*
X153391651Y-101984261D01*
X153423743Y-101928674D01*
X157570600Y-97781818D01*
X157631923Y-97748333D01*
X157658281Y-97745499D01*
X158332502Y-97745499D01*
X158332508Y-97745499D01*
X158435297Y-97734999D01*
X158601834Y-97679814D01*
X158751156Y-97587712D01*
X158875212Y-97463656D01*
X158877252Y-97460347D01*
X158879245Y-97458555D01*
X158879693Y-97457989D01*
X158879789Y-97458065D01*
X158929194Y-97413623D01*
X158998156Y-97402395D01*
X159062240Y-97430234D01*
X159088329Y-97460339D01*
X159090181Y-97463341D01*
X159090183Y-97463344D01*
X159214154Y-97587315D01*
X159363375Y-97679356D01*
X159363380Y-97679358D01*
X159529802Y-97734505D01*
X159529809Y-97734506D01*
X159632519Y-97744999D01*
X159769999Y-97744999D01*
X159770000Y-97744998D01*
X159770000Y-96770000D01*
X160270000Y-96770000D01*
X160270000Y-97744999D01*
X160407472Y-97744999D01*
X160407486Y-97744998D01*
X160510197Y-97734505D01*
X160676619Y-97679358D01*
X160676624Y-97679356D01*
X160825845Y-97587315D01*
X160949815Y-97463345D01*
X161041856Y-97314124D01*
X161041858Y-97314119D01*
X161097005Y-97147697D01*
X161097006Y-97147690D01*
X161107499Y-97044986D01*
X161107500Y-97044973D01*
X161107500Y-96770000D01*
X160270000Y-96770000D01*
X159770000Y-96770000D01*
X159770000Y-95295000D01*
X160270000Y-95295000D01*
X160270000Y-96270000D01*
X161107499Y-96270000D01*
X161107499Y-95995028D01*
X161107498Y-95995013D01*
X161097005Y-95892302D01*
X161041858Y-95725880D01*
X161041856Y-95725875D01*
X160949815Y-95576654D01*
X160825845Y-95452684D01*
X160676624Y-95360643D01*
X160676619Y-95360641D01*
X160510197Y-95305494D01*
X160510190Y-95305493D01*
X160407486Y-95295000D01*
X160270000Y-95295000D01*
X159770000Y-95295000D01*
X159632527Y-95295000D01*
X159632512Y-95295001D01*
X159529802Y-95305494D01*
X159363380Y-95360641D01*
X159363375Y-95360643D01*
X159214154Y-95452684D01*
X159090183Y-95576655D01*
X159090179Y-95576660D01*
X159088326Y-95579665D01*
X159086518Y-95581290D01*
X159085702Y-95582323D01*
X159085525Y-95582183D01*
X159036374Y-95626385D01*
X158967411Y-95637601D01*
X158903331Y-95609752D01*
X158877253Y-95579653D01*
X158877237Y-95579628D01*
X158875212Y-95576344D01*
X158751156Y-95452288D01*
X158601834Y-95360186D01*
X158435297Y-95305001D01*
X158435295Y-95305000D01*
X158332510Y-95294500D01*
X157557498Y-95294500D01*
X157557480Y-95294501D01*
X157454703Y-95305000D01*
X157454700Y-95305001D01*
X157288168Y-95360185D01*
X157288163Y-95360187D01*
X157138842Y-95452289D01*
X157014789Y-95576342D01*
X156922687Y-95725663D01*
X156922685Y-95725668D01*
X156895568Y-95807504D01*
X156855795Y-95864949D01*
X156791280Y-95891772D01*
X156777862Y-95892500D01*
X155487965Y-95892500D01*
X155472314Y-95890772D01*
X155472288Y-95891054D01*
X155464525Y-95890319D01*
X155397095Y-95892439D01*
X155393200Y-95892500D01*
X155365519Y-95892500D01*
X155361501Y-95893007D01*
X155349874Y-95893922D01*
X155306058Y-95895299D01*
X155306054Y-95895300D01*
X155286722Y-95900916D01*
X155267682Y-95904859D01*
X155247708Y-95907383D01*
X155247701Y-95907385D01*
X155206955Y-95923517D01*
X155195907Y-95927300D01*
X155153809Y-95939531D01*
X155153808Y-95939531D01*
X155136474Y-95949782D01*
X155119012Y-95958336D01*
X155100300Y-95965745D01*
X155100295Y-95965748D01*
X155064836Y-95991510D01*
X155055077Y-95997920D01*
X155017341Y-96020238D01*
X155003107Y-96034472D01*
X154988318Y-96047104D01*
X154972032Y-96058937D01*
X154944090Y-96092712D01*
X154936229Y-96101350D01*
X151814953Y-99222626D01*
X151802669Y-99232469D01*
X151802849Y-99232687D01*
X151796837Y-99237660D01*
X151750646Y-99286847D01*
X151747941Y-99289638D01*
X151728379Y-99309200D01*
X151728375Y-99309205D01*
X151725895Y-99312403D01*
X151718317Y-99321274D01*
X151688308Y-99353230D01*
X151688305Y-99353234D01*
X151678606Y-99370877D01*
X151667928Y-99387133D01*
X151655594Y-99403034D01*
X151655589Y-99403042D01*
X151638185Y-99443262D01*
X151633046Y-99453752D01*
X151611927Y-99492167D01*
X151606920Y-99511668D01*
X151600621Y-99530064D01*
X151599293Y-99533135D01*
X151592625Y-99548544D01*
X151592624Y-99548546D01*
X151585769Y-99591831D01*
X151583401Y-99603267D01*
X151572500Y-99645723D01*
X151572500Y-99665858D01*
X151570973Y-99685257D01*
X151567825Y-99705131D01*
X151571950Y-99748767D01*
X151572500Y-99760437D01*
X151572500Y-100448250D01*
X151552815Y-100515289D01*
X151519624Y-100549825D01*
X151393118Y-100638405D01*
X151238402Y-100793121D01*
X151112900Y-100972357D01*
X151112898Y-100972361D01*
X151020426Y-101170668D01*
X151020422Y-101170677D01*
X150963793Y-101382020D01*
X150963793Y-101382023D01*
X150944723Y-101600000D01*
X150963081Y-101809844D01*
X150963793Y-101817975D01*
X150963793Y-101817979D01*
X150984004Y-101893407D01*
X150982341Y-101963257D01*
X150943178Y-102021119D01*
X150878949Y-102048623D01*
X150864229Y-102049500D01*
X148655771Y-102049500D01*
X148588732Y-102029815D01*
X148542977Y-101977011D01*
X148533033Y-101907853D01*
X148535996Y-101893407D01*
X148551536Y-101835408D01*
X148556207Y-101817977D01*
X148575277Y-101600000D01*
X148556207Y-101382023D01*
X148547092Y-101348005D01*
X148548755Y-101278155D01*
X148579184Y-101228233D01*
X154252043Y-95555374D01*
X154264325Y-95545537D01*
X154264144Y-95545318D01*
X154270157Y-95540342D01*
X154270162Y-95540340D01*
X154316384Y-95491116D01*
X154319033Y-95488384D01*
X154338623Y-95468796D01*
X154341096Y-95465606D01*
X154348682Y-95456722D01*
X154378693Y-95424767D01*
X154388389Y-95407128D01*
X154399073Y-95390861D01*
X154411408Y-95374962D01*
X154428817Y-95334728D01*
X154433955Y-95324243D01*
X154455069Y-95285840D01*
X154455070Y-95285837D01*
X154455072Y-95285834D01*
X154460081Y-95266322D01*
X154466378Y-95247932D01*
X154474373Y-95229459D01*
X154481230Y-95186157D01*
X154483595Y-95174739D01*
X154494500Y-95132272D01*
X154494500Y-95112141D01*
X154496027Y-95092741D01*
X154499175Y-95072867D01*
X154495050Y-95029230D01*
X154494500Y-95017561D01*
X154494500Y-92764499D01*
X154514185Y-92697460D01*
X154566989Y-92651705D01*
X154618495Y-92640499D01*
X155340008Y-92640499D01*
X155340016Y-92640498D01*
X155340019Y-92640498D01*
X155396302Y-92634748D01*
X155442797Y-92629999D01*
X155609334Y-92574814D01*
X155758656Y-92482712D01*
X155882712Y-92358656D01*
X155974814Y-92209334D01*
X156029999Y-92042797D01*
X156040500Y-91940009D01*
X156040499Y-91278279D01*
X156060183Y-91211241D01*
X156076813Y-91190604D01*
X167948043Y-79319374D01*
X167960325Y-79309537D01*
X167960144Y-79309318D01*
X167966157Y-79304342D01*
X167966162Y-79304340D01*
X168012384Y-79255116D01*
X168015033Y-79252384D01*
X168034623Y-79232796D01*
X168037096Y-79229606D01*
X168044682Y-79220722D01*
X168074693Y-79188767D01*
X168084389Y-79171128D01*
X168095073Y-79154861D01*
X168107408Y-79138962D01*
X168124819Y-79098725D01*
X168129942Y-79088265D01*
X168151072Y-79049834D01*
X168156078Y-79030334D01*
X168162376Y-79011936D01*
X168170374Y-78993458D01*
X168177232Y-78950151D01*
X168179596Y-78938736D01*
X168190500Y-78896272D01*
X168190500Y-78876141D01*
X168192027Y-78856741D01*
X168195175Y-78836867D01*
X168191050Y-78793230D01*
X168190500Y-78781561D01*
X168190500Y-77544000D01*
X168210185Y-77476961D01*
X168262989Y-77431206D01*
X168314500Y-77420000D01*
X168430500Y-77420000D01*
X168497539Y-77439685D01*
X168543294Y-77492489D01*
X168554500Y-77544000D01*
X168554500Y-78489070D01*
X168554501Y-78489076D01*
X168560909Y-78548684D01*
X168579519Y-78598582D01*
X168584503Y-78668274D01*
X168579520Y-78685246D01*
X168561402Y-78733823D01*
X168561401Y-78733827D01*
X168555000Y-78793355D01*
X168555000Y-79091200D01*
X172005000Y-79091200D01*
X172005000Y-78793372D01*
X172004999Y-78793355D01*
X171998598Y-78733827D01*
X171980479Y-78685248D01*
X171975495Y-78615556D01*
X171980476Y-78598591D01*
X171999091Y-78548683D01*
X172005500Y-78489073D01*
X172005500Y-78191200D01*
X181155000Y-78191200D01*
X181155000Y-78489044D01*
X181161401Y-78548572D01*
X181161403Y-78548580D01*
X181179786Y-78597867D01*
X181184770Y-78667559D01*
X181179786Y-78684533D01*
X181161403Y-78733819D01*
X181161401Y-78733827D01*
X181155000Y-78793355D01*
X181155000Y-79091200D01*
X182630000Y-79091200D01*
X182630000Y-78191200D01*
X183130000Y-78191200D01*
X183130000Y-79091200D01*
X184605000Y-79091200D01*
X184605000Y-78793372D01*
X184604999Y-78793355D01*
X184598597Y-78733822D01*
X184598597Y-78733821D01*
X184580214Y-78684535D01*
X184575228Y-78614844D01*
X184580214Y-78597865D01*
X184598597Y-78548578D01*
X184598597Y-78548577D01*
X184604999Y-78489044D01*
X184605000Y-78489027D01*
X184605000Y-78191200D01*
X183130000Y-78191200D01*
X182630000Y-78191200D01*
X181155000Y-78191200D01*
X172005500Y-78191200D01*
X172005499Y-77543999D01*
X172025183Y-77476961D01*
X172077987Y-77431206D01*
X172129499Y-77420000D01*
X181031000Y-77420000D01*
X181098039Y-77439685D01*
X181143794Y-77492489D01*
X181155000Y-77544000D01*
X181155000Y-77691200D01*
X184605000Y-77691200D01*
X184605000Y-77544000D01*
X184624685Y-77476961D01*
X184677489Y-77431206D01*
X184729000Y-77420000D01*
X185470000Y-77420000D01*
X185470000Y-66040000D01*
X168697175Y-66040000D01*
X168630136Y-66020315D01*
X168584381Y-65967511D01*
X168574437Y-65898353D01*
X168603462Y-65834797D01*
X168609494Y-65828319D01*
X170273994Y-64163819D01*
X170335317Y-64130334D01*
X170361675Y-64127500D01*
X177717033Y-64127500D01*
X177732681Y-64129227D01*
X177732708Y-64128946D01*
X177740475Y-64129680D01*
X177740476Y-64129679D01*
X177740477Y-64129680D01*
X177807919Y-64127561D01*
X177811813Y-64127500D01*
X177839472Y-64127500D01*
X177839476Y-64127500D01*
X177843474Y-64126994D01*
X177855114Y-64126077D01*
X177898943Y-64124701D01*
X177918272Y-64119084D01*
X177937328Y-64115137D01*
X177957293Y-64112616D01*
X177998055Y-64096476D01*
X178009092Y-64092698D01*
X178051191Y-64080468D01*
X178068515Y-64070221D01*
X178085983Y-64061663D01*
X178104703Y-64054253D01*
X178140177Y-64028478D01*
X178149915Y-64022081D01*
X178187656Y-63999763D01*
X178201897Y-63985520D01*
X178216678Y-63972897D01*
X178232967Y-63961063D01*
X178260904Y-63927290D01*
X178268756Y-63918661D01*
X179141600Y-63045819D01*
X179202923Y-63012334D01*
X179229281Y-63009500D01*
X181375033Y-63009500D01*
X181390681Y-63011227D01*
X181390708Y-63010946D01*
X181398475Y-63011680D01*
X181398476Y-63011679D01*
X181398477Y-63011680D01*
X181465919Y-63009561D01*
X181469813Y-63009500D01*
X181497472Y-63009500D01*
X181497476Y-63009500D01*
X181501474Y-63008994D01*
X181513114Y-63008077D01*
X181556943Y-63006701D01*
X181576272Y-63001084D01*
X181595328Y-62997137D01*
X181615293Y-62994616D01*
X181656055Y-62978476D01*
X181667092Y-62974698D01*
X181709191Y-62962468D01*
X181726515Y-62952221D01*
X181743983Y-62943663D01*
X181762703Y-62936253D01*
X181798177Y-62910478D01*
X181807915Y-62904081D01*
X181845656Y-62881763D01*
X181859897Y-62867520D01*
X181874678Y-62854897D01*
X181890967Y-62843063D01*
X181918904Y-62809290D01*
X181926756Y-62800661D01*
X182237187Y-62490230D01*
X182298508Y-62456747D01*
X182361646Y-62461262D01*
X182362117Y-62459727D01*
X182367149Y-62461268D01*
X182367153Y-62461270D01*
X182590220Y-62529583D01*
X182821624Y-62559216D01*
X183054707Y-62549314D01*
X183282765Y-62500164D01*
X183499235Y-62413179D01*
X183697891Y-62290862D01*
X183873018Y-62136731D01*
X184019578Y-61955220D01*
X184090790Y-61827745D01*
X184133353Y-61751554D01*
X184133354Y-61751552D01*
X184211073Y-61531584D01*
X184238574Y-61371197D01*
X184250499Y-61301655D01*
X184250500Y-61301646D01*
X184250500Y-60676784D01*
X184250499Y-60676765D01*
X184235671Y-60502553D01*
X184235670Y-60502551D01*
X184235670Y-60502547D01*
X184176885Y-60276781D01*
X184080792Y-60064198D01*
X183950153Y-59870912D01*
X183788728Y-59702484D01*
X183788727Y-59702483D01*
X183788726Y-59702482D01*
X183601165Y-59563762D01*
X183570353Y-59548227D01*
X183392847Y-59458730D01*
X183169780Y-59390417D01*
X183169778Y-59390416D01*
X183169776Y-59390416D01*
X182938370Y-59360783D01*
X182705299Y-59370685D01*
X182705290Y-59370686D01*
X182477233Y-59419836D01*
X182477230Y-59419837D01*
X182260768Y-59506819D01*
X182062110Y-59629137D01*
X181886981Y-59783269D01*
X181854313Y-59823728D01*
X181796881Y-59863521D01*
X181727054Y-59865946D01*
X181667000Y-59830235D01*
X181645449Y-59798221D01*
X181644354Y-59795872D01*
X181552315Y-59646654D01*
X181428345Y-59522684D01*
X181279124Y-59430643D01*
X181279119Y-59430641D01*
X181112697Y-59375494D01*
X181112690Y-59375493D01*
X181009986Y-59365000D01*
X180590000Y-59365000D01*
X180590000Y-60419530D01*
X180495326Y-60380315D01*
X180378997Y-60365000D01*
X180301003Y-60365000D01*
X180184674Y-60380315D01*
X180090000Y-60419530D01*
X180090000Y-59365000D01*
X179670028Y-59365000D01*
X179670012Y-59365001D01*
X179567302Y-59375494D01*
X179400880Y-59430641D01*
X179400875Y-59430643D01*
X179251654Y-59522684D01*
X179127684Y-59646654D01*
X179035643Y-59795875D01*
X179035641Y-59795880D01*
X178980494Y-59962302D01*
X178980493Y-59962309D01*
X178970000Y-60065013D01*
X178970000Y-60710000D01*
X179799530Y-60710000D01*
X179760315Y-60804674D01*
X179739866Y-60960000D01*
X179760315Y-61115326D01*
X179799530Y-61210000D01*
X178970000Y-61210000D01*
X178970000Y-61632390D01*
X178950315Y-61699430D01*
X178897511Y-61745184D01*
X178849898Y-61756329D01*
X178819060Y-61757298D01*
X178819054Y-61757299D01*
X178799719Y-61762916D01*
X178780680Y-61766859D01*
X178760715Y-61769382D01*
X178760701Y-61769385D01*
X178719950Y-61785519D01*
X178708906Y-61789300D01*
X178666809Y-61801531D01*
X178666806Y-61801533D01*
X178649480Y-61811779D01*
X178632010Y-61820337D01*
X178613298Y-61827745D01*
X178577826Y-61853516D01*
X178568066Y-61859927D01*
X178530346Y-61882234D01*
X178516106Y-61896474D01*
X178501320Y-61909102D01*
X178485033Y-61920936D01*
X178457090Y-61954712D01*
X178449229Y-61963350D01*
X177576400Y-62836181D01*
X177515077Y-62869666D01*
X177488719Y-62872500D01*
X170133359Y-62872500D01*
X170117708Y-62870772D01*
X170117682Y-62871054D01*
X170109919Y-62870319D01*
X170042489Y-62872439D01*
X170038594Y-62872500D01*
X170010913Y-62872500D01*
X170006895Y-62873007D01*
X169995268Y-62873922D01*
X169951452Y-62875299D01*
X169951448Y-62875300D01*
X169932116Y-62880916D01*
X169913076Y-62884859D01*
X169893106Y-62887382D01*
X169893102Y-62887383D01*
X169852347Y-62903519D01*
X169841299Y-62907301D01*
X169799206Y-62919530D01*
X169799199Y-62919533D01*
X169781874Y-62929779D01*
X169764404Y-62938337D01*
X169745692Y-62945745D01*
X169710220Y-62971516D01*
X169700460Y-62977927D01*
X169662740Y-63000234D01*
X169648500Y-63014474D01*
X169633714Y-63027102D01*
X169617427Y-63038936D01*
X169589484Y-63072712D01*
X169581623Y-63081350D01*
X167177953Y-65485020D01*
X167165669Y-65494863D01*
X167165849Y-65495081D01*
X167159837Y-65500054D01*
X167113646Y-65549241D01*
X167110941Y-65552032D01*
X167091379Y-65571594D01*
X167091375Y-65571599D01*
X167088895Y-65574797D01*
X167081317Y-65583668D01*
X167051308Y-65615624D01*
X167051305Y-65615628D01*
X167041606Y-65633271D01*
X167030928Y-65649527D01*
X167018594Y-65665428D01*
X167018589Y-65665436D01*
X167001185Y-65705656D01*
X166996046Y-65716146D01*
X166974927Y-65754561D01*
X166969920Y-65774062D01*
X166963621Y-65792458D01*
X166956893Y-65808006D01*
X166955625Y-65810938D01*
X166955624Y-65810940D01*
X166948769Y-65854225D01*
X166946401Y-65865661D01*
X166935500Y-65908117D01*
X166935500Y-65928252D01*
X166933973Y-65947651D01*
X166930825Y-65967525D01*
X166934950Y-66011161D01*
X166935500Y-66022831D01*
X166935500Y-69278500D01*
X166915815Y-69345539D01*
X166863011Y-69391294D01*
X166811500Y-69402500D01*
X163309668Y-69402500D01*
X163242629Y-69382815D01*
X163196874Y-69330011D01*
X163186930Y-69260853D01*
X163215955Y-69197297D01*
X163217518Y-69195528D01*
X163231839Y-69179623D01*
X163292533Y-69112216D01*
X163387179Y-68948284D01*
X163445674Y-68768256D01*
X163465460Y-68580000D01*
X163445674Y-68391744D01*
X163387179Y-68211716D01*
X163292533Y-68047784D01*
X163219350Y-67966506D01*
X163189120Y-67903515D01*
X163187500Y-67883534D01*
X163187500Y-62554830D01*
X163189228Y-62539180D01*
X163188946Y-62539154D01*
X163189680Y-62531391D01*
X163187561Y-62463961D01*
X163187500Y-62460066D01*
X163187500Y-62432394D01*
X163187500Y-62432390D01*
X163186992Y-62428375D01*
X163186076Y-62416729D01*
X163184700Y-62372923D01*
X163179082Y-62353586D01*
X163175138Y-62334540D01*
X163172616Y-62314573D01*
X163156480Y-62273819D01*
X163152697Y-62262769D01*
X163140468Y-62220675D01*
X163136336Y-62213688D01*
X163130225Y-62203355D01*
X163121662Y-62185877D01*
X163114253Y-62167163D01*
X163088489Y-62131703D01*
X163082073Y-62121935D01*
X163081865Y-62121584D01*
X163059763Y-62084210D01*
X163059762Y-62084209D01*
X163059759Y-62084205D01*
X163045531Y-62069978D01*
X163032896Y-62055186D01*
X163021063Y-62038899D01*
X163021060Y-62038897D01*
X163021060Y-62038896D01*
X163021058Y-62038894D01*
X162987287Y-62010956D01*
X162978647Y-62003094D01*
X161685553Y-60710000D01*
X163730000Y-60710000D01*
X164559530Y-60710000D01*
X164520315Y-60804674D01*
X164499866Y-60960000D01*
X164520315Y-61115326D01*
X164559530Y-61210000D01*
X163730001Y-61210000D01*
X163730001Y-61854986D01*
X163740494Y-61957697D01*
X163795641Y-62124119D01*
X163795643Y-62124124D01*
X163887684Y-62273345D01*
X164011654Y-62397315D01*
X164160875Y-62489356D01*
X164160880Y-62489358D01*
X164327302Y-62544505D01*
X164327309Y-62544506D01*
X164430019Y-62554999D01*
X164849999Y-62554999D01*
X164850000Y-62554998D01*
X164850000Y-61500469D01*
X164944674Y-61539685D01*
X165061003Y-61555000D01*
X165138997Y-61555000D01*
X165255326Y-61539685D01*
X165350000Y-61500469D01*
X165350000Y-62554999D01*
X165769972Y-62554999D01*
X165769986Y-62554998D01*
X165872697Y-62544505D01*
X166039119Y-62489358D01*
X166039124Y-62489356D01*
X166188345Y-62397315D01*
X166312315Y-62273345D01*
X166404359Y-62124118D01*
X166405496Y-62121681D01*
X166406722Y-62120287D01*
X166408149Y-62117975D01*
X166408544Y-62118218D01*
X166451664Y-62069237D01*
X166518855Y-62050080D01*
X166585738Y-62070290D01*
X166607404Y-62088275D01*
X166731272Y-62217516D01*
X166731273Y-62217517D01*
X166918834Y-62356237D01*
X166918836Y-62356238D01*
X166918839Y-62356240D01*
X167127153Y-62461270D01*
X167350220Y-62529583D01*
X167581624Y-62559216D01*
X167814707Y-62549314D01*
X168042765Y-62500164D01*
X168259235Y-62413179D01*
X168457891Y-62290862D01*
X168633018Y-62136731D01*
X168779578Y-61955220D01*
X168850790Y-61827745D01*
X168893353Y-61751554D01*
X168893354Y-61751552D01*
X168971073Y-61531584D01*
X168998574Y-61371197D01*
X169010499Y-61301655D01*
X169010500Y-61301646D01*
X169010500Y-60676784D01*
X169010499Y-60676765D01*
X168995671Y-60502553D01*
X168995670Y-60502551D01*
X168995670Y-60502547D01*
X168936885Y-60276781D01*
X168840792Y-60064198D01*
X168710153Y-59870912D01*
X168548728Y-59702484D01*
X168548727Y-59702483D01*
X168548726Y-59702482D01*
X168361165Y-59563762D01*
X168330353Y-59548227D01*
X168152847Y-59458730D01*
X167929780Y-59390417D01*
X167929778Y-59390416D01*
X167929776Y-59390416D01*
X167698370Y-59360783D01*
X167465299Y-59370685D01*
X167465290Y-59370686D01*
X167237233Y-59419836D01*
X167237230Y-59419837D01*
X167020768Y-59506819D01*
X166822110Y-59629137D01*
X166646981Y-59783269D01*
X166614313Y-59823728D01*
X166556881Y-59863521D01*
X166487054Y-59865946D01*
X166427000Y-59830235D01*
X166405449Y-59798221D01*
X166404354Y-59795872D01*
X166312315Y-59646654D01*
X166188345Y-59522684D01*
X166039124Y-59430643D01*
X166039119Y-59430641D01*
X165872697Y-59375494D01*
X165872690Y-59375493D01*
X165769986Y-59365000D01*
X165350000Y-59365000D01*
X165350000Y-60419530D01*
X165255326Y-60380315D01*
X165138997Y-60365000D01*
X165061003Y-60365000D01*
X164944674Y-60380315D01*
X164850000Y-60419530D01*
X164850000Y-59365000D01*
X164430028Y-59365000D01*
X164430012Y-59365001D01*
X164327302Y-59375494D01*
X164160880Y-59430641D01*
X164160875Y-59430643D01*
X164011654Y-59522684D01*
X163887684Y-59646654D01*
X163795643Y-59795875D01*
X163795641Y-59795880D01*
X163740494Y-59962302D01*
X163740493Y-59962309D01*
X163730000Y-60065013D01*
X163730000Y-60710000D01*
X161685553Y-60710000D01*
X160234734Y-59259181D01*
X160201249Y-59197858D01*
X160206233Y-59128166D01*
X160248105Y-59072233D01*
X160313569Y-59047816D01*
X160322415Y-59047500D01*
X169868719Y-59047500D01*
X169935758Y-59067185D01*
X169956400Y-59083819D01*
X171313181Y-60440600D01*
X171346666Y-60501923D01*
X171349500Y-60528281D01*
X171349500Y-61855001D01*
X171349501Y-61855018D01*
X171360000Y-61957796D01*
X171360001Y-61957799D01*
X171406032Y-62096709D01*
X171415186Y-62124334D01*
X171507288Y-62273656D01*
X171631344Y-62397712D01*
X171780666Y-62489814D01*
X171947203Y-62544999D01*
X172049991Y-62555500D01*
X173390008Y-62555499D01*
X173492797Y-62544999D01*
X173659334Y-62489814D01*
X173808656Y-62397712D01*
X173932712Y-62273656D01*
X174024814Y-62124334D01*
X174024817Y-62124322D01*
X174026095Y-62121584D01*
X174027480Y-62120010D01*
X174028605Y-62118187D01*
X174028916Y-62118379D01*
X174072263Y-62069141D01*
X174139455Y-62049983D01*
X174206338Y-62070193D01*
X174228005Y-62088179D01*
X174351603Y-62217139D01*
X174351604Y-62217140D01*
X174539097Y-62355810D01*
X174747338Y-62460803D01*
X174970330Y-62529093D01*
X174970328Y-62529093D01*
X175009999Y-62534173D01*
X175010000Y-62534173D01*
X175010000Y-61500469D01*
X175104674Y-61539685D01*
X175221003Y-61555000D01*
X175298997Y-61555000D01*
X175415326Y-61539685D01*
X175510000Y-61500469D01*
X175510000Y-62532574D01*
X175662618Y-62499683D01*
X175662619Y-62499683D01*
X175879005Y-62412732D01*
X176077592Y-62290458D01*
X176252656Y-62136382D01*
X176252660Y-62136378D01*
X176399157Y-61954945D01*
X176399161Y-61954939D01*
X176512895Y-61751346D01*
X176590585Y-61531461D01*
X176590587Y-61531453D01*
X176629999Y-61301612D01*
X176630000Y-61301603D01*
X176630000Y-61210000D01*
X175800470Y-61210000D01*
X175839685Y-61115326D01*
X175860134Y-60960000D01*
X175839685Y-60804674D01*
X175800470Y-60710000D01*
X176630000Y-60710000D01*
X176630000Y-60676805D01*
X176629999Y-60676787D01*
X176615177Y-60502636D01*
X176556412Y-60276948D01*
X176460356Y-60064447D01*
X176460351Y-60064439D01*
X176329764Y-59871228D01*
X176168396Y-59702860D01*
X176168395Y-59702859D01*
X175980902Y-59564189D01*
X175772661Y-59459196D01*
X175549675Y-59390907D01*
X175549669Y-59390906D01*
X175510000Y-59385825D01*
X175510000Y-60419530D01*
X175415326Y-60380315D01*
X175298997Y-60365000D01*
X175221003Y-60365000D01*
X175104674Y-60380315D01*
X175010000Y-60419530D01*
X175010000Y-59387424D01*
X175009999Y-59387424D01*
X174857380Y-59420316D01*
X174857379Y-59420316D01*
X174640994Y-59507267D01*
X174442407Y-59629541D01*
X174267343Y-59783617D01*
X174234899Y-59823798D01*
X174177468Y-59863590D01*
X174107640Y-59866015D01*
X174047586Y-59830304D01*
X174026036Y-59798290D01*
X174024816Y-59795674D01*
X174024814Y-59795666D01*
X173932712Y-59646344D01*
X173808656Y-59522288D01*
X173708113Y-59460273D01*
X173659336Y-59430187D01*
X173659331Y-59430185D01*
X173629548Y-59420316D01*
X173492797Y-59375001D01*
X173492795Y-59375000D01*
X173390016Y-59364500D01*
X172063281Y-59364500D01*
X171996242Y-59344815D01*
X171975600Y-59328181D01*
X170682376Y-58034957D01*
X170672531Y-58022668D01*
X170672313Y-58022849D01*
X170667340Y-58016838D01*
X170618153Y-57970648D01*
X170615354Y-57967935D01*
X170595797Y-57948377D01*
X170592607Y-57945903D01*
X170583716Y-57938310D01*
X170551768Y-57908308D01*
X170551763Y-57908304D01*
X170534122Y-57898606D01*
X170517857Y-57887922D01*
X170517680Y-57887785D01*
X170501962Y-57875592D01*
X170461735Y-57858184D01*
X170451247Y-57853045D01*
X170412838Y-57831929D01*
X170412828Y-57831926D01*
X170393334Y-57826920D01*
X170374933Y-57820620D01*
X170356459Y-57812626D01*
X170356452Y-57812624D01*
X170313173Y-57805770D01*
X170301733Y-57803401D01*
X170259279Y-57792500D01*
X170259272Y-57792500D01*
X170239142Y-57792500D01*
X170219743Y-57790973D01*
X170199868Y-57787825D01*
X170199867Y-57787825D01*
X170156230Y-57791950D01*
X170144561Y-57792500D01*
X155022965Y-57792500D01*
X155007314Y-57790772D01*
X155007288Y-57791054D01*
X154999525Y-57790319D01*
X154932095Y-57792439D01*
X154928200Y-57792500D01*
X154900519Y-57792500D01*
X154896501Y-57793007D01*
X154884874Y-57793922D01*
X154841058Y-57795299D01*
X154841054Y-57795300D01*
X154821722Y-57800916D01*
X154802682Y-57804859D01*
X154782708Y-57807383D01*
X154782701Y-57807385D01*
X154741955Y-57823517D01*
X154730907Y-57827300D01*
X154688809Y-57839531D01*
X154688808Y-57839531D01*
X154671474Y-57849782D01*
X154654012Y-57858336D01*
X154635300Y-57865745D01*
X154635295Y-57865748D01*
X154599836Y-57891510D01*
X154590077Y-57897920D01*
X154552341Y-57920238D01*
X154538107Y-57934472D01*
X154523318Y-57947104D01*
X154507032Y-57958937D01*
X154479090Y-57992712D01*
X154471229Y-58001350D01*
X153042813Y-59429766D01*
X152981490Y-59463251D01*
X152918353Y-59458735D01*
X152917883Y-59460273D01*
X152912850Y-59458731D01*
X152912847Y-59458730D01*
X152689780Y-59390417D01*
X152689778Y-59390416D01*
X152689776Y-59390416D01*
X152458370Y-59360783D01*
X152225299Y-59370685D01*
X152225290Y-59370686D01*
X151997233Y-59419836D01*
X151997230Y-59419837D01*
X151780768Y-59506819D01*
X151582110Y-59629137D01*
X151406980Y-59783270D01*
X151406977Y-59783273D01*
X151260426Y-59964773D01*
X151260421Y-59964779D01*
X151237895Y-60005103D01*
X151188014Y-60054029D01*
X151119601Y-60068220D01*
X151054375Y-60043171D01*
X151026907Y-60014064D01*
X150930153Y-59870912D01*
X150768728Y-59702484D01*
X150768727Y-59702483D01*
X150768726Y-59702482D01*
X150581165Y-59563762D01*
X150555673Y-59550909D01*
X150504675Y-59503150D01*
X150487500Y-59440187D01*
X150487500Y-56034500D01*
X150507185Y-55967461D01*
X150559989Y-55921706D01*
X150611500Y-55910500D01*
X189282719Y-55910500D01*
X189349758Y-55930185D01*
X189395513Y-55982989D01*
X189405457Y-56052147D01*
X189376432Y-56115703D01*
X189370400Y-56122181D01*
X187574953Y-57917626D01*
X187562669Y-57927469D01*
X187562849Y-57927687D01*
X187556837Y-57932660D01*
X187510646Y-57981847D01*
X187507941Y-57984638D01*
X187488379Y-58004200D01*
X187488375Y-58004205D01*
X187485895Y-58007403D01*
X187478317Y-58016274D01*
X187448308Y-58048230D01*
X187448305Y-58048234D01*
X187438606Y-58065877D01*
X187427928Y-58082133D01*
X187415594Y-58098034D01*
X187415589Y-58098042D01*
X187398185Y-58138262D01*
X187393046Y-58148752D01*
X187371927Y-58187167D01*
X187366920Y-58206668D01*
X187360621Y-58225064D01*
X187353893Y-58240612D01*
X187352625Y-58243544D01*
X187352624Y-58243546D01*
X187345769Y-58286831D01*
X187343401Y-58298267D01*
X187332500Y-58340723D01*
X187332500Y-58360858D01*
X187330973Y-58380257D01*
X187327825Y-58400131D01*
X187331950Y-58443767D01*
X187332500Y-58455437D01*
X187332500Y-78043534D01*
X187312815Y-78110573D01*
X187300650Y-78126506D01*
X187227466Y-78207785D01*
X187132821Y-78371715D01*
X187132818Y-78371722D01*
X187074956Y-78549805D01*
X187074326Y-78551744D01*
X187054540Y-78740000D01*
X187074326Y-78928256D01*
X187074327Y-78928259D01*
X187132818Y-79108277D01*
X187132821Y-79108284D01*
X187227467Y-79272216D01*
X187315224Y-79369680D01*
X187354129Y-79412888D01*
X187354131Y-79412890D01*
X187397434Y-79444352D01*
X187440100Y-79499682D01*
X187446078Y-79569295D01*
X187413472Y-79631090D01*
X187412229Y-79632350D01*
X186313280Y-80731299D01*
X186251957Y-80764784D01*
X186182265Y-80759800D01*
X186133451Y-80726591D01*
X186025871Y-80607112D01*
X186025870Y-80607111D01*
X185872734Y-80495851D01*
X185872729Y-80495848D01*
X185699807Y-80418857D01*
X185699802Y-80418855D01*
X185554001Y-80387865D01*
X185514646Y-80379500D01*
X185514645Y-80379500D01*
X185461191Y-80379500D01*
X185394152Y-80359815D01*
X185374858Y-80342707D01*
X185374228Y-80343379D01*
X185319353Y-80291848D01*
X185316554Y-80289135D01*
X185296997Y-80269577D01*
X185293807Y-80267103D01*
X185284916Y-80259510D01*
X185252968Y-80229508D01*
X185252963Y-80229504D01*
X185235322Y-80219806D01*
X185219057Y-80209122D01*
X185203163Y-80196793D01*
X185203162Y-80196792D01*
X185162935Y-80179384D01*
X185152447Y-80174245D01*
X185114038Y-80153129D01*
X185114028Y-80153126D01*
X185094534Y-80148120D01*
X185076133Y-80141820D01*
X185057659Y-80133826D01*
X185057652Y-80133824D01*
X185014373Y-80126970D01*
X185002933Y-80124601D01*
X184960479Y-80113700D01*
X184960472Y-80113700D01*
X184940342Y-80113700D01*
X184920943Y-80112173D01*
X184901068Y-80109025D01*
X184901067Y-80109025D01*
X184857430Y-80113150D01*
X184845761Y-80113700D01*
X184715603Y-80113700D01*
X184648564Y-80094015D01*
X184602809Y-80041211D01*
X184592865Y-79972053D01*
X184596924Y-79956150D01*
X184596814Y-79956124D01*
X184598598Y-79948572D01*
X184604999Y-79889044D01*
X184605000Y-79889027D01*
X184605000Y-79591200D01*
X181155000Y-79591200D01*
X181155000Y-79889044D01*
X181161401Y-79948572D01*
X181161403Y-79948583D01*
X181179519Y-79997153D01*
X181184503Y-80066844D01*
X181179520Y-80083816D01*
X181160908Y-80133717D01*
X181154501Y-80193316D01*
X181154500Y-80193335D01*
X181154500Y-81289070D01*
X181154501Y-81289076D01*
X181160909Y-81348684D01*
X181179519Y-81398582D01*
X181184503Y-81468274D01*
X181179520Y-81485246D01*
X181161402Y-81533823D01*
X181161401Y-81533827D01*
X181155000Y-81593355D01*
X181155000Y-81891200D01*
X184614625Y-81891200D01*
X184654740Y-81869294D01*
X184724432Y-81874277D01*
X184773249Y-81907487D01*
X184790986Y-81927185D01*
X184814129Y-81952888D01*
X184814131Y-81952890D01*
X184857434Y-81984352D01*
X184900100Y-82039682D01*
X184906078Y-82109295D01*
X184873472Y-82171090D01*
X184872229Y-82172350D01*
X184689699Y-82354881D01*
X184628376Y-82388366D01*
X184602018Y-82391200D01*
X181155000Y-82391200D01*
X181155000Y-82689044D01*
X181161401Y-82748572D01*
X181163187Y-82756130D01*
X181161307Y-82756574D01*
X181165563Y-82816056D01*
X181132079Y-82877380D01*
X181070756Y-82910866D01*
X181044396Y-82913700D01*
X180701767Y-82913700D01*
X180686118Y-82911972D01*
X180686092Y-82912254D01*
X180678324Y-82911519D01*
X180610882Y-82913639D01*
X180606988Y-82913700D01*
X180579323Y-82913700D01*
X180575314Y-82914206D01*
X180563684Y-82915121D01*
X180519860Y-82916498D01*
X180519856Y-82916499D01*
X180507790Y-82920004D01*
X180447428Y-82922216D01*
X180434648Y-82919500D01*
X180434646Y-82919500D01*
X180245354Y-82919500D01*
X180212897Y-82926398D01*
X180060197Y-82958855D01*
X180060192Y-82958857D01*
X179887270Y-83035848D01*
X179887265Y-83035851D01*
X179734129Y-83147111D01*
X179607466Y-83287785D01*
X179512821Y-83451715D01*
X179512818Y-83451722D01*
X179454327Y-83631740D01*
X179454326Y-83631744D01*
X179434540Y-83820000D01*
X179454326Y-84008256D01*
X179454327Y-84008259D01*
X179512818Y-84188277D01*
X179512821Y-84188284D01*
X179607467Y-84352216D01*
X179644474Y-84393316D01*
X179734129Y-84492888D01*
X179887265Y-84604148D01*
X179887270Y-84604151D01*
X180060192Y-84681142D01*
X180060197Y-84681144D01*
X180245354Y-84720500D01*
X180245355Y-84720500D01*
X180434644Y-84720500D01*
X180434646Y-84720500D01*
X180619803Y-84681144D01*
X180792730Y-84604151D01*
X180945871Y-84492888D01*
X180945879Y-84492878D01*
X180947528Y-84491396D01*
X180948696Y-84490835D01*
X180951129Y-84489068D01*
X180951452Y-84489512D01*
X181010520Y-84461166D01*
X181079855Y-84469791D01*
X181133520Y-84514533D01*
X181154478Y-84581185D01*
X181154500Y-84583546D01*
X181154500Y-84606718D01*
X181134815Y-84673757D01*
X181118181Y-84694399D01*
X180389400Y-85423181D01*
X180328077Y-85456666D01*
X180301719Y-85459500D01*
X180245354Y-85459500D01*
X180232379Y-85462258D01*
X180060197Y-85498855D01*
X180060192Y-85498857D01*
X179887270Y-85575848D01*
X179887265Y-85575851D01*
X179734129Y-85687111D01*
X179607466Y-85827785D01*
X179512821Y-85991715D01*
X179512818Y-85991722D01*
X179456909Y-86163793D01*
X179454326Y-86171744D01*
X179434540Y-86360000D01*
X179454326Y-86548256D01*
X179454327Y-86548259D01*
X179512818Y-86728277D01*
X179512821Y-86728284D01*
X179607467Y-86892216D01*
X179693439Y-86987697D01*
X179734129Y-87032888D01*
X179887265Y-87144148D01*
X179887270Y-87144151D01*
X180060192Y-87221142D01*
X180060197Y-87221144D01*
X180245354Y-87260500D01*
X180245355Y-87260500D01*
X180434644Y-87260500D01*
X180434646Y-87260500D01*
X180619803Y-87221144D01*
X180792730Y-87144151D01*
X180945871Y-87032888D01*
X180945875Y-87032883D01*
X180950700Y-87028540D01*
X180951508Y-87029438D01*
X181005298Y-86996288D01*
X181075155Y-86997608D01*
X181133210Y-87036486D01*
X181161029Y-87100578D01*
X181161270Y-87129158D01*
X181160909Y-87132517D01*
X181154500Y-87192127D01*
X181154500Y-87710494D01*
X181154501Y-88187200D01*
X181134817Y-88254239D01*
X181082013Y-88299994D01*
X181030501Y-88311200D01*
X180932155Y-88311200D01*
X180872627Y-88317601D01*
X180872623Y-88317602D01*
X180824046Y-88335720D01*
X180754354Y-88340703D01*
X180737382Y-88335719D01*
X180687485Y-88317109D01*
X180687483Y-88317108D01*
X180627883Y-88310701D01*
X180627881Y-88310700D01*
X180627873Y-88310700D01*
X180627864Y-88310700D01*
X179532129Y-88310700D01*
X179532123Y-88310701D01*
X179472516Y-88317108D01*
X179423332Y-88335453D01*
X179353640Y-88340437D01*
X179336667Y-88335453D01*
X179287482Y-88317108D01*
X179287483Y-88317108D01*
X179227883Y-88310701D01*
X179227881Y-88310700D01*
X179227873Y-88310700D01*
X179227864Y-88310700D01*
X178132129Y-88310700D01*
X178132123Y-88310701D01*
X178072516Y-88317108D01*
X178023332Y-88335453D01*
X177953640Y-88340437D01*
X177936667Y-88335453D01*
X177887482Y-88317108D01*
X177887483Y-88317108D01*
X177827883Y-88310701D01*
X177827881Y-88310700D01*
X177827873Y-88310700D01*
X177827864Y-88310700D01*
X176732129Y-88310700D01*
X176732123Y-88310701D01*
X176672516Y-88317108D01*
X176623332Y-88335453D01*
X176553640Y-88340437D01*
X176536667Y-88335453D01*
X176487482Y-88317108D01*
X176487483Y-88317108D01*
X176427883Y-88310701D01*
X176427881Y-88310700D01*
X176427873Y-88310700D01*
X176427864Y-88310700D01*
X175332129Y-88310700D01*
X175332123Y-88310701D01*
X175272516Y-88317108D01*
X175223332Y-88335453D01*
X175153640Y-88340437D01*
X175136667Y-88335453D01*
X175087482Y-88317108D01*
X175087483Y-88317108D01*
X175027883Y-88310701D01*
X175027881Y-88310700D01*
X175027873Y-88310700D01*
X175027864Y-88310700D01*
X173932129Y-88310700D01*
X173932123Y-88310701D01*
X173872516Y-88317108D01*
X173823332Y-88335453D01*
X173753640Y-88340437D01*
X173736667Y-88335453D01*
X173687482Y-88317108D01*
X173687483Y-88317108D01*
X173627883Y-88310701D01*
X173627881Y-88310700D01*
X173627873Y-88310700D01*
X173627864Y-88310700D01*
X172532129Y-88310700D01*
X172532123Y-88310701D01*
X172472516Y-88317108D01*
X172423332Y-88335453D01*
X172353640Y-88340437D01*
X172336667Y-88335453D01*
X172287482Y-88317108D01*
X172287483Y-88317108D01*
X172227883Y-88310701D01*
X172227881Y-88310700D01*
X172227873Y-88310700D01*
X172227865Y-88310700D01*
X172129000Y-88310700D01*
X172061961Y-88291015D01*
X172016206Y-88238211D01*
X172005000Y-88186700D01*
X172005000Y-87991200D01*
X170530000Y-87991200D01*
X170530000Y-88741200D01*
X170555500Y-88741200D01*
X170622539Y-88760885D01*
X170668294Y-88813689D01*
X170679500Y-88865200D01*
X170679500Y-91309070D01*
X170679501Y-91309076D01*
X170685908Y-91368683D01*
X170736202Y-91503528D01*
X170736206Y-91503535D01*
X170822452Y-91618744D01*
X170822455Y-91618747D01*
X170937664Y-91704993D01*
X170937671Y-91704997D01*
X171072517Y-91755291D01*
X171072516Y-91755291D01*
X171079444Y-91756035D01*
X171132127Y-91761700D01*
X172227872Y-91761699D01*
X172287483Y-91755291D01*
X172336665Y-91736946D01*
X172406355Y-91731961D01*
X172423333Y-91736947D01*
X172472508Y-91755288D01*
X172472511Y-91755288D01*
X172472517Y-91755291D01*
X172532127Y-91761700D01*
X173627872Y-91761699D01*
X173687483Y-91755291D01*
X173736665Y-91736946D01*
X173806355Y-91731961D01*
X173823333Y-91736947D01*
X173872508Y-91755288D01*
X173872511Y-91755288D01*
X173872517Y-91755291D01*
X173932127Y-91761700D01*
X175027872Y-91761699D01*
X175087483Y-91755291D01*
X175136665Y-91736946D01*
X175206355Y-91731961D01*
X175223333Y-91736947D01*
X175272508Y-91755288D01*
X175272511Y-91755288D01*
X175272517Y-91755291D01*
X175332127Y-91761700D01*
X176427872Y-91761699D01*
X176487483Y-91755291D01*
X176536665Y-91736946D01*
X176606355Y-91731961D01*
X176623333Y-91736947D01*
X176672508Y-91755288D01*
X176672511Y-91755288D01*
X176672517Y-91755291D01*
X176732127Y-91761700D01*
X177827872Y-91761699D01*
X177887483Y-91755291D01*
X177936665Y-91736946D01*
X178006355Y-91731961D01*
X178023333Y-91736947D01*
X178072508Y-91755288D01*
X178072511Y-91755288D01*
X178072517Y-91755291D01*
X178132127Y-91761700D01*
X179227872Y-91761699D01*
X179287483Y-91755291D01*
X179336665Y-91736946D01*
X179406355Y-91731961D01*
X179423333Y-91736947D01*
X179472508Y-91755288D01*
X179472511Y-91755288D01*
X179472517Y-91755291D01*
X179532127Y-91761700D01*
X180627872Y-91761699D01*
X180687483Y-91755291D01*
X180737382Y-91736679D01*
X180807069Y-91731694D01*
X180824048Y-91736679D01*
X180872628Y-91754798D01*
X180872627Y-91754798D01*
X180932155Y-91761199D01*
X180932172Y-91761200D01*
X181230000Y-91761200D01*
X181230000Y-90286200D01*
X181730000Y-90286200D01*
X181730000Y-91761200D01*
X182027828Y-91761200D01*
X182027844Y-91761199D01*
X182087372Y-91754798D01*
X182087379Y-91754796D01*
X182222086Y-91704554D01*
X182222093Y-91704550D01*
X182337187Y-91618390D01*
X182337190Y-91618387D01*
X182423350Y-91503293D01*
X182423354Y-91503286D01*
X182473596Y-91368579D01*
X182473598Y-91368572D01*
X182479999Y-91309044D01*
X182480000Y-91309027D01*
X182480000Y-90286200D01*
X181730000Y-90286200D01*
X181230000Y-90286200D01*
X181230000Y-89910200D01*
X181249685Y-89843161D01*
X181302489Y-89797406D01*
X181354000Y-89786200D01*
X182480000Y-89786200D01*
X182480000Y-88864499D01*
X182499685Y-88797460D01*
X182552489Y-88751705D01*
X182603997Y-88740499D01*
X184152872Y-88740499D01*
X184212483Y-88734091D01*
X184347331Y-88683796D01*
X184462546Y-88597546D01*
X184548796Y-88482331D01*
X184591921Y-88366705D01*
X184633791Y-88310772D01*
X184662464Y-88294743D01*
X184663703Y-88294253D01*
X184699177Y-88268478D01*
X184708915Y-88262081D01*
X184746656Y-88239763D01*
X184760897Y-88225520D01*
X184775678Y-88212897D01*
X184791967Y-88201063D01*
X184819904Y-88167290D01*
X184827756Y-88158661D01*
X192827821Y-80158597D01*
X192889142Y-80125114D01*
X192958834Y-80130098D01*
X193014767Y-80171970D01*
X193039184Y-80237434D01*
X193039500Y-80246280D01*
X193039500Y-106555500D01*
X193019815Y-106622539D01*
X192967011Y-106668294D01*
X192915500Y-106679500D01*
X124584500Y-106679500D01*
X124517461Y-106659815D01*
X124471706Y-106607011D01*
X124460500Y-106555500D01*
X124460500Y-70613142D01*
X124480185Y-70546103D01*
X124532989Y-70500348D01*
X124576715Y-70489387D01*
X124593619Y-70488323D01*
X124602825Y-70487745D01*
X124610608Y-70487500D01*
X126667213Y-70487500D01*
X126734252Y-70507185D01*
X126768788Y-70540377D01*
X126879954Y-70699141D01*
X127040858Y-70860045D01*
X127040861Y-70860047D01*
X127227266Y-70990568D01*
X127285275Y-71017618D01*
X127337714Y-71063791D01*
X127356866Y-71130984D01*
X127336650Y-71197865D01*
X127285275Y-71242382D01*
X127227267Y-71269431D01*
X127227265Y-71269432D01*
X127040858Y-71399954D01*
X126879954Y-71560858D01*
X126749432Y-71747265D01*
X126749431Y-71747267D01*
X126653261Y-71953502D01*
X126653258Y-71953511D01*
X126594366Y-72173302D01*
X126594364Y-72173313D01*
X126574532Y-72399998D01*
X126574532Y-72400001D01*
X126594364Y-72626686D01*
X126594366Y-72626697D01*
X126653258Y-72846488D01*
X126653260Y-72846493D01*
X126653261Y-72846496D01*
X126653737Y-72847517D01*
X126709689Y-72967507D01*
X126720180Y-73036585D01*
X126691660Y-73100368D01*
X126684987Y-73107592D01*
X126367953Y-73424626D01*
X126355669Y-73434469D01*
X126355849Y-73434687D01*
X126349837Y-73439660D01*
X126303646Y-73488847D01*
X126300941Y-73491638D01*
X126281379Y-73511200D01*
X126281375Y-73511205D01*
X126278895Y-73514403D01*
X126271317Y-73523274D01*
X126241308Y-73555230D01*
X126241305Y-73555234D01*
X126231606Y-73572877D01*
X126220928Y-73589133D01*
X126208594Y-73605034D01*
X126208589Y-73605042D01*
X126191185Y-73645262D01*
X126186046Y-73655752D01*
X126164927Y-73694167D01*
X126159920Y-73713668D01*
X126153621Y-73732064D01*
X126147015Y-73747331D01*
X126145625Y-73750544D01*
X126145624Y-73750546D01*
X126138769Y-73793831D01*
X126136401Y-73805267D01*
X126125500Y-73847723D01*
X126125500Y-73867858D01*
X126123973Y-73887255D01*
X126120825Y-73907133D01*
X126124294Y-73943824D01*
X126124950Y-73950767D01*
X126125500Y-73962437D01*
X126125500Y-77870032D01*
X126123772Y-77885681D01*
X126124054Y-77885708D01*
X126123319Y-77893475D01*
X126125439Y-77960917D01*
X126125500Y-77964811D01*
X126125500Y-77992476D01*
X126126006Y-77996485D01*
X126126921Y-78008116D01*
X126128298Y-78051942D01*
X126131371Y-78062517D01*
X126132706Y-78067113D01*
X126133916Y-78071275D01*
X126137861Y-78090327D01*
X126138176Y-78092815D01*
X126140383Y-78110287D01*
X126140386Y-78110299D01*
X126156519Y-78151048D01*
X126160302Y-78162098D01*
X126172530Y-78204187D01*
X126172530Y-78204188D01*
X126182777Y-78221515D01*
X126191335Y-78238985D01*
X126198745Y-78257701D01*
X126224511Y-78293164D01*
X126230925Y-78302929D01*
X126253234Y-78340652D01*
X126253240Y-78340660D01*
X126267469Y-78354888D01*
X126280106Y-78369684D01*
X126291937Y-78385967D01*
X126325717Y-78413912D01*
X126334346Y-78421765D01*
X126403181Y-78490600D01*
X126436666Y-78551923D01*
X126439500Y-78578281D01*
X126439500Y-79240001D01*
X126439501Y-79240019D01*
X126450000Y-79342796D01*
X126450001Y-79342799D01*
X126505185Y-79509331D01*
X126505187Y-79509336D01*
X126514325Y-79524151D01*
X126586089Y-79640500D01*
X126597289Y-79658657D01*
X126721344Y-79782712D01*
X126853596Y-79864285D01*
X126900321Y-79916233D01*
X126912500Y-79969824D01*
X126912500Y-87817032D01*
X126910772Y-87832681D01*
X126911054Y-87832708D01*
X126910319Y-87840475D01*
X126912439Y-87907917D01*
X126912500Y-87911811D01*
X126912500Y-87939476D01*
X126913006Y-87943485D01*
X126913921Y-87955116D01*
X126915298Y-87998942D01*
X126920916Y-88018275D01*
X126924862Y-88037329D01*
X126927383Y-88057287D01*
X126927386Y-88057299D01*
X126943519Y-88098048D01*
X126947302Y-88109098D01*
X126959530Y-88151187D01*
X126959530Y-88151188D01*
X126969777Y-88168515D01*
X126978335Y-88185985D01*
X126985745Y-88204701D01*
X127011511Y-88240164D01*
X127017925Y-88249929D01*
X127040234Y-88287652D01*
X127040240Y-88287660D01*
X127054469Y-88301888D01*
X127067106Y-88316684D01*
X127076538Y-88329665D01*
X127078324Y-88332124D01*
X127078937Y-88332967D01*
X127112717Y-88360912D01*
X127121346Y-88368765D01*
X127403181Y-88650600D01*
X127436666Y-88711923D01*
X127439500Y-88738281D01*
X127439500Y-89400001D01*
X127439501Y-89400019D01*
X127450000Y-89502796D01*
X127450001Y-89502799D01*
X127494049Y-89635724D01*
X127505186Y-89669334D01*
X127597288Y-89818656D01*
X127721344Y-89942712D01*
X127870666Y-90034814D01*
X128037203Y-90089999D01*
X128139991Y-90100500D01*
X128940008Y-90100499D01*
X128940016Y-90100498D01*
X128940019Y-90100498D01*
X128996302Y-90094748D01*
X129042797Y-90089999D01*
X129209334Y-90034814D01*
X129358656Y-89942712D01*
X129452675Y-89848692D01*
X129513994Y-89815210D01*
X129583686Y-89820194D01*
X129628034Y-89848695D01*
X129721654Y-89942315D01*
X129870875Y-90034356D01*
X129870880Y-90034358D01*
X130037302Y-90089505D01*
X130037309Y-90089506D01*
X130140019Y-90099999D01*
X130289999Y-90099999D01*
X130290000Y-90099998D01*
X130290000Y-89150000D01*
X130790000Y-89150000D01*
X130790000Y-90099999D01*
X130939972Y-90099999D01*
X130939986Y-90099998D01*
X131042697Y-90089505D01*
X131209119Y-90034358D01*
X131209124Y-90034356D01*
X131358345Y-89942315D01*
X131482315Y-89818345D01*
X131574356Y-89669124D01*
X131574358Y-89669119D01*
X131629505Y-89502697D01*
X131629506Y-89502690D01*
X131639999Y-89399986D01*
X131640000Y-89399973D01*
X131640000Y-89150000D01*
X130790000Y-89150000D01*
X130290000Y-89150000D01*
X130290000Y-87700000D01*
X130790000Y-87700000D01*
X130790000Y-88650000D01*
X131639999Y-88650000D01*
X131639999Y-88400028D01*
X131639998Y-88400013D01*
X131629505Y-88297302D01*
X131574358Y-88130880D01*
X131574356Y-88130875D01*
X131482315Y-87981654D01*
X131358345Y-87857684D01*
X131209124Y-87765643D01*
X131209119Y-87765641D01*
X131042697Y-87710494D01*
X131042690Y-87710493D01*
X130939986Y-87700000D01*
X130790000Y-87700000D01*
X130290000Y-87700000D01*
X130140027Y-87700000D01*
X130140012Y-87700001D01*
X130037302Y-87710494D01*
X129870880Y-87765641D01*
X129870875Y-87765643D01*
X129721657Y-87857682D01*
X129628034Y-87951305D01*
X129566710Y-87984789D01*
X129497019Y-87979805D01*
X129452672Y-87951304D01*
X129358657Y-87857289D01*
X129358656Y-87857288D01*
X129209334Y-87765186D01*
X129042797Y-87710001D01*
X129042795Y-87710000D01*
X128940016Y-87699500D01*
X128940009Y-87699500D01*
X128291500Y-87699500D01*
X128224461Y-87679815D01*
X128178706Y-87627011D01*
X128167500Y-87575500D01*
X128167500Y-86610000D01*
X133997501Y-86610000D01*
X133997501Y-86884986D01*
X134007994Y-86987697D01*
X134063141Y-87154119D01*
X134063143Y-87154124D01*
X134155184Y-87303345D01*
X134279154Y-87427315D01*
X134428375Y-87519356D01*
X134428380Y-87519358D01*
X134594802Y-87574505D01*
X134594809Y-87574506D01*
X134697519Y-87584999D01*
X134834999Y-87584999D01*
X134835000Y-87584998D01*
X134835000Y-86610000D01*
X133997501Y-86610000D01*
X128167500Y-86610000D01*
X128167500Y-85144499D01*
X128187185Y-85077460D01*
X128239989Y-85031705D01*
X128291500Y-85020499D01*
X128622113Y-85020499D01*
X128689152Y-85040184D01*
X128709794Y-85056818D01*
X129115234Y-85462258D01*
X129127016Y-85475891D01*
X129141461Y-85495294D01*
X129179634Y-85527325D01*
X129187609Y-85534633D01*
X129191557Y-85538581D01*
X129191565Y-85538588D01*
X129216008Y-85557917D01*
X129218800Y-85560191D01*
X129268675Y-85602040D01*
X129276573Y-85608667D01*
X129276575Y-85608668D01*
X129282607Y-85612635D01*
X129282576Y-85612680D01*
X129289038Y-85616797D01*
X129289067Y-85616751D01*
X129295203Y-85620536D01*
X129295205Y-85620537D01*
X129295208Y-85620539D01*
X129363597Y-85652429D01*
X129366779Y-85653969D01*
X129434189Y-85687824D01*
X129434194Y-85687825D01*
X129440979Y-85690295D01*
X129440960Y-85690347D01*
X129448188Y-85692859D01*
X129448206Y-85692808D01*
X129455056Y-85695078D01*
X129455059Y-85695078D01*
X129455060Y-85695079D01*
X129528993Y-85710344D01*
X129532354Y-85711089D01*
X129605812Y-85728500D01*
X129605818Y-85728500D01*
X129612985Y-85729338D01*
X129612978Y-85729391D01*
X129620595Y-85730169D01*
X129620600Y-85730116D01*
X129627789Y-85730745D01*
X129627792Y-85730744D01*
X129627793Y-85730745D01*
X129687067Y-85729020D01*
X129703161Y-85728552D01*
X129706767Y-85728500D01*
X133873500Y-85728500D01*
X133940539Y-85748185D01*
X133986294Y-85800989D01*
X133997500Y-85852500D01*
X133997500Y-86110000D01*
X135211000Y-86110000D01*
X135278039Y-86129685D01*
X135323794Y-86182489D01*
X135335000Y-86234000D01*
X135335000Y-87584999D01*
X135472472Y-87584999D01*
X135472486Y-87584998D01*
X135575197Y-87574505D01*
X135741619Y-87519358D01*
X135741624Y-87519356D01*
X135890845Y-87427315D01*
X136014818Y-87303342D01*
X136016665Y-87300348D01*
X136018469Y-87298724D01*
X136019298Y-87297677D01*
X136019476Y-87297818D01*
X136068610Y-87253621D01*
X136137573Y-87242396D01*
X136201656Y-87270236D01*
X136227743Y-87300341D01*
X136229788Y-87303656D01*
X136229789Y-87303657D01*
X136353844Y-87427712D01*
X136473596Y-87501575D01*
X136520321Y-87553523D01*
X136532500Y-87607114D01*
X136532500Y-97216060D01*
X136512815Y-97283099D01*
X136460011Y-97328854D01*
X136390853Y-97338798D01*
X136327297Y-97309773D01*
X136311553Y-97293372D01*
X136257704Y-97225847D01*
X135536660Y-97946890D01*
X135449423Y-97808052D01*
X135321948Y-97680577D01*
X135183108Y-97593338D01*
X135905150Y-96871296D01*
X135722517Y-96746779D01*
X135722516Y-96746778D01*
X135479460Y-96629730D01*
X135479462Y-96629730D01*
X135221662Y-96550209D01*
X135221656Y-96550207D01*
X134954898Y-96510000D01*
X134685101Y-96510000D01*
X134418343Y-96550207D01*
X134418337Y-96550209D01*
X134160538Y-96629730D01*
X133917485Y-96746778D01*
X133917476Y-96746783D01*
X133734848Y-96871296D01*
X134456891Y-97593338D01*
X134318052Y-97680577D01*
X134190577Y-97808052D01*
X134103338Y-97946891D01*
X133382295Y-97225848D01*
X133328600Y-97293180D01*
X133193709Y-97526818D01*
X133095148Y-97777947D01*
X133095142Y-97777966D01*
X133035113Y-98040971D01*
X133035113Y-98040973D01*
X133014953Y-98309995D01*
X133014953Y-98310004D01*
X133035113Y-98579026D01*
X133035113Y-98579028D01*
X133095142Y-98842033D01*
X133095148Y-98842052D01*
X133193709Y-99093181D01*
X133193708Y-99093181D01*
X133328602Y-99326822D01*
X133382294Y-99394151D01*
X133382295Y-99394151D01*
X134103338Y-98673108D01*
X134190577Y-98811948D01*
X134318052Y-98939423D01*
X134456890Y-99026661D01*
X133734848Y-99748702D01*
X133917483Y-99873220D01*
X133917485Y-99873221D01*
X134160539Y-99990269D01*
X134160537Y-99990269D01*
X134418337Y-100069790D01*
X134418343Y-100069792D01*
X134685101Y-100109999D01*
X134685110Y-100110000D01*
X134954890Y-100110000D01*
X134954898Y-100109999D01*
X135221656Y-100069792D01*
X135221662Y-100069790D01*
X135479461Y-99990269D01*
X135722521Y-99873218D01*
X135905150Y-99748702D01*
X135183108Y-99026661D01*
X135321948Y-98939423D01*
X135449423Y-98811948D01*
X135536661Y-98673108D01*
X136257703Y-99394151D01*
X136311553Y-99326627D01*
X136368742Y-99286487D01*
X136438554Y-99283637D01*
X136498823Y-99318983D01*
X136530416Y-99381302D01*
X136532500Y-99403940D01*
X136532500Y-101694384D01*
X136512815Y-101761423D01*
X136499402Y-101778721D01*
X136496444Y-101781908D01*
X136328185Y-101992898D01*
X136193258Y-102226599D01*
X136193256Y-102226603D01*
X136094666Y-102477804D01*
X136094664Y-102477811D01*
X136034616Y-102740898D01*
X136014451Y-103009995D01*
X136014451Y-103010004D01*
X136034616Y-103279101D01*
X136083395Y-103492815D01*
X136094666Y-103542195D01*
X136193257Y-103793398D01*
X136328185Y-104027102D01*
X136464080Y-104197509D01*
X136496442Y-104238089D01*
X136683183Y-104411358D01*
X136694259Y-104421635D01*
X136917226Y-104573651D01*
X137160359Y-104690738D01*
X137418228Y-104770280D01*
X137418229Y-104770280D01*
X137418232Y-104770281D01*
X137685063Y-104810499D01*
X137685068Y-104810499D01*
X137685071Y-104810500D01*
X137685072Y-104810500D01*
X137954928Y-104810500D01*
X137954929Y-104810500D01*
X137954936Y-104810499D01*
X138221767Y-104770281D01*
X138221768Y-104770280D01*
X138221772Y-104770280D01*
X138479641Y-104690738D01*
X138722775Y-104573651D01*
X138737903Y-104563337D01*
X160849500Y-104563337D01*
X160849501Y-104563355D01*
X160859650Y-104662707D01*
X160859651Y-104662710D01*
X160912996Y-104823694D01*
X160913001Y-104823705D01*
X161002029Y-104968040D01*
X161002032Y-104968044D01*
X161121955Y-105087967D01*
X161121959Y-105087970D01*
X161266294Y-105176998D01*
X161266297Y-105176999D01*
X161266303Y-105177003D01*
X161427292Y-105230349D01*
X161526655Y-105240500D01*
X162073344Y-105240499D01*
X162073352Y-105240498D01*
X162073355Y-105240498D01*
X162127760Y-105234940D01*
X162172708Y-105230349D01*
X162333697Y-105177003D01*
X162478044Y-105087968D01*
X162597968Y-104968044D01*
X162687003Y-104823697D01*
X162740349Y-104662708D01*
X162750500Y-104563345D01*
X162750499Y-104307884D01*
X162770183Y-104240846D01*
X162786813Y-104220209D01*
X163588264Y-103418758D01*
X163601883Y-103406988D01*
X163621294Y-103392539D01*
X163653334Y-103354354D01*
X163660623Y-103346399D01*
X163664583Y-103342441D01*
X163683927Y-103317974D01*
X163686161Y-103315232D01*
X163734667Y-103257427D01*
X163734671Y-103257418D01*
X163738637Y-103251390D01*
X163738683Y-103251420D01*
X163742795Y-103244965D01*
X163742748Y-103244936D01*
X163746532Y-103238799D01*
X163746539Y-103238791D01*
X163778417Y-103170428D01*
X163779972Y-103167214D01*
X163813824Y-103099811D01*
X163813826Y-103099798D01*
X163816293Y-103093024D01*
X163816346Y-103093043D01*
X163818858Y-103085815D01*
X163818807Y-103085798D01*
X163821077Y-103078945D01*
X163821077Y-103078943D01*
X163821079Y-103078940D01*
X163836345Y-103005001D01*
X163837097Y-103001610D01*
X163854500Y-102928188D01*
X163854500Y-102928181D01*
X163855338Y-102921015D01*
X163855392Y-102921021D01*
X163856170Y-102913405D01*
X163856117Y-102913401D01*
X163856746Y-102906210D01*
X163854552Y-102830804D01*
X163854500Y-102827198D01*
X163854500Y-100211490D01*
X163874185Y-100144451D01*
X163913408Y-100105948D01*
X163918656Y-100102712D01*
X164012319Y-100009049D01*
X164073642Y-99975564D01*
X164143334Y-99980548D01*
X164187681Y-100009049D01*
X164281344Y-100102712D01*
X164430666Y-100194814D01*
X164597203Y-100249999D01*
X164699991Y-100260500D01*
X165500008Y-100260499D01*
X165500016Y-100260498D01*
X165500019Y-100260498D01*
X165556302Y-100254748D01*
X165602797Y-100249999D01*
X165769334Y-100194814D01*
X165918656Y-100102712D01*
X166042712Y-99978656D01*
X166134814Y-99829334D01*
X166153648Y-99772495D01*
X166193421Y-99715051D01*
X166257937Y-99688228D01*
X166271354Y-99687500D01*
X171446173Y-99687500D01*
X171513212Y-99707185D01*
X171547747Y-99740375D01*
X171681505Y-99931401D01*
X171848599Y-100098495D01*
X172034158Y-100228425D01*
X172034594Y-100228730D01*
X172078218Y-100283307D01*
X172085411Y-100352806D01*
X172053889Y-100415160D01*
X172034593Y-100431880D01*
X171958626Y-100485072D01*
X171958625Y-100485072D01*
X172587466Y-101113913D01*
X172577685Y-101115320D01*
X172446900Y-101175048D01*
X172338239Y-101269202D01*
X172260507Y-101390156D01*
X172236923Y-101470475D01*
X171605073Y-100838625D01*
X171605072Y-100838625D01*
X171546401Y-100922419D01*
X171446570Y-101136507D01*
X171446566Y-101136516D01*
X171385432Y-101364673D01*
X171385430Y-101364684D01*
X171364843Y-101599998D01*
X171364843Y-101600001D01*
X171385430Y-101835315D01*
X171385432Y-101835326D01*
X171446566Y-102063483D01*
X171446570Y-102063492D01*
X171546400Y-102277579D01*
X171546402Y-102277583D01*
X171605072Y-102361373D01*
X171605073Y-102361373D01*
X172236923Y-101729523D01*
X172260507Y-101809844D01*
X172338239Y-101930798D01*
X172446900Y-102024952D01*
X172577685Y-102084680D01*
X172587466Y-102086086D01*
X171958625Y-102714925D01*
X172042421Y-102773599D01*
X172256507Y-102873429D01*
X172256516Y-102873433D01*
X172484673Y-102934567D01*
X172484684Y-102934569D01*
X172719998Y-102955157D01*
X172720002Y-102955157D01*
X172955315Y-102934569D01*
X172955326Y-102934567D01*
X173183483Y-102873433D01*
X173183492Y-102873429D01*
X173397578Y-102773600D01*
X173397582Y-102773598D01*
X173481373Y-102714926D01*
X173481373Y-102714925D01*
X172852533Y-102086086D01*
X172862315Y-102084680D01*
X172993100Y-102024952D01*
X173101761Y-101930798D01*
X173179493Y-101809844D01*
X173203076Y-101729524D01*
X173834925Y-102361373D01*
X173888119Y-102285405D01*
X173942696Y-102241781D01*
X174012195Y-102234588D01*
X174074549Y-102266110D01*
X174091269Y-102285405D01*
X174221505Y-102471401D01*
X174388599Y-102638495D01*
X174458017Y-102687102D01*
X174582165Y-102774032D01*
X174582167Y-102774033D01*
X174582170Y-102774035D01*
X174796337Y-102873903D01*
X175024592Y-102935063D01*
X175222705Y-102952396D01*
X175265394Y-102956131D01*
X175265238Y-102957913D01*
X175324598Y-102975344D01*
X175370353Y-103028148D01*
X175380297Y-103097306D01*
X175351272Y-103160862D01*
X175345240Y-103167340D01*
X175036400Y-103476181D01*
X174975077Y-103509666D01*
X174948719Y-103512500D01*
X166090873Y-103512500D01*
X166023834Y-103492815D01*
X165985335Y-103453598D01*
X165897968Y-103311956D01*
X165778044Y-103192032D01*
X165778040Y-103192029D01*
X165633705Y-103103001D01*
X165633699Y-103102998D01*
X165633697Y-103102997D01*
X165581845Y-103085815D01*
X165472709Y-103049651D01*
X165373346Y-103039500D01*
X164826662Y-103039500D01*
X164826644Y-103039501D01*
X164727292Y-103049650D01*
X164727289Y-103049651D01*
X164566305Y-103102996D01*
X164566294Y-103103001D01*
X164421959Y-103192029D01*
X164421955Y-103192032D01*
X164302032Y-103311955D01*
X164302029Y-103311959D01*
X164213001Y-103456294D01*
X164212996Y-103456305D01*
X164159651Y-103617290D01*
X164149500Y-103716647D01*
X164149500Y-104563337D01*
X164149501Y-104563355D01*
X164159650Y-104662707D01*
X164159651Y-104662710D01*
X164212996Y-104823694D01*
X164213001Y-104823705D01*
X164302029Y-104968040D01*
X164302032Y-104968044D01*
X164421955Y-105087967D01*
X164421959Y-105087970D01*
X164566294Y-105176998D01*
X164566297Y-105176999D01*
X164566303Y-105177003D01*
X164727292Y-105230349D01*
X164826655Y-105240500D01*
X165373344Y-105240499D01*
X165373352Y-105240498D01*
X165373355Y-105240498D01*
X165427760Y-105234940D01*
X165472708Y-105230349D01*
X165633697Y-105177003D01*
X165778044Y-105087968D01*
X165897968Y-104968044D01*
X165985335Y-104826402D01*
X166037283Y-104779678D01*
X166090873Y-104767500D01*
X175177033Y-104767500D01*
X175192681Y-104769227D01*
X175192708Y-104768946D01*
X175200475Y-104769680D01*
X175200476Y-104769679D01*
X175200477Y-104769680D01*
X175267919Y-104767561D01*
X175271813Y-104767500D01*
X175299472Y-104767500D01*
X175299476Y-104767500D01*
X175303474Y-104766994D01*
X175315114Y-104766077D01*
X175358943Y-104764701D01*
X175378272Y-104759084D01*
X175397328Y-104755137D01*
X175417293Y-104752616D01*
X175458055Y-104736476D01*
X175469092Y-104732698D01*
X175511191Y-104720468D01*
X175528515Y-104710221D01*
X175545983Y-104701663D01*
X175564703Y-104694253D01*
X175600177Y-104668478D01*
X175609915Y-104662081D01*
X175647656Y-104639763D01*
X175661897Y-104625520D01*
X175676678Y-104612897D01*
X175692967Y-104601063D01*
X175720904Y-104567290D01*
X175728756Y-104558661D01*
X177346584Y-102940833D01*
X177407905Y-102907350D01*
X177466356Y-102908741D01*
X177483748Y-102913401D01*
X177564592Y-102935063D01*
X177752918Y-102951539D01*
X177799999Y-102955659D01*
X177800000Y-102955659D01*
X177800001Y-102955659D01*
X177839234Y-102952226D01*
X178035408Y-102935063D01*
X178263663Y-102873903D01*
X178477830Y-102774035D01*
X178671401Y-102638495D01*
X178838495Y-102471401D01*
X178974035Y-102277830D01*
X179073903Y-102063663D01*
X179135063Y-101835408D01*
X179155659Y-101600000D01*
X179135063Y-101364592D01*
X179092728Y-101206593D01*
X179094391Y-101136743D01*
X179133554Y-101078881D01*
X179197782Y-101051377D01*
X179212503Y-101050500D01*
X181434033Y-101050500D01*
X181449681Y-101052227D01*
X181449708Y-101051946D01*
X181457475Y-101052680D01*
X181457476Y-101052679D01*
X181457477Y-101052680D01*
X181524919Y-101050561D01*
X181528813Y-101050500D01*
X181556472Y-101050500D01*
X181556476Y-101050500D01*
X181560474Y-101049994D01*
X181572114Y-101049077D01*
X181615943Y-101047701D01*
X181635272Y-101042084D01*
X181654328Y-101038137D01*
X181674293Y-101035616D01*
X181715055Y-101019476D01*
X181726092Y-101015698D01*
X181768191Y-101003468D01*
X181785515Y-100993221D01*
X181802983Y-100984663D01*
X181821703Y-100977253D01*
X181857177Y-100951478D01*
X181866915Y-100945081D01*
X181904656Y-100922763D01*
X181918897Y-100908520D01*
X181933678Y-100895897D01*
X181949967Y-100884063D01*
X181977904Y-100850290D01*
X181985756Y-100841661D01*
X187910600Y-94916819D01*
X187971923Y-94883334D01*
X187998281Y-94880500D01*
X188054644Y-94880500D01*
X188054646Y-94880500D01*
X188239803Y-94841144D01*
X188412730Y-94764151D01*
X188565871Y-94652888D01*
X188692533Y-94512216D01*
X188787179Y-94348284D01*
X188845674Y-94168256D01*
X188865460Y-93980000D01*
X188845674Y-93791744D01*
X188787179Y-93611716D01*
X188692533Y-93447784D01*
X188565871Y-93307112D01*
X188565870Y-93307111D01*
X188412734Y-93195851D01*
X188412729Y-93195848D01*
X188239807Y-93118857D01*
X188239802Y-93118855D01*
X188094001Y-93087865D01*
X188054646Y-93079500D01*
X187865354Y-93079500D01*
X187832962Y-93086385D01*
X187680197Y-93118855D01*
X187680192Y-93118857D01*
X187507270Y-93195848D01*
X187507265Y-93195851D01*
X187354129Y-93307111D01*
X187227466Y-93447785D01*
X187132821Y-93611715D01*
X187132818Y-93611722D01*
X187074327Y-93791740D01*
X187074326Y-93791744D01*
X187063393Y-93895765D01*
X187057011Y-93956489D01*
X187030426Y-94021103D01*
X187021371Y-94031208D01*
X181293400Y-99759181D01*
X181232077Y-99792666D01*
X181205719Y-99795500D01*
X179274500Y-99795500D01*
X179207461Y-99775815D01*
X179161706Y-99723011D01*
X179150500Y-99671500D01*
X179150499Y-98409998D01*
X179150498Y-98409981D01*
X179139999Y-98307203D01*
X179139998Y-98307200D01*
X179106699Y-98206711D01*
X179084814Y-98140666D01*
X178992712Y-97991344D01*
X178868656Y-97867288D01*
X178737147Y-97786173D01*
X178719336Y-97775187D01*
X178719331Y-97775185D01*
X178694974Y-97767114D01*
X178552797Y-97720001D01*
X178552793Y-97720000D01*
X178552787Y-97719999D01*
X178538892Y-97718579D01*
X178474201Y-97692180D01*
X178434053Y-97634998D01*
X178427500Y-97595222D01*
X178427500Y-97216465D01*
X178447185Y-97149426D01*
X178459343Y-97133500D01*
X178532533Y-97052216D01*
X178627179Y-96888284D01*
X178685674Y-96708256D01*
X178705460Y-96520000D01*
X178685674Y-96331744D01*
X178627179Y-96151716D01*
X178532533Y-95987784D01*
X178405871Y-95847112D01*
X178405870Y-95847111D01*
X178252734Y-95735851D01*
X178252729Y-95735848D01*
X178079807Y-95658857D01*
X178079802Y-95658855D01*
X177934001Y-95627865D01*
X177894646Y-95619500D01*
X177705354Y-95619500D01*
X177672962Y-95626385D01*
X177520197Y-95658855D01*
X177520192Y-95658857D01*
X177347270Y-95735848D01*
X177347265Y-95735851D01*
X177194129Y-95847111D01*
X177067466Y-95987785D01*
X176972821Y-96151715D01*
X176972818Y-96151722D01*
X176914327Y-96331740D01*
X176914326Y-96331744D01*
X176894540Y-96520000D01*
X176914326Y-96708256D01*
X176914327Y-96708259D01*
X176972818Y-96888277D01*
X176972821Y-96888284D01*
X177037289Y-96999947D01*
X177067467Y-97052216D01*
X177140651Y-97133494D01*
X177170880Y-97196484D01*
X177172500Y-97216465D01*
X177172500Y-97595223D01*
X177152815Y-97662262D01*
X177100011Y-97708017D01*
X177061103Y-97718581D01*
X177047202Y-97720001D01*
X177047200Y-97720001D01*
X176880668Y-97775185D01*
X176880663Y-97775187D01*
X176731342Y-97867289D01*
X176607289Y-97991342D01*
X176515187Y-98140663D01*
X176515183Y-98140673D01*
X176512335Y-98149268D01*
X176472560Y-98206711D01*
X176408044Y-98233531D01*
X176339268Y-98221214D01*
X176302517Y-98192233D01*
X176302324Y-98192427D01*
X176300682Y-98190785D01*
X176299642Y-98189965D01*
X176298494Y-98188597D01*
X176131402Y-98021506D01*
X176131401Y-98021505D01*
X176125380Y-98017289D01*
X175940375Y-97887747D01*
X175896752Y-97833171D01*
X175887500Y-97786173D01*
X175887500Y-94676465D01*
X175907185Y-94609426D01*
X175919343Y-94593500D01*
X175992533Y-94512216D01*
X176087179Y-94348284D01*
X176125612Y-94230000D01*
X179780001Y-94230000D01*
X179780001Y-94479986D01*
X179790494Y-94582697D01*
X179845641Y-94749119D01*
X179845643Y-94749124D01*
X179937684Y-94898345D01*
X180061654Y-95022315D01*
X180210875Y-95114356D01*
X180210880Y-95114358D01*
X180377302Y-95169505D01*
X180377309Y-95169506D01*
X180480019Y-95179999D01*
X180629999Y-95179999D01*
X181130000Y-95179999D01*
X181279972Y-95179999D01*
X181279986Y-95179998D01*
X181382697Y-95169505D01*
X181549119Y-95114358D01*
X181549124Y-95114356D01*
X181698342Y-95022317D01*
X181791964Y-94928695D01*
X181853287Y-94895210D01*
X181922979Y-94900194D01*
X181967327Y-94928695D01*
X182061344Y-95022712D01*
X182210666Y-95114814D01*
X182377203Y-95169999D01*
X182479991Y-95180500D01*
X183280008Y-95180499D01*
X183280016Y-95180498D01*
X183280019Y-95180498D01*
X183336522Y-95174726D01*
X183382797Y-95169999D01*
X183549334Y-95114814D01*
X183698656Y-95022712D01*
X183822712Y-94898656D01*
X183914814Y-94749334D01*
X183969999Y-94582797D01*
X183980500Y-94480009D01*
X183980499Y-93818279D01*
X184000183Y-93751241D01*
X184016813Y-93730604D01*
X185370600Y-92376819D01*
X185431923Y-92343334D01*
X185458281Y-92340500D01*
X185514644Y-92340500D01*
X185514646Y-92340500D01*
X185699803Y-92301144D01*
X185872730Y-92224151D01*
X186025871Y-92112888D01*
X186152533Y-91972216D01*
X186247179Y-91808284D01*
X186305674Y-91628256D01*
X186325460Y-91440000D01*
X186305674Y-91251744D01*
X186247179Y-91071716D01*
X186152533Y-90907784D01*
X186025871Y-90767112D01*
X185994784Y-90744526D01*
X185872734Y-90655851D01*
X185872729Y-90655848D01*
X185699807Y-90578857D01*
X185699802Y-90578855D01*
X185532735Y-90543345D01*
X185514646Y-90539500D01*
X185325354Y-90539500D01*
X185307265Y-90543345D01*
X185140197Y-90578855D01*
X185140192Y-90578857D01*
X184967270Y-90655848D01*
X184967265Y-90655851D01*
X184814129Y-90767111D01*
X184687466Y-90907785D01*
X184592821Y-91071715D01*
X184592818Y-91071722D01*
X184554193Y-91190599D01*
X184534326Y-91251744D01*
X184522036Y-91368683D01*
X184517011Y-91416489D01*
X184490426Y-91481103D01*
X184481371Y-91491208D01*
X183229398Y-92743181D01*
X183168075Y-92776666D01*
X183141717Y-92779500D01*
X182479998Y-92779500D01*
X182479980Y-92779501D01*
X182377203Y-92790000D01*
X182377200Y-92790001D01*
X182210668Y-92845185D01*
X182210663Y-92845187D01*
X182061345Y-92937287D01*
X181967327Y-93031305D01*
X181906003Y-93064789D01*
X181836312Y-93059805D01*
X181791965Y-93031304D01*
X181698345Y-92937684D01*
X181549124Y-92845643D01*
X181549119Y-92845641D01*
X181382697Y-92790494D01*
X181382690Y-92790493D01*
X181279986Y-92780000D01*
X181130000Y-92780000D01*
X181130000Y-95179999D01*
X180629999Y-95179999D01*
X180630000Y-95179998D01*
X180630000Y-94230000D01*
X179780001Y-94230000D01*
X176125612Y-94230000D01*
X176145674Y-94168256D01*
X176165460Y-93980000D01*
X176145674Y-93791744D01*
X176125612Y-93730000D01*
X179780000Y-93730000D01*
X180630000Y-93730000D01*
X180630000Y-92780000D01*
X180480027Y-92780000D01*
X180480012Y-92780001D01*
X180377302Y-92790494D01*
X180210880Y-92845641D01*
X180210875Y-92845643D01*
X180061654Y-92937684D01*
X179937684Y-93061654D01*
X179845643Y-93210875D01*
X179845641Y-93210880D01*
X179790494Y-93377302D01*
X179790493Y-93377309D01*
X179780000Y-93480013D01*
X179780000Y-93730000D01*
X176125612Y-93730000D01*
X176087179Y-93611716D01*
X175992533Y-93447784D01*
X175865871Y-93307112D01*
X175865870Y-93307111D01*
X175712734Y-93195851D01*
X175712729Y-93195848D01*
X175539807Y-93118857D01*
X175539802Y-93118855D01*
X175394001Y-93087865D01*
X175354646Y-93079500D01*
X175165354Y-93079500D01*
X175132962Y-93086385D01*
X174980197Y-93118855D01*
X174980192Y-93118857D01*
X174807270Y-93195848D01*
X174807265Y-93195851D01*
X174654129Y-93307111D01*
X174527466Y-93447785D01*
X174432821Y-93611715D01*
X174432818Y-93611722D01*
X174374327Y-93791740D01*
X174374326Y-93791744D01*
X174354540Y-93980000D01*
X174374326Y-94168256D01*
X174374327Y-94168259D01*
X174432818Y-94348277D01*
X174432821Y-94348284D01*
X174527467Y-94512216D01*
X174600651Y-94593494D01*
X174630880Y-94656484D01*
X174632500Y-94676465D01*
X174632500Y-97786173D01*
X174612815Y-97853212D01*
X174579624Y-97887748D01*
X174388594Y-98021508D01*
X174221505Y-98188597D01*
X174091575Y-98374158D01*
X174036998Y-98417783D01*
X173967500Y-98424977D01*
X173905145Y-98393454D01*
X173888425Y-98374158D01*
X173758494Y-98188597D01*
X173591402Y-98021506D01*
X173591401Y-98021505D01*
X173585380Y-98017289D01*
X173400375Y-97887747D01*
X173356752Y-97833171D01*
X173347500Y-97786173D01*
X173347500Y-97216465D01*
X173367185Y-97149426D01*
X173379343Y-97133500D01*
X173452533Y-97052216D01*
X173547179Y-96888284D01*
X173605674Y-96708256D01*
X173625460Y-96520000D01*
X173605674Y-96331744D01*
X173547179Y-96151716D01*
X173452533Y-95987784D01*
X173325871Y-95847112D01*
X173325870Y-95847111D01*
X173172734Y-95735851D01*
X173172729Y-95735848D01*
X172999807Y-95658857D01*
X172999802Y-95658855D01*
X172854001Y-95627865D01*
X172814646Y-95619500D01*
X172625354Y-95619500D01*
X172592962Y-95626385D01*
X172440197Y-95658855D01*
X172440192Y-95658857D01*
X172267270Y-95735848D01*
X172267265Y-95735851D01*
X172114129Y-95847111D01*
X171987466Y-95987785D01*
X171892821Y-96151715D01*
X171892818Y-96151722D01*
X171834327Y-96331740D01*
X171834326Y-96331744D01*
X171814540Y-96520000D01*
X171834326Y-96708256D01*
X171834327Y-96708259D01*
X171892818Y-96888277D01*
X171892821Y-96888284D01*
X171957289Y-96999947D01*
X171987467Y-97052216D01*
X172060651Y-97133494D01*
X172090880Y-97196484D01*
X172092500Y-97216465D01*
X172092500Y-97786173D01*
X172072815Y-97853212D01*
X172039624Y-97887748D01*
X171848594Y-98021508D01*
X171681505Y-98188597D01*
X171547749Y-98379623D01*
X171493172Y-98423248D01*
X171446174Y-98432500D01*
X166271354Y-98432500D01*
X166204315Y-98412815D01*
X166158560Y-98360011D01*
X166153648Y-98347504D01*
X166134814Y-98290666D01*
X166042712Y-98141344D01*
X165918656Y-98017288D01*
X165769334Y-97925186D01*
X165609021Y-97872063D01*
X165551577Y-97832291D01*
X165524754Y-97767775D01*
X165537069Y-97699000D01*
X165560342Y-97666680D01*
X166053264Y-97173758D01*
X166066883Y-97161988D01*
X166086294Y-97147539D01*
X166118334Y-97109354D01*
X166125623Y-97101399D01*
X166129583Y-97097441D01*
X166148934Y-97072966D01*
X166151175Y-97070215D01*
X166199667Y-97012427D01*
X166199668Y-97012424D01*
X166203637Y-97006390D01*
X166203684Y-97006421D01*
X166207790Y-96999976D01*
X166207743Y-96999947D01*
X166211534Y-96993799D01*
X166211534Y-96993797D01*
X166211539Y-96993792D01*
X166243436Y-96925386D01*
X166244976Y-96922206D01*
X166278824Y-96854811D01*
X166278826Y-96854798D01*
X166281293Y-96848024D01*
X166281346Y-96848043D01*
X166283858Y-96840815D01*
X166283807Y-96840798D01*
X166286080Y-96833938D01*
X166301333Y-96760065D01*
X166302114Y-96756541D01*
X166305455Y-96742445D01*
X166319500Y-96683188D01*
X166319500Y-96683185D01*
X166320339Y-96676015D01*
X166320391Y-96676021D01*
X166321169Y-96668406D01*
X166321116Y-96668402D01*
X166321745Y-96661211D01*
X166319552Y-96585838D01*
X166319500Y-96582232D01*
X166319500Y-95148589D01*
X166339185Y-95081550D01*
X166366590Y-95051322D01*
X166371149Y-95047716D01*
X166371156Y-95047712D01*
X166495212Y-94923656D01*
X166497252Y-94920347D01*
X166499245Y-94918555D01*
X166499693Y-94917989D01*
X166499789Y-94918065D01*
X166549194Y-94873623D01*
X166618156Y-94862395D01*
X166682240Y-94890234D01*
X166708329Y-94920339D01*
X166710181Y-94923341D01*
X166710183Y-94923344D01*
X166834154Y-95047315D01*
X166983375Y-95139356D01*
X166983380Y-95139358D01*
X167149802Y-95194505D01*
X167149809Y-95194506D01*
X167252519Y-95204999D01*
X167389999Y-95204999D01*
X167390000Y-95204998D01*
X167390000Y-94230000D01*
X167890000Y-94230000D01*
X167890000Y-95204999D01*
X168027472Y-95204999D01*
X168027486Y-95204998D01*
X168130197Y-95194505D01*
X168296619Y-95139358D01*
X168296624Y-95139356D01*
X168445845Y-95047315D01*
X168569815Y-94923345D01*
X168661856Y-94774124D01*
X168661858Y-94774119D01*
X168717005Y-94607697D01*
X168717006Y-94607690D01*
X168727499Y-94504986D01*
X168727500Y-94504973D01*
X168727500Y-94230000D01*
X167890000Y-94230000D01*
X167390000Y-94230000D01*
X167390000Y-92755000D01*
X167890000Y-92755000D01*
X167890000Y-93730000D01*
X168727499Y-93730000D01*
X168727499Y-93455028D01*
X168727498Y-93455013D01*
X168717005Y-93352302D01*
X168661858Y-93185880D01*
X168661856Y-93185875D01*
X168569815Y-93036654D01*
X168445845Y-92912684D01*
X168296624Y-92820643D01*
X168296619Y-92820641D01*
X168130197Y-92765494D01*
X168130190Y-92765493D01*
X168027486Y-92755000D01*
X167890000Y-92755000D01*
X167390000Y-92755000D01*
X167252527Y-92755000D01*
X167252512Y-92755001D01*
X167149802Y-92765494D01*
X166983380Y-92820641D01*
X166983375Y-92820643D01*
X166834154Y-92912684D01*
X166710183Y-93036655D01*
X166710179Y-93036660D01*
X166708326Y-93039665D01*
X166706518Y-93041290D01*
X166705702Y-93042323D01*
X166705525Y-93042183D01*
X166656374Y-93086385D01*
X166587411Y-93097601D01*
X166523331Y-93069752D01*
X166497253Y-93039653D01*
X166497237Y-93039628D01*
X166495212Y-93036344D01*
X166371156Y-92912288D01*
X166371154Y-92912286D01*
X166366584Y-92908672D01*
X166326210Y-92851648D01*
X166319500Y-92811410D01*
X166319500Y-89687085D01*
X166339185Y-89620046D01*
X166355814Y-89599409D01*
X167964022Y-87991200D01*
X168555000Y-87991200D01*
X168555000Y-88289044D01*
X168561401Y-88348572D01*
X168561403Y-88348579D01*
X168611645Y-88483286D01*
X168611649Y-88483293D01*
X168697809Y-88598387D01*
X168697812Y-88598390D01*
X168812906Y-88684550D01*
X168812913Y-88684554D01*
X168947620Y-88734796D01*
X168947627Y-88734798D01*
X169007155Y-88741199D01*
X169007172Y-88741200D01*
X170030000Y-88741200D01*
X170030000Y-87991200D01*
X168555000Y-87991200D01*
X167964022Y-87991200D01*
X168427704Y-87527518D01*
X168489027Y-87494034D01*
X168515385Y-87491200D01*
X172005000Y-87491200D01*
X172005000Y-87196964D01*
X172024685Y-87129925D01*
X172077489Y-87084170D01*
X172146647Y-87074226D01*
X172201883Y-87096644D01*
X172246634Y-87129158D01*
X172267270Y-87144151D01*
X172440192Y-87221142D01*
X172440197Y-87221144D01*
X172625354Y-87260500D01*
X172625355Y-87260500D01*
X172814644Y-87260500D01*
X172814646Y-87260500D01*
X172999803Y-87221144D01*
X173172730Y-87144151D01*
X173325871Y-87032888D01*
X173452533Y-86892216D01*
X173547179Y-86728284D01*
X173605674Y-86548256D01*
X173625460Y-86360000D01*
X173605674Y-86171744D01*
X173547179Y-85991716D01*
X173452533Y-85827784D01*
X173379350Y-85746506D01*
X173349120Y-85683515D01*
X173347500Y-85663534D01*
X173347500Y-81785164D01*
X173349228Y-81769514D01*
X173348946Y-81769488D01*
X173349680Y-81761725D01*
X173347561Y-81694295D01*
X173347500Y-81690400D01*
X173347500Y-81662728D01*
X173347500Y-81662724D01*
X173346992Y-81658709D01*
X173346076Y-81647063D01*
X173344700Y-81603257D01*
X173339082Y-81583920D01*
X173335138Y-81564874D01*
X173332616Y-81544907D01*
X173316480Y-81504153D01*
X173312697Y-81493103D01*
X173307788Y-81476206D01*
X173300468Y-81451009D01*
X173294667Y-81441200D01*
X173290225Y-81433689D01*
X173281662Y-81416211D01*
X173274253Y-81397497D01*
X173248489Y-81362037D01*
X173242073Y-81352269D01*
X173219765Y-81314547D01*
X173219759Y-81314539D01*
X173205531Y-81300312D01*
X173192896Y-81285520D01*
X173181063Y-81269233D01*
X173181060Y-81269231D01*
X173181060Y-81269230D01*
X173181058Y-81269228D01*
X173147287Y-81241290D01*
X173138647Y-81233428D01*
X172261376Y-80356157D01*
X172251531Y-80343868D01*
X172251313Y-80344049D01*
X172246340Y-80338038D01*
X172197153Y-80291848D01*
X172194354Y-80289135D01*
X172174797Y-80269577D01*
X172171607Y-80267103D01*
X172162716Y-80259510D01*
X172130768Y-80229508D01*
X172130763Y-80229504D01*
X172113122Y-80219806D01*
X172096857Y-80209122D01*
X172080963Y-80196793D01*
X172080962Y-80196792D01*
X172059860Y-80187660D01*
X172006154Y-80142969D01*
X171992929Y-80117195D01*
X171980480Y-80083819D01*
X171975495Y-80014127D01*
X171980480Y-79997149D01*
X171998597Y-79948575D01*
X171998598Y-79948572D01*
X172004999Y-79889044D01*
X172005000Y-79889027D01*
X172005000Y-79591200D01*
X168555000Y-79591200D01*
X168555000Y-79889044D01*
X168561401Y-79948572D01*
X168561403Y-79948583D01*
X168579519Y-79997153D01*
X168584503Y-80066844D01*
X168579520Y-80083816D01*
X168560908Y-80133717D01*
X168554501Y-80193316D01*
X168554500Y-80193335D01*
X168554500Y-81289070D01*
X168554501Y-81289076D01*
X168560908Y-81348682D01*
X168579253Y-81397866D01*
X168584237Y-81467558D01*
X168579253Y-81484531D01*
X168560909Y-81533714D01*
X168560908Y-81533716D01*
X168554501Y-81593316D01*
X168554500Y-81593335D01*
X168554500Y-82689070D01*
X168554501Y-82689076D01*
X168560908Y-82748682D01*
X168563852Y-82756574D01*
X168577267Y-82792543D01*
X168579253Y-82797866D01*
X168584237Y-82867558D01*
X168579253Y-82884531D01*
X168560909Y-82933714D01*
X168560908Y-82933716D01*
X168554501Y-82993316D01*
X168554500Y-82993335D01*
X168554500Y-84089070D01*
X168554501Y-84089076D01*
X168560908Y-84148682D01*
X168579253Y-84197866D01*
X168584237Y-84267558D01*
X168579253Y-84284531D01*
X168560909Y-84333714D01*
X168560908Y-84333716D01*
X168554501Y-84393316D01*
X168554500Y-84393335D01*
X168554500Y-85469535D01*
X168534815Y-85536574D01*
X168482011Y-85582329D01*
X168441310Y-85593063D01*
X168393387Y-85597256D01*
X168386321Y-85598716D01*
X168386310Y-85598664D01*
X168378832Y-85600322D01*
X168378845Y-85600374D01*
X168371812Y-85602040D01*
X168300925Y-85627839D01*
X168297525Y-85629021D01*
X168225962Y-85652736D01*
X168219420Y-85655787D01*
X168219397Y-85655739D01*
X168212507Y-85659075D01*
X168212531Y-85659122D01*
X168206076Y-85662363D01*
X168143081Y-85703795D01*
X168140042Y-85705731D01*
X168075849Y-85745326D01*
X168070184Y-85749806D01*
X168070151Y-85749765D01*
X168064214Y-85754602D01*
X168064248Y-85754642D01*
X168058712Y-85759287D01*
X168006961Y-85814138D01*
X168004450Y-85816723D01*
X165076742Y-88744432D01*
X165063113Y-88756211D01*
X165043707Y-88770659D01*
X165011674Y-88808833D01*
X165004387Y-88816786D01*
X165000420Y-88820754D01*
X165000418Y-88820756D01*
X164981089Y-88845201D01*
X164978815Y-88847993D01*
X164930334Y-88905771D01*
X164926366Y-88911805D01*
X164926322Y-88911776D01*
X164922209Y-88918231D01*
X164922254Y-88918259D01*
X164918462Y-88924406D01*
X164886581Y-88992772D01*
X164885012Y-88996012D01*
X164851175Y-89063391D01*
X164848704Y-89070179D01*
X164848655Y-89070161D01*
X164846141Y-89077393D01*
X164846191Y-89077410D01*
X164843920Y-89084262D01*
X164828671Y-89158111D01*
X164827891Y-89161630D01*
X164810499Y-89235016D01*
X164809661Y-89242187D01*
X164809607Y-89242180D01*
X164808830Y-89249796D01*
X164808883Y-89249801D01*
X164808253Y-89256990D01*
X164810448Y-89332393D01*
X164810500Y-89336000D01*
X164810500Y-92811410D01*
X164790815Y-92878449D01*
X164763416Y-92908672D01*
X164758845Y-92912286D01*
X164634789Y-93036342D01*
X164542687Y-93185663D01*
X164542685Y-93185668D01*
X164534331Y-93210880D01*
X164487501Y-93352203D01*
X164487501Y-93352204D01*
X164487500Y-93352204D01*
X164477000Y-93454983D01*
X164477000Y-94505001D01*
X164477001Y-94505019D01*
X164487500Y-94607796D01*
X164487501Y-94607799D01*
X164534332Y-94749124D01*
X164542686Y-94774334D01*
X164634788Y-94923656D01*
X164758844Y-95047712D01*
X164758846Y-95047713D01*
X164763410Y-95051322D01*
X164803787Y-95108344D01*
X164810500Y-95148589D01*
X164810500Y-96231113D01*
X164790815Y-96298152D01*
X164774181Y-96318794D01*
X163269793Y-97823181D01*
X163208470Y-97856666D01*
X163182112Y-97859500D01*
X162699998Y-97859500D01*
X162699980Y-97859501D01*
X162597203Y-97870000D01*
X162597200Y-97870001D01*
X162430668Y-97925185D01*
X162430663Y-97925187D01*
X162281342Y-98017289D01*
X162157289Y-98141342D01*
X162065187Y-98290663D01*
X162065185Y-98290668D01*
X162058779Y-98310000D01*
X162010001Y-98457203D01*
X162010001Y-98457204D01*
X162010000Y-98457204D01*
X161999500Y-98559983D01*
X161999500Y-99560001D01*
X161999501Y-99560019D01*
X162010000Y-99662796D01*
X162010001Y-99662799D01*
X162054152Y-99796036D01*
X162065186Y-99829334D01*
X162157288Y-99978656D01*
X162281344Y-100102712D01*
X162286591Y-100105948D01*
X162333318Y-100157892D01*
X162345500Y-100211490D01*
X162345500Y-102476113D01*
X162325815Y-102543152D01*
X162309181Y-102563794D01*
X161869793Y-103003181D01*
X161808470Y-103036666D01*
X161782112Y-103039500D01*
X161526663Y-103039500D01*
X161526644Y-103039501D01*
X161427292Y-103049650D01*
X161427289Y-103049651D01*
X161266305Y-103102996D01*
X161266294Y-103103001D01*
X161121959Y-103192029D01*
X161121955Y-103192032D01*
X161002032Y-103311955D01*
X161002029Y-103311959D01*
X160913001Y-103456294D01*
X160912996Y-103456305D01*
X160859651Y-103617290D01*
X160849500Y-103716647D01*
X160849500Y-104563337D01*
X138737903Y-104563337D01*
X138945741Y-104421635D01*
X139099259Y-104279190D01*
X139143557Y-104238089D01*
X139143557Y-104238087D01*
X139143561Y-104238085D01*
X139311815Y-104027102D01*
X139446743Y-103793398D01*
X139545334Y-103542195D01*
X139605383Y-103279103D01*
X139615952Y-103138063D01*
X139625549Y-103010004D01*
X139625549Y-103009995D01*
X139605383Y-102740898D01*
X139599455Y-102714925D01*
X139545334Y-102477805D01*
X139446743Y-102226602D01*
X139311815Y-101992898D01*
X139143561Y-101781915D01*
X139143560Y-101781914D01*
X139143557Y-101781910D01*
X138945741Y-101598365D01*
X138722775Y-101446349D01*
X138722771Y-101446347D01*
X138722768Y-101446345D01*
X138722767Y-101446344D01*
X138479643Y-101329263D01*
X138479645Y-101329263D01*
X138221773Y-101249720D01*
X138221767Y-101249718D01*
X137954936Y-101209500D01*
X137954929Y-101209500D01*
X137911500Y-101209500D01*
X137844461Y-101189815D01*
X137798706Y-101137011D01*
X137787500Y-101085500D01*
X137787500Y-87607114D01*
X137807185Y-87540075D01*
X137846404Y-87501575D01*
X137863225Y-87491200D01*
X137966156Y-87427712D01*
X138090212Y-87303656D01*
X138134263Y-87232236D01*
X138186209Y-87185513D01*
X138255172Y-87174290D01*
X138319254Y-87202133D01*
X138339065Y-87223019D01*
X138342454Y-87227546D01*
X138342455Y-87227547D01*
X138457664Y-87313793D01*
X138457671Y-87313797D01*
X138592517Y-87364091D01*
X138592516Y-87364091D01*
X138599444Y-87364835D01*
X138652127Y-87370500D01*
X140747872Y-87370499D01*
X140807483Y-87364091D01*
X140942331Y-87313796D01*
X141057546Y-87227546D01*
X141143796Y-87112331D01*
X141194091Y-86977483D01*
X141200500Y-86917873D01*
X141200499Y-85322128D01*
X141194091Y-85262517D01*
X141170843Y-85200187D01*
X141143797Y-85127671D01*
X141143796Y-85127669D01*
X141121721Y-85098181D01*
X141081393Y-85044310D01*
X141056977Y-84978847D01*
X141071828Y-84910574D01*
X141081394Y-84895689D01*
X141143796Y-84812331D01*
X141194091Y-84677483D01*
X141194091Y-84677477D01*
X141195861Y-84669991D01*
X141230431Y-84609273D01*
X141292341Y-84576884D01*
X141316539Y-84574500D01*
X144375501Y-84574500D01*
X144442540Y-84594185D01*
X144488295Y-84646989D01*
X144499501Y-84698500D01*
X144499501Y-85767876D01*
X144505908Y-85827483D01*
X144556202Y-85962328D01*
X144556206Y-85962335D01*
X144642452Y-86077544D01*
X144642455Y-86077547D01*
X144757664Y-86163793D01*
X144757671Y-86163797D01*
X144892517Y-86214091D01*
X144892516Y-86214091D01*
X144899444Y-86214835D01*
X144952127Y-86220500D01*
X147047872Y-86220499D01*
X147107483Y-86214091D01*
X147242331Y-86163796D01*
X147357546Y-86077546D01*
X147443796Y-85962331D01*
X147494091Y-85827483D01*
X147500500Y-85767873D01*
X147500499Y-81872128D01*
X147494091Y-81812517D01*
X147493778Y-81811679D01*
X147443797Y-81677671D01*
X147443793Y-81677664D01*
X147357547Y-81562455D01*
X147357544Y-81562452D01*
X147242335Y-81476206D01*
X147242328Y-81476202D01*
X147107482Y-81425908D01*
X147107483Y-81425908D01*
X147047883Y-81419501D01*
X147047881Y-81419500D01*
X147047873Y-81419500D01*
X147047864Y-81419500D01*
X144952129Y-81419500D01*
X144952123Y-81419501D01*
X144892516Y-81425908D01*
X144757671Y-81476202D01*
X144757664Y-81476206D01*
X144642455Y-81562452D01*
X144642452Y-81562455D01*
X144556206Y-81677664D01*
X144556202Y-81677671D01*
X144505908Y-81812517D01*
X144499501Y-81872116D01*
X144499501Y-81872123D01*
X144499500Y-81872135D01*
X144499500Y-82941500D01*
X144479815Y-83008539D01*
X144427011Y-83054294D01*
X144375500Y-83065500D01*
X141316540Y-83065500D01*
X141249501Y-83045815D01*
X141203746Y-82993011D01*
X141195864Y-82970017D01*
X141194092Y-82962520D01*
X141192725Y-82958856D01*
X141143796Y-82827669D01*
X141081081Y-82743893D01*
X141056664Y-82678431D01*
X141071515Y-82610158D01*
X141081082Y-82595271D01*
X141143352Y-82512089D01*
X141143354Y-82512086D01*
X141193596Y-82377379D01*
X141193598Y-82377372D01*
X141199999Y-82317844D01*
X141200000Y-82317827D01*
X141200000Y-81770000D01*
X138200000Y-81770000D01*
X138200000Y-82317844D01*
X138206401Y-82377372D01*
X138206403Y-82377379D01*
X138256645Y-82512086D01*
X138256646Y-82512088D01*
X138318918Y-82595272D01*
X138343335Y-82660736D01*
X138328484Y-82729009D01*
X138318918Y-82743894D01*
X138256204Y-82827669D01*
X138256202Y-82827671D01*
X138205908Y-82962517D01*
X138199501Y-83022116D01*
X138199500Y-83022135D01*
X138199500Y-83952113D01*
X138179815Y-84019152D01*
X138163185Y-84039789D01*
X138019793Y-84183182D01*
X137958473Y-84216666D01*
X137932114Y-84219500D01*
X135213709Y-84219500D01*
X135146670Y-84199815D01*
X135100915Y-84147011D01*
X135090971Y-84077853D01*
X135119996Y-84014297D01*
X135126028Y-84007819D01*
X136097999Y-83035848D01*
X137091047Y-82042799D01*
X137103332Y-82032958D01*
X137103152Y-82032740D01*
X137109159Y-82027770D01*
X137109159Y-82027769D01*
X137109162Y-82027768D01*
X137155368Y-81978561D01*
X137158018Y-81975828D01*
X137177624Y-81956224D01*
X137180107Y-81953021D01*
X137187671Y-81944164D01*
X137217693Y-81912195D01*
X137227388Y-81894558D01*
X137238072Y-81878291D01*
X137250408Y-81862390D01*
X137267811Y-81822170D01*
X137272951Y-81811679D01*
X137294071Y-81773263D01*
X137294072Y-81773262D01*
X137299078Y-81753762D01*
X137305376Y-81735364D01*
X137313374Y-81716886D01*
X137320232Y-81673579D01*
X137322596Y-81662164D01*
X137333500Y-81619700D01*
X137333500Y-81599569D01*
X137335027Y-81580169D01*
X137337451Y-81564864D01*
X137338175Y-81560295D01*
X137334050Y-81516658D01*
X137333500Y-81504989D01*
X137333500Y-81403228D01*
X137353185Y-81336189D01*
X137369814Y-81315552D01*
X137988320Y-80697046D01*
X138049642Y-80663562D01*
X138119334Y-80668546D01*
X138175267Y-80710418D01*
X138199684Y-80775882D01*
X138200000Y-80784728D01*
X138200000Y-81270000D01*
X139450000Y-81270000D01*
X139450000Y-80270000D01*
X139950000Y-80270000D01*
X139950000Y-81270000D01*
X141200000Y-81270000D01*
X141200000Y-80722172D01*
X141199999Y-80722155D01*
X141193598Y-80662627D01*
X141193596Y-80662620D01*
X141143354Y-80527913D01*
X141143350Y-80527906D01*
X141057190Y-80412812D01*
X141057187Y-80412809D01*
X140942093Y-80326649D01*
X140942086Y-80326645D01*
X140807379Y-80276403D01*
X140807372Y-80276401D01*
X140747844Y-80270000D01*
X139950000Y-80270000D01*
X139450000Y-80270000D01*
X138714729Y-80270000D01*
X138647690Y-80250315D01*
X138601935Y-80197511D01*
X138591991Y-80128353D01*
X138621016Y-80064797D01*
X138627048Y-80058319D01*
X139695366Y-78990000D01*
X140085043Y-78600322D01*
X140097325Y-78590485D01*
X140097144Y-78590266D01*
X140103157Y-78585290D01*
X140103162Y-78585288D01*
X140149384Y-78536064D01*
X140152033Y-78533332D01*
X140171623Y-78513744D01*
X140174096Y-78510554D01*
X140181682Y-78501670D01*
X140211693Y-78469715D01*
X140221389Y-78452076D01*
X140232073Y-78435809D01*
X140244408Y-78419910D01*
X140261817Y-78379676D01*
X140266955Y-78369191D01*
X140267854Y-78367557D01*
X140282641Y-78340660D01*
X140288069Y-78330788D01*
X140288069Y-78330786D01*
X140288072Y-78330782D01*
X140293078Y-78311282D01*
X140299382Y-78292872D01*
X140307370Y-78274413D01*
X140307373Y-78274407D01*
X140312820Y-78240013D01*
X140314230Y-78231114D01*
X140316596Y-78219685D01*
X140327500Y-78177220D01*
X140327500Y-78157083D01*
X140329027Y-78137683D01*
X140332174Y-78117815D01*
X140328050Y-78074186D01*
X140327500Y-78062517D01*
X140327500Y-66736465D01*
X140347185Y-66669426D01*
X140359343Y-66653500D01*
X140432533Y-66572216D01*
X140527179Y-66408284D01*
X140585674Y-66228256D01*
X140605460Y-66040000D01*
X140585674Y-65851744D01*
X140527179Y-65671716D01*
X140432533Y-65507784D01*
X140305871Y-65367112D01*
X140305870Y-65367111D01*
X140152734Y-65255851D01*
X140152729Y-65255848D01*
X139979807Y-65178857D01*
X139979802Y-65178855D01*
X139834001Y-65147865D01*
X139794646Y-65139500D01*
X139605354Y-65139500D01*
X139572897Y-65146398D01*
X139420197Y-65178855D01*
X139420192Y-65178857D01*
X139247270Y-65255848D01*
X139247265Y-65255851D01*
X139094129Y-65367111D01*
X138967466Y-65507785D01*
X138872821Y-65671715D01*
X138872818Y-65671722D01*
X138827584Y-65810940D01*
X138814326Y-65851744D01*
X138794540Y-66040000D01*
X138814326Y-66228256D01*
X138814327Y-66228259D01*
X138872818Y-66408277D01*
X138872821Y-66408284D01*
X138914721Y-66480858D01*
X138967467Y-66572216D01*
X139040651Y-66653494D01*
X139070880Y-66716484D01*
X139072500Y-66736465D01*
X139072500Y-77786666D01*
X139052815Y-77853705D01*
X139036181Y-77874347D01*
X137907944Y-79002582D01*
X137846621Y-79036067D01*
X137776929Y-79031083D01*
X137732581Y-79002581D01*
X137720000Y-78990000D01*
X136870000Y-78990000D01*
X136870000Y-79989166D01*
X136850315Y-80056205D01*
X136833681Y-80076847D01*
X136320953Y-80589574D01*
X136308669Y-80599417D01*
X136308849Y-80599635D01*
X136302837Y-80604608D01*
X136256646Y-80653795D01*
X136253941Y-80656586D01*
X136234379Y-80676148D01*
X136234375Y-80676153D01*
X136231895Y-80679351D01*
X136224317Y-80688222D01*
X136194308Y-80720178D01*
X136194305Y-80720182D01*
X136184606Y-80737825D01*
X136173928Y-80754081D01*
X136161594Y-80769982D01*
X136161589Y-80769990D01*
X136144185Y-80810210D01*
X136139046Y-80820700D01*
X136117927Y-80859115D01*
X136112920Y-80878616D01*
X136106621Y-80897012D01*
X136099893Y-80912560D01*
X136098625Y-80915492D01*
X136098624Y-80915494D01*
X136091769Y-80958779D01*
X136089401Y-80970215D01*
X136078500Y-81012671D01*
X136078500Y-81032806D01*
X136076973Y-81052203D01*
X136073825Y-81072081D01*
X136075684Y-81091744D01*
X136077950Y-81115715D01*
X136078500Y-81127385D01*
X136078500Y-81229147D01*
X136058815Y-81296186D01*
X136042181Y-81316828D01*
X134202828Y-83156181D01*
X134141505Y-83189666D01*
X134115147Y-83192500D01*
X131711354Y-83192500D01*
X131644315Y-83172815D01*
X131598560Y-83120011D01*
X131593648Y-83107504D01*
X131576016Y-83054294D01*
X131574814Y-83050666D01*
X131482712Y-82901344D01*
X131358656Y-82777288D01*
X131215636Y-82689073D01*
X131209336Y-82685187D01*
X131209331Y-82685185D01*
X131204711Y-82683654D01*
X131042797Y-82630001D01*
X131042795Y-82630000D01*
X130940016Y-82619500D01*
X130940009Y-82619500D01*
X130418500Y-82619500D01*
X130351461Y-82599815D01*
X130305706Y-82547011D01*
X130294500Y-82495500D01*
X130294500Y-79891490D01*
X130314185Y-79824451D01*
X130353408Y-79785948D01*
X130358656Y-79782712D01*
X130482712Y-79658656D01*
X130547632Y-79553402D01*
X130599580Y-79506679D01*
X130653171Y-79494500D01*
X131546169Y-79494500D01*
X131613208Y-79514185D01*
X131619056Y-79518183D01*
X131627269Y-79524150D01*
X131627270Y-79524151D01*
X131800192Y-79601142D01*
X131800197Y-79601144D01*
X131985354Y-79640500D01*
X131985355Y-79640500D01*
X132174644Y-79640500D01*
X132174646Y-79640500D01*
X132359803Y-79601144D01*
X132532730Y-79524151D01*
X132685871Y-79412888D01*
X132812533Y-79272216D01*
X132907179Y-79108284D01*
X132965674Y-78928256D01*
X132985460Y-78740000D01*
X132965674Y-78551744D01*
X132907179Y-78371716D01*
X132812533Y-78207784D01*
X132685871Y-78067112D01*
X132685870Y-78067111D01*
X132532734Y-77955851D01*
X132532729Y-77955848D01*
X132359807Y-77878857D01*
X132359802Y-77878855D01*
X132214001Y-77847865D01*
X132174646Y-77839500D01*
X131985354Y-77839500D01*
X131952897Y-77846398D01*
X131800197Y-77878855D01*
X131800192Y-77878857D01*
X131627270Y-77955848D01*
X131627269Y-77955849D01*
X131619056Y-77961817D01*
X131553250Y-77985298D01*
X131546169Y-77985500D01*
X130653171Y-77985500D01*
X130586132Y-77965815D01*
X130547632Y-77926597D01*
X130540000Y-77914223D01*
X130482712Y-77821344D01*
X130358656Y-77697288D01*
X130209334Y-77605186D01*
X130042797Y-77550001D01*
X130042795Y-77550000D01*
X129940010Y-77539500D01*
X129139998Y-77539500D01*
X129139980Y-77539501D01*
X129037203Y-77550000D01*
X129037200Y-77550001D01*
X128870668Y-77605185D01*
X128870663Y-77605187D01*
X128721342Y-77697289D01*
X128627681Y-77790951D01*
X128566358Y-77824436D01*
X128496666Y-77819452D01*
X128452319Y-77790951D01*
X128358657Y-77697289D01*
X128358656Y-77697288D01*
X128209334Y-77605186D01*
X128042797Y-77550001D01*
X128042795Y-77550000D01*
X127940016Y-77539500D01*
X127940009Y-77539500D01*
X127504500Y-77539500D01*
X127437461Y-77519815D01*
X127391706Y-77467011D01*
X127380500Y-77415500D01*
X127380500Y-76313619D01*
X127400185Y-76246580D01*
X127452989Y-76200825D01*
X127522147Y-76190881D01*
X127536593Y-76193844D01*
X127653390Y-76225139D01*
X127653400Y-76225141D01*
X127823233Y-76239999D01*
X127823236Y-76240000D01*
X128030000Y-76240000D01*
X128030000Y-75255686D01*
X128041955Y-75267641D01*
X128154852Y-75325165D01*
X128248519Y-75340000D01*
X128311481Y-75340000D01*
X128405148Y-75325165D01*
X128518045Y-75267641D01*
X128530000Y-75255686D01*
X128530000Y-76240000D01*
X128736764Y-76240000D01*
X128736766Y-76239999D01*
X128906599Y-76225141D01*
X128906610Y-76225139D01*
X129126317Y-76166269D01*
X129126326Y-76166265D01*
X129332482Y-76070134D01*
X129518820Y-75939657D01*
X129679657Y-75778820D01*
X129810134Y-75592482D01*
X129906265Y-75386326D01*
X129906269Y-75386317D01*
X129958872Y-75190000D01*
X128595686Y-75190000D01*
X128607641Y-75178045D01*
X128665165Y-75065148D01*
X128684986Y-74940000D01*
X128665165Y-74814852D01*
X128607641Y-74701955D01*
X128595686Y-74690000D01*
X129958872Y-74690000D01*
X129958872Y-74689999D01*
X129906269Y-74493682D01*
X129906265Y-74493673D01*
X129810134Y-74287517D01*
X129679657Y-74101179D01*
X129518820Y-73940342D01*
X129332482Y-73809865D01*
X129274133Y-73782657D01*
X129221694Y-73736484D01*
X129202542Y-73669291D01*
X129222758Y-73602410D01*
X129274129Y-73557895D01*
X129332734Y-73530568D01*
X129519139Y-73400047D01*
X129680047Y-73239139D01*
X129810568Y-73052734D01*
X129906739Y-72846496D01*
X129965635Y-72626692D01*
X129984987Y-72405499D01*
X129985468Y-72400001D01*
X129985468Y-72399998D01*
X129973442Y-72262545D01*
X129965635Y-72173308D01*
X129906739Y-71953504D01*
X129810568Y-71747266D01*
X129696599Y-71584500D01*
X129680045Y-71560858D01*
X129519141Y-71399954D01*
X129332734Y-71269432D01*
X129332728Y-71269429D01*
X129274725Y-71242382D01*
X129222285Y-71196210D01*
X129203133Y-71129017D01*
X129223348Y-71062135D01*
X129274725Y-71017618D01*
X129332734Y-70990568D01*
X129519139Y-70860047D01*
X129680047Y-70699139D01*
X129791212Y-70540376D01*
X129845788Y-70496752D01*
X129892787Y-70487500D01*
X133048719Y-70487500D01*
X133115758Y-70507185D01*
X133136400Y-70523819D01*
X134304988Y-71692407D01*
X134338473Y-71753730D01*
X134333489Y-71823422D01*
X134329689Y-71832492D01*
X134273263Y-71953497D01*
X134273258Y-71953511D01*
X134214366Y-72173302D01*
X134214364Y-72173313D01*
X134194532Y-72399998D01*
X134194532Y-72400001D01*
X134214364Y-72626686D01*
X134214366Y-72626697D01*
X134273258Y-72846488D01*
X134273260Y-72846493D01*
X134273261Y-72846496D01*
X134273737Y-72847517D01*
X134329689Y-72967507D01*
X134340180Y-73036585D01*
X134311660Y-73100368D01*
X134304987Y-73107592D01*
X133987953Y-73424626D01*
X133975669Y-73434469D01*
X133975849Y-73434687D01*
X133969837Y-73439660D01*
X133923646Y-73488847D01*
X133920941Y-73491638D01*
X133901379Y-73511200D01*
X133901375Y-73511205D01*
X133898895Y-73514403D01*
X133891317Y-73523274D01*
X133861308Y-73555230D01*
X133861305Y-73555234D01*
X133851606Y-73572877D01*
X133840928Y-73589133D01*
X133828594Y-73605034D01*
X133828589Y-73605042D01*
X133811185Y-73645262D01*
X133806046Y-73655752D01*
X133784927Y-73694167D01*
X133779920Y-73713668D01*
X133773621Y-73732064D01*
X133767015Y-73747331D01*
X133765625Y-73750544D01*
X133765624Y-73750546D01*
X133758769Y-73793831D01*
X133756401Y-73805267D01*
X133745500Y-73847723D01*
X133745500Y-73867858D01*
X133743973Y-73887255D01*
X133740825Y-73907133D01*
X133744294Y-73943824D01*
X133744950Y-73950767D01*
X133745500Y-73962437D01*
X133745500Y-77701770D01*
X133725815Y-77768809D01*
X133709181Y-77789451D01*
X133677289Y-77821342D01*
X133585187Y-77970663D01*
X133585185Y-77970668D01*
X133579613Y-77987483D01*
X133530001Y-78137203D01*
X133530001Y-78137204D01*
X133530000Y-78137204D01*
X133519500Y-78239983D01*
X133519500Y-79240001D01*
X133519501Y-79240019D01*
X133530000Y-79342796D01*
X133530001Y-79342799D01*
X133585185Y-79509331D01*
X133585187Y-79509336D01*
X133594325Y-79524151D01*
X133677288Y-79658656D01*
X133801344Y-79782712D01*
X133950666Y-79874814D01*
X134117203Y-79929999D01*
X134219991Y-79940500D01*
X135020008Y-79940499D01*
X135020016Y-79940498D01*
X135020019Y-79940498D01*
X135076302Y-79934748D01*
X135122797Y-79929999D01*
X135289334Y-79874814D01*
X135438656Y-79782712D01*
X135532675Y-79688692D01*
X135593994Y-79655210D01*
X135663686Y-79660194D01*
X135708034Y-79688695D01*
X135801654Y-79782315D01*
X135950875Y-79874356D01*
X135950880Y-79874358D01*
X136117302Y-79929505D01*
X136117309Y-79929506D01*
X136220019Y-79939999D01*
X136369999Y-79939999D01*
X136370000Y-79939998D01*
X136370000Y-77540000D01*
X136870000Y-77540000D01*
X136870000Y-78490000D01*
X137719999Y-78490000D01*
X137719999Y-78240028D01*
X137719998Y-78240013D01*
X137709505Y-78137302D01*
X137654358Y-77970880D01*
X137654356Y-77970875D01*
X137562315Y-77821654D01*
X137438345Y-77697684D01*
X137289124Y-77605643D01*
X137289119Y-77605641D01*
X137122697Y-77550494D01*
X137122690Y-77550493D01*
X137019986Y-77540000D01*
X136870000Y-77540000D01*
X136370000Y-77540000D01*
X136220027Y-77540000D01*
X136220012Y-77540001D01*
X136117302Y-77550494D01*
X135950880Y-77605641D01*
X135950875Y-77605643D01*
X135801657Y-77697682D01*
X135708034Y-77791305D01*
X135646710Y-77824789D01*
X135577019Y-77819805D01*
X135532672Y-77791304D01*
X135438657Y-77697289D01*
X135438656Y-77697288D01*
X135289334Y-77605186D01*
X135122797Y-77550001D01*
X135118011Y-77549512D01*
X135111894Y-77548887D01*
X135047203Y-77522489D01*
X135007053Y-77465307D01*
X135000500Y-77425529D01*
X135000500Y-76313619D01*
X135020185Y-76246580D01*
X135072989Y-76200825D01*
X135142147Y-76190881D01*
X135156593Y-76193844D01*
X135273390Y-76225139D01*
X135273400Y-76225141D01*
X135443233Y-76239999D01*
X135443236Y-76240000D01*
X135650000Y-76240000D01*
X135650000Y-75255686D01*
X135661955Y-75267641D01*
X135774852Y-75325165D01*
X135868519Y-75340000D01*
X135931481Y-75340000D01*
X136025148Y-75325165D01*
X136138045Y-75267641D01*
X136150000Y-75255686D01*
X136150000Y-76240000D01*
X136356764Y-76240000D01*
X136356766Y-76239999D01*
X136526599Y-76225141D01*
X136526610Y-76225139D01*
X136746317Y-76166269D01*
X136746326Y-76166265D01*
X136952482Y-76070134D01*
X137138820Y-75939657D01*
X137299657Y-75778820D01*
X137430134Y-75592482D01*
X137526265Y-75386326D01*
X137526269Y-75386317D01*
X137578872Y-75190000D01*
X136215686Y-75190000D01*
X136227641Y-75178045D01*
X136285165Y-75065148D01*
X136304986Y-74940000D01*
X136285165Y-74814852D01*
X136227641Y-74701955D01*
X136215686Y-74690000D01*
X137578872Y-74690000D01*
X137578872Y-74689999D01*
X137526269Y-74493682D01*
X137526265Y-74493673D01*
X137430134Y-74287517D01*
X137299657Y-74101179D01*
X137138820Y-73940342D01*
X136952482Y-73809865D01*
X136894133Y-73782657D01*
X136841694Y-73736484D01*
X136822542Y-73669291D01*
X136842758Y-73602410D01*
X136894129Y-73557895D01*
X136952734Y-73530568D01*
X137139139Y-73400047D01*
X137300047Y-73239139D01*
X137430568Y-73052734D01*
X137526739Y-72846496D01*
X137585635Y-72626692D01*
X137604987Y-72405499D01*
X137605468Y-72400001D01*
X137605468Y-72399998D01*
X137593442Y-72262545D01*
X137585635Y-72173308D01*
X137551433Y-72045663D01*
X137553096Y-71975814D01*
X137592259Y-71917952D01*
X137609215Y-71906180D01*
X137612724Y-71904153D01*
X137612730Y-71904151D01*
X137765871Y-71792888D01*
X137892533Y-71652216D01*
X137987179Y-71488284D01*
X138045674Y-71308256D01*
X138065460Y-71120000D01*
X138045674Y-70931744D01*
X137987179Y-70751716D01*
X137892533Y-70587784D01*
X137765871Y-70447112D01*
X137765870Y-70447111D01*
X137607473Y-70332029D01*
X137608389Y-70330767D01*
X137565636Y-70285933D01*
X137552410Y-70217327D01*
X137556074Y-70197015D01*
X137568226Y-70151663D01*
X137585635Y-70086692D01*
X137602854Y-69889875D01*
X137605468Y-69860001D01*
X137605468Y-69859998D01*
X137586878Y-69647517D01*
X137585635Y-69633308D01*
X137526739Y-69413504D01*
X137430568Y-69207266D01*
X137332839Y-69067693D01*
X137300045Y-69020858D01*
X137139141Y-68859954D01*
X136952734Y-68729432D01*
X136952728Y-68729429D01*
X136894725Y-68702382D01*
X136842285Y-68656210D01*
X136823133Y-68589017D01*
X136843348Y-68522135D01*
X136894725Y-68477618D01*
X136895643Y-68477190D01*
X136952734Y-68450568D01*
X137139139Y-68320047D01*
X137300047Y-68159139D01*
X137430568Y-67972734D01*
X137526739Y-67766496D01*
X137585635Y-67546692D01*
X137605468Y-67320000D01*
X137602525Y-67286367D01*
X137585635Y-67093313D01*
X137585635Y-67093308D01*
X137526739Y-66873504D01*
X137430568Y-66667266D01*
X137300047Y-66480861D01*
X137300045Y-66480858D01*
X137139141Y-66319954D01*
X136952734Y-66189432D01*
X136952732Y-66189431D01*
X136746497Y-66093261D01*
X136746488Y-66093258D01*
X136526697Y-66034366D01*
X136526687Y-66034364D01*
X136356785Y-66019500D01*
X136356784Y-66019500D01*
X135443216Y-66019500D01*
X135443215Y-66019500D01*
X135273312Y-66034364D01*
X135273302Y-66034366D01*
X135053511Y-66093258D01*
X135053502Y-66093261D01*
X134847267Y-66189431D01*
X134847265Y-66189432D01*
X134660858Y-66319954D01*
X134499954Y-66480858D01*
X134369432Y-66667265D01*
X134369431Y-66667267D01*
X134273261Y-66873502D01*
X134273258Y-66873511D01*
X134214366Y-67093302D01*
X134214364Y-67093313D01*
X134194532Y-67319998D01*
X134194532Y-67320001D01*
X134214364Y-67546686D01*
X134214366Y-67546697D01*
X134247246Y-67669407D01*
X134245583Y-67739257D01*
X134206420Y-67797119D01*
X134142192Y-67824623D01*
X134127471Y-67825500D01*
X132613831Y-67825500D01*
X132546792Y-67805815D01*
X132540944Y-67801817D01*
X132532730Y-67795849D01*
X132532729Y-67795848D01*
X132359807Y-67718857D01*
X132359802Y-67718855D01*
X132214001Y-67687865D01*
X132174646Y-67679500D01*
X131985354Y-67679500D01*
X131952897Y-67686398D01*
X131800197Y-67718855D01*
X131800192Y-67718857D01*
X131627270Y-67795848D01*
X131627265Y-67795851D01*
X131474129Y-67907111D01*
X131347466Y-68047785D01*
X131252821Y-68211715D01*
X131252818Y-68211722D01*
X131203960Y-68362093D01*
X131194326Y-68391744D01*
X131174540Y-68580000D01*
X131194326Y-68768256D01*
X131194327Y-68768259D01*
X131252818Y-68948277D01*
X131252821Y-68948284D01*
X131309526Y-69046500D01*
X131325999Y-69114400D01*
X131303146Y-69180427D01*
X131248225Y-69223618D01*
X131202139Y-69232500D01*
X129892787Y-69232500D01*
X129825748Y-69212815D01*
X129791212Y-69179623D01*
X129680045Y-69020858D01*
X129519143Y-68859956D01*
X129493912Y-68842289D01*
X129450287Y-68787712D01*
X129443095Y-68718213D01*
X129474617Y-68655859D01*
X129534847Y-68620445D01*
X129551781Y-68617424D01*
X129587380Y-68613596D01*
X129722086Y-68563354D01*
X129722093Y-68563350D01*
X129837187Y-68477190D01*
X129837190Y-68477187D01*
X129923350Y-68362093D01*
X129923354Y-68362086D01*
X129973596Y-68227379D01*
X129973598Y-68227372D01*
X129979999Y-68167844D01*
X129980000Y-68167827D01*
X129980000Y-67570000D01*
X128595686Y-67570000D01*
X128607641Y-67558045D01*
X128665165Y-67445148D01*
X128684986Y-67320000D01*
X128665165Y-67194852D01*
X128607641Y-67081955D01*
X128595686Y-67070000D01*
X129980000Y-67070000D01*
X129980000Y-66472172D01*
X129979999Y-66472155D01*
X129973598Y-66412627D01*
X129973596Y-66412620D01*
X129923354Y-66277913D01*
X129923350Y-66277906D01*
X129837190Y-66162812D01*
X129837187Y-66162809D01*
X129722093Y-66076649D01*
X129722086Y-66076645D01*
X129587379Y-66026403D01*
X129587372Y-66026401D01*
X129527844Y-66020000D01*
X128530000Y-66020000D01*
X128530000Y-67004314D01*
X128518045Y-66992359D01*
X128405148Y-66934835D01*
X128311481Y-66920000D01*
X128248519Y-66920000D01*
X128154852Y-66934835D01*
X128041955Y-66992359D01*
X128030000Y-67004314D01*
X128030000Y-66020000D01*
X127032155Y-66020000D01*
X126972627Y-66026401D01*
X126972620Y-66026403D01*
X126837913Y-66076645D01*
X126837906Y-66076649D01*
X126722812Y-66162809D01*
X126722809Y-66162812D01*
X126636649Y-66277906D01*
X126636645Y-66277913D01*
X126586403Y-66412620D01*
X126586401Y-66412627D01*
X126580000Y-66472155D01*
X126580000Y-67070000D01*
X127964314Y-67070000D01*
X127952359Y-67081955D01*
X127894835Y-67194852D01*
X127875014Y-67320000D01*
X127894835Y-67445148D01*
X127952359Y-67558045D01*
X127964314Y-67570000D01*
X126580000Y-67570000D01*
X126580000Y-68167844D01*
X126586401Y-68227372D01*
X126586403Y-68227379D01*
X126636645Y-68362086D01*
X126636649Y-68362093D01*
X126722809Y-68477187D01*
X126722812Y-68477190D01*
X126837906Y-68563350D01*
X126837913Y-68563354D01*
X126972620Y-68613596D01*
X126972627Y-68613598D01*
X127008218Y-68617425D01*
X127072769Y-68644163D01*
X127112618Y-68701555D01*
X127115111Y-68771380D01*
X127079459Y-68831469D01*
X127066088Y-68842287D01*
X127040861Y-68859951D01*
X126879954Y-69020858D01*
X126768788Y-69179623D01*
X126714212Y-69223248D01*
X126667213Y-69232500D01*
X125338500Y-69232500D01*
X125271461Y-69212815D01*
X125225706Y-69160011D01*
X125214500Y-69108500D01*
X125214500Y-64251500D01*
X125234185Y-64184461D01*
X125286989Y-64138706D01*
X125338500Y-64127500D01*
X126917033Y-64127500D01*
X126932681Y-64129227D01*
X126932708Y-64128946D01*
X126940475Y-64129680D01*
X126940476Y-64129679D01*
X126940477Y-64129680D01*
X127007919Y-64127561D01*
X127011813Y-64127500D01*
X127039472Y-64127500D01*
X127039476Y-64127500D01*
X127043474Y-64126994D01*
X127055114Y-64126077D01*
X127098943Y-64124701D01*
X127118272Y-64119084D01*
X127137328Y-64115137D01*
X127157293Y-64112616D01*
X127198055Y-64096476D01*
X127209092Y-64092698D01*
X127251191Y-64080468D01*
X127268515Y-64070221D01*
X127285983Y-64061663D01*
X127304703Y-64054253D01*
X127340177Y-64028478D01*
X127349915Y-64022081D01*
X127387656Y-63999763D01*
X127401897Y-63985520D01*
X127416678Y-63972897D01*
X127432967Y-63961063D01*
X127460904Y-63927290D01*
X127468756Y-63918661D01*
X128890600Y-62496818D01*
X128951923Y-62463333D01*
X128978281Y-62460499D01*
X130540371Y-62460499D01*
X130540372Y-62460499D01*
X130599983Y-62454091D01*
X130734831Y-62403796D01*
X130850046Y-62317546D01*
X130936296Y-62202331D01*
X130947725Y-62171687D01*
X130989594Y-62115755D01*
X131055058Y-62091336D01*
X131123331Y-62106186D01*
X131140069Y-62117167D01*
X131282552Y-62228066D01*
X131282558Y-62228070D01*
X131282561Y-62228072D01*
X131397840Y-62290458D01*
X131493478Y-62342215D01*
X131494336Y-62342679D01*
X131582434Y-62372923D01*
X131722083Y-62420865D01*
X131722085Y-62420865D01*
X131722087Y-62420866D01*
X131959601Y-62460500D01*
X131959602Y-62460500D01*
X132200398Y-62460500D01*
X132200399Y-62460500D01*
X132437913Y-62420866D01*
X132665664Y-62342679D01*
X132877439Y-62228072D01*
X133067463Y-62080171D01*
X133230551Y-61903010D01*
X133246489Y-61878613D01*
X133299631Y-61833258D01*
X133368862Y-61823831D01*
X133432199Y-61853330D01*
X133454106Y-61878611D01*
X133469847Y-61902704D01*
X133469851Y-61902710D01*
X133632873Y-62079797D01*
X133632883Y-62079806D01*
X133822831Y-62227649D01*
X133822840Y-62227655D01*
X134034531Y-62342215D01*
X134034545Y-62342221D01*
X134262207Y-62420379D01*
X134370000Y-62438366D01*
X134370000Y-61451683D01*
X134398819Y-61469209D01*
X134544404Y-61510000D01*
X134657622Y-61510000D01*
X134769783Y-61494584D01*
X134870000Y-61451053D01*
X134870000Y-62438365D01*
X134977792Y-62420379D01*
X135205454Y-62342221D01*
X135205468Y-62342215D01*
X135417159Y-62227655D01*
X135417168Y-62227649D01*
X135607116Y-62079806D01*
X135607126Y-62079797D01*
X135770148Y-61902710D01*
X135770156Y-61902699D01*
X135901813Y-61701184D01*
X135998508Y-61480740D01*
X136057599Y-61247395D01*
X136057599Y-61247394D01*
X136060697Y-61210000D01*
X135114852Y-61210000D01*
X135163559Y-61072953D01*
X135173877Y-60922114D01*
X135143116Y-60774085D01*
X135109910Y-60710000D01*
X136060697Y-60710000D01*
X136057599Y-60672605D01*
X136057599Y-60672604D01*
X135998508Y-60439259D01*
X135901813Y-60218815D01*
X135770156Y-60017300D01*
X135770148Y-60017289D01*
X135607126Y-59840202D01*
X135607116Y-59840193D01*
X135417168Y-59692350D01*
X135417159Y-59692344D01*
X135205468Y-59577784D01*
X135205454Y-59577778D01*
X134977791Y-59499619D01*
X134870000Y-59481633D01*
X134870000Y-60468316D01*
X134841181Y-60450791D01*
X134695596Y-60410000D01*
X134582378Y-60410000D01*
X134470217Y-60425416D01*
X134370000Y-60468946D01*
X134370000Y-59481633D01*
X134369999Y-59481633D01*
X134262208Y-59499619D01*
X134034545Y-59577778D01*
X134034531Y-59577784D01*
X133822840Y-59692344D01*
X133822831Y-59692350D01*
X133632883Y-59840193D01*
X133632873Y-59840202D01*
X133469851Y-60017289D01*
X133469846Y-60017297D01*
X133454104Y-60041390D01*
X133400955Y-60086745D01*
X133331724Y-60096165D01*
X133268389Y-60066660D01*
X133246489Y-60041384D01*
X133230555Y-60016994D01*
X133134018Y-59912127D01*
X133067463Y-59839829D01*
X132933358Y-59735451D01*
X132877441Y-59691929D01*
X132877436Y-59691926D01*
X132772481Y-59635126D01*
X132722891Y-59585906D01*
X132707500Y-59526072D01*
X132707500Y-59116465D01*
X132727185Y-59049426D01*
X132739343Y-59033500D01*
X132812533Y-58952216D01*
X132907179Y-58788284D01*
X132965674Y-58608256D01*
X132985460Y-58420000D01*
X132965674Y-58231744D01*
X132907179Y-58051716D01*
X132812533Y-57887784D01*
X132685871Y-57747112D01*
X132685870Y-57747111D01*
X132532734Y-57635851D01*
X132532729Y-57635848D01*
X132359807Y-57558857D01*
X132359802Y-57558855D01*
X132214001Y-57527865D01*
X132174646Y-57519500D01*
X131985354Y-57519500D01*
X131952897Y-57526398D01*
X131800197Y-57558855D01*
X131800192Y-57558857D01*
X131627270Y-57635848D01*
X131627265Y-57635851D01*
X131474129Y-57747111D01*
X131347466Y-57887785D01*
X131252821Y-58051715D01*
X131252818Y-58051722D01*
X131196494Y-58225072D01*
X131194326Y-58231744D01*
X131174540Y-58420000D01*
X131194326Y-58608256D01*
X131194327Y-58608259D01*
X131252818Y-58788277D01*
X131252821Y-58788284D01*
X131347467Y-58952216D01*
X131420651Y-59033494D01*
X131450880Y-59096484D01*
X131452500Y-59116465D01*
X131452500Y-59526072D01*
X131432815Y-59593111D01*
X131387519Y-59635126D01*
X131282563Y-59691926D01*
X131282559Y-59691928D01*
X131140069Y-59802833D01*
X131075075Y-59828475D01*
X131006535Y-59814908D01*
X130956210Y-59766440D01*
X130947725Y-59748311D01*
X130936298Y-59717673D01*
X130936293Y-59717664D01*
X130850047Y-59602455D01*
X130850044Y-59602452D01*
X130734835Y-59516206D01*
X130734828Y-59516202D01*
X130599982Y-59465908D01*
X130599983Y-59465908D01*
X130540383Y-59459501D01*
X130540381Y-59459500D01*
X130540373Y-59459500D01*
X130540364Y-59459500D01*
X128539629Y-59459500D01*
X128539623Y-59459501D01*
X128480016Y-59465908D01*
X128345171Y-59516202D01*
X128345164Y-59516206D01*
X128229955Y-59602452D01*
X128229952Y-59602455D01*
X128143706Y-59717664D01*
X128143702Y-59717671D01*
X128093408Y-59852517D01*
X128087001Y-59912116D01*
X128087000Y-59912135D01*
X128087000Y-61474218D01*
X128067315Y-61541257D01*
X128050681Y-61561899D01*
X126776400Y-62836181D01*
X126715077Y-62869666D01*
X126688719Y-62872500D01*
X124658038Y-62872500D01*
X124634802Y-62870303D01*
X124626722Y-62868761D01*
X124626709Y-62868760D01*
X124592283Y-62870926D01*
X124524141Y-62855489D01*
X124475161Y-62805661D01*
X124460500Y-62747171D01*
X124460500Y-53464500D01*
X124480185Y-53397461D01*
X124532989Y-53351706D01*
X124584500Y-53340500D01*
X138946857Y-53340500D01*
X139013896Y-53360185D01*
G37*
G04 #@! TD.AperFunction*
G04 #@! TD*
M02*
