M48
INCH,TZ
T1C0.0157
T2C0.0315
T3C0.0394
T4C0.0433
T5C0.0469
T6C0.0630
%
G90
G05
T1
X52000Y-23000
X52000Y-27000
X52000Y-31000
X54000Y-28000
X55000Y-26000
X56000Y-40000
X57000Y-28000
X57000Y-29000
X57480Y-33000
X58000Y-26000
X58000Y-31000
X58000Y-36000
X60000Y-32000
X60000Y-34000
X61000Y-35000
X63000Y-24000
X63000Y-29000
X63000Y-32000
X64000Y-27000
X64000Y-30000
X64213Y-39000
X68000Y-34000
X68000Y-38000
X69000Y-37000
X70000Y-38000
X71000Y-33000
X71000Y-34000
X73000Y-32000
X73000Y-36000
X73860Y-32860
X74000Y-31000
X74000Y-37000
X74664Y-32000
X75000Y-31000
X75306Y-29742
T2
X50504Y-26504
X50504Y-27504
X50504Y-28504
X50504Y-29504
X53504Y-26504
X53504Y-27504
X53504Y-28504
X53504Y-29504
X58000Y-40000
X59921Y-40000
T3
X68000Y-39000
X68000Y-40000
X69000Y-39000
X69000Y-40000
X70000Y-39000
X70000Y-40000
T4
X51000Y-24000
X52000Y-24000
X53000Y-24000
T5
X55000Y-24000
X56000Y-24000
X57000Y-24000
X58000Y-24000
X59000Y-24000
X60000Y-24000
X61000Y-24000
X62000Y-24000
X65000Y-24000
X66000Y-24000
X68000Y-24000
X69000Y-24000
X71000Y-24000
X72000Y-24000
T6
X53079Y-38705
X54260Y-40555
X55441Y-38705
M30
