G04 #@! TF.GenerationSoftware,KiCad,Pcbnew,7.0.10*
G04 #@! TF.CreationDate,2024-04-04T22:49:59-05:00*
G04 #@! TF.ProjectId,key,6b65792e-6b69-4636-9164-5f7063625858,rev?*
G04 #@! TF.SameCoordinates,Original*
G04 #@! TF.FileFunction,Paste,Top*
G04 #@! TF.FilePolarity,Positive*
%FSLAX46Y46*%
G04 Gerber Fmt 4.6, Leading zero omitted, Abs format (unit mm)*
G04 Created by KiCad (PCBNEW 7.0.10) date 2024-04-04 22:49:59*
%MOMM*%
%LPD*%
G01*
G04 APERTURE LIST*
G04 Aperture macros list*
%AMRoundRect*
0 Rectangle with rounded corners*
0 $1 Rounding radius*
0 $2 $3 $4 $5 $6 $7 $8 $9 X,Y pos of 4 corners*
0 Add a 4 corners polygon primitive as box body*
4,1,4,$2,$3,$4,$5,$6,$7,$8,$9,$2,$3,0*
0 Add four circle primitives for the rounded corners*
1,1,$1+$1,$2,$3*
1,1,$1+$1,$4,$5*
1,1,$1+$1,$6,$7*
1,1,$1+$1,$8,$9*
0 Add four rect primitives between the rounded corners*
20,1,$1+$1,$2,$3,$4,$5,0*
20,1,$1+$1,$4,$5,$6,$7,0*
20,1,$1+$1,$6,$7,$8,$9,0*
20,1,$1+$1,$8,$9,$2,$3,0*%
G04 Aperture macros list end*
%ADD10RoundRect,0.250000X-0.350000X-0.450000X0.350000X-0.450000X0.350000X0.450000X-0.350000X0.450000X0*%
%ADD11RoundRect,0.250000X0.350000X0.450000X-0.350000X0.450000X-0.350000X-0.450000X0.350000X-0.450000X0*%
%ADD12RoundRect,0.225000X-0.225000X-0.375000X0.225000X-0.375000X0.225000X0.375000X-0.225000X0.375000X0*%
%ADD13R,1.600000X0.550000*%
%ADD14R,0.550000X1.600000*%
%ADD15R,2.450000X1.000000*%
%ADD16R,1.000000X2.450000*%
%ADD17RoundRect,0.250000X-0.337500X-0.475000X0.337500X-0.475000X0.337500X0.475000X-0.337500X0.475000X0*%
%ADD18R,2.000000X1.500000*%
%ADD19R,2.000000X3.800000*%
%ADD20RoundRect,0.250000X0.337500X0.475000X-0.337500X0.475000X-0.337500X-0.475000X0.337500X-0.475000X0*%
G04 APERTURE END LIST*
D10*
G04 #@! TO.C,Gate-bias1*
X134620000Y-78740000D03*
X136620000Y-78740000D03*
G04 #@! TD*
D11*
G04 #@! TO.C,R2*
X154940000Y-91440000D03*
X152940000Y-91440000D03*
G04 #@! TD*
D12*
G04 #@! TO.C,D1*
X161800000Y-104140000D03*
X165100000Y-104140000D03*
G04 #@! TD*
D13*
G04 #@! TO.C,U1*
X157480000Y-75630000D03*
X157480000Y-74830000D03*
X157480000Y-74030000D03*
X157480000Y-73230000D03*
X157480000Y-72430000D03*
X157480000Y-71630000D03*
X157480000Y-70830000D03*
X157480000Y-70030000D03*
D14*
X156030000Y-68580000D03*
X155230000Y-68580000D03*
X154430000Y-68580000D03*
X153630000Y-68580000D03*
X152830000Y-68580000D03*
X152030000Y-68580000D03*
X151230000Y-68580000D03*
X150430000Y-68580000D03*
D13*
X148980000Y-70030000D03*
X148980000Y-70830000D03*
X148980000Y-71630000D03*
X148980000Y-72430000D03*
X148980000Y-73230000D03*
X148980000Y-74030000D03*
X148980000Y-74830000D03*
X148980000Y-75630000D03*
D14*
X150430000Y-77080000D03*
X151230000Y-77080000D03*
X152030000Y-77080000D03*
X152830000Y-77080000D03*
X153630000Y-77080000D03*
X154430000Y-77080000D03*
X155230000Y-77080000D03*
X156030000Y-77080000D03*
G04 #@! TD*
D11*
G04 #@! TO.C,PressureSensor1*
X129540000Y-78740000D03*
X127540000Y-78740000D03*
G04 #@! TD*
D15*
G04 #@! TO.C,DWM1*
X170280000Y-77941200D03*
X170280000Y-79341200D03*
X170280000Y-80741200D03*
X170280000Y-82141200D03*
X170280000Y-83541200D03*
X170280000Y-84941200D03*
X170280000Y-86341200D03*
X170280000Y-87741200D03*
D16*
X171680000Y-90036200D03*
X173080000Y-90036200D03*
X174480000Y-90036200D03*
X175880000Y-90036200D03*
X177280000Y-90036200D03*
X178680000Y-90036200D03*
X180080000Y-90036200D03*
X181480000Y-90036200D03*
D15*
X182880000Y-87740000D03*
X182880000Y-86340000D03*
X182880000Y-84941200D03*
X182880000Y-83541200D03*
X182880000Y-82141200D03*
X182880000Y-80741200D03*
X182880000Y-79341200D03*
X182880000Y-77941200D03*
G04 #@! TD*
D10*
G04 #@! TO.C,R4*
X163100000Y-99060000D03*
X165100000Y-99060000D03*
G04 #@! TD*
G04 #@! TO.C,RM1*
X128540000Y-88900000D03*
X130540000Y-88900000D03*
G04 #@! TD*
D17*
G04 #@! TO.C,C4*
X145245000Y-91440000D03*
X147320000Y-91440000D03*
G04 #@! TD*
G04 #@! TO.C,C6*
X157945000Y-96520000D03*
X160020000Y-96520000D03*
G04 #@! TD*
G04 #@! TO.C,C5*
X145245000Y-96520000D03*
X147320000Y-96520000D03*
G04 #@! TD*
G04 #@! TO.C,C3*
X152400000Y-86360000D03*
X154475000Y-86360000D03*
G04 #@! TD*
G04 #@! TO.C,C2*
X165565000Y-93980000D03*
X167640000Y-93980000D03*
G04 #@! TD*
D18*
G04 #@! TO.C,U3*
X139700000Y-81520000D03*
X139700000Y-83820000D03*
D19*
X146000000Y-83820000D03*
D18*
X139700000Y-86120000D03*
G04 #@! TD*
D10*
G04 #@! TO.C,Pulldown1*
X128540000Y-83820000D03*
X130540000Y-83820000D03*
G04 #@! TD*
G04 #@! TO.C,R1*
X180880000Y-93980000D03*
X182880000Y-93980000D03*
G04 #@! TD*
D20*
G04 #@! TO.C,C1*
X137160000Y-86360000D03*
X135085000Y-86360000D03*
G04 #@! TD*
M02*
