G04 #@! TF.GenerationSoftware,KiCad,Pcbnew,7.0.10*
G04 #@! TF.CreationDate,2024-04-04T22:49:01-05:00*
G04 #@! TF.ProjectId,adapter,61646170-7465-4722-9e6b-696361645f70,rev?*
G04 #@! TF.SameCoordinates,Original*
G04 #@! TF.FileFunction,Copper,L2,Bot*
G04 #@! TF.FilePolarity,Positive*
%FSLAX46Y46*%
G04 Gerber Fmt 4.6, Leading zero omitted, Abs format (unit mm)*
G04 Created by KiCad (PCBNEW 7.0.10) date 2024-04-04 22:49:01*
%MOMM*%
%LPD*%
G01*
G04 APERTURE LIST*
G04 Aperture macros list*
%AMRoundRect*
0 Rectangle with rounded corners*
0 $1 Rounding radius*
0 $2 $3 $4 $5 $6 $7 $8 $9 X,Y pos of 4 corners*
0 Add a 4 corners polygon primitive as box body*
4,1,4,$2,$3,$4,$5,$6,$7,$8,$9,$2,$3,0*
0 Add four circle primitives for the rounded corners*
1,1,$1+$1,$2,$3*
1,1,$1+$1,$4,$5*
1,1,$1+$1,$6,$7*
1,1,$1+$1,$8,$9*
0 Add four rect primitives between the rounded corners*
20,1,$1+$1,$2,$3,$4,$5,0*
20,1,$1+$1,$4,$5,$6,$7,0*
20,1,$1+$1,$6,$7,$8,$9,0*
20,1,$1+$1,$8,$9,$2,$3,0*%
G04 Aperture macros list end*
G04 #@! TA.AperFunction,ComponentPad*
%ADD10RoundRect,0.250000X-0.845000X0.620000X-0.845000X-0.620000X0.845000X-0.620000X0.845000X0.620000X0*%
G04 #@! TD*
G04 #@! TA.AperFunction,ComponentPad*
%ADD11O,2.190000X1.740000*%
G04 #@! TD*
G04 #@! TA.AperFunction,ComponentPad*
%ADD12RoundRect,0.250000X0.620000X0.845000X-0.620000X0.845000X-0.620000X-0.845000X0.620000X-0.845000X0*%
G04 #@! TD*
G04 #@! TA.AperFunction,ComponentPad*
%ADD13O,1.740000X2.190000*%
G04 #@! TD*
G04 #@! TA.AperFunction,ComponentPad*
%ADD14RoundRect,0.250000X0.845000X-0.620000X0.845000X0.620000X-0.845000X0.620000X-0.845000X-0.620000X0*%
G04 #@! TD*
G04 #@! TA.AperFunction,ViaPad*
%ADD15C,0.800000*%
G04 #@! TD*
G04 #@! TA.AperFunction,Conductor*
%ADD16C,0.254000*%
G04 #@! TD*
G04 APERTURE END LIST*
D10*
G04 #@! TO.P,J4,1,Pin_1*
G04 #@! TO.N,Net-(DWM1-IRQ{slash}GPIO8)*
X182880000Y-96520000D03*
D11*
G04 #@! TO.P,J4,2,Pin_2*
G04 #@! TO.N,Net-(DWM1-SPICLK)*
X182880000Y-99060000D03*
G04 #@! TO.P,J4,3,Pin_3*
G04 #@! TO.N,Net-(DWM1-SPIMISO)*
X182880000Y-101600000D03*
G04 #@! TO.P,J4,4,Pin_4*
G04 #@! TO.N,Net-(DWM1-SPIMOSI)*
X182880000Y-104140000D03*
G04 #@! TO.P,J4,5,Pin_5*
G04 #@! TO.N,Net-(DWM1-SPICSn)*
X182880000Y-106680000D03*
G04 #@! TD*
D12*
G04 #@! TO.P,J5,1,Pin_1*
G04 #@! TO.N,Net-(DWM1-GPIO0{slash}RXOKLED)*
X175260000Y-104140000D03*
D13*
G04 #@! TO.P,J5,2,Pin_2*
G04 #@! TO.N,Net-(DWM1-GPIO1{slash}SFDLED)*
X172720000Y-104140000D03*
G04 #@! TO.P,J5,3,Pin_3*
G04 #@! TO.N,Net-(DWM1-GPIO2{slash}RXLED)*
X170180000Y-104140000D03*
G04 #@! TO.P,J5,4,Pin_4*
G04 #@! TO.N,Net-(DWM1-GPIO3{slash}TXLED)*
X167640000Y-104140000D03*
G04 #@! TO.P,J5,5,Pin_5*
G04 #@! TO.N,Net-(DWM1-GPIO4{slash}EXTPA)*
X165100000Y-104140000D03*
G04 #@! TO.P,J5,6,Pin_6*
G04 #@! TO.N,Net-(DWM1-GPIO5{slash}EXTTXE{slash}SPIPOL)*
X162560000Y-104140000D03*
G04 #@! TO.P,J5,7,Pin_7*
G04 #@! TO.N,Net-(DWM1-GPIO6{slash}EXTRXE{slash}SPIHA)*
X160020000Y-104140000D03*
G04 #@! TD*
D10*
G04 #@! TO.P,J1,1,Pin_1*
G04 #@! TO.N,Net-(J1-Pin_1)*
X182880000Y-81280000D03*
D11*
G04 #@! TO.P,J1,2,Pin_2*
G04 #@! TO.N,Net-(J1-Pin_2)*
X182880000Y-83820000D03*
G04 #@! TO.P,J1,3,Pin_3*
G04 #@! TO.N,Net-(J1-Pin_3)*
X182880000Y-86360000D03*
G04 #@! TO.P,J1,4,Pin_4*
G04 #@! TO.N,Net-(J1-Pin_4)*
X182880000Y-88900000D03*
G04 #@! TO.P,J1,5,Pin_5*
G04 #@! TO.N,Net-(J1-Pin_5)*
X182880000Y-91440000D03*
G04 #@! TD*
D14*
G04 #@! TO.P,J2,1,Pin_1*
G04 #@! TO.N,Net-(DWM1-GPIO7)*
X152400000Y-88900000D03*
D11*
G04 #@! TO.P,J2,2,Pin_2*
G04 #@! TO.N,Net-(DWM1-RSTn)*
X152400000Y-86360000D03*
G04 #@! TO.P,J2,3,Pin_3*
G04 #@! TO.N,Net-(DWM1-WAKEUP)*
X152400000Y-83820000D03*
G04 #@! TO.P,J2,4,Pin_4*
G04 #@! TO.N,Net-(DWM1-EXTON)*
X152400000Y-81280000D03*
G04 #@! TD*
D14*
G04 #@! TO.P,J3,1,Pin_1*
G04 #@! TO.N,Net-(J3-Pin_1)*
X152400000Y-99060000D03*
D11*
G04 #@! TO.P,J3,2,Pin_2*
G04 #@! TO.N,Net-(J3-Pin_2)*
X152400000Y-96520000D03*
G04 #@! TO.P,J3,3,Pin_3*
G04 #@! TO.N,Net-(DWM1-VDDAON)*
X152400000Y-93980000D03*
G04 #@! TD*
D15*
G04 #@! TO.N,Net-(J1-Pin_5)*
X157480000Y-96520000D03*
X185420000Y-91440000D03*
G04 #@! TO.N,Net-(J1-Pin_4)*
X174987000Y-96520000D03*
X180340000Y-88900000D03*
G04 #@! TO.N,Net-(J1-Pin_3)*
X178051067Y-88648933D03*
X177800000Y-91440000D03*
G04 #@! TD*
D16*
G04 #@! TO.N,Net-(J1-Pin_5)*
X158207000Y-97247000D02*
X157480000Y-96520000D01*
X185420000Y-91440000D02*
X179613000Y-97247000D01*
X179613000Y-97247000D02*
X158207000Y-97247000D01*
G04 #@! TO.N,Net-(J1-Pin_4)*
X180340000Y-88900000D02*
X180340000Y-91440000D01*
X180340000Y-91440000D02*
X175260000Y-96520000D01*
X175260000Y-96520000D02*
X174987000Y-96520000D01*
G04 #@! TO.N,Net-(J1-Pin_3)*
X178051067Y-88648933D02*
X177800000Y-88900000D01*
X177800000Y-88900000D02*
X177800000Y-91440000D01*
G04 #@! TD*
M02*
