G04 #@! TF.GenerationSoftware,KiCad,Pcbnew,7.0.10*
G04 #@! TF.CreationDate,2024-04-04T22:49:01-05:00*
G04 #@! TF.ProjectId,adapter,61646170-7465-4722-9e6b-696361645f70,rev?*
G04 #@! TF.SameCoordinates,Original*
G04 #@! TF.FileFunction,Copper,L1,Top*
G04 #@! TF.FilePolarity,Positive*
%FSLAX46Y46*%
G04 Gerber Fmt 4.6, Leading zero omitted, Abs format (unit mm)*
G04 Created by KiCad (PCBNEW 7.0.10) date 2024-04-04 22:49:01*
%MOMM*%
%LPD*%
G01*
G04 APERTURE LIST*
G04 Aperture macros list*
%AMRoundRect*
0 Rectangle with rounded corners*
0 $1 Rounding radius*
0 $2 $3 $4 $5 $6 $7 $8 $9 X,Y pos of 4 corners*
0 Add a 4 corners polygon primitive as box body*
4,1,4,$2,$3,$4,$5,$6,$7,$8,$9,$2,$3,0*
0 Add four circle primitives for the rounded corners*
1,1,$1+$1,$2,$3*
1,1,$1+$1,$4,$5*
1,1,$1+$1,$6,$7*
1,1,$1+$1,$8,$9*
0 Add four rect primitives between the rounded corners*
20,1,$1+$1,$2,$3,$4,$5,0*
20,1,$1+$1,$4,$5,$6,$7,0*
20,1,$1+$1,$6,$7,$8,$9,0*
20,1,$1+$1,$8,$9,$2,$3,0*%
G04 Aperture macros list end*
G04 #@! TA.AperFunction,SMDPad,CuDef*
%ADD10R,2.450000X1.000000*%
G04 #@! TD*
G04 #@! TA.AperFunction,SMDPad,CuDef*
%ADD11R,1.000000X2.450000*%
G04 #@! TD*
G04 #@! TA.AperFunction,ComponentPad*
%ADD12RoundRect,0.250000X-0.845000X0.620000X-0.845000X-0.620000X0.845000X-0.620000X0.845000X0.620000X0*%
G04 #@! TD*
G04 #@! TA.AperFunction,ComponentPad*
%ADD13O,2.190000X1.740000*%
G04 #@! TD*
G04 #@! TA.AperFunction,ComponentPad*
%ADD14RoundRect,0.250000X0.620000X0.845000X-0.620000X0.845000X-0.620000X-0.845000X0.620000X-0.845000X0*%
G04 #@! TD*
G04 #@! TA.AperFunction,ComponentPad*
%ADD15O,1.740000X2.190000*%
G04 #@! TD*
G04 #@! TA.AperFunction,ComponentPad*
%ADD16RoundRect,0.250000X0.845000X-0.620000X0.845000X0.620000X-0.845000X0.620000X-0.845000X-0.620000X0*%
G04 #@! TD*
G04 #@! TA.AperFunction,ViaPad*
%ADD17C,0.800000*%
G04 #@! TD*
G04 #@! TA.AperFunction,Conductor*
%ADD18C,0.254000*%
G04 #@! TD*
G04 APERTURE END LIST*
D10*
G04 #@! TO.P,DWM1,1,EXTON*
G04 #@! TO.N,Net-(DWM1-EXTON)*
X161520000Y-84425000D03*
G04 #@! TO.P,DWM1,2,WAKEUP*
G04 #@! TO.N,Net-(DWM1-WAKEUP)*
X161520000Y-85825000D03*
G04 #@! TO.P,DWM1,3,RSTn*
G04 #@! TO.N,Net-(DWM1-RSTn)*
X161520000Y-87225000D03*
G04 #@! TO.P,DWM1,4,GPIO7*
G04 #@! TO.N,Net-(DWM1-GPIO7)*
X161520000Y-88625000D03*
G04 #@! TO.P,DWM1,5,VDDAON*
G04 #@! TO.N,Net-(DWM1-VDDAON)*
X161520000Y-90025000D03*
G04 #@! TO.P,DWM1,6,VDD3V3*
G04 #@! TO.N,Net-(J3-Pin_2)*
X161520000Y-91425000D03*
G04 #@! TO.P,DWM1,7,VDD3V3*
G04 #@! TO.N,Net-(J3-Pin_1)*
X161520000Y-92825000D03*
G04 #@! TO.P,DWM1,8,VSS*
G04 #@! TO.N,Net-(J1-Pin_5)*
X161520000Y-94225000D03*
D11*
G04 #@! TO.P,DWM1,9,GPIO6/EXTRXE/SPIHA*
G04 #@! TO.N,Net-(DWM1-GPIO6{slash}EXTRXE{slash}SPIHA)*
X162920000Y-96520000D03*
G04 #@! TO.P,DWM1,10,GPIO5/EXTTXE/SPIPOL*
G04 #@! TO.N,Net-(DWM1-GPIO5{slash}EXTTXE{slash}SPIPOL)*
X164320000Y-96520000D03*
G04 #@! TO.P,DWM1,11,GPIO4/EXTPA*
G04 #@! TO.N,Net-(DWM1-GPIO4{slash}EXTPA)*
X165720000Y-96520000D03*
G04 #@! TO.P,DWM1,12,GPIO3/TXLED*
G04 #@! TO.N,Net-(DWM1-GPIO3{slash}TXLED)*
X167120000Y-96520000D03*
G04 #@! TO.P,DWM1,13,GPIO2/RXLED*
G04 #@! TO.N,Net-(DWM1-GPIO2{slash}RXLED)*
X168520000Y-96520000D03*
G04 #@! TO.P,DWM1,14,GPIO1/SFDLED*
G04 #@! TO.N,Net-(DWM1-GPIO1{slash}SFDLED)*
X169920000Y-96520000D03*
G04 #@! TO.P,DWM1,15,GPIO0/RXOKLED*
G04 #@! TO.N,Net-(DWM1-GPIO0{slash}RXOKLED)*
X171320000Y-96520000D03*
G04 #@! TO.P,DWM1,16,VSS*
G04 #@! TO.N,Net-(J1-Pin_4)*
X172720000Y-96520000D03*
D10*
G04 #@! TO.P,DWM1,17,SPICSn*
G04 #@! TO.N,Net-(DWM1-SPICSn)*
X174120000Y-94223800D03*
G04 #@! TO.P,DWM1,18,SPIMOSI*
G04 #@! TO.N,Net-(DWM1-SPIMOSI)*
X174120000Y-92823800D03*
G04 #@! TO.P,DWM1,19,SPIMISO*
G04 #@! TO.N,Net-(DWM1-SPIMISO)*
X174120000Y-91425000D03*
G04 #@! TO.P,DWM1,20,SPICLK*
G04 #@! TO.N,Net-(DWM1-SPICLK)*
X174120000Y-90025000D03*
G04 #@! TO.P,DWM1,21,VSS*
G04 #@! TO.N,Net-(J1-Pin_3)*
X174120000Y-88625000D03*
G04 #@! TO.P,DWM1,22,IRQ/GPIO8*
G04 #@! TO.N,Net-(DWM1-IRQ{slash}GPIO8)*
X174120000Y-87225000D03*
G04 #@! TO.P,DWM1,23,VSS*
G04 #@! TO.N,Net-(J1-Pin_2)*
X174120000Y-85825000D03*
G04 #@! TO.P,DWM1,24,VSS*
G04 #@! TO.N,Net-(J1-Pin_1)*
X174120000Y-84425000D03*
G04 #@! TD*
D12*
G04 #@! TO.P,J4,1,Pin_1*
G04 #@! TO.N,Net-(DWM1-IRQ{slash}GPIO8)*
X182880000Y-96520000D03*
D13*
G04 #@! TO.P,J4,2,Pin_2*
G04 #@! TO.N,Net-(DWM1-SPICLK)*
X182880000Y-99060000D03*
G04 #@! TO.P,J4,3,Pin_3*
G04 #@! TO.N,Net-(DWM1-SPIMISO)*
X182880000Y-101600000D03*
G04 #@! TO.P,J4,4,Pin_4*
G04 #@! TO.N,Net-(DWM1-SPIMOSI)*
X182880000Y-104140000D03*
G04 #@! TO.P,J4,5,Pin_5*
G04 #@! TO.N,Net-(DWM1-SPICSn)*
X182880000Y-106680000D03*
G04 #@! TD*
D14*
G04 #@! TO.P,J5,1,Pin_1*
G04 #@! TO.N,Net-(DWM1-GPIO0{slash}RXOKLED)*
X175260000Y-104140000D03*
D15*
G04 #@! TO.P,J5,2,Pin_2*
G04 #@! TO.N,Net-(DWM1-GPIO1{slash}SFDLED)*
X172720000Y-104140000D03*
G04 #@! TO.P,J5,3,Pin_3*
G04 #@! TO.N,Net-(DWM1-GPIO2{slash}RXLED)*
X170180000Y-104140000D03*
G04 #@! TO.P,J5,4,Pin_4*
G04 #@! TO.N,Net-(DWM1-GPIO3{slash}TXLED)*
X167640000Y-104140000D03*
G04 #@! TO.P,J5,5,Pin_5*
G04 #@! TO.N,Net-(DWM1-GPIO4{slash}EXTPA)*
X165100000Y-104140000D03*
G04 #@! TO.P,J5,6,Pin_6*
G04 #@! TO.N,Net-(DWM1-GPIO5{slash}EXTTXE{slash}SPIPOL)*
X162560000Y-104140000D03*
G04 #@! TO.P,J5,7,Pin_7*
G04 #@! TO.N,Net-(DWM1-GPIO6{slash}EXTRXE{slash}SPIHA)*
X160020000Y-104140000D03*
G04 #@! TD*
D12*
G04 #@! TO.P,J1,1,Pin_1*
G04 #@! TO.N,Net-(J1-Pin_1)*
X182880000Y-81280000D03*
D13*
G04 #@! TO.P,J1,2,Pin_2*
G04 #@! TO.N,Net-(J1-Pin_2)*
X182880000Y-83820000D03*
G04 #@! TO.P,J1,3,Pin_3*
G04 #@! TO.N,Net-(J1-Pin_3)*
X182880000Y-86360000D03*
G04 #@! TO.P,J1,4,Pin_4*
G04 #@! TO.N,Net-(J1-Pin_4)*
X182880000Y-88900000D03*
G04 #@! TO.P,J1,5,Pin_5*
G04 #@! TO.N,Net-(J1-Pin_5)*
X182880000Y-91440000D03*
G04 #@! TD*
D16*
G04 #@! TO.P,J2,1,Pin_1*
G04 #@! TO.N,Net-(DWM1-GPIO7)*
X152400000Y-88900000D03*
D13*
G04 #@! TO.P,J2,2,Pin_2*
G04 #@! TO.N,Net-(DWM1-RSTn)*
X152400000Y-86360000D03*
G04 #@! TO.P,J2,3,Pin_3*
G04 #@! TO.N,Net-(DWM1-WAKEUP)*
X152400000Y-83820000D03*
G04 #@! TO.P,J2,4,Pin_4*
G04 #@! TO.N,Net-(DWM1-EXTON)*
X152400000Y-81280000D03*
G04 #@! TD*
D16*
G04 #@! TO.P,J3,1,Pin_1*
G04 #@! TO.N,Net-(J3-Pin_1)*
X152400000Y-99060000D03*
D13*
G04 #@! TO.P,J3,2,Pin_2*
G04 #@! TO.N,Net-(J3-Pin_2)*
X152400000Y-96520000D03*
G04 #@! TO.P,J3,3,Pin_3*
G04 #@! TO.N,Net-(DWM1-VDDAON)*
X152400000Y-93980000D03*
G04 #@! TD*
D17*
G04 #@! TO.N,Net-(J1-Pin_5)*
X157480000Y-96520000D03*
X185420000Y-91440000D03*
G04 #@! TO.N,Net-(J1-Pin_4)*
X174987000Y-96520000D03*
X180340000Y-88900000D03*
G04 #@! TO.N,Net-(J1-Pin_3)*
X178051067Y-88648933D03*
X177800000Y-91440000D03*
G04 #@! TD*
D18*
G04 #@! TO.N,Net-(DWM1-EXTON)*
X152400000Y-81280000D02*
X155545000Y-84425000D01*
X155545000Y-84425000D02*
X161520000Y-84425000D01*
G04 #@! TO.N,Net-(DWM1-WAKEUP)*
X152400000Y-83820000D02*
X154405000Y-85825000D01*
X154405000Y-85825000D02*
X161520000Y-85825000D01*
G04 #@! TO.N,Net-(DWM1-RSTn)*
X153265000Y-87225000D02*
X161520000Y-87225000D01*
X152400000Y-86360000D02*
X153265000Y-87225000D01*
G04 #@! TO.N,Net-(DWM1-GPIO7)*
X161245000Y-88900000D02*
X161520000Y-88625000D01*
X152400000Y-88900000D02*
X161245000Y-88900000D01*
G04 #@! TO.N,Net-(DWM1-VDDAON)*
X156355000Y-90025000D02*
X161520000Y-90025000D01*
X152400000Y-93980000D02*
X156355000Y-90025000D01*
G04 #@! TO.N,Net-(J3-Pin_2)*
X157495000Y-91425000D02*
X161520000Y-91425000D01*
X152400000Y-96520000D02*
X157495000Y-91425000D01*
G04 #@! TO.N,Net-(J3-Pin_1)*
X161520000Y-92825000D02*
X158635000Y-92825000D01*
X158635000Y-92825000D02*
X152400000Y-99060000D01*
G04 #@! TO.N,Net-(J1-Pin_5)*
X159775000Y-94225000D02*
X161520000Y-94225000D01*
X157480000Y-96520000D02*
X159775000Y-94225000D01*
X182880000Y-91440000D02*
X185420000Y-91440000D01*
G04 #@! TO.N,Net-(DWM1-GPIO6{slash}EXTRXE{slash}SPIHA)*
X160020000Y-104140000D02*
X160020000Y-99420000D01*
X160020000Y-99420000D02*
X162920000Y-96520000D01*
G04 #@! TO.N,Net-(DWM1-GPIO5{slash}EXTTXE{slash}SPIPOL)*
X164320000Y-102380000D02*
X164320000Y-96520000D01*
X162560000Y-104140000D02*
X164320000Y-102380000D01*
G04 #@! TO.N,Net-(DWM1-GPIO4{slash}EXTPA)*
X165720000Y-103520000D02*
X165720000Y-96520000D01*
X165100000Y-104140000D02*
X165720000Y-103520000D01*
G04 #@! TO.N,Net-(DWM1-GPIO3{slash}TXLED)*
X167640000Y-97040000D02*
X167120000Y-96520000D01*
X167640000Y-104140000D02*
X167640000Y-97040000D01*
G04 #@! TO.N,Net-(DWM1-GPIO2{slash}RXLED)*
X168520000Y-99940000D02*
X168520000Y-96520000D01*
X170180000Y-104140000D02*
X170180000Y-101600000D01*
X170180000Y-101600000D02*
X168520000Y-99940000D01*
G04 #@! TO.N,Net-(DWM1-GPIO1{slash}SFDLED)*
X172720000Y-101600000D02*
X169920000Y-98800000D01*
X172720000Y-104140000D02*
X172720000Y-101600000D01*
X169920000Y-98800000D02*
X169920000Y-96520000D01*
G04 #@! TO.N,Net-(DWM1-GPIO0{slash}RXOKLED)*
X172381000Y-99060000D02*
X171320000Y-97999000D01*
X175260000Y-104140000D02*
X175260000Y-99060000D01*
X171320000Y-97999000D02*
X171320000Y-96520000D01*
X175260000Y-99060000D02*
X172381000Y-99060000D01*
G04 #@! TO.N,Net-(J1-Pin_4)*
X174987000Y-96520000D02*
X172720000Y-96520000D01*
X182880000Y-88900000D02*
X180340000Y-88900000D01*
G04 #@! TO.N,Net-(DWM1-SPICSn)*
X175714000Y-95817800D02*
X174120000Y-94223800D01*
X182880000Y-106680000D02*
X175714000Y-99514000D01*
X175714000Y-99514000D02*
X175714000Y-95817800D01*
G04 #@! TO.N,Net-(DWM1-SPIMOSI)*
X182880000Y-104140000D02*
X176168000Y-97428000D01*
X176168000Y-97428000D02*
X176168000Y-93392800D01*
X176168000Y-93392800D02*
X175599000Y-92823800D01*
X175599000Y-92823800D02*
X174120000Y-92823800D01*
G04 #@! TO.N,Net-(DWM1-SPIMISO)*
X176622000Y-92802000D02*
X175245000Y-91425000D01*
X176622000Y-95342000D02*
X176622000Y-92802000D01*
X175245000Y-91425000D02*
X174120000Y-91425000D01*
X182880000Y-101600000D02*
X176622000Y-95342000D01*
G04 #@! TO.N,Net-(DWM1-SPICLK)*
X177076000Y-91502000D02*
X175599000Y-90025000D01*
X182880000Y-99060000D02*
X177076000Y-93256000D01*
X177076000Y-93256000D02*
X177076000Y-91502000D01*
X175599000Y-90025000D02*
X174120000Y-90025000D01*
G04 #@! TO.N,Net-(J1-Pin_3)*
X174985000Y-88625000D02*
X174120000Y-88625000D01*
X180340000Y-86360000D02*
X178051067Y-88648933D01*
X182880000Y-86360000D02*
X180340000Y-86360000D01*
X177800000Y-91440000D02*
X174985000Y-88625000D01*
G04 #@! TO.N,Net-(DWM1-IRQ{slash}GPIO8)*
X182880000Y-96520000D02*
X182880000Y-94506000D01*
X182880000Y-94506000D02*
X175599000Y-87225000D01*
X175599000Y-87225000D02*
X174120000Y-87225000D01*
G04 #@! TO.N,Net-(J1-Pin_2)*
X180875000Y-85825000D02*
X174120000Y-85825000D01*
X182880000Y-83820000D02*
X180875000Y-85825000D01*
G04 #@! TO.N,Net-(J1-Pin_1)*
X179735000Y-84425000D02*
X174120000Y-84425000D01*
X182880000Y-81280000D02*
X179735000Y-84425000D01*
G04 #@! TD*
M02*
