M48
INCH,TZ
T1C0.0157
T2C0.0469
%
G90
G05
T1
X62000Y-38000
X68893Y-38000
X70000Y-36000
X70099Y-34901
X71000Y-35000
X73000Y-36000
T2
X60000Y-32000
X60000Y-33000
X60000Y-34000
X60000Y-35000
X60000Y-37000
X60000Y-38000
X60000Y-39000
X63000Y-41000
X64000Y-41000
X65000Y-41000
X66000Y-41000
X67000Y-41000
X68000Y-41000
X69000Y-41000
X72000Y-32000
X72000Y-33000
X72000Y-34000
X72000Y-35000
X72000Y-36000
X72000Y-38000
X72000Y-39000
X72000Y-40000
X72000Y-41000
X72000Y-42000
M30
