G04 #@! TF.GenerationSoftware,KiCad,Pcbnew,7.0.10*
G04 #@! TF.CreationDate,2024-03-19T19:49:00-05:00*
G04 #@! TF.ProjectId,key,6b65792e-6b69-4636-9164-5f7063625858,rev?*
G04 #@! TF.SameCoordinates,Original*
G04 #@! TF.FileFunction,Paste,Top*
G04 #@! TF.FilePolarity,Positive*
%FSLAX46Y46*%
G04 Gerber Fmt 4.6, Leading zero omitted, Abs format (unit mm)*
G04 Created by KiCad (PCBNEW 7.0.10) date 2024-03-19 19:49:00*
%MOMM*%
%LPD*%
G01*
G04 APERTURE LIST*
G04 Aperture macros list*
%AMRoundRect*
0 Rectangle with rounded corners*
0 $1 Rounding radius*
0 $2 $3 $4 $5 $6 $7 $8 $9 X,Y pos of 4 corners*
0 Add a 4 corners polygon primitive as box body*
4,1,4,$2,$3,$4,$5,$6,$7,$8,$9,$2,$3,0*
0 Add four circle primitives for the rounded corners*
1,1,$1+$1,$2,$3*
1,1,$1+$1,$4,$5*
1,1,$1+$1,$6,$7*
1,1,$1+$1,$8,$9*
0 Add four rect primitives between the rounded corners*
20,1,$1+$1,$2,$3,$4,$5,0*
20,1,$1+$1,$4,$5,$6,$7,0*
20,1,$1+$1,$6,$7,$8,$9,0*
20,1,$1+$1,$8,$9,$2,$3,0*%
G04 Aperture macros list end*
%ADD10RoundRect,0.250000X-0.337500X-0.475000X0.337500X-0.475000X0.337500X0.475000X-0.337500X0.475000X0*%
%ADD11RoundRect,0.250000X0.350000X0.450000X-0.350000X0.450000X-0.350000X-0.450000X0.350000X-0.450000X0*%
%ADD12R,2.000000X1.500000*%
%ADD13R,2.000000X3.800000*%
%ADD14RoundRect,0.250000X-0.350000X-0.450000X0.350000X-0.450000X0.350000X0.450000X-0.350000X0.450000X0*%
%ADD15R,2.450000X1.000000*%
%ADD16R,1.000000X2.450000*%
%ADD17RoundRect,0.150000X-0.825000X-0.150000X0.825000X-0.150000X0.825000X0.150000X-0.825000X0.150000X0*%
%ADD18RoundRect,0.225000X-0.225000X-0.375000X0.225000X-0.375000X0.225000X0.375000X-0.225000X0.375000X0*%
G04 APERTURE END LIST*
D10*
X155405000Y-81280000D03*
X157480000Y-81280000D03*
D11*
X139700000Y-71120000D03*
X137700000Y-71120000D03*
D12*
X154330000Y-56120000D03*
X154330000Y-58420000D03*
D13*
X160630000Y-58420000D03*
D12*
X154330000Y-60720000D03*
D11*
X122920000Y-66040000D03*
X120920000Y-66040000D03*
D14*
X109220000Y-83820000D03*
X111220000Y-83820000D03*
D15*
X102920000Y-65241200D03*
X102920000Y-66641200D03*
X102920000Y-68041200D03*
X102920000Y-69441200D03*
X102920000Y-70841200D03*
X102920000Y-72241200D03*
X102920000Y-73641200D03*
X102920000Y-75041200D03*
D16*
X104320000Y-77336200D03*
X105720000Y-77336200D03*
X107120000Y-77336200D03*
X108520000Y-77336200D03*
X109920000Y-77336200D03*
X111320000Y-77336200D03*
X112720000Y-77336200D03*
X114120000Y-77336200D03*
D15*
X115520000Y-75040000D03*
X115520000Y-73640000D03*
X115520000Y-72241200D03*
X115520000Y-70841200D03*
X115520000Y-69441200D03*
X115520000Y-68041200D03*
X115520000Y-66641200D03*
X115520000Y-65241200D03*
D14*
X137700000Y-68580000D03*
X139700000Y-68580000D03*
X143780000Y-50800000D03*
X145780000Y-50800000D03*
D17*
X127000000Y-64770000D03*
X127000000Y-66040000D03*
X127000000Y-67310000D03*
X127000000Y-68580000D03*
X127000000Y-69850000D03*
X127000000Y-71120000D03*
X127000000Y-72390000D03*
X131950000Y-72390000D03*
X131950000Y-71120000D03*
X131950000Y-69850000D03*
X131950000Y-68580000D03*
X131950000Y-67310000D03*
X131950000Y-66040000D03*
X131950000Y-64770000D03*
D14*
X137700000Y-63500000D03*
X139700000Y-63500000D03*
D10*
X154940000Y-66040000D03*
X157015000Y-66040000D03*
X137625000Y-76200000D03*
X139700000Y-76200000D03*
D18*
X110110000Y-88900000D03*
X113410000Y-88900000D03*
D14*
X119920000Y-53340000D03*
X121920000Y-53340000D03*
X119920000Y-58420000D03*
X121920000Y-58420000D03*
M02*
