M48
INCH,TZ
T1C0.0157
T2C0.0315
T3C0.0394
T4C0.0433
T5C0.0469
%
G90
G05
T1
X40195Y-28000
X40520Y-26788
X47000Y-33000
X47213Y-21000
X48000Y-34000
X49000Y-26967
X49000Y-28039
X50000Y-25500
X50000Y-30000
X51000Y-32000
X54213Y-25000
X60000Y-30000
X60000Y-30000
X60760Y-23000
X61183Y-32000
X61183Y-32000
X63240Y-23000
T2
X51000Y-17504
X51000Y-18504
X51000Y-19504
X51000Y-20504
X54000Y-17504
X54000Y-18504
X54000Y-19504
X54000Y-20504
T3
X50000Y-33000
X50000Y-34000
X50000Y-35000
X51000Y-33000
X51000Y-34000
X51000Y-35000
T4
X55000Y-23000
X56000Y-23000
X57000Y-23000
T5
X57000Y-27000
X57000Y-31000
X58000Y-27000
X58000Y-31000
X61000Y-29000
X62000Y-29000
M30
