G04 #@! TF.GenerationSoftware,KiCad,Pcbnew,7.0.10*
G04 #@! TF.CreationDate,2024-04-04T22:50:49-05:00*
G04 #@! TF.ProjectId,keychain,6b657963-6861-4696-9e2e-6b696361645f,rev?*
G04 #@! TF.SameCoordinates,Original*
G04 #@! TF.FileFunction,Paste,Top*
G04 #@! TF.FilePolarity,Positive*
%FSLAX46Y46*%
G04 Gerber Fmt 4.6, Leading zero omitted, Abs format (unit mm)*
G04 Created by KiCad (PCBNEW 7.0.10) date 2024-04-04 22:50:49*
%MOMM*%
%LPD*%
G01*
G04 APERTURE LIST*
G04 Aperture macros list*
%AMRoundRect*
0 Rectangle with rounded corners*
0 $1 Rounding radius*
0 $2 $3 $4 $5 $6 $7 $8 $9 X,Y pos of 4 corners*
0 Add a 4 corners polygon primitive as box body*
4,1,4,$2,$3,$4,$5,$6,$7,$8,$9,$2,$3,0*
0 Add four circle primitives for the rounded corners*
1,1,$1+$1,$2,$3*
1,1,$1+$1,$4,$5*
1,1,$1+$1,$6,$7*
1,1,$1+$1,$8,$9*
0 Add four rect primitives between the rounded corners*
20,1,$1+$1,$2,$3,$4,$5,0*
20,1,$1+$1,$4,$5,$6,$7,0*
20,1,$1+$1,$6,$7,$8,$9,0*
20,1,$1+$1,$8,$9,$2,$3,0*%
G04 Aperture macros list end*
%ADD10RoundRect,0.250000X0.337500X0.475000X-0.337500X0.475000X-0.337500X-0.475000X0.337500X-0.475000X0*%
%ADD11R,1.600000X0.550000*%
%ADD12R,0.550000X1.600000*%
%ADD13R,4.200000X3.200000*%
%ADD14R,2.450000X1.000000*%
%ADD15R,1.000000X2.450000*%
%ADD16RoundRect,0.250000X-0.350000X-0.450000X0.350000X-0.450000X0.350000X0.450000X-0.350000X0.450000X0*%
%ADD17RoundRect,0.225000X-0.225000X-0.375000X0.225000X-0.375000X0.225000X0.375000X-0.225000X0.375000X0*%
%ADD18RoundRect,0.250000X-0.337500X-0.475000X0.337500X-0.475000X0.337500X0.475000X-0.337500X0.475000X0*%
G04 APERTURE END LIST*
D10*
G04 #@! TO.C,C3*
X126535000Y-81280000D03*
X124460000Y-81280000D03*
G04 #@! TD*
D11*
G04 #@! TO.C,U1*
X135930000Y-71380000D03*
X135930000Y-70580000D03*
X135930000Y-69780000D03*
X135930000Y-68980000D03*
X135930000Y-68180000D03*
X135930000Y-67380000D03*
X135930000Y-66580000D03*
X135930000Y-65780000D03*
D12*
X134480000Y-64330000D03*
X133680000Y-64330000D03*
X132880000Y-64330000D03*
X132080000Y-64330000D03*
X131280000Y-64330000D03*
X130480000Y-64330000D03*
X129680000Y-64330000D03*
X128880000Y-64330000D03*
D11*
X127430000Y-65780000D03*
X127430000Y-66580000D03*
X127430000Y-67380000D03*
X127430000Y-68180000D03*
X127430000Y-68980000D03*
X127430000Y-69780000D03*
X127430000Y-70580000D03*
X127430000Y-71380000D03*
D12*
X128880000Y-72830000D03*
X129680000Y-72830000D03*
X130480000Y-72830000D03*
X131280000Y-72830000D03*
X132080000Y-72830000D03*
X132880000Y-72830000D03*
X133680000Y-72830000D03*
X134480000Y-72830000D03*
G04 #@! TD*
D10*
G04 #@! TO.C,C2*
X134620000Y-81280000D03*
X132545000Y-81280000D03*
G04 #@! TD*
D13*
G04 #@! TO.C,REF\u002A\u002A*
X111760000Y-85180000D03*
X111760000Y-55880000D03*
G04 #@! TD*
D14*
G04 #@! TO.C,DWM1*
X142340000Y-68580000D03*
X142340000Y-69980000D03*
X142340000Y-71380000D03*
X142340000Y-72780000D03*
X142340000Y-74180000D03*
X142340000Y-75580000D03*
X142340000Y-76980000D03*
X142340000Y-78380000D03*
D15*
X143740000Y-80675000D03*
X145140000Y-80675000D03*
X146540000Y-80675000D03*
X147940000Y-80675000D03*
X149340000Y-80675000D03*
X150740000Y-80675000D03*
X152140000Y-80675000D03*
X153540000Y-80675000D03*
D14*
X154940000Y-78378800D03*
X154940000Y-76978800D03*
X154940000Y-75580000D03*
X154940000Y-74180000D03*
X154940000Y-72780000D03*
X154940000Y-71380000D03*
X154940000Y-69980000D03*
X154940000Y-68580000D03*
G04 #@! TD*
D10*
G04 #@! TO.C,C1*
X137160000Y-86360000D03*
X135085000Y-86360000D03*
G04 #@! TD*
D16*
G04 #@! TO.C,R3*
X139700000Y-88900000D03*
X141700000Y-88900000D03*
G04 #@! TD*
D17*
G04 #@! TO.C,D1*
X138940000Y-93980000D03*
X142240000Y-93980000D03*
G04 #@! TD*
D18*
G04 #@! TO.C,C4*
X139700000Y-83820000D03*
X141775000Y-83820000D03*
G04 #@! TD*
M02*
