G04 #@! TF.GenerationSoftware,KiCad,Pcbnew,7.0.10*
G04 #@! TF.CreationDate,2024-04-04T22:50:49-05:00*
G04 #@! TF.ProjectId,keychain,6b657963-6861-4696-9e2e-6b696361645f,rev?*
G04 #@! TF.SameCoordinates,Original*
G04 #@! TF.FileFunction,Legend,Top*
G04 #@! TF.FilePolarity,Positive*
%FSLAX46Y46*%
G04 Gerber Fmt 4.6, Leading zero omitted, Abs format (unit mm)*
G04 Created by KiCad (PCBNEW 7.0.10) date 2024-04-04 22:50:49*
%MOMM*%
%LPD*%
G01*
G04 APERTURE LIST*
%ADD10C,0.300000*%
%ADD11C,0.150000*%
%ADD12C,0.120000*%
%ADD13C,0.127000*%
G04 APERTURE END LIST*
D10*
X99614510Y-91365828D02*
X99614510Y-89865828D01*
X99757368Y-90794400D02*
X100185939Y-91365828D01*
X100185939Y-90365828D02*
X99614510Y-90937257D01*
X101400225Y-91294400D02*
X101257368Y-91365828D01*
X101257368Y-91365828D02*
X100971654Y-91365828D01*
X100971654Y-91365828D02*
X100828796Y-91294400D01*
X100828796Y-91294400D02*
X100757368Y-91151542D01*
X100757368Y-91151542D02*
X100757368Y-90580114D01*
X100757368Y-90580114D02*
X100828796Y-90437257D01*
X100828796Y-90437257D02*
X100971654Y-90365828D01*
X100971654Y-90365828D02*
X101257368Y-90365828D01*
X101257368Y-90365828D02*
X101400225Y-90437257D01*
X101400225Y-90437257D02*
X101471654Y-90580114D01*
X101471654Y-90580114D02*
X101471654Y-90722971D01*
X101471654Y-90722971D02*
X100757368Y-90865828D01*
X101971653Y-90365828D02*
X102328796Y-91365828D01*
X102685939Y-90365828D02*
X102328796Y-91365828D01*
X102328796Y-91365828D02*
X102185939Y-91722971D01*
X102185939Y-91722971D02*
X102114510Y-91794400D01*
X102114510Y-91794400D02*
X101971653Y-91865828D01*
X103900225Y-91294400D02*
X103757367Y-91365828D01*
X103757367Y-91365828D02*
X103471653Y-91365828D01*
X103471653Y-91365828D02*
X103328796Y-91294400D01*
X103328796Y-91294400D02*
X103257367Y-91222971D01*
X103257367Y-91222971D02*
X103185939Y-91080114D01*
X103185939Y-91080114D02*
X103185939Y-90651542D01*
X103185939Y-90651542D02*
X103257367Y-90508685D01*
X103257367Y-90508685D02*
X103328796Y-90437257D01*
X103328796Y-90437257D02*
X103471653Y-90365828D01*
X103471653Y-90365828D02*
X103757367Y-90365828D01*
X103757367Y-90365828D02*
X103900225Y-90437257D01*
X104543081Y-91365828D02*
X104543081Y-89865828D01*
X105185939Y-91365828D02*
X105185939Y-90580114D01*
X105185939Y-90580114D02*
X105114510Y-90437257D01*
X105114510Y-90437257D02*
X104971653Y-90365828D01*
X104971653Y-90365828D02*
X104757367Y-90365828D01*
X104757367Y-90365828D02*
X104614510Y-90437257D01*
X104614510Y-90437257D02*
X104543081Y-90508685D01*
X106543082Y-91365828D02*
X106543082Y-90580114D01*
X106543082Y-90580114D02*
X106471653Y-90437257D01*
X106471653Y-90437257D02*
X106328796Y-90365828D01*
X106328796Y-90365828D02*
X106043082Y-90365828D01*
X106043082Y-90365828D02*
X105900224Y-90437257D01*
X106543082Y-91294400D02*
X106400224Y-91365828D01*
X106400224Y-91365828D02*
X106043082Y-91365828D01*
X106043082Y-91365828D02*
X105900224Y-91294400D01*
X105900224Y-91294400D02*
X105828796Y-91151542D01*
X105828796Y-91151542D02*
X105828796Y-91008685D01*
X105828796Y-91008685D02*
X105900224Y-90865828D01*
X105900224Y-90865828D02*
X106043082Y-90794400D01*
X106043082Y-90794400D02*
X106400224Y-90794400D01*
X106400224Y-90794400D02*
X106543082Y-90722971D01*
X107257367Y-91365828D02*
X107257367Y-90365828D01*
X107257367Y-89865828D02*
X107185939Y-89937257D01*
X107185939Y-89937257D02*
X107257367Y-90008685D01*
X107257367Y-90008685D02*
X107328796Y-89937257D01*
X107328796Y-89937257D02*
X107257367Y-89865828D01*
X107257367Y-89865828D02*
X107257367Y-90008685D01*
X107971653Y-90365828D02*
X107971653Y-91365828D01*
X107971653Y-90508685D02*
X108043082Y-90437257D01*
X108043082Y-90437257D02*
X108185939Y-90365828D01*
X108185939Y-90365828D02*
X108400225Y-90365828D01*
X108400225Y-90365828D02*
X108543082Y-90437257D01*
X108543082Y-90437257D02*
X108614511Y-90580114D01*
X108614511Y-90580114D02*
X108614511Y-91365828D01*
X110471653Y-91365828D02*
X110471653Y-89865828D01*
X110471653Y-89865828D02*
X111043082Y-89865828D01*
X111043082Y-89865828D02*
X111185939Y-89937257D01*
X111185939Y-89937257D02*
X111257368Y-90008685D01*
X111257368Y-90008685D02*
X111328796Y-90151542D01*
X111328796Y-90151542D02*
X111328796Y-90365828D01*
X111328796Y-90365828D02*
X111257368Y-90508685D01*
X111257368Y-90508685D02*
X111185939Y-90580114D01*
X111185939Y-90580114D02*
X111043082Y-90651542D01*
X111043082Y-90651542D02*
X110471653Y-90651542D01*
X112828796Y-91222971D02*
X112757368Y-91294400D01*
X112757368Y-91294400D02*
X112543082Y-91365828D01*
X112543082Y-91365828D02*
X112400225Y-91365828D01*
X112400225Y-91365828D02*
X112185939Y-91294400D01*
X112185939Y-91294400D02*
X112043082Y-91151542D01*
X112043082Y-91151542D02*
X111971653Y-91008685D01*
X111971653Y-91008685D02*
X111900225Y-90722971D01*
X111900225Y-90722971D02*
X111900225Y-90508685D01*
X111900225Y-90508685D02*
X111971653Y-90222971D01*
X111971653Y-90222971D02*
X112043082Y-90080114D01*
X112043082Y-90080114D02*
X112185939Y-89937257D01*
X112185939Y-89937257D02*
X112400225Y-89865828D01*
X112400225Y-89865828D02*
X112543082Y-89865828D01*
X112543082Y-89865828D02*
X112757368Y-89937257D01*
X112757368Y-89937257D02*
X112828796Y-90008685D01*
X113971653Y-90580114D02*
X114185939Y-90651542D01*
X114185939Y-90651542D02*
X114257368Y-90722971D01*
X114257368Y-90722971D02*
X114328796Y-90865828D01*
X114328796Y-90865828D02*
X114328796Y-91080114D01*
X114328796Y-91080114D02*
X114257368Y-91222971D01*
X114257368Y-91222971D02*
X114185939Y-91294400D01*
X114185939Y-91294400D02*
X114043082Y-91365828D01*
X114043082Y-91365828D02*
X113471653Y-91365828D01*
X113471653Y-91365828D02*
X113471653Y-89865828D01*
X113471653Y-89865828D02*
X113971653Y-89865828D01*
X113971653Y-89865828D02*
X114114511Y-89937257D01*
X114114511Y-89937257D02*
X114185939Y-90008685D01*
X114185939Y-90008685D02*
X114257368Y-90151542D01*
X114257368Y-90151542D02*
X114257368Y-90294400D01*
X114257368Y-90294400D02*
X114185939Y-90437257D01*
X114185939Y-90437257D02*
X114114511Y-90508685D01*
X114114511Y-90508685D02*
X113971653Y-90580114D01*
X113971653Y-90580114D02*
X113471653Y-90580114D01*
X115900225Y-89865828D02*
X116400225Y-91365828D01*
X116400225Y-91365828D02*
X116900225Y-89865828D01*
X117257367Y-89865828D02*
X118185939Y-89865828D01*
X118185939Y-89865828D02*
X117685939Y-90437257D01*
X117685939Y-90437257D02*
X117900224Y-90437257D01*
X117900224Y-90437257D02*
X118043082Y-90508685D01*
X118043082Y-90508685D02*
X118114510Y-90580114D01*
X118114510Y-90580114D02*
X118185939Y-90722971D01*
X118185939Y-90722971D02*
X118185939Y-91080114D01*
X118185939Y-91080114D02*
X118114510Y-91222971D01*
X118114510Y-91222971D02*
X118043082Y-91294400D01*
X118043082Y-91294400D02*
X117900224Y-91365828D01*
X117900224Y-91365828D02*
X117471653Y-91365828D01*
X117471653Y-91365828D02*
X117328796Y-91294400D01*
X117328796Y-91294400D02*
X117257367Y-91222971D01*
X99400225Y-92280828D02*
X100257368Y-92280828D01*
X99828796Y-93780828D02*
X99828796Y-92280828D01*
X101328796Y-93709400D02*
X101185939Y-93780828D01*
X101185939Y-93780828D02*
X100900225Y-93780828D01*
X100900225Y-93780828D02*
X100757367Y-93709400D01*
X100757367Y-93709400D02*
X100685939Y-93566542D01*
X100685939Y-93566542D02*
X100685939Y-92995114D01*
X100685939Y-92995114D02*
X100757367Y-92852257D01*
X100757367Y-92852257D02*
X100900225Y-92780828D01*
X100900225Y-92780828D02*
X101185939Y-92780828D01*
X101185939Y-92780828D02*
X101328796Y-92852257D01*
X101328796Y-92852257D02*
X101400225Y-92995114D01*
X101400225Y-92995114D02*
X101400225Y-93137971D01*
X101400225Y-93137971D02*
X100685939Y-93280828D01*
X102685939Y-93780828D02*
X102685939Y-92995114D01*
X102685939Y-92995114D02*
X102614510Y-92852257D01*
X102614510Y-92852257D02*
X102471653Y-92780828D01*
X102471653Y-92780828D02*
X102185939Y-92780828D01*
X102185939Y-92780828D02*
X102043081Y-92852257D01*
X102685939Y-93709400D02*
X102543081Y-93780828D01*
X102543081Y-93780828D02*
X102185939Y-93780828D01*
X102185939Y-93780828D02*
X102043081Y-93709400D01*
X102043081Y-93709400D02*
X101971653Y-93566542D01*
X101971653Y-93566542D02*
X101971653Y-93423685D01*
X101971653Y-93423685D02*
X102043081Y-93280828D01*
X102043081Y-93280828D02*
X102185939Y-93209400D01*
X102185939Y-93209400D02*
X102543081Y-93209400D01*
X102543081Y-93209400D02*
X102685939Y-93137971D01*
X103400224Y-93780828D02*
X103400224Y-92780828D01*
X103400224Y-92923685D02*
X103471653Y-92852257D01*
X103471653Y-92852257D02*
X103614510Y-92780828D01*
X103614510Y-92780828D02*
X103828796Y-92780828D01*
X103828796Y-92780828D02*
X103971653Y-92852257D01*
X103971653Y-92852257D02*
X104043082Y-92995114D01*
X104043082Y-92995114D02*
X104043082Y-93780828D01*
X104043082Y-92995114D02*
X104114510Y-92852257D01*
X104114510Y-92852257D02*
X104257367Y-92780828D01*
X104257367Y-92780828D02*
X104471653Y-92780828D01*
X104471653Y-92780828D02*
X104614510Y-92852257D01*
X104614510Y-92852257D02*
X104685939Y-92995114D01*
X104685939Y-92995114D02*
X104685939Y-93780828D01*
X106185939Y-93780828D02*
X105328796Y-93780828D01*
X105757367Y-93780828D02*
X105757367Y-92280828D01*
X105757367Y-92280828D02*
X105614510Y-92495114D01*
X105614510Y-92495114D02*
X105471653Y-92637971D01*
X105471653Y-92637971D02*
X105328796Y-92709400D01*
X106685938Y-92280828D02*
X107685938Y-92280828D01*
X107685938Y-92280828D02*
X107043081Y-93780828D01*
D11*
X163738152Y-77802856D02*
X164404819Y-77802856D01*
X163357200Y-78040951D02*
X164071485Y-78279046D01*
X164071485Y-78279046D02*
X164071485Y-77659999D01*
X163404819Y-76802856D02*
X163404819Y-77279046D01*
X163404819Y-77279046D02*
X163881009Y-77326665D01*
X163881009Y-77326665D02*
X163833390Y-77279046D01*
X163833390Y-77279046D02*
X163785771Y-77183808D01*
X163785771Y-77183808D02*
X163785771Y-76945713D01*
X163785771Y-76945713D02*
X163833390Y-76850475D01*
X163833390Y-76850475D02*
X163881009Y-76802856D01*
X163881009Y-76802856D02*
X163976247Y-76755237D01*
X163976247Y-76755237D02*
X164214342Y-76755237D01*
X164214342Y-76755237D02*
X164309580Y-76802856D01*
X164309580Y-76802856D02*
X164357200Y-76850475D01*
X164357200Y-76850475D02*
X164404819Y-76945713D01*
X164404819Y-76945713D02*
X164404819Y-77183808D01*
X164404819Y-77183808D02*
X164357200Y-77279046D01*
X164357200Y-77279046D02*
X164309580Y-77326665D01*
X164309580Y-76326665D02*
X164357200Y-76279046D01*
X164357200Y-76279046D02*
X164404819Y-76326665D01*
X164404819Y-76326665D02*
X164357200Y-76374284D01*
X164357200Y-76374284D02*
X164309580Y-76326665D01*
X164309580Y-76326665D02*
X164404819Y-76326665D01*
X163404819Y-75945713D02*
X163404819Y-75279047D01*
X163404819Y-75279047D02*
X164404819Y-75707618D01*
X163500057Y-74945713D02*
X163452438Y-74898094D01*
X163452438Y-74898094D02*
X163404819Y-74802856D01*
X163404819Y-74802856D02*
X163404819Y-74564761D01*
X163404819Y-74564761D02*
X163452438Y-74469523D01*
X163452438Y-74469523D02*
X163500057Y-74421904D01*
X163500057Y-74421904D02*
X163595295Y-74374285D01*
X163595295Y-74374285D02*
X163690533Y-74374285D01*
X163690533Y-74374285D02*
X163833390Y-74421904D01*
X163833390Y-74421904D02*
X164404819Y-74993332D01*
X164404819Y-74993332D02*
X164404819Y-74374285D01*
X163404819Y-73755237D02*
X163404819Y-73659999D01*
X163404819Y-73659999D02*
X163452438Y-73564761D01*
X163452438Y-73564761D02*
X163500057Y-73517142D01*
X163500057Y-73517142D02*
X163595295Y-73469523D01*
X163595295Y-73469523D02*
X163785771Y-73421904D01*
X163785771Y-73421904D02*
X164023866Y-73421904D01*
X164023866Y-73421904D02*
X164214342Y-73469523D01*
X164214342Y-73469523D02*
X164309580Y-73517142D01*
X164309580Y-73517142D02*
X164357200Y-73564761D01*
X164357200Y-73564761D02*
X164404819Y-73659999D01*
X164404819Y-73659999D02*
X164404819Y-73755237D01*
X164404819Y-73755237D02*
X164357200Y-73850475D01*
X164357200Y-73850475D02*
X164309580Y-73898094D01*
X164309580Y-73898094D02*
X164214342Y-73945713D01*
X164214342Y-73945713D02*
X164023866Y-73993332D01*
X164023866Y-73993332D02*
X163785771Y-73993332D01*
X163785771Y-73993332D02*
X163595295Y-73945713D01*
X163595295Y-73945713D02*
X163500057Y-73898094D01*
X163500057Y-73898094D02*
X163452438Y-73850475D01*
X163452438Y-73850475D02*
X163404819Y-73755237D01*
X163404819Y-72802856D02*
X163404819Y-72707618D01*
X163404819Y-72707618D02*
X163452438Y-72612380D01*
X163452438Y-72612380D02*
X163500057Y-72564761D01*
X163500057Y-72564761D02*
X163595295Y-72517142D01*
X163595295Y-72517142D02*
X163785771Y-72469523D01*
X163785771Y-72469523D02*
X164023866Y-72469523D01*
X164023866Y-72469523D02*
X164214342Y-72517142D01*
X164214342Y-72517142D02*
X164309580Y-72564761D01*
X164309580Y-72564761D02*
X164357200Y-72612380D01*
X164357200Y-72612380D02*
X164404819Y-72707618D01*
X164404819Y-72707618D02*
X164404819Y-72802856D01*
X164404819Y-72802856D02*
X164357200Y-72898094D01*
X164357200Y-72898094D02*
X164309580Y-72945713D01*
X164309580Y-72945713D02*
X164214342Y-72993332D01*
X164214342Y-72993332D02*
X164023866Y-73040951D01*
X164023866Y-73040951D02*
X163785771Y-73040951D01*
X163785771Y-73040951D02*
X163595295Y-72993332D01*
X163595295Y-72993332D02*
X163500057Y-72945713D01*
X163500057Y-72945713D02*
X163452438Y-72898094D01*
X163452438Y-72898094D02*
X163404819Y-72802856D01*
X164404819Y-71279046D02*
X163738152Y-71279046D01*
X163833390Y-71279046D02*
X163785771Y-71231427D01*
X163785771Y-71231427D02*
X163738152Y-71136189D01*
X163738152Y-71136189D02*
X163738152Y-70993332D01*
X163738152Y-70993332D02*
X163785771Y-70898094D01*
X163785771Y-70898094D02*
X163881009Y-70850475D01*
X163881009Y-70850475D02*
X164404819Y-70850475D01*
X163881009Y-70850475D02*
X163785771Y-70802856D01*
X163785771Y-70802856D02*
X163738152Y-70707618D01*
X163738152Y-70707618D02*
X163738152Y-70564761D01*
X163738152Y-70564761D02*
X163785771Y-70469522D01*
X163785771Y-70469522D02*
X163881009Y-70421903D01*
X163881009Y-70421903D02*
X164404819Y-70421903D01*
X164404819Y-69945713D02*
X163738152Y-69945713D01*
X163833390Y-69945713D02*
X163785771Y-69898094D01*
X163785771Y-69898094D02*
X163738152Y-69802856D01*
X163738152Y-69802856D02*
X163738152Y-69659999D01*
X163738152Y-69659999D02*
X163785771Y-69564761D01*
X163785771Y-69564761D02*
X163881009Y-69517142D01*
X163881009Y-69517142D02*
X164404819Y-69517142D01*
X163881009Y-69517142D02*
X163785771Y-69469523D01*
X163785771Y-69469523D02*
X163738152Y-69374285D01*
X163738152Y-69374285D02*
X163738152Y-69231428D01*
X163738152Y-69231428D02*
X163785771Y-69136189D01*
X163785771Y-69136189D02*
X163881009Y-69088570D01*
X163881009Y-69088570D02*
X164404819Y-69088570D01*
X163060000Y-50800000D02*
X165686420Y-50800000D01*
X163060000Y-96520000D02*
X165686420Y-96520000D01*
X165100000Y-50800000D02*
X165100000Y-96520000D01*
X165100000Y-50800000D02*
X165100000Y-96520000D01*
X165100000Y-50800000D02*
X165686421Y-51926504D01*
X165100000Y-50800000D02*
X164513579Y-51926504D01*
X165100000Y-96520000D02*
X164513579Y-95393496D01*
X165100000Y-96520000D02*
X165686421Y-95393496D01*
X126667143Y-46564819D02*
X126476667Y-46564819D01*
X126476667Y-46564819D02*
X126381429Y-46612438D01*
X126381429Y-46612438D02*
X126333810Y-46660057D01*
X126333810Y-46660057D02*
X126238572Y-46802914D01*
X126238572Y-46802914D02*
X126190953Y-46993390D01*
X126190953Y-46993390D02*
X126190953Y-47374342D01*
X126190953Y-47374342D02*
X126238572Y-47469580D01*
X126238572Y-47469580D02*
X126286191Y-47517200D01*
X126286191Y-47517200D02*
X126381429Y-47564819D01*
X126381429Y-47564819D02*
X126571905Y-47564819D01*
X126571905Y-47564819D02*
X126667143Y-47517200D01*
X126667143Y-47517200D02*
X126714762Y-47469580D01*
X126714762Y-47469580D02*
X126762381Y-47374342D01*
X126762381Y-47374342D02*
X126762381Y-47136247D01*
X126762381Y-47136247D02*
X126714762Y-47041009D01*
X126714762Y-47041009D02*
X126667143Y-46993390D01*
X126667143Y-46993390D02*
X126571905Y-46945771D01*
X126571905Y-46945771D02*
X126381429Y-46945771D01*
X126381429Y-46945771D02*
X126286191Y-46993390D01*
X126286191Y-46993390D02*
X126238572Y-47041009D01*
X126238572Y-47041009D02*
X126190953Y-47136247D01*
X127095715Y-46564819D02*
X127714762Y-46564819D01*
X127714762Y-46564819D02*
X127381429Y-46945771D01*
X127381429Y-46945771D02*
X127524286Y-46945771D01*
X127524286Y-46945771D02*
X127619524Y-46993390D01*
X127619524Y-46993390D02*
X127667143Y-47041009D01*
X127667143Y-47041009D02*
X127714762Y-47136247D01*
X127714762Y-47136247D02*
X127714762Y-47374342D01*
X127714762Y-47374342D02*
X127667143Y-47469580D01*
X127667143Y-47469580D02*
X127619524Y-47517200D01*
X127619524Y-47517200D02*
X127524286Y-47564819D01*
X127524286Y-47564819D02*
X127238572Y-47564819D01*
X127238572Y-47564819D02*
X127143334Y-47517200D01*
X127143334Y-47517200D02*
X127095715Y-47469580D01*
X128143334Y-47469580D02*
X128190953Y-47517200D01*
X128190953Y-47517200D02*
X128143334Y-47564819D01*
X128143334Y-47564819D02*
X128095715Y-47517200D01*
X128095715Y-47517200D02*
X128143334Y-47469580D01*
X128143334Y-47469580D02*
X128143334Y-47564819D01*
X129095714Y-46564819D02*
X128619524Y-46564819D01*
X128619524Y-46564819D02*
X128571905Y-47041009D01*
X128571905Y-47041009D02*
X128619524Y-46993390D01*
X128619524Y-46993390D02*
X128714762Y-46945771D01*
X128714762Y-46945771D02*
X128952857Y-46945771D01*
X128952857Y-46945771D02*
X129048095Y-46993390D01*
X129048095Y-46993390D02*
X129095714Y-47041009D01*
X129095714Y-47041009D02*
X129143333Y-47136247D01*
X129143333Y-47136247D02*
X129143333Y-47374342D01*
X129143333Y-47374342D02*
X129095714Y-47469580D01*
X129095714Y-47469580D02*
X129048095Y-47517200D01*
X129048095Y-47517200D02*
X128952857Y-47564819D01*
X128952857Y-47564819D02*
X128714762Y-47564819D01*
X128714762Y-47564819D02*
X128619524Y-47517200D01*
X128619524Y-47517200D02*
X128571905Y-47469580D01*
X129762381Y-46564819D02*
X129857619Y-46564819D01*
X129857619Y-46564819D02*
X129952857Y-46612438D01*
X129952857Y-46612438D02*
X130000476Y-46660057D01*
X130000476Y-46660057D02*
X130048095Y-46755295D01*
X130048095Y-46755295D02*
X130095714Y-46945771D01*
X130095714Y-46945771D02*
X130095714Y-47183866D01*
X130095714Y-47183866D02*
X130048095Y-47374342D01*
X130048095Y-47374342D02*
X130000476Y-47469580D01*
X130000476Y-47469580D02*
X129952857Y-47517200D01*
X129952857Y-47517200D02*
X129857619Y-47564819D01*
X129857619Y-47564819D02*
X129762381Y-47564819D01*
X129762381Y-47564819D02*
X129667143Y-47517200D01*
X129667143Y-47517200D02*
X129619524Y-47469580D01*
X129619524Y-47469580D02*
X129571905Y-47374342D01*
X129571905Y-47374342D02*
X129524286Y-47183866D01*
X129524286Y-47183866D02*
X129524286Y-46945771D01*
X129524286Y-46945771D02*
X129571905Y-46755295D01*
X129571905Y-46755295D02*
X129619524Y-46660057D01*
X129619524Y-46660057D02*
X129667143Y-46612438D01*
X129667143Y-46612438D02*
X129762381Y-46564819D01*
X130714762Y-46564819D02*
X130810000Y-46564819D01*
X130810000Y-46564819D02*
X130905238Y-46612438D01*
X130905238Y-46612438D02*
X130952857Y-46660057D01*
X130952857Y-46660057D02*
X131000476Y-46755295D01*
X131000476Y-46755295D02*
X131048095Y-46945771D01*
X131048095Y-46945771D02*
X131048095Y-47183866D01*
X131048095Y-47183866D02*
X131000476Y-47374342D01*
X131000476Y-47374342D02*
X130952857Y-47469580D01*
X130952857Y-47469580D02*
X130905238Y-47517200D01*
X130905238Y-47517200D02*
X130810000Y-47564819D01*
X130810000Y-47564819D02*
X130714762Y-47564819D01*
X130714762Y-47564819D02*
X130619524Y-47517200D01*
X130619524Y-47517200D02*
X130571905Y-47469580D01*
X130571905Y-47469580D02*
X130524286Y-47374342D01*
X130524286Y-47374342D02*
X130476667Y-47183866D01*
X130476667Y-47183866D02*
X130476667Y-46945771D01*
X130476667Y-46945771D02*
X130524286Y-46755295D01*
X130524286Y-46755295D02*
X130571905Y-46660057D01*
X130571905Y-46660057D02*
X130619524Y-46612438D01*
X130619524Y-46612438D02*
X130714762Y-46564819D01*
X131667143Y-46564819D02*
X131762381Y-46564819D01*
X131762381Y-46564819D02*
X131857619Y-46612438D01*
X131857619Y-46612438D02*
X131905238Y-46660057D01*
X131905238Y-46660057D02*
X131952857Y-46755295D01*
X131952857Y-46755295D02*
X132000476Y-46945771D01*
X132000476Y-46945771D02*
X132000476Y-47183866D01*
X132000476Y-47183866D02*
X131952857Y-47374342D01*
X131952857Y-47374342D02*
X131905238Y-47469580D01*
X131905238Y-47469580D02*
X131857619Y-47517200D01*
X131857619Y-47517200D02*
X131762381Y-47564819D01*
X131762381Y-47564819D02*
X131667143Y-47564819D01*
X131667143Y-47564819D02*
X131571905Y-47517200D01*
X131571905Y-47517200D02*
X131524286Y-47469580D01*
X131524286Y-47469580D02*
X131476667Y-47374342D01*
X131476667Y-47374342D02*
X131429048Y-47183866D01*
X131429048Y-47183866D02*
X131429048Y-46945771D01*
X131429048Y-46945771D02*
X131476667Y-46755295D01*
X131476667Y-46755295D02*
X131524286Y-46660057D01*
X131524286Y-46660057D02*
X131571905Y-46612438D01*
X131571905Y-46612438D02*
X131667143Y-46564819D01*
X133190953Y-47564819D02*
X133190953Y-46898152D01*
X133190953Y-46993390D02*
X133238572Y-46945771D01*
X133238572Y-46945771D02*
X133333810Y-46898152D01*
X133333810Y-46898152D02*
X133476667Y-46898152D01*
X133476667Y-46898152D02*
X133571905Y-46945771D01*
X133571905Y-46945771D02*
X133619524Y-47041009D01*
X133619524Y-47041009D02*
X133619524Y-47564819D01*
X133619524Y-47041009D02*
X133667143Y-46945771D01*
X133667143Y-46945771D02*
X133762381Y-46898152D01*
X133762381Y-46898152D02*
X133905238Y-46898152D01*
X133905238Y-46898152D02*
X134000477Y-46945771D01*
X134000477Y-46945771D02*
X134048096Y-47041009D01*
X134048096Y-47041009D02*
X134048096Y-47564819D01*
X134524286Y-47564819D02*
X134524286Y-46898152D01*
X134524286Y-46993390D02*
X134571905Y-46945771D01*
X134571905Y-46945771D02*
X134667143Y-46898152D01*
X134667143Y-46898152D02*
X134810000Y-46898152D01*
X134810000Y-46898152D02*
X134905238Y-46945771D01*
X134905238Y-46945771D02*
X134952857Y-47041009D01*
X134952857Y-47041009D02*
X134952857Y-47564819D01*
X134952857Y-47041009D02*
X135000476Y-46945771D01*
X135000476Y-46945771D02*
X135095714Y-46898152D01*
X135095714Y-46898152D02*
X135238571Y-46898152D01*
X135238571Y-46898152D02*
X135333810Y-46945771D01*
X135333810Y-46945771D02*
X135381429Y-47041009D01*
X135381429Y-47041009D02*
X135381429Y-47564819D01*
X99060000Y-50300000D02*
X99060000Y-47673580D01*
X162560000Y-50300000D02*
X162560000Y-47673580D01*
X99060000Y-48260000D02*
X162560000Y-48260000D01*
X99060000Y-48260000D02*
X162560000Y-48260000D01*
X99060000Y-48260000D02*
X100186504Y-47673579D01*
X99060000Y-48260000D02*
X100186504Y-48846421D01*
X162560000Y-48260000D02*
X161433496Y-48846421D01*
X162560000Y-48260000D02*
X161433496Y-47673579D01*
X125330833Y-83319580D02*
X125283214Y-83367200D01*
X125283214Y-83367200D02*
X125140357Y-83414819D01*
X125140357Y-83414819D02*
X125045119Y-83414819D01*
X125045119Y-83414819D02*
X124902262Y-83367200D01*
X124902262Y-83367200D02*
X124807024Y-83271961D01*
X124807024Y-83271961D02*
X124759405Y-83176723D01*
X124759405Y-83176723D02*
X124711786Y-82986247D01*
X124711786Y-82986247D02*
X124711786Y-82843390D01*
X124711786Y-82843390D02*
X124759405Y-82652914D01*
X124759405Y-82652914D02*
X124807024Y-82557676D01*
X124807024Y-82557676D02*
X124902262Y-82462438D01*
X124902262Y-82462438D02*
X125045119Y-82414819D01*
X125045119Y-82414819D02*
X125140357Y-82414819D01*
X125140357Y-82414819D02*
X125283214Y-82462438D01*
X125283214Y-82462438D02*
X125330833Y-82510057D01*
X125664167Y-82414819D02*
X126283214Y-82414819D01*
X126283214Y-82414819D02*
X125949881Y-82795771D01*
X125949881Y-82795771D02*
X126092738Y-82795771D01*
X126092738Y-82795771D02*
X126187976Y-82843390D01*
X126187976Y-82843390D02*
X126235595Y-82891009D01*
X126235595Y-82891009D02*
X126283214Y-82986247D01*
X126283214Y-82986247D02*
X126283214Y-83224342D01*
X126283214Y-83224342D02*
X126235595Y-83319580D01*
X126235595Y-83319580D02*
X126187976Y-83367200D01*
X126187976Y-83367200D02*
X126092738Y-83414819D01*
X126092738Y-83414819D02*
X125807024Y-83414819D01*
X125807024Y-83414819D02*
X125711786Y-83367200D01*
X125711786Y-83367200D02*
X125664167Y-83319580D01*
X130918095Y-74084819D02*
X130918095Y-74894342D01*
X130918095Y-74894342D02*
X130965714Y-74989580D01*
X130965714Y-74989580D02*
X131013333Y-75037200D01*
X131013333Y-75037200D02*
X131108571Y-75084819D01*
X131108571Y-75084819D02*
X131299047Y-75084819D01*
X131299047Y-75084819D02*
X131394285Y-75037200D01*
X131394285Y-75037200D02*
X131441904Y-74989580D01*
X131441904Y-74989580D02*
X131489523Y-74894342D01*
X131489523Y-74894342D02*
X131489523Y-74084819D01*
X132489523Y-75084819D02*
X131918095Y-75084819D01*
X132203809Y-75084819D02*
X132203809Y-74084819D01*
X132203809Y-74084819D02*
X132108571Y-74227676D01*
X132108571Y-74227676D02*
X132013333Y-74322914D01*
X132013333Y-74322914D02*
X131918095Y-74370533D01*
X133415833Y-83319580D02*
X133368214Y-83367200D01*
X133368214Y-83367200D02*
X133225357Y-83414819D01*
X133225357Y-83414819D02*
X133130119Y-83414819D01*
X133130119Y-83414819D02*
X132987262Y-83367200D01*
X132987262Y-83367200D02*
X132892024Y-83271961D01*
X132892024Y-83271961D02*
X132844405Y-83176723D01*
X132844405Y-83176723D02*
X132796786Y-82986247D01*
X132796786Y-82986247D02*
X132796786Y-82843390D01*
X132796786Y-82843390D02*
X132844405Y-82652914D01*
X132844405Y-82652914D02*
X132892024Y-82557676D01*
X132892024Y-82557676D02*
X132987262Y-82462438D01*
X132987262Y-82462438D02*
X133130119Y-82414819D01*
X133130119Y-82414819D02*
X133225357Y-82414819D01*
X133225357Y-82414819D02*
X133368214Y-82462438D01*
X133368214Y-82462438D02*
X133415833Y-82510057D01*
X133796786Y-82510057D02*
X133844405Y-82462438D01*
X133844405Y-82462438D02*
X133939643Y-82414819D01*
X133939643Y-82414819D02*
X134177738Y-82414819D01*
X134177738Y-82414819D02*
X134272976Y-82462438D01*
X134272976Y-82462438D02*
X134320595Y-82510057D01*
X134320595Y-82510057D02*
X134368214Y-82605295D01*
X134368214Y-82605295D02*
X134368214Y-82700533D01*
X134368214Y-82700533D02*
X134320595Y-82843390D01*
X134320595Y-82843390D02*
X133749167Y-83414819D01*
X133749167Y-83414819D02*
X134368214Y-83414819D01*
X100711212Y-84685056D02*
X100234174Y-85018982D01*
X100711212Y-85257501D02*
X99709432Y-85257501D01*
X99709432Y-85257501D02*
X99709432Y-84875871D01*
X99709432Y-84875871D02*
X99757136Y-84780463D01*
X99757136Y-84780463D02*
X99804840Y-84732760D01*
X99804840Y-84732760D02*
X99900248Y-84685056D01*
X99900248Y-84685056D02*
X100043359Y-84685056D01*
X100043359Y-84685056D02*
X100138767Y-84732760D01*
X100138767Y-84732760D02*
X100186470Y-84780463D01*
X100186470Y-84780463D02*
X100234174Y-84875871D01*
X100234174Y-84875871D02*
X100234174Y-85257501D01*
X100186470Y-84255721D02*
X100186470Y-83921795D01*
X100711212Y-83778683D02*
X100711212Y-84255721D01*
X100711212Y-84255721D02*
X99709432Y-84255721D01*
X99709432Y-84255721D02*
X99709432Y-83778683D01*
X100186470Y-83015423D02*
X100186470Y-83349349D01*
X100711212Y-83349349D02*
X99709432Y-83349349D01*
X99709432Y-83349349D02*
X99709432Y-82872311D01*
X99709432Y-82347569D02*
X99947951Y-82347569D01*
X99852544Y-82586088D02*
X99947951Y-82347569D01*
X99947951Y-82347569D02*
X99852544Y-82109050D01*
X100138767Y-82490680D02*
X99947951Y-82347569D01*
X99947951Y-82347569D02*
X100138767Y-82204458D01*
X99709432Y-81584308D02*
X99947951Y-81584308D01*
X99852544Y-81822827D02*
X99947951Y-81584308D01*
X99947951Y-81584308D02*
X99852544Y-81345789D01*
X100138767Y-81727419D02*
X99947951Y-81584308D01*
X99947951Y-81584308D02*
X100138767Y-81441197D01*
X160494819Y-90503333D02*
X161209104Y-90503333D01*
X161209104Y-90503333D02*
X161351961Y-90550952D01*
X161351961Y-90550952D02*
X161447200Y-90646190D01*
X161447200Y-90646190D02*
X161494819Y-90789047D01*
X161494819Y-90789047D02*
X161494819Y-90884285D01*
X160494819Y-90122380D02*
X160494819Y-89503333D01*
X160494819Y-89503333D02*
X160875771Y-89836666D01*
X160875771Y-89836666D02*
X160875771Y-89693809D01*
X160875771Y-89693809D02*
X160923390Y-89598571D01*
X160923390Y-89598571D02*
X160971009Y-89550952D01*
X160971009Y-89550952D02*
X161066247Y-89503333D01*
X161066247Y-89503333D02*
X161304342Y-89503333D01*
X161304342Y-89503333D02*
X161399580Y-89550952D01*
X161399580Y-89550952D02*
X161447200Y-89598571D01*
X161447200Y-89598571D02*
X161494819Y-89693809D01*
X161494819Y-89693809D02*
X161494819Y-89979523D01*
X161494819Y-89979523D02*
X161447200Y-90074761D01*
X161447200Y-90074761D02*
X161399580Y-90122380D01*
X128963809Y-94943628D02*
X128963809Y-95419819D01*
X128630476Y-94419819D02*
X128963809Y-94943628D01*
X128963809Y-94943628D02*
X129297142Y-94419819D01*
X130154285Y-95419819D02*
X129582857Y-95419819D01*
X129868571Y-95419819D02*
X129868571Y-94419819D01*
X129868571Y-94419819D02*
X129773333Y-94562676D01*
X129773333Y-94562676D02*
X129678095Y-94657914D01*
X129678095Y-94657914D02*
X129582857Y-94705533D01*
X141679048Y-83803619D02*
X141679048Y-82803619D01*
X141679048Y-82803619D02*
X141917143Y-82803619D01*
X141917143Y-82803619D02*
X142060000Y-82851238D01*
X142060000Y-82851238D02*
X142155238Y-82946476D01*
X142155238Y-82946476D02*
X142202857Y-83041714D01*
X142202857Y-83041714D02*
X142250476Y-83232190D01*
X142250476Y-83232190D02*
X142250476Y-83375047D01*
X142250476Y-83375047D02*
X142202857Y-83565523D01*
X142202857Y-83565523D02*
X142155238Y-83660761D01*
X142155238Y-83660761D02*
X142060000Y-83756000D01*
X142060000Y-83756000D02*
X141917143Y-83803619D01*
X141917143Y-83803619D02*
X141679048Y-83803619D01*
X142583810Y-82803619D02*
X142821905Y-83803619D01*
X142821905Y-83803619D02*
X143012381Y-83089333D01*
X143012381Y-83089333D02*
X143202857Y-83803619D01*
X143202857Y-83803619D02*
X143440953Y-82803619D01*
X143821905Y-83803619D02*
X143821905Y-82803619D01*
X143821905Y-82803619D02*
X144155238Y-83517904D01*
X144155238Y-83517904D02*
X144488571Y-82803619D01*
X144488571Y-82803619D02*
X144488571Y-83803619D01*
X145488571Y-83803619D02*
X144917143Y-83803619D01*
X145202857Y-83803619D02*
X145202857Y-82803619D01*
X145202857Y-82803619D02*
X145107619Y-82946476D01*
X145107619Y-82946476D02*
X145012381Y-83041714D01*
X145012381Y-83041714D02*
X144917143Y-83089333D01*
X131746666Y-61994819D02*
X131746666Y-62709104D01*
X131746666Y-62709104D02*
X131699047Y-62851961D01*
X131699047Y-62851961D02*
X131603809Y-62947200D01*
X131603809Y-62947200D02*
X131460952Y-62994819D01*
X131460952Y-62994819D02*
X131365714Y-62994819D01*
X132746666Y-62994819D02*
X132175238Y-62994819D01*
X132460952Y-62994819D02*
X132460952Y-61994819D01*
X132460952Y-61994819D02*
X132365714Y-62137676D01*
X132365714Y-62137676D02*
X132270476Y-62232914D01*
X132270476Y-62232914D02*
X132175238Y-62280533D01*
X135955833Y-88399580D02*
X135908214Y-88447200D01*
X135908214Y-88447200D02*
X135765357Y-88494819D01*
X135765357Y-88494819D02*
X135670119Y-88494819D01*
X135670119Y-88494819D02*
X135527262Y-88447200D01*
X135527262Y-88447200D02*
X135432024Y-88351961D01*
X135432024Y-88351961D02*
X135384405Y-88256723D01*
X135384405Y-88256723D02*
X135336786Y-88066247D01*
X135336786Y-88066247D02*
X135336786Y-87923390D01*
X135336786Y-87923390D02*
X135384405Y-87732914D01*
X135384405Y-87732914D02*
X135432024Y-87637676D01*
X135432024Y-87637676D02*
X135527262Y-87542438D01*
X135527262Y-87542438D02*
X135670119Y-87494819D01*
X135670119Y-87494819D02*
X135765357Y-87494819D01*
X135765357Y-87494819D02*
X135908214Y-87542438D01*
X135908214Y-87542438D02*
X135955833Y-87590057D01*
X136908214Y-88494819D02*
X136336786Y-88494819D01*
X136622500Y-88494819D02*
X136622500Y-87494819D01*
X136622500Y-87494819D02*
X136527262Y-87637676D01*
X136527262Y-87637676D02*
X136432024Y-87732914D01*
X136432024Y-87732914D02*
X136336786Y-87780533D01*
X140533333Y-87704819D02*
X140200000Y-87228628D01*
X139961905Y-87704819D02*
X139961905Y-86704819D01*
X139961905Y-86704819D02*
X140342857Y-86704819D01*
X140342857Y-86704819D02*
X140438095Y-86752438D01*
X140438095Y-86752438D02*
X140485714Y-86800057D01*
X140485714Y-86800057D02*
X140533333Y-86895295D01*
X140533333Y-86895295D02*
X140533333Y-87038152D01*
X140533333Y-87038152D02*
X140485714Y-87133390D01*
X140485714Y-87133390D02*
X140438095Y-87181009D01*
X140438095Y-87181009D02*
X140342857Y-87228628D01*
X140342857Y-87228628D02*
X139961905Y-87228628D01*
X140866667Y-86704819D02*
X141485714Y-86704819D01*
X141485714Y-86704819D02*
X141152381Y-87085771D01*
X141152381Y-87085771D02*
X141295238Y-87085771D01*
X141295238Y-87085771D02*
X141390476Y-87133390D01*
X141390476Y-87133390D02*
X141438095Y-87181009D01*
X141438095Y-87181009D02*
X141485714Y-87276247D01*
X141485714Y-87276247D02*
X141485714Y-87514342D01*
X141485714Y-87514342D02*
X141438095Y-87609580D01*
X141438095Y-87609580D02*
X141390476Y-87657200D01*
X141390476Y-87657200D02*
X141295238Y-87704819D01*
X141295238Y-87704819D02*
X141009524Y-87704819D01*
X141009524Y-87704819D02*
X140914286Y-87657200D01*
X140914286Y-87657200D02*
X140866667Y-87609580D01*
X139851905Y-92434819D02*
X139851905Y-91434819D01*
X139851905Y-91434819D02*
X140090000Y-91434819D01*
X140090000Y-91434819D02*
X140232857Y-91482438D01*
X140232857Y-91482438D02*
X140328095Y-91577676D01*
X140328095Y-91577676D02*
X140375714Y-91672914D01*
X140375714Y-91672914D02*
X140423333Y-91863390D01*
X140423333Y-91863390D02*
X140423333Y-92006247D01*
X140423333Y-92006247D02*
X140375714Y-92196723D01*
X140375714Y-92196723D02*
X140328095Y-92291961D01*
X140328095Y-92291961D02*
X140232857Y-92387200D01*
X140232857Y-92387200D02*
X140090000Y-92434819D01*
X140090000Y-92434819D02*
X139851905Y-92434819D01*
X141375714Y-92434819D02*
X140804286Y-92434819D01*
X141090000Y-92434819D02*
X141090000Y-91434819D01*
X141090000Y-91434819D02*
X140994762Y-91577676D01*
X140994762Y-91577676D02*
X140899524Y-91672914D01*
X140899524Y-91672914D02*
X140804286Y-91720533D01*
X140570833Y-82499580D02*
X140523214Y-82547200D01*
X140523214Y-82547200D02*
X140380357Y-82594819D01*
X140380357Y-82594819D02*
X140285119Y-82594819D01*
X140285119Y-82594819D02*
X140142262Y-82547200D01*
X140142262Y-82547200D02*
X140047024Y-82451961D01*
X140047024Y-82451961D02*
X139999405Y-82356723D01*
X139999405Y-82356723D02*
X139951786Y-82166247D01*
X139951786Y-82166247D02*
X139951786Y-82023390D01*
X139951786Y-82023390D02*
X139999405Y-81832914D01*
X139999405Y-81832914D02*
X140047024Y-81737676D01*
X140047024Y-81737676D02*
X140142262Y-81642438D01*
X140142262Y-81642438D02*
X140285119Y-81594819D01*
X140285119Y-81594819D02*
X140380357Y-81594819D01*
X140380357Y-81594819D02*
X140523214Y-81642438D01*
X140523214Y-81642438D02*
X140570833Y-81690057D01*
X141427976Y-81928152D02*
X141427976Y-82594819D01*
X141189881Y-81547200D02*
X140951786Y-82261485D01*
X140951786Y-82261485D02*
X141570833Y-82261485D01*
D12*
G04 #@! TO.C,C3*
X125758752Y-82015000D02*
X125236248Y-82015000D01*
X125758752Y-80545000D02*
X125236248Y-80545000D01*
D11*
G04 #@! TO.C,U1*
X135305000Y-72205000D02*
X135305000Y-71980000D01*
X135305000Y-72205000D02*
X134980000Y-72205000D01*
X135305000Y-71980000D02*
X136730000Y-71980000D01*
X135305000Y-64955000D02*
X135305000Y-65280000D01*
X135305000Y-64955000D02*
X134980000Y-64955000D01*
X128055000Y-72205000D02*
X128380000Y-72205000D01*
X128055000Y-72205000D02*
X128055000Y-71880000D01*
X128055000Y-64955000D02*
X128380000Y-64955000D01*
X128055000Y-64955000D02*
X128055000Y-65280000D01*
D12*
G04 #@! TO.C,C2*
X133843752Y-82015000D02*
X133321248Y-82015000D01*
X133843752Y-80545000D02*
X133321248Y-80545000D01*
D13*
G04 #@! TO.C,REF\u002A\u002A*
X106260000Y-85530000D02*
X106260000Y-83530000D01*
X108260000Y-85030000D02*
X108260000Y-81175000D01*
X109360000Y-85030000D02*
X108260000Y-85030000D01*
X114160000Y-85030000D02*
X115260000Y-85030000D01*
X115260000Y-85030000D02*
X115260000Y-81175000D01*
X105260000Y-84530000D02*
X107260000Y-84530000D01*
X108260000Y-81175000D02*
X108078880Y-81110900D01*
X115260000Y-81175000D02*
X115441120Y-81110900D01*
X108078880Y-81110900D02*
X107735650Y-80987900D01*
X115441120Y-81110900D02*
X115784350Y-80987900D01*
X107735650Y-80987900D02*
X107473460Y-80880100D01*
X115784350Y-80987900D02*
X116046540Y-80880100D01*
X107473460Y-80880100D02*
X107221930Y-80772400D01*
X116046540Y-80880100D02*
X116298070Y-80772400D01*
X107221930Y-80772400D02*
X106822870Y-80588300D01*
X116298070Y-80772400D02*
X116697130Y-80588300D01*
X106822870Y-80588300D02*
X106478190Y-80409820D01*
X116697130Y-80588300D02*
X117041810Y-80409820D01*
X106478190Y-80409820D02*
X106166190Y-80230480D01*
X117041810Y-80409820D02*
X117353810Y-80230480D01*
X106166190Y-80230480D02*
X105868340Y-80053910D01*
X117353810Y-80230480D02*
X117651660Y-80053910D01*
X105868340Y-80053910D02*
X105323780Y-79698350D01*
X117651660Y-80053910D02*
X118196220Y-79698350D01*
X105323780Y-79698350D02*
X104951130Y-79427070D01*
X118196220Y-79698350D02*
X118568870Y-79427070D01*
X104951130Y-79427070D02*
X104482600Y-79045820D01*
X118568870Y-79427070D02*
X119037400Y-79045820D01*
X104482600Y-79045820D02*
X103939640Y-78552180D01*
X119037400Y-79045820D02*
X119580360Y-78552180D01*
X103939640Y-78552180D02*
X103699250Y-78304400D01*
X119580360Y-78552180D02*
X119820750Y-78304400D01*
X103699250Y-78304400D02*
X103486520Y-78080250D01*
X119820750Y-78304400D02*
X120033480Y-78080250D01*
X103486520Y-78080250D02*
X103312630Y-77884190D01*
X120033480Y-78080250D02*
X120207370Y-77884190D01*
X103312630Y-77884190D02*
X103174240Y-77723220D01*
X120207370Y-77884190D02*
X120345760Y-77723220D01*
X103174240Y-77723220D02*
X103013930Y-77530320D01*
X120345760Y-77723220D02*
X120506070Y-77530320D01*
X103013930Y-77530320D02*
X102840950Y-77309480D01*
X120506070Y-77530320D02*
X120679050Y-77309480D01*
X102840950Y-77309480D02*
X102729690Y-77157710D01*
X120679050Y-77309480D02*
X120790310Y-77157710D01*
X102729690Y-77157710D02*
X102549120Y-76904620D01*
X120790310Y-77157710D02*
X120970880Y-76904620D01*
X102549120Y-76904620D02*
X102327150Y-76578940D01*
X120970880Y-76904620D02*
X121192850Y-76578940D01*
X102327150Y-76578940D02*
X102141410Y-76270820D01*
X121192850Y-76578940D02*
X121378590Y-76270820D01*
X102141410Y-76270820D02*
X102002190Y-76026870D01*
X121378590Y-76270820D02*
X121517810Y-76026870D01*
X102002190Y-76026870D02*
X101820510Y-75695820D01*
X121517810Y-76026870D02*
X121699490Y-75695820D01*
X101820510Y-75695820D02*
X101760000Y-75542540D01*
X121699490Y-75695820D02*
X121760000Y-75542540D01*
X101760000Y-75530000D02*
X101760000Y-65530000D01*
X121760000Y-75530000D02*
X121760000Y-65530000D01*
X101820510Y-65364180D02*
X101760000Y-65517460D01*
X121699490Y-65364180D02*
X121760000Y-65517460D01*
X102002190Y-65033130D02*
X101820510Y-65364180D01*
X121517810Y-65033130D02*
X121699490Y-65364180D01*
X102141410Y-64789180D02*
X102002190Y-65033130D01*
X121378590Y-64789180D02*
X121517810Y-65033130D01*
X102327150Y-64481060D02*
X102141410Y-64789180D01*
X121192850Y-64481060D02*
X121378590Y-64789180D01*
X102549120Y-64155380D02*
X102327150Y-64481060D01*
X120970880Y-64155380D02*
X121192850Y-64481060D01*
X102729690Y-63902290D02*
X102549120Y-64155380D01*
X120790310Y-63902290D02*
X120970880Y-64155380D01*
X102840950Y-63750520D02*
X102729690Y-63902290D01*
X120679050Y-63750520D02*
X120790310Y-63902290D01*
X103013930Y-63529680D02*
X102840950Y-63750520D01*
X120506070Y-63529680D02*
X120679050Y-63750520D01*
X103174240Y-63336780D02*
X103013930Y-63529680D01*
X120345760Y-63336780D02*
X120506070Y-63529680D01*
X103312630Y-63175810D02*
X103174240Y-63336780D01*
X120207370Y-63175810D02*
X120345760Y-63336780D01*
X103486520Y-62979750D02*
X103312630Y-63175810D01*
X120033480Y-62979750D02*
X120207370Y-63175810D01*
X103699250Y-62755600D02*
X103486520Y-62979750D01*
X119820750Y-62755600D02*
X120033480Y-62979750D01*
X103939640Y-62507820D02*
X103699250Y-62755600D01*
X119580360Y-62507820D02*
X119820750Y-62755600D01*
X104482600Y-62014180D02*
X103939640Y-62507820D01*
X119037400Y-62014180D02*
X119580360Y-62507820D01*
X104951130Y-61632930D02*
X104482600Y-62014180D01*
X118568870Y-61632930D02*
X119037400Y-62014180D01*
X105323780Y-61361650D02*
X104951130Y-61632930D01*
X118196220Y-61361650D02*
X118568870Y-61632930D01*
X105868340Y-61006090D02*
X105323780Y-61361650D01*
X117651660Y-61006090D02*
X118196220Y-61361650D01*
X106166190Y-60829520D02*
X105868340Y-61006090D01*
X117353810Y-60829520D02*
X117651660Y-61006090D01*
X106478190Y-60650180D02*
X106166190Y-60829520D01*
X117041810Y-60650180D02*
X117353810Y-60829520D01*
X106822870Y-60471700D02*
X106478190Y-60650180D01*
X116697130Y-60471700D02*
X117041810Y-60650180D01*
X107221930Y-60287600D02*
X106822870Y-60471700D01*
X116298070Y-60287600D02*
X116697130Y-60471700D01*
X107473460Y-60179900D02*
X107221930Y-60287600D01*
X116046540Y-60179900D02*
X116298070Y-60287600D01*
X107735650Y-60072100D02*
X107473460Y-60179900D01*
X115784350Y-60072100D02*
X116046540Y-60179900D01*
X108078880Y-59949100D02*
X107735650Y-60072100D01*
X115441120Y-59949100D02*
X115784350Y-60072100D01*
X108260000Y-59885000D02*
X108078880Y-59949100D01*
X115260000Y-59885000D02*
X115441120Y-59949100D01*
X106260000Y-57530000D02*
X106260000Y-56030000D01*
X108260000Y-56030000D02*
X108260000Y-59885000D01*
X109360000Y-56030000D02*
X108260000Y-56030000D01*
X114160000Y-56030000D02*
X115260000Y-56030000D01*
X115260000Y-56030000D02*
X115260000Y-59885000D01*
D12*
G04 #@! TO.C,J3*
X155440000Y-84220000D02*
X154440000Y-84220000D01*
X154440000Y-84220000D02*
X154940000Y-85220000D01*
X154940000Y-85220000D02*
X155440000Y-84220000D01*
X160150000Y-85610000D02*
X160150000Y-94730000D01*
X154450000Y-85610000D02*
X154450000Y-86920000D01*
X144650000Y-85610000D02*
X160150000Y-85610000D01*
X158850000Y-86920000D02*
X158850000Y-93420000D01*
X154450000Y-86920000D02*
X158850000Y-86920000D01*
X150350000Y-86920000D02*
X150350000Y-85610000D01*
X150350000Y-86920000D02*
X150350000Y-86920000D01*
X145950000Y-86920000D02*
X150350000Y-86920000D01*
X158850000Y-93420000D02*
X145950000Y-93420000D01*
X145950000Y-93420000D02*
X145950000Y-86920000D01*
X160150000Y-94730000D02*
X144650000Y-94730000D01*
X144650000Y-94730000D02*
X144650000Y-85610000D01*
G04 #@! TO.C,Y1*
X132565000Y-93965000D02*
X126315000Y-93965000D01*
X132565000Y-88915000D02*
X126315000Y-88915000D01*
X132565000Y-93965000D02*
G75*
G03*
X132565000Y-88915000I0J2525000D01*
G01*
X126315000Y-88915000D02*
G75*
G03*
X126315000Y-93965000I0J-2525000D01*
G01*
G04 #@! TO.C,DWM1*
X141890000Y-57628800D02*
X141890000Y-67628800D01*
X141890000Y-57628800D02*
X155390000Y-57628800D01*
X141890000Y-81128800D02*
X141890000Y-79378800D01*
X142640000Y-81128800D02*
X141890000Y-81128800D01*
X154640000Y-81128800D02*
X155390000Y-81128800D01*
X155390000Y-57628800D02*
X155390000Y-67628800D01*
X155390000Y-81128800D02*
X155390000Y-79378800D01*
G04 #@! TO.C,J1*
X138830000Y-60420000D02*
X138830000Y-56420000D01*
X138540000Y-61450000D02*
X138540000Y-55430000D01*
X138540000Y-55430000D02*
X125620000Y-55430000D01*
X137960000Y-61450000D02*
X137960000Y-60850000D01*
X137960000Y-60850000D02*
X136360000Y-60850000D01*
X137160000Y-56430000D02*
X136910000Y-56960000D01*
X137160000Y-56430000D02*
X127000000Y-56430000D01*
X137160000Y-55430000D02*
X137160000Y-56430000D01*
X136910000Y-56960000D02*
X127250000Y-56960000D01*
X136910000Y-55430000D02*
X136910000Y-56430000D01*
X136360000Y-60850000D02*
X136360000Y-61450000D01*
X135420000Y-61450000D02*
X135420000Y-60850000D01*
X135420000Y-60850000D02*
X133820000Y-60850000D01*
X133820000Y-60850000D02*
X133820000Y-61450000D01*
X132880000Y-61450000D02*
X132880000Y-60850000D01*
X132880000Y-60850000D02*
X131280000Y-60850000D01*
X131280000Y-60850000D02*
X131280000Y-61450000D01*
X130340000Y-61450000D02*
X130340000Y-60850000D01*
X130340000Y-60850000D02*
X128740000Y-60850000D01*
X128740000Y-60850000D02*
X128740000Y-61450000D01*
X127800000Y-61450000D02*
X127800000Y-60850000D01*
X127800000Y-60850000D02*
X126200000Y-60850000D01*
X127250000Y-56960000D02*
X127000000Y-56430000D01*
X127250000Y-55430000D02*
X127250000Y-56430000D01*
X127000000Y-56430000D02*
X127000000Y-55430000D01*
X126200000Y-60850000D02*
X126200000Y-61450000D01*
X125620000Y-61450000D02*
X138540000Y-61450000D01*
X125620000Y-55430000D02*
X125620000Y-61450000D01*
G04 #@! TO.C,C1*
X136383752Y-87095000D02*
X135861248Y-87095000D01*
X136383752Y-85625000D02*
X135861248Y-85625000D01*
G04 #@! TO.C,R3*
X140472936Y-88165000D02*
X140927064Y-88165000D01*
X140472936Y-89635000D02*
X140927064Y-89635000D01*
G04 #@! TO.C,D1*
X138230000Y-92980000D02*
X138230000Y-94980000D01*
X138230000Y-92980000D02*
X142240000Y-92980000D01*
X138230000Y-94980000D02*
X142240000Y-94980000D01*
G04 #@! TO.C,C4*
X140476248Y-83085000D02*
X140998752Y-83085000D01*
X140476248Y-84555000D02*
X140998752Y-84555000D01*
G04 #@! TD*
M02*
