M48
INCH,TZ
T1C0.0157
T2C0.0315
T3C0.0394
T4C0.0469
%
G90
G05
T1
X48286Y-26213
X49000Y-27000
X49000Y-34000
X50000Y-21000
X50000Y-24000
X51000Y-30000
X51000Y-30000
X52000Y-22000
X52207Y-34000
X53000Y-32000
X54000Y-22000
X54000Y-29000
X54000Y-33000
X54000Y-25596
X54286Y-26000
X55000Y-27000
X55000Y-30000
X55000Y-32000
X56000Y-21000
X58000Y-36000
X59000Y-30000
X60000Y-29000
X60000Y-33000
X61000Y-29205
X61000Y-29756
X61000Y-29756
X61000Y-30307
X61000Y-30858
X62000Y-28000
X62714Y-33286
X63000Y-30000
X63485Y-28714
X63664Y-32336
T2
X50000Y-36000
X51921Y-36000
T3
X59000Y-35000
X59000Y-36000
X60000Y-35000
X60000Y-36000
X61000Y-35000
X61000Y-36000
T4
X50000Y-23000
X51000Y-23000
X52000Y-23000
X53000Y-23000
X54000Y-23000
M30
