G04 #@! TF.GenerationSoftware,KiCad,Pcbnew,7.0.10*
G04 #@! TF.CreationDate,2024-04-04T22:50:49-05:00*
G04 #@! TF.ProjectId,keychain,6b657963-6861-4696-9e2e-6b696361645f,rev?*
G04 #@! TF.SameCoordinates,Original*
G04 #@! TF.FileFunction,Copper,L2,Bot*
G04 #@! TF.FilePolarity,Positive*
%FSLAX46Y46*%
G04 Gerber Fmt 4.6, Leading zero omitted, Abs format (unit mm)*
G04 Created by KiCad (PCBNEW 7.0.10) date 2024-04-04 22:50:49*
%MOMM*%
%LPD*%
G01*
G04 APERTURE LIST*
G04 Aperture macros list*
%AMRoundRect*
0 Rectangle with rounded corners*
0 $1 Rounding radius*
0 $2 $3 $4 $5 $6 $7 $8 $9 X,Y pos of 4 corners*
0 Add a 4 corners polygon primitive as box body*
4,1,4,$2,$3,$4,$5,$6,$7,$8,$9,$2,$3,0*
0 Add four circle primitives for the rounded corners*
1,1,$1+$1,$2,$3*
1,1,$1+$1,$4,$5*
1,1,$1+$1,$6,$7*
1,1,$1+$1,$8,$9*
0 Add four rect primitives between the rounded corners*
20,1,$1+$1,$2,$3,$4,$5,0*
20,1,$1+$1,$4,$5,$6,$7,0*
20,1,$1+$1,$6,$7,$8,$9,0*
20,1,$1+$1,$8,$9,$2,$3,0*%
G04 Aperture macros list end*
G04 #@! TA.AperFunction,ComponentPad*
%ADD10RoundRect,0.250000X-0.600000X0.600000X-0.600000X-0.600000X0.600000X-0.600000X0.600000X0.600000X0*%
G04 #@! TD*
G04 #@! TA.AperFunction,ComponentPad*
%ADD11C,1.700000*%
G04 #@! TD*
G04 #@! TA.AperFunction,ComponentPad*
%ADD12C,1.500000*%
G04 #@! TD*
G04 #@! TA.AperFunction,ComponentPad*
%ADD13RoundRect,0.250000X0.620000X0.845000X-0.620000X0.845000X-0.620000X-0.845000X0.620000X-0.845000X0*%
G04 #@! TD*
G04 #@! TA.AperFunction,ComponentPad*
%ADD14O,1.740000X2.190000*%
G04 #@! TD*
G04 #@! TA.AperFunction,ViaPad*
%ADD15C,0.800000*%
G04 #@! TD*
G04 #@! TA.AperFunction,Conductor*
%ADD16C,0.254000*%
G04 #@! TD*
G04 #@! TA.AperFunction,Conductor*
%ADD17C,0.508000*%
G04 #@! TD*
G04 APERTURE END LIST*
D10*
G04 #@! TO.P,J3,1,MISO*
G04 #@! TO.N,/MISO*
X154940000Y-88900000D03*
D11*
G04 #@! TO.P,J3,2,VCC*
G04 #@! TO.N,Net-(D1-A)*
X154940000Y-91440000D03*
G04 #@! TO.P,J3,3,SCK*
G04 #@! TO.N,/SCK*
X152400000Y-88900000D03*
G04 #@! TO.P,J3,4,MOSI*
G04 #@! TO.N,/MOSI*
X152400000Y-91440000D03*
G04 #@! TO.P,J3,5,~{RST}*
G04 #@! TO.N,/RESET*
X149860000Y-88900000D03*
G04 #@! TO.P,J3,6,GND*
G04 #@! TO.N,GND*
X149860000Y-91440000D03*
G04 #@! TD*
D12*
G04 #@! TO.P,Y1,1,1*
G04 #@! TO.N,Net-(U1-XTAL2{slash}PB7)*
X131880000Y-91440000D03*
G04 #@! TO.P,Y1,2,2*
G04 #@! TO.N,Net-(U1-XTAL1{slash}PB6)*
X127000000Y-91440000D03*
G04 #@! TD*
D13*
G04 #@! TO.P,J1,1,Pin_1*
G04 #@! TO.N,/MOSI*
X137160000Y-58420000D03*
D14*
G04 #@! TO.P,J1,2,Pin_2*
G04 #@! TO.N,/MISO*
X134620000Y-58420000D03*
G04 #@! TO.P,J1,3,Pin_3*
G04 #@! TO.N,/SCK*
X132080000Y-58420000D03*
G04 #@! TO.P,J1,4,Pin_4*
G04 #@! TO.N,/RESET*
X129540000Y-58420000D03*
G04 #@! TO.P,J1,5,Pin_5*
G04 #@! TO.N,/Csn*
X127000000Y-58420000D03*
G04 #@! TD*
D15*
G04 #@! TO.N,Net-(U1-XTAL2{slash}PB7)*
X137161218Y-65013084D03*
X134620000Y-81280000D03*
G04 #@! TO.N,GND*
X124460000Y-68580000D03*
X139700000Y-68580000D03*
X147320000Y-91440000D03*
G04 #@! TO.N,+3.3V*
X139700000Y-76200000D03*
X124460000Y-86360000D03*
X122647000Y-66580000D03*
X132607000Y-86360000D03*
X139700000Y-81280000D03*
X137160000Y-83820000D03*
G04 #@! TO.N,Net-(U1-XTAL1{slash}PB6)*
X137887000Y-66040000D03*
X129540000Y-76200000D03*
X129540000Y-76200000D03*
G04 #@! TO.N,/Csn*
X154940000Y-78378800D03*
X127000000Y-53340000D03*
G04 #@! TO.N,/MOSI*
X142240000Y-53340000D03*
X157480000Y-71120000D03*
X149860000Y-76200000D03*
X154940000Y-76978800D03*
G04 #@! TO.N,/MISO*
X161252000Y-72933000D03*
X154940000Y-75580000D03*
X159293000Y-84547000D03*
X137160000Y-55880000D03*
X161706000Y-82134000D03*
X160020000Y-76200000D03*
X154940000Y-75580000D03*
G04 #@! TO.N,/SCK*
X132080000Y-55880000D03*
X154940000Y-74180000D03*
X152400000Y-83820000D03*
X152400000Y-73660000D03*
G04 #@! TO.N,/RESET*
X137160000Y-73660000D03*
X127000000Y-60960000D03*
G04 #@! TD*
D16*
G04 #@! TO.N,Net-(U1-XTAL2{slash}PB7)*
X137888218Y-65013084D02*
X138614000Y-65738866D01*
X137161218Y-65013084D02*
X137888218Y-65013084D01*
X138614000Y-65738866D02*
X138614000Y-77286000D01*
X138614000Y-77286000D02*
X134620000Y-81280000D01*
D17*
G04 #@! TO.N,+3.3V*
X139700000Y-81280000D02*
X139700000Y-76200000D01*
X137160000Y-83820000D02*
X139700000Y-81280000D01*
X132607000Y-86360000D02*
X124460000Y-86360000D01*
X124460000Y-69787739D02*
X123606000Y-68933739D01*
X124460000Y-86360000D02*
X124460000Y-69787739D01*
X123606000Y-68933739D02*
X123606000Y-68226261D01*
X123606000Y-68226261D02*
X123949631Y-67882631D01*
X123949631Y-67882631D02*
X122647000Y-66580000D01*
D16*
G04 #@! TO.N,Net-(U1-XTAL1{slash}PB6)*
X137887000Y-66040000D02*
X137887000Y-73961134D01*
X134921134Y-76927000D02*
X130267000Y-76927000D01*
X137887000Y-73961134D02*
X134921134Y-76927000D01*
X130267000Y-76927000D02*
X129540000Y-76200000D01*
G04 #@! TO.N,/Csn*
X162433000Y-76200000D02*
X160254200Y-78378800D01*
X129413000Y-50927000D02*
X162433000Y-50927000D01*
X160254200Y-78378800D02*
X154940000Y-78378800D01*
X127000000Y-53340000D02*
X129413000Y-50927000D01*
X162433000Y-50927000D02*
X162433000Y-76200000D01*
X154940000Y-78378800D02*
X155301200Y-78740000D01*
G04 #@! TO.N,/MOSI*
X157657000Y-70943000D02*
X157480000Y-71120000D01*
X153911866Y-71120000D02*
X149860000Y-75171866D01*
X157480000Y-71120000D02*
X153911866Y-71120000D01*
X157657000Y-53517000D02*
X157657000Y-70943000D01*
X157480000Y-53340000D02*
X157657000Y-53517000D01*
X142240000Y-53340000D02*
X157480000Y-53340000D01*
X149860000Y-75171866D02*
X149860000Y-76200000D01*
G04 #@! TO.N,/MISO*
X160020000Y-76200000D02*
X159400000Y-75580000D01*
X159400000Y-75580000D02*
X154940000Y-75580000D01*
X137160000Y-55880000D02*
X141205000Y-51835000D01*
X159831948Y-51835000D02*
X159831948Y-71512948D01*
X142240000Y-51835000D02*
X159831948Y-51835000D01*
X161706000Y-82134000D02*
X159293000Y-84547000D01*
X141205000Y-51835000D02*
X142240000Y-51835000D01*
X159831948Y-71512948D02*
X161252000Y-72933000D01*
G04 #@! TO.N,/SCK*
X161979000Y-53340000D02*
X161979000Y-73660000D01*
X160020000Y-51381000D02*
X161979000Y-53340000D01*
X161979000Y-73660000D02*
X155460000Y-73660000D01*
X155460000Y-73660000D02*
X154940000Y-74180000D01*
X132080000Y-55880000D02*
X132080000Y-51381000D01*
X152400000Y-83820000D02*
X152400000Y-73660000D01*
X154940000Y-73660000D02*
X152400000Y-73660000D01*
X132080000Y-51381000D02*
X160020000Y-51381000D01*
G04 #@! TO.N,/RESET*
X137160000Y-66040000D02*
X137160000Y-73660000D01*
X132080000Y-60960000D02*
X127000000Y-60960000D01*
X132080000Y-60960000D02*
X137160000Y-66040000D01*
G04 #@! TD*
M02*
