G04 #@! TF.GenerationSoftware,KiCad,Pcbnew,7.0.10*
G04 #@! TF.CreationDate,2024-04-04T22:50:49-05:00*
G04 #@! TF.ProjectId,keychain,6b657963-6861-4696-9e2e-6b696361645f,rev?*
G04 #@! TF.SameCoordinates,Original*
G04 #@! TF.FileFunction,Copper,L1,Top*
G04 #@! TF.FilePolarity,Positive*
%FSLAX46Y46*%
G04 Gerber Fmt 4.6, Leading zero omitted, Abs format (unit mm)*
G04 Created by KiCad (PCBNEW 7.0.10) date 2024-04-04 22:50:49*
%MOMM*%
%LPD*%
G01*
G04 APERTURE LIST*
G04 Aperture macros list*
%AMRoundRect*
0 Rectangle with rounded corners*
0 $1 Rounding radius*
0 $2 $3 $4 $5 $6 $7 $8 $9 X,Y pos of 4 corners*
0 Add a 4 corners polygon primitive as box body*
4,1,4,$2,$3,$4,$5,$6,$7,$8,$9,$2,$3,0*
0 Add four circle primitives for the rounded corners*
1,1,$1+$1,$2,$3*
1,1,$1+$1,$4,$5*
1,1,$1+$1,$6,$7*
1,1,$1+$1,$8,$9*
0 Add four rect primitives between the rounded corners*
20,1,$1+$1,$2,$3,$4,$5,0*
20,1,$1+$1,$4,$5,$6,$7,0*
20,1,$1+$1,$6,$7,$8,$9,0*
20,1,$1+$1,$8,$9,$2,$3,0*%
G04 Aperture macros list end*
G04 #@! TA.AperFunction,EtchedComponent*
%ADD10C,0.000009*%
G04 #@! TD*
G04 #@! TA.AperFunction,SMDPad,CuDef*
%ADD11RoundRect,0.250000X0.337500X0.475000X-0.337500X0.475000X-0.337500X-0.475000X0.337500X-0.475000X0*%
G04 #@! TD*
G04 #@! TA.AperFunction,SMDPad,CuDef*
%ADD12R,1.600000X0.550000*%
G04 #@! TD*
G04 #@! TA.AperFunction,SMDPad,CuDef*
%ADD13R,0.550000X1.600000*%
G04 #@! TD*
G04 #@! TA.AperFunction,SMDPad,CuDef*
%ADD14R,4.200000X3.200000*%
G04 #@! TD*
G04 #@! TA.AperFunction,ComponentPad*
%ADD15RoundRect,0.250000X-0.600000X0.600000X-0.600000X-0.600000X0.600000X-0.600000X0.600000X0.600000X0*%
G04 #@! TD*
G04 #@! TA.AperFunction,ComponentPad*
%ADD16C,1.700000*%
G04 #@! TD*
G04 #@! TA.AperFunction,ComponentPad*
%ADD17C,1.500000*%
G04 #@! TD*
G04 #@! TA.AperFunction,SMDPad,CuDef*
%ADD18R,2.450000X1.000000*%
G04 #@! TD*
G04 #@! TA.AperFunction,SMDPad,CuDef*
%ADD19R,1.000000X2.450000*%
G04 #@! TD*
G04 #@! TA.AperFunction,ComponentPad*
%ADD20RoundRect,0.250000X0.620000X0.845000X-0.620000X0.845000X-0.620000X-0.845000X0.620000X-0.845000X0*%
G04 #@! TD*
G04 #@! TA.AperFunction,ComponentPad*
%ADD21O,1.740000X2.190000*%
G04 #@! TD*
G04 #@! TA.AperFunction,SMDPad,CuDef*
%ADD22RoundRect,0.250000X-0.350000X-0.450000X0.350000X-0.450000X0.350000X0.450000X-0.350000X0.450000X0*%
G04 #@! TD*
G04 #@! TA.AperFunction,SMDPad,CuDef*
%ADD23RoundRect,0.225000X-0.225000X-0.375000X0.225000X-0.375000X0.225000X0.375000X-0.225000X0.375000X0*%
G04 #@! TD*
G04 #@! TA.AperFunction,SMDPad,CuDef*
%ADD24RoundRect,0.250000X-0.337500X-0.475000X0.337500X-0.475000X0.337500X0.475000X-0.337500X0.475000X0*%
G04 #@! TD*
G04 #@! TA.AperFunction,ViaPad*
%ADD25C,0.800000*%
G04 #@! TD*
G04 #@! TA.AperFunction,Conductor*
%ADD26C,0.254000*%
G04 #@! TD*
G04 #@! TA.AperFunction,Conductor*
%ADD27C,0.508000*%
G04 #@! TD*
G04 APERTURE END LIST*
G04 #@! TO.C,REF\u002A\u002A*
D10*
X115260000Y-76030000D02*
X108260000Y-76030000D01*
X108260000Y-65030000D01*
X115260000Y-65030000D01*
X115260000Y-76030000D01*
G04 #@! TA.AperFunction,EtchedComponent*
G36*
X115260000Y-76030000D02*
G01*
X108260000Y-76030000D01*
X108260000Y-65030000D01*
X115260000Y-65030000D01*
X115260000Y-76030000D01*
G37*
G04 #@! TD.AperFunction*
G04 #@! TD*
D11*
G04 #@! TO.P,C3,1*
G04 #@! TO.N,Net-(U1-XTAL1{slash}PB6)*
X126535000Y-81280000D03*
G04 #@! TO.P,C3,2*
G04 #@! TO.N,GND*
X124460000Y-81280000D03*
G04 #@! TD*
D12*
G04 #@! TO.P,U1,1,PD3*
G04 #@! TO.N,unconnected-(U1-PD3-Pad1)*
X135930000Y-71380000D03*
G04 #@! TO.P,U1,2,PD4*
G04 #@! TO.N,unconnected-(U1-PD4-Pad2)*
X135930000Y-70580000D03*
G04 #@! TO.P,U1,3,GND*
G04 #@! TO.N,GND*
X135930000Y-69780000D03*
G04 #@! TO.P,U1,4,VCC*
G04 #@! TO.N,+3.3V*
X135930000Y-68980000D03*
G04 #@! TO.P,U1,5,GND*
G04 #@! TO.N,GND*
X135930000Y-68180000D03*
G04 #@! TO.P,U1,6,VCC*
G04 #@! TO.N,+3.3V*
X135930000Y-67380000D03*
G04 #@! TO.P,U1,7,XTAL1/PB6*
G04 #@! TO.N,Net-(U1-XTAL1{slash}PB6)*
X135930000Y-66580000D03*
G04 #@! TO.P,U1,8,XTAL2/PB7*
G04 #@! TO.N,Net-(U1-XTAL2{slash}PB7)*
X135930000Y-65780000D03*
D13*
G04 #@! TO.P,U1,9,PD5*
G04 #@! TO.N,unconnected-(U1-PD5-Pad9)*
X134480000Y-64330000D03*
G04 #@! TO.P,U1,10,PD6*
G04 #@! TO.N,unconnected-(U1-PD6-Pad10)*
X133680000Y-64330000D03*
G04 #@! TO.P,U1,11,PD7*
G04 #@! TO.N,unconnected-(U1-PD7-Pad11)*
X132880000Y-64330000D03*
G04 #@! TO.P,U1,12,PB0*
G04 #@! TO.N,unconnected-(U1-PB0-Pad12)*
X132080000Y-64330000D03*
G04 #@! TO.P,U1,13,PB1*
G04 #@! TO.N,unconnected-(U1-PB1-Pad13)*
X131280000Y-64330000D03*
G04 #@! TO.P,U1,14,PB2*
G04 #@! TO.N,unconnected-(U1-PB2-Pad14)*
X130480000Y-64330000D03*
G04 #@! TO.P,U1,15,PB3*
G04 #@! TO.N,/MOSI*
X129680000Y-64330000D03*
G04 #@! TO.P,U1,16,PB4*
G04 #@! TO.N,/MISO*
X128880000Y-64330000D03*
D12*
G04 #@! TO.P,U1,17,PB5*
G04 #@! TO.N,/SCK*
X127430000Y-65780000D03*
G04 #@! TO.P,U1,18,AVCC*
G04 #@! TO.N,+3.3V*
X127430000Y-66580000D03*
G04 #@! TO.P,U1,19,ADC6*
G04 #@! TO.N,unconnected-(U1-ADC6-Pad19)*
X127430000Y-67380000D03*
G04 #@! TO.P,U1,20,AREF*
G04 #@! TO.N,unconnected-(U1-AREF-Pad20)*
X127430000Y-68180000D03*
G04 #@! TO.P,U1,21,GND*
G04 #@! TO.N,GND*
X127430000Y-68980000D03*
G04 #@! TO.P,U1,22,ADC7*
G04 #@! TO.N,unconnected-(U1-ADC7-Pad22)*
X127430000Y-69780000D03*
G04 #@! TO.P,U1,23,PC0*
G04 #@! TO.N,unconnected-(U1-PC0-Pad23)*
X127430000Y-70580000D03*
G04 #@! TO.P,U1,24,PC1*
G04 #@! TO.N,unconnected-(U1-PC1-Pad24)*
X127430000Y-71380000D03*
D13*
G04 #@! TO.P,U1,25,PC2*
G04 #@! TO.N,unconnected-(U1-PC2-Pad25)*
X128880000Y-72830000D03*
G04 #@! TO.P,U1,26,PC3*
G04 #@! TO.N,unconnected-(U1-PC3-Pad26)*
X129680000Y-72830000D03*
G04 #@! TO.P,U1,27,PC4*
G04 #@! TO.N,unconnected-(U1-PC4-Pad27)*
X130480000Y-72830000D03*
G04 #@! TO.P,U1,28,PC5*
G04 #@! TO.N,unconnected-(U1-PC5-Pad28)*
X131280000Y-72830000D03*
G04 #@! TO.P,U1,29,~{RESET}/PC6*
G04 #@! TO.N,/RESET*
X132080000Y-72830000D03*
G04 #@! TO.P,U1,30,PD0*
G04 #@! TO.N,unconnected-(U1-PD0-Pad30)*
X132880000Y-72830000D03*
G04 #@! TO.P,U1,31,PD1*
G04 #@! TO.N,unconnected-(U1-PD1-Pad31)*
X133680000Y-72830000D03*
G04 #@! TO.P,U1,32,PD2*
G04 #@! TO.N,unconnected-(U1-PD2-Pad32)*
X134480000Y-72830000D03*
G04 #@! TD*
D11*
G04 #@! TO.P,C2,1*
G04 #@! TO.N,Net-(U1-XTAL2{slash}PB7)*
X134620000Y-81280000D03*
G04 #@! TO.P,C2,2*
G04 #@! TO.N,GND*
X132545000Y-81280000D03*
G04 #@! TD*
D14*
G04 #@! TO.P,REF\u002A\u002A,+*
G04 #@! TO.N,+3.3V*
X111760000Y-85180000D03*
G04 #@! TO.P,REF\u002A\u002A,-*
G04 #@! TO.N,GND*
X111760000Y-55880000D03*
G04 #@! TD*
D15*
G04 #@! TO.P,J3,1,MISO*
G04 #@! TO.N,/MISO*
X154940000Y-88900000D03*
D16*
G04 #@! TO.P,J3,2,VCC*
G04 #@! TO.N,Net-(D1-A)*
X154940000Y-91440000D03*
G04 #@! TO.P,J3,3,SCK*
G04 #@! TO.N,/SCK*
X152400000Y-88900000D03*
G04 #@! TO.P,J3,4,MOSI*
G04 #@! TO.N,/MOSI*
X152400000Y-91440000D03*
G04 #@! TO.P,J3,5,~{RST}*
G04 #@! TO.N,/RESET*
X149860000Y-88900000D03*
G04 #@! TO.P,J3,6,GND*
G04 #@! TO.N,GND*
X149860000Y-91440000D03*
G04 #@! TD*
D17*
G04 #@! TO.P,Y1,1,1*
G04 #@! TO.N,Net-(U1-XTAL2{slash}PB7)*
X131880000Y-91440000D03*
G04 #@! TO.P,Y1,2,2*
G04 #@! TO.N,Net-(U1-XTAL1{slash}PB6)*
X127000000Y-91440000D03*
G04 #@! TD*
D18*
G04 #@! TO.P,DWM1,1,EXTON*
G04 #@! TO.N,unconnected-(DWM1-EXTON-Pad1)*
X142340000Y-68580000D03*
G04 #@! TO.P,DWM1,2,WAKEUP*
G04 #@! TO.N,GND*
X142340000Y-69980000D03*
G04 #@! TO.P,DWM1,3,RSTn*
G04 #@! TO.N,/RESET*
X142340000Y-71380000D03*
G04 #@! TO.P,DWM1,4,GPIO7*
G04 #@! TO.N,unconnected-(DWM1-GPIO7-Pad4)*
X142340000Y-72780000D03*
G04 #@! TO.P,DWM1,5,VDDAON*
G04 #@! TO.N,+3.3V*
X142340000Y-74180000D03*
G04 #@! TO.P,DWM1,6,VDD3V3*
X142340000Y-75580000D03*
G04 #@! TO.P,DWM1,7,VDD3V3*
X142340000Y-76980000D03*
G04 #@! TO.P,DWM1,8,VSS*
G04 #@! TO.N,GND*
X142340000Y-78380000D03*
D19*
G04 #@! TO.P,DWM1,9,GPIO6/EXTRXE/SPIHA*
G04 #@! TO.N,unconnected-(DWM1-GPIO6{slash}EXTRXE{slash}SPIHA-Pad9)*
X143740000Y-80675000D03*
G04 #@! TO.P,DWM1,10,GPIO5/EXTTXE/SPIPOL*
G04 #@! TO.N,unconnected-(DWM1-GPIO5{slash}EXTTXE{slash}SPIPOL-Pad10)*
X145140000Y-80675000D03*
G04 #@! TO.P,DWM1,11,GPIO4/EXTPA*
G04 #@! TO.N,unconnected-(DWM1-GPIO4{slash}EXTPA-Pad11)*
X146540000Y-80675000D03*
G04 #@! TO.P,DWM1,12,GPIO3/TXLED*
G04 #@! TO.N,unconnected-(DWM1-GPIO3{slash}TXLED-Pad12)*
X147940000Y-80675000D03*
G04 #@! TO.P,DWM1,13,GPIO2/RXLED*
G04 #@! TO.N,unconnected-(DWM1-GPIO2{slash}RXLED-Pad13)*
X149340000Y-80675000D03*
G04 #@! TO.P,DWM1,14,GPIO1/SFDLED*
G04 #@! TO.N,unconnected-(DWM1-GPIO1{slash}SFDLED-Pad14)*
X150740000Y-80675000D03*
G04 #@! TO.P,DWM1,15,GPIO0/RXOKLED*
G04 #@! TO.N,unconnected-(DWM1-GPIO0{slash}RXOKLED-Pad15)*
X152140000Y-80675000D03*
G04 #@! TO.P,DWM1,16,VSS*
G04 #@! TO.N,GND*
X153540000Y-80675000D03*
D18*
G04 #@! TO.P,DWM1,17,SPICSn*
G04 #@! TO.N,/Csn*
X154940000Y-78378800D03*
G04 #@! TO.P,DWM1,18,SPIMOSI*
G04 #@! TO.N,/MOSI*
X154940000Y-76978800D03*
G04 #@! TO.P,DWM1,19,SPIMISO*
G04 #@! TO.N,/MISO*
X154940000Y-75580000D03*
G04 #@! TO.P,DWM1,20,SPICLK*
G04 #@! TO.N,/SCK*
X154940000Y-74180000D03*
G04 #@! TO.P,DWM1,21,VSS*
G04 #@! TO.N,GND*
X154940000Y-72780000D03*
G04 #@! TO.P,DWM1,22,IRQ/GPIO8*
G04 #@! TO.N,unconnected-(DWM1-IRQ{slash}GPIO8-Pad22)*
X154940000Y-71380000D03*
G04 #@! TO.P,DWM1,23,VSS*
G04 #@! TO.N,GND*
X154940000Y-69980000D03*
G04 #@! TO.P,DWM1,24,VSS*
X154940000Y-68580000D03*
G04 #@! TD*
D20*
G04 #@! TO.P,J1,1,Pin_1*
G04 #@! TO.N,/MOSI*
X137160000Y-58420000D03*
D21*
G04 #@! TO.P,J1,2,Pin_2*
G04 #@! TO.N,/MISO*
X134620000Y-58420000D03*
G04 #@! TO.P,J1,3,Pin_3*
G04 #@! TO.N,/SCK*
X132080000Y-58420000D03*
G04 #@! TO.P,J1,4,Pin_4*
G04 #@! TO.N,/RESET*
X129540000Y-58420000D03*
G04 #@! TO.P,J1,5,Pin_5*
G04 #@! TO.N,/Csn*
X127000000Y-58420000D03*
G04 #@! TD*
D11*
G04 #@! TO.P,C1,1*
G04 #@! TO.N,GND*
X137160000Y-86360000D03*
G04 #@! TO.P,C1,2*
G04 #@! TO.N,+3.3V*
X135085000Y-86360000D03*
G04 #@! TD*
D22*
G04 #@! TO.P,R3,1*
G04 #@! TO.N,+3.3V*
X139700000Y-88900000D03*
G04 #@! TO.P,R3,2*
G04 #@! TO.N,/RESET*
X141700000Y-88900000D03*
G04 #@! TD*
D23*
G04 #@! TO.P,D1,1,K*
G04 #@! TO.N,+3.3V*
X138940000Y-93980000D03*
G04 #@! TO.P,D1,2,A*
G04 #@! TO.N,Net-(D1-A)*
X142240000Y-93980000D03*
G04 #@! TD*
D24*
G04 #@! TO.P,C4,1*
G04 #@! TO.N,+3.3V*
X139700000Y-83820000D03*
G04 #@! TO.P,C4,2*
G04 #@! TO.N,Net-(BT1-Pad+)*
X141775000Y-83820000D03*
G04 #@! TD*
D25*
G04 #@! TO.N,Net-(U1-XTAL2{slash}PB7)*
X137161218Y-65013084D03*
X134620000Y-81280000D03*
G04 #@! TO.N,GND*
X124460000Y-68580000D03*
X139700000Y-68580000D03*
X147320000Y-91440000D03*
G04 #@! TO.N,+3.3V*
X139700000Y-76200000D03*
X124460000Y-86360000D03*
X122647000Y-66580000D03*
X132607000Y-86360000D03*
X139700000Y-81280000D03*
X137160000Y-83820000D03*
G04 #@! TO.N,Net-(U1-XTAL1{slash}PB6)*
X137887000Y-66040000D03*
X129540000Y-76200000D03*
X129540000Y-76200000D03*
G04 #@! TO.N,/Csn*
X154940000Y-78378800D03*
X127000000Y-53340000D03*
G04 #@! TO.N,/MOSI*
X142240000Y-53340000D03*
X157480000Y-71120000D03*
X149860000Y-76200000D03*
X154940000Y-76978800D03*
G04 #@! TO.N,/MISO*
X161252000Y-72933000D03*
X154940000Y-75580000D03*
X159293000Y-84547000D03*
X137160000Y-55880000D03*
X161706000Y-82134000D03*
X160020000Y-76200000D03*
X154940000Y-75580000D03*
G04 #@! TO.N,/SCK*
X132080000Y-55880000D03*
X154940000Y-74180000D03*
X152400000Y-83820000D03*
X152400000Y-73660000D03*
G04 #@! TO.N,/RESET*
X137160000Y-73660000D03*
X127000000Y-60960000D03*
G04 #@! TD*
D26*
G04 #@! TO.N,Net-(U1-XTAL2{slash}PB7)*
X136394302Y-65780000D02*
X137161218Y-65013084D01*
X131880000Y-91440000D02*
X129540000Y-89100000D01*
X129540000Y-86360000D02*
X134620000Y-81280000D01*
X129540000Y-89100000D02*
X129540000Y-86360000D01*
X135930000Y-65780000D02*
X136394302Y-65780000D01*
D27*
G04 #@! TO.N,GND*
X139300000Y-68180000D02*
X139700000Y-68580000D01*
X135930000Y-68180000D02*
X139300000Y-68180000D01*
X138500000Y-69780000D02*
X135930000Y-69780000D01*
X124860000Y-68980000D02*
X127430000Y-68980000D01*
X147320000Y-91440000D02*
X149860000Y-91440000D01*
X124460000Y-68580000D02*
X124860000Y-68980000D01*
X139700000Y-68580000D02*
X138500000Y-69780000D01*
G04 #@! TO.N,+3.3V*
X134622000Y-67380000D02*
X134620000Y-67382000D01*
X122846000Y-96266000D02*
X137414000Y-96266000D01*
X141720000Y-76200000D02*
X142340000Y-75580000D01*
X135085000Y-86360000D02*
X132607000Y-86360000D01*
X138940000Y-93980000D02*
X138940000Y-89660000D01*
X139700000Y-76200000D02*
X141720000Y-76200000D01*
X127430000Y-66580000D02*
X133820000Y-66580000D01*
X134620000Y-68978000D02*
X134622000Y-68980000D01*
X111760000Y-85180000D02*
X122846000Y-96266000D01*
X138940000Y-89660000D02*
X139700000Y-88900000D01*
X135930000Y-67380000D02*
X134622000Y-67380000D01*
X142340000Y-76980000D02*
X142340000Y-75580000D01*
X142340000Y-75580000D02*
X142340000Y-74180000D01*
X134620000Y-67380000D02*
X135930000Y-67380000D01*
X139700000Y-83820000D02*
X139700000Y-81280000D01*
X135085000Y-86360000D02*
X135085000Y-85895000D01*
X138940000Y-94740000D02*
X138940000Y-93980000D01*
X134622000Y-68980000D02*
X135930000Y-68980000D01*
X127430000Y-66580000D02*
X122647000Y-66580000D01*
X137414000Y-96266000D02*
X138940000Y-94740000D01*
X133820000Y-66580000D02*
X134620000Y-67380000D01*
X139700000Y-88900000D02*
X137625000Y-88900000D01*
X137625000Y-88900000D02*
X135085000Y-86360000D01*
X135085000Y-85895000D02*
X137160000Y-83820000D01*
X134620000Y-67382000D02*
X134620000Y-68978000D01*
D26*
G04 #@! TO.N,Net-(D1-A)*
X142240000Y-93980000D02*
X152400000Y-93980000D01*
X152400000Y-93980000D02*
X154940000Y-91440000D01*
G04 #@! TO.N,Net-(U1-XTAL1{slash}PB6)*
X126535000Y-81280000D02*
X126535000Y-79205000D01*
X135930000Y-66580000D02*
X137347000Y-66580000D01*
X127000000Y-91440000D02*
X127000000Y-81745000D01*
X126535000Y-79205000D02*
X129540000Y-76200000D01*
X137347000Y-66580000D02*
X137887000Y-66040000D01*
X127000000Y-81745000D02*
X126535000Y-81280000D01*
X135754648Y-66755352D02*
X135930000Y-66580000D01*
G04 #@! TO.N,/Csn*
X127000000Y-58420000D02*
X127000000Y-53340000D01*
G04 #@! TO.N,/MOSI*
X152400000Y-91440000D02*
X153577000Y-90263000D01*
X154940000Y-76978800D02*
X156419000Y-76978800D01*
X139700000Y-55880000D02*
X142240000Y-53340000D01*
X130145104Y-61414000D02*
X129680000Y-61879104D01*
X149860000Y-76200000D02*
X150638800Y-76978800D01*
X156492000Y-77051800D02*
X156492000Y-82186967D01*
X129680000Y-61879104D02*
X129680000Y-64330000D01*
X134166000Y-61414000D02*
X130145104Y-61414000D01*
X137160000Y-58420000D02*
X139700000Y-55880000D01*
X156492000Y-82186967D02*
X153577000Y-85101967D01*
X156419000Y-76978800D02*
X156492000Y-77051800D01*
X137160000Y-58420000D02*
X134166000Y-61414000D01*
X150638800Y-76978800D02*
X154940000Y-76978800D01*
X153577000Y-90263000D02*
X153577000Y-85101967D01*
G04 #@! TO.N,/MISO*
X154975167Y-75544833D02*
X154940000Y-75580000D01*
X128880000Y-62037052D02*
X128880000Y-64330000D01*
X129957052Y-60960000D02*
X128880000Y-62037052D01*
X161252000Y-72933000D02*
X160020000Y-74165000D01*
X160020000Y-80448000D02*
X161706000Y-82134000D01*
X134620000Y-58420000D02*
X137160000Y-55880000D01*
X132080000Y-60960000D02*
X129957052Y-60960000D01*
X159293000Y-84547000D02*
X154940000Y-88900000D01*
X134620000Y-58420000D02*
X132080000Y-60960000D01*
X160020000Y-76200000D02*
X160020000Y-80448000D01*
X160020000Y-74165000D02*
X160020000Y-76200000D01*
G04 #@! TO.N,/SCK*
X152400000Y-88900000D02*
X152400000Y-84194000D01*
X132080000Y-58420000D02*
X131855000Y-58420000D01*
X127430000Y-62845000D02*
X127430000Y-65780000D01*
X152920000Y-74180000D02*
X154940000Y-74180000D01*
X132080000Y-58420000D02*
X132080000Y-55880000D01*
X152400000Y-73660000D02*
X152920000Y-74180000D01*
X131855000Y-58420000D02*
X127430000Y-62845000D01*
X152400000Y-84194000D02*
X152400000Y-83820000D01*
G04 #@! TO.N,/RESET*
X140860500Y-88060500D02*
X140860500Y-81412366D01*
X141700000Y-88900000D02*
X140860500Y-88060500D01*
X137674067Y-74566933D02*
X137674067Y-78225933D01*
X132080000Y-73660000D02*
X132080000Y-72830000D01*
X149860000Y-88900000D02*
X141700000Y-88900000D01*
X133669000Y-75473000D02*
X134921134Y-75473000D01*
X132080000Y-73884000D02*
X133669000Y-75473000D01*
X137674067Y-74566933D02*
X137674067Y-74174067D01*
X127000000Y-60960000D02*
X129540000Y-58420000D01*
X140860500Y-81412366D02*
X137674067Y-78225933D01*
X142340000Y-71380000D02*
X140861000Y-71380000D01*
X132080000Y-73884000D02*
X132080000Y-72830000D01*
X137674067Y-74174067D02*
X137160000Y-73660000D01*
X140861000Y-71380000D02*
X137674067Y-74566933D01*
X137674067Y-78225933D02*
X134921134Y-75473000D01*
G04 #@! TD*
G04 #@! TA.AperFunction,Conductor*
G04 #@! TO.N,GND*
G36*
X162502539Y-50820185D02*
G01*
X162548294Y-50872989D01*
X162559500Y-50924500D01*
X162559500Y-81413100D01*
X162539815Y-81480139D01*
X162487011Y-81525894D01*
X162417853Y-81535838D01*
X162354297Y-81506813D01*
X162343351Y-81496073D01*
X162311871Y-81461112D01*
X162311870Y-81461111D01*
X162158734Y-81349851D01*
X162158729Y-81349848D01*
X161985807Y-81272857D01*
X161985802Y-81272855D01*
X161840001Y-81241865D01*
X161800646Y-81233500D01*
X161800645Y-81233500D01*
X161744281Y-81233500D01*
X161677242Y-81213815D01*
X161656600Y-81197181D01*
X160683819Y-80224400D01*
X160650334Y-80163077D01*
X160647500Y-80136719D01*
X160647500Y-76896465D01*
X160667185Y-76829426D01*
X160679343Y-76813500D01*
X160752533Y-76732216D01*
X160847179Y-76568284D01*
X160905674Y-76388256D01*
X160925460Y-76200000D01*
X160905674Y-76011744D01*
X160847179Y-75831716D01*
X160752533Y-75667784D01*
X160679350Y-75586506D01*
X160649120Y-75523515D01*
X160647500Y-75503534D01*
X160647500Y-74476281D01*
X160667185Y-74409242D01*
X160683819Y-74388600D01*
X161202600Y-73869819D01*
X161263923Y-73836334D01*
X161290281Y-73833500D01*
X161346644Y-73833500D01*
X161346646Y-73833500D01*
X161531803Y-73794144D01*
X161704730Y-73717151D01*
X161857871Y-73605888D01*
X161984533Y-73465216D01*
X162079179Y-73301284D01*
X162137674Y-73121256D01*
X162157460Y-72933000D01*
X162137674Y-72744744D01*
X162079179Y-72564716D01*
X161984533Y-72400784D01*
X161857871Y-72260112D01*
X161857870Y-72260111D01*
X161704734Y-72148851D01*
X161704729Y-72148848D01*
X161531807Y-72071857D01*
X161531802Y-72071855D01*
X161369600Y-72037379D01*
X161346646Y-72032500D01*
X161157354Y-72032500D01*
X161137759Y-72036665D01*
X160972197Y-72071855D01*
X160972192Y-72071857D01*
X160799270Y-72148848D01*
X160799265Y-72148851D01*
X160646129Y-72260111D01*
X160519466Y-72400785D01*
X160424821Y-72564715D01*
X160424818Y-72564722D01*
X160372547Y-72725598D01*
X160366326Y-72744744D01*
X160350203Y-72898143D01*
X160349011Y-72909489D01*
X160322426Y-72974103D01*
X160313371Y-72984208D01*
X159634953Y-73662626D01*
X159622669Y-73672469D01*
X159622849Y-73672687D01*
X159616837Y-73677660D01*
X159570646Y-73726847D01*
X159567941Y-73729638D01*
X159548379Y-73749200D01*
X159548375Y-73749205D01*
X159545895Y-73752403D01*
X159538317Y-73761274D01*
X159508308Y-73793230D01*
X159508305Y-73793234D01*
X159498606Y-73810877D01*
X159487928Y-73827133D01*
X159475594Y-73843034D01*
X159475589Y-73843042D01*
X159458185Y-73883262D01*
X159453046Y-73893752D01*
X159431927Y-73932167D01*
X159426920Y-73951668D01*
X159420621Y-73970064D01*
X159413893Y-73985612D01*
X159412625Y-73988544D01*
X159412624Y-73988546D01*
X159405769Y-74031831D01*
X159403401Y-74043267D01*
X159392500Y-74085723D01*
X159392500Y-74105858D01*
X159390973Y-74125257D01*
X159389400Y-74135191D01*
X159387825Y-74145133D01*
X159391944Y-74188703D01*
X159391950Y-74188767D01*
X159392500Y-74200437D01*
X159392500Y-75503534D01*
X159372815Y-75570573D01*
X159360650Y-75586506D01*
X159287466Y-75667785D01*
X159192821Y-75831715D01*
X159192818Y-75831722D01*
X159138437Y-75999092D01*
X159134326Y-76011744D01*
X159114540Y-76200000D01*
X159134326Y-76388256D01*
X159134327Y-76388259D01*
X159192818Y-76568277D01*
X159192821Y-76568284D01*
X159248164Y-76664142D01*
X159287467Y-76732216D01*
X159360651Y-76813494D01*
X159390880Y-76876484D01*
X159392500Y-76896465D01*
X159392500Y-80365032D01*
X159390772Y-80380681D01*
X159391054Y-80380708D01*
X159390319Y-80388475D01*
X159392439Y-80455917D01*
X159392500Y-80459811D01*
X159392500Y-80487476D01*
X159393006Y-80491485D01*
X159393921Y-80503116D01*
X159395298Y-80546942D01*
X159400916Y-80566275D01*
X159404862Y-80585329D01*
X159407383Y-80605287D01*
X159407386Y-80605299D01*
X159423519Y-80646048D01*
X159427302Y-80657098D01*
X159439530Y-80699187D01*
X159439530Y-80699188D01*
X159449777Y-80716515D01*
X159458335Y-80733985D01*
X159465745Y-80752701D01*
X159491511Y-80788164D01*
X159497925Y-80797929D01*
X159520234Y-80835652D01*
X159520240Y-80835660D01*
X159534469Y-80849888D01*
X159547106Y-80864684D01*
X159558937Y-80880967D01*
X159592717Y-80908912D01*
X159601346Y-80916765D01*
X160767371Y-82082790D01*
X160800856Y-82144113D01*
X160803010Y-82157505D01*
X160820326Y-82322256D01*
X160820327Y-82322259D01*
X160878818Y-82502277D01*
X160878821Y-82502284D01*
X160973467Y-82666216D01*
X161047711Y-82748672D01*
X161100129Y-82806888D01*
X161253265Y-82918148D01*
X161253270Y-82918151D01*
X161426192Y-82995142D01*
X161426197Y-82995144D01*
X161611354Y-83034500D01*
X161611355Y-83034500D01*
X161800644Y-83034500D01*
X161800646Y-83034500D01*
X161985803Y-82995144D01*
X162158730Y-82918151D01*
X162311871Y-82806888D01*
X162343350Y-82771926D01*
X162402837Y-82735278D01*
X162472694Y-82736609D01*
X162530742Y-82775495D01*
X162558552Y-82839592D01*
X162559500Y-82854899D01*
X162559500Y-96395500D01*
X162539815Y-96462539D01*
X162487011Y-96508294D01*
X162435500Y-96519500D01*
X138526886Y-96519500D01*
X138459847Y-96499815D01*
X138414092Y-96447011D01*
X138404148Y-96377853D01*
X138433173Y-96314297D01*
X138439205Y-96307819D01*
X138586106Y-96160916D01*
X139428264Y-95318758D01*
X139441883Y-95306988D01*
X139461294Y-95292539D01*
X139493334Y-95254354D01*
X139500623Y-95246399D01*
X139504583Y-95242441D01*
X139523927Y-95217974D01*
X139526161Y-95215232D01*
X139574667Y-95157427D01*
X139574671Y-95157418D01*
X139578637Y-95151390D01*
X139578683Y-95151420D01*
X139582795Y-95144965D01*
X139582748Y-95144936D01*
X139586532Y-95138799D01*
X139586539Y-95138791D01*
X139613720Y-95080500D01*
X139618417Y-95070428D01*
X139619972Y-95067214D01*
X139653824Y-94999811D01*
X139653826Y-94999798D01*
X139656293Y-94993024D01*
X139656346Y-94993043D01*
X139658858Y-94985815D01*
X139658807Y-94985798D01*
X139661077Y-94978945D01*
X139661077Y-94978943D01*
X139661079Y-94978940D01*
X139676338Y-94905037D01*
X139677105Y-94901581D01*
X139679144Y-94892977D01*
X139712120Y-94833891D01*
X139737968Y-94808044D01*
X139827003Y-94663697D01*
X139880349Y-94502708D01*
X139890500Y-94403345D01*
X139890499Y-93556656D01*
X139880349Y-93457292D01*
X139827003Y-93296303D01*
X139826999Y-93296297D01*
X139826998Y-93296294D01*
X139737970Y-93151959D01*
X139737967Y-93151955D01*
X139730819Y-93144807D01*
X139697334Y-93083484D01*
X139694500Y-93057126D01*
X139694500Y-90224499D01*
X139714185Y-90157460D01*
X139766989Y-90111705D01*
X139818500Y-90100499D01*
X140100002Y-90100499D01*
X140100008Y-90100499D01*
X140202797Y-90089999D01*
X140369334Y-90034814D01*
X140518656Y-89942712D01*
X140612319Y-89849049D01*
X140673642Y-89815564D01*
X140743334Y-89820548D01*
X140787681Y-89849049D01*
X140881344Y-89942712D01*
X141030666Y-90034814D01*
X141197203Y-90089999D01*
X141299991Y-90100500D01*
X142100008Y-90100499D01*
X142100016Y-90100498D01*
X142100019Y-90100498D01*
X142176238Y-90092712D01*
X142202797Y-90089999D01*
X142369334Y-90034814D01*
X142518656Y-89942712D01*
X142642712Y-89818656D01*
X142734814Y-89669334D01*
X142753648Y-89612495D01*
X142793421Y-89555051D01*
X142857937Y-89528228D01*
X142871354Y-89527500D01*
X148586173Y-89527500D01*
X148653212Y-89547185D01*
X148687747Y-89580375D01*
X148821505Y-89771401D01*
X148988599Y-89938495D01*
X149126154Y-90034812D01*
X149174594Y-90068730D01*
X149218218Y-90123307D01*
X149225411Y-90192806D01*
X149193889Y-90255160D01*
X149174593Y-90271880D01*
X149098626Y-90325072D01*
X149098625Y-90325072D01*
X149727466Y-90953913D01*
X149717685Y-90955320D01*
X149586900Y-91015048D01*
X149478239Y-91109202D01*
X149400507Y-91230156D01*
X149376923Y-91310476D01*
X148745072Y-90678625D01*
X148686401Y-90762419D01*
X148586570Y-90976507D01*
X148586566Y-90976516D01*
X148525432Y-91204673D01*
X148525430Y-91204684D01*
X148504843Y-91439998D01*
X148504843Y-91440001D01*
X148525430Y-91675315D01*
X148525432Y-91675326D01*
X148586566Y-91903483D01*
X148586570Y-91903492D01*
X148686400Y-92117579D01*
X148686402Y-92117583D01*
X148745072Y-92201373D01*
X148745073Y-92201373D01*
X149376923Y-91569523D01*
X149400507Y-91649844D01*
X149478239Y-91770798D01*
X149586900Y-91864952D01*
X149717685Y-91924680D01*
X149727466Y-91926086D01*
X149098625Y-92554925D01*
X149182421Y-92613599D01*
X149396507Y-92713429D01*
X149396516Y-92713433D01*
X149624673Y-92774567D01*
X149624684Y-92774569D01*
X149859998Y-92795157D01*
X149860002Y-92795157D01*
X150095315Y-92774569D01*
X150095326Y-92774567D01*
X150323483Y-92713433D01*
X150323492Y-92713429D01*
X150537578Y-92613600D01*
X150537582Y-92613598D01*
X150621373Y-92554926D01*
X150621373Y-92554925D01*
X149992533Y-91926086D01*
X150002315Y-91924680D01*
X150133100Y-91864952D01*
X150241761Y-91770798D01*
X150319493Y-91649844D01*
X150343076Y-91569524D01*
X150974925Y-92201373D01*
X151028119Y-92125405D01*
X151082696Y-92081781D01*
X151152195Y-92074588D01*
X151214549Y-92106110D01*
X151231269Y-92125405D01*
X151361505Y-92311401D01*
X151528599Y-92478495D01*
X151598017Y-92527102D01*
X151722165Y-92614032D01*
X151722167Y-92614033D01*
X151722170Y-92614035D01*
X151936337Y-92713903D01*
X152164592Y-92775063D01*
X152362705Y-92792396D01*
X152405394Y-92796131D01*
X152405238Y-92797913D01*
X152464598Y-92815344D01*
X152510353Y-92868148D01*
X152520297Y-92937306D01*
X152491272Y-93000862D01*
X152485240Y-93007340D01*
X152176400Y-93316181D01*
X152115077Y-93349666D01*
X152088719Y-93352500D01*
X143230873Y-93352500D01*
X143163834Y-93332815D01*
X143125335Y-93293598D01*
X143037968Y-93151956D01*
X142918044Y-93032032D01*
X142918040Y-93032029D01*
X142773705Y-92943001D01*
X142773699Y-92942998D01*
X142773697Y-92942997D01*
X142756523Y-92937306D01*
X142612709Y-92889651D01*
X142513346Y-92879500D01*
X141966662Y-92879500D01*
X141966644Y-92879501D01*
X141867292Y-92889650D01*
X141867289Y-92889651D01*
X141706305Y-92942996D01*
X141706294Y-92943001D01*
X141561959Y-93032029D01*
X141561955Y-93032032D01*
X141442032Y-93151955D01*
X141442029Y-93151959D01*
X141353001Y-93296294D01*
X141352996Y-93296305D01*
X141299651Y-93457290D01*
X141289500Y-93556647D01*
X141289500Y-94403337D01*
X141289501Y-94403355D01*
X141299650Y-94502707D01*
X141299651Y-94502710D01*
X141352996Y-94663694D01*
X141353001Y-94663705D01*
X141442029Y-94808040D01*
X141442032Y-94808044D01*
X141561955Y-94927967D01*
X141561959Y-94927970D01*
X141706294Y-95016998D01*
X141706297Y-95016999D01*
X141706303Y-95017003D01*
X141867292Y-95070349D01*
X141966655Y-95080500D01*
X142513344Y-95080499D01*
X142513352Y-95080498D01*
X142513355Y-95080498D01*
X142567760Y-95074940D01*
X142612708Y-95070349D01*
X142773697Y-95017003D01*
X142918044Y-94927968D01*
X143037968Y-94808044D01*
X143125335Y-94666402D01*
X143177283Y-94619678D01*
X143230873Y-94607500D01*
X152317033Y-94607500D01*
X152332681Y-94609227D01*
X152332708Y-94608946D01*
X152340475Y-94609680D01*
X152340476Y-94609679D01*
X152340477Y-94609680D01*
X152407919Y-94607561D01*
X152411813Y-94607500D01*
X152439472Y-94607500D01*
X152439476Y-94607500D01*
X152443474Y-94606994D01*
X152455114Y-94606077D01*
X152498943Y-94604701D01*
X152518272Y-94599084D01*
X152537328Y-94595137D01*
X152557293Y-94592616D01*
X152598055Y-94576476D01*
X152609092Y-94572698D01*
X152651191Y-94560468D01*
X152668515Y-94550221D01*
X152685983Y-94541663D01*
X152704703Y-94534253D01*
X152740177Y-94508478D01*
X152749915Y-94502081D01*
X152787656Y-94479763D01*
X152801897Y-94465520D01*
X152816678Y-94452897D01*
X152832967Y-94441063D01*
X152860904Y-94407290D01*
X152868756Y-94398661D01*
X154486584Y-92780833D01*
X154547905Y-92747350D01*
X154606356Y-92748741D01*
X154648107Y-92759928D01*
X154704592Y-92775063D01*
X154892918Y-92791539D01*
X154939999Y-92795659D01*
X154940000Y-92795659D01*
X154940001Y-92795659D01*
X154979234Y-92792226D01*
X155175408Y-92775063D01*
X155403663Y-92713903D01*
X155617830Y-92614035D01*
X155811401Y-92478495D01*
X155978495Y-92311401D01*
X156114035Y-92117830D01*
X156213903Y-91903663D01*
X156275063Y-91675408D01*
X156295659Y-91440000D01*
X156275063Y-91204592D01*
X156213903Y-90976337D01*
X156114035Y-90762171D01*
X156108731Y-90754595D01*
X155978494Y-90568597D01*
X155811398Y-90401501D01*
X155810030Y-90400354D01*
X155809592Y-90399696D01*
X155807573Y-90397677D01*
X155807978Y-90397271D01*
X155771330Y-90342182D01*
X155770224Y-90272321D01*
X155807063Y-90212952D01*
X155850737Y-90187662D01*
X155859334Y-90184814D01*
X156008656Y-90092712D01*
X156132712Y-89968656D01*
X156224814Y-89819334D01*
X156279999Y-89652797D01*
X156290500Y-89550009D01*
X156290499Y-88488280D01*
X156310183Y-88421242D01*
X156326813Y-88400605D01*
X159243601Y-85483819D01*
X159304924Y-85450334D01*
X159331282Y-85447500D01*
X159387644Y-85447500D01*
X159387646Y-85447500D01*
X159572803Y-85408144D01*
X159745730Y-85331151D01*
X159898871Y-85219888D01*
X160025533Y-85079216D01*
X160120179Y-84915284D01*
X160178674Y-84735256D01*
X160198460Y-84547000D01*
X160178674Y-84358744D01*
X160120179Y-84178716D01*
X160025533Y-84014784D01*
X159898871Y-83874112D01*
X159898870Y-83874111D01*
X159745734Y-83762851D01*
X159745729Y-83762848D01*
X159572807Y-83685857D01*
X159572802Y-83685855D01*
X159427001Y-83654865D01*
X159387646Y-83646500D01*
X159198354Y-83646500D01*
X159165897Y-83653398D01*
X159013197Y-83685855D01*
X159013192Y-83685857D01*
X158840270Y-83762848D01*
X158840265Y-83762851D01*
X158687129Y-83874111D01*
X158560466Y-84014785D01*
X158465821Y-84178715D01*
X158465818Y-84178722D01*
X158409447Y-84352216D01*
X158407326Y-84358744D01*
X158397966Y-84447799D01*
X158390011Y-84523489D01*
X158363426Y-84588103D01*
X158354371Y-84598208D01*
X155439398Y-87513181D01*
X155378075Y-87546666D01*
X155351717Y-87549500D01*
X154328500Y-87549500D01*
X154261461Y-87529815D01*
X154215706Y-87477011D01*
X154204500Y-87425500D01*
X154204500Y-85413247D01*
X154224185Y-85346208D01*
X154240814Y-85325571D01*
X156877043Y-82689341D01*
X156889325Y-82679504D01*
X156889144Y-82679285D01*
X156895157Y-82674309D01*
X156895162Y-82674307D01*
X156941383Y-82625084D01*
X156944032Y-82622352D01*
X156963624Y-82602762D01*
X156966101Y-82599567D01*
X156973679Y-82590694D01*
X157003693Y-82558734D01*
X157013388Y-82541097D01*
X157024072Y-82524830D01*
X157036408Y-82508929D01*
X157039284Y-82502284D01*
X157043250Y-82493115D01*
X157053811Y-82468709D01*
X157058951Y-82458218D01*
X157080071Y-82419802D01*
X157080072Y-82419801D01*
X157085078Y-82400301D01*
X157091376Y-82381903D01*
X157099374Y-82363425D01*
X157106232Y-82320118D01*
X157108596Y-82308703D01*
X157119500Y-82266239D01*
X157119500Y-82246108D01*
X157121027Y-82226708D01*
X157124175Y-82206834D01*
X157120050Y-82163197D01*
X157119500Y-82151528D01*
X157119500Y-77134764D01*
X157121228Y-77119113D01*
X157120946Y-77119087D01*
X157121680Y-77111324D01*
X157119561Y-77043881D01*
X157119500Y-77039987D01*
X157119500Y-77012330D01*
X157119500Y-77012324D01*
X157118993Y-77008319D01*
X157118077Y-76996671D01*
X157117684Y-76984151D01*
X157116701Y-76952858D01*
X157111082Y-76933518D01*
X157107139Y-76914485D01*
X157104616Y-76894507D01*
X157088481Y-76853755D01*
X157084698Y-76842707D01*
X157080840Y-76829426D01*
X157072468Y-76800609D01*
X157062219Y-76783280D01*
X157053664Y-76765816D01*
X157046253Y-76747097D01*
X157046249Y-76747091D01*
X157020490Y-76711637D01*
X157014074Y-76701870D01*
X156991768Y-76664151D01*
X156991766Y-76664148D01*
X156991764Y-76664145D01*
X156977530Y-76649911D01*
X156964894Y-76635117D01*
X156953062Y-76618832D01*
X156953058Y-76618828D01*
X156927276Y-76597499D01*
X156910772Y-76580995D01*
X156906340Y-76575638D01*
X156857153Y-76529448D01*
X156854354Y-76526735D01*
X156834797Y-76507177D01*
X156831607Y-76504703D01*
X156822716Y-76497110D01*
X156790768Y-76467108D01*
X156790763Y-76467104D01*
X156773122Y-76457406D01*
X156756857Y-76446722D01*
X156740963Y-76434393D01*
X156740962Y-76434392D01*
X156719860Y-76425260D01*
X156666154Y-76380569D01*
X156652929Y-76354794D01*
X156640971Y-76322734D01*
X156635986Y-76253043D01*
X156640971Y-76236065D01*
X156656077Y-76195564D01*
X156659091Y-76187483D01*
X156665500Y-76127873D01*
X156665499Y-75032128D01*
X156659091Y-74972517D01*
X156656274Y-74964965D01*
X156640747Y-74923334D01*
X156635762Y-74853643D01*
X156640747Y-74836665D01*
X156650998Y-74809181D01*
X156659091Y-74787483D01*
X156665500Y-74727873D01*
X156665499Y-73632128D01*
X156659091Y-73572517D01*
X156640480Y-73522618D01*
X156635495Y-73452927D01*
X156640480Y-73435949D01*
X156658597Y-73387375D01*
X156658598Y-73387372D01*
X156664999Y-73327844D01*
X156665000Y-73327827D01*
X156665000Y-73030000D01*
X153212779Y-73030000D01*
X153156347Y-73060813D01*
X153086656Y-73055827D01*
X153037842Y-73022620D01*
X153005871Y-72987112D01*
X152987966Y-72974103D01*
X152852734Y-72875851D01*
X152852729Y-72875848D01*
X152679807Y-72798857D01*
X152679802Y-72798855D01*
X152534001Y-72767865D01*
X152494646Y-72759500D01*
X152305354Y-72759500D01*
X152272897Y-72766398D01*
X152120197Y-72798855D01*
X152120192Y-72798857D01*
X151947270Y-72875848D01*
X151947265Y-72875851D01*
X151794129Y-72987111D01*
X151667466Y-73127785D01*
X151572821Y-73291715D01*
X151572818Y-73291722D01*
X151516447Y-73465216D01*
X151514326Y-73471744D01*
X151494540Y-73660000D01*
X151514326Y-73848256D01*
X151514327Y-73848259D01*
X151572818Y-74028277D01*
X151572821Y-74028284D01*
X151667467Y-74192216D01*
X151765135Y-74300687D01*
X151794129Y-74332888D01*
X151947265Y-74444148D01*
X151947270Y-74444151D01*
X152120192Y-74521142D01*
X152120197Y-74521144D01*
X152305354Y-74560500D01*
X152359432Y-74560500D01*
X152426471Y-74580185D01*
X152444316Y-74594108D01*
X152481846Y-74629351D01*
X152484643Y-74632062D01*
X152504207Y-74651626D01*
X152507385Y-74654090D01*
X152516281Y-74661687D01*
X152548235Y-74691695D01*
X152548237Y-74691696D01*
X152565868Y-74701388D01*
X152582137Y-74712074D01*
X152598037Y-74724407D01*
X152598038Y-74724408D01*
X152638262Y-74741815D01*
X152648754Y-74746955D01*
X152687161Y-74768070D01*
X152687164Y-74768071D01*
X152687166Y-74768072D01*
X152706659Y-74773076D01*
X152725067Y-74779379D01*
X152743541Y-74787374D01*
X152786844Y-74794231D01*
X152798271Y-74796598D01*
X152840728Y-74807500D01*
X152860858Y-74807500D01*
X152880255Y-74809026D01*
X152900133Y-74812175D01*
X152939928Y-74808413D01*
X152943770Y-74808050D01*
X152955439Y-74807500D01*
X153103863Y-74807500D01*
X153170902Y-74827185D01*
X153216657Y-74879989D01*
X153226601Y-74949147D01*
X153222571Y-74964936D01*
X153222693Y-74964965D01*
X153220908Y-74972516D01*
X153214501Y-75032116D01*
X153214501Y-75032123D01*
X153214500Y-75032135D01*
X153214500Y-76127870D01*
X153214501Y-76127876D01*
X153220909Y-76187484D01*
X153222692Y-76195029D01*
X153220426Y-76195564D01*
X153224583Y-76253652D01*
X153191101Y-76314977D01*
X153129780Y-76348465D01*
X153103416Y-76351300D01*
X150950081Y-76351300D01*
X150883042Y-76331615D01*
X150862400Y-76314981D01*
X150798628Y-76251209D01*
X150765143Y-76189886D01*
X150762990Y-76176506D01*
X150745674Y-76011744D01*
X150687179Y-75831716D01*
X150592533Y-75667784D01*
X150465871Y-75527112D01*
X150465870Y-75527111D01*
X150312734Y-75415851D01*
X150312729Y-75415848D01*
X150139807Y-75338857D01*
X150139802Y-75338855D01*
X149994001Y-75307865D01*
X149954646Y-75299500D01*
X149765354Y-75299500D01*
X149732897Y-75306398D01*
X149580197Y-75338855D01*
X149580192Y-75338857D01*
X149407270Y-75415848D01*
X149407265Y-75415851D01*
X149254129Y-75527111D01*
X149127466Y-75667785D01*
X149032821Y-75831715D01*
X149032818Y-75831722D01*
X148978437Y-75999092D01*
X148974326Y-76011744D01*
X148954540Y-76200000D01*
X148974326Y-76388256D01*
X148974327Y-76388259D01*
X149032818Y-76568277D01*
X149032821Y-76568284D01*
X149127467Y-76732216D01*
X149236907Y-76853761D01*
X149254129Y-76872888D01*
X149407265Y-76984148D01*
X149407270Y-76984151D01*
X149580192Y-77061142D01*
X149580197Y-77061144D01*
X149765354Y-77100500D01*
X149821719Y-77100500D01*
X149888758Y-77120185D01*
X149909400Y-77136819D01*
X150136424Y-77363843D01*
X150146271Y-77376133D01*
X150146489Y-77375954D01*
X150151457Y-77381959D01*
X150200646Y-77428151D01*
X150203443Y-77430862D01*
X150223007Y-77450426D01*
X150226189Y-77452894D01*
X150235076Y-77460483D01*
X150267033Y-77490493D01*
X150284684Y-77500196D01*
X150300934Y-77510871D01*
X150316838Y-77523208D01*
X150316841Y-77523210D01*
X150357059Y-77540613D01*
X150367543Y-77545748D01*
X150405966Y-77566872D01*
X150425040Y-77571769D01*
X150425460Y-77571877D01*
X150443864Y-77578177D01*
X150462342Y-77586174D01*
X150505651Y-77593033D01*
X150517058Y-77595395D01*
X150559528Y-77606300D01*
X150579658Y-77606300D01*
X150599057Y-77607827D01*
X150618933Y-77610975D01*
X150658728Y-77607213D01*
X150662570Y-77606850D01*
X150674239Y-77606300D01*
X153103863Y-77606300D01*
X153170902Y-77625985D01*
X153216657Y-77678789D01*
X153226601Y-77747947D01*
X153222571Y-77763736D01*
X153222693Y-77763765D01*
X153220908Y-77771316D01*
X153214501Y-77830916D01*
X153214500Y-77830935D01*
X153214501Y-78826000D01*
X153194817Y-78893039D01*
X153142013Y-78938794D01*
X153090501Y-78950000D01*
X152992155Y-78950000D01*
X152932627Y-78956401D01*
X152932623Y-78956402D01*
X152884046Y-78974520D01*
X152814354Y-78979503D01*
X152797382Y-78974519D01*
X152747485Y-78955909D01*
X152747483Y-78955908D01*
X152687883Y-78949501D01*
X152687881Y-78949500D01*
X152687873Y-78949500D01*
X152687864Y-78949500D01*
X151592129Y-78949500D01*
X151592123Y-78949501D01*
X151532516Y-78955908D01*
X151483332Y-78974253D01*
X151413640Y-78979237D01*
X151396667Y-78974253D01*
X151347482Y-78955908D01*
X151347483Y-78955908D01*
X151287883Y-78949501D01*
X151287881Y-78949500D01*
X151287873Y-78949500D01*
X151287864Y-78949500D01*
X150192129Y-78949500D01*
X150192123Y-78949501D01*
X150132516Y-78955908D01*
X150083332Y-78974253D01*
X150013640Y-78979237D01*
X149996667Y-78974253D01*
X149947482Y-78955908D01*
X149947483Y-78955908D01*
X149887883Y-78949501D01*
X149887881Y-78949500D01*
X149887873Y-78949500D01*
X149887864Y-78949500D01*
X148792129Y-78949500D01*
X148792123Y-78949501D01*
X148732516Y-78955908D01*
X148683332Y-78974253D01*
X148613640Y-78979237D01*
X148596667Y-78974253D01*
X148547482Y-78955908D01*
X148547483Y-78955908D01*
X148487883Y-78949501D01*
X148487881Y-78949500D01*
X148487873Y-78949500D01*
X148487864Y-78949500D01*
X147392129Y-78949500D01*
X147392123Y-78949501D01*
X147332516Y-78955908D01*
X147283332Y-78974253D01*
X147213640Y-78979237D01*
X147196667Y-78974253D01*
X147147482Y-78955908D01*
X147147483Y-78955908D01*
X147087883Y-78949501D01*
X147087881Y-78949500D01*
X147087873Y-78949500D01*
X147087864Y-78949500D01*
X145992129Y-78949500D01*
X145992123Y-78949501D01*
X145932516Y-78955908D01*
X145883332Y-78974253D01*
X145813640Y-78979237D01*
X145796667Y-78974253D01*
X145747482Y-78955908D01*
X145747483Y-78955908D01*
X145687883Y-78949501D01*
X145687881Y-78949500D01*
X145687873Y-78949500D01*
X145687864Y-78949500D01*
X144592129Y-78949500D01*
X144592123Y-78949501D01*
X144532516Y-78955908D01*
X144483332Y-78974253D01*
X144413640Y-78979237D01*
X144396667Y-78974253D01*
X144347482Y-78955908D01*
X144347483Y-78955908D01*
X144287883Y-78949501D01*
X144287881Y-78949500D01*
X144287873Y-78949500D01*
X144287865Y-78949500D01*
X144189000Y-78949500D01*
X144121961Y-78929815D01*
X144076206Y-78877011D01*
X144065000Y-78825500D01*
X144065000Y-78630000D01*
X142590000Y-78630000D01*
X142590000Y-79380000D01*
X142615500Y-79380000D01*
X142682539Y-79399685D01*
X142728294Y-79452489D01*
X142739500Y-79504000D01*
X142739500Y-81947870D01*
X142739501Y-81947876D01*
X142745908Y-82007483D01*
X142796202Y-82142328D01*
X142796206Y-82142335D01*
X142882452Y-82257544D01*
X142882455Y-82257547D01*
X142997664Y-82343793D01*
X142997671Y-82343797D01*
X143132517Y-82394091D01*
X143132516Y-82394091D01*
X143139444Y-82394835D01*
X143192127Y-82400500D01*
X144287872Y-82400499D01*
X144347483Y-82394091D01*
X144396665Y-82375746D01*
X144466355Y-82370761D01*
X144483333Y-82375747D01*
X144532508Y-82394088D01*
X144532511Y-82394088D01*
X144532517Y-82394091D01*
X144592127Y-82400500D01*
X145687872Y-82400499D01*
X145747483Y-82394091D01*
X145796665Y-82375746D01*
X145866355Y-82370761D01*
X145883333Y-82375747D01*
X145932508Y-82394088D01*
X145932511Y-82394088D01*
X145932517Y-82394091D01*
X145992127Y-82400500D01*
X147087872Y-82400499D01*
X147147483Y-82394091D01*
X147196665Y-82375746D01*
X147266355Y-82370761D01*
X147283333Y-82375747D01*
X147332508Y-82394088D01*
X147332511Y-82394088D01*
X147332517Y-82394091D01*
X147392127Y-82400500D01*
X148487872Y-82400499D01*
X148547483Y-82394091D01*
X148596665Y-82375746D01*
X148666355Y-82370761D01*
X148683333Y-82375747D01*
X148732508Y-82394088D01*
X148732511Y-82394088D01*
X148732517Y-82394091D01*
X148792127Y-82400500D01*
X149887872Y-82400499D01*
X149947483Y-82394091D01*
X149996665Y-82375746D01*
X150066355Y-82370761D01*
X150083333Y-82375747D01*
X150132508Y-82394088D01*
X150132511Y-82394088D01*
X150132517Y-82394091D01*
X150192127Y-82400500D01*
X151287872Y-82400499D01*
X151347483Y-82394091D01*
X151396665Y-82375746D01*
X151466355Y-82370761D01*
X151483333Y-82375747D01*
X151532508Y-82394088D01*
X151532511Y-82394088D01*
X151532517Y-82394091D01*
X151592127Y-82400500D01*
X152687872Y-82400499D01*
X152747483Y-82394091D01*
X152797382Y-82375479D01*
X152867069Y-82370494D01*
X152884048Y-82375479D01*
X152932628Y-82393598D01*
X152932627Y-82393598D01*
X152992155Y-82399999D01*
X152992172Y-82400000D01*
X153290000Y-82400000D01*
X153290000Y-80925000D01*
X153790000Y-80925000D01*
X153790000Y-82400000D01*
X154087828Y-82400000D01*
X154087844Y-82399999D01*
X154147372Y-82393598D01*
X154147379Y-82393596D01*
X154282086Y-82343354D01*
X154282093Y-82343350D01*
X154397187Y-82257190D01*
X154397190Y-82257187D01*
X154483350Y-82142093D01*
X154483354Y-82142086D01*
X154533596Y-82007379D01*
X154533598Y-82007372D01*
X154539999Y-81947844D01*
X154540000Y-81947827D01*
X154540000Y-80925000D01*
X153790000Y-80925000D01*
X153290000Y-80925000D01*
X153290000Y-80549000D01*
X153309685Y-80481961D01*
X153362489Y-80436206D01*
X153414000Y-80425000D01*
X154540000Y-80425000D01*
X154540000Y-79503299D01*
X154559685Y-79436260D01*
X154612489Y-79390505D01*
X154663997Y-79379299D01*
X155740500Y-79379299D01*
X155807539Y-79398984D01*
X155853294Y-79451788D01*
X155864500Y-79503299D01*
X155864500Y-81875685D01*
X155844815Y-81942724D01*
X155828181Y-81963366D01*
X153379442Y-84412104D01*
X153318119Y-84445589D01*
X153248427Y-84440605D01*
X153192494Y-84398733D01*
X153168077Y-84333269D01*
X153182929Y-84264996D01*
X153184321Y-84262515D01*
X153227179Y-84188284D01*
X153285674Y-84008256D01*
X153305460Y-83820000D01*
X153285674Y-83631744D01*
X153227179Y-83451716D01*
X153132533Y-83287784D01*
X153005871Y-83147112D01*
X153005870Y-83147111D01*
X152852734Y-83035851D01*
X152852729Y-83035848D01*
X152679807Y-82958857D01*
X152679802Y-82958855D01*
X152534001Y-82927865D01*
X152494646Y-82919500D01*
X152305354Y-82919500D01*
X152272897Y-82926398D01*
X152120197Y-82958855D01*
X152120192Y-82958857D01*
X151947270Y-83035848D01*
X151947265Y-83035851D01*
X151794129Y-83147111D01*
X151667466Y-83287785D01*
X151572821Y-83451715D01*
X151572818Y-83451722D01*
X151514327Y-83631740D01*
X151514326Y-83631744D01*
X151494540Y-83820000D01*
X151514326Y-84008256D01*
X151514327Y-84008259D01*
X151572818Y-84188277D01*
X151572821Y-84188284D01*
X151615624Y-84262422D01*
X151667467Y-84352216D01*
X151740651Y-84433494D01*
X151770880Y-84496484D01*
X151772500Y-84516465D01*
X151772500Y-87626173D01*
X151752815Y-87693212D01*
X151719624Y-87727748D01*
X151528594Y-87861508D01*
X151361505Y-88028597D01*
X151231575Y-88214158D01*
X151176998Y-88257783D01*
X151107500Y-88264977D01*
X151045145Y-88233454D01*
X151028425Y-88214158D01*
X150898494Y-88028597D01*
X150731402Y-87861506D01*
X150731395Y-87861501D01*
X150725378Y-87857288D01*
X150692521Y-87834281D01*
X150537834Y-87725967D01*
X150537830Y-87725965D01*
X150503593Y-87710000D01*
X150323663Y-87626097D01*
X150323659Y-87626096D01*
X150323655Y-87626094D01*
X150095413Y-87564938D01*
X150095403Y-87564936D01*
X149860001Y-87544341D01*
X149859999Y-87544341D01*
X149624596Y-87564936D01*
X149624586Y-87564938D01*
X149396344Y-87626094D01*
X149396335Y-87626098D01*
X149182171Y-87725964D01*
X149182169Y-87725965D01*
X148988597Y-87861505D01*
X148821505Y-88028597D01*
X148687749Y-88219623D01*
X148633172Y-88263248D01*
X148586174Y-88272500D01*
X142871354Y-88272500D01*
X142804315Y-88252815D01*
X142758560Y-88200011D01*
X142753648Y-88187504D01*
X142739729Y-88145500D01*
X142734814Y-88130666D01*
X142642712Y-87981344D01*
X142518656Y-87857288D01*
X142369334Y-87765186D01*
X142202797Y-87710001D01*
X142202795Y-87710000D01*
X142100016Y-87699500D01*
X142100009Y-87699500D01*
X141612000Y-87699500D01*
X141544961Y-87679815D01*
X141499206Y-87627011D01*
X141488000Y-87575500D01*
X141488000Y-85169499D01*
X141507685Y-85102460D01*
X141560489Y-85056705D01*
X141612000Y-85045499D01*
X142162502Y-85045499D01*
X142162508Y-85045499D01*
X142265297Y-85034999D01*
X142431834Y-84979814D01*
X142581156Y-84887712D01*
X142705212Y-84763656D01*
X142797314Y-84614334D01*
X142852499Y-84447797D01*
X142863000Y-84345009D01*
X142862999Y-83294992D01*
X142852499Y-83192203D01*
X142797314Y-83025666D01*
X142705212Y-82876344D01*
X142581156Y-82752288D01*
X142454728Y-82674307D01*
X142431836Y-82660187D01*
X142431831Y-82660185D01*
X142390967Y-82646644D01*
X142265297Y-82605001D01*
X142265295Y-82605000D01*
X142162516Y-82594500D01*
X142162509Y-82594500D01*
X141612000Y-82594500D01*
X141544961Y-82574815D01*
X141499206Y-82522011D01*
X141488000Y-82470500D01*
X141488000Y-81495330D01*
X141489728Y-81479679D01*
X141489446Y-81479653D01*
X141490180Y-81471890D01*
X141488061Y-81404447D01*
X141488000Y-81400553D01*
X141488000Y-81372896D01*
X141488000Y-81372890D01*
X141487493Y-81368885D01*
X141486577Y-81357237D01*
X141486345Y-81349848D01*
X141485201Y-81313424D01*
X141479582Y-81294084D01*
X141475639Y-81275051D01*
X141473116Y-81255073D01*
X141456981Y-81214321D01*
X141453198Y-81203273D01*
X141440967Y-81161173D01*
X141430725Y-81143855D01*
X141422162Y-81126377D01*
X141414753Y-81107663D01*
X141388989Y-81072203D01*
X141382573Y-81062435D01*
X141360265Y-81024713D01*
X141360259Y-81024705D01*
X141346031Y-81010478D01*
X141333396Y-80995686D01*
X141321563Y-80979399D01*
X141321560Y-80979397D01*
X141321560Y-80979396D01*
X141321558Y-80979394D01*
X141287787Y-80951456D01*
X141279147Y-80943594D01*
X138965553Y-78630000D01*
X140615000Y-78630000D01*
X140615000Y-78927844D01*
X140621401Y-78987372D01*
X140621403Y-78987379D01*
X140671645Y-79122086D01*
X140671649Y-79122093D01*
X140757809Y-79237187D01*
X140757812Y-79237190D01*
X140872906Y-79323350D01*
X140872913Y-79323354D01*
X141007620Y-79373596D01*
X141007627Y-79373598D01*
X141067155Y-79379999D01*
X141067172Y-79380000D01*
X142090000Y-79380000D01*
X142090000Y-78630000D01*
X140615000Y-78630000D01*
X138965553Y-78630000D01*
X138337886Y-78002333D01*
X138304401Y-77941010D01*
X138301567Y-77914652D01*
X138301567Y-74878213D01*
X138321252Y-74811174D01*
X138337881Y-74790537D01*
X140402821Y-72725596D01*
X140464142Y-72692113D01*
X140533834Y-72697097D01*
X140589767Y-72738969D01*
X140614184Y-72804433D01*
X140614500Y-72813279D01*
X140614500Y-73327870D01*
X140614501Y-73327876D01*
X140620908Y-73387482D01*
X140634004Y-73422593D01*
X140639252Y-73436665D01*
X140639253Y-73436666D01*
X140644237Y-73506358D01*
X140639253Y-73523331D01*
X140620909Y-73572514D01*
X140620908Y-73572516D01*
X140617321Y-73605888D01*
X140614501Y-73632123D01*
X140614500Y-73632135D01*
X140614500Y-74727870D01*
X140614501Y-74727876D01*
X140620908Y-74787482D01*
X140629745Y-74811174D01*
X140639252Y-74836665D01*
X140639253Y-74836666D01*
X140644237Y-74906358D01*
X140639253Y-74923331D01*
X140620909Y-74972514D01*
X140620908Y-74972516D01*
X140614501Y-75032116D01*
X140614501Y-75032123D01*
X140614500Y-75032135D01*
X140614500Y-75321500D01*
X140594815Y-75388539D01*
X140542011Y-75434294D01*
X140490500Y-75445500D01*
X140233831Y-75445500D01*
X140166792Y-75425815D01*
X140160944Y-75421817D01*
X140152730Y-75415849D01*
X140152729Y-75415848D01*
X139979807Y-75338857D01*
X139979802Y-75338855D01*
X139834001Y-75307865D01*
X139794646Y-75299500D01*
X139605354Y-75299500D01*
X139572897Y-75306398D01*
X139420197Y-75338855D01*
X139420192Y-75338857D01*
X139247270Y-75415848D01*
X139247265Y-75415851D01*
X139094129Y-75527111D01*
X138967466Y-75667785D01*
X138872821Y-75831715D01*
X138872818Y-75831722D01*
X138818437Y-75999092D01*
X138814326Y-76011744D01*
X138794540Y-76200000D01*
X138814326Y-76388256D01*
X138814327Y-76388259D01*
X138872818Y-76568277D01*
X138872821Y-76568284D01*
X138967467Y-76732216D01*
X139076907Y-76853761D01*
X139094129Y-76872888D01*
X139247265Y-76984148D01*
X139247270Y-76984151D01*
X139420192Y-77061142D01*
X139420197Y-77061144D01*
X139605354Y-77100500D01*
X139605355Y-77100500D01*
X139794644Y-77100500D01*
X139794646Y-77100500D01*
X139979803Y-77061144D01*
X140152730Y-76984151D01*
X140160944Y-76978182D01*
X140226750Y-76954702D01*
X140233831Y-76954500D01*
X140490500Y-76954500D01*
X140557539Y-76974185D01*
X140603294Y-77026989D01*
X140614500Y-77078500D01*
X140614500Y-77527870D01*
X140614501Y-77527876D01*
X140620909Y-77587484D01*
X140639519Y-77637382D01*
X140644503Y-77707074D01*
X140639520Y-77724046D01*
X140621402Y-77772623D01*
X140621401Y-77772627D01*
X140615000Y-77832155D01*
X140615000Y-78130000D01*
X144065000Y-78130000D01*
X144065000Y-77832172D01*
X144064999Y-77832155D01*
X144058598Y-77772627D01*
X144040479Y-77724048D01*
X144035495Y-77654356D01*
X144040476Y-77637391D01*
X144059091Y-77587483D01*
X144065500Y-77527873D01*
X144065499Y-76432128D01*
X144059091Y-76372517D01*
X144059090Y-76372514D01*
X144040747Y-76323334D01*
X144035762Y-76253643D01*
X144040747Y-76236665D01*
X144040971Y-76236065D01*
X144059091Y-76187483D01*
X144065500Y-76127873D01*
X144065499Y-75032128D01*
X144059091Y-74972517D01*
X144056274Y-74964965D01*
X144040747Y-74923334D01*
X144035762Y-74853643D01*
X144040747Y-74836665D01*
X144050998Y-74809181D01*
X144059091Y-74787483D01*
X144065500Y-74727873D01*
X144065499Y-73632128D01*
X144059091Y-73572517D01*
X144040747Y-73523334D01*
X144035762Y-73453643D01*
X144040747Y-73436665D01*
X144059089Y-73387488D01*
X144059091Y-73387483D01*
X144065500Y-73327873D01*
X144065499Y-72232128D01*
X144059091Y-72172517D01*
X144050264Y-72148851D01*
X144040747Y-72123334D01*
X144035762Y-72053643D01*
X144040747Y-72036665D01*
X144059091Y-71987483D01*
X144065500Y-71927873D01*
X144065500Y-71927870D01*
X153214500Y-71927870D01*
X153214501Y-71927876D01*
X153220909Y-71987484D01*
X153239519Y-72037382D01*
X153244503Y-72107074D01*
X153239520Y-72124046D01*
X153221402Y-72172623D01*
X153221401Y-72172627D01*
X153215000Y-72232155D01*
X153215000Y-72530000D01*
X156665000Y-72530000D01*
X156665000Y-72232172D01*
X156664999Y-72232155D01*
X156658598Y-72172627D01*
X156640479Y-72124048D01*
X156635495Y-72054356D01*
X156640476Y-72037391D01*
X156659091Y-71987483D01*
X156665500Y-71927873D01*
X156665499Y-71883544D01*
X156685182Y-71816508D01*
X156737985Y-71770752D01*
X156807143Y-71760807D01*
X156870700Y-71789830D01*
X156872472Y-71791396D01*
X156874129Y-71792888D01*
X157027265Y-71904148D01*
X157027270Y-71904151D01*
X157200192Y-71981142D01*
X157200197Y-71981144D01*
X157385354Y-72020500D01*
X157385355Y-72020500D01*
X157574644Y-72020500D01*
X157574646Y-72020500D01*
X157759803Y-71981144D01*
X157932730Y-71904151D01*
X158085871Y-71792888D01*
X158212533Y-71652216D01*
X158307179Y-71488284D01*
X158365674Y-71308256D01*
X158385460Y-71120000D01*
X158365674Y-70931744D01*
X158307179Y-70751716D01*
X158212533Y-70587784D01*
X158085871Y-70447112D01*
X158085870Y-70447111D01*
X157932734Y-70335851D01*
X157932729Y-70335848D01*
X157759807Y-70258857D01*
X157759802Y-70258855D01*
X157614001Y-70227865D01*
X157574646Y-70219500D01*
X157385354Y-70219500D01*
X157352897Y-70226398D01*
X157200197Y-70258855D01*
X157200192Y-70258857D01*
X157027270Y-70335848D01*
X157027265Y-70335851D01*
X156874129Y-70447111D01*
X156871971Y-70449055D01*
X156870449Y-70449785D01*
X156868871Y-70450932D01*
X156868661Y-70450643D01*
X156808978Y-70479284D01*
X156739643Y-70470658D01*
X156685979Y-70425916D01*
X156665022Y-70359263D01*
X156665000Y-70356904D01*
X156665000Y-70230000D01*
X153215000Y-70230000D01*
X153215000Y-70527844D01*
X153221401Y-70587372D01*
X153221403Y-70587383D01*
X153239519Y-70635953D01*
X153244503Y-70705644D01*
X153239520Y-70722616D01*
X153220908Y-70772517D01*
X153215239Y-70825251D01*
X153214501Y-70832123D01*
X153214500Y-70832135D01*
X153214500Y-71927870D01*
X144065500Y-71927870D01*
X144065499Y-70832128D01*
X144059091Y-70772517D01*
X144040480Y-70722618D01*
X144035495Y-70652927D01*
X144040480Y-70635949D01*
X144058597Y-70587375D01*
X144058598Y-70587372D01*
X144064999Y-70527844D01*
X144065000Y-70527827D01*
X144065000Y-70230000D01*
X140615000Y-70230000D01*
X140615000Y-70527844D01*
X140621401Y-70587372D01*
X140621403Y-70587383D01*
X140639519Y-70635953D01*
X140644503Y-70705644D01*
X140639520Y-70722615D01*
X140628080Y-70753290D01*
X140586211Y-70809225D01*
X140557547Y-70825251D01*
X140556298Y-70825745D01*
X140520826Y-70851516D01*
X140511066Y-70857927D01*
X140473346Y-70880234D01*
X140459106Y-70894474D01*
X140444320Y-70907102D01*
X140428033Y-70918936D01*
X140400090Y-70952712D01*
X140392229Y-70961350D01*
X138128784Y-73224795D01*
X138067461Y-73258280D01*
X137997769Y-73253296D01*
X137941836Y-73211424D01*
X137933716Y-73199114D01*
X137911360Y-73160395D01*
X137892533Y-73127784D01*
X137765871Y-72987112D01*
X137747966Y-72974103D01*
X137612734Y-72875851D01*
X137612729Y-72875848D01*
X137439807Y-72798857D01*
X137439802Y-72798855D01*
X137294001Y-72767865D01*
X137254646Y-72759500D01*
X137065354Y-72759500D01*
X137032897Y-72766398D01*
X136880197Y-72798855D01*
X136880192Y-72798857D01*
X136707270Y-72875848D01*
X136707265Y-72875851D01*
X136554129Y-72987111D01*
X136427466Y-73127785D01*
X136332821Y-73291715D01*
X136332818Y-73291722D01*
X136276447Y-73465216D01*
X136274326Y-73471744D01*
X136254540Y-73660000D01*
X136274326Y-73848256D01*
X136274327Y-73848259D01*
X136332818Y-74028277D01*
X136332821Y-74028284D01*
X136427467Y-74192216D01*
X136525135Y-74300687D01*
X136554129Y-74332888D01*
X136707265Y-74444148D01*
X136707270Y-74444151D01*
X136880192Y-74521142D01*
X136880193Y-74521142D01*
X136880197Y-74521144D01*
X136948350Y-74535630D01*
X137009829Y-74568820D01*
X137043606Y-74629983D01*
X137046567Y-74656919D01*
X137046567Y-76411652D01*
X137026882Y-76478691D01*
X136974078Y-76524446D01*
X136904920Y-76534390D01*
X136841364Y-76505365D01*
X136834886Y-76499333D01*
X135423510Y-75087957D01*
X135413665Y-75075668D01*
X135413447Y-75075849D01*
X135408474Y-75069838D01*
X135359287Y-75023648D01*
X135356488Y-75020935D01*
X135336931Y-75001377D01*
X135333741Y-74998903D01*
X135324850Y-74991310D01*
X135292902Y-74961308D01*
X135292897Y-74961304D01*
X135275256Y-74951606D01*
X135258991Y-74940922D01*
X135243097Y-74928593D01*
X135243096Y-74928592D01*
X135202869Y-74911184D01*
X135192381Y-74906045D01*
X135153972Y-74884929D01*
X135153962Y-74884926D01*
X135134468Y-74879920D01*
X135116067Y-74873620D01*
X135097593Y-74865626D01*
X135097586Y-74865624D01*
X135054307Y-74858770D01*
X135042867Y-74856401D01*
X135000413Y-74845500D01*
X135000406Y-74845500D01*
X134980276Y-74845500D01*
X134960877Y-74843973D01*
X134941002Y-74840825D01*
X134941001Y-74840825D01*
X134897364Y-74844950D01*
X134885695Y-74845500D01*
X133980281Y-74845500D01*
X133913242Y-74825815D01*
X133892600Y-74809181D01*
X133425599Y-74342180D01*
X133392114Y-74280857D01*
X133397098Y-74211165D01*
X133438970Y-74155232D01*
X133504434Y-74130815D01*
X133513258Y-74130499D01*
X134002872Y-74130499D01*
X134062483Y-74124091D01*
X134062486Y-74124089D01*
X134066744Y-74123632D01*
X134093254Y-74123632D01*
X134097514Y-74124089D01*
X134097517Y-74124091D01*
X134157127Y-74130500D01*
X134802872Y-74130499D01*
X134862483Y-74124091D01*
X134997331Y-74073796D01*
X135112546Y-73987546D01*
X135198796Y-73872331D01*
X135249091Y-73737483D01*
X135255500Y-73677873D01*
X135255499Y-72279498D01*
X135275184Y-72212460D01*
X135327987Y-72166705D01*
X135379499Y-72155499D01*
X136777871Y-72155499D01*
X136777872Y-72155499D01*
X136837483Y-72149091D01*
X136972331Y-72098796D01*
X137087546Y-72012546D01*
X137173796Y-71897331D01*
X137224091Y-71762483D01*
X137230500Y-71702873D01*
X137230499Y-71057128D01*
X137224091Y-70997517D01*
X137224089Y-70997513D01*
X137223632Y-70993255D01*
X137223632Y-70966745D01*
X137224089Y-70962486D01*
X137224091Y-70962483D01*
X137230500Y-70902873D01*
X137230499Y-70257128D01*
X137224091Y-70197517D01*
X137224090Y-70197516D01*
X137223380Y-70190904D01*
X137223381Y-70164393D01*
X137229999Y-70102842D01*
X137230000Y-70102827D01*
X137230000Y-70030000D01*
X137211409Y-70030000D01*
X137144370Y-70010315D01*
X137112144Y-69980313D01*
X137087546Y-69947454D01*
X136996457Y-69879265D01*
X136954588Y-69823333D01*
X136949604Y-69753641D01*
X136983089Y-69692318D01*
X136996452Y-69680738D01*
X137087546Y-69612546D01*
X137112143Y-69579687D01*
X137168076Y-69537818D01*
X137211409Y-69530000D01*
X137230000Y-69530000D01*
X137230000Y-69457172D01*
X137229999Y-69457160D01*
X137223380Y-69395604D01*
X137223380Y-69369090D01*
X137224090Y-69362485D01*
X137224091Y-69362483D01*
X137230500Y-69302873D01*
X137230499Y-68657128D01*
X137224091Y-68597517D01*
X137224090Y-68597516D01*
X137223380Y-68590904D01*
X137223381Y-68564393D01*
X137229999Y-68502842D01*
X137230000Y-68502827D01*
X137230000Y-68430000D01*
X137211409Y-68430000D01*
X137144370Y-68410315D01*
X137112144Y-68380313D01*
X137087546Y-68347454D01*
X136996457Y-68279265D01*
X136954588Y-68223333D01*
X136949604Y-68153641D01*
X136983089Y-68092318D01*
X136996452Y-68080738D01*
X137087546Y-68012546D01*
X137112143Y-67979687D01*
X137168076Y-67937818D01*
X137211409Y-67930000D01*
X137230000Y-67930000D01*
X137230000Y-67857172D01*
X137229999Y-67857160D01*
X137223380Y-67795604D01*
X137223380Y-67769090D01*
X137224090Y-67762485D01*
X137224091Y-67762483D01*
X137230500Y-67702873D01*
X137230499Y-67331634D01*
X137250183Y-67264596D01*
X137302987Y-67218841D01*
X137350620Y-67207696D01*
X137350843Y-67207689D01*
X137354935Y-67207561D01*
X137358813Y-67207500D01*
X137386472Y-67207500D01*
X137386476Y-67207500D01*
X137390474Y-67206994D01*
X137402114Y-67206077D01*
X137445943Y-67204701D01*
X137465272Y-67199084D01*
X137484328Y-67195137D01*
X137504293Y-67192616D01*
X137545055Y-67176476D01*
X137556092Y-67172698D01*
X137598191Y-67160468D01*
X137615515Y-67150221D01*
X137632983Y-67141663D01*
X137651703Y-67134253D01*
X137687177Y-67108478D01*
X137696915Y-67102081D01*
X137734656Y-67079763D01*
X137748897Y-67065520D01*
X137763678Y-67052897D01*
X137779967Y-67041063D01*
X137807900Y-67007296D01*
X137815764Y-66998654D01*
X137837602Y-66976817D01*
X137898926Y-66943333D01*
X137925281Y-66940500D01*
X137981644Y-66940500D01*
X137981646Y-66940500D01*
X138166803Y-66901144D01*
X138339730Y-66824151D01*
X138492871Y-66712888D01*
X138619533Y-66572216D01*
X138714179Y-66408284D01*
X138772674Y-66228256D01*
X138792460Y-66040000D01*
X138772674Y-65851744D01*
X138714179Y-65671716D01*
X138619533Y-65507784D01*
X138492871Y-65367112D01*
X138492870Y-65367111D01*
X138339734Y-65255851D01*
X138339729Y-65255848D01*
X138166807Y-65178857D01*
X138166806Y-65178856D01*
X138161030Y-65177629D01*
X138099549Y-65144434D01*
X138065774Y-65083270D01*
X138063494Y-65043375D01*
X138066678Y-65013087D01*
X138066678Y-65013086D01*
X138064598Y-64993294D01*
X138046892Y-64824828D01*
X137988397Y-64644800D01*
X137893751Y-64480868D01*
X137767089Y-64340196D01*
X137767088Y-64340195D01*
X137613952Y-64228935D01*
X137613947Y-64228932D01*
X137441025Y-64151941D01*
X137441020Y-64151939D01*
X137295219Y-64120949D01*
X137255864Y-64112584D01*
X137066572Y-64112584D01*
X137034115Y-64119482D01*
X136881415Y-64151939D01*
X136881410Y-64151941D01*
X136708488Y-64228932D01*
X136708483Y-64228935D01*
X136555347Y-64340195D01*
X136428684Y-64480869D01*
X136334039Y-64644799D01*
X136334036Y-64644806D01*
X136277129Y-64819950D01*
X136275544Y-64824828D01*
X136268330Y-64893464D01*
X136241746Y-64958076D01*
X136184449Y-64998061D01*
X136145010Y-65004500D01*
X135379499Y-65004500D01*
X135312460Y-64984815D01*
X135266705Y-64932011D01*
X135255499Y-64880500D01*
X135255499Y-63482129D01*
X135255498Y-63482123D01*
X135249091Y-63422516D01*
X135198797Y-63287671D01*
X135198793Y-63287664D01*
X135112547Y-63172455D01*
X135112544Y-63172452D01*
X134997335Y-63086206D01*
X134997328Y-63086202D01*
X134862486Y-63035910D01*
X134862485Y-63035909D01*
X134862483Y-63035909D01*
X134802873Y-63029500D01*
X134802863Y-63029500D01*
X134157129Y-63029500D01*
X134157120Y-63029501D01*
X134093248Y-63036367D01*
X134066742Y-63036367D01*
X134062483Y-63035909D01*
X134002873Y-63029500D01*
X134002864Y-63029500D01*
X133357129Y-63029500D01*
X133357120Y-63029501D01*
X133293248Y-63036367D01*
X133266742Y-63036367D01*
X133262483Y-63035909D01*
X133202873Y-63029500D01*
X133202864Y-63029500D01*
X132557129Y-63029500D01*
X132557120Y-63029501D01*
X132493248Y-63036367D01*
X132466742Y-63036367D01*
X132462483Y-63035909D01*
X132402873Y-63029500D01*
X132402864Y-63029500D01*
X131757129Y-63029500D01*
X131757120Y-63029501D01*
X131693248Y-63036367D01*
X131666742Y-63036367D01*
X131662483Y-63035909D01*
X131602873Y-63029500D01*
X131602864Y-63029500D01*
X130957129Y-63029500D01*
X130957120Y-63029501D01*
X130893248Y-63036367D01*
X130866742Y-63036367D01*
X130862483Y-63035909D01*
X130802873Y-63029500D01*
X130802867Y-63029500D01*
X130431500Y-63029500D01*
X130364461Y-63009815D01*
X130318706Y-62957011D01*
X130307500Y-62905500D01*
X130307500Y-62190385D01*
X130327185Y-62123346D01*
X130343819Y-62102704D01*
X130368704Y-62077819D01*
X130430027Y-62044334D01*
X130456385Y-62041500D01*
X134083033Y-62041500D01*
X134098681Y-62043227D01*
X134098708Y-62042946D01*
X134106475Y-62043680D01*
X134106476Y-62043679D01*
X134106477Y-62043680D01*
X134173919Y-62041561D01*
X134177813Y-62041500D01*
X134205472Y-62041500D01*
X134205476Y-62041500D01*
X134209474Y-62040994D01*
X134221114Y-62040077D01*
X134264943Y-62038701D01*
X134284272Y-62033084D01*
X134303328Y-62029137D01*
X134323293Y-62026616D01*
X134364055Y-62010476D01*
X134375092Y-62006698D01*
X134417191Y-61994468D01*
X134434515Y-61984221D01*
X134451983Y-61975663D01*
X134470703Y-61968253D01*
X134506177Y-61942478D01*
X134515915Y-61936081D01*
X134553656Y-61913763D01*
X134567897Y-61899520D01*
X134582678Y-61886897D01*
X134598967Y-61875063D01*
X134626904Y-61841290D01*
X134634756Y-61832661D01*
X136415601Y-60051816D01*
X136476922Y-60018333D01*
X136503270Y-60015499D01*
X137830008Y-60015499D01*
X137932797Y-60004999D01*
X138099334Y-59949814D01*
X138248656Y-59857712D01*
X138372712Y-59733656D01*
X138464814Y-59584334D01*
X138519999Y-59417797D01*
X138530500Y-59315009D01*
X138530499Y-57988279D01*
X138550184Y-57921241D01*
X138566813Y-57900604D01*
X139538320Y-56929098D01*
X139599642Y-56895614D01*
X139669334Y-56900598D01*
X139725267Y-56942470D01*
X139749684Y-57007934D01*
X139750000Y-57016780D01*
X139750000Y-68058800D01*
X140490500Y-68058800D01*
X140557539Y-68078485D01*
X140603294Y-68131289D01*
X140614500Y-68182800D01*
X140614500Y-69127870D01*
X140614501Y-69127876D01*
X140620909Y-69187484D01*
X140639519Y-69237382D01*
X140644503Y-69307074D01*
X140639520Y-69324046D01*
X140621402Y-69372623D01*
X140621401Y-69372627D01*
X140615000Y-69432155D01*
X140615000Y-69730000D01*
X144065000Y-69730000D01*
X144065000Y-69432172D01*
X144064999Y-69432155D01*
X144058598Y-69372627D01*
X144040479Y-69324048D01*
X144035495Y-69254356D01*
X144040476Y-69237391D01*
X144059091Y-69187483D01*
X144065500Y-69127873D01*
X144065500Y-68830000D01*
X153215000Y-68830000D01*
X153215000Y-69127844D01*
X153221401Y-69187372D01*
X153221403Y-69187380D01*
X153239786Y-69236667D01*
X153244770Y-69306359D01*
X153239786Y-69323333D01*
X153221403Y-69372619D01*
X153221401Y-69372627D01*
X153215000Y-69432155D01*
X153215000Y-69730000D01*
X154690000Y-69730000D01*
X154690000Y-68830000D01*
X155190000Y-68830000D01*
X155190000Y-69730000D01*
X156665000Y-69730000D01*
X156665000Y-69432172D01*
X156664999Y-69432155D01*
X156658597Y-69372622D01*
X156658597Y-69372621D01*
X156640214Y-69323335D01*
X156635228Y-69253644D01*
X156640214Y-69236665D01*
X156658597Y-69187378D01*
X156658597Y-69187377D01*
X156664999Y-69127844D01*
X156665000Y-69127827D01*
X156665000Y-68830000D01*
X155190000Y-68830000D01*
X154690000Y-68830000D01*
X153215000Y-68830000D01*
X144065500Y-68830000D01*
X144065499Y-68182799D01*
X144085183Y-68115761D01*
X144137987Y-68070006D01*
X144189499Y-68058800D01*
X153091000Y-68058800D01*
X153158039Y-68078485D01*
X153203794Y-68131289D01*
X153215000Y-68182800D01*
X153215000Y-68330000D01*
X156665000Y-68330000D01*
X156665000Y-68182800D01*
X156684685Y-68115761D01*
X156737489Y-68070006D01*
X156789000Y-68058800D01*
X157530000Y-68058800D01*
X157530000Y-56678800D01*
X140087981Y-56678800D01*
X140020942Y-56659115D01*
X139975187Y-56606311D01*
X139965243Y-56537153D01*
X139994268Y-56473597D01*
X140000300Y-56467119D01*
X142190600Y-54276819D01*
X142251923Y-54243334D01*
X142278281Y-54240500D01*
X142334644Y-54240500D01*
X142334646Y-54240500D01*
X142519803Y-54201144D01*
X142692730Y-54124151D01*
X142845871Y-54012888D01*
X142972533Y-53872216D01*
X143067179Y-53708284D01*
X143125674Y-53528256D01*
X143145460Y-53340000D01*
X143125674Y-53151744D01*
X143067179Y-52971716D01*
X142972533Y-52807784D01*
X142845871Y-52667112D01*
X142845870Y-52667111D01*
X142692734Y-52555851D01*
X142692729Y-52555848D01*
X142519807Y-52478857D01*
X142519802Y-52478855D01*
X142374001Y-52447865D01*
X142334646Y-52439500D01*
X142145354Y-52439500D01*
X142112897Y-52446398D01*
X141960197Y-52478855D01*
X141960192Y-52478857D01*
X141787270Y-52555848D01*
X141787265Y-52555851D01*
X141634129Y-52667111D01*
X141507466Y-52807785D01*
X141412821Y-52971715D01*
X141412818Y-52971722D01*
X141354327Y-53151740D01*
X141354326Y-53151744D01*
X141338203Y-53305143D01*
X141337011Y-53316489D01*
X141310426Y-53381103D01*
X141301371Y-53391208D01*
X139312344Y-55380237D01*
X137904399Y-56788181D01*
X137843076Y-56821666D01*
X137816718Y-56824500D01*
X137773662Y-56824500D01*
X137706623Y-56804815D01*
X137660868Y-56752011D01*
X137650924Y-56682853D01*
X137679949Y-56619297D01*
X137700776Y-56600182D01*
X137765871Y-56552888D01*
X137892533Y-56412216D01*
X137987179Y-56248284D01*
X138045674Y-56068256D01*
X138065460Y-55880000D01*
X138045674Y-55691744D01*
X137987179Y-55511716D01*
X137892533Y-55347784D01*
X137765871Y-55207112D01*
X137765870Y-55207111D01*
X137612734Y-55095851D01*
X137612729Y-55095848D01*
X137439807Y-55018857D01*
X137439802Y-55018855D01*
X137294001Y-54987865D01*
X137254646Y-54979500D01*
X137065354Y-54979500D01*
X137032897Y-54986398D01*
X136880197Y-55018855D01*
X136880192Y-55018857D01*
X136707270Y-55095848D01*
X136707265Y-55095851D01*
X136554129Y-55207111D01*
X136427466Y-55347785D01*
X136332821Y-55511715D01*
X136332818Y-55511722D01*
X136274327Y-55691740D01*
X136274326Y-55691744D01*
X136258203Y-55845143D01*
X136257011Y-55856489D01*
X136230426Y-55921103D01*
X136221371Y-55931208D01*
X135262813Y-56889766D01*
X135201490Y-56923251D01*
X135138353Y-56918735D01*
X135137883Y-56920273D01*
X135132850Y-56918731D01*
X135132847Y-56918730D01*
X134909780Y-56850417D01*
X134909778Y-56850416D01*
X134909776Y-56850416D01*
X134678370Y-56820783D01*
X134445299Y-56830685D01*
X134445290Y-56830686D01*
X134217233Y-56879836D01*
X134217230Y-56879837D01*
X134000768Y-56966819D01*
X133802110Y-57089137D01*
X133626980Y-57243270D01*
X133626977Y-57243273D01*
X133480426Y-57424773D01*
X133480421Y-57424779D01*
X133457895Y-57465103D01*
X133408014Y-57514029D01*
X133339601Y-57528220D01*
X133274375Y-57503171D01*
X133246907Y-57474064D01*
X133150153Y-57330912D01*
X132988728Y-57162484D01*
X132988727Y-57162483D01*
X132988726Y-57162482D01*
X132801165Y-57023762D01*
X132775673Y-57010909D01*
X132724675Y-56963150D01*
X132707500Y-56900187D01*
X132707500Y-56576465D01*
X132727185Y-56509426D01*
X132739343Y-56493500D01*
X132812533Y-56412216D01*
X132907179Y-56248284D01*
X132965674Y-56068256D01*
X132985460Y-55880000D01*
X132965674Y-55691744D01*
X132907179Y-55511716D01*
X132812533Y-55347784D01*
X132685871Y-55207112D01*
X132685870Y-55207111D01*
X132532734Y-55095851D01*
X132532729Y-55095848D01*
X132359807Y-55018857D01*
X132359802Y-55018855D01*
X132214001Y-54987865D01*
X132174646Y-54979500D01*
X131985354Y-54979500D01*
X131952897Y-54986398D01*
X131800197Y-55018855D01*
X131800192Y-55018857D01*
X131627270Y-55095848D01*
X131627265Y-55095851D01*
X131474129Y-55207111D01*
X131347466Y-55347785D01*
X131252821Y-55511715D01*
X131252818Y-55511722D01*
X131194327Y-55691740D01*
X131194326Y-55691744D01*
X131174540Y-55880000D01*
X131194326Y-56068256D01*
X131194327Y-56068259D01*
X131252818Y-56248277D01*
X131252821Y-56248284D01*
X131347467Y-56412216D01*
X131420651Y-56493494D01*
X131450880Y-56556484D01*
X131452500Y-56576465D01*
X131452500Y-56902638D01*
X131432815Y-56969677D01*
X131393514Y-57008227D01*
X131262113Y-57089133D01*
X131262112Y-57089134D01*
X131086981Y-57243269D01*
X131086977Y-57243273D01*
X130940426Y-57424773D01*
X130940421Y-57424779D01*
X130917895Y-57465103D01*
X130868014Y-57514029D01*
X130799601Y-57528220D01*
X130734375Y-57503171D01*
X130706907Y-57474064D01*
X130610153Y-57330912D01*
X130448728Y-57162484D01*
X130448727Y-57162483D01*
X130448726Y-57162482D01*
X130261165Y-57023762D01*
X130153894Y-56969677D01*
X130052847Y-56918730D01*
X129829780Y-56850417D01*
X129829778Y-56850416D01*
X129829776Y-56850416D01*
X129598370Y-56820783D01*
X129365299Y-56830685D01*
X129365290Y-56830686D01*
X129137233Y-56879836D01*
X129137230Y-56879837D01*
X128920768Y-56966819D01*
X128722110Y-57089137D01*
X128546980Y-57243270D01*
X128546977Y-57243273D01*
X128400426Y-57424773D01*
X128400421Y-57424779D01*
X128377895Y-57465103D01*
X128328014Y-57514029D01*
X128259601Y-57528220D01*
X128194375Y-57503171D01*
X128166907Y-57474064D01*
X128070153Y-57330912D01*
X127908728Y-57162484D01*
X127908727Y-57162483D01*
X127908726Y-57162482D01*
X127721165Y-57023762D01*
X127695673Y-57010909D01*
X127644675Y-56963150D01*
X127627500Y-56900187D01*
X127627500Y-54036465D01*
X127647185Y-53969426D01*
X127659343Y-53953500D01*
X127732533Y-53872216D01*
X127827179Y-53708284D01*
X127885674Y-53528256D01*
X127905460Y-53340000D01*
X127885674Y-53151744D01*
X127827179Y-52971716D01*
X127732533Y-52807784D01*
X127605871Y-52667112D01*
X127605870Y-52667111D01*
X127452734Y-52555851D01*
X127452729Y-52555848D01*
X127279807Y-52478857D01*
X127279802Y-52478855D01*
X127134001Y-52447865D01*
X127094646Y-52439500D01*
X126905354Y-52439500D01*
X126872897Y-52446398D01*
X126720197Y-52478855D01*
X126720192Y-52478857D01*
X126547270Y-52555848D01*
X126547265Y-52555851D01*
X126394129Y-52667111D01*
X126267466Y-52807785D01*
X126172821Y-52971715D01*
X126172818Y-52971722D01*
X126114327Y-53151740D01*
X126114326Y-53151744D01*
X126094540Y-53340000D01*
X126114326Y-53528256D01*
X126114327Y-53528259D01*
X126172818Y-53708277D01*
X126172821Y-53708284D01*
X126267467Y-53872216D01*
X126340651Y-53953494D01*
X126370880Y-54016484D01*
X126372500Y-54036465D01*
X126372500Y-56902638D01*
X126352815Y-56969677D01*
X126313514Y-57008227D01*
X126182113Y-57089133D01*
X126182112Y-57089134D01*
X126006981Y-57243269D01*
X126006977Y-57243273D01*
X125860426Y-57424773D01*
X125860421Y-57424779D01*
X125746646Y-57628445D01*
X125668929Y-57848408D01*
X125668926Y-57848420D01*
X125629500Y-58078344D01*
X125629500Y-58703234D01*
X125644328Y-58877446D01*
X125644329Y-58877448D01*
X125703114Y-59103218D01*
X125799208Y-59315802D01*
X125929847Y-59509088D01*
X125929849Y-59509090D01*
X126091272Y-59677516D01*
X126091273Y-59677517D01*
X126278834Y-59816237D01*
X126278836Y-59816238D01*
X126278839Y-59816240D01*
X126487153Y-59921270D01*
X126544656Y-59938880D01*
X126602992Y-59977331D01*
X126631280Y-60041219D01*
X126620537Y-60110257D01*
X126574174Y-60162528D01*
X126558785Y-60170722D01*
X126547269Y-60175849D01*
X126547265Y-60175851D01*
X126394129Y-60287111D01*
X126267466Y-60427785D01*
X126172821Y-60591715D01*
X126172818Y-60591722D01*
X126114327Y-60771740D01*
X126114326Y-60771744D01*
X126094540Y-60960000D01*
X126114326Y-61148256D01*
X126114327Y-61148259D01*
X126172818Y-61328277D01*
X126172821Y-61328284D01*
X126267467Y-61492216D01*
X126394129Y-61632888D01*
X126547265Y-61744148D01*
X126547270Y-61744151D01*
X126720192Y-61821142D01*
X126720197Y-61821144D01*
X126905354Y-61860500D01*
X126905355Y-61860500D01*
X127094644Y-61860500D01*
X127094646Y-61860500D01*
X127234341Y-61830807D01*
X127304006Y-61836123D01*
X127359740Y-61878260D01*
X127383845Y-61943840D01*
X127368668Y-62012041D01*
X127347801Y-62039778D01*
X127044953Y-62342626D01*
X127032669Y-62352469D01*
X127032849Y-62352687D01*
X127026837Y-62357660D01*
X126980646Y-62406847D01*
X126977941Y-62409638D01*
X126958379Y-62429200D01*
X126958375Y-62429205D01*
X126955895Y-62432403D01*
X126948317Y-62441274D01*
X126918308Y-62473230D01*
X126918305Y-62473234D01*
X126908606Y-62490877D01*
X126897928Y-62507133D01*
X126885594Y-62523034D01*
X126885589Y-62523042D01*
X126868185Y-62563262D01*
X126863046Y-62573752D01*
X126841927Y-62612167D01*
X126836920Y-62631668D01*
X126830621Y-62650064D01*
X126823893Y-62665612D01*
X126822625Y-62668544D01*
X126822624Y-62668546D01*
X126815769Y-62711831D01*
X126813401Y-62723267D01*
X126802500Y-62765723D01*
X126802500Y-62785858D01*
X126800973Y-62805257D01*
X126797825Y-62825131D01*
X126801950Y-62868767D01*
X126802500Y-62880437D01*
X126802500Y-64880500D01*
X126782815Y-64947539D01*
X126730011Y-64993294D01*
X126678501Y-65004500D01*
X126582130Y-65004500D01*
X126582123Y-65004501D01*
X126522516Y-65010908D01*
X126387671Y-65061202D01*
X126387664Y-65061206D01*
X126272455Y-65147452D01*
X126272452Y-65147455D01*
X126186206Y-65262664D01*
X126186202Y-65262671D01*
X126147249Y-65367112D01*
X126135909Y-65397517D01*
X126129500Y-65457127D01*
X126129500Y-65637585D01*
X126129501Y-65701499D01*
X126109817Y-65768539D01*
X126057013Y-65814294D01*
X126005501Y-65825500D01*
X123180831Y-65825500D01*
X123113792Y-65805815D01*
X123107944Y-65801817D01*
X123099730Y-65795849D01*
X123099729Y-65795848D01*
X122926807Y-65718857D01*
X122926802Y-65718855D01*
X122750368Y-65681354D01*
X122741646Y-65679500D01*
X122552354Y-65679500D01*
X122543632Y-65681354D01*
X122367197Y-65718855D01*
X122367192Y-65718857D01*
X122194270Y-65795848D01*
X122194265Y-65795851D01*
X122041129Y-65907111D01*
X121914466Y-66047785D01*
X121819821Y-66211715D01*
X121819818Y-66211722D01*
X121761327Y-66391740D01*
X121761326Y-66391744D01*
X121741540Y-66580000D01*
X121761326Y-66768256D01*
X121761327Y-66768259D01*
X121819818Y-66948277D01*
X121819821Y-66948284D01*
X121914467Y-67112216D01*
X122000438Y-67207696D01*
X122041129Y-67252888D01*
X122194265Y-67364148D01*
X122194270Y-67364151D01*
X122367192Y-67441142D01*
X122367197Y-67441144D01*
X122552354Y-67480500D01*
X122552355Y-67480500D01*
X122741644Y-67480500D01*
X122741646Y-67480500D01*
X122926803Y-67441144D01*
X123099730Y-67364151D01*
X123107944Y-67358182D01*
X123173750Y-67334702D01*
X123180831Y-67334500D01*
X126005500Y-67334500D01*
X126072539Y-67354185D01*
X126118294Y-67406989D01*
X126129500Y-67458499D01*
X126129500Y-67702869D01*
X126129501Y-67702879D01*
X126136367Y-67766751D01*
X126136367Y-67793257D01*
X126135909Y-67797516D01*
X126135909Y-67797517D01*
X126129500Y-67857127D01*
X126129500Y-67857129D01*
X126129500Y-67857133D01*
X126129500Y-68502870D01*
X126129501Y-68502876D01*
X126136619Y-68569092D01*
X126136619Y-68595599D01*
X126130000Y-68657169D01*
X126130000Y-68730000D01*
X126148591Y-68730000D01*
X126215630Y-68749685D01*
X126247855Y-68779686D01*
X126272454Y-68812546D01*
X126272455Y-68812546D01*
X126272456Y-68812548D01*
X126363540Y-68880734D01*
X126405411Y-68936668D01*
X126410395Y-69006359D01*
X126376909Y-69067682D01*
X126363540Y-69079266D01*
X126272456Y-69147451D01*
X126266472Y-69155443D01*
X126247856Y-69180312D01*
X126191924Y-69222182D01*
X126148591Y-69230000D01*
X126130000Y-69230000D01*
X126130000Y-69302844D01*
X126136619Y-69364398D01*
X126136620Y-69390909D01*
X126135909Y-69397514D01*
X126135909Y-69397517D01*
X126129500Y-69457127D01*
X126129500Y-69457134D01*
X126129500Y-69457135D01*
X126129500Y-70102870D01*
X126129501Y-70102879D01*
X126136367Y-70166751D01*
X126136367Y-70193257D01*
X126135909Y-70197516D01*
X126135909Y-70197517D01*
X126129500Y-70257127D01*
X126129500Y-70257129D01*
X126129500Y-70257133D01*
X126129500Y-70902870D01*
X126129501Y-70902879D01*
X126136367Y-70966751D01*
X126136367Y-70993257D01*
X126135909Y-70997516D01*
X126135909Y-70997517D01*
X126129500Y-71057127D01*
X126129500Y-71057129D01*
X126129500Y-71057133D01*
X126129500Y-71702870D01*
X126129501Y-71702876D01*
X126135908Y-71762483D01*
X126186202Y-71897328D01*
X126186206Y-71897335D01*
X126272452Y-72012544D01*
X126272455Y-72012547D01*
X126387664Y-72098793D01*
X126387671Y-72098797D01*
X126522517Y-72149091D01*
X126522516Y-72149091D01*
X126529444Y-72149835D01*
X126582127Y-72155500D01*
X127980500Y-72155499D01*
X128047539Y-72175184D01*
X128093294Y-72227987D01*
X128104500Y-72279499D01*
X128104500Y-73677870D01*
X128104501Y-73677876D01*
X128110908Y-73737483D01*
X128161202Y-73872328D01*
X128161206Y-73872335D01*
X128247452Y-73987544D01*
X128247455Y-73987547D01*
X128362664Y-74073793D01*
X128362671Y-74073797D01*
X128394647Y-74085723D01*
X128497517Y-74124091D01*
X128557127Y-74130500D01*
X129202872Y-74130499D01*
X129262483Y-74124091D01*
X129262486Y-74124089D01*
X129266744Y-74123632D01*
X129293254Y-74123632D01*
X129297514Y-74124089D01*
X129297517Y-74124091D01*
X129357127Y-74130500D01*
X130002872Y-74130499D01*
X130062483Y-74124091D01*
X130062486Y-74124089D01*
X130066744Y-74123632D01*
X130093254Y-74123632D01*
X130097514Y-74124089D01*
X130097517Y-74124091D01*
X130157127Y-74130500D01*
X130802872Y-74130499D01*
X130862483Y-74124091D01*
X130862486Y-74124089D01*
X130866744Y-74123632D01*
X130893254Y-74123632D01*
X130897514Y-74124089D01*
X130897517Y-74124091D01*
X130957127Y-74130500D01*
X131420415Y-74130499D01*
X131487454Y-74150183D01*
X131519001Y-74183960D01*
X131521161Y-74182391D01*
X131551511Y-74224164D01*
X131557925Y-74233929D01*
X131580234Y-74271652D01*
X131580240Y-74271660D01*
X131594469Y-74285888D01*
X131607106Y-74300684D01*
X131618937Y-74316967D01*
X131652717Y-74344912D01*
X131661346Y-74352765D01*
X133166624Y-75858043D01*
X133176471Y-75870333D01*
X133176689Y-75870154D01*
X133181657Y-75876159D01*
X133230846Y-75922351D01*
X133233643Y-75925062D01*
X133253207Y-75944626D01*
X133256385Y-75947090D01*
X133265281Y-75954687D01*
X133297235Y-75984695D01*
X133297237Y-75984696D01*
X133314867Y-75994387D01*
X133331135Y-76005072D01*
X133347038Y-76017408D01*
X133347040Y-76017409D01*
X133347042Y-76017410D01*
X133366942Y-76026021D01*
X133387260Y-76034813D01*
X133397749Y-76039951D01*
X133436166Y-76061072D01*
X133455667Y-76066079D01*
X133474065Y-76072378D01*
X133492541Y-76080373D01*
X133535849Y-76087232D01*
X133547243Y-76089591D01*
X133589728Y-76100500D01*
X133609864Y-76100500D01*
X133629263Y-76102027D01*
X133649133Y-76105174D01*
X133692761Y-76101049D01*
X133704430Y-76100500D01*
X134609853Y-76100500D01*
X134676892Y-76120185D01*
X134697534Y-76136819D01*
X137188537Y-78627822D01*
X137201169Y-78642611D01*
X137208277Y-78652395D01*
X137213002Y-78658898D01*
X137213003Y-78658899D01*
X137213004Y-78658900D01*
X137246784Y-78686845D01*
X137255413Y-78694698D01*
X139045840Y-80485125D01*
X139079325Y-80546448D01*
X139074341Y-80616140D01*
X139050309Y-80655778D01*
X138967466Y-80747784D01*
X138872821Y-80911715D01*
X138872818Y-80911722D01*
X138823849Y-81062435D01*
X138814326Y-81091744D01*
X138794540Y-81280000D01*
X138814326Y-81468256D01*
X138814327Y-81468259D01*
X138872818Y-81648277D01*
X138872821Y-81648284D01*
X138924096Y-81737095D01*
X138928887Y-81745392D01*
X138945500Y-81807392D01*
X138945500Y-82651410D01*
X138925815Y-82718449D01*
X138898416Y-82748672D01*
X138893845Y-82752286D01*
X138769789Y-82876342D01*
X138677687Y-83025663D01*
X138677685Y-83025668D01*
X138674311Y-83035851D01*
X138622501Y-83192203D01*
X138622501Y-83192204D01*
X138622500Y-83192204D01*
X138612000Y-83294983D01*
X138612000Y-84345001D01*
X138612001Y-84345019D01*
X138622500Y-84447796D01*
X138622501Y-84447799D01*
X138677685Y-84614331D01*
X138677687Y-84614336D01*
X138709076Y-84665225D01*
X138769788Y-84763656D01*
X138893844Y-84887712D01*
X139043166Y-84979814D01*
X139209703Y-85034999D01*
X139312491Y-85045500D01*
X140087508Y-85045499D01*
X140087516Y-85045498D01*
X140087519Y-85045498D01*
X140096399Y-85044591D01*
X140165091Y-85057361D01*
X140215976Y-85105242D01*
X140233000Y-85167949D01*
X140233000Y-87575797D01*
X140213315Y-87642836D01*
X140160511Y-87688591D01*
X140102696Y-87699637D01*
X140100013Y-87699500D01*
X140100009Y-87699500D01*
X140100004Y-87699500D01*
X139299998Y-87699500D01*
X139299980Y-87699501D01*
X139197203Y-87710000D01*
X139197200Y-87710001D01*
X139030668Y-87765185D01*
X139030663Y-87765187D01*
X138881342Y-87857289D01*
X138757289Y-87981342D01*
X138692368Y-88086597D01*
X138640420Y-88133321D01*
X138586829Y-88145500D01*
X137988886Y-88145500D01*
X137921847Y-88125815D01*
X137901205Y-88109181D01*
X137577341Y-87785317D01*
X137543856Y-87723994D01*
X137548840Y-87654302D01*
X137590712Y-87598369D01*
X137643937Y-87577595D01*
X137643579Y-87575923D01*
X137650192Y-87574507D01*
X137816619Y-87519358D01*
X137816624Y-87519356D01*
X137965845Y-87427315D01*
X138089815Y-87303345D01*
X138181856Y-87154124D01*
X138181858Y-87154119D01*
X138237005Y-86987697D01*
X138237006Y-86987690D01*
X138247499Y-86884986D01*
X138247500Y-86884973D01*
X138247500Y-86610000D01*
X137034000Y-86610000D01*
X136966961Y-86590315D01*
X136921206Y-86537511D01*
X136910000Y-86486000D01*
X136910000Y-85188385D01*
X136925676Y-85135000D01*
X137410000Y-85135000D01*
X137410000Y-86110000D01*
X138247499Y-86110000D01*
X138247499Y-85835028D01*
X138247498Y-85835013D01*
X138237005Y-85732302D01*
X138181858Y-85565880D01*
X138181856Y-85565875D01*
X138089815Y-85416654D01*
X137965845Y-85292684D01*
X137816624Y-85200643D01*
X137816619Y-85200641D01*
X137650197Y-85145494D01*
X137650190Y-85145493D01*
X137547486Y-85135000D01*
X137410000Y-85135000D01*
X136925676Y-85135000D01*
X136929685Y-85121346D01*
X136946319Y-85100704D01*
X137131746Y-84915277D01*
X137319954Y-84727068D01*
X137381275Y-84693585D01*
X137381493Y-84693537D01*
X137439803Y-84681144D01*
X137439807Y-84681142D01*
X137439808Y-84681142D01*
X137498058Y-84655206D01*
X137612730Y-84604151D01*
X137765871Y-84492888D01*
X137892533Y-84352216D01*
X137987179Y-84188284D01*
X138045674Y-84008256D01*
X138065460Y-83820000D01*
X138045674Y-83631744D01*
X137987179Y-83451716D01*
X137892533Y-83287784D01*
X137765871Y-83147112D01*
X137765870Y-83147111D01*
X137612734Y-83035851D01*
X137612729Y-83035848D01*
X137439807Y-82958857D01*
X137439802Y-82958855D01*
X137294001Y-82927865D01*
X137254646Y-82919500D01*
X137065354Y-82919500D01*
X137032897Y-82926398D01*
X136880197Y-82958855D01*
X136880192Y-82958857D01*
X136707270Y-83035848D01*
X136707265Y-83035851D01*
X136554129Y-83147111D01*
X136427466Y-83287785D01*
X136332821Y-83451715D01*
X136332819Y-83451719D01*
X136280201Y-83613661D01*
X136249951Y-83663023D01*
X134814793Y-85098181D01*
X134753470Y-85131666D01*
X134727116Y-85134500D01*
X134697501Y-85134500D01*
X134697480Y-85134501D01*
X134594703Y-85145000D01*
X134594700Y-85145001D01*
X134428168Y-85200185D01*
X134428163Y-85200187D01*
X134278842Y-85292289D01*
X134154789Y-85416342D01*
X134154788Y-85416344D01*
X134103895Y-85498856D01*
X134074448Y-85546597D01*
X134022500Y-85593321D01*
X133968909Y-85605500D01*
X133140831Y-85605500D01*
X133073792Y-85585815D01*
X133067944Y-85581817D01*
X133059730Y-85575849D01*
X133059729Y-85575848D01*
X132886807Y-85498857D01*
X132886802Y-85498855D01*
X132741001Y-85467865D01*
X132701646Y-85459500D01*
X132512354Y-85459500D01*
X132479897Y-85466398D01*
X132327197Y-85498855D01*
X132327192Y-85498857D01*
X132154270Y-85575848D01*
X132154265Y-85575851D01*
X132001129Y-85687111D01*
X131874466Y-85827785D01*
X131779821Y-85991715D01*
X131779818Y-85991722D01*
X131723494Y-86165072D01*
X131721326Y-86171744D01*
X131701540Y-86360000D01*
X131721326Y-86548256D01*
X131721327Y-86548259D01*
X131779818Y-86728277D01*
X131779821Y-86728284D01*
X131874467Y-86892216D01*
X131960439Y-86987697D01*
X132001129Y-87032888D01*
X132154265Y-87144148D01*
X132154270Y-87144151D01*
X132327192Y-87221142D01*
X132327197Y-87221144D01*
X132512354Y-87260500D01*
X132512355Y-87260500D01*
X132701644Y-87260500D01*
X132701646Y-87260500D01*
X132886803Y-87221144D01*
X133059730Y-87144151D01*
X133067944Y-87138182D01*
X133133750Y-87114702D01*
X133140831Y-87114500D01*
X133968909Y-87114500D01*
X134035948Y-87134185D01*
X134074447Y-87173402D01*
X134154788Y-87303656D01*
X134278844Y-87427712D01*
X134428166Y-87519814D01*
X134594703Y-87574999D01*
X134697491Y-87585500D01*
X135192113Y-87585499D01*
X135259152Y-87605183D01*
X135279794Y-87621818D01*
X137046234Y-89388258D01*
X137058016Y-89401891D01*
X137072461Y-89421294D01*
X137110634Y-89453325D01*
X137118609Y-89460633D01*
X137122557Y-89464581D01*
X137122565Y-89464588D01*
X137147008Y-89483917D01*
X137149800Y-89486191D01*
X137199899Y-89528228D01*
X137207573Y-89534667D01*
X137207575Y-89534668D01*
X137213607Y-89538635D01*
X137213576Y-89538680D01*
X137220038Y-89542797D01*
X137220067Y-89542751D01*
X137226203Y-89546536D01*
X137226205Y-89546537D01*
X137226208Y-89546539D01*
X137294597Y-89578429D01*
X137297779Y-89579969D01*
X137365189Y-89613824D01*
X137365194Y-89613825D01*
X137371979Y-89616295D01*
X137371960Y-89616347D01*
X137379188Y-89618859D01*
X137379206Y-89618808D01*
X137386056Y-89621078D01*
X137386059Y-89621078D01*
X137386060Y-89621079D01*
X137459993Y-89636344D01*
X137463354Y-89637089D01*
X137536812Y-89654500D01*
X137536818Y-89654500D01*
X137543985Y-89655338D01*
X137543978Y-89655391D01*
X137551595Y-89656169D01*
X137551600Y-89656116D01*
X137558789Y-89656745D01*
X137558792Y-89656744D01*
X137558793Y-89656745D01*
X137618067Y-89655020D01*
X137634161Y-89654552D01*
X137637767Y-89654500D01*
X138061500Y-89654500D01*
X138128539Y-89674185D01*
X138174294Y-89726989D01*
X138185500Y-89778500D01*
X138185500Y-93057126D01*
X138165815Y-93124165D01*
X138149181Y-93144807D01*
X138142032Y-93151955D01*
X138142029Y-93151959D01*
X138053001Y-93296294D01*
X138052996Y-93296305D01*
X137999651Y-93457290D01*
X137989500Y-93556647D01*
X137989500Y-94403337D01*
X137989501Y-94403355D01*
X137999650Y-94502707D01*
X137999652Y-94502714D01*
X138003124Y-94513191D01*
X138005526Y-94583019D01*
X137973099Y-94639875D01*
X137137795Y-95475181D01*
X137076472Y-95508666D01*
X137050114Y-95511500D01*
X123209886Y-95511500D01*
X123142847Y-95491815D01*
X123122205Y-95475181D01*
X114396818Y-86749794D01*
X114363333Y-86688471D01*
X114360499Y-86662113D01*
X114360499Y-86360000D01*
X123554540Y-86360000D01*
X123574326Y-86548256D01*
X123574327Y-86548259D01*
X123632818Y-86728277D01*
X123632821Y-86728284D01*
X123727467Y-86892216D01*
X123813439Y-86987697D01*
X123854129Y-87032888D01*
X124007265Y-87144148D01*
X124007270Y-87144151D01*
X124180192Y-87221142D01*
X124180197Y-87221144D01*
X124365354Y-87260500D01*
X124365355Y-87260500D01*
X124554644Y-87260500D01*
X124554646Y-87260500D01*
X124739803Y-87221144D01*
X124912730Y-87144151D01*
X125065871Y-87032888D01*
X125192533Y-86892216D01*
X125287179Y-86728284D01*
X125345674Y-86548256D01*
X125365460Y-86360000D01*
X125345674Y-86171744D01*
X125287179Y-85991716D01*
X125192533Y-85827784D01*
X125065871Y-85687112D01*
X125065870Y-85687111D01*
X124912734Y-85575851D01*
X124912729Y-85575848D01*
X124739807Y-85498857D01*
X124739802Y-85498855D01*
X124594001Y-85467865D01*
X124554646Y-85459500D01*
X124365354Y-85459500D01*
X124332897Y-85466398D01*
X124180197Y-85498855D01*
X124180192Y-85498857D01*
X124007270Y-85575848D01*
X124007265Y-85575851D01*
X123854129Y-85687111D01*
X123727466Y-85827785D01*
X123632821Y-85991715D01*
X123632818Y-85991722D01*
X123576494Y-86165072D01*
X123574326Y-86171744D01*
X123554540Y-86360000D01*
X114360499Y-86360000D01*
X114360499Y-83532129D01*
X114360498Y-83532123D01*
X114360497Y-83532116D01*
X114354091Y-83472517D01*
X114346332Y-83451715D01*
X114303797Y-83337671D01*
X114303793Y-83337664D01*
X114217547Y-83222455D01*
X114217544Y-83222452D01*
X114102335Y-83136206D01*
X114102328Y-83136202D01*
X113967482Y-83085908D01*
X113967483Y-83085908D01*
X113907883Y-83079501D01*
X113907881Y-83079500D01*
X113907873Y-83079500D01*
X113907864Y-83079500D01*
X109612129Y-83079500D01*
X109612123Y-83079501D01*
X109552516Y-83085908D01*
X109417671Y-83136202D01*
X109417664Y-83136206D01*
X109302455Y-83222452D01*
X109302452Y-83222455D01*
X109216206Y-83337664D01*
X109216202Y-83337671D01*
X109165908Y-83472517D01*
X109159501Y-83532116D01*
X109159501Y-83532123D01*
X109159500Y-83532135D01*
X109159500Y-86827870D01*
X109159501Y-86827876D01*
X109165908Y-86887483D01*
X109216202Y-87022328D01*
X109216206Y-87022335D01*
X109302452Y-87137544D01*
X109302455Y-87137547D01*
X109417664Y-87223793D01*
X109417671Y-87223797D01*
X109552517Y-87274091D01*
X109552516Y-87274091D01*
X109559444Y-87274835D01*
X109612127Y-87280500D01*
X112742113Y-87280499D01*
X112809152Y-87300184D01*
X112829794Y-87316818D01*
X121820795Y-96307819D01*
X121854280Y-96369142D01*
X121849296Y-96438834D01*
X121807424Y-96494767D01*
X121741960Y-96519184D01*
X121733114Y-96519500D01*
X99184500Y-96519500D01*
X99117461Y-96499815D01*
X99071706Y-96447011D01*
X99060500Y-96395500D01*
X99060500Y-81530000D01*
X123372501Y-81530000D01*
X123372501Y-81804986D01*
X123382994Y-81907697D01*
X123438141Y-82074119D01*
X123438143Y-82074124D01*
X123530184Y-82223345D01*
X123654154Y-82347315D01*
X123803375Y-82439356D01*
X123803380Y-82439358D01*
X123969802Y-82494505D01*
X123969809Y-82494506D01*
X124072519Y-82504999D01*
X124209999Y-82504999D01*
X124710000Y-82504999D01*
X124847472Y-82504999D01*
X124847486Y-82504998D01*
X124950197Y-82494505D01*
X125116619Y-82439358D01*
X125116624Y-82439356D01*
X125265845Y-82347315D01*
X125389818Y-82223342D01*
X125391665Y-82220348D01*
X125393469Y-82218724D01*
X125394298Y-82217677D01*
X125394476Y-82217818D01*
X125443610Y-82173621D01*
X125512573Y-82162396D01*
X125576656Y-82190236D01*
X125602743Y-82220341D01*
X125604788Y-82223656D01*
X125728844Y-82347712D01*
X125878166Y-82439814D01*
X126044703Y-82494999D01*
X126147491Y-82505500D01*
X126248500Y-82505499D01*
X126315538Y-82525183D01*
X126361294Y-82577986D01*
X126372500Y-82629499D01*
X126372500Y-90288250D01*
X126352815Y-90355289D01*
X126319624Y-90389825D01*
X126193118Y-90478405D01*
X126038402Y-90633121D01*
X125912900Y-90812357D01*
X125912898Y-90812361D01*
X125820426Y-91010668D01*
X125820422Y-91010677D01*
X125763793Y-91222020D01*
X125763793Y-91222023D01*
X125744723Y-91440000D01*
X125763081Y-91649844D01*
X125763793Y-91657975D01*
X125763793Y-91657979D01*
X125820422Y-91869322D01*
X125820424Y-91869326D01*
X125820425Y-91869330D01*
X125846235Y-91924680D01*
X125912897Y-92067638D01*
X125912898Y-92067639D01*
X126038402Y-92246877D01*
X126193123Y-92401598D01*
X126372361Y-92527102D01*
X126570670Y-92619575D01*
X126782023Y-92676207D01*
X126964926Y-92692208D01*
X126999998Y-92695277D01*
X127000000Y-92695277D01*
X127000002Y-92695277D01*
X127028254Y-92692805D01*
X127217977Y-92676207D01*
X127429330Y-92619575D01*
X127627639Y-92527102D01*
X127806877Y-92401598D01*
X127961598Y-92246877D01*
X128087102Y-92067639D01*
X128179575Y-91869330D01*
X128236207Y-91657977D01*
X128255277Y-91440000D01*
X128236207Y-91222023D01*
X128179575Y-91010670D01*
X128087102Y-90812362D01*
X128087100Y-90812359D01*
X128087099Y-90812357D01*
X127961599Y-90633124D01*
X127897072Y-90568597D01*
X127806877Y-90478402D01*
X127794205Y-90469529D01*
X127680376Y-90389824D01*
X127636751Y-90335247D01*
X127627500Y-90288250D01*
X127627500Y-86340131D01*
X128907825Y-86340131D01*
X128911950Y-86383767D01*
X128912500Y-86395437D01*
X128912500Y-89017032D01*
X128910772Y-89032681D01*
X128911054Y-89032708D01*
X128910319Y-89040475D01*
X128912439Y-89107917D01*
X128912500Y-89111811D01*
X128912500Y-89139476D01*
X128913006Y-89143485D01*
X128913921Y-89155116D01*
X128915298Y-89198942D01*
X128920916Y-89218275D01*
X128924862Y-89237329D01*
X128927383Y-89257287D01*
X128927386Y-89257299D01*
X128943519Y-89298048D01*
X128947302Y-89309098D01*
X128959530Y-89351187D01*
X128959530Y-89351188D01*
X128969777Y-89368515D01*
X128978335Y-89385985D01*
X128985745Y-89404701D01*
X129011511Y-89440164D01*
X129017925Y-89449929D01*
X129040234Y-89487652D01*
X129040240Y-89487660D01*
X129054469Y-89501888D01*
X129067106Y-89516684D01*
X129078937Y-89532967D01*
X129112717Y-89560912D01*
X129121346Y-89568765D01*
X130620813Y-91068232D01*
X130654298Y-91129555D01*
X130652908Y-91188003D01*
X130643793Y-91222023D01*
X130624723Y-91440000D01*
X130643081Y-91649844D01*
X130643793Y-91657975D01*
X130643793Y-91657979D01*
X130700422Y-91869322D01*
X130700424Y-91869326D01*
X130700425Y-91869330D01*
X130726235Y-91924680D01*
X130792897Y-92067638D01*
X130792898Y-92067639D01*
X130918402Y-92246877D01*
X131073123Y-92401598D01*
X131252361Y-92527102D01*
X131450670Y-92619575D01*
X131662023Y-92676207D01*
X131844926Y-92692208D01*
X131879998Y-92695277D01*
X131880000Y-92695277D01*
X131880002Y-92695277D01*
X131908254Y-92692805D01*
X132097977Y-92676207D01*
X132309330Y-92619575D01*
X132507639Y-92527102D01*
X132686877Y-92401598D01*
X132841598Y-92246877D01*
X132967102Y-92067639D01*
X133059575Y-91869330D01*
X133116207Y-91657977D01*
X133135277Y-91440000D01*
X133116207Y-91222023D01*
X133059575Y-91010670D01*
X132967102Y-90812362D01*
X132967100Y-90812359D01*
X132967099Y-90812357D01*
X132841599Y-90633124D01*
X132777072Y-90568597D01*
X132686877Y-90478402D01*
X132507639Y-90352898D01*
X132507640Y-90352898D01*
X132507638Y-90352897D01*
X132406195Y-90305594D01*
X132309330Y-90260425D01*
X132309326Y-90260424D01*
X132309322Y-90260422D01*
X132097977Y-90203793D01*
X131880002Y-90184723D01*
X131879998Y-90184723D01*
X131662029Y-90203792D01*
X131662024Y-90203792D01*
X131662023Y-90203793D01*
X131662020Y-90203793D01*
X131662019Y-90203794D01*
X131628003Y-90212908D01*
X131558153Y-90211243D01*
X131508232Y-90180813D01*
X130203819Y-88876400D01*
X130170334Y-88815077D01*
X130167500Y-88788719D01*
X130167500Y-86671280D01*
X130187185Y-86604241D01*
X130203814Y-86583604D01*
X134245600Y-82541817D01*
X134306923Y-82508333D01*
X134333281Y-82505499D01*
X135007502Y-82505499D01*
X135007508Y-82505499D01*
X135110297Y-82494999D01*
X135276834Y-82439814D01*
X135426156Y-82347712D01*
X135550212Y-82223656D01*
X135642314Y-82074334D01*
X135697499Y-81907797D01*
X135708000Y-81805009D01*
X135707999Y-80754992D01*
X135702298Y-80699187D01*
X135697499Y-80652203D01*
X135697498Y-80652200D01*
X135682557Y-80607112D01*
X135642314Y-80485666D01*
X135550212Y-80336344D01*
X135426156Y-80212288D01*
X135306403Y-80138424D01*
X135276836Y-80120187D01*
X135276831Y-80120185D01*
X135215687Y-80099924D01*
X135110297Y-80065001D01*
X135110295Y-80065000D01*
X135007510Y-80054500D01*
X134232498Y-80054500D01*
X134232480Y-80054501D01*
X134129703Y-80065000D01*
X134129700Y-80065001D01*
X133963168Y-80120185D01*
X133963163Y-80120187D01*
X133813842Y-80212289D01*
X133689788Y-80336343D01*
X133689783Y-80336349D01*
X133687741Y-80339661D01*
X133685747Y-80341453D01*
X133685307Y-80342011D01*
X133685211Y-80341935D01*
X133635791Y-80386383D01*
X133566828Y-80397602D01*
X133502747Y-80369755D01*
X133476668Y-80339656D01*
X133474819Y-80336659D01*
X133474816Y-80336655D01*
X133350845Y-80212684D01*
X133201624Y-80120643D01*
X133201619Y-80120641D01*
X133035197Y-80065494D01*
X133035190Y-80065493D01*
X132932486Y-80055000D01*
X132795000Y-80055000D01*
X132795000Y-81406000D01*
X132775315Y-81473039D01*
X132722511Y-81518794D01*
X132671000Y-81530000D01*
X131457501Y-81530000D01*
X131457501Y-81804986D01*
X131467994Y-81907697D01*
X131523141Y-82074119D01*
X131523143Y-82074124D01*
X131615184Y-82223345D01*
X131739154Y-82347315D01*
X131888375Y-82439356D01*
X131888380Y-82439358D01*
X132054802Y-82494505D01*
X132054809Y-82494506D01*
X132157519Y-82504999D01*
X132208215Y-82504999D01*
X132275255Y-82524682D01*
X132321010Y-82577485D01*
X132330955Y-82646644D01*
X132301931Y-82710200D01*
X132295898Y-82716680D01*
X129154953Y-85857626D01*
X129142669Y-85867469D01*
X129142849Y-85867687D01*
X129136837Y-85872660D01*
X129090646Y-85921847D01*
X129087941Y-85924638D01*
X129068379Y-85944200D01*
X129068375Y-85944205D01*
X129065895Y-85947403D01*
X129058317Y-85956274D01*
X129028308Y-85988230D01*
X129028305Y-85988234D01*
X129018606Y-86005877D01*
X129007928Y-86022133D01*
X128995594Y-86038034D01*
X128995589Y-86038042D01*
X128978185Y-86078262D01*
X128973046Y-86088752D01*
X128951927Y-86127167D01*
X128946920Y-86146668D01*
X128940621Y-86165064D01*
X128933893Y-86180612D01*
X128932625Y-86183544D01*
X128932624Y-86183546D01*
X128925769Y-86226831D01*
X128923401Y-86238267D01*
X128912500Y-86280723D01*
X128912500Y-86300858D01*
X128910973Y-86320257D01*
X128907825Y-86340131D01*
X127627500Y-86340131D01*
X127627500Y-81827964D01*
X127629228Y-81812314D01*
X127628946Y-81812288D01*
X127629680Y-81804525D01*
X127627561Y-81737095D01*
X127627500Y-81733200D01*
X127627500Y-81705528D01*
X127627500Y-81705524D01*
X127626992Y-81701509D01*
X127626076Y-81689863D01*
X127624700Y-81646057D01*
X127624699Y-81646053D01*
X127624699Y-81646051D01*
X127624527Y-81644960D01*
X127622999Y-81625556D01*
X127622999Y-81030000D01*
X131457500Y-81030000D01*
X132295000Y-81030000D01*
X132295000Y-80055000D01*
X132157527Y-80055000D01*
X132157512Y-80055001D01*
X132054802Y-80065494D01*
X131888380Y-80120641D01*
X131888375Y-80120643D01*
X131739154Y-80212684D01*
X131615184Y-80336654D01*
X131523143Y-80485875D01*
X131523141Y-80485880D01*
X131467994Y-80652302D01*
X131467993Y-80652309D01*
X131457500Y-80755013D01*
X131457500Y-81030000D01*
X127622999Y-81030000D01*
X127622999Y-80754998D01*
X127622998Y-80754981D01*
X127612499Y-80652203D01*
X127612498Y-80652200D01*
X127597557Y-80607112D01*
X127557314Y-80485666D01*
X127465212Y-80336344D01*
X127341156Y-80212288D01*
X127221403Y-80138424D01*
X127174679Y-80086476D01*
X127162500Y-80032885D01*
X127162500Y-79516281D01*
X127182185Y-79449242D01*
X127198819Y-79428600D01*
X129490600Y-77136819D01*
X129551923Y-77103334D01*
X129578281Y-77100500D01*
X129634644Y-77100500D01*
X129634646Y-77100500D01*
X129819803Y-77061144D01*
X129992730Y-76984151D01*
X130145871Y-76872888D01*
X130272533Y-76732216D01*
X130367179Y-76568284D01*
X130425674Y-76388256D01*
X130445460Y-76200000D01*
X130425674Y-76011744D01*
X130367179Y-75831716D01*
X130272533Y-75667784D01*
X130145871Y-75527112D01*
X130145870Y-75527111D01*
X129992734Y-75415851D01*
X129992729Y-75415848D01*
X129819807Y-75338857D01*
X129819802Y-75338855D01*
X129674001Y-75307865D01*
X129634646Y-75299500D01*
X129445354Y-75299500D01*
X129412897Y-75306398D01*
X129260197Y-75338855D01*
X129260192Y-75338857D01*
X129087270Y-75415848D01*
X129087265Y-75415851D01*
X128934129Y-75527111D01*
X128807466Y-75667785D01*
X128712821Y-75831715D01*
X128712818Y-75831722D01*
X128658437Y-75999092D01*
X128654326Y-76011744D01*
X128640276Y-76145427D01*
X128637011Y-76176489D01*
X128610426Y-76241103D01*
X128601371Y-76251208D01*
X126149953Y-78702626D01*
X126137669Y-78712469D01*
X126137849Y-78712687D01*
X126131837Y-78717660D01*
X126085646Y-78766847D01*
X126082941Y-78769638D01*
X126063379Y-78789200D01*
X126063375Y-78789205D01*
X126060895Y-78792403D01*
X126053317Y-78801274D01*
X126023308Y-78833230D01*
X126023305Y-78833234D01*
X126013606Y-78850877D01*
X126002928Y-78867133D01*
X125990594Y-78883034D01*
X125990589Y-78883042D01*
X125973185Y-78923262D01*
X125968046Y-78933752D01*
X125946927Y-78972167D01*
X125941920Y-78991668D01*
X125935621Y-79010064D01*
X125928893Y-79025612D01*
X125927625Y-79028544D01*
X125927624Y-79028546D01*
X125920769Y-79071831D01*
X125918401Y-79083267D01*
X125907500Y-79125723D01*
X125907500Y-79145858D01*
X125905973Y-79165255D01*
X125902825Y-79185133D01*
X125906950Y-79228767D01*
X125907500Y-79240437D01*
X125907500Y-80032885D01*
X125887815Y-80099924D01*
X125848597Y-80138424D01*
X125728842Y-80212289D01*
X125604788Y-80336343D01*
X125604783Y-80336349D01*
X125602741Y-80339661D01*
X125600747Y-80341453D01*
X125600307Y-80342011D01*
X125600211Y-80341935D01*
X125550791Y-80386383D01*
X125481828Y-80397602D01*
X125417747Y-80369755D01*
X125391668Y-80339656D01*
X125389819Y-80336659D01*
X125389816Y-80336655D01*
X125265845Y-80212684D01*
X125116624Y-80120643D01*
X125116619Y-80120641D01*
X124950197Y-80065494D01*
X124950190Y-80065493D01*
X124847486Y-80055000D01*
X124710000Y-80055000D01*
X124710000Y-82504999D01*
X124209999Y-82504999D01*
X124210000Y-82504998D01*
X124210000Y-81530000D01*
X123372501Y-81530000D01*
X99060500Y-81530000D01*
X99060500Y-81030000D01*
X123372500Y-81030000D01*
X124210000Y-81030000D01*
X124210000Y-80055000D01*
X124072527Y-80055000D01*
X124072512Y-80055001D01*
X123969802Y-80065494D01*
X123803380Y-80120641D01*
X123803375Y-80120643D01*
X123654154Y-80212684D01*
X123530184Y-80336654D01*
X123438143Y-80485875D01*
X123438141Y-80485880D01*
X123382994Y-80652302D01*
X123382993Y-80652309D01*
X123372500Y-80755013D01*
X123372500Y-81030000D01*
X99060500Y-81030000D01*
X99060500Y-76101961D01*
X107759496Y-76101961D01*
X107767185Y-76128152D01*
X107770943Y-76145427D01*
X107774831Y-76172458D01*
X107786172Y-76197292D01*
X107792353Y-76213865D01*
X107800042Y-76240049D01*
X107800044Y-76240055D01*
X107814802Y-76263020D01*
X107823278Y-76278543D01*
X107834615Y-76303370D01*
X107834618Y-76303374D01*
X107834619Y-76303376D01*
X107852498Y-76324010D01*
X107863095Y-76338166D01*
X107877854Y-76361131D01*
X107877855Y-76361132D01*
X107877856Y-76361133D01*
X107898484Y-76379008D01*
X107910990Y-76391514D01*
X107928441Y-76411652D01*
X107928869Y-76412146D01*
X107951835Y-76426905D01*
X107965984Y-76437496D01*
X107986624Y-76455381D01*
X107986628Y-76455383D01*
X107986630Y-76455384D01*
X108011458Y-76466722D01*
X108026981Y-76475197D01*
X108049945Y-76489956D01*
X108076129Y-76497644D01*
X108092703Y-76503825D01*
X108117542Y-76515169D01*
X108128829Y-76516791D01*
X108144562Y-76519054D01*
X108161852Y-76522815D01*
X108188037Y-76530504D01*
X108188038Y-76530504D01*
X115331962Y-76530504D01*
X115358154Y-76522812D01*
X115375437Y-76519053D01*
X115402458Y-76515169D01*
X115427288Y-76503828D01*
X115443868Y-76497644D01*
X115470055Y-76489956D01*
X115493024Y-76475193D01*
X115508541Y-76466721D01*
X115533376Y-76455381D01*
X115554014Y-76437497D01*
X115568164Y-76426905D01*
X115591131Y-76412146D01*
X115609018Y-76391502D01*
X115621502Y-76379018D01*
X115642146Y-76361131D01*
X115656905Y-76338164D01*
X115667497Y-76324014D01*
X115685381Y-76303376D01*
X115696721Y-76278541D01*
X115705193Y-76263024D01*
X115719956Y-76240055D01*
X115727644Y-76213868D01*
X115733829Y-76197287D01*
X115737209Y-76189886D01*
X115745169Y-76172458D01*
X115749053Y-76145437D01*
X115752812Y-76128154D01*
X115760504Y-76101962D01*
X115760504Y-75958038D01*
X115760504Y-64994201D01*
X115760504Y-64958038D01*
X115752814Y-64931851D01*
X115749054Y-64914562D01*
X115745169Y-64887543D01*
X115745169Y-64887542D01*
X115733825Y-64862703D01*
X115727643Y-64846127D01*
X115719957Y-64819948D01*
X115719956Y-64819947D01*
X115719956Y-64819945D01*
X115705196Y-64796979D01*
X115696722Y-64781458D01*
X115685384Y-64756630D01*
X115685381Y-64756625D01*
X115685381Y-64756624D01*
X115667496Y-64735984D01*
X115656905Y-64721835D01*
X115642146Y-64698869D01*
X115642145Y-64698868D01*
X115621514Y-64680990D01*
X115609008Y-64668484D01*
X115591133Y-64647856D01*
X115591132Y-64647855D01*
X115591131Y-64647854D01*
X115568166Y-64633095D01*
X115554007Y-64622496D01*
X115533376Y-64604619D01*
X115533374Y-64604618D01*
X115533370Y-64604615D01*
X115508543Y-64593278D01*
X115493020Y-64584802D01*
X115470055Y-64570044D01*
X115470051Y-64570042D01*
X115470049Y-64570042D01*
X115443865Y-64562353D01*
X115427292Y-64556172D01*
X115402458Y-64544831D01*
X115375427Y-64540943D01*
X115358152Y-64537185D01*
X115340803Y-64532091D01*
X115331962Y-64529496D01*
X115295799Y-64529496D01*
X108331962Y-64529496D01*
X108188038Y-64529496D01*
X108188033Y-64529496D01*
X108161843Y-64537186D01*
X108144563Y-64540945D01*
X108117541Y-64544830D01*
X108092707Y-64556172D01*
X108076135Y-64562353D01*
X108049950Y-64570042D01*
X108049940Y-64570046D01*
X108026979Y-64584802D01*
X108011458Y-64593277D01*
X107986625Y-64604618D01*
X107986622Y-64604620D01*
X107965991Y-64622496D01*
X107951837Y-64633091D01*
X107928874Y-64647849D01*
X107928868Y-64647855D01*
X107910990Y-64668486D01*
X107898486Y-64680990D01*
X107877855Y-64698868D01*
X107877849Y-64698874D01*
X107863091Y-64721837D01*
X107852496Y-64735991D01*
X107834620Y-64756622D01*
X107834618Y-64756625D01*
X107823277Y-64781458D01*
X107814802Y-64796979D01*
X107800046Y-64819940D01*
X107800042Y-64819950D01*
X107792353Y-64846135D01*
X107786172Y-64862707D01*
X107774830Y-64887541D01*
X107770945Y-64914563D01*
X107767186Y-64931843D01*
X107759496Y-64958033D01*
X107759496Y-76101961D01*
X99060500Y-76101961D01*
X99060500Y-56130000D01*
X109160000Y-56130000D01*
X109160000Y-57527844D01*
X109166401Y-57587372D01*
X109166403Y-57587379D01*
X109216645Y-57722086D01*
X109216649Y-57722093D01*
X109302809Y-57837187D01*
X109302812Y-57837190D01*
X109417906Y-57923350D01*
X109417913Y-57923354D01*
X109552620Y-57973596D01*
X109552627Y-57973598D01*
X109612155Y-57979999D01*
X109612172Y-57980000D01*
X111510000Y-57980000D01*
X111510000Y-56130000D01*
X112010000Y-56130000D01*
X112010000Y-57980000D01*
X113907828Y-57980000D01*
X113907844Y-57979999D01*
X113967372Y-57973598D01*
X113967379Y-57973596D01*
X114102086Y-57923354D01*
X114102093Y-57923350D01*
X114217187Y-57837190D01*
X114217190Y-57837187D01*
X114303350Y-57722093D01*
X114303354Y-57722086D01*
X114353596Y-57587379D01*
X114353598Y-57587372D01*
X114359999Y-57527844D01*
X114360000Y-57527827D01*
X114360000Y-56130000D01*
X112010000Y-56130000D01*
X111510000Y-56130000D01*
X109160000Y-56130000D01*
X99060500Y-56130000D01*
X99060500Y-55630000D01*
X109160000Y-55630000D01*
X111510000Y-55630000D01*
X111510000Y-53780000D01*
X112010000Y-53780000D01*
X112010000Y-55630000D01*
X114360000Y-55630000D01*
X114360000Y-54232172D01*
X114359999Y-54232155D01*
X114353598Y-54172627D01*
X114353596Y-54172620D01*
X114303354Y-54037913D01*
X114303350Y-54037906D01*
X114217190Y-53922812D01*
X114217187Y-53922809D01*
X114102093Y-53836649D01*
X114102086Y-53836645D01*
X113967379Y-53786403D01*
X113967372Y-53786401D01*
X113907844Y-53780000D01*
X112010000Y-53780000D01*
X111510000Y-53780000D01*
X109612155Y-53780000D01*
X109552627Y-53786401D01*
X109552620Y-53786403D01*
X109417913Y-53836645D01*
X109417906Y-53836649D01*
X109302812Y-53922809D01*
X109302809Y-53922812D01*
X109216649Y-54037906D01*
X109216645Y-54037913D01*
X109166403Y-54172620D01*
X109166401Y-54172627D01*
X109160000Y-54232155D01*
X109160000Y-55630000D01*
X99060500Y-55630000D01*
X99060500Y-50924500D01*
X99080185Y-50857461D01*
X99132989Y-50811706D01*
X99184500Y-50800500D01*
X162435500Y-50800500D01*
X162502539Y-50820185D01*
G37*
G04 #@! TD.AperFunction*
G04 #@! TA.AperFunction,Conductor*
G36*
X151214855Y-89566546D02*
G01*
X151231575Y-89585842D01*
X151361501Y-89771396D01*
X151361506Y-89771402D01*
X151528597Y-89938493D01*
X151528603Y-89938498D01*
X151714158Y-90068425D01*
X151757783Y-90123002D01*
X151764977Y-90192500D01*
X151733454Y-90254855D01*
X151714158Y-90271575D01*
X151528597Y-90401505D01*
X151361505Y-90568597D01*
X151231269Y-90754595D01*
X151176692Y-90798220D01*
X151107194Y-90805414D01*
X151044839Y-90773891D01*
X151028119Y-90754595D01*
X150974925Y-90678626D01*
X150974925Y-90678625D01*
X150343076Y-91310475D01*
X150319493Y-91230156D01*
X150241761Y-91109202D01*
X150133100Y-91015048D01*
X150002315Y-90955320D01*
X149992533Y-90953913D01*
X150621373Y-90325073D01*
X150621373Y-90325072D01*
X150545405Y-90271880D01*
X150501780Y-90217304D01*
X150494586Y-90147805D01*
X150526108Y-90085451D01*
X150545399Y-90068734D01*
X150731401Y-89938495D01*
X150898495Y-89771401D01*
X151028425Y-89585842D01*
X151083002Y-89542217D01*
X151152500Y-89535023D01*
X151214855Y-89566546D01*
G37*
G04 #@! TD.AperFunction*
G04 #@! TD*
M02*
